<?xml version="1.0" encoding="UTF-8"?>
<svg xmlns="http://www.w3.org/2000/svg" xmlns:xlink="http://www.w3.org/1999/xlink" width="400pt" height="40pt" viewBox="0 0 400 40" version="1.1" shape-rendering="crispEdges">
<g id="surface1">
<rect x="0" y="0" width="400" height="40" style="fill:rgb(0%,0%,0%);fill-opacity:1;stroke:none;"/>
<path style=" stroke:none;fill-rule:nonzero;fill:rgb(0%,0%,100%);fill-opacity:1;" d="M 0 0 L 12.5 0 L 12.5 20 L 0 20 Z M 0 0 "/>
<path style=" stroke:none;fill-rule:nonzero;fill:rgb(100%,64.705882%,0%);fill-opacity:1;" d="M 0 20 L 12.5 20 L 12.5 40 L 0 40 Z M 0 20 "/>
<path style=" stroke:none;fill-rule:nonzero;fill:rgb(0%,0%,100%);fill-opacity:1;" d="M 12.5 0 L 18.75 0 L 18.75 13.332031 L 12.5 13.332031 Z M 12.5 0 "/>
<path style=" stroke:none;fill-rule:nonzero;fill:rgb(0%,50.196078%,0%);fill-opacity:1;" d="M 12.5 13.332031 L 18.75 13.332031 L 18.75 26.664062 L 12.5 26.664062 Z M 12.5 13.332031 "/>
<path style=" stroke:none;fill-rule:nonzero;fill:rgb(100%,64.705882%,0%);fill-opacity:1;" d="M 12.5 26.667969 L 18.75 26.667969 L 18.75 40 L 12.5 40 Z M 12.5 26.667969 "/>
<path style=" stroke:none;fill-rule:nonzero;fill:rgb(0%,0%,100%);fill-opacity:1;" d="M 18.75 0 L 25 0 L 25 13.332031 L 18.75 13.332031 Z M 18.75 0 "/>
<path style=" stroke:none;fill-rule:nonzero;fill:rgb(100%,100%,0%);fill-opacity:1;" d="M 18.75 13.332031 L 25 13.332031 L 25 26.664062 L 18.75 26.664062 Z M 18.75 13.332031 "/>
<path style=" stroke:none;fill-rule:nonzero;fill:rgb(100%,64.705882%,0%);fill-opacity:1;" d="M 18.75 26.667969 L 25 26.667969 L 25 40 L 18.75 40 Z M 18.75 26.667969 "/>
<path style=" stroke:none;fill-rule:nonzero;fill:rgb(0%,0%,100%);fill-opacity:1;" d="M 25 0 L 37.5 0 L 37.5 20 L 25 20 Z M 25 0 "/>
<path style=" stroke:none;fill-rule:nonzero;fill:rgb(100%,64.705882%,0%);fill-opacity:1;" d="M 25 20 L 37.5 20 L 37.5 40 L 25 40 Z M 25 20 "/>
<path style=" stroke:none;fill-rule:nonzero;fill:rgb(0%,0%,100%);fill-opacity:1;" d="M 37.5 0 L 43.75 0 L 43.75 13.332031 L 37.5 13.332031 Z M 37.5 0 "/>
<path style=" stroke:none;fill-rule:nonzero;fill:rgb(0%,50.196078%,0%);fill-opacity:1;" d="M 37.5 13.332031 L 43.75 13.332031 L 43.75 26.664062 L 37.5 26.664062 Z M 37.5 13.332031 "/>
<path style=" stroke:none;fill-rule:nonzero;fill:rgb(100%,64.705882%,0%);fill-opacity:1;" d="M 37.5 26.667969 L 43.75 26.667969 L 43.75 40 L 37.5 40 Z M 37.5 26.667969 "/>
<path style=" stroke:none;fill-rule:nonzero;fill:rgb(0%,0%,100%);fill-opacity:1;" d="M 43.75 0 L 50 0 L 50 13.332031 L 43.75 13.332031 Z M 43.75 0 "/>
<path style=" stroke:none;fill-rule:nonzero;fill:rgb(100%,100%,0%);fill-opacity:1;" d="M 43.75 13.332031 L 50 13.332031 L 50 26.664062 L 43.75 26.664062 Z M 43.75 13.332031 "/>
<path style=" stroke:none;fill-rule:nonzero;fill:rgb(100%,64.705882%,0%);fill-opacity:1;" d="M 43.75 26.667969 L 50 26.667969 L 50 40 L 43.75 40 Z M 43.75 26.667969 "/>
<path style=" stroke:none;fill-rule:nonzero;fill:rgb(0%,0%,100%);fill-opacity:1;" d="M 50 0 L 62.5 0 L 62.5 20 L 50 20 Z M 50 0 "/>
<path style=" stroke:none;fill-rule:nonzero;fill:rgb(100%,64.705882%,0%);fill-opacity:1;" d="M 50 20 L 62.5 20 L 62.5 40 L 50 40 Z M 50 20 "/>
<path style=" stroke:none;fill-rule:nonzero;fill:rgb(0%,0%,100%);fill-opacity:1;" d="M 62.5 0 L 68.75 0 L 68.75 13.332031 L 62.5 13.332031 Z M 62.5 0 "/>
<path style=" stroke:none;fill-rule:nonzero;fill:rgb(0%,50.196078%,0%);fill-opacity:1;" d="M 62.5 13.332031 L 68.75 13.332031 L 68.75 26.664062 L 62.5 26.664062 Z M 62.5 13.332031 "/>
<path style=" stroke:none;fill-rule:nonzero;fill:rgb(100%,64.705882%,0%);fill-opacity:1;" d="M 62.5 26.667969 L 68.75 26.667969 L 68.75 40 L 62.5 40 Z M 62.5 26.667969 "/>
<path style=" stroke:none;fill-rule:nonzero;fill:rgb(0%,0%,100%);fill-opacity:1;" d="M 68.75 0 L 75 0 L 75 13.332031 L 68.75 13.332031 Z M 68.75 0 "/>
<path style=" stroke:none;fill-rule:nonzero;fill:rgb(100%,100%,0%);fill-opacity:1;" d="M 68.75 13.332031 L 75 13.332031 L 75 26.664062 L 68.75 26.664062 Z M 68.75 13.332031 "/>
<path style=" stroke:none;fill-rule:nonzero;fill:rgb(100%,64.705882%,0%);fill-opacity:1;" d="M 68.75 26.667969 L 75 26.667969 L 75 40 L 68.75 40 Z M 68.75 26.667969 "/>
<path style=" stroke:none;fill-rule:nonzero;fill:rgb(0%,0%,100%);fill-opacity:1;" d="M 75 0 L 87.5 0 L 87.5 20 L 75 20 Z M 75 0 "/>
<path style=" stroke:none;fill-rule:nonzero;fill:rgb(100%,64.705882%,0%);fill-opacity:1;" d="M 75 20 L 87.5 20 L 87.5 40 L 75 40 Z M 75 20 "/>
<path style=" stroke:none;fill-rule:nonzero;fill:rgb(0%,0%,100%);fill-opacity:1;" d="M 87.5 0 L 93.75 0 L 93.75 13.332031 L 87.5 13.332031 Z M 87.5 0 "/>
<path style=" stroke:none;fill-rule:nonzero;fill:rgb(0%,50.196078%,0%);fill-opacity:1;" d="M 87.5 13.332031 L 93.75 13.332031 L 93.75 26.664062 L 87.5 26.664062 Z M 87.5 13.332031 "/>
<path style=" stroke:none;fill-rule:nonzero;fill:rgb(100%,64.705882%,0%);fill-opacity:1;" d="M 87.5 26.667969 L 93.75 26.667969 L 93.75 40 L 87.5 40 Z M 87.5 26.667969 "/>
<path style=" stroke:none;fill-rule:nonzero;fill:rgb(0%,0%,100%);fill-opacity:1;" d="M 93.75 0 L 100 0 L 100 13.332031 L 93.75 13.332031 Z M 93.75 0 "/>
<path style=" stroke:none;fill-rule:nonzero;fill:rgb(100%,100%,0%);fill-opacity:1;" d="M 93.75 13.332031 L 100 13.332031 L 100 26.664062 L 93.75 26.664062 Z M 93.75 13.332031 "/>
<path style=" stroke:none;fill-rule:nonzero;fill:rgb(100%,64.705882%,0%);fill-opacity:1;" d="M 93.75 26.667969 L 100 26.667969 L 100 40 L 93.75 40 Z M 93.75 26.667969 "/>
<path style=" stroke:none;fill-rule:nonzero;fill:rgb(0%,0%,100%);fill-opacity:1;" d="M 100 0 L 112.5 0 L 112.5 20 L 100 20 Z M 100 0 "/>
<path style=" stroke:none;fill-rule:nonzero;fill:rgb(100%,64.705882%,0%);fill-opacity:1;" d="M 100 20 L 112.5 20 L 112.5 40 L 100 40 Z M 100 20 "/>
<path style=" stroke:none;fill-rule:nonzero;fill:rgb(0%,0%,100%);fill-opacity:1;" d="M 112.5 0 L 118.75 0 L 118.75 13.332031 L 112.5 13.332031 Z M 112.5 0 "/>
<path style=" stroke:none;fill-rule:nonzero;fill:rgb(0%,50.196078%,0%);fill-opacity:1;" d="M 112.5 13.332031 L 118.75 13.332031 L 118.75 26.664062 L 112.5 26.664062 Z M 112.5 13.332031 "/>
<path style=" stroke:none;fill-rule:nonzero;fill:rgb(100%,64.705882%,0%);fill-opacity:1;" d="M 112.5 26.667969 L 118.75 26.667969 L 118.75 40 L 112.5 40 Z M 112.5 26.667969 "/>
<path style=" stroke:none;fill-rule:nonzero;fill:rgb(0%,0%,100%);fill-opacity:1;" d="M 118.75 0 L 125 0 L 125 13.332031 L 118.75 13.332031 Z M 118.75 0 "/>
<path style=" stroke:none;fill-rule:nonzero;fill:rgb(100%,100%,0%);fill-opacity:1;" d="M 118.75 13.332031 L 125 13.332031 L 125 26.664062 L 118.75 26.664062 Z M 118.75 13.332031 "/>
<path style=" stroke:none;fill-rule:nonzero;fill:rgb(100%,64.705882%,0%);fill-opacity:1;" d="M 118.75 26.667969 L 125 26.667969 L 125 40 L 118.75 40 Z M 118.75 26.667969 "/>
<path style=" stroke:none;fill-rule:nonzero;fill:rgb(0%,0%,100%);fill-opacity:1;" d="M 125 0 L 137.5 0 L 137.5 20 L 125 20 Z M 125 0 "/>
<path style=" stroke:none;fill-rule:nonzero;fill:rgb(100%,64.705882%,0%);fill-opacity:1;" d="M 125 20 L 137.5 20 L 137.5 40 L 125 40 Z M 125 20 "/>
<path style=" stroke:none;fill-rule:nonzero;fill:rgb(0%,0%,100%);fill-opacity:1;" d="M 137.5 0 L 143.75 0 L 143.75 13.332031 L 137.5 13.332031 Z M 137.5 0 "/>
<path style=" stroke:none;fill-rule:nonzero;fill:rgb(0%,50.196078%,0%);fill-opacity:1;" d="M 137.5 13.332031 L 143.75 13.332031 L 143.75 26.664062 L 137.5 26.664062 Z M 137.5 13.332031 "/>
<path style=" stroke:none;fill-rule:nonzero;fill:rgb(100%,64.705882%,0%);fill-opacity:1;" d="M 137.5 26.667969 L 143.75 26.667969 L 143.75 40 L 137.5 40 Z M 137.5 26.667969 "/>
<path style=" stroke:none;fill-rule:nonzero;fill:rgb(0%,0%,100%);fill-opacity:1;" d="M 143.75 0 L 150 0 L 150 13.332031 L 143.75 13.332031 Z M 143.75 0 "/>
<path style=" stroke:none;fill-rule:nonzero;fill:rgb(100%,100%,0%);fill-opacity:1;" d="M 143.75 13.332031 L 150 13.332031 L 150 26.664062 L 143.75 26.664062 Z M 143.75 13.332031 "/>
<path style=" stroke:none;fill-rule:nonzero;fill:rgb(100%,64.705882%,0%);fill-opacity:1;" d="M 143.75 26.667969 L 150 26.667969 L 150 40 L 143.75 40 Z M 143.75 26.667969 "/>
<path style=" stroke:none;fill-rule:nonzero;fill:rgb(0%,0%,100%);fill-opacity:1;" d="M 150 0 L 162.5 0 L 162.5 20 L 150 20 Z M 150 0 "/>
<path style=" stroke:none;fill-rule:nonzero;fill:rgb(100%,64.705882%,0%);fill-opacity:1;" d="M 150 20 L 162.5 20 L 162.5 40 L 150 40 Z M 150 20 "/>
<path style=" stroke:none;fill-rule:nonzero;fill:rgb(0%,0%,100%);fill-opacity:1;" d="M 162.5 0 L 168.75 0 L 168.75 13.332031 L 162.5 13.332031 Z M 162.5 0 "/>
<path style=" stroke:none;fill-rule:nonzero;fill:rgb(0%,50.196078%,0%);fill-opacity:1;" d="M 162.5 13.332031 L 168.75 13.332031 L 168.75 26.664062 L 162.5 26.664062 Z M 162.5 13.332031 "/>
<path style=" stroke:none;fill-rule:nonzero;fill:rgb(100%,64.705882%,0%);fill-opacity:1;" d="M 162.5 26.667969 L 168.75 26.667969 L 168.75 40 L 162.5 40 Z M 162.5 26.667969 "/>
<path style=" stroke:none;fill-rule:nonzero;fill:rgb(0%,0%,100%);fill-opacity:1;" d="M 168.75 0 L 175 0 L 175 13.332031 L 168.75 13.332031 Z M 168.75 0 "/>
<path style=" stroke:none;fill-rule:nonzero;fill:rgb(100%,100%,0%);fill-opacity:1;" d="M 168.75 13.332031 L 175 13.332031 L 175 26.664062 L 168.75 26.664062 Z M 168.75 13.332031 "/>
<path style=" stroke:none;fill-rule:nonzero;fill:rgb(100%,64.705882%,0%);fill-opacity:1;" d="M 168.75 26.667969 L 175 26.667969 L 175 40 L 168.75 40 Z M 168.75 26.667969 "/>
<path style=" stroke:none;fill-rule:nonzero;fill:rgb(0%,0%,100%);fill-opacity:1;" d="M 175 0 L 187.5 0 L 187.5 20 L 175 20 Z M 175 0 "/>
<path style=" stroke:none;fill-rule:nonzero;fill:rgb(100%,64.705882%,0%);fill-opacity:1;" d="M 175 20 L 187.5 20 L 187.5 40 L 175 40 Z M 175 20 "/>
<path style=" stroke:none;fill-rule:nonzero;fill:rgb(0%,0%,100%);fill-opacity:1;" d="M 187.5 0 L 193.75 0 L 193.75 13.332031 L 187.5 13.332031 Z M 187.5 0 "/>
<path style=" stroke:none;fill-rule:nonzero;fill:rgb(0%,50.196078%,0%);fill-opacity:1;" d="M 187.5 13.332031 L 193.75 13.332031 L 193.75 26.664062 L 187.5 26.664062 Z M 187.5 13.332031 "/>
<path style=" stroke:none;fill-rule:nonzero;fill:rgb(100%,64.705882%,0%);fill-opacity:1;" d="M 187.5 26.667969 L 193.75 26.667969 L 193.75 40 L 187.5 40 Z M 187.5 26.667969 "/>
<path style=" stroke:none;fill-rule:nonzero;fill:rgb(0%,0%,100%);fill-opacity:1;" d="M 193.75 0 L 200 0 L 200 13.332031 L 193.75 13.332031 Z M 193.75 0 "/>
<path style=" stroke:none;fill-rule:nonzero;fill:rgb(100%,100%,0%);fill-opacity:1;" d="M 193.75 13.332031 L 200 13.332031 L 200 26.664062 L 193.75 26.664062 Z M 193.75 13.332031 "/>
<path style=" stroke:none;fill-rule:nonzero;fill:rgb(100%,64.705882%,0%);fill-opacity:1;" d="M 193.75 26.667969 L 200 26.667969 L 200 40 L 193.75 40 Z M 193.75 26.667969 "/>
<path style=" stroke:none;fill-rule:nonzero;fill:rgb(0%,0%,100%);fill-opacity:1;" d="M 200 0 L 212.5 0 L 212.5 20 L 200 20 Z M 200 0 "/>
<path style=" stroke:none;fill-rule:nonzero;fill:rgb(100%,64.705882%,0%);fill-opacity:1;" d="M 200 20 L 212.5 20 L 212.5 40 L 200 40 Z M 200 20 "/>
<path style=" stroke:none;fill-rule:nonzero;fill:rgb(0%,0%,100%);fill-opacity:1;" d="M 212.5 0 L 218.75 0 L 218.75 13.332031 L 212.5 13.332031 Z M 212.5 0 "/>
<path style=" stroke:none;fill-rule:nonzero;fill:rgb(0%,50.196078%,0%);fill-opacity:1;" d="M 212.5 13.332031 L 218.75 13.332031 L 218.75 26.664062 L 212.5 26.664062 Z M 212.5 13.332031 "/>
<path style=" stroke:none;fill-rule:nonzero;fill:rgb(100%,64.705882%,0%);fill-opacity:1;" d="M 212.5 26.667969 L 218.75 26.667969 L 218.75 40 L 212.5 40 Z M 212.5 26.667969 "/>
<path style=" stroke:none;fill-rule:nonzero;fill:rgb(0%,0%,100%);fill-opacity:1;" d="M 218.75 0 L 225 0 L 225 13.332031 L 218.75 13.332031 Z M 218.75 0 "/>
<path style=" stroke:none;fill-rule:nonzero;fill:rgb(100%,100%,0%);fill-opacity:1;" d="M 218.75 13.332031 L 225 13.332031 L 225 26.664062 L 218.75 26.664062 Z M 218.75 13.332031 "/>
<path style=" stroke:none;fill-rule:nonzero;fill:rgb(100%,64.705882%,0%);fill-opacity:1;" d="M 218.75 26.667969 L 225 26.667969 L 225 40 L 218.75 40 Z M 218.75 26.667969 "/>
<path style=" stroke:none;fill-rule:nonzero;fill:rgb(0%,0%,100%);fill-opacity:1;" d="M 225 0 L 237.5 0 L 237.5 20 L 225 20 Z M 225 0 "/>
<path style=" stroke:none;fill-rule:nonzero;fill:rgb(100%,64.705882%,0%);fill-opacity:1;" d="M 225 20 L 237.5 20 L 237.5 40 L 225 40 Z M 225 20 "/>
<path style=" stroke:none;fill-rule:nonzero;fill:rgb(0%,0%,100%);fill-opacity:1;" d="M 237.5 0 L 243.75 0 L 243.75 13.332031 L 237.5 13.332031 Z M 237.5 0 "/>
<path style=" stroke:none;fill-rule:nonzero;fill:rgb(0%,50.196078%,0%);fill-opacity:1;" d="M 237.5 13.332031 L 243.75 13.332031 L 243.75 26.664062 L 237.5 26.664062 Z M 237.5 13.332031 "/>
<path style=" stroke:none;fill-rule:nonzero;fill:rgb(100%,64.705882%,0%);fill-opacity:1;" d="M 237.5 26.667969 L 243.75 26.667969 L 243.75 40 L 237.5 40 Z M 237.5 26.667969 "/>
<path style=" stroke:none;fill-rule:nonzero;fill:rgb(0%,0%,100%);fill-opacity:1;" d="M 243.75 0 L 250 0 L 250 13.332031 L 243.75 13.332031 Z M 243.75 0 "/>
<path style=" stroke:none;fill-rule:nonzero;fill:rgb(100%,100%,0%);fill-opacity:1;" d="M 243.75 13.332031 L 250 13.332031 L 250 26.664062 L 243.75 26.664062 Z M 243.75 13.332031 "/>
<path style=" stroke:none;fill-rule:nonzero;fill:rgb(100%,64.705882%,0%);fill-opacity:1;" d="M 243.75 26.667969 L 250 26.667969 L 250 40 L 243.75 40 Z M 243.75 26.667969 "/>
<path style=" stroke:none;fill-rule:nonzero;fill:rgb(0%,0%,100%);fill-opacity:1;" d="M 250 0 L 262.5 0 L 262.5 20 L 250 20 Z M 250 0 "/>
<path style=" stroke:none;fill-rule:nonzero;fill:rgb(100%,64.705882%,0%);fill-opacity:1;" d="M 250 20 L 262.5 20 L 262.5 40 L 250 40 Z M 250 20 "/>
<path style=" stroke:none;fill-rule:nonzero;fill:rgb(0%,0%,100%);fill-opacity:1;" d="M 262.5 0 L 268.75 0 L 268.75 13.332031 L 262.5 13.332031 Z M 262.5 0 "/>
<path style=" stroke:none;fill-rule:nonzero;fill:rgb(0%,50.196078%,0%);fill-opacity:1;" d="M 262.5 13.332031 L 268.75 13.332031 L 268.75 26.664062 L 262.5 26.664062 Z M 262.5 13.332031 "/>
<path style=" stroke:none;fill-rule:nonzero;fill:rgb(100%,64.705882%,0%);fill-opacity:1;" d="M 262.5 26.667969 L 268.75 26.667969 L 268.75 40 L 262.5 40 Z M 262.5 26.667969 "/>
<path style=" stroke:none;fill-rule:nonzero;fill:rgb(0%,0%,100%);fill-opacity:1;" d="M 268.75 0 L 275 0 L 275 13.332031 L 268.75 13.332031 Z M 268.75 0 "/>
<path style=" stroke:none;fill-rule:nonzero;fill:rgb(100%,100%,0%);fill-opacity:1;" d="M 268.75 13.332031 L 275 13.332031 L 275 26.664062 L 268.75 26.664062 Z M 268.75 13.332031 "/>
<path style=" stroke:none;fill-rule:nonzero;fill:rgb(100%,64.705882%,0%);fill-opacity:1;" d="M 268.75 26.667969 L 275 26.667969 L 275 40 L 268.75 40 Z M 268.75 26.667969 "/>
<path style=" stroke:none;fill-rule:nonzero;fill:rgb(0%,0%,100%);fill-opacity:1;" d="M 275 0 L 287.5 0 L 287.5 20 L 275 20 Z M 275 0 "/>
<path style=" stroke:none;fill-rule:nonzero;fill:rgb(100%,64.705882%,0%);fill-opacity:1;" d="M 275 20 L 287.5 20 L 287.5 40 L 275 40 Z M 275 20 "/>
<path style=" stroke:none;fill-rule:nonzero;fill:rgb(0%,0%,100%);fill-opacity:1;" d="M 287.5 0 L 293.75 0 L 293.75 13.332031 L 287.5 13.332031 Z M 287.5 0 "/>
<path style=" stroke:none;fill-rule:nonzero;fill:rgb(0%,50.196078%,0%);fill-opacity:1;" d="M 287.5 13.332031 L 293.75 13.332031 L 293.75 26.664062 L 287.5 26.664062 Z M 287.5 13.332031 "/>
<path style=" stroke:none;fill-rule:nonzero;fill:rgb(100%,64.705882%,0%);fill-opacity:1;" d="M 287.5 26.667969 L 293.75 26.667969 L 293.75 40 L 287.5 40 Z M 287.5 26.667969 "/>
<path style=" stroke:none;fill-rule:nonzero;fill:rgb(0%,0%,100%);fill-opacity:1;" d="M 293.75 0 L 300 0 L 300 13.332031 L 293.75 13.332031 Z M 293.75 0 "/>
<path style=" stroke:none;fill-rule:nonzero;fill:rgb(100%,100%,0%);fill-opacity:1;" d="M 293.75 13.332031 L 300 13.332031 L 300 26.664062 L 293.75 26.664062 Z M 293.75 13.332031 "/>
<path style=" stroke:none;fill-rule:nonzero;fill:rgb(100%,64.705882%,0%);fill-opacity:1;" d="M 293.75 26.667969 L 300 26.667969 L 300 40 L 293.75 40 Z M 293.75 26.667969 "/>
<path style=" stroke:none;fill-rule:nonzero;fill:rgb(0%,0%,100%);fill-opacity:1;" d="M 300 0 L 312.5 0 L 312.5 20 L 300 20 Z M 300 0 "/>
<path style=" stroke:none;fill-rule:nonzero;fill:rgb(100%,64.705882%,0%);fill-opacity:1;" d="M 300 20 L 312.5 20 L 312.5 40 L 300 40 Z M 300 20 "/>
<path style=" stroke:none;fill-rule:nonzero;fill:rgb(0%,0%,100%);fill-opacity:1;" d="M 312.5 0 L 318.75 0 L 318.75 13.332031 L 312.5 13.332031 Z M 312.5 0 "/>
<path style=" stroke:none;fill-rule:nonzero;fill:rgb(0%,50.196078%,0%);fill-opacity:1;" d="M 312.5 13.332031 L 318.75 13.332031 L 318.75 26.664062 L 312.5 26.664062 Z M 312.5 13.332031 "/>
<path style=" stroke:none;fill-rule:nonzero;fill:rgb(100%,64.705882%,0%);fill-opacity:1;" d="M 312.5 26.667969 L 318.75 26.667969 L 318.75 40 L 312.5 40 Z M 312.5 26.667969 "/>
<path style=" stroke:none;fill-rule:nonzero;fill:rgb(0%,0%,100%);fill-opacity:1;" d="M 318.75 0 L 325 0 L 325 13.332031 L 318.75 13.332031 Z M 318.75 0 "/>
<path style=" stroke:none;fill-rule:nonzero;fill:rgb(100%,100%,0%);fill-opacity:1;" d="M 318.75 13.332031 L 325 13.332031 L 325 26.664062 L 318.75 26.664062 Z M 318.75 13.332031 "/>
<path style=" stroke:none;fill-rule:nonzero;fill:rgb(100%,64.705882%,0%);fill-opacity:1;" d="M 318.75 26.667969 L 325 26.667969 L 325 40 L 318.75 40 Z M 318.75 26.667969 "/>
<path style=" stroke:none;fill-rule:nonzero;fill:rgb(0%,0%,100%);fill-opacity:1;" d="M 325 0 L 337.5 0 L 337.5 20 L 325 20 Z M 325 0 "/>
<path style=" stroke:none;fill-rule:nonzero;fill:rgb(100%,64.705882%,0%);fill-opacity:1;" d="M 325 20 L 337.5 20 L 337.5 40 L 325 40 Z M 325 20 "/>
<path style=" stroke:none;fill-rule:nonzero;fill:rgb(0%,0%,100%);fill-opacity:1;" d="M 337.5 0 L 343.75 0 L 343.75 13.332031 L 337.5 13.332031 Z M 337.5 0 "/>
<path style=" stroke:none;fill-rule:nonzero;fill:rgb(0%,50.196078%,0%);fill-opacity:1;" d="M 337.5 13.332031 L 343.75 13.332031 L 343.75 26.664062 L 337.5 26.664062 Z M 337.5 13.332031 "/>
<path style=" stroke:none;fill-rule:nonzero;fill:rgb(100%,64.705882%,0%);fill-opacity:1;" d="M 337.5 26.667969 L 343.75 26.667969 L 343.75 40 L 337.5 40 Z M 337.5 26.667969 "/>
<path style=" stroke:none;fill-rule:nonzero;fill:rgb(0%,0%,100%);fill-opacity:1;" d="M 343.75 0 L 350 0 L 350 13.332031 L 343.75 13.332031 Z M 343.75 0 "/>
<path style=" stroke:none;fill-rule:nonzero;fill:rgb(100%,100%,0%);fill-opacity:1;" d="M 343.75 13.332031 L 350 13.332031 L 350 26.664062 L 343.75 26.664062 Z M 343.75 13.332031 "/>
<path style=" stroke:none;fill-rule:nonzero;fill:rgb(100%,64.705882%,0%);fill-opacity:1;" d="M 343.75 26.667969 L 350 26.667969 L 350 40 L 343.75 40 Z M 343.75 26.667969 "/>
<path style=" stroke:none;fill-rule:nonzero;fill:rgb(0%,0%,100%);fill-opacity:1;" d="M 350 0 L 362.5 0 L 362.5 20 L 350 20 Z M 350 0 "/>
<path style=" stroke:none;fill-rule:nonzero;fill:rgb(100%,64.705882%,0%);fill-opacity:1;" d="M 350 20 L 362.5 20 L 362.5 40 L 350 40 Z M 350 20 "/>
<path style=" stroke:none;fill-rule:nonzero;fill:rgb(0%,0%,100%);fill-opacity:1;" d="M 362.5 0 L 368.75 0 L 368.75 13.332031 L 362.5 13.332031 Z M 362.5 0 "/>
<path style=" stroke:none;fill-rule:nonzero;fill:rgb(0%,50.196078%,0%);fill-opacity:1;" d="M 362.5 13.332031 L 368.75 13.332031 L 368.75 26.664062 L 362.5 26.664062 Z M 362.5 13.332031 "/>
<path style=" stroke:none;fill-rule:nonzero;fill:rgb(100%,64.705882%,0%);fill-opacity:1;" d="M 362.5 26.667969 L 368.75 26.667969 L 368.75 40 L 362.5 40 Z M 362.5 26.667969 "/>
<path style=" stroke:none;fill-rule:nonzero;fill:rgb(0%,0%,100%);fill-opacity:1;" d="M 368.75 0 L 375 0 L 375 13.332031 L 368.75 13.332031 Z M 368.75 0 "/>
<path style=" stroke:none;fill-rule:nonzero;fill:rgb(100%,100%,0%);fill-opacity:1;" d="M 368.75 13.332031 L 375 13.332031 L 375 26.664062 L 368.75 26.664062 Z M 368.75 13.332031 "/>
<path style=" stroke:none;fill-rule:nonzero;fill:rgb(100%,64.705882%,0%);fill-opacity:1;" d="M 368.75 26.667969 L 375 26.667969 L 375 40 L 368.75 40 Z M 368.75 26.667969 "/>
<path style=" stroke:none;fill-rule:nonzero;fill:rgb(0%,0%,100%);fill-opacity:1;" d="M 375 0 L 387.5 0 L 387.5 20 L 375 20 Z M 375 0 "/>
<path style=" stroke:none;fill-rule:nonzero;fill:rgb(100%,64.705882%,0%);fill-opacity:1;" d="M 375 20 L 387.5 20 L 387.5 40 L 375 40 Z M 375 20 "/>
<path style=" stroke:none;fill-rule:nonzero;fill:rgb(0%,0%,100%);fill-opacity:1;" d="M 387.5 0 L 393.75 0 L 393.75 13.332031 L 387.5 13.332031 Z M 387.5 0 "/>
<path style=" stroke:none;fill-rule:nonzero;fill:rgb(0%,50.196078%,0%);fill-opacity:1;" d="M 387.5 13.332031 L 393.75 13.332031 L 393.75 26.664062 L 387.5 26.664062 Z M 387.5 13.332031 "/>
<path style=" stroke:none;fill-rule:nonzero;fill:rgb(100%,64.705882%,0%);fill-opacity:1;" d="M 387.5 26.667969 L 393.75 26.667969 L 393.75 40 L 387.5 40 Z M 387.5 26.667969 "/>
<path style=" stroke:none;fill-rule:nonzero;fill:rgb(0%,0%,100%);fill-opacity:1;" d="M 393.75 0 L 400 0 L 400 13.332031 L 393.75 13.332031 Z M 393.75 0 "/>
<path style=" stroke:none;fill-rule:nonzero;fill:rgb(100%,100%,0%);fill-opacity:1;" d="M 393.75 13.332031 L 400 13.332031 L 400 26.664062 L 393.75 26.664062 Z M 393.75 13.332031 "/>
<path style=" stroke:none;fill-rule:nonzero;fill:rgb(100%,64.705882%,0%);fill-opacity:1;" d="M 393.75 26.667969 L 400 26.667969 L 400 40 L 393.75 40 Z M 393.75 26.667969 "/>
</g>
</svg>
