<?xml version="1.0" encoding="UTF-8"?>
<svg xmlns="http://www.w3.org/2000/svg" xmlns:xlink="http://www.w3.org/1999/xlink" width="400pt" height="40pt" viewBox="0 0 400 40" version="1.1" shape-rendering="crispEdges">
<g id="surface1">
<rect x="0" y="0" width="400" height="40" style="fill:rgb(0%,0%,0%);fill-opacity:1;stroke:none;"/>
<path style=" stroke:none;fill-rule:nonzero;fill:rgb(100%,0%,0%);fill-opacity:1;" d="M 0 0 L 22.222656 0 L 22.222656 20 L 0 20 Z M 0 0 "/>
<path style=" stroke:none;fill-rule:nonzero;fill:rgb(0%,0%,100%);fill-opacity:1;" d="M 0 20 L 22.222656 20 L 22.222656 40 L 0 40 Z M 0 20 "/>
<path style=" stroke:none;fill-rule:nonzero;fill:rgb(100%,0%,0%);fill-opacity:1;" d="M 22.222656 0 L 33.332031 0 L 33.332031 20 L 22.222656 20 Z M 22.222656 0 "/>
<path style=" stroke:none;fill-rule:nonzero;fill:rgb(100%,64.705882%,0%);fill-opacity:1;" d="M 22.222656 20 L 33.332031 20 L 33.332031 40 L 22.222656 40 Z M 22.222656 20 "/>
<path style=" stroke:none;fill-rule:nonzero;fill:rgb(0%,0%,0%);fill-opacity:1;" d="M 33.332031 0 L 44.441406 0 L 44.441406 20 L 33.332031 20 Z M 33.332031 0 "/>
<path style=" stroke:none;fill-rule:nonzero;fill:rgb(100%,64.705882%,0%);fill-opacity:1;" d="M 33.332031 20 L 44.441406 20 L 44.441406 40 L 33.332031 40 Z M 33.332031 20 "/>
<path style=" stroke:none;fill-rule:nonzero;fill:rgb(0%,0%,0%);fill-opacity:1;" d="M 44.445312 0 L 66.667969 0 L 66.667969 20 L 44.445312 20 Z M 44.445312 0 "/>
<path style=" stroke:none;fill-rule:nonzero;fill:rgb(0%,50.196078%,0%);fill-opacity:1;" d="M 44.445312 20 L 66.667969 20 L 66.667969 40 L 44.445312 40 Z M 44.445312 20 "/>
<path style=" stroke:none;fill-rule:nonzero;fill:rgb(100%,0%,0%);fill-opacity:1;" d="M 66.667969 0 L 88.890625 0 L 88.890625 20 L 66.667969 20 Z M 66.667969 0 "/>
<path style=" stroke:none;fill-rule:nonzero;fill:rgb(0%,0%,100%);fill-opacity:1;" d="M 66.667969 20 L 88.890625 20 L 88.890625 40 L 66.667969 40 Z M 66.667969 20 "/>
<path style=" stroke:none;fill-rule:nonzero;fill:rgb(100%,0%,0%);fill-opacity:1;" d="M 88.890625 0 L 100 0 L 100 20 L 88.890625 20 Z M 88.890625 0 "/>
<path style=" stroke:none;fill-rule:nonzero;fill:rgb(100%,64.705882%,0%);fill-opacity:1;" d="M 88.890625 20 L 100 20 L 100 40 L 88.890625 40 Z M 88.890625 20 "/>
<path style=" stroke:none;fill-rule:nonzero;fill:rgb(0%,0%,0%);fill-opacity:1;" d="M 100 0 L 111.109375 0 L 111.109375 20 L 100 20 Z M 100 0 "/>
<path style=" stroke:none;fill-rule:nonzero;fill:rgb(100%,64.705882%,0%);fill-opacity:1;" d="M 100 20 L 111.109375 20 L 111.109375 40 L 100 40 Z M 100 20 "/>
<path style=" stroke:none;fill-rule:nonzero;fill:rgb(0%,0%,0%);fill-opacity:1;" d="M 111.109375 0 L 133.332031 0 L 133.332031 20 L 111.109375 20 Z M 111.109375 0 "/>
<path style=" stroke:none;fill-rule:nonzero;fill:rgb(0%,50.196078%,0%);fill-opacity:1;" d="M 111.109375 20 L 133.332031 20 L 133.332031 40 L 111.109375 40 Z M 111.109375 20 "/>
<path style=" stroke:none;fill-rule:nonzero;fill:rgb(100%,0%,0%);fill-opacity:1;" d="M 133.332031 0 L 155.554688 0 L 155.554688 20 L 133.332031 20 Z M 133.332031 0 "/>
<path style=" stroke:none;fill-rule:nonzero;fill:rgb(0%,0%,100%);fill-opacity:1;" d="M 133.332031 20 L 155.554688 20 L 155.554688 40 L 133.332031 40 Z M 133.332031 20 "/>
<path style=" stroke:none;fill-rule:nonzero;fill:rgb(100%,0%,0%);fill-opacity:1;" d="M 155.554688 0 L 166.664062 0 L 166.664062 20 L 155.554688 20 Z M 155.554688 0 "/>
<path style=" stroke:none;fill-rule:nonzero;fill:rgb(100%,64.705882%,0%);fill-opacity:1;" d="M 155.554688 20 L 166.664062 20 L 166.664062 40 L 155.554688 40 Z M 155.554688 20 "/>
<path style=" stroke:none;fill-rule:nonzero;fill:rgb(0%,0%,0%);fill-opacity:1;" d="M 166.667969 0 L 177.777344 0 L 177.777344 20 L 166.667969 20 Z M 166.667969 0 "/>
<path style=" stroke:none;fill-rule:nonzero;fill:rgb(100%,64.705882%,0%);fill-opacity:1;" d="M 166.667969 20 L 177.777344 20 L 177.777344 40 L 166.667969 40 Z M 166.667969 20 "/>
<path style=" stroke:none;fill-rule:nonzero;fill:rgb(0%,0%,0%);fill-opacity:1;" d="M 177.777344 0 L 200 0 L 200 20 L 177.777344 20 Z M 177.777344 0 "/>
<path style=" stroke:none;fill-rule:nonzero;fill:rgb(0%,50.196078%,0%);fill-opacity:1;" d="M 177.777344 20 L 200 20 L 200 40 L 177.777344 40 Z M 177.777344 20 "/>
<path style=" stroke:none;fill-rule:nonzero;fill:rgb(100%,0%,0%);fill-opacity:1;" d="M 200 0 L 222.222656 0 L 222.222656 20 L 200 20 Z M 200 0 "/>
<path style=" stroke:none;fill-rule:nonzero;fill:rgb(0%,0%,100%);fill-opacity:1;" d="M 200 20 L 222.222656 20 L 222.222656 40 L 200 40 Z M 200 20 "/>
<path style=" stroke:none;fill-rule:nonzero;fill:rgb(100%,0%,0%);fill-opacity:1;" d="M 222.222656 0 L 233.332031 0 L 233.332031 20 L 222.222656 20 Z M 222.222656 0 "/>
<path style=" stroke:none;fill-rule:nonzero;fill:rgb(100%,64.705882%,0%);fill-opacity:1;" d="M 222.222656 20 L 233.332031 20 L 233.332031 40 L 222.222656 40 Z M 222.222656 20 "/>
<path style=" stroke:none;fill-rule:nonzero;fill:rgb(0%,0%,0%);fill-opacity:1;" d="M 233.332031 0 L 244.441406 0 L 244.441406 20 L 233.332031 20 Z M 233.332031 0 "/>
<path style=" stroke:none;fill-rule:nonzero;fill:rgb(100%,64.705882%,0%);fill-opacity:1;" d="M 233.332031 20 L 244.441406 20 L 244.441406 40 L 233.332031 40 Z M 233.332031 20 "/>
<path style=" stroke:none;fill-rule:nonzero;fill:rgb(0%,0%,0%);fill-opacity:1;" d="M 244.445312 0 L 266.667969 0 L 266.667969 20 L 244.445312 20 Z M 244.445312 0 "/>
<path style=" stroke:none;fill-rule:nonzero;fill:rgb(0%,50.196078%,0%);fill-opacity:1;" d="M 244.445312 20 L 266.667969 20 L 266.667969 40 L 244.445312 40 Z M 244.445312 20 "/>
<path style=" stroke:none;fill-rule:nonzero;fill:rgb(100%,0%,0%);fill-opacity:1;" d="M 266.667969 0 L 288.890625 0 L 288.890625 20 L 266.667969 20 Z M 266.667969 0 "/>
<path style=" stroke:none;fill-rule:nonzero;fill:rgb(0%,0%,100%);fill-opacity:1;" d="M 266.667969 20 L 288.890625 20 L 288.890625 40 L 266.667969 40 Z M 266.667969 20 "/>
<path style=" stroke:none;fill-rule:nonzero;fill:rgb(100%,0%,0%);fill-opacity:1;" d="M 288.890625 0 L 300 0 L 300 20 L 288.890625 20 Z M 288.890625 0 "/>
<path style=" stroke:none;fill-rule:nonzero;fill:rgb(100%,64.705882%,0%);fill-opacity:1;" d="M 288.890625 20 L 300 20 L 300 40 L 288.890625 40 Z M 288.890625 20 "/>
<path style=" stroke:none;fill-rule:nonzero;fill:rgb(0%,0%,0%);fill-opacity:1;" d="M 300 0 L 311.109375 0 L 311.109375 20 L 300 20 Z M 300 0 "/>
<path style=" stroke:none;fill-rule:nonzero;fill:rgb(100%,64.705882%,0%);fill-opacity:1;" d="M 300 20 L 311.109375 20 L 311.109375 40 L 300 40 Z M 300 20 "/>
<path style=" stroke:none;fill-rule:nonzero;fill:rgb(0%,0%,0%);fill-opacity:1;" d="M 311.109375 0 L 333.332031 0 L 333.332031 20 L 311.109375 20 Z M 311.109375 0 "/>
<path style=" stroke:none;fill-rule:nonzero;fill:rgb(0%,50.196078%,0%);fill-opacity:1;" d="M 311.109375 20 L 333.332031 20 L 333.332031 40 L 311.109375 40 Z M 311.109375 20 "/>
<path style=" stroke:none;fill-rule:nonzero;fill:rgb(100%,0%,0%);fill-opacity:1;" d="M 333.332031 0 L 355.554688 0 L 355.554688 20 L 333.332031 20 Z M 333.332031 0 "/>
<path style=" stroke:none;fill-rule:nonzero;fill:rgb(0%,0%,100%);fill-opacity:1;" d="M 333.332031 20 L 355.554688 20 L 355.554688 40 L 333.332031 40 Z M 333.332031 20 "/>
<path style=" stroke:none;fill-rule:nonzero;fill:rgb(100%,0%,0%);fill-opacity:1;" d="M 355.554688 0 L 366.664062 0 L 366.664062 20 L 355.554688 20 Z M 355.554688 0 "/>
<path style=" stroke:none;fill-rule:nonzero;fill:rgb(100%,64.705882%,0%);fill-opacity:1;" d="M 355.554688 20 L 366.664062 20 L 366.664062 40 L 355.554688 40 Z M 355.554688 20 "/>
<path style=" stroke:none;fill-rule:nonzero;fill:rgb(0%,0%,0%);fill-opacity:1;" d="M 366.667969 0 L 377.777344 0 L 377.777344 20 L 366.667969 20 Z M 366.667969 0 "/>
<path style=" stroke:none;fill-rule:nonzero;fill:rgb(100%,64.705882%,0%);fill-opacity:1;" d="M 366.667969 20 L 377.777344 20 L 377.777344 40 L 366.667969 40 Z M 366.667969 20 "/>
<path style=" stroke:none;fill-rule:nonzero;fill:rgb(0%,0%,0%);fill-opacity:1;" d="M 377.777344 0 L 400 0 L 400 20 L 377.777344 20 Z M 377.777344 0 "/>
<path style=" stroke:none;fill-rule:nonzero;fill:rgb(0%,50.196078%,0%);fill-opacity:1;" d="M 377.777344 20 L 400 20 L 400 40 L 377.777344 40 Z M 377.777344 20 "/>
</g>
</svg>
