<?xml version="1.0" encoding="UTF-8"?>
<svg xmlns="http://www.w3.org/2000/svg" xmlns:xlink="http://www.w3.org/1999/xlink" width="400pt" height="40pt" viewBox="0 0 400 40" version="1.1" shape-rendering="crispEdges">
<g id="surface1">
<rect x="0" y="0" width="400" height="40" style="fill:rgb(0%,0%,0%);fill-opacity:1;stroke:none;"/>
<path style=" stroke:none;fill-rule:nonzero;fill:rgb(100%,64.705882%,0%);fill-opacity:1;" d="M 0 0 L 8.332031 0 L 8.332031 40 L 0 40 Z M 0 0 "/>
<path style=" stroke:none;fill-rule:nonzero;fill:rgb(50.196078%,50.196078%,50.196078%);fill-opacity:1;" d="M 8.332031 0 L 16.664062 0 L 16.664062 40 L 8.332031 40 Z M 8.332031 0 "/>
<path style=" stroke:none;fill-rule:nonzero;fill:rgb(0%,0%,100%);fill-opacity:1;" d="M 16.667969 0 L 25 0 L 25 40 L 16.667969 40 Z M 16.667969 0 "/>
<path style=" stroke:none;fill-rule:nonzero;fill:rgb(0%,0%,100%);fill-opacity:1;" d="M 25 0 L 33.332031 0 L 33.332031 40 L 25 40 Z M 25 0 "/>
<path style=" stroke:none;fill-rule:nonzero;fill:rgb(50.196078%,50.196078%,50.196078%);fill-opacity:1;" d="M 33.332031 0 L 41.664062 0 L 41.664062 40 L 33.332031 40 Z M 33.332031 0 "/>
<path style=" stroke:none;fill-rule:nonzero;fill:rgb(100%,64.705882%,0%);fill-opacity:1;" d="M 41.667969 0 L 50 0 L 50 40 L 41.667969 40 Z M 41.667969 0 "/>
<path style=" stroke:none;fill-rule:nonzero;fill:rgb(0%,0%,100%);fill-opacity:1;" d="M 50 0 L 58.332031 0 L 58.332031 40 L 50 40 Z M 50 0 "/>
<path style=" stroke:none;fill-rule:nonzero;fill:rgb(50.196078%,50.196078%,50.196078%);fill-opacity:1;" d="M 58.332031 0 L 66.664062 0 L 66.664062 40 L 58.332031 40 Z M 58.332031 0 "/>
<path style=" stroke:none;fill-rule:nonzero;fill:rgb(100%,64.705882%,0%);fill-opacity:1;" d="M 66.667969 0 L 75 0 L 75 40 L 66.667969 40 Z M 66.667969 0 "/>
<path style=" stroke:none;fill-rule:nonzero;fill:rgb(100%,64.705882%,0%);fill-opacity:1;" d="M 75 0 L 83.332031 0 L 83.332031 40 L 75 40 Z M 75 0 "/>
<path style=" stroke:none;fill-rule:nonzero;fill:rgb(50.196078%,50.196078%,50.196078%);fill-opacity:1;" d="M 83.332031 0 L 91.664062 0 L 91.664062 40 L 83.332031 40 Z M 83.332031 0 "/>
<path style=" stroke:none;fill-rule:nonzero;fill:rgb(0%,0%,100%);fill-opacity:1;" d="M 91.667969 0 L 100 0 L 100 40 L 91.667969 40 Z M 91.667969 0 "/>
<path style=" stroke:none;fill-rule:nonzero;fill:rgb(0%,0%,100%);fill-opacity:1;" d="M 100 0 L 108.332031 0 L 108.332031 40 L 100 40 Z M 100 0 "/>
<path style=" stroke:none;fill-rule:nonzero;fill:rgb(50.196078%,50.196078%,50.196078%);fill-opacity:1;" d="M 108.332031 0 L 116.664062 0 L 116.664062 40 L 108.332031 40 Z M 108.332031 0 "/>
<path style=" stroke:none;fill-rule:nonzero;fill:rgb(100%,64.705882%,0%);fill-opacity:1;" d="M 116.667969 0 L 125 0 L 125 40 L 116.667969 40 Z M 116.667969 0 "/>
<path style=" stroke:none;fill-rule:nonzero;fill:rgb(0%,0%,100%);fill-opacity:1;" d="M 125 0 L 133.332031 0 L 133.332031 40 L 125 40 Z M 125 0 "/>
<path style=" stroke:none;fill-rule:nonzero;fill:rgb(50.196078%,50.196078%,50.196078%);fill-opacity:1;" d="M 133.332031 0 L 141.664062 0 L 141.664062 40 L 133.332031 40 Z M 133.332031 0 "/>
<path style=" stroke:none;fill-rule:nonzero;fill:rgb(100%,64.705882%,0%);fill-opacity:1;" d="M 141.667969 0 L 150 0 L 150 40 L 141.667969 40 Z M 141.667969 0 "/>
<path style=" stroke:none;fill-rule:nonzero;fill:rgb(100%,64.705882%,0%);fill-opacity:1;" d="M 150 0 L 158.332031 0 L 158.332031 40 L 150 40 Z M 150 0 "/>
<path style=" stroke:none;fill-rule:nonzero;fill:rgb(50.196078%,50.196078%,50.196078%);fill-opacity:1;" d="M 158.332031 0 L 166.664062 0 L 166.664062 40 L 158.332031 40 Z M 158.332031 0 "/>
<path style=" stroke:none;fill-rule:nonzero;fill:rgb(0%,0%,100%);fill-opacity:1;" d="M 166.667969 0 L 175 0 L 175 40 L 166.667969 40 Z M 166.667969 0 "/>
<path style=" stroke:none;fill-rule:nonzero;fill:rgb(0%,0%,100%);fill-opacity:1;" d="M 175 0 L 183.332031 0 L 183.332031 40 L 175 40 Z M 175 0 "/>
<path style=" stroke:none;fill-rule:nonzero;fill:rgb(50.196078%,50.196078%,50.196078%);fill-opacity:1;" d="M 183.332031 0 L 191.664062 0 L 191.664062 40 L 183.332031 40 Z M 183.332031 0 "/>
<path style=" stroke:none;fill-rule:nonzero;fill:rgb(100%,64.705882%,0%);fill-opacity:1;" d="M 191.667969 0 L 200 0 L 200 40 L 191.667969 40 Z M 191.667969 0 "/>
<path style=" stroke:none;fill-rule:nonzero;fill:rgb(0%,0%,100%);fill-opacity:1;" d="M 200 0 L 208.332031 0 L 208.332031 40 L 200 40 Z M 200 0 "/>
<path style=" stroke:none;fill-rule:nonzero;fill:rgb(50.196078%,50.196078%,50.196078%);fill-opacity:1;" d="M 208.332031 0 L 216.664062 0 L 216.664062 40 L 208.332031 40 Z M 208.332031 0 "/>
<path style=" stroke:none;fill-rule:nonzero;fill:rgb(100%,64.705882%,0%);fill-opacity:1;" d="M 216.667969 0 L 225 0 L 225 40 L 216.667969 40 Z M 216.667969 0 "/>
<path style=" stroke:none;fill-rule:nonzero;fill:rgb(100%,64.705882%,0%);fill-opacity:1;" d="M 225 0 L 233.332031 0 L 233.332031 40 L 225 40 Z M 225 0 "/>
<path style=" stroke:none;fill-rule:nonzero;fill:rgb(50.196078%,50.196078%,50.196078%);fill-opacity:1;" d="M 233.332031 0 L 241.664062 0 L 241.664062 40 L 233.332031 40 Z M 233.332031 0 "/>
<path style=" stroke:none;fill-rule:nonzero;fill:rgb(0%,0%,100%);fill-opacity:1;" d="M 241.667969 0 L 250 0 L 250 40 L 241.667969 40 Z M 241.667969 0 "/>
<path style=" stroke:none;fill-rule:nonzero;fill:rgb(0%,0%,100%);fill-opacity:1;" d="M 250 0 L 258.332031 0 L 258.332031 40 L 250 40 Z M 250 0 "/>
<path style=" stroke:none;fill-rule:nonzero;fill:rgb(50.196078%,50.196078%,50.196078%);fill-opacity:1;" d="M 258.332031 0 L 266.664062 0 L 266.664062 40 L 258.332031 40 Z M 258.332031 0 "/>
<path style=" stroke:none;fill-rule:nonzero;fill:rgb(100%,64.705882%,0%);fill-opacity:1;" d="M 266.667969 0 L 275 0 L 275 40 L 266.667969 40 Z M 266.667969 0 "/>
<path style=" stroke:none;fill-rule:nonzero;fill:rgb(0%,0%,100%);fill-opacity:1;" d="M 275 0 L 283.332031 0 L 283.332031 40 L 275 40 Z M 275 0 "/>
<path style=" stroke:none;fill-rule:nonzero;fill:rgb(50.196078%,50.196078%,50.196078%);fill-opacity:1;" d="M 283.332031 0 L 291.664062 0 L 291.664062 40 L 283.332031 40 Z M 283.332031 0 "/>
<path style=" stroke:none;fill-rule:nonzero;fill:rgb(100%,64.705882%,0%);fill-opacity:1;" d="M 291.667969 0 L 300 0 L 300 40 L 291.667969 40 Z M 291.667969 0 "/>
<path style=" stroke:none;fill-rule:nonzero;fill:rgb(100%,64.705882%,0%);fill-opacity:1;" d="M 300 0 L 308.332031 0 L 308.332031 40 L 300 40 Z M 300 0 "/>
<path style=" stroke:none;fill-rule:nonzero;fill:rgb(50.196078%,50.196078%,50.196078%);fill-opacity:1;" d="M 308.332031 0 L 316.664062 0 L 316.664062 40 L 308.332031 40 Z M 308.332031 0 "/>
<path style=" stroke:none;fill-rule:nonzero;fill:rgb(0%,0%,100%);fill-opacity:1;" d="M 316.667969 0 L 325 0 L 325 40 L 316.667969 40 Z M 316.667969 0 "/>
<path style=" stroke:none;fill-rule:nonzero;fill:rgb(0%,0%,100%);fill-opacity:1;" d="M 325 0 L 333.332031 0 L 333.332031 40 L 325 40 Z M 325 0 "/>
<path style=" stroke:none;fill-rule:nonzero;fill:rgb(50.196078%,50.196078%,50.196078%);fill-opacity:1;" d="M 333.332031 0 L 341.664062 0 L 341.664062 40 L 333.332031 40 Z M 333.332031 0 "/>
<path style=" stroke:none;fill-rule:nonzero;fill:rgb(100%,64.705882%,0%);fill-opacity:1;" d="M 341.667969 0 L 350 0 L 350 40 L 341.667969 40 Z M 341.667969 0 "/>
<path style=" stroke:none;fill-rule:nonzero;fill:rgb(0%,0%,100%);fill-opacity:1;" d="M 350 0 L 358.332031 0 L 358.332031 40 L 350 40 Z M 350 0 "/>
<path style=" stroke:none;fill-rule:nonzero;fill:rgb(50.196078%,50.196078%,50.196078%);fill-opacity:1;" d="M 358.332031 0 L 366.664062 0 L 366.664062 40 L 358.332031 40 Z M 358.332031 0 "/>
<path style=" stroke:none;fill-rule:nonzero;fill:rgb(100%,64.705882%,0%);fill-opacity:1;" d="M 366.667969 0 L 375 0 L 375 40 L 366.667969 40 Z M 366.667969 0 "/>
<path style=" stroke:none;fill-rule:nonzero;fill:rgb(100%,64.705882%,0%);fill-opacity:1;" d="M 375 0 L 383.332031 0 L 383.332031 40 L 375 40 Z M 375 0 "/>
<path style=" stroke:none;fill-rule:nonzero;fill:rgb(50.196078%,50.196078%,50.196078%);fill-opacity:1;" d="M 383.332031 0 L 391.664062 0 L 391.664062 40 L 383.332031 40 Z M 383.332031 0 "/>
<path style=" stroke:none;fill-rule:nonzero;fill:rgb(0%,0%,100%);fill-opacity:1;" d="M 391.667969 0 L 400 0 L 400 40 L 391.667969 40 Z M 391.667969 0 "/>
</g>
</svg>
