<?xml version="1.0" encoding="UTF-8"?>
<svg xmlns="http://www.w3.org/2000/svg" xmlns:xlink="http://www.w3.org/1999/xlink" width="400pt" height="40pt" viewBox="0 0 400 40" version="1.1" shape-rendering="crispEdges">
<g id="surface1">
<rect x="0" y="0" width="400" height="40" style="fill:rgb(0%,0%,0%);fill-opacity:1;stroke:none;"/>
<path style=" stroke:none;fill-rule:nonzero;fill:rgb(0%,0%,100%);fill-opacity:1;" d="M 0 0 L 25 0 L 25 40 L 0 40 Z M 0 0 "/>
<path style=" stroke:none;fill-rule:nonzero;fill:rgb(0%,50.196078%,0%);fill-opacity:1;" d="M 25 0 L 50 0 L 50 40 L 25 40 Z M 25 0 "/>
<path style=" stroke:none;fill-rule:nonzero;fill:rgb(50.196078%,0%,50.196078%);fill-opacity:1;" d="M 50 0 L 75 0 L 75 40 L 50 40 Z M 50 0 "/>
<path style=" stroke:none;fill-rule:nonzero;fill:rgb(100%,64.705882%,0%);fill-opacity:1;" d="M 75 0 L 100 0 L 100 40 L 75 40 Z M 75 0 "/>
<path style=" stroke:none;fill-rule:nonzero;fill:rgb(0%,50.196078%,0%);fill-opacity:1;" d="M 100 0 L 125 0 L 125 40 L 100 40 Z M 100 0 "/>
<path style=" stroke:none;fill-rule:nonzero;fill:rgb(50.196078%,0%,50.196078%);fill-opacity:1;" d="M 125 0 L 150 0 L 150 40 L 125 40 Z M 125 0 "/>
<path style=" stroke:none;fill-rule:nonzero;fill:rgb(100%,64.705882%,0%);fill-opacity:1;" d="M 150 0 L 175 0 L 175 40 L 150 40 Z M 150 0 "/>
<path style=" stroke:none;fill-rule:nonzero;fill:rgb(0%,0%,100%);fill-opacity:1;" d="M 175 0 L 200 0 L 200 40 L 175 40 Z M 175 0 "/>
<path style=" stroke:none;fill-rule:nonzero;fill:rgb(50.196078%,0%,50.196078%);fill-opacity:1;" d="M 200 0 L 225 0 L 225 40 L 200 40 Z M 200 0 "/>
<path style=" stroke:none;fill-rule:nonzero;fill:rgb(100%,64.705882%,0%);fill-opacity:1;" d="M 225 0 L 250 0 L 250 40 L 225 40 Z M 225 0 "/>
<path style=" stroke:none;fill-rule:nonzero;fill:rgb(0%,0%,100%);fill-opacity:1;" d="M 250 0 L 275 0 L 275 40 L 250 40 Z M 250 0 "/>
<path style=" stroke:none;fill-rule:nonzero;fill:rgb(0%,50.196078%,0%);fill-opacity:1;" d="M 275 0 L 300 0 L 300 40 L 275 40 Z M 275 0 "/>
<path style=" stroke:none;fill-rule:nonzero;fill:rgb(100%,64.705882%,0%);fill-opacity:1;" d="M 300 0 L 325 0 L 325 40 L 300 40 Z M 300 0 "/>
<path style=" stroke:none;fill-rule:nonzero;fill:rgb(0%,0%,100%);fill-opacity:1;" d="M 325 0 L 350 0 L 350 40 L 325 40 Z M 325 0 "/>
<path style=" stroke:none;fill-rule:nonzero;fill:rgb(0%,50.196078%,0%);fill-opacity:1;" d="M 350 0 L 375 0 L 375 40 L 350 40 Z M 350 0 "/>
<path style=" stroke:none;fill-rule:nonzero;fill:rgb(50.196078%,0%,50.196078%);fill-opacity:1;" d="M 375 0 L 400 0 L 400 40 L 375 40 Z M 375 0 "/>
</g>
</svg>
