<?xml version="1.0" encoding="UTF-8"?>
<svg xmlns="http://www.w3.org/2000/svg" xmlns:xlink="http://www.w3.org/1999/xlink" width="400pt" height="40pt" viewBox="0 0 400 40" version="1.1" shape-rendering="crispEdges">
<g id="surface1">
<rect x="0" y="0" width="400" height="40" style="fill:rgb(0%,0%,0%);fill-opacity:1;stroke:none;"/>
<path style=" stroke:none;fill-rule:nonzero;fill:rgb(0%,0%,0%);fill-opacity:1;" d="M 0 0 L 4.445312 0 L 4.445312 13.332031 L 0 13.332031 Z M 0 0 "/>
<path style=" stroke:none;fill-rule:nonzero;fill:rgb(100%,100%,0%);fill-opacity:1;" d="M 0 13.332031 L 4.445312 13.332031 L 4.445312 26.664062 L 0 26.664062 Z M 0 13.332031 "/>
<path style=" stroke:none;fill-rule:nonzero;fill:rgb(100%,100%,100%);fill-opacity:1;" d="M 0 26.667969 L 4.445312 26.667969 L 4.445312 40 L 0 40 Z M 0 26.667969 "/>
<path style=" stroke:none;fill-rule:nonzero;fill:rgb(0%,0%,0%);fill-opacity:1;" d="M 4.445312 0 L 6.25 0 L 6.25 20 L 4.445312 20 Z M 4.445312 0 "/>
<path style=" stroke:none;fill-rule:nonzero;fill:rgb(100%,100%,100%);fill-opacity:1;" d="M 4.445312 20 L 6.25 20 L 6.25 40 L 4.445312 40 Z M 4.445312 20 "/>
<path style=" stroke:none;fill-rule:nonzero;fill:rgb(100%,100%,100%);fill-opacity:1;" d="M 6.25 0 L 8.890625 0 L 8.890625 20 L 6.25 20 Z M 6.25 0 "/>
<path style=" stroke:none;fill-rule:nonzero;fill:rgb(100%,100%,100%);fill-opacity:1;" d="M 6.25 20 L 8.890625 20 L 8.890625 40 L 6.25 40 Z M 6.25 20 "/>
<path style=" stroke:none;fill-rule:nonzero;fill:rgb(100%,100%,100%);fill-opacity:1;" d="M 8.890625 0 L 12.5 0 L 12.5 13.332031 L 8.890625 13.332031 Z M 8.890625 0 "/>
<path style=" stroke:none;fill-rule:nonzero;fill:rgb(100%,75.294118%,79.607843%);fill-opacity:1;" d="M 8.890625 13.332031 L 12.5 13.332031 L 12.5 26.664062 L 8.890625 26.664062 Z M 8.890625 13.332031 "/>
<path style=" stroke:none;fill-rule:nonzero;fill:rgb(100%,100%,100%);fill-opacity:1;" d="M 8.890625 26.667969 L 12.5 26.667969 L 12.5 40 L 8.890625 40 Z M 8.890625 26.667969 "/>
<path style=" stroke:none;fill-rule:nonzero;fill:rgb(0%,0%,0%);fill-opacity:1;" d="M 12.5 0 L 13.332031 0 L 13.332031 13.332031 L 12.5 13.332031 Z M 12.5 0 "/>
<path style=" stroke:none;fill-rule:nonzero;fill:rgb(100%,75.294118%,79.607843%);fill-opacity:1;" d="M 12.5 13.332031 L 13.332031 13.332031 L 13.332031 26.664062 L 12.5 26.664062 Z M 12.5 13.332031 "/>
<path style=" stroke:none;fill-rule:nonzero;fill:rgb(0%,0%,0%);fill-opacity:1;" d="M 12.5 26.667969 L 13.332031 26.667969 L 13.332031 40 L 12.5 40 Z M 12.5 26.667969 "/>
<path style=" stroke:none;fill-rule:nonzero;fill:rgb(0%,0%,0%);fill-opacity:1;" d="M 13.332031 0 L 17.777344 0 L 17.777344 13.332031 L 13.332031 13.332031 Z M 13.332031 0 "/>
<path style=" stroke:none;fill-rule:nonzero;fill:rgb(100%,100%,0%);fill-opacity:1;" d="M 13.332031 13.332031 L 17.777344 13.332031 L 17.777344 26.664062 L 13.332031 26.664062 Z M 13.332031 13.332031 "/>
<path style=" stroke:none;fill-rule:nonzero;fill:rgb(0%,0%,0%);fill-opacity:1;" d="M 13.332031 26.667969 L 17.777344 26.667969 L 17.777344 40 L 13.332031 40 Z M 13.332031 26.667969 "/>
<path style=" stroke:none;fill-rule:nonzero;fill:rgb(0%,0%,0%);fill-opacity:1;" d="M 17.777344 0 L 18.75 0 L 18.75 20 L 17.777344 20 Z M 17.777344 0 "/>
<path style=" stroke:none;fill-rule:nonzero;fill:rgb(0%,0%,0%);fill-opacity:1;" d="M 17.777344 20 L 18.75 20 L 18.75 40 L 17.777344 40 Z M 17.777344 20 "/>
<path style=" stroke:none;fill-rule:nonzero;fill:rgb(100%,100%,100%);fill-opacity:1;" d="M 18.75 0 L 22.222656 0 L 22.222656 20 L 18.75 20 Z M 18.75 0 "/>
<path style=" stroke:none;fill-rule:nonzero;fill:rgb(0%,0%,0%);fill-opacity:1;" d="M 18.75 20 L 22.222656 20 L 22.222656 40 L 18.75 40 Z M 18.75 20 "/>
<path style=" stroke:none;fill-rule:nonzero;fill:rgb(100%,100%,100%);fill-opacity:1;" d="M 22.222656 0 L 25 0 L 25 13.332031 L 22.222656 13.332031 Z M 22.222656 0 "/>
<path style=" stroke:none;fill-rule:nonzero;fill:rgb(100%,75.294118%,79.607843%);fill-opacity:1;" d="M 22.222656 13.332031 L 25 13.332031 L 25 26.664062 L 22.222656 26.664062 Z M 22.222656 13.332031 "/>
<path style=" stroke:none;fill-rule:nonzero;fill:rgb(0%,0%,0%);fill-opacity:1;" d="M 22.222656 26.667969 L 25 26.667969 L 25 40 L 22.222656 40 Z M 22.222656 26.667969 "/>
<path style=" stroke:none;fill-rule:nonzero;fill:rgb(0%,0%,0%);fill-opacity:1;" d="M 25 0 L 26.667969 0 L 26.667969 13.332031 L 25 13.332031 Z M 25 0 "/>
<path style=" stroke:none;fill-rule:nonzero;fill:rgb(100%,75.294118%,79.607843%);fill-opacity:1;" d="M 25 13.332031 L 26.667969 13.332031 L 26.667969 26.664062 L 25 26.664062 Z M 25 13.332031 "/>
<path style=" stroke:none;fill-rule:nonzero;fill:rgb(100%,100%,100%);fill-opacity:1;" d="M 25 26.667969 L 26.667969 26.667969 L 26.667969 40 L 25 40 Z M 25 26.667969 "/>
<path style=" stroke:none;fill-rule:nonzero;fill:rgb(0%,0%,0%);fill-opacity:1;" d="M 26.667969 0 L 31.113281 0 L 31.113281 13.332031 L 26.667969 13.332031 Z M 26.667969 0 "/>
<path style=" stroke:none;fill-rule:nonzero;fill:rgb(100%,100%,0%);fill-opacity:1;" d="M 26.667969 13.332031 L 31.113281 13.332031 L 31.113281 26.664062 L 26.667969 26.664062 Z M 26.667969 13.332031 "/>
<path style=" stroke:none;fill-rule:nonzero;fill:rgb(100%,100%,100%);fill-opacity:1;" d="M 26.667969 26.667969 L 31.113281 26.667969 L 31.113281 40 L 26.667969 40 Z M 26.667969 26.667969 "/>
<path style=" stroke:none;fill-rule:nonzero;fill:rgb(0%,0%,0%);fill-opacity:1;" d="M 31.109375 0 L 31.25 0 L 31.25 20 L 31.109375 20 Z M 31.109375 0 "/>
<path style=" stroke:none;fill-rule:nonzero;fill:rgb(100%,100%,100%);fill-opacity:1;" d="M 31.109375 20 L 31.25 20 L 31.25 40 L 31.109375 40 Z M 31.109375 20 "/>
<path style=" stroke:none;fill-rule:nonzero;fill:rgb(100%,100%,100%);fill-opacity:1;" d="M 31.25 0 L 35.554688 0 L 35.554688 20 L 31.25 20 Z M 31.25 0 "/>
<path style=" stroke:none;fill-rule:nonzero;fill:rgb(100%,100%,100%);fill-opacity:1;" d="M 31.25 20 L 35.554688 20 L 35.554688 40 L 31.25 40 Z M 31.25 20 "/>
<path style=" stroke:none;fill-rule:nonzero;fill:rgb(100%,100%,100%);fill-opacity:1;" d="M 35.554688 0 L 37.5 0 L 37.5 13.332031 L 35.554688 13.332031 Z M 35.554688 0 "/>
<path style=" stroke:none;fill-rule:nonzero;fill:rgb(100%,75.294118%,79.607843%);fill-opacity:1;" d="M 35.554688 13.332031 L 37.5 13.332031 L 37.5 26.664062 L 35.554688 26.664062 Z M 35.554688 13.332031 "/>
<path style=" stroke:none;fill-rule:nonzero;fill:rgb(100%,100%,100%);fill-opacity:1;" d="M 35.554688 26.667969 L 37.5 26.667969 L 37.5 40 L 35.554688 40 Z M 35.554688 26.667969 "/>
<path style=" stroke:none;fill-rule:nonzero;fill:rgb(0%,0%,0%);fill-opacity:1;" d="M 37.5 0 L 40 0 L 40 13.332031 L 37.5 13.332031 Z M 37.5 0 "/>
<path style=" stroke:none;fill-rule:nonzero;fill:rgb(100%,75.294118%,79.607843%);fill-opacity:1;" d="M 37.5 13.332031 L 40 13.332031 L 40 26.664062 L 37.5 26.664062 Z M 37.5 13.332031 "/>
<path style=" stroke:none;fill-rule:nonzero;fill:rgb(0%,0%,0%);fill-opacity:1;" d="M 37.5 26.667969 L 40 26.667969 L 40 40 L 37.5 40 Z M 37.5 26.667969 "/>
<path style=" stroke:none;fill-rule:nonzero;fill:rgb(0%,0%,0%);fill-opacity:1;" d="M 40 0 L 43.75 0 L 43.75 13.332031 L 40 13.332031 Z M 40 0 "/>
<path style=" stroke:none;fill-rule:nonzero;fill:rgb(50.196078%,0%,50.196078%);fill-opacity:1;" d="M 40 13.332031 L 43.75 13.332031 L 43.75 26.664062 L 40 26.664062 Z M 40 13.332031 "/>
<path style=" stroke:none;fill-rule:nonzero;fill:rgb(0%,0%,0%);fill-opacity:1;" d="M 40 26.667969 L 43.75 26.667969 L 43.75 40 L 40 40 Z M 40 26.667969 "/>
<path style=" stroke:none;fill-rule:nonzero;fill:rgb(100%,100%,100%);fill-opacity:1;" d="M 43.75 0 L 50 0 L 50 13.332031 L 43.75 13.332031 Z M 43.75 0 "/>
<path style=" stroke:none;fill-rule:nonzero;fill:rgb(50.196078%,0%,50.196078%);fill-opacity:1;" d="M 43.75 13.332031 L 50 13.332031 L 50 26.664062 L 43.75 26.664062 Z M 43.75 13.332031 "/>
<path style=" stroke:none;fill-rule:nonzero;fill:rgb(0%,0%,0%);fill-opacity:1;" d="M 43.75 26.667969 L 50 26.667969 L 50 40 L 43.75 40 Z M 43.75 26.667969 "/>
<path style=" stroke:none;fill-rule:nonzero;fill:rgb(0%,0%,0%);fill-opacity:1;" d="M 50 0 L 56.25 0 L 56.25 13.332031 L 50 13.332031 Z M 50 0 "/>
<path style=" stroke:none;fill-rule:nonzero;fill:rgb(50.196078%,0%,50.196078%);fill-opacity:1;" d="M 50 13.332031 L 56.25 13.332031 L 56.25 26.664062 L 50 26.664062 Z M 50 13.332031 "/>
<path style=" stroke:none;fill-rule:nonzero;fill:rgb(100%,100%,100%);fill-opacity:1;" d="M 50 26.667969 L 56.25 26.667969 L 56.25 40 L 50 40 Z M 50 26.667969 "/>
<path style=" stroke:none;fill-rule:nonzero;fill:rgb(100%,100%,100%);fill-opacity:1;" d="M 56.25 0 L 62.5 0 L 62.5 13.332031 L 56.25 13.332031 Z M 56.25 0 "/>
<path style=" stroke:none;fill-rule:nonzero;fill:rgb(50.196078%,0%,50.196078%);fill-opacity:1;" d="M 56.25 13.332031 L 62.5 13.332031 L 62.5 26.664062 L 56.25 26.664062 Z M 56.25 13.332031 "/>
<path style=" stroke:none;fill-rule:nonzero;fill:rgb(100%,100%,100%);fill-opacity:1;" d="M 56.25 26.667969 L 62.5 26.667969 L 62.5 40 L 56.25 40 Z M 56.25 26.667969 "/>
<path style=" stroke:none;fill-rule:nonzero;fill:rgb(0%,0%,0%);fill-opacity:1;" d="M 62.5 0 L 68.75 0 L 68.75 13.332031 L 62.5 13.332031 Z M 62.5 0 "/>
<path style=" stroke:none;fill-rule:nonzero;fill:rgb(50.196078%,0%,50.196078%);fill-opacity:1;" d="M 62.5 13.332031 L 68.75 13.332031 L 68.75 26.664062 L 62.5 26.664062 Z M 62.5 13.332031 "/>
<path style=" stroke:none;fill-rule:nonzero;fill:rgb(0%,0%,0%);fill-opacity:1;" d="M 62.5 26.667969 L 68.75 26.667969 L 68.75 40 L 62.5 40 Z M 62.5 26.667969 "/>
<path style=" stroke:none;fill-rule:nonzero;fill:rgb(100%,100%,100%);fill-opacity:1;" d="M 68.75 0 L 75 0 L 75 13.332031 L 68.75 13.332031 Z M 68.75 0 "/>
<path style=" stroke:none;fill-rule:nonzero;fill:rgb(50.196078%,0%,50.196078%);fill-opacity:1;" d="M 68.75 13.332031 L 75 13.332031 L 75 26.664062 L 68.75 26.664062 Z M 68.75 13.332031 "/>
<path style=" stroke:none;fill-rule:nonzero;fill:rgb(0%,0%,0%);fill-opacity:1;" d="M 68.75 26.667969 L 75 26.667969 L 75 40 L 68.75 40 Z M 68.75 26.667969 "/>
<path style=" stroke:none;fill-rule:nonzero;fill:rgb(0%,0%,0%);fill-opacity:1;" d="M 75 0 L 80 0 L 80 13.332031 L 75 13.332031 Z M 75 0 "/>
<path style=" stroke:none;fill-rule:nonzero;fill:rgb(50.196078%,0%,50.196078%);fill-opacity:1;" d="M 75 13.332031 L 80 13.332031 L 80 26.664062 L 75 26.664062 Z M 75 13.332031 "/>
<path style=" stroke:none;fill-rule:nonzero;fill:rgb(100%,100%,100%);fill-opacity:1;" d="M 75 26.667969 L 80 26.667969 L 80 40 L 75 40 Z M 75 26.667969 "/>
<path style=" stroke:none;fill-rule:nonzero;fill:rgb(0%,0%,0%);fill-opacity:1;" d="M 80 0 L 81.25 0 L 81.25 13.332031 L 80 13.332031 Z M 80 0 "/>
<path style=" stroke:none;fill-rule:nonzero;fill:rgb(100%,100%,0%);fill-opacity:1;" d="M 80 13.332031 L 81.25 13.332031 L 81.25 26.664062 L 80 26.664062 Z M 80 13.332031 "/>
<path style=" stroke:none;fill-rule:nonzero;fill:rgb(100%,100%,100%);fill-opacity:1;" d="M 80 26.667969 L 81.25 26.667969 L 81.25 40 L 80 40 Z M 80 26.667969 "/>
<path style=" stroke:none;fill-rule:nonzero;fill:rgb(100%,100%,100%);fill-opacity:1;" d="M 81.25 0 L 84.445312 0 L 84.445312 13.332031 L 81.25 13.332031 Z M 81.25 0 "/>
<path style=" stroke:none;fill-rule:nonzero;fill:rgb(100%,100%,0%);fill-opacity:1;" d="M 81.25 13.332031 L 84.445312 13.332031 L 84.445312 26.664062 L 81.25 26.664062 Z M 81.25 13.332031 "/>
<path style=" stroke:none;fill-rule:nonzero;fill:rgb(100%,100%,100%);fill-opacity:1;" d="M 81.25 26.667969 L 84.445312 26.667969 L 84.445312 40 L 81.25 40 Z M 81.25 26.667969 "/>
<path style=" stroke:none;fill-rule:nonzero;fill:rgb(100%,100%,100%);fill-opacity:1;" d="M 84.445312 0 L 87.5 0 L 87.5 20 L 84.445312 20 Z M 84.445312 0 "/>
<path style=" stroke:none;fill-rule:nonzero;fill:rgb(100%,100%,100%);fill-opacity:1;" d="M 84.445312 20 L 87.5 20 L 87.5 40 L 84.445312 40 Z M 84.445312 20 "/>
<path style=" stroke:none;fill-rule:nonzero;fill:rgb(0%,0%,0%);fill-opacity:1;" d="M 87.5 0 L 88.890625 0 L 88.890625 20 L 87.5 20 Z M 87.5 0 "/>
<path style=" stroke:none;fill-rule:nonzero;fill:rgb(0%,0%,0%);fill-opacity:1;" d="M 87.5 20 L 88.890625 20 L 88.890625 40 L 87.5 40 Z M 87.5 20 "/>
<path style=" stroke:none;fill-rule:nonzero;fill:rgb(0%,0%,0%);fill-opacity:1;" d="M 88.890625 0 L 93.335938 0 L 93.335938 13.332031 L 88.890625 13.332031 Z M 88.890625 0 "/>
<path style=" stroke:none;fill-rule:nonzero;fill:rgb(100%,75.294118%,79.607843%);fill-opacity:1;" d="M 88.890625 13.332031 L 93.335938 13.332031 L 93.335938 26.664062 L 88.890625 26.664062 Z M 88.890625 13.332031 "/>
<path style=" stroke:none;fill-rule:nonzero;fill:rgb(0%,0%,0%);fill-opacity:1;" d="M 88.890625 26.667969 L 93.335938 26.667969 L 93.335938 40 L 88.890625 40 Z M 88.890625 26.667969 "/>
<path style=" stroke:none;fill-rule:nonzero;fill:rgb(0%,0%,0%);fill-opacity:1;" d="M 93.332031 0 L 93.75 0 L 93.75 13.332031 L 93.332031 13.332031 Z M 93.332031 0 "/>
<path style=" stroke:none;fill-rule:nonzero;fill:rgb(100%,100%,0%);fill-opacity:1;" d="M 93.332031 13.332031 L 93.75 13.332031 L 93.75 26.664062 L 93.332031 26.664062 Z M 93.332031 13.332031 "/>
<path style=" stroke:none;fill-rule:nonzero;fill:rgb(0%,0%,0%);fill-opacity:1;" d="M 93.332031 26.667969 L 93.75 26.667969 L 93.75 40 L 93.332031 40 Z M 93.332031 26.667969 "/>
<path style=" stroke:none;fill-rule:nonzero;fill:rgb(100%,100%,100%);fill-opacity:1;" d="M 93.75 0 L 97.777344 0 L 97.777344 13.332031 L 93.75 13.332031 Z M 93.75 0 "/>
<path style=" stroke:none;fill-rule:nonzero;fill:rgb(100%,100%,0%);fill-opacity:1;" d="M 93.75 13.332031 L 97.777344 13.332031 L 97.777344 26.664062 L 93.75 26.664062 Z M 93.75 13.332031 "/>
<path style=" stroke:none;fill-rule:nonzero;fill:rgb(0%,0%,0%);fill-opacity:1;" d="M 93.75 26.667969 L 97.777344 26.667969 L 97.777344 40 L 93.75 40 Z M 93.75 26.667969 "/>
<path style=" stroke:none;fill-rule:nonzero;fill:rgb(100%,100%,100%);fill-opacity:1;" d="M 97.777344 0 L 100 0 L 100 20 L 97.777344 20 Z M 97.777344 0 "/>
<path style=" stroke:none;fill-rule:nonzero;fill:rgb(0%,0%,0%);fill-opacity:1;" d="M 97.777344 20 L 100 20 L 100 40 L 97.777344 40 Z M 97.777344 20 "/>
<path style=" stroke:none;fill-rule:nonzero;fill:rgb(0%,0%,0%);fill-opacity:1;" d="M 100 0 L 102.222656 0 L 102.222656 20 L 100 20 Z M 100 0 "/>
<path style=" stroke:none;fill-rule:nonzero;fill:rgb(100%,100%,100%);fill-opacity:1;" d="M 100 20 L 102.222656 20 L 102.222656 40 L 100 40 Z M 100 20 "/>
<path style=" stroke:none;fill-rule:nonzero;fill:rgb(0%,0%,0%);fill-opacity:1;" d="M 102.222656 0 L 106.25 0 L 106.25 13.332031 L 102.222656 13.332031 Z M 102.222656 0 "/>
<path style=" stroke:none;fill-rule:nonzero;fill:rgb(100%,75.294118%,79.607843%);fill-opacity:1;" d="M 102.222656 13.332031 L 106.25 13.332031 L 106.25 26.664062 L 102.222656 26.664062 Z M 102.222656 13.332031 "/>
<path style=" stroke:none;fill-rule:nonzero;fill:rgb(100%,100%,100%);fill-opacity:1;" d="M 102.222656 26.667969 L 106.25 26.667969 L 106.25 40 L 102.222656 40 Z M 102.222656 26.667969 "/>
<path style=" stroke:none;fill-rule:nonzero;fill:rgb(100%,100%,100%);fill-opacity:1;" d="M 106.25 0 L 106.667969 0 L 106.667969 13.332031 L 106.25 13.332031 Z M 106.25 0 "/>
<path style=" stroke:none;fill-rule:nonzero;fill:rgb(100%,75.294118%,79.607843%);fill-opacity:1;" d="M 106.25 13.332031 L 106.667969 13.332031 L 106.667969 26.664062 L 106.25 26.664062 Z M 106.25 13.332031 "/>
<path style=" stroke:none;fill-rule:nonzero;fill:rgb(100%,100%,100%);fill-opacity:1;" d="M 106.25 26.667969 L 106.667969 26.667969 L 106.667969 40 L 106.25 40 Z M 106.25 26.667969 "/>
<path style=" stroke:none;fill-rule:nonzero;fill:rgb(100%,100%,100%);fill-opacity:1;" d="M 106.667969 0 L 111.113281 0 L 111.113281 13.332031 L 106.667969 13.332031 Z M 106.667969 0 "/>
<path style=" stroke:none;fill-rule:nonzero;fill:rgb(100%,100%,0%);fill-opacity:1;" d="M 106.667969 13.332031 L 111.113281 13.332031 L 111.113281 26.664062 L 106.667969 26.664062 Z M 106.667969 13.332031 "/>
<path style=" stroke:none;fill-rule:nonzero;fill:rgb(100%,100%,100%);fill-opacity:1;" d="M 106.667969 26.667969 L 111.113281 26.667969 L 111.113281 40 L 106.667969 40 Z M 106.667969 26.667969 "/>
<path style=" stroke:none;fill-rule:nonzero;fill:rgb(100%,100%,100%);fill-opacity:1;" d="M 111.109375 0 L 112.5 0 L 112.5 20 L 111.109375 20 Z M 111.109375 0 "/>
<path style=" stroke:none;fill-rule:nonzero;fill:rgb(100%,100%,100%);fill-opacity:1;" d="M 111.109375 20 L 112.5 20 L 112.5 40 L 111.109375 40 Z M 111.109375 20 "/>
<path style=" stroke:none;fill-rule:nonzero;fill:rgb(0%,0%,0%);fill-opacity:1;" d="M 112.5 0 L 115.554688 0 L 115.554688 20 L 112.5 20 Z M 112.5 0 "/>
<path style=" stroke:none;fill-rule:nonzero;fill:rgb(0%,0%,0%);fill-opacity:1;" d="M 112.5 20 L 115.554688 20 L 115.554688 40 L 112.5 40 Z M 112.5 20 "/>
<path style=" stroke:none;fill-rule:nonzero;fill:rgb(0%,0%,0%);fill-opacity:1;" d="M 115.554688 0 L 118.75 0 L 118.75 13.332031 L 115.554688 13.332031 Z M 115.554688 0 "/>
<path style=" stroke:none;fill-rule:nonzero;fill:rgb(100%,75.294118%,79.607843%);fill-opacity:1;" d="M 115.554688 13.332031 L 118.75 13.332031 L 118.75 26.664062 L 115.554688 26.664062 Z M 115.554688 13.332031 "/>
<path style=" stroke:none;fill-rule:nonzero;fill:rgb(0%,0%,0%);fill-opacity:1;" d="M 115.554688 26.667969 L 118.75 26.667969 L 118.75 40 L 115.554688 40 Z M 115.554688 26.667969 "/>
<path style=" stroke:none;fill-rule:nonzero;fill:rgb(100%,100%,100%);fill-opacity:1;" d="M 118.75 0 L 120 0 L 120 13.332031 L 118.75 13.332031 Z M 118.75 0 "/>
<path style=" stroke:none;fill-rule:nonzero;fill:rgb(100%,75.294118%,79.607843%);fill-opacity:1;" d="M 118.75 13.332031 L 120 13.332031 L 120 26.664062 L 118.75 26.664062 Z M 118.75 13.332031 "/>
<path style=" stroke:none;fill-rule:nonzero;fill:rgb(0%,0%,0%);fill-opacity:1;" d="M 118.75 26.667969 L 120 26.667969 L 120 40 L 118.75 40 Z M 118.75 26.667969 "/>
<path style=" stroke:none;fill-rule:nonzero;fill:rgb(100%,100%,100%);fill-opacity:1;" d="M 120 0 L 125 0 L 125 13.332031 L 120 13.332031 Z M 120 0 "/>
<path style=" stroke:none;fill-rule:nonzero;fill:rgb(50.196078%,0%,50.196078%);fill-opacity:1;" d="M 120 13.332031 L 125 13.332031 L 125 26.664062 L 120 26.664062 Z M 120 13.332031 "/>
<path style=" stroke:none;fill-rule:nonzero;fill:rgb(0%,0%,0%);fill-opacity:1;" d="M 120 26.667969 L 125 26.667969 L 125 40 L 120 40 Z M 120 26.667969 "/>
<path style=" stroke:none;fill-rule:nonzero;fill:rgb(0%,0%,0%);fill-opacity:1;" d="M 125 0 L 131.25 0 L 131.25 13.332031 L 125 13.332031 Z M 125 0 "/>
<path style=" stroke:none;fill-rule:nonzero;fill:rgb(50.196078%,0%,50.196078%);fill-opacity:1;" d="M 125 13.332031 L 131.25 13.332031 L 131.25 26.664062 L 125 26.664062 Z M 125 13.332031 "/>
<path style=" stroke:none;fill-rule:nonzero;fill:rgb(100%,100%,100%);fill-opacity:1;" d="M 125 26.667969 L 131.25 26.667969 L 131.25 40 L 125 40 Z M 125 26.667969 "/>
<path style=" stroke:none;fill-rule:nonzero;fill:rgb(100%,100%,100%);fill-opacity:1;" d="M 131.25 0 L 137.5 0 L 137.5 13.332031 L 131.25 13.332031 Z M 131.25 0 "/>
<path style=" stroke:none;fill-rule:nonzero;fill:rgb(50.196078%,0%,50.196078%);fill-opacity:1;" d="M 131.25 13.332031 L 137.5 13.332031 L 137.5 26.664062 L 131.25 26.664062 Z M 131.25 13.332031 "/>
<path style=" stroke:none;fill-rule:nonzero;fill:rgb(100%,100%,100%);fill-opacity:1;" d="M 131.25 26.667969 L 137.5 26.667969 L 137.5 40 L 131.25 40 Z M 131.25 26.667969 "/>
<path style=" stroke:none;fill-rule:nonzero;fill:rgb(0%,0%,0%);fill-opacity:1;" d="M 137.5 0 L 143.75 0 L 143.75 13.332031 L 137.5 13.332031 Z M 137.5 0 "/>
<path style=" stroke:none;fill-rule:nonzero;fill:rgb(50.196078%,0%,50.196078%);fill-opacity:1;" d="M 137.5 13.332031 L 143.75 13.332031 L 143.75 26.664062 L 137.5 26.664062 Z M 137.5 13.332031 "/>
<path style=" stroke:none;fill-rule:nonzero;fill:rgb(0%,0%,0%);fill-opacity:1;" d="M 137.5 26.667969 L 143.75 26.667969 L 143.75 40 L 137.5 40 Z M 137.5 26.667969 "/>
<path style=" stroke:none;fill-rule:nonzero;fill:rgb(100%,100%,100%);fill-opacity:1;" d="M 143.75 0 L 150 0 L 150 13.332031 L 143.75 13.332031 Z M 143.75 0 "/>
<path style=" stroke:none;fill-rule:nonzero;fill:rgb(50.196078%,0%,50.196078%);fill-opacity:1;" d="M 143.75 13.332031 L 150 13.332031 L 150 26.664062 L 143.75 26.664062 Z M 143.75 13.332031 "/>
<path style=" stroke:none;fill-rule:nonzero;fill:rgb(0%,0%,0%);fill-opacity:1;" d="M 143.75 26.667969 L 150 26.667969 L 150 40 L 143.75 40 Z M 143.75 26.667969 "/>
<path style=" stroke:none;fill-rule:nonzero;fill:rgb(0%,0%,0%);fill-opacity:1;" d="M 150 0 L 156.25 0 L 156.25 13.332031 L 150 13.332031 Z M 150 0 "/>
<path style=" stroke:none;fill-rule:nonzero;fill:rgb(50.196078%,0%,50.196078%);fill-opacity:1;" d="M 150 13.332031 L 156.25 13.332031 L 156.25 26.664062 L 150 26.664062 Z M 150 13.332031 "/>
<path style=" stroke:none;fill-rule:nonzero;fill:rgb(100%,100%,100%);fill-opacity:1;" d="M 150 26.667969 L 156.25 26.667969 L 156.25 40 L 150 40 Z M 150 26.667969 "/>
<path style=" stroke:none;fill-rule:nonzero;fill:rgb(100%,100%,100%);fill-opacity:1;" d="M 156.25 0 L 160 0 L 160 13.332031 L 156.25 13.332031 Z M 156.25 0 "/>
<path style=" stroke:none;fill-rule:nonzero;fill:rgb(50.196078%,0%,50.196078%);fill-opacity:1;" d="M 156.25 13.332031 L 160 13.332031 L 160 26.664062 L 156.25 26.664062 Z M 156.25 13.332031 "/>
<path style=" stroke:none;fill-rule:nonzero;fill:rgb(100%,100%,100%);fill-opacity:1;" d="M 156.25 26.667969 L 160 26.667969 L 160 40 L 156.25 40 Z M 156.25 26.667969 "/>
<path style=" stroke:none;fill-rule:nonzero;fill:rgb(100%,100%,100%);fill-opacity:1;" d="M 160 0 L 162.5 0 L 162.5 13.332031 L 160 13.332031 Z M 160 0 "/>
<path style=" stroke:none;fill-rule:nonzero;fill:rgb(100%,100%,0%);fill-opacity:1;" d="M 160 13.332031 L 162.5 13.332031 L 162.5 26.664062 L 160 26.664062 Z M 160 13.332031 "/>
<path style=" stroke:none;fill-rule:nonzero;fill:rgb(100%,100%,100%);fill-opacity:1;" d="M 160 26.667969 L 162.5 26.667969 L 162.5 40 L 160 40 Z M 160 26.667969 "/>
<path style=" stroke:none;fill-rule:nonzero;fill:rgb(0%,0%,0%);fill-opacity:1;" d="M 162.5 0 L 164.445312 0 L 164.445312 13.332031 L 162.5 13.332031 Z M 162.5 0 "/>
<path style=" stroke:none;fill-rule:nonzero;fill:rgb(100%,100%,0%);fill-opacity:1;" d="M 162.5 13.332031 L 164.445312 13.332031 L 164.445312 26.664062 L 162.5 26.664062 Z M 162.5 13.332031 "/>
<path style=" stroke:none;fill-rule:nonzero;fill:rgb(0%,0%,0%);fill-opacity:1;" d="M 162.5 26.667969 L 164.445312 26.667969 L 164.445312 40 L 162.5 40 Z M 162.5 26.667969 "/>
<path style=" stroke:none;fill-rule:nonzero;fill:rgb(0%,0%,0%);fill-opacity:1;" d="M 164.445312 0 L 168.75 0 L 168.75 20 L 164.445312 20 Z M 164.445312 0 "/>
<path style=" stroke:none;fill-rule:nonzero;fill:rgb(0%,0%,0%);fill-opacity:1;" d="M 164.445312 20 L 168.75 20 L 168.75 40 L 164.445312 40 Z M 164.445312 20 "/>
<path style=" stroke:none;fill-rule:nonzero;fill:rgb(100%,100%,100%);fill-opacity:1;" d="M 168.75 0 L 168.890625 0 L 168.890625 20 L 168.75 20 Z M 168.75 0 "/>
<path style=" stroke:none;fill-rule:nonzero;fill:rgb(0%,0%,0%);fill-opacity:1;" d="M 168.75 20 L 168.890625 20 L 168.890625 40 L 168.75 40 Z M 168.75 20 "/>
<path style=" stroke:none;fill-rule:nonzero;fill:rgb(100%,100%,100%);fill-opacity:1;" d="M 168.890625 0 L 173.335938 0 L 173.335938 13.332031 L 168.890625 13.332031 Z M 168.890625 0 "/>
<path style=" stroke:none;fill-rule:nonzero;fill:rgb(100%,75.294118%,79.607843%);fill-opacity:1;" d="M 168.890625 13.332031 L 173.335938 13.332031 L 173.335938 26.664062 L 168.890625 26.664062 Z M 168.890625 13.332031 "/>
<path style=" stroke:none;fill-rule:nonzero;fill:rgb(0%,0%,0%);fill-opacity:1;" d="M 168.890625 26.667969 L 173.335938 26.667969 L 173.335938 40 L 168.890625 40 Z M 168.890625 26.667969 "/>
<path style=" stroke:none;fill-rule:nonzero;fill:rgb(100%,100%,100%);fill-opacity:1;" d="M 173.332031 0 L 175 0 L 175 13.332031 L 173.332031 13.332031 Z M 173.332031 0 "/>
<path style=" stroke:none;fill-rule:nonzero;fill:rgb(100%,100%,0%);fill-opacity:1;" d="M 173.332031 13.332031 L 175 13.332031 L 175 26.664062 L 173.332031 26.664062 Z M 173.332031 13.332031 "/>
<path style=" stroke:none;fill-rule:nonzero;fill:rgb(0%,0%,0%);fill-opacity:1;" d="M 173.332031 26.667969 L 175 26.667969 L 175 40 L 173.332031 40 Z M 173.332031 26.667969 "/>
<path style=" stroke:none;fill-rule:nonzero;fill:rgb(0%,0%,0%);fill-opacity:1;" d="M 175 0 L 177.777344 0 L 177.777344 13.332031 L 175 13.332031 Z M 175 0 "/>
<path style=" stroke:none;fill-rule:nonzero;fill:rgb(100%,100%,0%);fill-opacity:1;" d="M 175 13.332031 L 177.777344 13.332031 L 177.777344 26.664062 L 175 26.664062 Z M 175 13.332031 "/>
<path style=" stroke:none;fill-rule:nonzero;fill:rgb(100%,100%,100%);fill-opacity:1;" d="M 175 26.667969 L 177.777344 26.667969 L 177.777344 40 L 175 40 Z M 175 26.667969 "/>
<path style=" stroke:none;fill-rule:nonzero;fill:rgb(0%,0%,0%);fill-opacity:1;" d="M 177.777344 0 L 181.25 0 L 181.25 20 L 177.777344 20 Z M 177.777344 0 "/>
<path style=" stroke:none;fill-rule:nonzero;fill:rgb(100%,100%,100%);fill-opacity:1;" d="M 177.777344 20 L 181.25 20 L 181.25 40 L 177.777344 40 Z M 177.777344 20 "/>
<path style=" stroke:none;fill-rule:nonzero;fill:rgb(100%,100%,100%);fill-opacity:1;" d="M 181.25 0 L 182.222656 0 L 182.222656 20 L 181.25 20 Z M 181.25 0 "/>
<path style=" stroke:none;fill-rule:nonzero;fill:rgb(100%,100%,100%);fill-opacity:1;" d="M 181.25 20 L 182.222656 20 L 182.222656 40 L 181.25 40 Z M 181.25 20 "/>
<path style=" stroke:none;fill-rule:nonzero;fill:rgb(100%,100%,100%);fill-opacity:1;" d="M 182.222656 0 L 186.667969 0 L 186.667969 13.332031 L 182.222656 13.332031 Z M 182.222656 0 "/>
<path style=" stroke:none;fill-rule:nonzero;fill:rgb(100%,75.294118%,79.607843%);fill-opacity:1;" d="M 182.222656 13.332031 L 186.667969 13.332031 L 186.667969 26.664062 L 182.222656 26.664062 Z M 182.222656 13.332031 "/>
<path style=" stroke:none;fill-rule:nonzero;fill:rgb(100%,100%,100%);fill-opacity:1;" d="M 182.222656 26.667969 L 186.667969 26.667969 L 186.667969 40 L 182.222656 40 Z M 182.222656 26.667969 "/>
<path style=" stroke:none;fill-rule:nonzero;fill:rgb(100%,100%,100%);fill-opacity:1;" d="M 186.667969 0 L 187.5 0 L 187.5 13.332031 L 186.667969 13.332031 Z M 186.667969 0 "/>
<path style=" stroke:none;fill-rule:nonzero;fill:rgb(100%,100%,0%);fill-opacity:1;" d="M 186.667969 13.332031 L 187.5 13.332031 L 187.5 26.664062 L 186.667969 26.664062 Z M 186.667969 13.332031 "/>
<path style=" stroke:none;fill-rule:nonzero;fill:rgb(100%,100%,100%);fill-opacity:1;" d="M 186.667969 26.667969 L 187.5 26.667969 L 187.5 40 L 186.667969 40 Z M 186.667969 26.667969 "/>
<path style=" stroke:none;fill-rule:nonzero;fill:rgb(0%,0%,0%);fill-opacity:1;" d="M 187.5 0 L 191.109375 0 L 191.109375 13.332031 L 187.5 13.332031 Z M 187.5 0 "/>
<path style=" stroke:none;fill-rule:nonzero;fill:rgb(100%,100%,0%);fill-opacity:1;" d="M 187.5 13.332031 L 191.109375 13.332031 L 191.109375 26.664062 L 187.5 26.664062 Z M 187.5 13.332031 "/>
<path style=" stroke:none;fill-rule:nonzero;fill:rgb(0%,0%,0%);fill-opacity:1;" d="M 187.5 26.667969 L 191.109375 26.667969 L 191.109375 40 L 187.5 40 Z M 187.5 26.667969 "/>
<path style=" stroke:none;fill-rule:nonzero;fill:rgb(0%,0%,0%);fill-opacity:1;" d="M 191.109375 0 L 193.75 0 L 193.75 20 L 191.109375 20 Z M 191.109375 0 "/>
<path style=" stroke:none;fill-rule:nonzero;fill:rgb(0%,0%,0%);fill-opacity:1;" d="M 191.109375 20 L 193.75 20 L 193.75 40 L 191.109375 40 Z M 191.109375 20 "/>
<path style=" stroke:none;fill-rule:nonzero;fill:rgb(100%,100%,100%);fill-opacity:1;" d="M 193.75 0 L 195.554688 0 L 195.554688 20 L 193.75 20 Z M 193.75 0 "/>
<path style=" stroke:none;fill-rule:nonzero;fill:rgb(0%,0%,0%);fill-opacity:1;" d="M 193.75 20 L 195.554688 20 L 195.554688 40 L 193.75 40 Z M 193.75 20 "/>
<path style=" stroke:none;fill-rule:nonzero;fill:rgb(100%,100%,100%);fill-opacity:1;" d="M 195.554688 0 L 200 0 L 200 13.332031 L 195.554688 13.332031 Z M 195.554688 0 "/>
<path style=" stroke:none;fill-rule:nonzero;fill:rgb(100%,75.294118%,79.607843%);fill-opacity:1;" d="M 195.554688 13.332031 L 200 13.332031 L 200 26.664062 L 195.554688 26.664062 Z M 195.554688 13.332031 "/>
<path style=" stroke:none;fill-rule:nonzero;fill:rgb(0%,0%,0%);fill-opacity:1;" d="M 195.554688 26.667969 L 200 26.667969 L 200 40 L 195.554688 40 Z M 195.554688 26.667969 "/>
<path style=" stroke:none;fill-rule:nonzero;fill:rgb(0%,0%,0%);fill-opacity:1;" d="M 200 0 L 206.25 0 L 206.25 13.332031 L 200 13.332031 Z M 200 0 "/>
<path style=" stroke:none;fill-rule:nonzero;fill:rgb(50.196078%,0%,50.196078%);fill-opacity:1;" d="M 200 13.332031 L 206.25 13.332031 L 206.25 26.664062 L 200 26.664062 Z M 200 13.332031 "/>
<path style=" stroke:none;fill-rule:nonzero;fill:rgb(100%,100%,100%);fill-opacity:1;" d="M 200 26.667969 L 206.25 26.667969 L 206.25 40 L 200 40 Z M 200 26.667969 "/>
<path style=" stroke:none;fill-rule:nonzero;fill:rgb(100%,100%,100%);fill-opacity:1;" d="M 206.25 0 L 212.5 0 L 212.5 13.332031 L 206.25 13.332031 Z M 206.25 0 "/>
<path style=" stroke:none;fill-rule:nonzero;fill:rgb(50.196078%,0%,50.196078%);fill-opacity:1;" d="M 206.25 13.332031 L 212.5 13.332031 L 212.5 26.664062 L 206.25 26.664062 Z M 206.25 13.332031 "/>
<path style=" stroke:none;fill-rule:nonzero;fill:rgb(100%,100%,100%);fill-opacity:1;" d="M 206.25 26.667969 L 212.5 26.667969 L 212.5 40 L 206.25 40 Z M 206.25 26.667969 "/>
<path style=" stroke:none;fill-rule:nonzero;fill:rgb(0%,0%,0%);fill-opacity:1;" d="M 212.5 0 L 218.75 0 L 218.75 13.332031 L 212.5 13.332031 Z M 212.5 0 "/>
<path style=" stroke:none;fill-rule:nonzero;fill:rgb(50.196078%,0%,50.196078%);fill-opacity:1;" d="M 212.5 13.332031 L 218.75 13.332031 L 218.75 26.664062 L 212.5 26.664062 Z M 212.5 13.332031 "/>
<path style=" stroke:none;fill-rule:nonzero;fill:rgb(0%,0%,0%);fill-opacity:1;" d="M 212.5 26.667969 L 218.75 26.667969 L 218.75 40 L 212.5 40 Z M 212.5 26.667969 "/>
<path style=" stroke:none;fill-rule:nonzero;fill:rgb(100%,100%,100%);fill-opacity:1;" d="M 218.75 0 L 225 0 L 225 13.332031 L 218.75 13.332031 Z M 218.75 0 "/>
<path style=" stroke:none;fill-rule:nonzero;fill:rgb(50.196078%,0%,50.196078%);fill-opacity:1;" d="M 218.75 13.332031 L 225 13.332031 L 225 26.664062 L 218.75 26.664062 Z M 218.75 13.332031 "/>
<path style=" stroke:none;fill-rule:nonzero;fill:rgb(0%,0%,0%);fill-opacity:1;" d="M 218.75 26.667969 L 225 26.667969 L 225 40 L 218.75 40 Z M 218.75 26.667969 "/>
<path style=" stroke:none;fill-rule:nonzero;fill:rgb(0%,0%,0%);fill-opacity:1;" d="M 225 0 L 231.25 0 L 231.25 13.332031 L 225 13.332031 Z M 225 0 "/>
<path style=" stroke:none;fill-rule:nonzero;fill:rgb(50.196078%,0%,50.196078%);fill-opacity:1;" d="M 225 13.332031 L 231.25 13.332031 L 231.25 26.664062 L 225 26.664062 Z M 225 13.332031 "/>
<path style=" stroke:none;fill-rule:nonzero;fill:rgb(100%,100%,100%);fill-opacity:1;" d="M 225 26.667969 L 231.25 26.667969 L 231.25 40 L 225 40 Z M 225 26.667969 "/>
<path style=" stroke:none;fill-rule:nonzero;fill:rgb(100%,100%,100%);fill-opacity:1;" d="M 231.25 0 L 237.5 0 L 237.5 13.332031 L 231.25 13.332031 Z M 231.25 0 "/>
<path style=" stroke:none;fill-rule:nonzero;fill:rgb(50.196078%,0%,50.196078%);fill-opacity:1;" d="M 231.25 13.332031 L 237.5 13.332031 L 237.5 26.664062 L 231.25 26.664062 Z M 231.25 13.332031 "/>
<path style=" stroke:none;fill-rule:nonzero;fill:rgb(100%,100%,100%);fill-opacity:1;" d="M 231.25 26.667969 L 237.5 26.667969 L 237.5 40 L 231.25 40 Z M 231.25 26.667969 "/>
<path style=" stroke:none;fill-rule:nonzero;fill:rgb(0%,0%,0%);fill-opacity:1;" d="M 237.5 0 L 240 0 L 240 13.332031 L 237.5 13.332031 Z M 237.5 0 "/>
<path style=" stroke:none;fill-rule:nonzero;fill:rgb(50.196078%,0%,50.196078%);fill-opacity:1;" d="M 237.5 13.332031 L 240 13.332031 L 240 26.664062 L 237.5 26.664062 Z M 237.5 13.332031 "/>
<path style=" stroke:none;fill-rule:nonzero;fill:rgb(0%,0%,0%);fill-opacity:1;" d="M 237.5 26.667969 L 240 26.667969 L 240 40 L 237.5 40 Z M 237.5 26.667969 "/>
<path style=" stroke:none;fill-rule:nonzero;fill:rgb(0%,0%,0%);fill-opacity:1;" d="M 240 0 L 243.75 0 L 243.75 13.332031 L 240 13.332031 Z M 240 0 "/>
<path style=" stroke:none;fill-rule:nonzero;fill:rgb(100%,100%,0%);fill-opacity:1;" d="M 240 13.332031 L 243.75 13.332031 L 243.75 26.664062 L 240 26.664062 Z M 240 13.332031 "/>
<path style=" stroke:none;fill-rule:nonzero;fill:rgb(0%,0%,0%);fill-opacity:1;" d="M 240 26.667969 L 243.75 26.667969 L 243.75 40 L 240 40 Z M 240 26.667969 "/>
<path style=" stroke:none;fill-rule:nonzero;fill:rgb(100%,100%,100%);fill-opacity:1;" d="M 243.75 0 L 244.445312 0 L 244.445312 13.332031 L 243.75 13.332031 Z M 243.75 0 "/>
<path style=" stroke:none;fill-rule:nonzero;fill:rgb(100%,100%,0%);fill-opacity:1;" d="M 243.75 13.332031 L 244.445312 13.332031 L 244.445312 26.664062 L 243.75 26.664062 Z M 243.75 13.332031 "/>
<path style=" stroke:none;fill-rule:nonzero;fill:rgb(0%,0%,0%);fill-opacity:1;" d="M 243.75 26.667969 L 244.445312 26.667969 L 244.445312 40 L 243.75 40 Z M 243.75 26.667969 "/>
<path style=" stroke:none;fill-rule:nonzero;fill:rgb(100%,100%,100%);fill-opacity:1;" d="M 244.445312 0 L 248.890625 0 L 248.890625 20 L 244.445312 20 Z M 244.445312 0 "/>
<path style=" stroke:none;fill-rule:nonzero;fill:rgb(0%,0%,0%);fill-opacity:1;" d="M 244.445312 20 L 248.890625 20 L 248.890625 40 L 244.445312 40 Z M 244.445312 20 "/>
<path style=" stroke:none;fill-rule:nonzero;fill:rgb(100%,100%,100%);fill-opacity:1;" d="M 248.890625 0 L 250 0 L 250 13.332031 L 248.890625 13.332031 Z M 248.890625 0 "/>
<path style=" stroke:none;fill-rule:nonzero;fill:rgb(100%,75.294118%,79.607843%);fill-opacity:1;" d="M 248.890625 13.332031 L 250 13.332031 L 250 26.664062 L 248.890625 26.664062 Z M 248.890625 13.332031 "/>
<path style=" stroke:none;fill-rule:nonzero;fill:rgb(0%,0%,0%);fill-opacity:1;" d="M 248.890625 26.667969 L 250 26.667969 L 250 40 L 248.890625 40 Z M 248.890625 26.667969 "/>
<path style=" stroke:none;fill-rule:nonzero;fill:rgb(0%,0%,0%);fill-opacity:1;" d="M 250 0 L 253.332031 0 L 253.332031 13.332031 L 250 13.332031 Z M 250 0 "/>
<path style=" stroke:none;fill-rule:nonzero;fill:rgb(100%,75.294118%,79.607843%);fill-opacity:1;" d="M 250 13.332031 L 253.332031 13.332031 L 253.332031 26.664062 L 250 26.664062 Z M 250 13.332031 "/>
<path style=" stroke:none;fill-rule:nonzero;fill:rgb(100%,100%,100%);fill-opacity:1;" d="M 250 26.667969 L 253.332031 26.667969 L 253.332031 40 L 250 40 Z M 250 26.667969 "/>
<path style=" stroke:none;fill-rule:nonzero;fill:rgb(0%,0%,0%);fill-opacity:1;" d="M 253.332031 0 L 256.25 0 L 256.25 13.332031 L 253.332031 13.332031 Z M 253.332031 0 "/>
<path style=" stroke:none;fill-rule:nonzero;fill:rgb(100%,100%,0%);fill-opacity:1;" d="M 253.332031 13.332031 L 256.25 13.332031 L 256.25 26.664062 L 253.332031 26.664062 Z M 253.332031 13.332031 "/>
<path style=" stroke:none;fill-rule:nonzero;fill:rgb(100%,100%,100%);fill-opacity:1;" d="M 253.332031 26.667969 L 256.25 26.667969 L 256.25 40 L 253.332031 40 Z M 253.332031 26.667969 "/>
<path style=" stroke:none;fill-rule:nonzero;fill:rgb(100%,100%,100%);fill-opacity:1;" d="M 256.25 0 L 257.777344 0 L 257.777344 13.332031 L 256.25 13.332031 Z M 256.25 0 "/>
<path style=" stroke:none;fill-rule:nonzero;fill:rgb(100%,100%,0%);fill-opacity:1;" d="M 256.25 13.332031 L 257.777344 13.332031 L 257.777344 26.664062 L 256.25 26.664062 Z M 256.25 13.332031 "/>
<path style=" stroke:none;fill-rule:nonzero;fill:rgb(100%,100%,100%);fill-opacity:1;" d="M 256.25 26.667969 L 257.777344 26.667969 L 257.777344 40 L 256.25 40 Z M 256.25 26.667969 "/>
<path style=" stroke:none;fill-rule:nonzero;fill:rgb(100%,100%,100%);fill-opacity:1;" d="M 257.777344 0 L 262.222656 0 L 262.222656 20 L 257.777344 20 Z M 257.777344 0 "/>
<path style=" stroke:none;fill-rule:nonzero;fill:rgb(100%,100%,100%);fill-opacity:1;" d="M 257.777344 20 L 262.222656 20 L 262.222656 40 L 257.777344 40 Z M 257.777344 20 "/>
<path style=" stroke:none;fill-rule:nonzero;fill:rgb(100%,100%,100%);fill-opacity:1;" d="M 262.222656 0 L 262.5 0 L 262.5 13.332031 L 262.222656 13.332031 Z M 262.222656 0 "/>
<path style=" stroke:none;fill-rule:nonzero;fill:rgb(100%,75.294118%,79.607843%);fill-opacity:1;" d="M 262.222656 13.332031 L 262.5 13.332031 L 262.5 26.664062 L 262.222656 26.664062 Z M 262.222656 13.332031 "/>
<path style=" stroke:none;fill-rule:nonzero;fill:rgb(100%,100%,100%);fill-opacity:1;" d="M 262.222656 26.667969 L 262.5 26.667969 L 262.5 40 L 262.222656 40 Z M 262.222656 26.667969 "/>
<path style=" stroke:none;fill-rule:nonzero;fill:rgb(0%,0%,0%);fill-opacity:1;" d="M 262.5 0 L 266.667969 0 L 266.667969 13.332031 L 262.5 13.332031 Z M 262.5 0 "/>
<path style=" stroke:none;fill-rule:nonzero;fill:rgb(100%,75.294118%,79.607843%);fill-opacity:1;" d="M 262.5 13.332031 L 266.667969 13.332031 L 266.667969 26.664062 L 262.5 26.664062 Z M 262.5 13.332031 "/>
<path style=" stroke:none;fill-rule:nonzero;fill:rgb(0%,0%,0%);fill-opacity:1;" d="M 262.5 26.667969 L 266.667969 26.667969 L 266.667969 40 L 262.5 40 Z M 262.5 26.667969 "/>
<path style=" stroke:none;fill-rule:nonzero;fill:rgb(0%,0%,0%);fill-opacity:1;" d="M 266.667969 0 L 268.75 0 L 268.75 13.332031 L 266.667969 13.332031 Z M 266.667969 0 "/>
<path style=" stroke:none;fill-rule:nonzero;fill:rgb(100%,100%,0%);fill-opacity:1;" d="M 266.667969 13.332031 L 268.75 13.332031 L 268.75 26.664062 L 266.667969 26.664062 Z M 266.667969 13.332031 "/>
<path style=" stroke:none;fill-rule:nonzero;fill:rgb(0%,0%,0%);fill-opacity:1;" d="M 266.667969 26.667969 L 268.75 26.667969 L 268.75 40 L 266.667969 40 Z M 266.667969 26.667969 "/>
<path style=" stroke:none;fill-rule:nonzero;fill:rgb(100%,100%,100%);fill-opacity:1;" d="M 268.75 0 L 271.109375 0 L 271.109375 13.332031 L 268.75 13.332031 Z M 268.75 0 "/>
<path style=" stroke:none;fill-rule:nonzero;fill:rgb(100%,100%,0%);fill-opacity:1;" d="M 268.75 13.332031 L 271.109375 13.332031 L 271.109375 26.664062 L 268.75 26.664062 Z M 268.75 13.332031 "/>
<path style=" stroke:none;fill-rule:nonzero;fill:rgb(0%,0%,0%);fill-opacity:1;" d="M 268.75 26.667969 L 271.109375 26.667969 L 271.109375 40 L 268.75 40 Z M 268.75 26.667969 "/>
<path style=" stroke:none;fill-rule:nonzero;fill:rgb(100%,100%,100%);fill-opacity:1;" d="M 271.109375 0 L 275 0 L 275 20 L 271.109375 20 Z M 271.109375 0 "/>
<path style=" stroke:none;fill-rule:nonzero;fill:rgb(0%,0%,0%);fill-opacity:1;" d="M 271.109375 20 L 275 20 L 275 40 L 271.109375 40 Z M 271.109375 20 "/>
<path style=" stroke:none;fill-rule:nonzero;fill:rgb(0%,0%,0%);fill-opacity:1;" d="M 275 0 L 275.554688 0 L 275.554688 20 L 275 20 Z M 275 0 "/>
<path style=" stroke:none;fill-rule:nonzero;fill:rgb(100%,100%,100%);fill-opacity:1;" d="M 275 20 L 275.554688 20 L 275.554688 40 L 275 40 Z M 275 20 "/>
<path style=" stroke:none;fill-rule:nonzero;fill:rgb(0%,0%,0%);fill-opacity:1;" d="M 275.554688 0 L 280 0 L 280 13.332031 L 275.554688 13.332031 Z M 275.554688 0 "/>
<path style=" stroke:none;fill-rule:nonzero;fill:rgb(100%,75.294118%,79.607843%);fill-opacity:1;" d="M 275.554688 13.332031 L 280 13.332031 L 280 26.664062 L 275.554688 26.664062 Z M 275.554688 13.332031 "/>
<path style=" stroke:none;fill-rule:nonzero;fill:rgb(100%,100%,100%);fill-opacity:1;" d="M 275.554688 26.667969 L 280 26.667969 L 280 40 L 275.554688 40 Z M 275.554688 26.667969 "/>
<path style=" stroke:none;fill-rule:nonzero;fill:rgb(0%,0%,0%);fill-opacity:1;" d="M 280 0 L 281.25 0 L 281.25 13.332031 L 280 13.332031 Z M 280 0 "/>
<path style=" stroke:none;fill-rule:nonzero;fill:rgb(50.196078%,0%,50.196078%);fill-opacity:1;" d="M 280 13.332031 L 281.25 13.332031 L 281.25 26.664062 L 280 26.664062 Z M 280 13.332031 "/>
<path style=" stroke:none;fill-rule:nonzero;fill:rgb(100%,100%,100%);fill-opacity:1;" d="M 280 26.667969 L 281.25 26.667969 L 281.25 40 L 280 40 Z M 280 26.667969 "/>
<path style=" stroke:none;fill-rule:nonzero;fill:rgb(100%,100%,100%);fill-opacity:1;" d="M 281.25 0 L 287.5 0 L 287.5 13.332031 L 281.25 13.332031 Z M 281.25 0 "/>
<path style=" stroke:none;fill-rule:nonzero;fill:rgb(50.196078%,0%,50.196078%);fill-opacity:1;" d="M 281.25 13.332031 L 287.5 13.332031 L 287.5 26.664062 L 281.25 26.664062 Z M 281.25 13.332031 "/>
<path style=" stroke:none;fill-rule:nonzero;fill:rgb(100%,100%,100%);fill-opacity:1;" d="M 281.25 26.667969 L 287.5 26.667969 L 287.5 40 L 281.25 40 Z M 281.25 26.667969 "/>
<path style=" stroke:none;fill-rule:nonzero;fill:rgb(0%,0%,0%);fill-opacity:1;" d="M 287.5 0 L 293.75 0 L 293.75 13.332031 L 287.5 13.332031 Z M 287.5 0 "/>
<path style=" stroke:none;fill-rule:nonzero;fill:rgb(50.196078%,0%,50.196078%);fill-opacity:1;" d="M 287.5 13.332031 L 293.75 13.332031 L 293.75 26.664062 L 287.5 26.664062 Z M 287.5 13.332031 "/>
<path style=" stroke:none;fill-rule:nonzero;fill:rgb(0%,0%,0%);fill-opacity:1;" d="M 287.5 26.667969 L 293.75 26.667969 L 293.75 40 L 287.5 40 Z M 287.5 26.667969 "/>
<path style=" stroke:none;fill-rule:nonzero;fill:rgb(100%,100%,100%);fill-opacity:1;" d="M 293.75 0 L 300 0 L 300 13.332031 L 293.75 13.332031 Z M 293.75 0 "/>
<path style=" stroke:none;fill-rule:nonzero;fill:rgb(50.196078%,0%,50.196078%);fill-opacity:1;" d="M 293.75 13.332031 L 300 13.332031 L 300 26.664062 L 293.75 26.664062 Z M 293.75 13.332031 "/>
<path style=" stroke:none;fill-rule:nonzero;fill:rgb(0%,0%,0%);fill-opacity:1;" d="M 293.75 26.667969 L 300 26.667969 L 300 40 L 293.75 40 Z M 293.75 26.667969 "/>
<path style=" stroke:none;fill-rule:nonzero;fill:rgb(0%,0%,0%);fill-opacity:1;" d="M 300 0 L 306.25 0 L 306.25 13.332031 L 300 13.332031 Z M 300 0 "/>
<path style=" stroke:none;fill-rule:nonzero;fill:rgb(50.196078%,0%,50.196078%);fill-opacity:1;" d="M 300 13.332031 L 306.25 13.332031 L 306.25 26.664062 L 300 26.664062 Z M 300 13.332031 "/>
<path style=" stroke:none;fill-rule:nonzero;fill:rgb(100%,100%,100%);fill-opacity:1;" d="M 300 26.667969 L 306.25 26.667969 L 306.25 40 L 300 40 Z M 300 26.667969 "/>
<path style=" stroke:none;fill-rule:nonzero;fill:rgb(100%,100%,100%);fill-opacity:1;" d="M 306.25 0 L 312.5 0 L 312.5 13.332031 L 306.25 13.332031 Z M 306.25 0 "/>
<path style=" stroke:none;fill-rule:nonzero;fill:rgb(50.196078%,0%,50.196078%);fill-opacity:1;" d="M 306.25 13.332031 L 312.5 13.332031 L 312.5 26.664062 L 306.25 26.664062 Z M 306.25 13.332031 "/>
<path style=" stroke:none;fill-rule:nonzero;fill:rgb(100%,100%,100%);fill-opacity:1;" d="M 306.25 26.667969 L 312.5 26.667969 L 312.5 40 L 306.25 40 Z M 306.25 26.667969 "/>
<path style=" stroke:none;fill-rule:nonzero;fill:rgb(0%,0%,0%);fill-opacity:1;" d="M 312.5 0 L 318.75 0 L 318.75 13.332031 L 312.5 13.332031 Z M 312.5 0 "/>
<path style=" stroke:none;fill-rule:nonzero;fill:rgb(50.196078%,0%,50.196078%);fill-opacity:1;" d="M 312.5 13.332031 L 318.75 13.332031 L 318.75 26.664062 L 312.5 26.664062 Z M 312.5 13.332031 "/>
<path style=" stroke:none;fill-rule:nonzero;fill:rgb(0%,0%,0%);fill-opacity:1;" d="M 312.5 26.667969 L 318.75 26.667969 L 318.75 40 L 312.5 40 Z M 312.5 26.667969 "/>
<path style=" stroke:none;fill-rule:nonzero;fill:rgb(100%,100%,100%);fill-opacity:1;" d="M 318.75 0 L 320 0 L 320 13.332031 L 318.75 13.332031 Z M 318.75 0 "/>
<path style=" stroke:none;fill-rule:nonzero;fill:rgb(50.196078%,0%,50.196078%);fill-opacity:1;" d="M 318.75 13.332031 L 320 13.332031 L 320 26.664062 L 318.75 26.664062 Z M 318.75 13.332031 "/>
<path style=" stroke:none;fill-rule:nonzero;fill:rgb(0%,0%,0%);fill-opacity:1;" d="M 318.75 26.667969 L 320 26.667969 L 320 40 L 318.75 40 Z M 318.75 26.667969 "/>
<path style=" stroke:none;fill-rule:nonzero;fill:rgb(100%,100%,100%);fill-opacity:1;" d="M 320 0 L 324.445312 0 L 324.445312 13.332031 L 320 13.332031 Z M 320 0 "/>
<path style=" stroke:none;fill-rule:nonzero;fill:rgb(100%,100%,0%);fill-opacity:1;" d="M 320 13.332031 L 324.445312 13.332031 L 324.445312 26.664062 L 320 26.664062 Z M 320 13.332031 "/>
<path style=" stroke:none;fill-rule:nonzero;fill:rgb(0%,0%,0%);fill-opacity:1;" d="M 320 26.667969 L 324.445312 26.667969 L 324.445312 40 L 320 40 Z M 320 26.667969 "/>
<path style=" stroke:none;fill-rule:nonzero;fill:rgb(100%,100%,100%);fill-opacity:1;" d="M 324.445312 0 L 325 0 L 325 20 L 324.445312 20 Z M 324.445312 0 "/>
<path style=" stroke:none;fill-rule:nonzero;fill:rgb(0%,0%,0%);fill-opacity:1;" d="M 324.445312 20 L 325 20 L 325 40 L 324.445312 40 Z M 324.445312 20 "/>
<path style=" stroke:none;fill-rule:nonzero;fill:rgb(0%,0%,0%);fill-opacity:1;" d="M 325 0 L 328.890625 0 L 328.890625 20 L 325 20 Z M 325 0 "/>
<path style=" stroke:none;fill-rule:nonzero;fill:rgb(100%,100%,100%);fill-opacity:1;" d="M 325 20 L 328.890625 20 L 328.890625 40 L 325 40 Z M 325 20 "/>
<path style=" stroke:none;fill-rule:nonzero;fill:rgb(0%,0%,0%);fill-opacity:1;" d="M 328.890625 0 L 331.25 0 L 331.25 13.332031 L 328.890625 13.332031 Z M 328.890625 0 "/>
<path style=" stroke:none;fill-rule:nonzero;fill:rgb(100%,75.294118%,79.607843%);fill-opacity:1;" d="M 328.890625 13.332031 L 331.25 13.332031 L 331.25 26.664062 L 328.890625 26.664062 Z M 328.890625 13.332031 "/>
<path style=" stroke:none;fill-rule:nonzero;fill:rgb(100%,100%,100%);fill-opacity:1;" d="M 328.890625 26.667969 L 331.25 26.667969 L 331.25 40 L 328.890625 40 Z M 328.890625 26.667969 "/>
<path style=" stroke:none;fill-rule:nonzero;fill:rgb(100%,100%,100%);fill-opacity:1;" d="M 331.25 0 L 333.332031 0 L 333.332031 13.332031 L 331.25 13.332031 Z M 331.25 0 "/>
<path style=" stroke:none;fill-rule:nonzero;fill:rgb(100%,75.294118%,79.607843%);fill-opacity:1;" d="M 331.25 13.332031 L 333.332031 13.332031 L 333.332031 26.664062 L 331.25 26.664062 Z M 331.25 13.332031 "/>
<path style=" stroke:none;fill-rule:nonzero;fill:rgb(100%,100%,100%);fill-opacity:1;" d="M 331.25 26.667969 L 333.332031 26.667969 L 333.332031 40 L 331.25 40 Z M 331.25 26.667969 "/>
<path style=" stroke:none;fill-rule:nonzero;fill:rgb(100%,100%,100%);fill-opacity:1;" d="M 333.332031 0 L 337.5 0 L 337.5 13.332031 L 333.332031 13.332031 Z M 333.332031 0 "/>
<path style=" stroke:none;fill-rule:nonzero;fill:rgb(100%,100%,0%);fill-opacity:1;" d="M 333.332031 13.332031 L 337.5 13.332031 L 337.5 26.664062 L 333.332031 26.664062 Z M 333.332031 13.332031 "/>
<path style=" stroke:none;fill-rule:nonzero;fill:rgb(100%,100%,100%);fill-opacity:1;" d="M 333.332031 26.667969 L 337.5 26.667969 L 337.5 40 L 333.332031 40 Z M 333.332031 26.667969 "/>
<path style=" stroke:none;fill-rule:nonzero;fill:rgb(0%,0%,0%);fill-opacity:1;" d="M 337.5 0 L 337.777344 0 L 337.777344 13.332031 L 337.5 13.332031 Z M 337.5 0 "/>
<path style=" stroke:none;fill-rule:nonzero;fill:rgb(100%,100%,0%);fill-opacity:1;" d="M 337.5 13.332031 L 337.777344 13.332031 L 337.777344 26.664062 L 337.5 26.664062 Z M 337.5 13.332031 "/>
<path style=" stroke:none;fill-rule:nonzero;fill:rgb(0%,0%,0%);fill-opacity:1;" d="M 337.5 26.667969 L 337.777344 26.667969 L 337.777344 40 L 337.5 40 Z M 337.5 26.667969 "/>
<path style=" stroke:none;fill-rule:nonzero;fill:rgb(0%,0%,0%);fill-opacity:1;" d="M 337.777344 0 L 342.222656 0 L 342.222656 20 L 337.777344 20 Z M 337.777344 0 "/>
<path style=" stroke:none;fill-rule:nonzero;fill:rgb(0%,0%,0%);fill-opacity:1;" d="M 337.777344 20 L 342.222656 20 L 342.222656 40 L 337.777344 40 Z M 337.777344 20 "/>
<path style=" stroke:none;fill-rule:nonzero;fill:rgb(0%,0%,0%);fill-opacity:1;" d="M 342.222656 0 L 343.75 0 L 343.75 13.332031 L 342.222656 13.332031 Z M 342.222656 0 "/>
<path style=" stroke:none;fill-rule:nonzero;fill:rgb(100%,75.294118%,79.607843%);fill-opacity:1;" d="M 342.222656 13.332031 L 343.75 13.332031 L 343.75 26.664062 L 342.222656 26.664062 Z M 342.222656 13.332031 "/>
<path style=" stroke:none;fill-rule:nonzero;fill:rgb(0%,0%,0%);fill-opacity:1;" d="M 342.222656 26.667969 L 343.75 26.667969 L 343.75 40 L 342.222656 40 Z M 342.222656 26.667969 "/>
<path style=" stroke:none;fill-rule:nonzero;fill:rgb(100%,100%,100%);fill-opacity:1;" d="M 343.75 0 L 346.667969 0 L 346.667969 13.332031 L 343.75 13.332031 Z M 343.75 0 "/>
<path style=" stroke:none;fill-rule:nonzero;fill:rgb(100%,75.294118%,79.607843%);fill-opacity:1;" d="M 343.75 13.332031 L 346.667969 13.332031 L 346.667969 26.664062 L 343.75 26.664062 Z M 343.75 13.332031 "/>
<path style=" stroke:none;fill-rule:nonzero;fill:rgb(0%,0%,0%);fill-opacity:1;" d="M 343.75 26.667969 L 346.667969 26.667969 L 346.667969 40 L 343.75 40 Z M 343.75 26.667969 "/>
<path style=" stroke:none;fill-rule:nonzero;fill:rgb(100%,100%,100%);fill-opacity:1;" d="M 346.667969 0 L 350 0 L 350 13.332031 L 346.667969 13.332031 Z M 346.667969 0 "/>
<path style=" stroke:none;fill-rule:nonzero;fill:rgb(100%,100%,0%);fill-opacity:1;" d="M 346.667969 13.332031 L 350 13.332031 L 350 26.664062 L 346.667969 26.664062 Z M 346.667969 13.332031 "/>
<path style=" stroke:none;fill-rule:nonzero;fill:rgb(0%,0%,0%);fill-opacity:1;" d="M 346.667969 26.667969 L 350 26.667969 L 350 40 L 346.667969 40 Z M 346.667969 26.667969 "/>
<path style=" stroke:none;fill-rule:nonzero;fill:rgb(0%,0%,0%);fill-opacity:1;" d="M 350 0 L 351.109375 0 L 351.109375 13.332031 L 350 13.332031 Z M 350 0 "/>
<path style=" stroke:none;fill-rule:nonzero;fill:rgb(100%,100%,0%);fill-opacity:1;" d="M 350 13.332031 L 351.109375 13.332031 L 351.109375 26.664062 L 350 26.664062 Z M 350 13.332031 "/>
<path style=" stroke:none;fill-rule:nonzero;fill:rgb(100%,100%,100%);fill-opacity:1;" d="M 350 26.667969 L 351.109375 26.667969 L 351.109375 40 L 350 40 Z M 350 26.667969 "/>
<path style=" stroke:none;fill-rule:nonzero;fill:rgb(0%,0%,0%);fill-opacity:1;" d="M 351.109375 0 L 355.554688 0 L 355.554688 20 L 351.109375 20 Z M 351.109375 0 "/>
<path style=" stroke:none;fill-rule:nonzero;fill:rgb(100%,100%,100%);fill-opacity:1;" d="M 351.109375 20 L 355.554688 20 L 355.554688 40 L 351.109375 40 Z M 351.109375 20 "/>
<path style=" stroke:none;fill-rule:nonzero;fill:rgb(0%,0%,0%);fill-opacity:1;" d="M 355.554688 0 L 356.25 0 L 356.25 13.332031 L 355.554688 13.332031 Z M 355.554688 0 "/>
<path style=" stroke:none;fill-rule:nonzero;fill:rgb(100%,75.294118%,79.607843%);fill-opacity:1;" d="M 355.554688 13.332031 L 356.25 13.332031 L 356.25 26.664062 L 355.554688 26.664062 Z M 355.554688 13.332031 "/>
<path style=" stroke:none;fill-rule:nonzero;fill:rgb(100%,100%,100%);fill-opacity:1;" d="M 355.554688 26.667969 L 356.25 26.667969 L 356.25 40 L 355.554688 40 Z M 355.554688 26.667969 "/>
<path style=" stroke:none;fill-rule:nonzero;fill:rgb(100%,100%,100%);fill-opacity:1;" d="M 356.25 0 L 360 0 L 360 13.332031 L 356.25 13.332031 Z M 356.25 0 "/>
<path style=" stroke:none;fill-rule:nonzero;fill:rgb(100%,75.294118%,79.607843%);fill-opacity:1;" d="M 356.25 13.332031 L 360 13.332031 L 360 26.664062 L 356.25 26.664062 Z M 356.25 13.332031 "/>
<path style=" stroke:none;fill-rule:nonzero;fill:rgb(100%,100%,100%);fill-opacity:1;" d="M 356.25 26.667969 L 360 26.667969 L 360 40 L 356.25 40 Z M 356.25 26.667969 "/>
<path style=" stroke:none;fill-rule:nonzero;fill:rgb(100%,100%,100%);fill-opacity:1;" d="M 360 0 L 362.5 0 L 362.5 13.332031 L 360 13.332031 Z M 360 0 "/>
<path style=" stroke:none;fill-rule:nonzero;fill:rgb(50.196078%,0%,50.196078%);fill-opacity:1;" d="M 360 13.332031 L 362.5 13.332031 L 362.5 26.664062 L 360 26.664062 Z M 360 13.332031 "/>
<path style=" stroke:none;fill-rule:nonzero;fill:rgb(100%,100%,100%);fill-opacity:1;" d="M 360 26.667969 L 362.5 26.667969 L 362.5 40 L 360 40 Z M 360 26.667969 "/>
<path style=" stroke:none;fill-rule:nonzero;fill:rgb(0%,0%,0%);fill-opacity:1;" d="M 362.5 0 L 368.75 0 L 368.75 13.332031 L 362.5 13.332031 Z M 362.5 0 "/>
<path style=" stroke:none;fill-rule:nonzero;fill:rgb(50.196078%,0%,50.196078%);fill-opacity:1;" d="M 362.5 13.332031 L 368.75 13.332031 L 368.75 26.664062 L 362.5 26.664062 Z M 362.5 13.332031 "/>
<path style=" stroke:none;fill-rule:nonzero;fill:rgb(0%,0%,0%);fill-opacity:1;" d="M 362.5 26.667969 L 368.75 26.667969 L 368.75 40 L 362.5 40 Z M 362.5 26.667969 "/>
<path style=" stroke:none;fill-rule:nonzero;fill:rgb(100%,100%,100%);fill-opacity:1;" d="M 368.75 0 L 375 0 L 375 13.332031 L 368.75 13.332031 Z M 368.75 0 "/>
<path style=" stroke:none;fill-rule:nonzero;fill:rgb(50.196078%,0%,50.196078%);fill-opacity:1;" d="M 368.75 13.332031 L 375 13.332031 L 375 26.664062 L 368.75 26.664062 Z M 368.75 13.332031 "/>
<path style=" stroke:none;fill-rule:nonzero;fill:rgb(0%,0%,0%);fill-opacity:1;" d="M 368.75 26.667969 L 375 26.667969 L 375 40 L 368.75 40 Z M 368.75 26.667969 "/>
<path style=" stroke:none;fill-rule:nonzero;fill:rgb(0%,0%,0%);fill-opacity:1;" d="M 375 0 L 381.25 0 L 381.25 13.332031 L 375 13.332031 Z M 375 0 "/>
<path style=" stroke:none;fill-rule:nonzero;fill:rgb(50.196078%,0%,50.196078%);fill-opacity:1;" d="M 375 13.332031 L 381.25 13.332031 L 381.25 26.664062 L 375 26.664062 Z M 375 13.332031 "/>
<path style=" stroke:none;fill-rule:nonzero;fill:rgb(100%,100%,100%);fill-opacity:1;" d="M 375 26.667969 L 381.25 26.667969 L 381.25 40 L 375 40 Z M 375 26.667969 "/>
<path style=" stroke:none;fill-rule:nonzero;fill:rgb(100%,100%,100%);fill-opacity:1;" d="M 381.25 0 L 387.5 0 L 387.5 13.332031 L 381.25 13.332031 Z M 381.25 0 "/>
<path style=" stroke:none;fill-rule:nonzero;fill:rgb(50.196078%,0%,50.196078%);fill-opacity:1;" d="M 381.25 13.332031 L 387.5 13.332031 L 387.5 26.664062 L 381.25 26.664062 Z M 381.25 13.332031 "/>
<path style=" stroke:none;fill-rule:nonzero;fill:rgb(100%,100%,100%);fill-opacity:1;" d="M 381.25 26.667969 L 387.5 26.667969 L 387.5 40 L 381.25 40 Z M 381.25 26.667969 "/>
<path style=" stroke:none;fill-rule:nonzero;fill:rgb(0%,0%,0%);fill-opacity:1;" d="M 387.5 0 L 393.75 0 L 393.75 13.332031 L 387.5 13.332031 Z M 387.5 0 "/>
<path style=" stroke:none;fill-rule:nonzero;fill:rgb(50.196078%,0%,50.196078%);fill-opacity:1;" d="M 387.5 13.332031 L 393.75 13.332031 L 393.75 26.664062 L 387.5 26.664062 Z M 387.5 13.332031 "/>
<path style=" stroke:none;fill-rule:nonzero;fill:rgb(0%,0%,0%);fill-opacity:1;" d="M 387.5 26.667969 L 393.75 26.667969 L 393.75 40 L 387.5 40 Z M 387.5 26.667969 "/>
<path style=" stroke:none;fill-rule:nonzero;fill:rgb(100%,100%,100%);fill-opacity:1;" d="M 393.75 0 L 400 0 L 400 13.332031 L 393.75 13.332031 Z M 393.75 0 "/>
<path style=" stroke:none;fill-rule:nonzero;fill:rgb(50.196078%,0%,50.196078%);fill-opacity:1;" d="M 393.75 13.332031 L 400 13.332031 L 400 26.664062 L 393.75 26.664062 Z M 393.75 13.332031 "/>
<path style=" stroke:none;fill-rule:nonzero;fill:rgb(0%,0%,0%);fill-opacity:1;" d="M 393.75 26.667969 L 400 26.667969 L 400 40 L 393.75 40 Z M 393.75 26.667969 "/>
</g>
</svg>
