<?xml version="1.0" encoding="UTF-8" standalone="no"?>
<!-- Created with Inkscape (http://www.inkscape.org/) -->

<svg
   xmlns:dc="http://purl.org/dc/elements/1.1/"
   xmlns:cc="http://creativecommons.org/ns#"
   xmlns:rdf="http://www.w3.org/1999/02/22-rdf-syntax-ns#"
   xmlns:svg="http://www.w3.org/2000/svg"
   xmlns="http://www.w3.org/2000/svg"
   xmlns:sodipodi="http://sodipodi.sourceforge.net/DTD/sodipodi-0.dtd"
   xmlns:inkscape="http://www.inkscape.org/namespaces/inkscape"
   width="1130.6305"
   height="482.92157"
   id="svg2"
   version="1.1"
   inkscape:version="0.48.4 r9939"
   sodipodi:docname="graph.pdf">
  <defs
     id="defs4" />
  <sodipodi:namedview
     id="base"
     pagecolor="#ffffff"
     bordercolor="#666666"
     borderopacity="1.0"
     inkscape:pageopacity="0.0"
     inkscape:pageshadow="2"
     inkscape:zoom="0.175"
     inkscape:cx="602.76244"
     inkscape:cy="411.97217"
     inkscape:document-units="px"
     inkscape:current-layer="layer1"
     showgrid="false"
     inkscape:window-width="1920"
     inkscape:window-height="1031"
     inkscape:window-x="0"
     inkscape:window-y="0"
     inkscape:window-maximized="1"
     fit-margin-top="0"
     fit-margin-left="0"
     fit-margin-right="0"
     fit-margin-bottom="0" />
  <metadata
     id="metadata7">
    <rdf:RDF>
      <cc:Work
         rdf:about="">
        <dc:format>image/svg+xml</dc:format>
        <dc:type
           rdf:resource="http://purl.org/dc/dcmitype/StillImage" />
        <dc:title></dc:title>
      </cc:Work>
    </rdf:RDF>
  </metadata>
  <g
     inkscape:label="Layer 1"
     inkscape:groupmode="layer"
     id="layer1"
     transform="translate(182.05667,-1858.5938)">
    <g
       id="g4644">
      <path
         id="path4489"
         d="m 306.35148,2265.8472 0,-15.5 70.5,0 70.5,0 0,15.5 0,15.5 -70.5,0 -70.5,0 0,-15.5 z"
         style="fill:#9800fe"
         inkscape:connector-curvature="0" />
      <path
         id="path4475"
         d="m 222.35148,2265.8472 0,-15.5 41.5,0 41.5,0 0,15.5 0,15.5 -41.5,0 -41.5,0 0,-15.5 z"
         style="fill:#fe0000"
         inkscape:connector-curvature="0" />
      <path
         id="path4461"
         d="m 618.35148,2265.8472 0,-15.5 13.5,0 13.5,0 0,15.5 0,15.5 -13.5,0 -13.5,0 0,-15.5 z"
         style="fill:#00fe00"
         inkscape:connector-curvature="0" />
      <path
         id="path4445"
         d="m 448.35148,2265.8472 0,-15.5 56,0 56,0 0,15.5 0,15.5 -56,0 -56,0 0,-15.5 z"
         style="fill:#0000fe"
         inkscape:connector-curvature="0" />
      <path
         id="path4411"
         d="m 561.35148,2265.8475 0,-15.5 28,0 28,0 0,15.5 0,15.5 -28,0 -28,0 z"
         style="fill:#264d12"
         inkscape:connector-curvature="0" />
    </g>
    <g
       id="g4637">
      <path
         id="path4487"
         d="m 405.35148,2214.8472 0,-15.5 14,0 14,0 0,15.5 0,15.5 -14,0 -14,0 0,-15.5 z"
         style="fill:#9800fe"
         inkscape:connector-curvature="0" />
      <path
         id="path4473"
         d="m 377.35148,2214.8472 0,-15.5 13.5,0 13.5,0 0,15.5 0,15.5 -13.5,0 -13.5,0 0,-15.5 z"
         style="fill:#fe0000"
         inkscape:connector-curvature="0" />
      <path
         id="path4459"
         d="m 717.35148,2214.8472 0,-15.5 41.5,0 41.5,0 0,15.5 0,15.5 -41.5,0 -41.5,0 0,-15.5 z"
         style="fill:#00fe00"
         inkscape:connector-curvature="0" />
      <path
         id="path4443"
         d="m 434.35148,2214.8472 0,-15.5 70,0 70,0 0,15.5 0,15.5 -70,0 -70,0 0,-15.5 z"
         style="fill:#0000fe"
         inkscape:connector-curvature="0" />
      <path
         id="path4409"
         d="m 575.35148,2214.8473 0,-15.5 70.5,0 70.5,0 0,15.5 0,15.5 -70.5,0 -70.5,0 z"
         style="fill:#264d12"
         inkscape:connector-curvature="0" />
    </g>
    <g
       id="g4630">
      <path
         id="path4485"
         d="m 363.35148,2164.8472 0,-15.5 42,0 42,0 0,15.5 0,15.5 -42,0 -42,0 0,-15.5 z"
         style="fill:#9800fe"
         inkscape:connector-curvature="0" />
      <path
         id="path4471"
         d="m 335.35148,2164.8472 0,-15.5 13.5,0 13.5,0 0,15.5 0,15.5 -13.5,0 -13.5,0 0,-15.5 z"
         style="fill:#fe0000"
         inkscape:connector-curvature="0" />
      <path
         id="path4457"
         d="m 731.35148,2164.8472 0,-15.5 13.5,0 13.5,0 0,15.5 0,15.5 -13.5,0 -13.5,0 0,-15.5 z"
         style="fill:#00fe00"
         inkscape:connector-curvature="0" />
      <path
         id="path4441"
         d="m 448.35148,2164.8472 0,-15.5 56,0 56,0 0,15.5 0,15.5 -56,0 -56,0 0,-15.5 z"
         style="fill:#0000fe"
         inkscape:connector-curvature="0" />
      <path
         id="path4407"
         d="m 561.35148,2164.8473 0,-15.5 84.5,0 84.5,0 0,15.5 0,15.5 -84.5,0 -84.5,0 z"
         style="fill:#264d12"
         inkscape:connector-curvature="0" />
    </g>
    <g
       id="g4623">
      <path
         id="path4483"
         d="m 420.35148,2113.8472 0,-15.5 27.5,0 27.5,0 0,15.5 0,15.5 -27.5,0 -27.5,0 0,-15.5 z"
         style="fill:#9800fe"
         inkscape:connector-curvature="0" />
      <path
         id="path4469"
         d="m 391.35148,2113.8472 0,-15.5 14,0 14,0 0,15.5 0,15.5 -14,0 -14,0 0,-15.5 z"
         style="fill:#fe0000"
         inkscape:connector-curvature="0" />
      <path
         id="path4455"
         d="m 759.35148,2113.8472 0,-15.5 28,0 28,0 0,15.5 0,15.5 -28,0 -28,0 0,-15.5 z"
         style="fill:#00fe00"
         inkscape:connector-curvature="0" />
      <path
         id="path4439"
         d="m 476.35148,2113.8472 0,-15.5 28,0 28,0 0,15.5 0,15.5 -28,0 -28,0 0,-15.5 z"
         style="fill:#0000fe"
         inkscape:connector-curvature="0" />
      <path
         id="path4405"
         d="m 533.35148,2113.8476 0,-15.5 112.5,0 112.5,0 0,15.5 0,15.5 -112.5,0 -112.5,0 z"
         style="fill:#264d12"
         inkscape:connector-curvature="0" />
    </g>
    <g
       id="g4618">
      <path
         id="path4481"
         d="m 179.35148,2062.8472 0,-15.5 155,0 155,0 0,15.5 0,15.5 -155,0 -155,0 0,-15.5 z"
         style="fill:#9800fe"
         inkscape:connector-curvature="0" />
      <path
         id="path4437"
         d="m 490.35148,2062.8472 0,-15.5 14,0 14,0 0,15.5 0,15.5 -14,0 -14,0 0,-15.5 z"
         style="fill:#0000fe"
         inkscape:connector-curvature="0" />
      <path
         id="path4403"
         d="m 519.35148,2062.8476 0,-15.5 41.5,0 41.5,0 0,15.5 0,15.5 -41.5,0 -41.5,0 z"
         style="fill:#264d12"
         inkscape:connector-curvature="0" />
    </g>
    <g
       id="g4612">
      <path
         id="path3081-1"
         d="m 306.35148,2011.8472 0,-15.5 70.5,0 70.5,0 0,15.5 0,15.5 -70.5,0 -70.5,0 0,-15.5 z"
         style="fill:#9800fe"
         inkscape:connector-curvature="0" />
      <path
         id="path4453"
         d="m 702.35148,2011.8472 0,-15.5 14,0 14,0 0,15.5 0,15.5 -14,0 -14,0 0,-15.5 z"
         style="fill:#00fe00"
         inkscape:connector-curvature="0" />
      <path
         id="path4435"
         d="m 448.35148,2011.8472 0,-15.5 56,0 56,0 0,15.5 0,15.5 -56,0 -56,0 0,-15.5 z"
         style="fill:#0000fe"
         inkscape:connector-curvature="0" />
      <path
         id="path4401"
         d="m 561.35148,2011.8479 0,-15.5 70,0 70,0 0,15.5 0,15.5 -70,0 -70,0 z"
         style="fill:#264d12"
         inkscape:connector-curvature="0" />
    </g>
    <g
       id="g4606">
      <path
         id="path4467"
         d="m 462.35148,1961.8472 0,-15.5 13.5,0 13.5,0 0,15.5 0,15.5 -13.5,0 -13.5,0 0,-15.5 z"
         style="fill:#fe0000"
         inkscape:connector-curvature="0" />
      <path
         id="path4451"
         d="m 660.35148,1961.8472 0,-15.5 112.5,0 112.5,0 0,15.5 0,15.5 -112.5,0 -112.5,0 0,-15.5 z"
         style="fill:#00fe00"
         inkscape:connector-curvature="0" />
      <path
         id="path3073-5"
         d="m 490.35148,1961.8472 0,-15.5 14,0 14,0 0,15.5 0,15.5 -14,0 -14,0 0,-15.5 z"
         style="fill:#0000fe"
         inkscape:connector-curvature="0" />
      <path
         id="path4399"
         d="m 519.35148,1961.8482 0,-15.5 70,0 70,0 0,15.5 0,15.5 -70,0 -70,0 z"
         style="fill:#264d12"
         inkscape:connector-curvature="0" />
    </g>
    <g
       id="g4601">
      <path
         id="path3077-3"
         d="m 476.35148,1910.8472 0,-15.5 13.5,0 13.5,0 0,15.5 0,15.5 -13.5,0 -13.5,0 0,-15.5 z"
         style="fill:#fe0000"
         inkscape:connector-curvature="0" />
      <path
         id="path3075-1"
         d="m 731.35148,1910.8472 0,-15.5 84,0 84,0 0,15.5 0,15.5 -84,0 -84,0 0,-15.5 z"
         style="fill:#00fe00"
         inkscape:connector-curvature="0" />
      <path
         id="path3071-2"
         d="m 504.35148,1910.8482 0,-15.5 113,0 113,0 0,15.5 0,15.5 -113,0 -113,0 z"
         style="fill:#264d12"
         inkscape:connector-curvature="0" />
    </g>
    <text
       xml:space="preserve"
       style="font-size:40px;font-style:normal;font-weight:normal;line-height:125%;letter-spacing:0px;word-spacing:0px;fill:#000000;fill-opacity:1;stroke:none;font-family:Sans"
       x="-139.28571"
       y="2060.9336"
       id="text4532"
       sodipodi:linespacing="125%"><tspan
         sodipodi:role="line"
         id="tspan4534"
         x="-139.28571"
         y="2060.9336"></tspan></text>
    <text
       xml:space="preserve"
       style="font-size:16px;font-style:normal;font-variant:normal;font-weight:normal;font-stretch:normal;text-align:start;line-height:125%;letter-spacing:0px;word-spacing:0px;writing-mode:lr-tb;text-anchor:start;fill:#000000;fill-opacity:1;stroke:none;font-family:Linux Libertine O;-inkscape-font-specification:Linux Libertine O"
       x="-74.913261"
       y="1907.9113"
       id="text4550"
       sodipodi:linespacing="125%"><tspan
         sodipodi:role="line"
         id="tspan4552"
         x="-74.913261"
         y="1907.9113"
         style="font-size:18px">I can make music with Tidal</tspan></text>
    <text
       xml:space="preserve"
       style="font-size:16px;font-style:normal;font-variant:normal;font-weight:normal;font-stretch:normal;text-align:start;line-height:89.99999762%;letter-spacing:0px;word-spacing:0px;writing-mode:lr-tb;text-anchor:start;fill:#000000;fill-opacity:1;stroke:none;font-family:Linux Libertine O;-inkscape-font-specification:Linux Libertine O"
       x="133.79834"
       y="1951.6858"
       id="text4554"
       sodipodi:linespacing="89.999998%"><tspan
         sodipodi:role="line"
         id="tspan4556"
         x="138.29834"
         y="1951.6858"
         style="font-size:18px;font-style:normal;font-variant:normal;font-weight:normal;font-stretch:normal;text-align:end;line-height:89.99999762%;writing-mode:lr-tb;text-anchor:end;font-family:Linux Libertine O;-inkscape-font-specification:Linux Libertine O">Tidal has the potential to help me be </tspan><tspan
         sodipodi:role="line"
         x="133.79834"
         y="1967.8857"
         style="font-size:18px;font-style:normal;font-variant:normal;font-weight:normal;font-stretch:normal;text-align:end;line-height:89.99999762%;writing-mode:lr-tb;text-anchor:end;font-family:Linux Libertine O;-inkscape-font-specification:Linux Libertine O"
         id="tspan5493">more creative</tspan></text>
    <text
       xml:space="preserve"
       style="font-size:16px;font-style:normal;font-variant:normal;font-weight:normal;font-stretch:normal;text-align:start;line-height:125%;letter-spacing:0px;word-spacing:0px;writing-mode:lr-tb;text-anchor:start;fill:#000000;fill-opacity:1;stroke:none;font-family:Linux Libertine O;-inkscape-font-specification:Linux Libertine O"
       x="-49.996857"
       y="2011.6785"
       id="text4558"
       sodipodi:linespacing="125%"><tspan
         sodipodi:role="line"
         id="tspan4560"
         x="-49.996857"
         y="2011.6785"
         style="font-size:18px">Tidal is difficult to install</tspan></text>
    <text
       xml:space="preserve"
       style="font-size:16px;font-style:normal;font-variant:normal;font-weight:normal;font-stretch:normal;text-align:start;line-height:125%;letter-spacing:0px;word-spacing:0px;writing-mode:lr-tb;text-anchor:start;fill:#000000;fill-opacity:1;stroke:none;font-family:Linux Libertine O;-inkscape-font-specification:Linux Libertine O"
       x="-42.362606"
       y="2063.5532"
       id="text4562"
       sodipodi:linespacing="125%"><tspan
         sodipodi:role="line"
         id="tspan4564"
         x="-42.362606"
         y="2063.5532"
         style="font-size:18px">Tidal is difficult to learn</tspan></text>
    <text
       xml:space="preserve"
       style="font-size:16px;font-style:normal;font-variant:normal;font-weight:normal;font-stretch:normal;text-align:start;line-height:125%;letter-spacing:0px;word-spacing:0px;writing-mode:lr-tb;text-anchor:start;fill:#000000;fill-opacity:1;stroke:none;font-family:Linux Libertine O;-inkscape-font-specification:Linux Libertine O"
       x="-153.01028"
       y="2113.3757"
       id="text4566"
       sodipodi:linespacing="125%"><tspan
         sodipodi:role="line"
         id="tspan4568"
         x="-153.01028"
         y="2113.3757"
         style="font-size:18px">I can learn Tidal just by playing with it</tspan></text>
    <text
       xml:space="preserve"
       style="font-size:16px;font-style:normal;font-variant:normal;font-weight:normal;font-stretch:normal;text-align:start;line-height:89.99999762%;letter-spacing:0px;word-spacing:0px;writing-mode:lr-tb;text-anchor:start;fill:#000000;fill-opacity:1;stroke:none;font-family:Linux Libertine O;-inkscape-font-specification:Linux Libertine O"
       x="134.03403"
       y="2159.1841"
       id="text4570"
       sodipodi:linespacing="89.999998%"><tspan
         sodipodi:role="line"
         id="tspan4572"
         x="134.03403"
         y="2159.1841"
         style="font-size:18px;font-style:normal;font-variant:normal;font-weight:normal;font-stretch:normal;text-align:end;line-height:89.99999762%;writing-mode:lr-tb;text-anchor:end;font-family:Linux Libertine O;-inkscape-font-specification:Linux Libertine O">I would find Tidal much easier to use</tspan><tspan
         sodipodi:role="line"
         x="134.03403"
         y="2175.384"
         style="font-size:18px;font-style:normal;font-variant:normal;font-weight:normal;font-stretch:normal;text-align:end;line-height:89.99999762%;writing-mode:lr-tb;text-anchor:end;font-family:Linux Libertine O;-inkscape-font-specification:Linux Libertine O"
         id="tspan5477">if the documentation was clearer</tspan></text>
    <text
       xml:space="preserve"
       style="font-size:16px;font-style:normal;font-variant:normal;font-weight:normal;font-stretch:normal;text-align:start;line-height:89.99999762%;letter-spacing:0px;word-spacing:0px;writing-mode:lr-tb;text-anchor:start;fill:#000000;fill-opacity:1;stroke:none;font-family:Linux Libertine O;-inkscape-font-specification:Linux Libertine O"
       x="133.79834"
       y="2209.0249"
       id="text4574"
       sodipodi:linespacing="89.999998%"><tspan
         sodipodi:role="line"
         x="138.29834"
         y="2209.0249"
         style="font-size:18px;font-style:normal;font-variant:normal;font-weight:normal;font-stretch:normal;text-align:end;line-height:89.99999762%;writing-mode:lr-tb;text-anchor:end;font-family:Linux Libertine O;-inkscape-font-specification:Linux Libertine O"
         id="tspan5487">Tidal has changed the way I think about </tspan><tspan
         sodipodi:role="line"
         x="133.79834"
         y="2225.2249"
         style="font-size:18px;font-style:normal;font-variant:normal;font-weight:normal;font-stretch:normal;text-align:end;line-height:89.99999762%;writing-mode:lr-tb;text-anchor:end;font-family:Linux Libertine O;-inkscape-font-specification:Linux Libertine O"
         id="tspan5491">making music</tspan></text>
    <text
       xml:space="preserve"
       style="font-size:16px;font-style:normal;font-variant:normal;font-weight:normal;font-stretch:normal;text-align:start;line-height:89.99999762%;letter-spacing:0px;word-spacing:0px;writing-mode:lr-tb;text-anchor:start;fill:#000000;fill-opacity:1;stroke:none;font-family:Linux Libertine O;-inkscape-font-specification:Linux Libertine O"
       x="134.33356"
       y="2260.9355"
       id="text4578"
       sodipodi:linespacing="89.999998%"><tspan
         sodipodi:role="line"
         id="tspan4580"
         x="134.33356"
         y="2260.9355"
         style="font-size:18px;font-style:normal;font-variant:normal;font-weight:normal;font-stretch:normal;text-align:end;line-height:89.99999762%;writing-mode:lr-tb;text-anchor:end;font-family:Linux Libertine O;-inkscape-font-specification:Linux Libertine O">I need theoretical understanding of Tidal's</tspan><tspan
         sodipodi:role="line"
         x="134.33356"
         y="2277.1355"
         style="font-size:18px;font-style:normal;font-variant:normal;font-weight:normal;font-stretch:normal;text-align:end;line-height:89.99999762%;writing-mode:lr-tb;text-anchor:end;font-family:Linux Libertine O;-inkscape-font-specification:Linux Libertine O"
         id="tspan5475">implementation in order to use it for music</tspan></text>
    <g
       id="g4690"
       transform="matrix(1.2094769,0,0,1.2094769,156.64616,-514.54006)">
      <path
         inkscape:connector-curvature="0"
         id="path4477"
         d="m 187.72202,2353.3972 0,-8 8,0 8,0 0,8 0,8 -8,0 -8,0 0,-8 z"
         style="fill:#fe0000" />
      <text
         sodipodi:linespacing="125%"
         id="text4651"
         y="2357.0771"
         x="211.12189"
         style="font-size:16px;font-style:normal;font-variant:normal;font-weight:normal;font-stretch:normal;text-align:start;line-height:125%;letter-spacing:0px;word-spacing:0px;writing-mode:lr-tb;text-anchor:start;fill:#000000;fill-opacity:1;stroke:none;font-family:Linux Libertine O;-inkscape-font-specification:Linux Libertine O"
         xml:space="preserve"><tspan
           y="2357.0771"
           x="211.12189"
           id="tspan4653"
           sodipodi:role="line">Strongly disagree</tspan></text>
    </g>
    <flowRoot
       xml:space="preserve"
       id="flowRoot4655"
       style="font-size:16px;font-style:normal;font-variant:normal;font-weight:normal;font-stretch:normal;text-align:start;line-height:125%;letter-spacing:0px;word-spacing:0px;writing-mode:lr-tb;text-anchor:start;fill:#000000;fill-opacity:1;stroke:none;font-family:Linux Libertine O;-inkscape-font-specification:Linux Libertine O"><flowRegion
         id="flowRegion4657"><rect
           id="rect4659"
           width="291.93408"
           height="52.527931"
           x="522.24884"
           y="2336.2661" /></flowRegion><flowPara
         id="flowPara4661"></flowPara></flowRoot>    <g
       id="g4685"
       transform="matrix(1.2094769,0,0,1.2094769,192.93047,-514.54006)">
      <path
         inkscape:connector-curvature="0"
         id="path4463"
         d="m 325.10277,2353.3972 0,-8 8,0 8,0 0,8 0,8 -8,0 -8,0 0,-8 z"
         style="fill:#00fe00" />
      <text
         sodipodi:linespacing="125%"
         id="text4663"
         y="2357.0771"
         x="347.49246"
         style="font-size:16px;font-style:normal;font-variant:normal;font-weight:normal;font-stretch:normal;text-align:start;line-height:125%;letter-spacing:0px;word-spacing:0px;writing-mode:lr-tb;text-anchor:start;fill:#000000;fill-opacity:1;stroke:none;font-family:Linux Libertine O;-inkscape-font-specification:Linux Libertine O"
         xml:space="preserve"><tspan
           id="tspan4667"
           y="2357.0771"
           x="347.49246"
           sodipodi:role="line">Strongly agree</tspan></text>
    </g>
    <path
       style="fill:none;stroke:#000000;stroke-width:2.5;stroke-linecap:butt;stroke-linejoin:miter;stroke-miterlimit:4;stroke-opacity:1;stroke-dasharray:none"
       d="m 155.6041,1858.606 0,449.5179 792.96975,0"
       id="path5465"
       inkscape:connector-curvature="0" />
    <flowRoot
       xml:space="preserve"
       id="flowRoot5467"
       style="font-size:16px;font-style:normal;font-variant:normal;font-weight:normal;font-stretch:normal;text-align:start;line-height:125%;letter-spacing:0px;word-spacing:0px;writing-mode:lr-tb;text-anchor:start;fill:#000000;fill-opacity:1;stroke:none;font-family:Linux Libertine O;-inkscape-font-specification:Linux Libertine O"><flowRegion
         id="flowRegion5469"><rect
           id="rect5471"
           width="6.0609155"
           height="26.263966"
           x="-425.27423"
           y="2271.6162" /></flowRegion><flowPara
         id="flowPara5473"></flowPara></flowRoot>    <flowRoot
       xml:space="preserve"
       id="flowRoot5495"
       style="font-size:16px;font-style:normal;font-variant:normal;font-weight:normal;font-stretch:normal;text-align:start;line-height:125%;letter-spacing:0px;word-spacing:0px;writing-mode:lr-tb;text-anchor:start;fill:#000000;fill-opacity:1;stroke:none;font-family:Linux Libertine O;-inkscape-font-specification:Linux Libertine O"><flowRegion
         id="flowRegion5497"><rect
           id="rect5499"
           width="512.14734"
           height="619.22351"
           x="-324.25897"
           y="1828.1593" /></flowRegion><flowPara
         id="flowPara5501"></flowPara></flowRoot>  </g>
</svg>
