<?xml version="1.0" standalone="no"?>
<!DOCTYPE svg PUBLIC "-//W3C//DTD SVG 1.1//EN" "http://www.w3.org/Graphics/SVG/1.1/DTD/svg11.dtd" >
<!--
2003-08-29: Created.
2004-07-25: v(1.0) release candidate
2005-12-28: v(1.1.0) stable
2006-01-01: v(2.0.0) stable
2006-09-05: v(2.2.0) stable
2006-12-04: v(2.3.0) stable
2007-03-11: v(2.4.0) stable
2007-12-00: v(2.7.0) stable
2008-06-00: v(2.8.14) stable

-->
<svg>
<metadata>
Created by FontForge 20120601 at Mon Jul  2 00:09:40 2012
 By Gillian Tiefenlicht
Linux Libertine by Philipp H. Poll,
Open Font under Terms of following Free Software Licenses:
GPL (General Public License) with font-exception and OFL (Open Font License).
Created with FontForge (http://fontforge.sf.net)
Sept 2003, 2004, 2005, 2006, 2007, 2008, 2009, 2010, 2011,2012
</metadata>
<defs>
<font id="LinBiolinumOB" horiz-adv-x="0" >
  <font-face 
    font-family="Linux Biolinum O"
    font-weight="700"
    font-stretch="normal"
    units-per-em="1000"
    panose-1="2 0 8 3 0 0 0 0 0 0"
    ascent="754"
    descent="-246"
    x-height="432"
    cap-height="648"
    bbox="-1082 -267 6171 1022.8"
    underline-thickness="40"
    underline-position="-98"
    stemh="50"
    stemv="132"
    unicode-range="U+0020-FFFD"
  />
<missing-glyph horiz-adv-x="500" 
d="M50 603v-508l170 254zM80 50h340l-170 254zM280 349l170 -254v508zM250 394l170 253h-340zM0 0v698h500v-698h-500z" />
    <glyph glyph-name="ellipsis" unicode="&#x2e;&#x2e;&#x2e;" horiz-adv-x="749" 
d="M54 48v5c13 33 31 53 69 68h4c37 -13 56 -32 69 -68v-5c-14 -41 -33 -59 -69 -68h-4c-41 9 -58 26 -69 68zM319 48v5c13 33 31 53 69 68h4c37 -13 56 -32 69 -68v-5c-14 -41 -33 -59 -69 -68h-4c-41 9 -58 26 -69 68zM583 48v5c13 33 31 53 69 68h4c37 -13 56 -32 69 -68
v-5c-14 -41 -33 -59 -69 -68h-4c-41 9 -58 26 -69 68z" />
    <glyph glyph-name="exclamdbl" unicode="&#x21;&#x21;" horiz-adv-x="411" 
d="M316 660c30 0 72 -23 72 -73c0 -65 -18 -107 -29 -193c-14 -108 -15 -168 -17 -182c-1 -11 -15 -20 -26 -20c-12 0 -24 7 -25 13c-2 21 -8 111 -17 189c-10 88 -27 123 -27 193c0 54 45 73 69 73zM246 50v5c13 33 31 53 69 68h4c37 -13 56 -32 69 -68v-5
c-14 -41 -33 -59 -69 -68h-4c-41 9 -58 26 -69 68zM132 658c30 0 72 -23 72 -73c0 -65 -18 -107 -29 -193c-14 -108 -15 -168 -17 -182c-1 -11 -15 -20 -26 -20c-12 0 -24 7 -25 13c-2 21 -8 111 -17 189c-10 88 -27 123 -27 193c0 54 45 73 69 73zM62 48v5
c13 33 31 53 69 68h4c37 -13 56 -32 69 -68v-5c-14 -41 -33 -59 -69 -68h-4c-41 9 -58 26 -69 68z" />
    <glyph glyph-name="question_question" unicode="&#x3f;&#x3f;" horiz-adv-x="781" 
d="M591 610c-56 0 -97 -49 -123 -94l-33 1l-16 76l3 4c24.5 20.5 105.5 62 178 62c44.1 0 94.2 -3.90002 130 -24c47.1 -26.4 69 -75.3 69 -127c0 -79 -73 -128 -120 -162c-28.9 -21.4 -60 -44 -60 -118v-39c0 -7 -25 -15 -33 -15s-33 8 -33 15v41c0 43 12 102 77 161
c40 37 41 76.7 41 113c0 36 -33 106 -80 106zM509 48v5c13 33 31 53 69 68h4c37 -13 56 -32 69 -68v-5c-14 -41 -33 -59 -69 -68h-4c-41 9 -58 26 -69 68zM215 610c-56 0 -97 -49 -123 -94l-33 1l-16 76l3 4c24.5 20.5 105.5 62 178 62c44.1 0 94.2 -3.90002 130 -24
c47.1 -26.4 69 -75.3 69 -127c0 -79 -73 -128 -120 -162c-28.9 -21.4 -60 -44 -60 -118v-39c0 -7 -25 -15 -33 -15s-33 8 -33 15v41c0 43 12 102 77 161c40 37 41 76.7 41 113c0 36 -33 106 -80 106zM133 48v5c13 33 31 53 69 68h4c37 -13 56 -32 69 -68v-5
c-14 -41 -33 -59 -69 -68h-4c-41 9 -58 26 -69 68z" />
    <glyph glyph-name="question_exclam" unicode="&#x3f;&#x21;" horiz-adv-x="594" 
d="M499 660c30 0 72 -23 72 -73c0 -65 -18 -107 -29 -193c-14 -108 -15 -168 -17 -182c-1 -11 -15 -20 -26 -20c-12 0 -24 7 -25 13c-2 21 -8 111 -17 189c-10 88 -27 123 -27 193c0 54 45 73 69 73zM429 50v5c13 33 31 53 69 68h4c37 -13 56 -32 69 -68v-5
c-14 -41 -33 -59 -69 -68h-4c-41 9 -58 26 -69 68zM215 610c-56 0 -97 -49 -123 -94l-33 1l-16 76l3 4c24.5 20.5 105.5 62 178 62c44.1 0 94.2 -3.90002 130 -24c47.1 -26.4 69 -75.3 69 -127c0 -79 -73 -128 -120 -162c-28.9 -21.4 -60 -44 -60 -118v-39
c0 -7 -25 -15 -33 -15s-33 8 -33 15v41c0 43 12 102 77 161c40 37 41 76.7 41 113c0 36 -33 106 -80 106zM133 48v5c13 33 31 53 69 68h4c37 -13 56 -32 69 -68v-5c-14 -41 -33 -59 -69 -68h-4c-41 9 -58 26 -69 68z" />
    <glyph glyph-name="exclam_question" unicode="&#x21;&#x3f;" horiz-adv-x="587" 
d="M132 658c30 0 72 -23 72 -73c0 -65 -18 -107 -29 -193c-14 -108 -15 -168 -17 -182c-1 -11 -15 -20 -26 -20c-12 0 -24 7 -25 13c-2 21 -8 111 -17 189c-10 88 -27 123 -27 193c0 54 45 73 69 73zM62 48v5c13 33 31 53 69 68h4c37 -13 56 -32 69 -68v-5
c-14 -41 -33 -59 -69 -68h-4c-41 9 -58 26 -69 68zM397 608c-56 0 -97 -49 -123 -94l-33 1l-16 76l3 4c24.5 20.5 105.5 62 178 62c44.1 0 94.2 -3.90002 130 -24c47.1 -26.4 69 -75.3 69 -127c0 -79 -73 -128 -120 -162c-28.9 -21.4 -60 -44 -60 -118v-39
c0 -7 -25 -15 -33 -15s-33 8 -33 15v41c0 43 12 102 77 161c40 37 41 76.7 41 113c0 36 -33 106 -80 106zM315 46v5c13 33 31 53 69 68h4c37 -13 56 -32 69 -68v-5c-14 -41 -33 -59 -69 -68h-4c-41 9 -58 26 -69 68z" />
    <glyph glyph-name="centigrade" unicode="&#xb0;C" horiz-adv-x="794" 
d="M529 610c107 0 191 -40 191 -40l2 -2c-11.4 -38.5 -15 -55 -18 -100l-19 -2c-37 72 -90 91 -169 91c-72 0 -163 -79.5 -163 -254c0 -128 35 -255 171 -255c82 0 141 18 203 87l21 -25c-60 -78 -148 -119 -233 -119c-204.6 0 -296 126.5 -296 296
c0 192.5 147.6 323 310 323zM206 557c0 31 -20 69 -62 69c-40 0 -63 -35 -63 -69c0 -33 24 -66 63 -66s62 34 62 66zM38 558c0 59 48 106 106 106s105 -47 105 -106c0 -58 -47 -105 -105 -105s-106 47 -106 105z" />
    <glyph glyph-name="fahrenheit" unicode="&#xb0;F" horiz-adv-x="772" 
d="M686 610c21 0 42 0 56 2l1 -2c-1 -13 -1 -33 -1 -40c0 -8 0 -20 1 -28l-1 -3s-122 11 -239 11c-6 -22 -7 -101 -7 -116v-72c103 0 144 4 196 9l2 -3c-2 -8 -2 -27 -2 -35c0 -7 0 -24 2 -32l-2 -3c-61 6 -154 9 -196 9v-131c0 -66 1 -126 8 -176l-1 -3s-37 3 -67 3
c-31 0 -80 -3 -80 -3l-1 3c7 47 9 110 9 176v258c0 66 -2 125 -9 176l2 2s19 -2 49 -2h280zM206 557c0 31 -20 69 -62 69c-40 0 -63 -35 -63 -69c0 -33 24 -66 63 -66s62 34 62 66zM38 558c0 59 48 106 106 106s105 -47 105 -106c0 -58 -47 -105 -105 -105s-106 47 -106 105
z" />
    <glyph glyph-name="f_f" unicode="ff" horiz-adv-x="687" 
d="M162 612c42 43.9 135 76 198 76c19 0 37 -4 45 -9l1 -3c-11 -19 -21 -74 -28 -101l-11 -1c-11 20 -29 45 -58 45c-54 0 -83 -38.8 -83 -94c0 -22 5 -60.5 5 -86v-10h127h21h27v30c0 61 25 124 69 170c42 43.9 118 69 198 69c19 0 37 -4 45 -9l1 -3
c-11 -19 -16 -74 -23 -101l-20 -1c-11 20 -25 45 -54 45c-54 0 -83 -38.8 -83 -94c0 -22 5 -70.5 5 -96v-10h108c5 0 8 -2 8 -6v-27c0 -9 -14 -13 -23 -13h-93v-183c0 -75 0 -144 8 -200l-2 -3s-40.7 3 -75 3c-35 0 -75 -3 -75 -3l-1 3c7 51 7 125 7 200v183h-42h-24h-109
v-183c0 -75 1.5 -143 10 -200l-2 -3s-42.7 3 -77 3c-35 0 -78 -3 -78 -3l-1 3c8.5 53.5 10 125 10 200v183h-66c-4 0 -5 1 -5 6v20c0 8 5 20 23 20h48v30c0 78 25 107 69 153z" />
    <glyph glyph-name="f_t" unicode="ft" horiz-adv-x="690" 
d="M167 629c42 43.9 113 69 193 69c19 0 47 -4 55 -9l1 -3c-11 -19 -16 -74 -23 -101l-30 -1c-11 20 -25 45 -54 45c-54 0 -89 -38.8 -89 -94c0 -22 5 -70.5 5 -96v-10h146c0.299988 1 0.700012 2 1 3c12.4 -1.60001 33.5 -2.89999 54 -3c0 39.7 0.700012 74.3 4 101l2 3
c40 9 94 35 119 45c6 0 9 -3 9 -10c-4.5 -53 -5 -83 -5 -139h47c23 0 51.4 1.39999 70 3l5 -8c-6 -14.7 -10.5 -32 -12 -47c-13.3 1.29999 -48 2 -72 2h-38l-2 -106.9c-1.09998 -60 -1 -111 -1 -141c0 -41 10 -80 37 -80c26 0 36 1 58 12c11 -7 17 -22 17 -38
c-43 -26 -95 -35 -147 -35c-64 0 -97 51 -97 98c0 30 1.5 113 3 173l3 117.9c-22.8 -0.100006 -53.8 -0.700012 -71 -2l-1.39999 2h-128.6v-179c0 -75 1 -142 8 -200l-2 -3s-34.7 3 -69 3c-35 0 -75 -3 -75 -3l-1 3c7 51 7 125 7 200v179h-66c-4 0 -5 1 -5 6v24
c0 8 5 20 23 20h48v30c0 61 30 124 74 170z" />
    <glyph glyph-name="Q_u" unicode="Qu" horiz-adv-x="1387" 
d="M384 603c-96 0 -171 -66 -171 -276c0 -192 85 -282 205 -282c114 0 168 86 168 265c0 208 -61 293 -202 293zM1162 64c-56 -60 -127 -74 -168 -74c-99 0 -134 67 -133 136l2 123c1.20001 72 -2 123 -8 180l2 3s36 -3 70 -3c35 0 75 3 75 3l1 -3
c-5 -51.5 -6.29999 -105 -8 -180l-2 -90c-2 -82 27 -92 57 -92c44.8 0 112 44 112 102v80c0 76 0 124 -7 180l2 3s34 -3 68 -3c35 0 77 3 77 3l1 -3c-9 -53 -9 -105 -9 -180v-57c0 -75 9 -149 17 -192l-2 -3c-13 2 -60.9 3 -73.5 3c-14.5 0 -44.2 -1.3 -57.5 -3
c-6 0 -9 1 -9 3l-5 64h-2zM579.6 31.3c94.5 -55.4 263.9 -120.9 439.4 -143.3v-6c-36 -19 -75 -71 -94 -86c-179.6 49.9 -313.1 119.2 -442.5 201.8c-26.5 -5.2 -54.8 -7.8 -84.5 -7.8c-198 0 -346 132 -346 320c0 196 142 348 345 348c213 0 350 -131 350 -329
c0 -135.1 -61.5 -242.3 -167.4 -297.7z" />
    <glyph glyph-name="t_t" unicode="tt" horiz-adv-x="690" 
d="M24 379c-8 0 -13 7 -13 14c0 14 11 36 21 36h55c0 58 0 69 -7 111l2 3c40 3 114 25 139 35c6 0 9 -3 9 -10c-4 -58 -5 -64 -5 -139h140c0.299988 1 0.700012 2 1 3c12.4 -1.60001 33.5 -2.89999 54 -3c0 39.7 0.700012 74.3 4 101l2 3c40 9 94 35 119 45c6 0 9 -3 9 -10
c-4.5 -53 -5 -83 -5 -139h47c23 0 51.4 1.39999 70 3l5 -8c-6 -14.7 -10.5 -32 -12 -47c-13.3 1.29999 -48 2 -72 2h-38l-2 -106.9c-1.09998 -60 -1 -111 -1 -141c0 -41 10 -80 37 -80c26 0 36 1 58 12c11 -7 17 -22 17 -38c-43 -26 -95 -35 -147 -35c-64 0 -97 51 -97 98
c0 30 1.5 113 3 173l3 117.9c-22.8 -0.100006 -53.8 -0.700012 -71 -2l-1.39999 2h-122.6v-107c0 -60 -3 -111 -3 -141c0 -41 6 -72 33 -72c26 0 41 2 68 18c11 -7 19 -19 19 -35c-39 -36 -119 -52 -161 -52c-64 0 -97 51 -97 98c0 30 3 113 3 173v118h-63z" />
    <glyph glyph-name="exclam" unicode="!" horiz-adv-x="270" 
d="M132 658c30 0 72 -23 72 -73c0 -65 -18 -107 -29 -193c-14 -108 -15 -168 -17 -182c-1 -11 -15 -20 -26 -20c-12 0 -24 7 -25 13c-2 21 -8 111 -17 189c-10 88 -27 123 -27 193c0 54 45 73 69 73zM62 48v5c13 33 31 53 69 68h4c37 -13 56 -32 69 -68v-5
c-14 -41 -33 -59 -69 -68h-4c-41 9 -58 26 -69 68z" />
    <glyph glyph-name="quotedbl" unicode="&#x22;" horiz-adv-x="375" 
d="M251 422l-15 4s-32 160 -32 166c0 23 22 54 65 54c42 0 45 -19 45 -37c0 -15 -37 -181 -37 -181zM108 421l-15 4s-32 160 -32 166c0 23 22 54 65 54c42 0 45 -19 45 -37c0 -15 -37 -181 -37 -181z" />
    <glyph glyph-name="numbersign" unicode="#" horiz-adv-x="514" 
d="M288.5 253l17 107h-94c-6 -37 -13 -70 -19 -107h96zM358.5 360l-17 -107h118l-8 -66h-119c-10 -60 -18 -115 -28 -173h-53l29 173h-96c-11 -60 -19 -115 -30 -173h-55l28 173h-99l9 66h100c6 37 12 70 17 107h-100l9 66h100c10 58 19 115 29 173h56l-30 -173h97
c10 58 18 115 28 173h52l-27 -173h117l-9 -66h-118z" />
    <glyph glyph-name="dollar" unicode="$" horiz-adv-x="514" 
d="M249.4 372.8l14.1 190.9c-47.6 -3.90002 -86.5 -45 -86.5 -89.7c0 -57.9 37.3 -85.2 72.4 -101.2zM281.1 252.3l-15.8 -213.6c49.1 5 83.7 38.6 83.7 99.3c0 50.6 -20.3 90.9 -67.9 114.3zM261.7 -9.5l-6.20001 -83.7c-7.3 -4.2 -30.9 -5.10001 -40.9 -5.10001l6.5 88.8
c-101.7 4.7 -174.1 40.5 -174.1 40.5l-2 2c7 28 15 76 19 109l18 1c28 -41.6 90 -88.3 142.9 -101.4l16.8 226.9c-81.9 33.7 -181.7 86.8 -181.7 180.5c0 101.1 98 161 206.9 161l5.89999 79.5c9.20001 3.5 28.2 5 41 5l-6.5 -86.8c87.2 -8.79999 143.7 -39.7 143.7 -39.7
l2 -3c-8 -28 -15 -74 -19 -107l-28 -1c-19.3 37 -58.6 83.6 -102.4 100.5l-14.8 -200c77.8 -28.6 187.2 -81.6 187.2 -186.5c0 -91 -76.1 -173.7 -214.3 -180.5z" />
    <glyph glyph-name="percent" unicode="%" horiz-adv-x="637" 
d="M463 53c0 -13.3 3 -33 20 -33c20.7 0 40.4 16.7 54 40c16.6 28.4 25 66.8 25 97c0 52 -25 57 -39 57c-19.9 0 -38.3 -22.3 -48 -52c-11.2 -34.3 -12 -78.4 -12 -109zM370 91c0 80 53 159 142 159c48 0 92 -19 92 -91c0 -99 -54 -178 -133 -178c-32.3 0 -61.3 8.5 -78 30
c-14 18 -23 43 -23 80zM144 369c0 -13.3 3 -33 20 -33c20.7 0 40.4 16.7 54 40c16.6 28.4 25 66.8 25 97c0 52 -25 57 -39 57c-19.9 0 -38.3 -22.3 -48 -52c-11.2 -34.3 -12 -78.4 -12 -109zM51 407c0 80 53 159 142 159c26 0 50.8 -5.59998 68.1 -22.1
c41.8 -1.5 85.5 -24.9 102.9 -24.9c42 0 109 6 150 50l47 -21l-411 -564l-54 12l366 501c-39 -16 -78 -23 -108 -23c-21.5 0 -50.7 8.70001 -70 18.8c0.700012 -5.5 1 -11.5 1 -17.8c0 -99 -54 -178 -133 -178c-32.3 0 -61.3 8.5 -78 30c-14 18 -23 43 -23 80z" />
    <glyph glyph-name="parenleft" unicode="(" horiz-adv-x="338" 
d="M44 252c0 170 112 353 231 455l32 -28c-32 -36 -132 -161 -132 -424s99 -394 132 -432l-32 -27c-173 164 -231 321.9 -231 456z" />
    <glyph glyph-name="parenright" unicode=")" horiz-adv-x="338" 
d="M294 252c0 -170 -112 -353 -231 -455l-32 28c32 36 132 161 132 424s-99 394 -132 432l32 27c173 -164 231 -321.9 231 -456z" />
    <glyph glyph-name="asterisk" unicode="*" horiz-adv-x="433" 
d="M197 566c-13 2 -26 7 -41 5c-45 -8 -81 -8 -81 37c0 14 9 32 33 32c34 0 51 -33 95 -52c-4 40 -30 65 -30 91c0 21 20 39 38 39s40 -11 40 -35c0 -27 -23 -65 -25 -95c45 19 56 54 89 54c31 0 39 -24 39 -34c0 -30 -34 -40 -69 -40c-19 0 -36 0 -54 -3
c34 -36 85 -34 85 -85c0 -18 -18 -29 -32 -29c-49 0 -46 62 -71 101c-25 -45 -11 -101 -70 -101c-17 0 -29 13 -29 28c0 54 50 49 83 87z" />
    <glyph glyph-name="plus" unicode="+" horiz-adv-x="520" 
d="M290 262h170v-60h-170v-170h-60v170h-170v60h170v171h60v-171z" />
    <glyph glyph-name="slash" unicode="/" horiz-adv-x="342" 
d="M312 646l-237 -705h-60l237 705h60z" />
    <glyph glyph-name="one" unicode="1" horiz-adv-x="514" 
d="M367 189c0 -79 3 -129 12 -189l-2 -3s-43 3 -79 3c-37 0 -77 -3 -77 -3l-1 3c9 56 11 111 11 189v244c0 36 -1 65 -18 65c-20 0 -65 0 -109 -6l-2 43c93 21 204 54 269 75c4 0 7 0 7 -5c-2 -14 -11 -55 -11 -163v-253z" />
    <glyph glyph-name="two" unicode="2" horiz-adv-x="514" 
d="M226 556c-49 0 -83 -26 -116 -85l-44 1l-21 79l3 4c25 22 114 55 186 55c119 0 223 -49 223 -157c0 -76 -49 -115 -106 -170l-100 -97c-21 -20 -57 -70 -57 -86h82c100 0 128 5 186 9c-3 -13 -6 -53 -6 -66s3 -34 6 -47c-75 3 -99 4 -174 4c-76 0 -151.9 -2.4 -249 -4
l-1 4c0 59 30 105 128 205l74 73c59 60 62 112 62 176c0 62 -40 102 -76 102z" />
    <glyph glyph-name="three" unicode="3" horiz-adv-x="514" 
d="M213 31c35 0 102 30 102 146c0 95 -56 117 -113 117c-9 0 -37 0 -49 -2v40c102 7 158 51 158 134c0 53 -43 102 -82 102c-67.4 0 -86.4 -36.4 -116 -98l-44 1l-21 79l3 4c25 22 99 56 187 56c122 0 200 -34 200 -128c0 -84 -56 -134 -129 -153v-3c74 -7 158 -50 158 -146
c0 -122 -112.4 -191 -256 -191c-93.4 0 -146 34 -171 56l-4 5l22 79l44 1c33 -59 36 -99 111 -99z" />
    <glyph glyph-name="four" unicode="4" horiz-adv-x="514" 
d="M261 498c-53 -72 -135 -205 -185 -289h185v289zM261 162h-177c-24 0 -28 2 -33 7l-15 18c-6 11 -19 19 -19 23c0 3 5 9 7 13c82 124 192.7 290 258 387c20 -1.79999 66.2 -2.20001 103 0l2 -2c-1.20001 -14.8 -2 -399 -2 -399h98c11 0 15 -6 15 -16
c0 -12 -15 -31 -29 -31h-84c1 -64 4 -109 11 -162l-2 -3s-40 3 -72 3c-33 0 -70 -3 -70 -3l-1 3c7 49 10 98 10 162z" />
    <glyph glyph-name="five" unicode="5" horiz-adv-x="514" 
d="M242 -10c-95 0 -151 10 -192 45l-3 5l21 79l34 1c33 -59 63 -81 122 -81c45 0 100 41 100 139c0 61.3 -10.1 105.8 -44 129.5c-15.3 10.7 -36.8 19.5 -62 19.5c-48.9 0 -71.9 -13.3 -105.5 -41l-24 7.5c15.1 36 26.5 270 14.5 312.5l2 3c35 -3 105 -10 142 -10
c53 0 140 5 197 11l6 -3l-15 -96c-41 -4 -107 -6 -137 -6c-46 0 -102 4 -136 8l-7 -147c22 8 64.5 14 119 14c46 0 95.3 -16.1 128.5 -42.5c36.5 -29 63.5 -78.6 63.5 -131.5c0 -130 -104 -216 -224 -216z" />
    <glyph glyph-name="six" unicode="6" horiz-adv-x="514" 
d="M171 289c-1 -11 -1 -36 -1 -47c0 -174 55 -213 105 -213c36 0 68 49 68 157c0 59.5 -40 129 -98 129c-18 0 -35.5 -2.5 -74 -26zM450 569c-57 -3 -126 -12 -185 -60c-47.1 -38.3 -81 -106.5 -88.5 -178.5c36 19 78.5 31.5 102.5 34.5c163.5 -3.5 198 -112 198 -161
c0 -88.5 -58 -214 -214 -214c-101 0 -219 42 -219 256c0 96 31.7 201.2 108 267c76 65.5 151 92.5 292 97c7.79999 -9.59998 9.10001 -28.8 6 -41z" />
    <glyph glyph-name="seven" unicode="7" horiz-adv-x="514" 
d="M375 496c-59 0 -168 -8 -296 -15c2 15 5 59 5 74s-3 39 -5 54c42 -6 171 -10 320 -10c31 0 49 4 64 8l14 -20c-112 -272 -169 -426 -226 -596l-118 -4l-3 7c64 145 170 316 245 502z" />
    <glyph glyph-name="nine" unicode="9" horiz-adv-x="514" 
d="M351 311c1 11 1 36 1 47c0 174 -55 213 -105 213c-36 0 -68 -49 -68 -157c0 -59.5 40 -129 98 -129c18 0 35.5 2.5 74 26zM72 31c57 3 126 12 185 60c47.1 38.3 81 106.5 88.5 178.5c-36 -19 -78.5 -31.5 -102.5 -34.5c-163.5 3.5 -198 112 -198 161
c0 88.5 58 214 214 214c101 0 219 -42 219 -256c0 -96 -31.7 -201.2 -108 -267c-76 -65.5 -151 -92.5 -292 -97c-7.8 9.6 -9.1 28.8 -6 41z" />
    <glyph glyph-name="colon" unicode=":" horiz-adv-x="253" 
d="M61 359v5c13 33 31 53 69 68h4c37 -13 56 -32 69 -68v-5c-14 -41 -33 -59 -69 -68h-4c-41 9 -58 26 -69 68zM61 68v5c13 33 31 53 69 68h4c37 -13 56 -32 69 -68v-5c-14 -41 -33 -59 -69 -68h-4c-41 9 -58 26 -69 68z" />
    <glyph glyph-name="less" unicode="&#x3c;" horiz-adv-x="512" 
d="M153 240l318 -106v-82l-429 156v64l429 156v-82z" />
    <glyph glyph-name="equal" unicode="=" horiz-adv-x="551" 
d="M493 193v-70h-434v70h434zM493 341v-70h-434v70h434z" />
    <glyph glyph-name="greater" unicode="&#x3e;" horiz-adv-x="512" 
d="M360 240l-318 106v82l429 -156v-64l-429 -156v82z" />
    <glyph glyph-name="question" unicode="?" horiz-adv-x="464" 
d="M215 610c-56 0 -97 -49 -123 -94l-33 1l-16 76l3 4c24.5 20.5 105.5 62 178 62c44.1 0 94.2 -3.90002 130 -24c47.1 -26.4 69 -75.3 69 -127c0 -79 -73 -128 -120 -162c-28.9 -21.4 -60 -44 -60 -118v-39c0 -7 -25 -15 -33 -15s-33 8 -33 15v41c0 43 12 102 77 161
c40 37 41 76.7 41 113c0 36 -33 106 -80 106zM133 48v5c13 33 31 53 69 68h4c37 -13 56 -32 69 -68v-5c-14 -41 -33 -59 -69 -68h-4c-41 9 -58 26 -69 68z" />
    <glyph glyph-name="at" unicode="@" horiz-adv-x="1068" 
d="M646 320c0 35 -24 57 -49 57c-96.3 0 -143 -111.4 -143 -213c0 -47 9 -87 56 -87c30 0 80 30 107 116c10 33 29 103 29 127zM700 75c0 -13 7 -14 18 -14c37 0 147 68 147 212c0 221 -204 311 -321 311c-155 0 -338 -125 -338 -356c0 -148 111 -349 355 -349
c77 0 188 24 250 75c12 -4 19 -26 21 -39c-64 -49 -167 -85 -290 -85c-237 0 -450 163 -450 391c0 207 208 410 461 410c226 0 417 -155 417 -344c0 -140 -138 -268 -272 -268c-70 0 -88 36 -88 57c-41 -38 -112 -46 -136 -46c-116 0 -137 87 -137 128
c0 145 132 257 247 257c48 0 107 -17 124 -38l37 33l27 -11l-59 -258c-6 -26 -13 -55 -13 -66z" />
    <glyph glyph-name="A" unicode="A" horiz-adv-x="701" 
d="M411.5 275.1c-24.2 63.4 -52.8 136.9 -88.5 218.9h-5.89999l-93.5 -218.1c31.4 -1.39999 75.5 -1.89999 104.4 -1.89999c23.7 0 55.1 0.5 83.5 1.10001zM200.3 219.2c-34.1 -84.1 -63.5 -163 -79.3 -222.2c-12 3 -34 3 -45 3s-44 0 -56 -3c101 221 199 434 295 656h90
c86 -219 224 -555 274 -656c-17 3 -74 3 -91 3s-64 0 -81 -3c-6 21.7 -27.7 96.7 -74.5 222.7c-32.7 0.699997 -67.4 1.3 -99.5 1.3c-35.7 0 -94.7 -0.899994 -132.7 -1.8z" />
    <glyph glyph-name="B" unicode="B" horiz-adv-x="675" 
d="M245 550v-175h78c83 0 103 33 103 106c0 87.3 -34 114 -90 114c-81 0 -91 -12 -91 -45zM245 322v-225c0 -33 17 -47 87 -47c134 0 141 46 141 115c0 71.2 -18 157 -135 157h-93zM177 645c63 0 127 3 162 3c186 0 236 -88 236 -155c0 -55 -52 -108 -103 -133
c87 -25 162 -80 162 -176c0 -86 -74 -187 -273 -187c-89 0 -112 3 -184 3c-35 0 -85 -3 -85 -3l-1 3c8 54 12 125 12 200v245c0 75 -4 143 -12 200l2 3s50 -3 84 -3z" />
    <glyph glyph-name="C" unicode="C" horiz-adv-x="706" 
d="M414 658c122 0 225 -45 225 -45l2 -3c-11.8 -49.3 -16.4 -79 -20 -130l-30 -1c-41 82 -94 124 -184 124c-82 0 -192 -71 -192 -274c0 -170.2 82 -279 191 -279c93 0 148 17 223 89l24 -34c-84 -87 -183.8 -115 -273 -115c-84.8 0 -144.9 17.7 -205 58
c-79 53 -123 157 -123 262c0 109.9 45.1 212.3 124 274c62.5 48.8 147 74 238 74z" />
    <glyph glyph-name="D" unicode="D" horiz-adv-x="761" 
d="M245 101c0 -32 21.9 -50 98 -50c141 0 205 41 205 243c0 154 -14 301 -230 301c-49 0 -73 -15 -73 -50v-444zM175 645c70.6 0 110.4 3 181 3c192 0 353 -133.5 353 -330c0 -246 -194 -320 -335 -320c-87.1 0 -121.4 2 -199 2c-35 0 -85 -3 -85 -3l-1 3
c8 54 12 125 12 200v245c0 75 -4 143 -12 200l2 3s50 -3 84 -3z" />
    <glyph glyph-name="E" unicode="E" horiz-adv-x="594" 
d="M240 200c0 -17 1 -103 8 -127c134 0 296 22 296 22l2 -4c-1 -8 -2 -45 -2 -55s0.5 -22.8 2 -36l-2 -3c-16 2 -39 3 -60 3h-314c-35 0 -85 -3 -85 -3l-1 3c8 54 12 125 12 200v245c0 75 -4 143 -12 200l2 3s50 -3 84 -3h304c21 0 44 1 60 3l2 -3
c-1.20001 -14 -2 -27 -2 -35c0 -9 1 -33 2 -41l-2 -4s-152 12 -286 12c-7 -24 -8 -115 -8 -132v-73c118 0 178 5 237 10l3 -3c-2 -9 -3 -28 -3 -37s1 -29 3 -38l-3 -3c-69 7 -189 10 -237 10v-111z" />
    <glyph glyph-name="F" unicode="F" horiz-adv-x="554" 
d="M468 645c24 0 47 1 63 3l2 -3c-1 -14 -2 -27 -2 -35c0 -9 1 -43 2 -51l-2 -4s-147 22 -281 22c-7 -24 -8 -115 -8 -132v-83c118 0 178 5 237 10l3 -3c-2 -9 -3 -28 -3 -37s1 -29 3 -38l-3 -3c-69 7 -189 10 -237 10v-101c0 -75 2 -143 10 -200l-2 -3s-44 3 -78 3
c-35 0 -85 -3 -85 -3l-1 3c8 54 12 125 12 200v245c0 75 -4 143 -12 200l2 3s50 -3 84 -3h296z" />
    <glyph glyph-name="G" unicode="G" horiz-adv-x="753" 
d="M539 117c0 75 -2 133 -10 190l2 3s48 -3 82 -3c35 0 73 3 73 3l1 -3c-8 -53 -10 -95 -10 -170c0 -32.4 3.90002 -46.5 10 -54v-3c-67.5 -56.6 -180.5 -90 -297 -90c-82.3 0 -136.2 17.6 -196 58c-86.2 58.3 -142 156.8 -142 259c0 113 44.4 208.5 119 268
c69 55 134 83 234 83c122 0 239 -45 239 -45l2 -3c-11.8 -49.3 -16.4 -79 -20 -130l-30 -1c-41 82 -126.9 123 -205 123c-135 0 -178 -114 -178 -275c0 -132 64 -282 200 -282c54 0 92 6 126 38v34z" />
    <glyph glyph-name="grave" unicode="`" horiz-adv-x="392" 
d="M198 702l69 -124c4 -7 9 -18 9 -26c0 -9 -15 -16 -24 -16c-8 0 -21 5 -38 20l-121 105l2 11c8 9 47 32 83 32c5 0 16 -1 20 -2z" />
    <glyph glyph-name="ograve" unicode="&#xf2;" horiz-adv-x="566" 
d="M256 674l69 -124c4 -7 9 -18 9 -26c0 -9 -15 -16 -24 -16c-8 0 -21 5 -38 20l-121 105l2 11c8 9 47 32 83 32c5 0 16 -1 20 -2zM41 205c0 155 101 234 244 234c169 0 240 -99 240 -225c0 -138.2 -89 -224 -242 -224c-149 0 -242 82 -242 215zM278 389
c-86 0 -95 -74 -95 -161c0 -77 10 -188 114 -188c45 0 86 32 86 147c0 139 -20 202 -105 202z" />
    <glyph glyph-name="oacute" unicode="&#xf3;" horiz-adv-x="566" 
d="M304 676c3 1 11 2 16 2c30 0 59 -14 67 -24l10 -23l-120 -108c-14 -12 -33 -16 -43 -16c-8 0 -21 8 -21 14s2 15 8 24zM41 205c0 155 101 234 244 234c169 0 240 -99 240 -225c0 -138.2 -89 -224 -242 -224c-149 0 -242 82 -242 215zM278 389c-86 0 -95 -74 -95 -161
c0 -77 10 -188 114 -188c45 0 86 32 86 147c0 139 -20 202 -105 202z" />
    <glyph glyph-name="ocircumflex" unicode="&#xf4;" horiz-adv-x="566" 
d="M433 522l-27 -24c-48 23 -80 50 -118 87c-42 -39 -73.5 -65 -117 -87l-27 24c46.5 47 95 107 128 156h34c37.5 -55 78.5 -107.5 127 -156zM41 205c0 155 101 234 244 234c169 0 240 -99 240 -225c0 -138.2 -89 -224 -242 -224c-149 0 -242 82 -242 215zM278 389
c-86 0 -95 -74 -95 -161c0 -77 10 -188 114 -188c45 0 86 32 86 147c0 139 -20 202 -105 202z" />
    <glyph glyph-name="otilde" unicode="&#xf5;" horiz-adv-x="566" 
d="M352 591c21 0 36 6 49 42l32 -9c-14 -64 -49 -107 -100 -107c-42.1 0 -77.9 42 -118 42c-29 0 -41 -12 -49 -43l-33 7c15 64 46 109 94 109c49.7 0 76.5 -41 125 -41zM41 205c0 155 101 234 244 234c169 0 240 -99 240 -225c0 -138.2 -89 -224 -242 -224
c-149 0 -242 82 -242 215zM278 389c-86 0 -95 -74 -95 -161c0 -77 10 -188 114 -188c45 0 86 32 86 147c0 139 -20 202 -105 202z" />
    <glyph glyph-name="odieresis" unicode="&#xf6;" horiz-adv-x="566" 
d="M326 601c0 37 29 66 66 66c35 0 64 -29 64 -66c0 -35 -29 -65 -64 -65c-37 0 -66 30 -66 65zM117 601c0 37 29 66 64 66c37 0 66 -29 66 -66c0 -35 -29 -65 -66 -65c-35 0 -64 30 -64 65zM41 205c0 155 101 234 244 234c169 0 240 -99 240 -225
c0 -138.2 -89 -224 -242 -224c-149 0 -242 82 -242 215zM278 389c-86 0 -95 -74 -95 -161c0 -77 10 -188 114 -188c45 0 86 32 86 147c0 139 -20 202 -105 202z" />
    <glyph glyph-name="divide" unicode="&#xf7;" horiz-adv-x="545" 
d="M208.3 390.2v4.19998c10.9 27.7 26 44.4 57.8 57h3.29999c31 -10.9 47 -26.8 57.9 -57v-4.19998c-11.7 -34.4 -27.7 -49.5 -57.9 -57h-3.29999c-34.4 7.5 -48.6 21.8 -57.8 57zM208.3 72.2v4.2c10.9 27.7 26 44.4 57.8 57h3.29999c31 -10.9 47 -26.8 57.9 -57v-4.2
c-11.7 -34.4 -27.7 -49.5 -57.9 -57h-3.29999c-34.4 7.5 -48.6 21.8 -57.8 57zM477 268l-10 -70h-400l10 70h400z" />
    <glyph glyph-name="ugrave" unicode="&#xf9;" horiz-adv-x="591" 
d="M248 674l69 -124c4 -7 9 -18 9 -26c0 -9 -15 -16 -24 -16c-8 0 -21 5 -38 20l-121 105l2 11c8 9 47 32 83 32c5 0 16 -1 20 -2zM372 64c-56 -60 -127 -74 -168 -74c-99 0 -134 67 -133 136l2 123c1.2 72 -2 123 -8 180l2 3s36 -3 70 -3c35 0 75 3 75 3l1 -3
c-5 -51.5 -6.3 -105 -8 -180l-2 -90c-2 -82 27 -92 57 -92c44.8 0 112 44 112 102v80c0 76 0 124 -7 180l2 3s34 -3 68 -3c35 0 77 3 77 3l1 -3c-9 -53 -9 -105 -9 -180v-57c0 -75 9 -149 17 -192l-2 -3c-13 2 -60.9 3 -73.5 3c-14.5 0 -44.2 -1.3 -57.5 -3c-6 0 -9 1 -9 3
l-5 64h-2z" />
    <glyph glyph-name="uacute" unicode="&#xfa;" horiz-adv-x="591" 
d="M298 676c3 1 11 2 16 2c30 0 59 -14 67 -24l10 -23l-120 -108c-14 -12 -33 -16 -43 -16c-8 0 -21 8 -21 14s2 15 8 24zM372 64c-56 -60 -127 -74 -168 -74c-99 0 -134 67 -133 136l2 123c1.2 72 -2 123 -8 180l2 3s36 -3 70 -3c35 0 75 3 75 3l1 -3
c-5 -51.5 -6.3 -105 -8 -180l-2 -90c-2 -82 27 -92 57 -92c44.8 0 112 44 112 102v80c0 76 0 124 -7 180l2 3s34 -3 68 -3c35 0 77 3 77 3l1 -3c-9 -53 -9 -105 -9 -180v-57c0 -75 9 -149 17 -192l-2 -3c-13 2 -60.9 3 -73.5 3c-14.5 0 -44.2 -1.3 -57.5 -3c-6 0 -9 1 -9 3
l-5 64h-2z" />
    <glyph glyph-name="ucircumflex" unicode="&#xfb;" horiz-adv-x="591" 
d="M443 522l-27 -24c-48 23 -80 50 -118 87c-42 -39 -73.5 -65 -117 -87l-27 24c46.5 47 95 107 128 156h34c37.5 -55 78.5 -107.5 127 -156zM372 64c-56 -60 -127 -74 -168 -74c-99 0 -134 67 -133 136l2 123c1.2 72 -2 123 -8 180l2 3s36 -3 70 -3c35 0 75 3 75 3l1 -3
c-5 -51.5 -6.3 -105 -8 -180l-2 -90c-2 -82 27 -92 57 -92c44.8 0 112 44 112 102v80c0 76 0 124 -7 180l2 3s34 -3 68 -3c35 0 77 3 77 3l1 -3c-9 -53 -9 -105 -9 -180v-57c0 -75 9 -149 17 -192l-2 -3c-13 2 -60.9 3 -73.5 3c-14.5 0 -44.2 -1.3 -57.5 -3c-6 0 -9 1 -9 3
l-5 64h-2z" />
    <glyph glyph-name="ebreve" unicode="&#x115;" horiz-adv-x="508" 
d="M155 661c16 -58.5 53 -78 107 -78c52.5 0 95 22.5 106 78h33c-5 -103 -68 -154 -139 -154c-70 0 -134.5 48.5 -140 154h33zM173 255h156c0 87.5 -24.1 134 -65 134c-28.3 0 -47.8 -12.7 -60.5 -30c-14.8 -20.2 -27 -55 -30.5 -104zM448 107c10 0 16 -18 16 -31
c-54.5 -63 -126 -86 -198 -86c-75 0 -133.8 16.5 -168 52c-41.3 42.9 -63 105 -63 164c0 82.9 33 143 81.5 183c39.7 32.7 99.5 50 154.5 50c154 0 189 -100 189 -225l-6 -6s-85.5 2 -185.5 2h-99.5c0 -45.9 11.2 -81 33.2 -105c23.8 -25.9 60.2 -39 108.8 -39
c42 0 90.5 3.5 137 41z" />
    <glyph glyph-name="Edotaccent" unicode="&#x116;" horiz-adv-x="594" 
d="M224 792c0 38 31 69 71 69s71 -31 71 -69s-31 -69 -71 -69s-71 31 -71 69zM240 200c0 -17 1 -103 8 -127c134 0 296 22 296 22l2 -4c-1 -8 -2 -45 -2 -55s0.5 -22.8 2 -36l-2 -3c-16 2 -39 3 -60 3h-314c-35 0 -85 -3 -85 -3l-1 3c8 54 12 125 12 200v245
c0 75 -4 143 -12 200l2 3s50 -3 84 -3h304c21 0 44 1 60 3l2 -3c-1.20001 -14 -2 -27 -2 -35c0 -9 1 -33 2 -41l-2 -4s-152 12 -286 12c-7 -24 -8 -115 -8 -132v-73c118 0 178 5 237 10l3 -3c-2 -9 -3 -28 -3 -37s1 -29 3 -38l-3 -3c-69 7 -189 10 -237 10v-111z" />
    <glyph glyph-name="edotaccent" unicode="&#x117;" horiz-adv-x="508" 
d="M175 607c0 38 31 69 71 69s71 -31 71 -69s-31 -69 -71 -69s-71 31 -71 69zM173 255h156c0 87.5 -24.1 134 -65 134c-28.3 0 -47.8 -12.7 -60.5 -30c-14.8 -20.2 -27 -55 -30.5 -104zM448 107c10 0 16 -18 16 -31c-54.5 -63 -126 -86 -198 -86c-75 0 -133.8 16.5 -168 52
c-41.3 42.9 -63 105 -63 164c0 82.9 33 143 81.5 183c39.7 32.7 99.5 50 154.5 50c154 0 189 -100 189 -225l-6 -6s-85.5 2 -185.5 2h-99.5c0 -45.9 11.2 -81 33.2 -105c23.8 -25.9 60.2 -39 108.8 -39c42 0 90.5 3.5 137 41z" />
    <glyph glyph-name="Eogonek" unicode="&#x118;" horiz-adv-x="594" 
d="M561.4 -157.4c-24.9 -28.1 -64.2 -46.2 -104.4 -46.2c-61.6 0 -107.8 41.8 -107.8 98.9c0 32.9 32 69.9 72.9 104.7h-252.1c-35 0 -85 -3 -85 -3l-1 3c8 54 12 125 12 200v245c0 75 -4 143 -12 200l2 3s50 -3 84 -3h304c21 0 44 1 60 3l2 -3c-1.20001 -14 -2 -27 -2 -35
c0 -9 1 -33 2 -41l-2 -4s-152 12 -286 12c-7 -24 -8 -115 -8 -132v-73c118 0 178 5 237 10l3 -3c-2 -9 -3 -28 -3 -37s1 -29 3 -38l-3 -3c-69 7 -189 10 -237 10v-111c0 -17 1 -103 8 -127c134 0 296 22 296 22l2 -4c-1 -8 -2 -45 -2 -55s0.5 -22.8 2 -36l-2 -3
c-16 2 -39 3 -60 3h-1.79999c-25.1 -24.5 -42.5 -51.1 -42.5 -79.6c0 -36.6 24.6 -55 64.6 -55c16.2 0 33 3.3 45.4 11.4c8.79999 -7.3 12 -17 12 -27.9c0 -2.09999 -0.100037 -4.2 -0.299988 -6.29999z" />
    <glyph glyph-name="eogonek" unicode="&#x119;" horiz-adv-x="508" 
d="M431.4 -157.4c-24.9 -28.1 -64.2 -46.2 -104.4 -46.2c-61.6 0 -107.8 41.8 -107.8 98.9c0 29.9 26.3 63.1 61.8 95c-5 -0.2 -10 -0.3 -15 -0.3c-75 0 -133.8 16.5 -168 52c-41.3 42.9 -63 105 -63 164c0 82.9 33 143 81.5 183c39.7 32.7 99.5 50 154.5 50
c154 0 189 -100 189 -225l-6 -6s-85.5 2 -185.5 2h-99.5c0 -45.9 11.2 -81 33.2 -105c23.8 -25.9 60.2 -39 108.8 -39c42 0 90.5 3.5 137 41c10 0 16 -18 16 -31c-31.4 -36.3 -68.5 -59.3 -108 -72.3c-27.1 -25.5 -46.3 -53.4 -46.3 -83.3c0 -36.6 24.6 -55 64.6 -55
c16.2 0 33 3.3 45.4 11.4c8.79999 -7.3 12 -17 12 -27.9c0 -2.09999 -0.100006 -4.2 -0.300018 -6.29999zM173 255h156c0 87.5 -24.1 134 -65 134c-28.3 0 -47.8 -12.7 -60.5 -30c-14.8 -20.2 -27 -55 -30.5 -104z" />
    <glyph glyph-name="Ecaron" unicode="&#x11a;" horiz-adv-x="594" 
d="M168 802l16 31c46 -18 88 -36 131 -56c42 20 86 38 132 56l16 -31c-45 -36 -94 -79 -133 -118h-30c-39 41 -87.5 82 -132 118zM240 200c0 -17 1 -103 8 -127c134 0 296 22 296 22l2 -4c-1 -8 -2 -45 -2 -55s0.5 -22.8 2 -36l-2 -3c-16 2 -39 3 -60 3h-314
c-35 0 -85 -3 -85 -3l-1 3c8 54 12 125 12 200v245c0 75 -4 143 -12 200l2 3s50 -3 84 -3h304c21 0 44 1 60 3l2 -3c-1.20001 -14 -2 -27 -2 -35c0 -9 1 -33 2 -41l-2 -4s-152 12 -286 12c-7 -24 -8 -115 -8 -132v-73c118 0 178 5 237 10l3 -3c-2 -9 -3 -28 -3 -37
s1 -29 3 -38l-3 -3c-69 7 -189 10 -237 10v-111z" />
    <glyph glyph-name="ecaron" unicode="&#x11b;" horiz-adv-x="508" 
d="M116 645l27 19c47 -26 80 -45 118 -82c42 39 73 56 117 82l27 -19c-82 -86 -95 -103 -129 -151h-33c-38 54 -53 77 -127 151zM173 255h156c0 87.5 -24.1 134 -65 134c-28.3 0 -47.8 -12.7 -60.5 -30c-14.8 -20.2 -27 -55 -30.5 -104zM448 107c10 0 16 -18 16 -31
c-54.5 -63 -126 -86 -198 -86c-75 0 -133.8 16.5 -168 52c-41.3 42.9 -63 105 -63 164c0 82.9 33 143 81.5 183c39.7 32.7 99.5 50 154.5 50c154 0 189 -100 189 -225l-6 -6s-85.5 2 -185.5 2h-99.5c0 -45.9 11.2 -81 33.2 -105c23.8 -25.9 60.2 -39 108.8 -39
c42 0 90.5 3.5 137 41z" />
    <glyph glyph-name="Gcircumflex" unicode="&#x11c;" horiz-adv-x="753" 
d="M552 715l-16 -31c-46 18 -90.5 38 -133 59c-41.5 -22.5 -88 -41 -134 -59l-16 31c45 36 96 79 135 118h30c39 -41 89.3 -82.3 134 -118zM539 117c0 75 -2 133 -10 190l2 3s48 -3 82 -3c35 0 73 3 73 3l1 -3c-8 -53 -10 -95 -10 -170c0 -32.4 3.90002 -46.5 10 -54v-3
c-67.5 -56.6 -180.5 -90 -297 -90c-82.3 0 -136.2 17.6 -196 58c-86.2 58.3 -142 156.8 -142 259c0 113 44.4 208.5 119 268c69 55 134 83 234 83c122 0 239 -45 239 -45l2 -3c-11.8 -49.3 -16.4 -79 -20 -130l-30 -1c-41 82 -126.9 123 -205 123
c-135 0 -178 -114 -178 -275c0 -132 64 -282 200 -282c54 0 92 6 126 38v34z" />
    <glyph glyph-name="gcircumflex" unicode="&#x11d;" horiz-adv-x="561" 
d="M403 522l-27 -24c-48 23 -80 50 -118 87c-42 -39 -73.5 -65 -117 -87l-27 24c46.5 47 95 107 128 156h34c37.5 -55 78.5 -107.5 127 -156zM459 289c0 -93.1 -85 -148 -201 -148c-34.1 0 -61.2 5 -75.5 11c-11 -17 -11.5 -28.9 -11.5 -45c0 -43 30 -48 58 -48
c5 0 5 1 19 2c23 3 46 5 63 5c92 0 219 -20 219 -134c0 -53.4 -44.5 -103.5 -103.5 -132.5c-60.4 -29.7 -136.2 -37.5 -201.5 -37.5c-89.2 0 -193 27 -193 114c0 24.8 5 56 22 78c24 14 62.4 28.4 84 42c-55.5 8.5 -79 36 -79 78c0 32.8 42.5 71 87 86l2 5
s-24.7 7.60001 -39.5 18c-25.7 18 -54.5 46 -54.5 102c0 96 89 154 197 154c21.5 0 54.4 -3 72.3 -8.60001c74.6 3.89999 137.9 4.5 185.7 8.60001l3 -3c-2 -9 -3 -20 -3 -29s1 -18 3 -27l-3 -3c-34.8 2.39999 -71.3 8.10001 -101.1 8.60001c31.1 -21 51.1 -62.1 51.1 -96.6
zM326 288c0 75 -11 111 -71 111c-52 0 -68 -43 -68 -109c0 -73 10 -109 71 -109c48 0 68 36 68 107zM183 -16c-26 -27 -32 -54.9 -32 -88c0 -68 68 -89 102 -89c86 0 147 41 147 102c0 69.2 -68 74 -124 74c-13.8 0 -40.5 -1 -70 -1c-9 0 -16.6 1.2 -23 2z" />
    <glyph glyph-name="Gbreve" unicode="&#x11e;" horiz-adv-x="753" 
d="M548 841c0 -81 -76 -136 -149 -136c-80 0 -150 55.5 -150 136h31c0 -34 61 -56 119 -56c54 0 119 22 119 56h30zM539 117c0 75 -2 133 -10 190l2 3s48 -3 82 -3c35 0 73 3 73 3l1 -3c-8 -53 -10 -95 -10 -170c0 -32.4 3.90002 -46.5 10 -54v-3
c-67.5 -56.6 -180.5 -90 -297 -90c-82.3 0 -136.2 17.6 -196 58c-86.2 58.3 -142 156.8 -142 259c0 113 44.4 208.5 119 268c69 55 134 83 234 83c122 0 239 -45 239 -45l2 -3c-11.8 -49.3 -16.4 -79 -20 -130l-30 -1c-41 82 -126.9 123 -205 123
c-135 0 -178 -114 -178 -275c0 -132 64 -282 200 -282c54 0 92 6 126 38v34z" />
    <glyph glyph-name="gbreve" unicode="&#x11f;" horiz-adv-x="561" 
d="M156 661c16 -58.5 53 -78 107 -78c52.5 0 95 22.5 106 78h33c-5 -103 -68 -154 -139 -154c-70 0 -134.5 48.5 -140 154h33zM459 289c0 -93.1 -85 -148 -201 -148c-34.1 0 -61.2 5 -75.5 11c-11 -17 -11.5 -28.9 -11.5 -45c0 -43 30 -48 58 -48c5 0 5 1 19 2
c23 3 46 5 63 5c92 0 219 -20 219 -134c0 -53.4 -44.5 -103.5 -103.5 -132.5c-60.4 -29.7 -136.2 -37.5 -201.5 -37.5c-89.2 0 -193 27 -193 114c0 24.8 5 56 22 78c24 14 62.4 28.4 84 42c-55.5 8.5 -79 36 -79 78c0 32.8 42.5 71 87 86l2 5s-24.7 7.60001 -39.5 18
c-25.7 18 -54.5 46 -54.5 102c0 96 89 154 197 154c21.5 0 54.4 -3 72.3 -8.60001c74.6 3.89999 137.9 4.5 185.7 8.60001l3 -3c-2 -9 -3 -20 -3 -29s1 -18 3 -27l-3 -3c-34.8 2.39999 -71.3 8.10001 -101.1 8.60001c31.1 -21 51.1 -62.1 51.1 -96.6zM326 288
c0 75 -11 111 -71 111c-52 0 -68 -43 -68 -109c0 -73 10 -109 71 -109c48 0 68 36 68 107zM183 -16c-26 -27 -32 -54.9 -32 -88c0 -68 68 -89 102 -89c86 0 147 41 147 102c0 69.2 -68 74 -124 74c-13.8 0 -40.5 -1 -70 -1c-9 0 -16.6 1.2 -23 2z" />
    <glyph glyph-name="Gdotaccent" unicode="&#x120;" horiz-adv-x="753" 
d="M324 792c0 38 31 69 71 69s71 -31 71 -69s-31 -69 -71 -69s-71 31 -71 69zM539 117c0 75 -2 133 -10 190l2 3s48 -3 82 -3c35 0 73 3 73 3l1 -3c-8 -53 -10 -95 -10 -170c0 -32.4 3.90002 -46.5 10 -54v-3c-67.5 -56.6 -180.5 -90 -297 -90c-82.3 0 -136.2 17.6 -196 58
c-86.2 58.3 -142 156.8 -142 259c0 113 44.4 208.5 119 268c69 55 134 83 234 83c122 0 239 -45 239 -45l2 -3c-11.8 -49.3 -16.4 -79 -20 -130l-30 -1c-41 82 -126.9 123 -205 123c-135 0 -178 -114 -178 -275c0 -132 64 -282 200 -282c54 0 92 6 126 38v34z" />
    <glyph glyph-name="gdotaccent" unicode="&#x121;" horiz-adv-x="561" 
d="M193 607c0 38 31 69 71 69s71 -31 71 -69s-31 -69 -71 -69s-71 31 -71 69zM459 289c0 -93.1 -85 -148 -201 -148c-34.1 0 -61.2 5 -75.5 11c-11 -17 -11.5 -28.9 -11.5 -45c0 -43 30 -48 58 -48c5 0 5 1 19 2c23 3 46 5 63 5c92 0 219 -20 219 -134
c0 -53.4 -44.5 -103.5 -103.5 -132.5c-60.4 -29.7 -136.2 -37.5 -201.5 -37.5c-89.2 0 -193 27 -193 114c0 24.8 5 56 22 78c24 14 62.4 28.4 84 42c-55.5 8.5 -79 36 -79 78c0 32.8 42.5 71 87 86l2 5s-24.7 7.60001 -39.5 18c-25.7 18 -54.5 46 -54.5 102
c0 96 89 154 197 154c21.5 0 54.4 -3 72.3 -8.60001c74.6 3.89999 137.9 4.5 185.7 8.60001l3 -3c-2 -9 -3 -20 -3 -29s1 -18 3 -27l-3 -3c-34.8 2.39999 -71.3 8.10001 -101.1 8.60001c31.1 -21 51.1 -62.1 51.1 -96.6zM326 288c0 75 -11 111 -71 111
c-52 0 -68 -43 -68 -109c0 -73 10 -109 71 -109c48 0 68 36 68 107zM183 -16c-26 -27 -32 -54.9 -32 -88c0 -68 68 -89 102 -89c86 0 147 41 147 102c0 69.2 -68 74 -124 74c-13.8 0 -40.5 -1 -70 -1c-9 0 -16.6 1.2 -23 2z" />
    <glyph glyph-name="Gcommaaccent" unicode="&#x122;" horiz-adv-x="753" 
d="M316 -97v4c3 26 28 47 64 51h6c21.9 -2.4 42.7 -8.6 57 -27c15.1 -19.4 25 -48.8 25 -78c0 -73 -78 -96 -154 -96c-7 5 -9 21 -5 30c65 0 94 14 94 32c0 22 -12.1 35.4 -28 37c-40 4 -57 19 -59 47zM539 117c0 75 -2 133 -10 190l2 3s48 -3 82 -3c35 0 73 3 73 3l1 -3
c-8 -53 -10 -95 -10 -170c0 -32.4 3.90002 -46.5 10 -54v-3c-67.5 -56.6 -180.5 -90 -297 -90c-82.3 0 -136.2 17.6 -196 58c-86.2 58.3 -142 156.8 -142 259c0 113 44.4 208.5 119 268c69 55 134 83 234 83c122 0 239 -45 239 -45l2 -3c-11.8 -49.3 -16.4 -79 -20 -130
l-30 -1c-41 82 -126.9 123 -205 123c-135 0 -178 -114 -178 -275c0 -132 64 -282 200 -282c54 0 92 6 126 38v34z" />
    <glyph glyph-name="gcommaaccent" unicode="&#x123;" horiz-adv-x="561" 
d="M332 559v-4c-3 -26 -32 -54 -68 -58h-6c-45 5 -80 46 -80 103c0 62 76 110 152 120c8 -5 9 -21 5 -30c-66 -13 -92 -38 -92 -56c0 -22 10 -24 26 -24c40 -6 61 -23 63 -51zM459 289c0 -93.1 -85 -148 -201 -148c-34.1 0 -61.2 5 -75.5 11c-11 -17 -11.5 -28.9 -11.5 -45
c0 -43 30 -48 58 -48c5 0 5 1 19 2c23 3 46 5 63 5c92 0 219 -20 219 -134c0 -53.4 -44.5 -103.5 -103.5 -132.5c-60.4 -29.7 -136.2 -37.5 -201.5 -37.5c-89.2 0 -193 27 -193 114c0 24.8 5 56 22 78c24 14 62.4 28.4 84 42c-55.5 8.5 -79 36 -79 78c0 32.8 42.5 71 87 86
l2 5s-24.7 7.60001 -39.5 18c-25.7 18 -54.5 46 -54.5 102c0 96 89 154 197 154c21.5 0 54.4 -3 72.3 -8.60001c74.6 3.89999 137.9 4.5 185.7 8.60001l3 -3c-2 -9 -3 -20 -3 -29s1 -18 3 -27l-3 -3c-34.8 2.39999 -71.3 8.10001 -101.1 8.60001
c31.1 -21 51.1 -62.1 51.1 -96.6zM326 288c0 75 -11 111 -71 111c-52 0 -68 -43 -68 -109c0 -73 10 -109 71 -109c48 0 68 36 68 107zM183 -16c-26 -27 -32 -54.9 -32 -88c0 -68 68 -89 102 -89c86 0 147 41 147 102c0 69.2 -68 74 -124 74c-13.8 0 -40.5 -1 -70 -1
c-9 0 -16.6 1.2 -23 2z" />
    <glyph glyph-name="Hcircumflex" unicode="&#x124;" horiz-adv-x="764" 
d="M548 715l-16 -31c-46 18 -90.5 38 -133 59c-41.5 -22.5 -88 -41 -134 -59l-16 31c45 36 96 79 135 118h30c39 -41 89.3 -82.3 134 -118zM527 445c0 75 -4 143 -12 200l2 3s48 -3 82 -3c35 0 83 3 83 3l1 -3c-8 -53 -12 -125 -12 -200v-245c0 -75 4 -143 12 -200l-2 -3
s-48 3 -82 3c-35 0 -83 -3 -83 -3l-1 3c8 54 12 125 12 200v111h-290v-111c0 -75 4 -143 12 -200l-2 -3s-48 3 -82 3c-35 0 -83 -3 -83 -3l-1 3c8 54 12 125 12 200v245c0 75 -4 143 -12 200l2 3s48 -3 82 -3c35 0 83 3 83 3l1 -3c-8 -53 -12 -125 -12 -200v-82h290v82z" />
    <glyph glyph-name="hcircumflex" unicode="&#x125;" horiz-adv-x="606" 
d="M86 474c0 76 -4.3 145.3 -12 188l2 3c40.5 3 117.9 23 143 33c6.3 0 9 -3 9 -10c-7.7 -61.3 -10 -113 -10 -188v-62l-4 -87l4 -2c46 59 120 90 171 90c90 0 129 -58 129 -148v-111c0 -76 1 -123 10 -180l-2 -3s-27 3 -61 3c-35 0 -84 -3 -84 -3l-1 3c6 53 6 105 6 180v89
c0 73 -25 93 -52 93c-36 0 -78 -30 -116 -80v-102c0 -76 1 -123 6 -180l-2 -3s-32.7 3 -67 3c-35 0 -80 -3 -80 -3l-1 3c8.5 53.5 12 105 12 180v294zM494 776l-16 -31c-46 18 -90.5 38 -133 59c-41.5 -22.5 -88 -41 -134 -59l-16 31c45 36 96 79 135 118h30
c39 -41 89.3 -82.3 134 -118z" />
    <glyph glyph-name="Hbar" unicode="&#x126;" horiz-adv-x="764" 
d="M527 311h-290v-111c0 -75 4 -143 12 -200l-2 -3s-48 3 -82 3c-35 0 -83 -3 -83 -3l-1 3c8 54 12 125 12 200v245c0 23 -0.300003 45.4 -1.1 67h-50.9v44h48.7c-2 31.9 -4.89999 61.7 -8.7 89l2 3s48 -3 82 -3c35 0 83 3 83 3l1 -3c-3.89999 -25.8 -6.8 -56.1 -8.8 -89
h283.5c-2 31.9 -4.90002 61.7 -8.70001 89l2 3s48 -3 82 -3c35 0 83 3 83 3l1 -3c-3.90002 -25.8 -6.79999 -56.1 -8.79999 -89h86.8v-44h-88.9c-0.699951 -21.8 -1.09998 -44.2 -1.09998 -67v-245c0 -75 4 -143 12 -200l-2 -3s-48 3 -82 3c-35 0 -83 -3 -83 -3l-1 3
c8 54 12 125 12 200v111zM527 363v82c0 23 -0.299988 45.4 -1.09998 67h-287.8c-0.700012 -21.8 -1.10001 -44.2 -1.10001 -67v-82h290z" />
    <glyph glyph-name="hbar" unicode="&#x127;" horiz-adv-x="606" 
d="M-9 523v51c30 -1.90002 60.7 -3.5 92.5 -4.5c-2 36.8 -5.2 68.8 -9.5 92.5l2 3c40.5 3 117.9 23 143 33c6.3 0 9 -3 9 -10c-5.10001 -40.8 -7.8 -77.4 -9.10001 -119.4c37.7 0.800049 77.3 2.5 119.1 5.40002v-51c-39.3 2.70001 -79.3 4.59998 -119.9 5.40002
c-0.100006 -9.10004 -0.100006 -18.6 -0.100006 -28.4v-62l-4 -87l4 -2c46 59 120 90 171 90c90 0 129 -58 129 -148v-111c0 -76 1 -123 10 -180l-2 -3s-27 3 -61 3c-35 0 -84 -3 -84 -3l-1 3c6 53 6 105 6 180v89c0 73 -25 93 -52 93c-36 0 -78 -30 -116 -80v-102
c0 -76 1 -123 6 -180l-2 -3s-32.7 3 -67 3c-35 0 -80 -3 -80 -3l-1 3c8.5 53.5 12 105 12 180v294c0 18.4 -0.199997 36.4 -0.699997 53.7c-31 -1 -62.5 -2.60004 -94.3 -4.70001z" />
    <glyph glyph-name="Itilde" unicode="&#x128;" horiz-adv-x="330" 
d="M239 792c21 0 36 6 49 42l32 -9c-14 -64 -49 -107 -100 -107c-42.1 0 -77.9 42 -118 42c-29 0 -41 -12 -49 -43l-33 7c15 64 46 109 94 109c49.7 0 76.5 -41 125 -41zM93 445c0 75 -4 143 -12 200l2 3s48 -3 82 -3c35 0 83 3 83 3l1 -3c-8 -53 -12 -125 -12 -200v-245
c0 -75 4 -143 12 -200l-2 -3s-48 3 -82 3c-35 0 -83 -3 -83 -3l-1 3c8 54 12 125 12 200v245z" />
    <glyph glyph-name="itilde" unicode="&#x129;" horiz-adv-x="312" 
d="M210.5 591c18.9 0 32.4 6 44.1 42l28.8 -9c-12.6 -64 -44.1 -107 -90 -107c-37.9 0 -70.1 42 -106.2 42c-26.1 0 -36.9 -12 -44.1 -43l-29.7 7c13.5 64 41.4 109 84.6 109c44.7 0 68.9 -41 112.5 -41zM90 235c0 75 -2 150 -10 193l3 4c17.7 -1.29999 45 -3 71 -3
c28 0 55.3 3 69 5c6 0 9 -3 9 -10c-6.3 -60 -10 -103 -10 -178v-66c0 -76 2 -123 10 -180l-2 -3c-18.7 2 -40 3 -74 3c-35 0 -53.3 -0.7 -74 -3l-2 3c8 54 10 105 10 180v55z" />
    <glyph glyph-name="Imacron" unicode="&#x12a;" horiz-adv-x="330" 
d="M302 744h-274c-11 0 -15 14 -15 23c0 12 12 37 25 37h276c10 0 14 -14 14 -22c0 -13 -12 -38 -26 -38zM93 445c0 75 -4 143 -12 200l2 3s48 -3 82 -3c35 0 83 3 83 3l1 -3c-8 -53 -12 -125 -12 -200v-245c0 -75 4 -143 12 -200l-2 -3s-48 3 -82 3c-35 0 -83 -3 -83 -3
l-1 3c8 54 12 125 12 200v245z" />
    <glyph glyph-name="imacron" unicode="&#x12b;" horiz-adv-x="312" 
d="M280.2 530h-246.6c-9.9 0 -13.5 14 -13.5 23c0 12 10.8 37 22.5 37h248.4c9 0 12.6 -14 12.6 -22c0 -13 -10.8 -38 -23.4 -38zM90 235c0 75 -2 150 -10 193l3 4c17.7 -1.29999 45 -3 71 -3c28 0 55.3 3 69 5c6 0 9 -3 9 -10c-6.3 -60 -10 -103 -10 -178v-66
c0 -76 2 -123 10 -180l-2 -3c-18.7 2 -40 3 -74 3c-35 0 -53.3 -0.7 -74 -3l-2 3c8 54 10 105 10 180v55z" />
    <glyph glyph-name="Ibreve" unicode="&#x12c;" horiz-adv-x="330" 
d="M328 841c0 -81 -76 -136 -149 -136c-80 0 -150 55.5 -150 136h31c0 -34 61 -56 119 -56c54 0 119 22 119 56h30zM93 445c0 75 -4 143 -12 200l2 3s48 -3 82 -3c35 0 83 3 83 3l1 -3c-8 -53 -12 -125 -12 -200v-245c0 -75 4 -143 12 -200l-2 -3s-48 3 -82 3
c-35 0 -83 -3 -83 -3l-1 3c8 54 12 125 12 200v245z" />
    <glyph glyph-name="ibreve" unicode="&#x12d;" horiz-adv-x="312" 
d="M47.8 635c14.4 -58.5 47.7 -78 96.3 -78c47.2 0 85.5 22.5 95.4 78h29.7c-4.5 -103 -61.2 -154 -125.1 -154c-63 0 -121 48.5 -126 154h29.7zM90 235c0 75 -2 150 -10 193l3 4c17.7 -1.29999 45 -3 71 -3c28 0 55.3 3 69 5c6 0 9 -3 9 -10c-6.3 -60 -10 -103 -10 -178
v-66c0 -76 2 -123 10 -180l-2 -3c-18.7 2 -40 3 -74 3c-35 0 -53.3 -0.7 -74 -3l-2 3c8 54 10 105 10 180v55z" />
    <glyph glyph-name="Iogonek" unicode="&#x12e;" horiz-adv-x="330" 
d="M275 -139c-17 -50 -68 -83 -127 -83c-49 0 -97 39 -97 100c0 46.4 5.8 76.4 30.3 121.1l-0.300003 0.9c8 54 12 125 12 200v245c0 75 -4 143 -12 200l2 3s48 -3 82 -3c35 0 83 3 83 3l1 -3c-8 -53 -12 -125 -12 -200v-245c0 -75 4 -143 12 -200l-2 -3s-48 3 -82 3
c-3.7 0 -7.60001 0 -11.6 -0.1c-15.6 -35.8 -16.4 -72.8 -16.4 -92.9c0 -26.9 20 -49 47 -49c23 0 51.5 7.2 67 30c13 -4 20 -14 24 -27z" />
    <glyph glyph-name="iogonek" unicode="&#x12f;" horiz-adv-x="312" 
d="M262 -139c-17 -50 -68 -83 -127 -83c-49 0 -97 39 -97 100c0 54.7 8.1 86.6 45.3 146.6c5.3 45.5 6.7 91.8 6.7 155.4v55c0 75 -2 150 -10 193l3 4c17.7 -1.29999 45 -3 71 -3c28 0 55.3 3 69 5c6 0 9 -3 9 -10c-6.3 -60 -10 -103 -10 -178v-66c0 -76 2 -123 10 -180
l-2 -3c-18.7 2 -40 3 -74 3c-5.60001 0 -10.8 -0.1 -15.6 -0.1c-15.7 -35.8 -16.4 -72.8 -16.4 -92.9c0 -26.9 20 -49 47 -49c23 0 51.5 7.2 67 30c13 -4 20 -14 24 -27zM85 607c0 38 31 69 71 69s71 -31 71 -69s-31 -69 -71 -69s-71 31 -71 69z" />
    <glyph glyph-name="Idotaccent" unicode="&#x130;" horiz-adv-x="330" 
d="M107 792c0 38 31 69 71 69s71 -31 71 -69s-31 -69 -71 -69s-71 31 -71 69zM93 445c0 75 -4 143 -12 200l2 3s48 -3 82 -3c35 0 83 3 83 3l1 -3c-8 -53 -12 -125 -12 -200v-245c0 -75 4 -143 12 -200l-2 -3s-48 3 -82 3c-35 0 -83 -3 -83 -3l-1 3c8 54 12 125 12 200v245z
" />
    <glyph glyph-name="afii10057" unicode="&#x408;" horiz-adv-x="443" 
d="M210 346v99c0 75 -2 143 -10 200l2 3s48 -3 82 -3c35 0 79 3 79 3l1 -3c-8 -53 -10 -125 -10 -200v-137c0 -114.5 -10.6 -155.3 -69 -227c-51.9 -63.7 -127 -91 -190 -91c-19 0 -67 4 -75 9l-1 3c11 19 27 92 27 121l29 6c11 -20 53 -57 82 -57c42.1 0 57 51.8 57 95
c0 69.8 -4 138 -4 179z" />
    <glyph glyph-name="afii10061" unicode="&#x40c;" horiz-adv-x="693" 
d="M93 445c0 75 -4 143 -12 200l2 3s48 -3 82 -3c35 0 83 3 83 3l1 -3c-8 -53 -12 -125 -12 -200v-83.8c12.5 5.19998 25.3 15.8 41.9 31.8c75.8 73 151 161.4 227.1 255c13 -3 71 -3 84 -3c15 0 75 0 91 3c-88 -77 -246 -215 -314 -294c0 -1.70001 4 -4 10 -5
c69 -12 102 -49 144 -103c54 -70 72 -157 152 -246l-3 -4c-13 2 -84 4 -107 4c-25 0 -45 -2 -67 -4c-46 77 -66 119 -91 173c-36.2 78.2 -67.6 133.5 -168 142.5v-111.5c0 -75 4 -143 12 -200l-2 -3s-48 3 -82 3c-35 0 -83 -3 -83 -3l-1 3c8 54 12 125 12 200v245zM432 843
c27.4 -18.7 48 -52 57 -81l-7 -13.9l-152 -44.1c-22.2 -6.40002 -30.9 -9 -39 -9s-16 16 -16 25c0 7 1.79999 14.8 15 24z" />
    <glyph glyph-name="uni040D" unicode="&#x40d;" horiz-adv-x="746" 
d="M297 843l142 -99c13.2 -9.20001 15 -17 15 -24c0 -9 -7.89999 -25 -16 -25s-16.8 2.59998 -39 9l-152 44.1l-7 13.9c9 29 29.6 62.3 57 81zM93 445c0 75 -4 143 -12 200l2 3s48 -3 82 -3c35 0 83 3 83 3l1 -3c-8 -53 -12 -125 -12 -200v-245
c0 -5.60001 0.100006 -11.2 0.100006 -16.7l269.8 352.3c-1.89999 39.6 -5.29999 76.4 -9.89999 109.4l2 3s48 -3 82 -3c35 0 83 3 83 3l1 -3c-8 -53 -12 -125 -12 -200v-245c0 -75 4 -143 12 -200l-2 -3s-48 3 -82 3c-35 0 -83 -3 -83 -3l-1 3c8 54 12 125 12 200v245
c0 5.79999 -0.100006 11.6 -0.100006 17.3l-269.8 -352.4c1.89999 -39.8 5.2 -76.7 9.89999 -109.9l-2 -3s-48 3 -82 3c-35 0 -83 -3 -83 -3l-1 3c8 54 12 125 12 200v245z" />
    <glyph glyph-name="afii10062" unicode="&#x40e;" horiz-adv-x="620" 
d="M260.1 87.4c-77.1 195.6 -205.3 482.2 -244.1 560.6c17 -3 83 -3 100 -3s70 0 87 3c29 -118 47.6 -189.3 141 -407c58.9 139.6 115.9 309.5 142 407c12 -3 61 -3 72 -3s33 0 45 3l-229 -517c-25.7 -58.1 -39.6 -85.5 -74.5 -118c-40.9 -38.1 -86.8 -52.9 -135.2 -52.9
c-31.7 0 -95 8.9 -111 22.4l-0.599998 3.1c13.6 17.2 39.9 87.2 44 115.9l29.6 1.9c8.5 -22.6 41.1 -68.7 74.8 -68.7c23.4 0 48.4 29.2 59 52.7zM350 755c33 0 51 17 51 34c0 5 -1 11 -1 13c0 15 20 30 43 30c27 0 37 -14 37 -33c0 -52 -64 -85 -130 -85s-130 33 -130 85
c0 19 10 33 37 33c23 0 43 -15 43 -30c0 -2 -1 -8 -1 -13c0 -17 18 -34 51 -34z" />
    <glyph glyph-name="afii10020" unicode="&#x413;" horiz-adv-x="563" 
d="M247 435v-235c0 -75 2 -147 10 -200l-1 -3s-48 3 -83 3c-34 0 -79 -3 -79 -3l-2 3c8 57 11 125 11 200v245c0 75 -2 146 -10 200l1 3s49 -3 83 -3h304c21 0 44 1 60 3l2 -3c-1 -14 -2 -32 -2 -42s1 -49 2 -57l-2 -4s-152 22 -286 22c-7 -24 -8 -112 -8 -129z" />
    <glyph glyph-name="afii10021" unicode="&#x414;" horiz-adv-x="740" 
d="M447 53c16 0 22 6 25 15c6 24 8 115 8 132v236c0 17 -2 119 -8 143c-6 9 -9 13 -23 13h-113c-24 0 -33 -10 -35 -35c-7 -101 -20 -196 -31 -264c-20 -117 -43 -207 -43 -228c0 -12 12 -12 25 -12h195zM211 0c-96 0 -110 -65 -123 -138l-3 -3h-58l-3 3l-14 149
c0 10 6 18 36 21c24 2 49 0 66 15c31 26 49 98 87 254c26 114 36 217 36 280c0 22 -3 44 -7 64l1 3s32 -3 73 -3h270c41 0 63 3 63 3l1 -3c-10 -54 -12 -125 -12 -200v-245c0 -110 8 -165 49 -168c30 -2 36 -11 36 -21l-14 -149l-3 -3h-58l-2 3c-13 73 -28 138 -124 138
h-297z" />
    <glyph glyph-name="afii10024" unicode="&#x416;" horiz-adv-x="1013" 
d="M436 445c0 75 -4 143 -12 200l2 3s48 -3 82 -3c35 0 83 3 83 3l1 -3c-8 -53 -12 -125 -12 -200v-69.5c5.90002 4.79999 12.2 10.7 19 17.5c76 73 151 161 227 255c13 -3 71 -3 84 -3c15 0 75 0 91 3c-88 -77 -246 -215 -314 -294c0 -2 4 -4 10 -5
c69 -12 102 -49 144 -103c54 -70 72 -157 152 -246l-3 -4c-13 2 -84 4 -107 4c-25 0 -45 -2 -67 -4c-46 77 -66 119 -91 173c-33.3 71.9 -62.5 124.4 -145 139.4v-108.4c0 -75 4 -143 12 -200l-2 -3s-48 3 -82 3c-35 0 -83 -3 -83 -3l-1 3c8 54 12 125 12 200v108.9
c-84.8 -14.2 -114.3 -67.1 -148 -139.9c-25 -54 -45 -96 -91 -173c-22 2 -42 4 -67 4c-23 0 -94 -2 -107 -4l-3 4c80 89 98 176 152 246c42 54 75 91 144 103c6 1 10 3 10 5c-68 79 -226 217 -314 294c16 -3 76 -3 91 -3c13 0 71 0 84 3c76 -94 151 -182 227 -255
c8 -8 15.2 -14.7 22 -19.9v71.9z" />
    <glyph glyph-name="afii10025" unicode="&#x417;" horiz-adv-x="551" 
d="M248 41c69.8 0 118 36 118 135c0 51 0 152 -117 152h-73c-11 0 -18 15 -18 26s7 27 18 27h47c110.8 0 113 78 113 125c0 44 -32.2 102 -87 102c-123 0 -121 -58 -145 -139l-55 2l15 147c79 30 127 40 187 40c148 0 233 -40 233 -142c0 -79 -35.2 -135 -117 -156
c109.8 -21 159 -57 159 -178c0 -142.2 -130.2 -194 -280 -194c-81 0 -129 14 -166 43c-32 25 -57 58 -57 90c0 31 17 56 45 56c34 0 51 -16 64 -54c25 -73 40 -82 116 -82z" />
    <glyph glyph-name="afii10026" unicode="&#x418;" horiz-adv-x="746" 
d="M93 445c0 75 -4 143 -12 200l2 3s48 -3 82 -3c35 0 83 3 83 3l1 -3c-8 -53 -12 -125 -12 -200v-245c0 -5.60001 0.100006 -11.2 0.100006 -16.7l269.8 352.3c-1.89999 39.6 -5.29999 76.4 -9.89999 109.4l2 3s48 -3 82 -3c35 0 83 3 83 3l1 -3c-8 -53 -12 -125 -12 -200
v-245c0 -75 4 -143 12 -200l-2 -3s-48 3 -82 3c-35 0 -83 -3 -83 -3l-1 3c8 54 12 125 12 200v245c0 5.79999 -0.100006 11.6 -0.100006 17.3l-269.8 -352.4c1.89999 -39.8 5.2 -76.7 9.89999 -109.9l-2 -3s-48 3 -82 3c-35 0 -83 -3 -83 -3l-1 3c8 54 12 125 12 200v245z
" />
    <glyph glyph-name="afii10027" unicode="&#x419;" horiz-adv-x="746" 
d="M93 445c0 75 -4 143 -12 200l2 3s48 -3 82 -3c35 0 83 3 83 3l1 -3c-8 -53 -12 -125 -12 -200v-245c0 -5.60001 0.100006 -11.2 0.100006 -16.7l269.8 352.3c-1.89999 39.6 -5.29999 76.4 -9.89999 109.4l2 3s48 -3 82 -3c35 0 83 3 83 3l1 -3c-8 -53 -12 -125 -12 -200
v-245c0 -75 4 -143 12 -200l-2 -3s-48 3 -82 3c-35 0 -83 -3 -83 -3l-1 3c8 54 12 125 12 200v245c0 5.79999 -0.100006 11.6 -0.100006 17.3l-269.8 -352.4c1.89999 -39.8 5.2 -76.7 9.89999 -109.9l-2 -3s-48 3 -82 3c-35 0 -83 -3 -83 -3l-1 3c8 54 12 125 12 200v245z
M372 755c33 0 51 17 51 34c0 5 -1 11 -1 13c0 15 20 30 43 30c27 0 37 -14 37 -33c0 -52 -64 -85 -130 -85s-130 33 -130 85c0 19 10 33 37 33c23 0 43 -15 43 -30c0 -2 -1 -8 -1 -13c0 -17 18 -34 51 -34z" />
    <glyph glyph-name="afii10033" unicode="&#x41f;" horiz-adv-x="784" 
d="M622 645c34 0 70 3 70 3l1 -3c-8 -54 -10 -125 -10 -200v-245c0 -75 3 -143 11 -200l-2 -3s-36 3 -70 3c-35 0 -92 -3 -92 -3l-1 3c8 53 10 125 10 200v245c0 17 -1 103 -8 127c-7 9 -11 13 -26 13h-226c-15 0 -19 -4 -26 -13c-7 -24 -8 -110 -8 -127v-245
c0 -75 2 -147 10 -200l-1 -3s-45 3 -80 3c-34 0 -82 -3 -82 -3l-2 3c8 57 11 125 11 200v245c0 75 -2 146 -10 200l1 3s48 -3 82 -3h448z" />
    <glyph glyph-name="afii10034" unicode="&#x420;" horiz-adv-x="598" 
d="M235 560v-225c13 -7 54 -10 79 -10c58.1 0 108 42 108 143c0 119 -48 136 -107 136c-72 0 -80 -15 -80 -44zM93 445c0 75 -4 143 -12 200l2 3s48 -3 82 -3c30 0 151 7 177 7c71.1 0 125.7 -9.40002 161 -34c56 -39 70 -95.7 70 -132c0 -103 -66 -212 -248 -212
c-35 0 -68 3 -90 10v-84c0 -75 4 -143 12 -200l-2 -3s-46 3 -80 3c-35 0 -83 -3 -83 -3l-1 3c8 54 12 125 12 200v245z" />
    <glyph glyph-name="afii10035" unicode="&#x421;" horiz-adv-x="706" 
d="M414 658c122 0 225 -45 225 -45l2 -3c-11.8 -49.3 -16.4 -79 -20 -130l-30 -1c-41 82 -94 124 -184 124c-82 0 -192 -71 -192 -274c0 -170.2 82 -279 191 -279c93 0 148 17 223 89l24 -34c-84 -87 -183.8 -115 -273 -115c-84.8 0 -144.9 17.7 -205 58
c-79 53 -123 157 -123 262c0 109.9 45.1 212.3 124 274c62.5 48.8 147 74 238 74z" />
    <glyph glyph-name="afii10036" unicode="&#x422;" horiz-adv-x="602" 
d="M229 436c0 17 -1 107 -8 131c-134 0 -204 -22 -204 -22l-2 4c2 15 2 68 0 96l2 3c16 -2 39 -3 60 -3h448c21 0 44 1 60 3l2 -3c-2 -28 -2 -81 0 -96l-2 -4s-70 22 -204 22c-7 -24 -8 -114 -8 -131v-236c0 -75 2 -143 10 -200l-2 -3s-46 3 -80 3c-35 0 -81 -3 -81 -3l-1 3
c8 54 10 125 10 200v236z" />
    <glyph glyph-name="afii10037" unicode="&#x423;" horiz-adv-x="620" 
d="M260.1 87.4c-77.1 195.6 -205.3 482.2 -244.1 560.6c17 -3 83 -3 100 -3s70 0 87 3c29 -118 47.6 -189.3 141 -407c58.9 139.6 115.9 309.5 142 407c12 -3 61 -3 72 -3s33 0 45 3l-229 -517c-25.7 -58.1 -39.6 -85.5 -74.5 -118c-40.9 -38.1 -86.8 -52.9 -135.2 -52.9
c-31.7 0 -95 8.9 -111 22.4l-0.599998 3.1c13.6 17.2 39.9 87.2 44 115.9l29.6 1.9c8.5 -22.6 41.1 -68.7 74.8 -68.7c23.4 0 48.4 29.2 59 52.7z" />
    <glyph glyph-name="afii10039" unicode="&#x425;" horiz-adv-x="672" 
d="M661 -3c-20 3 -68 3 -88 3s-86 0 -106 -3c-47.3 81.2 -107.5 179.4 -155.7 253.7c-3 5.90001 -5.39999 4.5 -7.59998 1.60001c-53.6 -74.5 -119.5 -172.5 -169.7 -255.3c-12 3 -40 3 -53 3c-12 0 -58 0 -70 -3c102.5 135.7 185.4 242.9 242.5 317
c-60 88.2 -134.2 191.9 -238.5 334c19 -3 90 -3 109 -3s62 0 82 3c28.3 -52.6 69.1 -115.2 134.9 -211c8.10001 -10.7 10.1 -13 15.5 -8.10001c70.5 92 97.7 130.5 151.6 219.1c12 -3 54 -3 66 -3s46 0 58 3c-46.2 -58 -131.5 -158.1 -227.7 -283
c62.5 -90 154.9 -220.3 256.7 -368z" />
    <glyph glyph-name="afii10040" unicode="&#x426;" horiz-adv-x="780" 
d="M650 200c0 -110 26.2 -165 60 -168c24.9 -2.2 30 -11.3 30 -21l-12 -149l-2 -3h-72l-2 3c-10.9 72.6 -52.3 138 -132 138h-359c-34 0 -81 -3 -81 -3l-1 3c8 54 10 125 10 200v245c0 75 -3 143 -11 200l2 3s47 -3 81 -3c35 0 81 3 81 3l1 -3c-8 -53 -10 -125 -10 -200
v-245c0 -17 1 -106 8 -130c3 -9 10 -15 28 -15h201c18 0 25 6 28 15c7 24 8 113 8 130v245c0 75 -2 147 -10 200l1 3s46 -3 81 -3c34 0 81 3 81 3l2 -3c-8 -57 -11 -125 -11 -200v-245z" />
    <glyph glyph-name="afii10041" unicode="&#x427;" horiz-adv-x="694" 
d="M229 445v-19c0 -82 11 -109 83 -109c26.6 0 82.6 3.29999 141 37v91c0 75 -4 143 -12 200l2 3s48 -3 82 -3c35 0 83 3 83 3l1 -3c-8 -53 -12 -125 -12 -200v-245c0 -75 4 -143 12 -200l-2 -3s-48 3 -82 3c-35 0 -83 -3 -83 -3l-1 3c8 54 12 125 12 200v100.6
c-70.7 -42.8 -158.1 -56.6 -212 -56.6c-114 0 -156 79 -156 178v23c0 75 -2 143 -10 200l2 3s46 -3 80 -3c35 0 81 3 81 3l1 -3c-8 -53 -10 -125 -10 -200z" />
    <glyph glyph-name="afii10042" unicode="&#x428;" horiz-adv-x="1018" 
d="M915 200c0.299988 -75 2 -143 10 -200l-2 -3s-46 3 -80 3h-667c-35 0 -82 -3 -82 -3l-1 3c8 54 10 125 10 200v245c0 75 -3 143 -11 200l2 3s47 -3 81 -3c35 0 81 3 81 3l1 -3c-8 -53 -10 -125 -10 -200v-236c0 -17 1 -117 8 -141c3 -9 10 -15 28 -15h117
c18 0 25 6 28 15c7 24 8 124 8 141v236c0 75 -3 143 -11 200l2 3s47 -3 81 -3c35 0 81 3 81 3l1 -3c-8 -53 -10 -125 -10 -200v-236c0 -17 1 -117 8 -141c3 -9 10 -15 28 -15h119c18 0 25 6 28 15c7 24 8 124 8 141v236c0 75 -2 147 -10 200l1 3s46 -3 81 -3c34 0 81 3 81 3
l2 -3c-8 -57 -11 -125 -11 -200v-245z" />
    <glyph glyph-name="afii10043" unicode="&#x429;" horiz-adv-x="1049" 
d="M814 0h-638c-35 0 -82 -3 -82 -3l-1 3c8 54 10 125 10 200v245c0 75 -3 143 -11 200l2 3s47 -3 81 -3c35 0 81 3 81 3l1 -3c-8 -53 -10 -125 -10 -200v-236c0 -17 1 -117 8 -141c3 -9 10 -15 28 -15h117c18 0 25 6 28 15c7 24 8 124 8 141v236c0 75 -3 143 -11 200l2 3
s47 -3 81 -3c35 0 81 3 81 3l1 -3c-8 -53 -10 -125 -10 -200v-236c0 -17 1 -117 8 -141c3 -9 10 -15 28 -15h119c18 0 25 6 28 15c7 24 8 124 8 141v236c0 75 -2 147 -10 200l1 3s46 -3 81 -3c34 0 81 3 81 3l2 -3c-8 -57 -11 -125 -11 -200v-245c0 -110 35.2 -165 69 -168
c24.9 -2.2 30 -11.3 30 -21l-12 -149l-2 -3h-81l-2 3c-10.9 72.6 -23.3 138 -103 138z" />
    <glyph glyph-name="afii10044" unicode="&#x42a;" horiz-adv-x="759" 
d="M395 85c0 -29 8 -44 80 -44c59 0 107 27 107 139c0 101 -40 145 -98 145h-89v-240zM253 200v245c0 40 -1.10001 78 -3.39999 113c-106.6 -4.70001 -202.6 -16 -202.6 -16l-2 4c1 8 2 47 2 57s-1 28 -2 42l2 3c16 -2 39 -3.40002 60 -3h135h83c34 0 80 3 80 3l2 -3
c-8 -57 -12 -125 -12 -200v-69h130c178 0 209 -104 209 -189c0 -52 -14 -121 -70 -160c-35 -25 -91 -34 -162 -34c-26 0 -147 7 -177 7c-34 0 -82 -3 -82 -3l-2 3c8 57 12 125 12 200z" />
    <glyph glyph-name="afii10045" unicode="&#x42b;" horiz-adv-x="902" 
d="M665 445c0 75 -4 143 -12 200l2 3s48 -3 82 -3c35 0 83 3 83 3l1 -3c-8 -53 -12 -125 -12 -200v-245c0 -75 4 -143 12 -200l-2 -3s-48 3 -82 3c-35 0 -83 -3 -83 -3l-1 3c8 54 12 125 12 200v245zM235 90c0 -29 8 -44 80 -44c59 0 107 22 107 134c0 101 -40 145 -98 145
h-89v-235zM93 200v245c0 75 -4 146 -12 200l1 3s48 -3 83 -3c34 0 80 3 80 3l2 -3c-8 -57 -12 -125 -12 -200v-69h130c178 0 209 -104 209 -189c0 -52 -14 -121 -70 -160c-35.3 -24.6 -90.9 -34 -162 -34c-26 0 -147 7 -177 7c-34 0 -82 -3 -82 -3l-2 3c8 57 12 125 12 200z
" />
    <glyph glyph-name="afii10046" unicode="&#x42c;" horiz-adv-x="599" 
d="M235 90c0 -29 8 -44 80 -44c59 0 107 22 107 134c0 101 -40 145 -98 145h-89v-235zM93 200v245c0 75 -4 146 -12 200l1 3s48 -3 83 -3c34 0 80 3 80 3l2 -3c-8 -57 -12 -125 -12 -200v-69h130c178 0 209 -104 209 -189c0 -52 -14 -121 -70 -160
c-35.3 -24.6 -90.9 -34 -162 -34c-26 0 -147 7 -177 7c-34 0 -82 -3 -82 -3l-2 3c8 57 12 125 12 200z" />
    <glyph glyph-name="afii10047" unicode="&#x42d;" horiz-adv-x="674" 
d="M292 603c-90 0 -146 -42 -187 -124l-30 1c-4 51 -8 81 -20 130l2 3s103 45 225 45c217 0 334 -145 334 -327c0 -200 -133 -343 -337 -343c-122 0 -225 45 -225 45l-2 3c12 49 16 79 20 130l30 1c41 -82 97 -124 187 -124c111 0 170 124 170 264c-30 -26 -61 -41 -100 -41
c-32 0 -59 8 -85 19c-23 10 -51 19 -80 19c-38 0 -54 -16 -62 -16c-4 0 -9 4 -9 12c0 25 64 78 123 78c35 0 62 -6 84 -17c21 -10 42 -15 70 -15c29 0 45 6 59 12c-8 125 -68 245 -167 245z" />
    <glyph glyph-name="afii10048" unicode="&#x42e;" horiz-adv-x="964" 
d="M608 608c-74.1 0 -130 -71 -130 -281c0 -192 53 -287 143 -287c83 0 128 91 128 270c0 208 -46 298 -141 298zM93 445c0 75 -4 143 -12 200l2 3s48 -3 82 -3c35 0 83 3 83 3l1 -3c-8 -53 -12 -125 -12 -200v-91h79c16 179 107 304 294 304c202 0 302 -131 302 -329
c0 -200 -82 -339 -296 -339c-190 0 -299 110 -301 304h-78v-94c0 -75 4 -143 12 -200l-2 -3s-48 3 -82 3c-35 0 -83 -3 -83 -3l-1 3c8 54 12 125 12 200v245z" />
    <glyph glyph-name="afii10049" unicode="&#x42f;" horiz-adv-x="667" 
d="M359 602c-61 0 -108 -2 -108 -120c0 -125 46 -130 143 -130h34v201c0 29 -7 49 -69 49zM246.7 311.8c-83.3 20.3 -150.7 66.6 -150.7 171.2c0 65 24 109 65 135c46 30 113 34 179 34c25 0 126 -7 156 -7c34 0 84 3 84 3l2 -3c-8 -57 -12 -125 -12 -200v-245
c0 -75 4 -146 12 -200l-1 -3s-46 3 -81 3c-34 0 -80 -3 -80 -3l-2 3c8 57 10 125 10 200v96c-11.9 0 -24.3 0.100006 -37 0.299988c-28.4 -34.6 -54.8 -81.7 -82 -120.3c-50 -72 -94 -145 -105 -179c-19 3 -59 3 -78 3c-20 0 -73 0 -93 -3l-2 3
c50.4 57.1 152.5 227.4 215.7 311.8z" />
    <glyph glyph-name="afii10089" unicode="&#x447;" horiz-adv-x="588" 
d="M77 291c0 59.5 -3 85 -11 138l1 3s40 -3 75 -3c34 0 74 3 74 3l2 -3c-8 -57 -9 -73.5 -9 -136c0 -70 3.8 -117 43 -117c49 0 86 27 118 59v15c0 71 -1 125 -10 179l1 3s40 -3 75 -3c34 0 74 3 74 3l2 -3c-8 -54.5 -9 -104 -10 -179v-71c0 -75 1 -122 10 -179l-2 -3
s-40 3 -74 3c-35 0 -75 -3 -75 -3l-1 3c9 54 10 105 10 179v1c-39 -29 -97 -63 -157 -63c-45.3 0 -82.6 3.6 -103.5 23c-29.8 27.8 -32.5 81.8 -32.5 151z" />
    <glyph glyph-name="afii10090" unicode="&#x448;" horiz-adv-x="941" 
d="M854 200c0 -74.5 2 -146 10 -200l-1 -3s-18 3 -52 3h-627c-34 0 -107 -3 -107 -3l-1 3c8 54 10 125 10 200v50c0 75 -1 122 -10 179l2 3s41 -3 75 -3c35 0 74 3 74 3l1 -3c-9 -54 -10 -105 -10 -179v-50c0 -17 1 -113 8 -137c7 -9 11 -13 26 -13h118c15 0 19 4 26 13
c7 24 8 120 8 137v50c0 75 -1 122 -10 179l2 3s40 -3 74 -3c35 0 75 3 75 3l1 -3c-9 -54 -10 -105 -10 -179v-50c0 -17 1 -113 8 -137c7 -9 11 -13 26 -13h117c15 0 20 4 27 13c7 24 8 120 8 137v49c0 76 -1.5 123 -10 180l2 3s40.7 -3 75 -3c35 0 75 3 75 3l1 -3
c-8.5 -53.5 -11 -104.9 -11 -180v-49z" />
    <glyph glyph-name="afii10091" unicode="&#x449;" horiz-adv-x="961" 
d="M743 0h-559c-34 0 -107 -3 -107 -3l-1 3c8 54 10 125 10 200v50c0 75 -1 122 -10 179l2 3s41 -3 75 -3c35 0 74 3 74 3l1 -3c-9 -54 -10 -105 -10 -179v-50c0 -17 1 -113 8 -137c7 -9 11 -13 26 -13h118c15 0 19 4 26 13c7 24 8 120 8 137v50c0 75 -1 122 -10 179l2 3
s40 -3 74 -3c35 0 75 3 75 3l1 -3c-9 -54 -10 -105 -10 -179v-50c0 -17 1 -113 8 -137c7 -9 11 -13 26 -13h117c15 0 20 4 27 13c7 24 8 120 8 137v49c0 76 -1.5 123 -10 180l2 3s40.7 -3 75 -3c35 0 75 3 75 3l1 -3c-8.5 -53.5 -11 -104.9 -11 -180v-49
c0 -110 6.20001 -165 40 -168c24.9 -2.2 30 -11.3 30 -21l-12 -136l-2 -3h-62l-2 3c-10.9 72.6 -23.3 125 -103 125z" />
    <glyph glyph-name="afii10092" unicode="&#x44a;" horiz-adv-x="666" 
d="M488 131c0 53 -17 88 -88 88h-47v-131c0 -35 14 -45 43 -45c50 0 92 6 92 88zM218.6 360.7c-82 -2 -140.6 -14.7 -184.6 -33.7l-5 4c2 14 2 72 0 98l2 2c15 -1 36 -2 55 -2h201c34 0 74 3 74 3l2 -3c-9 -57 -10 -86 -10 -161v-3h99c96 0 178 -35 178 -129
c0 -84 -62 -138 -173 -138c-66.3 0 -103.7 2 -170 2c-35 0 -75 -3 -75 -3l-1 3c9 54 10 105 10 179v71c0 41.6 -0.300003 77.4 -2.39999 110.7z" />
    <glyph glyph-name="afii10093" unicode="&#x44b;" horiz-adv-x="791" 
d="M573 250c0 71 -1 125 -10 179l1 3s40 -3 75 -3c34 0 74 3 74 3l2 -3c-8 -54.5 -9 -104 -10 -179v-71c0 -75 1 -122 10 -179l-2 -3s-40 3 -74 3c-35 0 -75 -3 -75 -3l-1 3c9 54 10 105 10 179v71zM353 131c0 53 -17 88 -88 88h-47v-131c0 -35 14.3 -45 43 -45
c50 0 92 6 92 88zM218 268v-3h99c96 0 178 -35 178 -129c0 -84 -62 -138 -173 -138c-66.3 0 -103.7 2 -170 2c-35 0 -75 -3 -75 -3l-1 3c9 54 10 105 10 179v71c0 71 -1 125 -10 179l1 3s40 -3 75 -3c34 0 74 3 74 3l2 -3c-9 -57 -10 -86 -10 -161z" />
    <glyph glyph-name="afii10094" unicode="&#x44c;" horiz-adv-x="531" 
d="M353 131c0 53 -17 88 -88 88h-47v-131c0 -35 14.3 -45 43 -45c50 0 92 6 92 88zM218 268v-3h99c96 0 178 -35 178 -129c0 -84 -62 -138 -173 -138c-66.3 0 -103.7 2 -170 2c-35 0 -75 -3 -75 -3l-1 3c9 54 10 105 10 179v71c0 71 -1 125 -10 179l1 3s40 -3 75 -3
c34 0 74 3 74 3l2 -3c-9 -57 -10 -86 -10 -161z" />
    <glyph glyph-name="afii10095" unicode="&#x44d;" horiz-adv-x="479" 
d="M292.4 250c-8.10001 87.8 -45.8 140 -98.4 140c-44.1 0 -75 -20 -96 -65l-33 1l-23 82l2 3c31 16 127 28 177 28c129 0 217 -85 217 -221c0 -139.1 -110 -228 -211 -228c-50 0 -152 12 -183 28l-2 3l23 82l33 1c21 -45 47.9 -65 92 -65c58.5 0 99.7 51.5 103.7 157
h-138.7c-3 0 -4.5 1 -4 4l7 46c0.600006 3.8 2 4 4 4h130.4z" />
    <glyph glyph-name="afii10096" unicode="&#x44e;" horiz-adv-x="775" 
d="M506 392c-67 0 -86 -61.5 -86 -176c0 -122.5 26.4 -177 93 -177c59.4 0 84 58.5 84 172c0 121.5 -22.6 181 -91 181zM86 250c0 71 -1 125 -10 179l1 3s40 -3 75 -3c34 0 74 3 74 3l2 -3c-8 -54 -9 -104 -10 -179v-8h66c12 119 87 197 225 197c173 0 225 -118 225 -222
c0 -100 -55 -227 -222 -227c-154 0 -222.6 100.5 -228 203h-66v-14c0 -75 1 -122 10 -179l-2 -3s-40 3 -74 3c-35 0 -75 -3 -75 -3l-1 3c9 54 10 105 10 179v71z" />
    <glyph glyph-name="afii10097" unicode="&#x44f;" horiz-adv-x="532" 
d="M314 235v122c0 32 -15 36 -54 36c-51.5 0 -75 -25 -75 -72c0 -50 18 -86 64 -86h65zM159 201.5v4.89999c-49.3 9.10001 -111 43.4 -111 103.6c0 57.5 28 122 189 122c37 0 85.4 -3 140 -3c35 0 78 3 78 3l1 -3c-9 -54 -10 -105 -10 -178v-73c0 -70 1 -124 10 -178l-1 -3
s-43 3 -78 3c-34 0 -71 -3 -71 -3l-2 3c9 57 10 95 10 169v21h-9c-45.5 0 -54 -38 -77 -86c-17 -34 -28 -66 -52 -107c-13 2 -61 3 -76 3s-75 -1 -82 -3l-2 6c49 54 62 91 102 148c16.4 23 29 40.4 41 50.5z" />
    <glyph glyph-name="uni04D0" unicode="&#x4d0;" horiz-adv-x="701" 
d="M329 756c33 0 51 17 51 34c0 5 -1 11 -1 13c0 15 20 30 43 30c27 0 37 -14 37 -33c0 -52 -64 -85 -130 -85s-130 33 -130 85c0 19 10 33 37 33c23 0 43 -15 43 -30c0 -2 -1 -8 -1 -13c0 -17 18 -34 51 -34zM411.5 275.1c-24.2 63.4 -52.8 136.9 -88.5 218.9h-5.89999
l-93.5 -218.1c31.4 -1.39999 75.5 -1.89999 104.4 -1.89999c23.7 0 55.1 0.5 83.5 1.10001zM200.3 219.2c-34.1 -84.1 -63.5 -163 -79.3 -222.2c-12 3 -34 3 -45 3s-44 0 -56 -3c101 221 199 434 295 656h90c86 -219 224 -555 274 -656c-17 3 -74 3 -91 3s-64 0 -81 -3
c-6 21.7 -27.7 96.7 -74.5 222.7c-32.7 0.699997 -67.4 1.3 -99.5 1.3c-35.7 0 -94.7 -0.899994 -132.7 -1.8z" />
    <glyph glyph-name="uni04D1" unicode="&#x4d1;" horiz-adv-x="516" 
d="M311 222l-80 -21c-50.2 -13.2 -63 -57.9 -63 -94c0 -27 22 -57 52 -57c28 0 51 11 74 34c7.10001 7.1 15 32 15 45zM437 80c0 -33 21 -36 61 -36c6 -5 8.70001 -12.3 10 -21c-30 -23 -79.9 -33 -119 -33c-43 0 -65 17 -79 58h-2c-45 -45 -97.9 -58 -137 -58
c-70 0 -137 39 -137 108c0 68 58 119 154 142l117 31c3 1 6 5 6 12c0 77.1 -25 102 -69 102c-45 0 -89 -29 -123 -79l-33 1l-20 75l3 4c24 21 120 53 192 53c48.1 0 108.3 -11.5 140 -39.9c27.6 -24.8 40 -62 40 -122.1c0 -11 -4 -168 -4 -197zM384 590
c0 -55 -63 -92 -127 -92c-65 0 -125 38 -125 92c0 22 21 38 44 38c22 0 39 -19 39 -35c0 -3 0 -5 -1 -8s-1 -6 -1 -8c0 -22 15 -38 45 -38c29 0 45 15 45 37c0 3 0 6 -1 9c-1 2 -1 4 -1 7c0 17 22 36 40 36c24 0 43 -12 43 -38z" />
    <glyph glyph-name="uni04D2" unicode="&#x4d2;" horiz-adv-x="701" 
d="M383 786c0 37 29 66 66 66c35 0 64 -29 64 -66c0 -35 -29 -65 -64 -65c-37 0 -66 30 -66 65zM174 786c0 37 29 66 64 66c37 0 66 -29 66 -66c0 -35 -29 -65 -66 -65c-35 0 -64 30 -64 65zM411.5 275.1c-24.2 63.4 -52.8 136.9 -88.5 218.9h-5.89999l-93.5 -218.1
c31.4 -1.39999 75.5 -1.89999 104.4 -1.89999c23.7 0 55.1 0.5 83.5 1.10001zM200.3 219.2c-34.1 -84.1 -63.5 -163 -79.3 -222.2c-12 3 -34 3 -45 3s-44 0 -56 -3c101 221 199 434 295 656h90c86 -219 224 -555 274 -656c-17 3 -74 3 -91 3s-64 0 -81 -3
c-6 21.7 -27.7 96.7 -74.5 222.7c-32.7 0.699997 -67.4 1.3 -99.5 1.3c-35.7 0 -94.7 -0.899994 -132.7 -1.8z" />
    <glyph glyph-name="uni04D3" unicode="&#x4d3;" horiz-adv-x="516" 
d="M286 603c0 37 29 66 66 66c35 0 64 -29 64 -66c0 -35 -29 -65 -64 -65c-37 0 -66 30 -66 65zM77 603c0 37 29 66 64 66c37 0 66 -29 66 -66c0 -35 -29 -65 -66 -65c-35 0 -64 30 -64 65zM311 222l-80 -21c-50.2 -13.2 -63 -57.9 -63 -94c0 -27 22 -57 52 -57
c28 0 51 11 74 34c7.10001 7.1 15 32 15 45zM437 80c0 -33 21 -36 61 -36c6 -5 8.70001 -12.3 10 -21c-30 -23 -79.9 -33 -119 -33c-43 0 -65 17 -79 58h-2c-45 -45 -97.9 -58 -137 -58c-70 0 -137 39 -137 108c0 68 58 119 154 142l117 31c3 1 6 5 6 12
c0 77.1 -25 102 -69 102c-45 0 -89 -29 -123 -79l-33 1l-20 75l3 4c24 21 120 53 192 53c48.1 0 108.3 -11.5 140 -39.9c27.6 -24.8 40 -62 40 -122.1c0 -11 -4 -168 -4 -197z" />
    <glyph glyph-name="uni04D4" unicode="&#x4d4;" horiz-adv-x="842" 
d="M205.2 213.3c-40.5 -82.5 -75.3 -159 -97.2 -216.3c-12 3 -34 3 -45 3s-52 0 -64 -3c106 203 215 405 358 650.7l35 -2.5h48l38.1 -0.200012h243.9c21 0 44 1 60 3l2 -3c-1 -14 -2 -33 -2 -41c0 -9 1 -28 2 -36l-2 -4s-127.3 10.3 -233 10.3
c-11.7 0 -21.9 -0.0999756 -30.8 -0.299988c1.09998 -58.6 1.89996 -129.1 2.89996 -200.9c98.5 0.799988 150 5.29999 203.9 9.89999l3 -3c-2 -9 -3 -24 -3 -33s1 -34 3 -43l-3 -3c-57.2 5.79999 -146.6 8.79999 -202.9 9.70001c1.40002 -89.3 3.40002 -175.9 7 -239.9
c101.6 3.7 262.9 20.2 262.9 20.2l2 -4c-1 -8 -2 -33 -2 -43s1 -30 2 -44l-2 -3c-16 2 -39 3 -60 3h-197h-11.5h-83.5c-17 0 -38 0 -55 -3c0 25.9 0.299988 112.6 0.600006 217.8c-12 0.0999908 -24 0.199997 -35.6 0.199997c-33.4 0 -103.9 -0.800003 -144.8 -1.7z
M385.7 269.3c0.299988 88 0.599976 183.2 0.799988 264.2h-12c-45.6 -80.3 -95.4 -173.2 -140.7 -262.8c35.3 -0.5 85.6 -1.70001 111.2 -1.70001c12.1 0 26.1 0.100006 40.7 0.299988z" />
    <glyph glyph-name="uni04D5" unicode="&#x4d5;" horiz-adv-x="771" 
d="M311 210c-146 -12 -159 -53 -159 -104c0 -45 27.7 -66 56 -66c40 0 81 21 96 60c7 18 7 60 7 110zM450 258c154 8 171 -13 171 48c0 32 -22 88 -75 88c-63.1 0 -93 -73 -96 -136zM219 394c-49 0 -97 -54 -126 -99l-30 1l-17 77l3 4c27 20 100 62 180 62
c39 0 142 -10 164 -81c34 51 101 81 164 81c50.1 0 94.1 -8.29999 124 -29c44.7 -30.9 63 -80.6 63 -101c0 -31 -3 -62 -20 -82c-39 -20 -126 -12 -275 -19c0 -106 68 -158 127 -158s101 22 134 57c11.1 -4.1 21.2 -13.4 27 -23c-32 -54 -104 -94 -177 -94
c-100 0 -146 44 -168 69c-38 -47 -128 -69 -188 -69c-116 0 -181 43 -181 111c0 46 25.4 85.7 87 113c49.6 22 117.5 35.6 201 41c-1 94 -12 139 -92 139z" />
    <glyph glyph-name="uni04D6" unicode="&#x4d6;" horiz-adv-x="594" 
d="M274 756c33 0 51 17 51 34c0 5 -1 11 -1 13c0 15 20 30 43 30c27 0 37 -14 37 -33c0 -52 -64 -85 -130 -85s-130 33 -130 85c0 19 10 33 37 33c23 0 43 -15 43 -30c0 -2 -1 -8 -1 -13c0 -17 18 -34 51 -34zM240 200c0 -17 1 -103 8 -127c134 0 296 22 296 22l2 -4
c-1 -8 -2 -45 -2 -55s0.5 -22.8 2 -36l-2 -3c-16 2 -39 3 -60 3h-314c-35 0 -85 -3 -85 -3l-1 3c8 54 12 125 12 200v245c0 75 -4 143 -12 200l2 3s50 -3 84 -3h304c21 0 44 1 60 3l2 -3c-1.20001 -14 -2 -27 -2 -35c0 -9 1 -33 2 -41l-2 -4s-152 12 -286 12
c-7 -24 -8 -115 -8 -132v-73c118 0 178 5 237 10l3 -3c-2 -9 -3 -28 -3 -37s1 -29 3 -38l-3 -3c-69 7 -189 10 -237 10v-111z" />
    <glyph glyph-name="uni04D7" unicode="&#x4d7;" horiz-adv-x="508" 
d="M173 255h156c0 87.5 -24.1 134 -65 134c-28.3 0 -47.8 -12.7 -60.5 -30c-14.8 -20.2 -27 -55 -30.5 -104zM448 107c10 0 16 -18 16 -31c-54.5 -63 -126 -86 -198 -86c-75 0 -133.8 16.5 -168 52c-41.3 42.9 -63 105 -63 164c0 82.9 33 143 81.5 183
c39.7 32.7 99.5 50 154.5 50c154 0 189 -100 189 -225l-6 -6s-85.5 2 -185.5 2h-99.5c0 -45.9 11.2 -81 33.2 -105c23.8 -25.9 60.2 -39 108.8 -39c42 0 90.5 3.5 137 41zM352 590c0 -55 -63 -92 -127 -92c-65 0 -125 38 -125 92c0 22 21 38 44 38c22 0 39 -19 39 -35
c0 -3 0 -5 -1 -8s-1 -6 -1 -8c0 -22 15 -38 45 -38c29 0 45 15 45 37c0 3 0 6 -1 9c-1 2 -1 4 -1 7c0 17 22 36 40 36c24 0 43 -12 43 -38z" />
    <glyph glyph-name="uni04D8" unicode="&#x4d8;" horiz-adv-x="702" 
d="M512 250l-319 3c36 -156 87 -221 162 -221c84 0 135 83 157 218zM105 494l-30 28c76 98 151.5 136 261 136c237 0 330 -173 330 -331c0 -196 -120 -338 -318 -338c-206 0 -291 103 -308 316l12 15l463 -15c1 9 1 12 1 22c0 178 -83 250 -184 250c-80 0 -166 -25 -227 -83
z" />
    <glyph glyph-name="afii10846" unicode="&#x4d9;" horiz-adv-x="450" 
d="M325 173h-156c0 -87.5 24.1 -134 65 -134c28.3 0 47.8 12.7 60.5 30c14.8 20.2 27 55 30.5 104zM50 321c-10 0 -16 18 -16 31c54.5 63 126 86 198 86c75 0 133.8 -16.5 168 -52c41.3 -42.9 63 -105 63 -164c0 -82.9 -33 -143 -81.5 -183
c-39.7 -32.7 -99.5 -50 -154.5 -50c-154 0 -189 100 -189 225l6 6s85.5 -2 185.5 -2h99.5c0 45.9 -11.2 81 -33.2 105c-23.8 25.9 -60.2 39 -108.8 39c-42 0 -90.5 -3.5 -137 -41z" />
    <glyph glyph-name="uni04DA" unicode="&#x4da;" horiz-adv-x="702" 
d="M512 250l-319 3c36 -156 87 -221 162 -221c84 0 135 83 157 218zM105 494l-30 28c76 98 151.5 136 261 136c237 0 330 -173 330 -331c0 -196 -120 -338 -318 -338c-206 0 -291 103 -308 316l12 15l463 -15c1 9 1 12 1 22c0 178 -83 250 -184 250c-80 0 -166 -25 -227 -83
zM373 773c0 35 28 63 63 63c34 0 63 -28 63 -63c0 -34 -29 -62 -63 -62c-35 0 -63 28 -63 62zM153 773c0 35 28 63 63 63s63 -28 63 -63c0 -34 -28 -62 -63 -62s-63 28 -63 62z" />
    <glyph glyph-name="uni04DB" unicode="&#x4db;" horiz-adv-x="450" 
d="M325 173h-156c0 -87.5 24.1 -134 65 -134c28.3 0 47.8 12.7 60.5 30c14.8 20.2 27 55 30.5 104zM50 321c-10 0 -16 18 -16 31c54.5 63 126 86 198 86c75 0 133.8 -16.5 168 -52c41.3 -42.9 63 -105 63 -164c0 -82.9 -33 -143 -81.5 -183
c-39.7 -32.7 -99.5 -50 -154.5 -50c-154 0 -189 100 -189 225l6 6s85.5 -2 185.5 -2h99.5c0 45.9 -11.2 81 -33.2 105c-23.8 25.9 -60.2 39 -108.8 39c-42 0 -90.5 -3.5 -137 -41zM265 601c0 37 29 66 66 66c35 0 64 -29 64 -66c0 -35 -29 -65 -64 -65c-37 0 -66 30 -66 65z
M56 601c0 37 29 66 64 66c37 0 66 -29 66 -66c0 -35 -29 -65 -66 -65c-35 0 -64 30 -64 65z" />
    <glyph glyph-name="uni04E0" unicode="&#x4e0;" horiz-adv-x="546" 
d="M281 408c25.3 45.3 51 86.3 77 123c-74 -2.70001 -165.3 -8 -274 -16c3.3 26.7 5 53 5 79c0 12 -1.7 31 -5 57c46.7 -7.29999 153.3 -11 320 -11c22.7 0 44 3 64 9l14 -21l-124 -227c28.7 -6 54.3 -18.7 77 -38c42 -36 63 -82.7 63 -140c0 -67.3 -22.3 -123 -67 -167
c-42.7 -42 -95 -63 -157 -63c-92.7 0 -156.7 16 -192 48l-3 5l21 84l34 1c30 -57.3 70.7 -86 122 -86c26 0 48.3 11.7 67 35c22 27.3 33 65 33 113c0 67.3 -13.7 112.3 -41 135c-20.7 14 -42.3 21.7 -65 23z" />
    <glyph glyph-name="uni04E1" unicode="&#x4e1;" horiz-adv-x="453" 
d="M39 74l201 296c-74.7 -1.29999 -145.3 -5 -212 -11l-2 3c1.3 10.7 2 22.3 2 35l-2 32l2 3c15.3 -2 34 -3 56 -3h252c12 0 28.7 1 50 3l31 3c3.29999 0 5 -2 5 -6c-4.70001 -5.29999 -14.7 -19.3 -30 -42l-155 -229c46.7 -1.3 87.3 -15.3 122 -42c42 -34 63 -78 63 -132
c0 -63.3 -22.3 -115.7 -67 -157c-42.7 -39.3 -95 -59 -157 -59c-92.7 0 -156.7 15 -192 45l-3 5l21 79l34 1c30 -54 70.7 -81 122 -81c26 0 48.3 11 67 33c22 25.3 33 60.7 33 106c0 66 -14.7 109.3 -44 130c-18.7 12.7 -39.3 19 -62 19c-37.3 0 -72.3 -13.7 -105 -41z" />
    <glyph glyph-name="uni04E6" unicode="&#x4e6;" horiz-adv-x="799" 
d="M443 773c0 35 28 63 63 63c34 0 63 -28 63 -63c0 -34 -29 -62 -63 -62c-35 0 -63 28 -63 62zM223 773c0 35 28 63 63 63s63 -28 63 -63c0 -34 -28 -62 -63 -62s-63 28 -63 62zM384 603c-96 0 -171 -66 -171 -276c0 -192 85 -282 205 -282c114 0 168 86 168 265
c0 208 -61 293 -202 293zM747 329c0 -200 -134.9 -339 -349 -339c-198 0 -346 132 -346 320c0 196 142 348 345 348c213 0 350 -131 350 -329z" />
    <glyph glyph-name="uni04E7" unicode="&#x4e7;" horiz-adv-x="566" 
d="M306 603c0 37 29 66 66 66c35 0 64 -29 64 -66c0 -35 -29 -65 -64 -65c-37 0 -66 30 -66 65zM97 603c0 37 29 66 64 66c37 0 66 -29 66 -66c0 -35 -29 -65 -66 -65c-35 0 -64 30 -64 65zM41 205c0 155 101 234 244 234c169 0 240 -99 240 -225
c0 -138.2 -89 -224 -242 -224c-149 0 -242 82 -242 215zM278 389c-86 0 -95 -74 -95 -161c0 -77 10 -188 114 -188c45 0 86 32 86 147c0 139 -20 202 -105 202z" />
    <glyph glyph-name="uni04EF" unicode="&#x4ef;" horiz-adv-x="539" 
d="M404 530h-274c-11 0 -15 14 -15 23c0 12 12 37 25 37h276c10 0 14 -14 14 -22c0 -13 -12 -38 -26 -38zM20 432c14 -3 75 -3 88 -3c14 0 50 0 63 3c33.4 -102.3 71.6 -204.4 118 -307l9 -1c43 96 83.1 207.9 115 308c10 -3 47 -3 57 -3s39 0 49 3
c-33 -67 -262 -544 -300 -669c-10 3 -39 5 -49 5s-54 -2 -64 -5c45.2 75.3 89 152.3 121 227l-11.8 18.5c-38.1 100.7 -150.7 332.6 -195.2 423.5z" />
    <glyph glyph-name="uni04F1" unicode="&#x4f1;" horiz-adv-x="539" 
d="M323 603c0 37 29 66 66 66c35 0 64 -29 64 -66c0 -35 -29 -65 -64 -65c-37 0 -66 30 -66 65zM114 603c0 37 29 66 64 66c37 0 66 -29 66 -66c0 -35 -29 -65 -66 -65c-35 0 -64 30 -64 65zM20 432c14 -3 75 -3 88 -3c14 0 50 0 63 3c33.4 -102.3 71.6 -204.4 118 -307
l9 -1c43 96 83.1 207.9 115 308c10 -3 47 -3 57 -3s39 0 49 3c-33 -67 -262 -544 -300 -669c-10 3 -39 5 -49 5s-54 -2 -64 -5c45.2 75.3 89 152.3 121 227l-11.8 18.5c-38.1 100.7 -150.7 332.6 -195.2 423.5z" />
    <glyph glyph-name="uni04F3" unicode="&#x4f3;" horiz-adv-x="539" 
d="M472 609c0 -15.6 -7.89999 -22 -14.5 -28.6l-98 -92c-6.89999 -6.89999 -13.2 -9.39999 -18.5 -9.39999c-13.1 0 -20 10.7 -20 20c0 6.60001 2.39999 12.6 4.70001 16.5l68 121.1l0.0999756 0.200012c2.5 3.79999 12.4 20.2 32.2 20.2c29.1 0 46 -23.6 46 -48zM343 621
c0 -7.70001 -2.39999 -14.5 -6.10001 -19.2l-92.1 -109c-11 -13.5 -20.2 -16.8 -27.8 -16.8c-13.6 0 -18 11.8 -18 20c0 6.70001 1.89999 12.1 3.39999 15.9l59 134.1c7.20001 15.9 26 16 34.6 16c26.5 0 47 -20.4 47 -41zM20 432c14 -3 75 -3 88 -3c14 0 50 0 63 3
c33.4 -102.3 71.6 -204.4 118 -307l9 -1c43 96 83.1 207.9 115 308c10 -3 47 -3 57 -3s39 0 49 3c-33 -67 -262 -544 -300 -669c-10 3 -39 5 -49 5s-54 -2 -64 -5c45.2 75.3 89 152.3 121 227l-11.8 18.5c-38.1 100.7 -150.7 332.6 -195.2 423.5z" />
    <glyph glyph-name="uni1E00" unicode="&#x1e00;" horiz-adv-x="701" 
d="M411.5 275.1c-24.2 63.4 -52.8 136.9 -88.5 218.9h-5.89999l-93.5 -218.1c31.4 -1.39999 75.5 -1.89999 104.4 -1.89999c23.7 0 55.1 0.5 83.5 1.10001zM200.3 219.2c-34.1 -84.1 -63.5 -163 -79.3 -222.2c-12 3 -34 3 -45 3s-44 0 -56 -3c101 221 199 434 295 656h90
c86 -219 224 -555 274 -656c-17 3 -74 3 -91 3s-64 0 -81 -3c-6 21.7 -27.7 96.7 -74.5 222.7c-32.7 0.699997 -67.4 1.3 -99.5 1.3c-35.7 0 -94.7 -0.899994 -132.7 -1.8zM308 -68c-35 0 -61 -30 -61 -64c0 -31 26 -64 61 -64s61 33 61 64c0 35 -27 64 -61 64zM201 -132
c0 58 48 103 106 103s107 -44 107 -103c0 -56 -47 -103 -107 -103c-58 0 -106 45 -106 103z" />
    <glyph glyph-name="uni1E01" unicode="&#x1e01;" horiz-adv-x="516" 
d="M311 222l-80 -21c-50.2 -13.2 -63 -57.9 -63 -94c0 -27 22 -57 52 -57c28 0 51 11 74 34c7.10001 7.1 15 32 15 45zM437 80c0 -33 21 -36 61 -36c6 -5 8.70001 -12.3 10 -21c-30 -23 -79.9 -33 -119 -33c-43 0 -65 17 -79 58h-2c-45 -45 -97.9 -58 -137 -58
c-70 0 -137 39 -137 108c0 68 58 119 154 142l117 31c3 1 6 5 6 12c0 77.1 -25 102 -69 102c-45 0 -89 -29 -123 -79l-33 1l-20 75l3 4c24 21 120 53 192 53c48.1 0 108.3 -11.5 140 -39.9c27.6 -24.8 40 -62 40 -122.1c0 -11 -4 -168 -4 -197zM224 -69
c-35 0 -61 -30 -61 -64c0 -31 26 -64 61 -64s61 33 61 64c0 35 -27 64 -61 64zM117 -133c0 58 48 103 106 103s107 -44 107 -103c0 -56 -47 -103 -107 -103c-58 0 -106 45 -106 103z" />
    <glyph glyph-name="uni1E02" unicode="&#x1e02;" horiz-adv-x="675" 
d="M245 550v-175h78c83 0 103 33 103 106c0 87.3 -34 114 -90 114c-81 0 -91 -12 -91 -45zM245 322v-225c0 -33 17 -47 87 -47c134 0 141 46 141 115c0 71.2 -18 157 -135 157h-93zM177 645c63 0 127 3 162 3c186 0 236 -88 236 -155c0 -55 -52 -108 -103 -133
c87 -25 162 -80 162 -176c0 -86 -74 -187 -273 -187c-89 0 -112 3 -184 3c-35 0 -85 -3 -85 -3l-1 3c8 54 12 125 12 200v245c0 75 -4 143 -12 200l2 3s50 -3 84 -3z" />
    <glyph glyph-name="uni1E03" unicode="&#x1e03;" horiz-adv-x="586" 
d="M235.3 53.8c15.3 -9.8 38.7 -13.8 72.7 -13.8c28.3 0 58.5 11.5 76 47.5c15.4 31.6 22 77.7 22 134.5c0 97 -33 149 -94 149c-24.1 0 -45 -8 -94 -43v-220c0 -27.6 2.89999 -45 17.3 -54.2zM218 500v-116c60 45 95 55 138 55c53.1 0 97.6 -13.8 137 -50
c36.8 -33.8 55 -88 55 -147c0 -89.4 -35.5 -157.4 -84 -199c-43.8 -37.5 -97.8 -53 -150 -53c-35.6 0 -80.2 1.3 -96.3 8c-16 6.6 -46 13 -56.7 13c-14.5 0 -59.8 -20 -72 -22c-6 1.3 -8.3 3 -11 5c4.2 21.8 8 101 8 140v340c0 76 -4.3 145.3 -12 188l2 3
c40.5 3 119.9 23 145 33c6.3 0 9 -3 9 -10c-0.899994 -7.29999 -1.8 -14.6 -2.60001 -21.7c10.6 6.10004 23.1 9.70001 36.6 9.70001c40 0 71 -31 71 -69s-31 -69 -71 -69c-17.3 0 -33 5.79999 -45.2 15.5c-0.600006 -16.8 -0.800003 -34.4 -0.800003 -53.5z" />
    <glyph glyph-name="uni1E04" unicode="&#x1e04;" horiz-adv-x="675" 
d="M245 550v-175h78c83 0 103 33 103 106c0 87.3 -34 114 -90 114c-81 0 -91 -12 -91 -45zM245 322v-225c0 -33 17 -47 87 -47c134 0 141 46 141 115c0 71.2 -18 157 -135 157h-93zM177 645c63 0 127 3 162 3c186 0 236 -88 236 -155c0 -55 -52 -108 -103 -133
c87 -25 162 -80 162 -176c0 -86 -74 -187 -273 -187c-89 0 -112 3 -184 3c-35 0 -85 -3 -85 -3l-1 3c8 54 12 125 12 200v245c0 75 -4 143 -12 200l2 3s50 -3 84 -3zM198 -148c0 38 31 69 71 69s71 -31 71 -69s-31 -69 -71 -69s-71 31 -71 69z" />
    <glyph glyph-name="uni1E05" unicode="&#x1e05;" horiz-adv-x="586" 
d="M235.3 53.8c15.3 -9.8 38.7 -13.8 72.7 -13.8c28.3 0 58.5 11.5 76 47.5c15.4 31.6 22 77.7 22 134.5c0 97 -33 149 -94 149c-24.1 0 -45 -8 -94 -43v-220c0 -27.6 2.89999 -45 17.3 -54.2zM218 500v-116c60 45 95 55 138 55c53.1 0 97.6 -13.8 137 -50
c36.8 -33.8 55 -88 55 -147c0 -89.4 -35.5 -157.4 -84 -199c-43.8 -37.5 -97.8 -53 -150 -53c-35.6 0 -80.2 1.3 -96.3 8c-16 6.6 -46 13 -56.7 13c-14.5 0 -59.8 -20 -72 -22c-6 1.3 -8.3 3 -11 5c4.2 21.8 8 101 8 140v340c0 76 -4.3 145.3 -12 188l2 3
c40.5 3 119.9 23 145 33c6.3 0 9 -3 9 -10c-7.7 -61.3 -12 -114 -12 -188zM153 -148c0 38 31 69 71 69s71 -31 71 -69s-31 -69 -71 -69s-71 31 -71 69z" />
    <glyph glyph-name="uni1E06" unicode="&#x1e06;" horiz-adv-x="675" 
d="M245 550v-175h78c83 0 103 33 103 106c0 87.3 -34 114 -90 114c-81 0 -91 -12 -91 -45zM245 322v-225c0 -33 17 -47 87 -47c134 0 141 46 141 115c0 71.2 -18 157 -135 157h-93zM177 645c63 0 127 3 162 3c186 0 236 -88 236 -155c0 -55 -52 -108 -103 -133
c87 -25 162 -80 162 -176c0 -86 -74 -187 -273 -187c-89 0 -112 3 -184 3c-35 0 -85 -3 -85 -3l-1 3c8 54 12 125 12 200v245c0 75 -4 143 -12 200l2 3s50 -3 84 -3zM393 -106h-245c-8 0 -12 8 -12 15c0 12 10 29 22 29h245c9 0 13 -7 13 -14c0 -12 -10 -30 -23 -30z" />
    <glyph glyph-name="uni1E07" unicode="&#x1e07;" horiz-adv-x="586" 
d="M235.3 53.8c15.3 -9.8 38.7 -13.8 72.7 -13.8c28.3 0 58.5 11.5 76 47.5c15.4 31.6 22 77.7 22 134.5c0 97 -33 149 -94 149c-24.1 0 -45 -8 -94 -43v-220c0 -27.6 2.89999 -45 17.3 -54.2zM218 500v-116c60 45 95 55 138 55c53.1 0 97.6 -13.8 137 -50
c36.8 -33.8 55 -88 55 -147c0 -89.4 -35.5 -157.4 -84 -199c-43.8 -37.5 -97.8 -53 -150 -53c-35.6 0 -80.2 1.3 -96.3 8c-16 6.6 -46 13 -56.7 13c-14.5 0 -59.8 -20 -72 -22c-6 1.3 -8.3 3 -11 5c4.2 21.8 8 101 8 140v340c0 76 -4.3 145.3 -12 188l2 3
c40.5 3 119.9 23 145 33c6.3 0 9 -3 9 -10c-7.7 -61.3 -12 -114 -12 -188zM363 -110h-245c-8 0 -12 8 -12 15c0 12 10 29 22 29h245c9 0 13 -7 13 -14c0 -12 -10 -30 -23 -30z" />
    <glyph glyph-name="uni1E08" unicode="&#x1e08;" horiz-adv-x="706" 
d="M301 -100l-6 6l44.9 85.5c-64.6 5 -114.7 22.8 -164.9 56.5c-79 53 -123 157 -123 262c0 109.9 45.1 212.3 124 274c62.5 48.8 147 74 238 74c122 0 225 -45 225 -45l2 -3c-11.8 -49.3 -16.4 -79 -20 -130l-30 -1c-41 82 -94 124 -184 124c-82 0 -192 -71 -192 -274
c0 -170.2 82 -279 191 -279c93 0 148 17 223 89l24 -34c-84 -87 -183.8 -115 -273 -115h-5.39999l-14.6 -35c45.4 -9.1 92.9 -24.5 92.9 -79.1c0 -50.2 -50.8 -91.9 -115.6 -91.9c-32 0 -48 8 -65.3 19c0 10 3.29999 22 13.3 31.5c27 -10 38 -14 58 -14
c30 0 46.7 8.5 46.7 35.5c0 37.6 -53 42 -89 44zM432 970c27.4 -18.7 48 -52 57 -81l-7 -13.9l-152 -44.1c-22.2 -6.40002 -30.9 -9 -39 -9s-16 16 -16 25c0 7 1.79999 14.8 15 24z" />
    <glyph glyph-name="uni1E09" unicode="&#x1e09;" horiz-adv-x="472" 
d="M191 -96l-6 6l43.7 83.1c-56.3 7.8 -104.4 29.9 -132.7 60.9c-33.6 36.7 -54 85.5 -54 148c0 157 112 237 246 237c50 0 118 -17 149 -33l2 -3l-24 -97l-28 -1c-22 55 -51.5 84 -90 84c-35.2 0 -69.3 -16.8 -88.6 -48c-16.9 -27.2 -24.4 -65.4 -24.4 -113
c0 -57.2 12 -105 30 -134s58 -54 87 -54c40 0 89 14 117 48l16 -5c0 -16 2.79999 -29.5 5 -39c-45 -38 -88.6 -54 -165 -54c-3.70001 0 -7.39999 0.1 -11 0.2l-13 -31.2c45.4 -9.1 92.9 -24.5 92.9 -79.1c0 -50.2 -50.8 -91.9 -115.6 -91.9c-32 0 -48 8 -65.3 19
c0 10 3.3 22 13.3 31.5c27 -10 38 -14 58 -14c30 0 46.7 8.5 46.7 35.5c0 37.6 -53 42 -89 44zM292 639c3 1 11 2 16 2c30 0 59 -14 67 -24l10 -23l-120 -108c-14 -12 -33 -16 -43 -16c-8 0 -21 8 -21 14s2 15 8 24z" />
    <glyph glyph-name="uni1E0A" unicode="&#x1e0a;" horiz-adv-x="761" 
d="M245 101c0 -32 21.9 -50 98 -50c141 0 205 41 205 243c0 154 -14 301 -230 301c-49 0 -73 -15 -73 -50v-444zM175 645c70.6 0 110.4 3 181 3c192 0 353 -133.5 353 -330c0 -246 -194 -320 -335 -320c-87.1 0 -121.4 2 -199 2c-35 0 -85 -3 -85 -3l-1 3
c8 54 12 125 12 200v245c0 75 -4 143 -12 200l2 3s50 -3 84 -3z" />
    <glyph glyph-name="uni1E0B" unicode="&#x1e0b;" horiz-adv-x="591" 
d="M373 133v170c-10.5 51.5 -48 86 -95 86c-48.4 0 -92 -33 -92 -168c0 -125 36 -173 90 -173c40.5 0 72.5 21 97 85zM373 54c-27 -46.5 -80 -64 -143 -64c-111 0 -186 90 -186 213c0 71.9 24 144.5 86 189.5c45.9 33.3 82 46.5 149 46.5c28.5 0 75 -18 94 -45v80
c0 76 -4.29999 145.3 -12 188l2 3c40.5 3 117.9 23 143 33c6.29999 0 11 -3 11 -10c-7.70001 -61.3 -12 -114 -12 -188v-308c0 -75 11 -149 19 -192l-2 -3c-13 2 -56.9 3 -69.5 3c-14.5 0 -50.2 -1.3 -63.5 -3c-6 0 -9 1 -9 3l-5 54h-2zM160 607c0 38 31 69 71 69
s71 -31 71 -69s-31 -69 -71 -69s-71 31 -71 69z" />
    <glyph glyph-name="uni1E0C" unicode="&#x1e0c;" horiz-adv-x="761" 
d="M245 101c0 -32 21.9 -50 98 -50c141 0 205 41 205 243c0 154 -14 301 -230 301c-49 0 -73 -15 -73 -50v-444zM175 645c70.6 0 110.4 3 181 3c192 0 353 -133.5 353 -330c0 -246 -194 -320 -335 -320c-87.1 0 -121.4 2 -199 2c-35 0 -85 -3 -85 -3l-1 3
c8 54 12 125 12 200v245c0 75 -4 143 -12 200l2 3s50 -3 84 -3zM218 -148c0 38 31 69 71 69s71 -31 71 -69s-31 -69 -71 -69s-71 31 -71 69z" />
    <glyph glyph-name="uni1E0D" unicode="&#x1e0d;" horiz-adv-x="591" 
d="M373 133v170c-10.5 51.5 -48 86 -95 86c-48.4 0 -92 -33 -92 -168c0 -125 36 -173 90 -173c40.5 0 72.5 21 97 85zM373 54c-27 -46.5 -80 -64 -143 -64c-111 0 -186 90 -186 213c0 71.9 24 144.5 86 189.5c45.9 33.3 82 46.5 149 46.5c28.5 0 75 -18 94 -45v80
c0 76 -4.29999 145.3 -12 188l2 3c40.5 3 117.9 23 143 33c6.29999 0 11 -3 11 -10c-7.70001 -61.3 -12 -114 -12 -188v-308c0 -75 11 -149 19 -192l-2 -3c-13 2 -56.9 3 -69.5 3c-14.5 0 -50.2 -1.3 -63.5 -3c-6 0 -9 1 -9 3l-5 54h-2zM214 -148c0 38 31 69 71 69
s71 -31 71 -69s-31 -69 -71 -69s-71 31 -71 69z" />
    <glyph glyph-name="uni1E0E" unicode="&#x1e0e;" horiz-adv-x="761" 
d="M245 101c0 -32 21.9 -50 98 -50c141 0 205 41 205 243c0 154 -14 301 -230 301c-49 0 -73 -15 -73 -50v-444zM175 645c70.6 0 110.4 3 181 3c192 0 353 -133.5 353 -330c0 -246 -194 -320 -335 -320c-87.1 0 -121.4 2 -199 2c-35 0 -85 -3 -85 -3l-1 3
c8 54 12 125 12 200v245c0 75 -4 143 -12 200l2 3s50 -3 84 -3zM400 -105h-245c-8 0 -12 8 -12 15c0 12 10 29 22 29h245c9 0 13 -7 13 -14c0 -12 -10 -30 -23 -30z" />
    <glyph glyph-name="uni1E0F" unicode="&#x1e0f;" horiz-adv-x="591" 
d="M373 133v170c-10.5 51.5 -48 86 -95 86c-48.4 0 -92 -33 -92 -168c0 -125 36 -173 90 -173c40.5 0 72.5 21 97 85zM373 54c-27 -46.5 -80 -64 -143 -64c-111 0 -186 90 -186 213c0 71.9 24 144.5 86 189.5c45.9 33.3 82 46.5 149 46.5c28.5 0 75 -18 94 -45v80
c0 76 -4.29999 145.3 -12 188l2 3c40.5 3 117.9 23 143 33c6.29999 0 11 -3 11 -10c-7.70001 -61.3 -12 -114 -12 -188v-308c0 -75 11 -149 19 -192l-2 -3c-13 2 -56.9 3 -69.5 3c-14.5 0 -50.2 -1.3 -63.5 -3c-6 0 -9 1 -9 3l-5 54h-2zM402 -109h-245c-8 0 -12 8 -12 15
c0 12 10 29 22 29h245c9 0 13 -7 13 -14c0 -12 -10 -30 -23 -30z" />
    <glyph glyph-name="uni1E10" unicode="&#x1e10;" horiz-adv-x="761" 
d="M245 101c0 -32 21.9 -50 98 -50c141 0 205 41 205 243c0 154 -14 301 -230 301c-49 0 -73 -15 -73 -50v-444zM175 645c70.6 0 110.4 3 181 3c192 0 353 -133.5 353 -330c0 -246 -194 -320 -335 -320c-87.1 0 -121.4 2 -199 2c-35 0 -85 -3 -85 -3l-1 3
c8 54 12 125 12 200v245c0 75 -4 143 -12 200l2 3s50 -3 84 -3zM261 -97v4c3 26 28 47 64 51h6c21.9 -2.4 42.7 -8.6 57 -27c15.1 -19.4 25 -48.8 25 -78c0 -73 -78 -96 -154 -96c-7 5 -9 21 -5 30c65 0 94 14 94 32c0 22 -12.1 35.4 -28 37c-40 4 -57 19 -59 47z" />
    <glyph glyph-name="uni1E11" unicode="&#x1e11;" horiz-adv-x="591" 
d="M373 133v170c-10.5 51.5 -48 86 -95 86c-48.4 0 -92 -33 -92 -168c0 -125 36 -173 90 -173c40.5 0 72.5 21 97 85zM373 54c-27 -46.5 -80 -64 -143 -64c-111 0 -186 90 -186 213c0 71.9 24 144.5 86 189.5c45.9 33.3 82 46.5 149 46.5c28.5 0 75 -18 94 -45v80
c0 76 -4.29999 145.3 -12 188l2 3c40.5 3 117.9 23 143 33c6.29999 0 11 -3 11 -10c-7.70001 -61.3 -12 -114 -12 -188v-308c0 -75 11 -149 19 -192l-2 -3c-13 2 -56.9 3 -69.5 3c-14.5 0 -50.2 -1.3 -63.5 -3c-6 0 -9 1 -9 3l-5 54h-2zM171 -97v4c3 26 28 47 64 51h6
c21.9 -2.4 42.7 -8.6 57 -27c15.1 -19.4 25 -48.8 25 -78c0 -73 -78 -96 -154 -96c-7 5 -9 21 -5 30c65 0 94 14 94 32c0 22 -12.1 35.4 -28 37c-40 4 -57 19 -59 47z" />
    <glyph glyph-name="uni1E12" unicode="&#x1e12;" horiz-adv-x="761" 
d="M373 -232l-27 -24c-48 23 -80 50 -118 87c-42 -39 -73.5 -65 -117 -87l-27 24c46.5 47 95 107 128 156h34c37.5 -55 78.5 -107.5 127 -156zM245 101c0 -32 21.9 -50 98 -50c141 0 205 41 205 243c0 154 -14 301 -230 301c-49 0 -73 -15 -73 -50v-444zM175 645
c70.6 0 110.4 3 181 3c192 0 353 -133.5 353 -330c0 -246 -194 -320 -335 -320c-87.1 0 -121.4 2 -199 2c-35 0 -85 -3 -85 -3l-1 3c8 54 12 125 12 200v245c0 75 -4 143 -12 200l2 3s50 -3 84 -3z" />
    <glyph glyph-name="uni1E13" unicode="&#x1e13;" horiz-adv-x="591" 
d="M373 -232l-27 -24c-48 23 -80 50 -118 87c-42 -39 -73.5 -65 -117 -87l-27 24c46.5 47 95 107 128 156h34c37.5 -55 78.5 -107.5 127 -156zM373 133v170c-10.5 51.5 -48 86 -95 86c-48.4 0 -92 -33 -92 -168c0 -125 36 -173 90 -173c40.5 0 72.5 21 97 85zM373 54
c-27 -46.5 -80 -64 -143 -64c-111 0 -186 90 -186 213c0 71.9 24 144.5 86 189.5c45.9 33.3 82 46.5 149 46.5c28.5 0 75 -18 94 -45v80c0 76 -4.29999 145.3 -12 188l2 3c40.5 3 117.9 23 143 33c6.29999 0 11 -3 11 -10c-7.70001 -61.3 -12 -114 -12 -188v-308
c0 -75 11 -149 19 -192l-2 -3c-13 2 -56.9 3 -69.5 3c-14.5 0 -50.2 -1.3 -63.5 -3c-6 0 -9 1 -9 3l-5 54h-2z" />
    <glyph glyph-name="uni1E14" unicode="&#x1e14;" horiz-adv-x="594" 
d="M447 693h-274c-11 0 -15 14 -15 23c0 12 12 37 25 37h276c10 0 14 -14 14 -22c0 -13 -12 -38 -26 -38zM240 200c0 -17 1 -103 8 -127c134 0 296 22 296 22l2 -4c-1 -8 -2 -45 -2 -55s0.5 -22.8 2 -36l-2 -3c-16 2 -39 3 -60 3h-314c-35 0 -85 -3 -85 -3l-1 3
c8 54 12 125 12 200v245c0 75 -4 143 -12 200l2 3s50 -3 84 -3h304c21 0 44 1 60 3l2 -3c-1.20001 -14 -2 -27 -2 -35c0 -9 1 -33 2 -41l-2 -4s-152 12 -286 12c-7 -24 -8 -115 -8 -132v-73c118 0 178 5 237 10l3 -3c-2 -9 -3 -28 -3 -37s1 -29 3 -38l-3 -3
c-69 7 -189 10 -237 10v-111zM11.7 964.8l109.3 -87.1c10.1 -8.10004 11.6 -14.9 11.6 -21.1c0 -7.89996 -6.2 -22 -12.4 -22c-6.2 0 -12.9 2.20001 -30 7.90002l-117 38.8l-5.4 12.3c6.9 25.5 22.8 54.7 43.9 71.2z" />
    <glyph glyph-name="uni1E15" unicode="&#x1e15;" horiz-adv-x="508" 
d="M402 530h-274c-11 0 -15 14 -15 23c0 12 12 37 25 37h276c10 0 14 -14 14 -22c0 -13 -12 -38 -26 -38zM173 255h156c0 87.5 -24.1 134 -65 134c-28.3 0 -47.8 -12.7 -60.5 -30c-14.8 -20.2 -27 -55 -30.5 -104zM448 107c10 0 16 -18 16 -31c-54.5 -63 -126 -86 -198 -86
c-75 0 -133.8 16.5 -168 52c-41.3 42.9 -63 105 -63 164c0 82.9 33 143 81.5 183c39.7 32.7 99.5 50 154.5 50c154 0 189 -100 189 -225l-6 -6s-85.5 2 -185.5 2h-99.5c0 -45.9 11.2 -81 33.2 -105c23.8 -25.9 60.2 -39 108.8 -39c42 0 90.5 3.5 137 41zM228.2 767.9
l55.2 -111.6c3.20001 -6.29999 7.20001 -16.2 7.20001 -23.4c0 -8.10004 -12 -14.4 -19.2 -14.4c-6.39999 0 -16.8 4.5 -30.4 18l-96.8 94.5l1.60001 9.90002c6.39999 8.09998 37.6 28.8 66.4 28.8c4 0 12.8 -0.900024 16 -1.79999z" />
    <glyph glyph-name="uni1E16" unicode="&#x1e16;" horiz-adv-x="594" 
d="M390 693h-274c-11 0 -15 14 -15 23c0 12 12 37 25 37h276c10 0 14 -14 14 -22c0 -13 -12 -38 -26 -38zM240 200c0 -17 1 -103 8 -127c134 0 296 22 296 22l2 -4c-1 -8 -2 -45 -2 -55s0.5 -22.8 2 -36l-2 -3c-16 2 -39 3 -60 3h-314c-35 0 -85 -3 -85 -3l-1 3
c8 54 12 125 12 200v245c0 75 -4 143 -12 200l2 3s50 -3 84 -3h304c21 0 44 1 60 3l2 -3c-1.20001 -14 -2 -27 -2 -35c0 -9 1 -33 2 -41l-2 -4s-152 12 -286 12c-7 -24 -8 -115 -8 -132v-73c118 0 178 5 237 10l3 -3c-2 -9 -3 -28 -3 -37s1 -29 3 -38l-3 -3
c-69 7 -189 10 -237 10v-111zM539 963.8c21.1 -16.5 37 -45.7 43.9 -71.2l-5.40002 -12.3l-117.1 -38.8c-17.1 -5.70001 -23.8 -7.90002 -30 -7.90002c-6.19998 0 -12.3 14.1 -12.3 22c0 6.20001 1.39999 13 11.5 21.1z" />
    <glyph glyph-name="uni1E17" unicode="&#x1e17;" horiz-adv-x="508" 
d="M402 530h-274c-11 0 -15 14 -15 23c0 12 12 37 25 37h47.3c-0.100006 0.299988 -0.100006 0.599976 -0.100006 0.900024c0 5.39996 1.60001 13.5 6.40001 21.6l66.4 117.9c2.39999 0.899963 8.79999 1.79999 12.8 1.79999c24 0 47.2 -12.6 53.6 -21.6l8 -20.7l-96 -97.2
c-1 -1 -2.09999 -1.90002 -3.09999 -2.70001h180.7c10 0 14 -14 14 -22c0 -13 -12 -38 -26 -38zM173 255h156c0 87.5 -24.1 134 -65 134c-28.3 0 -47.8 -12.7 -60.5 -30c-14.8 -20.2 -27 -55 -30.5 -104zM448 107c10 0 16 -18 16 -31c-54.5 -63 -126 -86 -198 -86
c-75 0 -133.8 16.5 -168 52c-41.3 42.9 -63 105 -63 164c0 82.9 33 143 81.5 183c39.7 32.7 99.5 50 154.5 50c154 0 189 -100 189 -225l-6 -6s-85.5 2 -185.5 2h-99.5c0 -45.9 11.2 -81 33.2 -105c23.8 -25.9 60.2 -39 108.8 -39c42 0 90.5 3.5 137 41z" />
    <glyph glyph-name="uni1E18" unicode="&#x1e18;" horiz-adv-x="594" 
d="M381 -232l-27 -24c-48 23 -80 50 -118 87c-42 -39 -73.5 -65 -117 -87l-27 24c46.5 47 95 107 128 156h34c37.5 -55 78.5 -107.5 127 -156zM240 200c0 -17 1 -103 8 -127c134 0 296 22 296 22l2 -4c-1 -8 -2 -45 -2 -55s0.5 -22.8 2 -36l-2 -3c-16 2 -39 3 -60 3h-314
c-35 0 -85 -3 -85 -3l-1 3c8 54 12 125 12 200v245c0 75 -4 143 -12 200l2 3s50 -3 84 -3h304c21 0 44 1 60 3l2 -3c-1.20001 -14 -2 -27 -2 -35c0 -9 1 -33 2 -41l-2 -4s-152 12 -286 12c-7 -24 -8 -115 -8 -132v-73c118 0 178 5 237 10l3 -3c-2 -9 -3 -28 -3 -37
s1 -29 3 -38l-3 -3c-69 7 -189 10 -237 10v-111z" />
    <glyph glyph-name="uni1E19" unicode="&#x1e19;" horiz-adv-x="508" 
d="M326 -232l-27 -24c-48 23 -80 50 -118 87c-42 -39 -73.5 -65 -117 -87l-27 24c46.5 47 95 107 128 156h34c37.5 -55 78.5 -107.5 127 -156zM173 255h156c0 87.5 -24.1 134 -65 134c-28.3 0 -47.8 -12.7 -60.5 -30c-14.8 -20.2 -27 -55 -30.5 -104zM448 107
c10 0 16 -18 16 -31c-54.5 -63 -126 -86 -198 -86c-75 0 -133.8 16.5 -168 52c-41.3 42.9 -63 105 -63 164c0 82.9 33 143 81.5 183c39.7 32.7 99.5 50 154.5 50c154 0 189 -100 189 -225l-6 -6s-85.5 2 -185.5 2h-99.5c0 -45.9 11.2 -81 33.2 -105
c23.8 -25.9 60.2 -39 108.8 -39c42 0 90.5 3.5 137 41z" />
    <glyph glyph-name="uni1E1A" unicode="&#x1e1a;" horiz-adv-x="594" 
d="M352 -99c21 0 36 6 49 42l32 -9c-14 -64 -49 -107 -100 -107c-42.1 0 -77.9 42 -118 42c-29 0 -41 -12 -49 -43l-33 7c15 64 46 109 94 109c49.7 0 76.5 -41 125 -41zM240 200c0 -17 1 -103 8 -127c134 0 296 22 296 22l2 -4c-1 -8 -2 -45 -2 -55s0.5 -22.8 2 -36l-2 -3
c-16 2 -39 3 -60 3h-314c-35 0 -85 -3 -85 -3l-1 3c8 54 12 125 12 200v245c0 75 -4 143 -12 200l2 3s50 -3 84 -3h304c21 0 44 1 60 3l2 -3c-1.20001 -14 -2 -27 -2 -35c0 -9 1 -33 2 -41l-2 -4s-152 12 -286 12c-7 -24 -8 -115 -8 -132v-73c118 0 178 5 237 10l3 -3
c-2 -9 -3 -28 -3 -37s1 -29 3 -38l-3 -3c-69 7 -189 10 -237 10v-111z" />
    <glyph glyph-name="uni1E1B" unicode="&#x1e1b;" horiz-adv-x="508" 
d="M302 -97c21 0 36 6 49 42l32 -9c-14 -64 -49 -107 -100 -107c-42.1 0 -77.9 42 -118 42c-29 0 -41 -12 -49 -43l-33 7c15 64 46 109 94 109c49.7 0 76.5 -41 125 -41zM173 255h156c0 87.5 -24.1 134 -65 134c-28.3 0 -47.8 -12.7 -60.5 -30
c-14.8 -20.2 -27 -55 -30.5 -104zM448 107c10 0 16 -18 16 -31c-54.5 -63 -126 -86 -198 -86c-75 0 -133.8 16.5 -168 52c-41.3 42.9 -63 105 -63 164c0 82.9 33 143 81.5 183c39.7 32.7 99.5 50 154.5 50c154 0 189 -100 189 -225l-6 -6s-85.5 2 -185.5 2h-99.5
c0 -45.9 11.2 -81 33.2 -105c23.8 -25.9 60.2 -39 108.8 -39c42 0 90.5 3.5 137 41z" />
    <glyph glyph-name="uni1E1C" unicode="&#x1e1c;" horiz-adv-x="594" 
d="M263 -96l-6 6l47.3 90h-134.3c-35 0 -85 -3 -85 -3l-1 3c8 54 12 125 12 200v245c0 75 -4 143 -12 200l2 3s50 -3 84 -3h304c21 0 44 1 60 3l2 -3c-1.20001 -14 -2 -27 -2 -35c0 -9 1 -33 2 -41l-2 -4s-152 12 -286 12c-7 -24 -8 -115 -8 -132v-73c118 0 178 5 237 10
l3 -3c-2 -9 -3 -28 -3 -37s1 -29 3 -38l-3 -3c-69 7 -189 10 -237 10v-111c0 -17 1 -103 8 -127c134 0 296 22 296 22l2 -4c-1 -8 -2 -45 -2 -55s0.5 -22.8 2 -36l-2 -3c-16 2 -39 3 -60 3h-144.9l-17.1 -41c45.4 -9.1 92.9 -24.5 92.9 -79.1
c0 -50.2 -50.8 -91.9 -115.6 -91.9c-32 0 -48 8 -65.3 19c0 10 3.3 22 13.3 31.5c27 -10 38 -14 58 -14c30 0 46.7 8.5 46.7 35.5c0 37.6 -53 42 -89 44zM449 989c0 -81 -76 -136 -149 -136c-80 0 -150 55.5 -150 136h31c0 -34 61 -56 119 -56c54 0 119 22 119 56h30z" />
    <glyph glyph-name="uni1E1D" unicode="&#x1e1d;" horiz-adv-x="508" 
d="M227 -101l-6 6l44.7 85c-74.9 0 -133.5 16.5 -167.7 52c-41.3 42.9 -63 105 -63 164c0 82.9 33 143 81.5 183c39.7 32.7 99.5 50 154.5 50c154 0 189 -100 189 -225l-6 -6s-85.5 2 -185.5 2h-99.5c0 -45.9 11.2 -81 33.2 -105c23.8 -25.9 60.2 -39 108.8 -39
c42 0 90.5 3.5 137 41c10 0 16 -18 16 -31c-45.4 -52.5 -102.7 -77.2 -162.2 -84l-15.8 -38c45.4 -9.1 92.9 -24.5 92.9 -79.1c0 -50.2 -50.8 -91.9 -115.6 -91.9c-32 0 -48 8 -65.3 19c0 10 3.3 22 13.3 31.5c27 -10 38 -14 58 -14c30 0 46.7 8.5 46.7 35.5
c0 37.6 -53 42 -89 44zM173 255h156c0 87.5 -24.1 134 -65 134c-28.3 0 -47.8 -12.7 -60.5 -30c-14.8 -20.2 -27 -55 -30.5 -104zM126 633c16 -58.5 53 -78 107 -78c52.5 0 95 22.5 106 78h33c-5 -103 -68 -154 -139 -154c-70 0 -134.5 48.5 -140 154h33z" />
    <glyph glyph-name="uni1E1E" unicode="&#x1e1e;" horiz-adv-x="554" 
d="M468 645c24 0 47 1 63 3l2 -3c-1 -14 -2 -27 -2 -35c0 -9 1 -43 2 -51l-2 -4s-147 22 -281 22c-7 -24 -8 -115 -8 -132v-83c118 0 178 5 237 10l3 -3c-2 -9 -3 -28 -3 -37s1 -29 3 -38l-3 -3c-69 7 -189 10 -237 10v-101c0 -75 2 -143 10 -200l-2 -3s-44 3 -78 3
c-35 0 -85 -3 -85 -3l-1 3c8 54 12 125 12 200v245c0 75 -4 143 -12 200l2 3s50 -3 84 -3h296z" />
    <glyph glyph-name="uni1E1F" unicode="&#x1e1f;" horiz-adv-x="366" 
d="M222 379l3 -179c1.3 -75.1 1 -142 8 -200l-2 -3s-34.7 3 -69 3c-35 0 -75 -3 -75 -3l-1 3c7 51 7 125 7 200v179c-22.8 -0.100006 -53.8 -0.700012 -71 -2l-5 7c9.7 15 16.5 31 22 48c12.4 -1.60001 33.5 -2.89999 54 -3v30c0 61 25 124 69 170c42 43.9 102.4 69 178 69
c31.4 0 67 -9 75 -14l1 -3c-9 -20.5 -20 -73 -23 -101l-30 -1c-7.60001 28.9 -35 50 -64 50c-54 0 -84 -38.8 -84 -94c0 -22 7 -70.5 7 -96v-10h47c23 0 51.4 1.39999 70 3l5 -8c-6 -14.7 -10.5 -32 -12 -47c-13.3 1.29999 -48 2 -72 2h-38z" />
    <glyph glyph-name="uni1E20" unicode="&#x1e20;" horiz-adv-x="753" 
d="M510 725h-274c-11 0 -15 14 -15 23c0 12 12 37 25 37h276c10 0 14 -14 14 -22c0 -13 -12 -38 -26 -38zM539 117c0 75 -2 133 -10 190l2 3s48 -3 82 -3c35 0 73 3 73 3l1 -3c-8 -53 -10 -95 -10 -170c0 -32.4 3.90002 -46.5 10 -54v-3c-67.5 -56.6 -180.5 -90 -297 -90
c-82.3 0 -136.2 17.6 -196 58c-86.2 58.3 -142 156.8 -142 259c0 113 44.4 208.5 119 268c69 55 134 83 234 83c122 0 239 -45 239 -45l2 -3c-11.8 -49.3 -16.4 -79 -20 -130l-30 -1c-41 82 -126.9 123 -205 123c-135 0 -178 -114 -178 -275c0 -132 64 -282 200 -282
c54 0 92 6 126 38v34z" />
    <glyph glyph-name="uni1E21" unicode="&#x1e21;" horiz-adv-x="561" 
d="M385 530h-274c-11 0 -15 14 -15 23c0 12 12 37 25 37h276c10 0 14 -14 14 -22c0 -13 -12 -38 -26 -38zM459 289c0 -93.1 -85 -148 -201 -148c-34.1 0 -61.2 5 -75.5 11c-11 -17 -11.5 -28.9 -11.5 -45c0 -43 30 -48 58 -48c5 0 5 1 19 2c23 3 46 5 63 5
c92 0 219 -20 219 -134c0 -53.4 -44.5 -103.5 -103.5 -132.5c-60.4 -29.7 -136.2 -37.5 -201.5 -37.5c-89.2 0 -193 27 -193 114c0 24.8 5 56 22 78c24 14 62.4 28.4 84 42c-55.5 8.5 -79 36 -79 78c0 32.8 42.5 71 87 86l2 5s-24.7 7.60001 -39.5 18
c-25.7 18 -54.5 46 -54.5 102c0 96 89 154 197 154c21.5 0 54.4 -3 72.3 -8.60001c74.6 3.89999 137.9 4.5 185.7 8.60001l3 -3c-2 -9 -3 -20 -3 -29s1 -18 3 -27l-3 -3c-34.8 2.39999 -71.3 8.10001 -101.1 8.60001c31.1 -21 51.1 -62.1 51.1 -96.6zM326 288
c0 75 -11 111 -71 111c-52 0 -68 -43 -68 -109c0 -73 10 -109 71 -109c48 0 68 36 68 107zM183 -16c-26 -27 -32 -54.9 -32 -88c0 -68 68 -89 102 -89c86 0 147 41 147 102c0 69.2 -68 74 -124 74c-13.8 0 -40.5 -1 -70 -1c-9 0 -16.6 1.2 -23 2z" />
    <glyph glyph-name="uni1E22" unicode="&#x1e22;" horiz-adv-x="764" 
d="M527 445c0 75 -4 143 -12 200l2 3s48 -3 82 -3c35 0 83 3 83 3l1 -3c-8 -53 -12 -125 -12 -200v-245c0 -75 4 -143 12 -200l-2 -3s-48 3 -82 3c-35 0 -83 -3 -83 -3l-1 3c8 54 12 125 12 200v111h-290v-111c0 -75 4 -143 12 -200l-2 -3s-48 3 -82 3c-35 0 -83 -3 -83 -3
l-1 3c8 54 12 125 12 200v245c0 75 -4 143 -12 200l2 3s48 -3 82 -3c35 0 83 3 83 3l1 -3c-8 -53 -12 -125 -12 -200v-82h290v82zM282 712c0 38 31 69 71 69s71 -31 71 -69s-31 -69 -71 -69s-71 31 -71 69z" />
    <glyph glyph-name="uni1E23" unicode="&#x1e23;" horiz-adv-x="606" 
d="M86 474c0 76 -4.3 145.3 -12 188l2 3c40.5 3 117.9 23 143 33c6.3 0 9 -3 9 -10c-5.60001 -44.7 -8.3 -84.2 -9.39999 -131.4c8.2 29 35.2 50.4 68.4 50.4c40 0 71 -31 71 -69s-31 -69 -71 -69c-33.9 0 -61.3 22.3 -68.9 52.3c0 -6.89996 -0.100006 -14 -0.100006 -21.3
v-62l-4 -87l4 -2c46 59 120 90 171 90c90 0 129 -58 129 -148v-111c0 -76 1 -123 10 -180l-2 -3s-27 3 -61 3c-35 0 -84 -3 -84 -3l-1 3c6 53 6 105 6 180v89c0 73 -25 93 -52 93c-36 0 -78 -30 -116 -80v-102c0 -76 1 -123 6 -180l-2 -3s-32.7 3 -67 3c-35 0 -80 -3 -80 -3
l-1 3c8.5 53.5 12 105 12 180v294z" />
    <glyph glyph-name="uni1E24" unicode="&#x1e24;" horiz-adv-x="764" 
d="M527 445c0 75 -4 143 -12 200l2 3s48 -3 82 -3c35 0 83 3 83 3l1 -3c-8 -53 -12 -125 -12 -200v-245c0 -75 4 -143 12 -200l-2 -3s-48 3 -82 3c-35 0 -83 -3 -83 -3l-1 3c8 54 12 125 12 200v111h-290v-111c0 -75 4 -143 12 -200l-2 -3s-48 3 -82 3c-35 0 -83 -3 -83 -3
l-1 3c8 54 12 125 12 200v245c0 75 -4 143 -12 200l2 3s48 -3 82 -3c35 0 83 3 83 3l1 -3c-8 -53 -12 -125 -12 -200v-82h290v82zM282 -148c0 38 31 69 71 69s71 -31 71 -69s-31 -69 -71 -69s-71 31 -71 69z" />
    <glyph glyph-name="uni1E25" unicode="&#x1e25;" horiz-adv-x="606" 
d="M188 -149c0 38 31 69 71 69s71 -31 71 -69s-31 -69 -71 -69s-71 31 -71 69zM86 474c0 76 -4.3 145.3 -12 188l2 3c40.5 3 117.9 23 143 33c6.3 0 9 -3 9 -10c-7.7 -61.3 -10 -113 -10 -188v-62l-4 -87l4 -2c46 59 120 90 171 90c90 0 129 -58 129 -148v-111
c0 -76 1 -123 10 -180l-2 -3s-27 3 -61 3c-35 0 -84 -3 -84 -3l-1 3c6 53 6 105 6 180v89c0 73 -25 93 -52 93c-36 0 -78 -30 -116 -80v-102c0 -76 1 -123 6 -180l-2 -3s-32.7 3 -67 3c-35 0 -80 -3 -80 -3l-1 3c8.5 53.5 12 105 12 180v294z" />
    <glyph glyph-name="uni1E26" unicode="&#x1e26;" horiz-adv-x="764" 
d="M397 771c0 35 28 63 63 63c34 0 63 -28 63 -63c0 -34 -29 -62 -63 -62c-35 0 -63 28 -63 62zM177 771c0 35 28 63 63 63s63 -28 63 -63c0 -34 -28 -62 -63 -62s-63 28 -63 62zM527 445c0 75 -4 143 -12 200l2 3s48 -3 82 -3c35 0 83 3 83 3l1 -3
c-8 -53 -12 -125 -12 -200v-245c0 -75 4 -143 12 -200l-2 -3s-48 3 -82 3c-35 0 -83 -3 -83 -3l-1 3c8 54 12 125 12 200v111h-290v-111c0 -75 4 -143 12 -200l-2 -3s-48 3 -82 3c-35 0 -83 -3 -83 -3l-1 3c8 54 12 125 12 200v245c0 75 -4 143 -12 200l2 3s48 -3 82 -3
c35 0 83 3 83 3l1 -3c-8 -53 -12 -125 -12 -200v-82h290v82z" />
    <glyph glyph-name="uni1E27" unicode="&#x1e27;" horiz-adv-x="606" 
d="M345 572c0 25 20 46 45 46s46 -21 46 -46s-21 -45 -46 -45s-45 20 -45 45zM86 474c0 76 -4.3 145.3 -12 188l2 3c40.5 3 117.9 23 143 33c6.3 0 9 -3 9 -10c-3.60001 -29.1 -6 -56.1 -7.60001 -84.4c8.20001 8.80005 19.7 14.4 32.6 14.4c25 0 45 -21 45 -46
s-20 -45 -45 -45c-14 0 -26.5 6.29999 -34.7 16.2c-0.199997 -13.6 -0.300003 -27.9 -0.300003 -43.2v-62l-4 -87l4 -2c46 59 120 90 171 90c90 0 129 -58 129 -148v-111c0 -76 1 -123 10 -180l-2 -3s-27 3 -61 3c-35 0 -84 -3 -84 -3l-1 3c6 53 6 105 6 180v89
c0 73 -25 93 -52 93c-36 0 -78 -30 -116 -80v-102c0 -76 1 -123 6 -180l-2 -3s-32.7 3 -67 3c-35 0 -80 -3 -80 -3l-1 3c8.5 53.5 12 105 12 180v294z" />
    <glyph glyph-name="uni1E28" unicode="&#x1e28;" horiz-adv-x="764" 
d="M527 445c0 75 -4 143 -12 200l2 3s48 -3 82 -3c35 0 83 3 83 3l1 -3c-8 -53 -12 -125 -12 -200v-245c0 -75 4 -143 12 -200l-2 -3s-48 3 -82 3c-35 0 -83 -3 -83 -3l-1 3c8 54 12 125 12 200v111h-290v-111c0 -75 4 -143 12 -200l-2 -3s-41.5 2.6 -74.6 3l-15.4 -37
c45.4 -9.1 92.9 -24.5 92.9 -79.1c0 -50.2 -50.8 -91.9 -115.6 -91.9c-32 0 -48 8 -65.3 19c0 10 3.3 22 13.3 31.5c27 -10 38 -14 58 -14c30 0 46.7 8.5 46.7 35.5c0 37.6 -53 42 -89 44l-6 6l45 85.5c-28.2 -0.8 -55 -2.5 -55 -2.5l-1 3c8 54 12 125 12 200v245
c0 75 -4 143 -12 200l2 3s48 -3 82 -3c35 0 83 3 83 3l1 -3c-8 -53 -12 -125 -12 -200v-82h290v82z" />
    <glyph glyph-name="uni1E29" unicode="&#x1e29;" horiz-adv-x="606" 
d="M69 -90l-6 6l43.5 82.7c-18 -0.8 -31.5 -1.7 -31.5 -1.7l-1 3c8.5 53.5 12 105 12 180v294c0 76 -4.3 145.3 -12 188l2 3c40.5 3 117.9 23 143 33c6.3 0 9 -3 9 -10c-7.7 -61.3 -10 -113 -10 -188v-62l-4 -87l4 -2c46 59 120 90 171 90c90 0 129 -58 129 -148v-111
c0 -76 1 -123 10 -180l-2 -3s-27 3 -61 3c-35 0 -84 -3 -84 -3l-1 3c6 53 6 105 6 180v89c0 73 -25 93 -52 93c-36 0 -78 -30 -116 -80v-102c0 -76 1 -123 6 -180l-2 -3s-32.7 3 -67 3c-4 0 -8.3 0 -12.5 -0.1l-14.5 -34.9c45.4 -9.1 92.9 -24.5 92.9 -79.1
c0 -50.2 -50.8 -91.9 -115.6 -91.9c-32 0 -48 8 -65.3 19c0 10 3.3 22 13.3 31.5c27 -10 38 -14 58 -14c30 0 46.7 8.5 46.7 35.5c0 37.6 -53 42 -89 44z" />
    <glyph glyph-name="uni1E2A" unicode="&#x1e2a;" horiz-adv-x="764" 
d="M527 445c0 75 -4 143 -12 200l2 3s48 -3 82 -3c35 0 83 3 83 3l1 -3c-8 -53 -12 -125 -12 -200v-245c0 -75 4 -143 12 -200l-2 -3s-48 3 -82 3c-35 0 -83 -3 -83 -3l-1 3c8 54 12 125 12 200v111h-290v-111c0 -75 4 -143 12 -200l-2 -3s-48 3 -82 3c-35 0 -83 -3 -83 -3
l-1 3c8 54 12 125 12 200v245c0 75 -4 143 -12 200l2 3s48 -3 82 -3c35 0 83 3 83 3l1 -3c-8 -53 -12 -125 -12 -200v-82h290v82zM250 -67c16 -58.5 53 -78 107 -78c52.5 0 95 22.5 106 78h33c-5 -103 -68 -154 -139 -154c-70 0 -134.5 48.5 -140 154h33z" />
    <glyph glyph-name="uni1E2B" unicode="&#x1e2b;" horiz-adv-x="606" 
d="M185 -77c16 -58.5 53 -78 107 -78c52.5 0 95 22.5 106 78h33c-5 -103 -68 -154 -139 -154c-70 0 -134.5 48.5 -140 154h33zM86 474c0 76 -4.3 145.3 -12 188l2 3c40.5 3 117.9 23 143 33c6.3 0 9 -3 9 -10c-7.7 -61.3 -10 -113 -10 -188v-62l-4 -87l4 -2
c46 59 120 90 171 90c90 0 129 -58 129 -148v-111c0 -76 1 -123 10 -180l-2 -3s-27 3 -61 3c-35 0 -84 -3 -84 -3l-1 3c6 53 6 105 6 180v89c0 73 -25 93 -52 93c-36 0 -78 -30 -116 -80v-102c0 -76 1 -123 6 -180l-2 -3s-32.7 3 -67 3c-35 0 -80 -3 -80 -3l-1 3
c8.5 53.5 12 105 12 180v294z" />
    <glyph glyph-name="uni1E2C" unicode="&#x1e2c;" horiz-adv-x="330" 
d="M232 -99c21 0 36 6 49 42l32 -9c-14 -64 -49 -107 -100 -107c-42.1 0 -77.9 42 -118 42c-29 0 -41 -12 -49 -43l-33 7c15 64 46 109 94 109c49.7 0 76.5 -41 125 -41zM93 445c0 75 -4 143 -12 200l2 3s48 -3 82 -3c35 0 83 3 83 3l1 -3c-8 -53 -12 -125 -12 -200v-245
c0 -75 4 -143 12 -200l-2 -3s-48 3 -82 3c-35 0 -83 -3 -83 -3l-1 3c8 54 12 125 12 200v245z" />
    <glyph glyph-name="uni1E2D" unicode="&#x1e2d;" horiz-adv-x="312" 
d="M225 -99c21 0 36 6 49 42l32 -9c-14 -64 -49 -107 -100 -107c-42.1 0 -77.9 42 -118 42c-29 0 -41 -12 -49 -43l-33 7c15 64 46 109 94 109c49.7 0 76.5 -41 125 -41zM85 607c0 38 31 69 71 69s71 -31 71 -69s-31 -69 -71 -69s-71 31 -71 69zM90 235c0 75 -2 150 -10 193
l3 4c17.7 -1.29999 45 -3 71 -3c28 0 55.3 3 69 5c6 0 9 -3 9 -10c-6.3 -60 -10 -103 -10 -178v-66c0 -76 2 -123 10 -180l-2 -3c-18.7 2 -40 3 -74 3c-35 0 -53.3 -0.7 -74 -3l-2 3c8 54 10 105 10 180v55z" />
    <glyph glyph-name="uni1E2E" unicode="&#x1e2e;" horiz-adv-x="330" 
d="M229 1021.8c21.1 -16.5 37 -45.7 43.9 -71.2l-5.39999 -12.3l-117.1 -38.8c-17.1 -5.70001 -23.8 -7.90002 -30 -7.90002c-6.2 0 -12.3 14.1 -12.3 22c0 6.20001 1.4 13 11.5 21.1zM217 788c0 35 28 63 63 63c34 0 63 -28 63 -63c0 -34 -29 -62 -63 -62
c-35 0 -63 28 -63 62zM-3 788c0 35 28 63 63 63s63 -28 63 -63c0 -34 -28 -62 -63 -62s-63 28 -63 62zM93 445c0 75 -4 143 -12 200l2 3s48 -3 82 -3c35 0 83 3 83 3l1 -3c-8 -53 -12 -125 -12 -200v-245c0 -75 4 -143 12 -200l-2 -3s-48 3 -82 3c-35 0 -83 -3 -83 -3l-1 3
c8 54 12 125 12 200v245z" />
    <glyph glyph-name="uni1E2F" unicode="&#x1e2f;" horiz-adv-x="343" 
d="M177.8 711.9c2.3 0.899963 8.39999 1.79999 12.3 1.79999c23.1 0 45.4 -12.4 51.6 -21.2l7.7 -20.2l-92.4 -95.1c-10.8 -10.6 -25.4 -14 -33.1 -14c-1.7 0 -3.8 0.5 -5.8 1.39996c-11.9 -16 -31.1 -26.6 -53.1 -26.6c-35 0 -64 30 -64 65c0 37 29 66 64 66
c30.2 0 55.1 -19.4 63.2 -46.6zM210 603c0 37 29 66 66 66c35 0 64 -29 64 -66c0 -35 -29 -65 -64 -65c-37 0 -66 30 -66 65zM102 235c0 75 -2 150 -10 193l3 4c17.7 -1.29999 45 -3 71 -3c28 0 55.3 3 69 5c6 0 9 -3 9 -10c-6.3 -60 -10 -103 -10 -178v-66
c0 -76 2 -123 10 -180l-2 -3c-18.7 2 -40 3 -74 3c-35 0 -53.3 -0.7 -74 -3l-2 3c8 54 10 105 10 180v55z" />
    <glyph glyph-name="uni1E30" unicode="&#x1e30;" horiz-adv-x="712" 
d="M431 0c-6 1 -13 4 -20 4c-6 0 -12 -3 -24 -3c-13 0 -23 5 -23 22c0 8 5 18 18 18c19 0 28 -18 52 -29c-2 22 -16 37 -16 51c0 11 11 21 21 21c1.70001 0 3.39999 -0.199997 5.10001 -0.5c-75.4 95.7 -153.9 197.3 -185.1 228.5c-6 5 -19 7 -22 7v-119
c0 -75 4 -143 12 -200l-2 -3s-48 3 -82 3c-35 0 -83 -3 -83 -3l-1 3c8 54 12 125 12 200v245c0 75 -4 143 -12 200l2 3s48 -3 82 -3c35 0 83 3 83 3l1 -3c-8 -53 -12 -125 -12 -200v-91h1c4 0 16 2 24 9c88 77 176 183 265 285c13 -3 66 -3 79 -3c15 0 75 0 91 3
c-88 -77 -246 -215 -314 -294v-2l324 -355c-19 3 -83 3 -102 3c-17 0 -75 0 -92 -3c-2.39999 2.9 -4.79999 5.9 -7.20001 8.9c-6.69998 -3.4 -15.9 -4.9 -25.8 -4.9c-11 0 -20 1 -30 -1c19 -20 46 -18 46 -47c0 -10 -10 -16 -18 -16c-26 0 -25 33 -38 55
c-13 -24 -6 -55 -39 -55c-9 0 -16 7 -16 16c0 30 28 26 46 47zM460.9 62.2c-1.39999 -14.8 -13 -35.2 -13.9 -50.2c16.2 7.4 24.7 18.5 34 24.9c-6.60001 8.3 -13.3 16.7 -20.1 25.3z" />
    <glyph glyph-name="uni1E31" unicode="&#x1e31;" horiz-adv-x="582" 
d="M339 639c3 1 11 2 16 2c30 0 59 -14 67 -24l10 -23l-120 -108c-14 -12 -33 -16 -43 -16c-8 0 -21 8 -21 14s2 15 8 24zM86 200v274c0 76 -4.3 145.3 -12 188l2 3c40.5 3 117.9 23 143 33c6.3 0 11 -3 11 -10c-7.7 -61.3 -12 -113 -12 -188v-250.4
c13.7 1.59999 34.7 6.5 45 14.4c39.6 30.5 93 100 132 165c27 0 138 0 157 3l2 -3c-81.1 -61.1 -165.5 -136 -202 -177c95 -115.5 148.6 -173.4 223 -252l-2 -3c-9 1.8 -87.3 3 -104 3c-17 0 -64.7 -1.2 -80 -3c-53.1 95.9 -83.1 139.9 -145 209
c-6.3 5.60001 -17.5 7.8 -26 8.60001v-14.6c0 -75.2 3.5 -143 12 -200l-2 -3s-41.7 3 -76 3c-35 0 -77 -3 -77 -3l-1 3c8.5 53.5 12 125 12 200z" />
    <glyph glyph-name="uni1E32" unicode="&#x1e32;" horiz-adv-x="712" 
d="M254 -148c0 38 31 69 71 69s71 -31 71 -69s-31 -69 -71 -69s-71 31 -71 69zM93 445c0 75 -4 143 -12 200l2 3s48 -3 82 -3c35 0 83 3 83 3l1 -3c-8 -53 -12 -125 -12 -200v-91h1c4 0 16 2 24 9c88 77 176 183 265 285c13 -3 66 -3 79 -3c15 0 75 0 91 3
c-88 -77 -246 -215 -314 -294v-2l324 -355c-19 3 -83 3 -102 3c-17 0 -75 0 -92 -3c-90 111 -213 274 -254 315c-6 5 -19 7 -22 7v-119c0 -75 4 -143 12 -200l-2 -3s-48 3 -82 3c-35 0 -83 -3 -83 -3l-1 3c8 54 12 125 12 200v245z" />
    <glyph glyph-name="uni1E33" unicode="&#x1e33;" horiz-adv-x="582" 
d="M180 -148c0 38 31 69 71 69s71 -31 71 -69s-31 -69 -71 -69s-71 31 -71 69zM86 200v274c0 76 -4.3 145.3 -12 188l2 3c40.5 3 117.9 23 143 33c6.3 0 11 -3 11 -10c-7.7 -61.3 -12 -113 -12 -188v-250.4c13.7 1.59999 34.7 6.5 45 14.4c39.6 30.5 93 100 132 165
c27 0 138 0 157 3l2 -3c-81.1 -61.1 -165.5 -136 -202 -177c95 -115.5 148.6 -173.4 223 -252l-2 -3c-9 1.8 -87.3 3 -104 3c-17 0 -64.7 -1.2 -80 -3c-53.1 95.9 -83.1 139.9 -145 209c-6.3 5.60001 -17.5 7.8 -26 8.60001v-14.6c0 -75.2 3.5 -143 12 -200l-2 -3
s-41.7 3 -76 3c-35 0 -77 -3 -77 -3l-1 3c8.5 53.5 12 125 12 200z" />
    <glyph glyph-name="uni1E34" unicode="&#x1e34;" horiz-adv-x="712" 
d="M456 -106h-245c-8 0 -12 8 -12 15c0 12 10 29 22 29h245c9 0 13 -7 13 -14c0 -12 -10 -30 -23 -30zM93 445c0 75 -4 143 -12 200l2 3s48 -3 82 -3c35 0 83 3 83 3l1 -3c-8 -53 -12 -125 -12 -200v-91h1c4 0 16 2 24 9c88 77 176 183 265 285c13 -3 66 -3 79 -3
c15 0 75 0 91 3c-88 -77 -246 -215 -314 -294v-2l324 -355c-19 3 -83 3 -102 3c-17 0 -75 0 -92 -3c-90 111 -213 274 -254 315c-6 5 -19 7 -22 7v-119c0 -75 4 -143 12 -200l-2 -3s-48 3 -82 3c-35 0 -83 -3 -83 -3l-1 3c8 54 12 125 12 200v245z" />
    <glyph glyph-name="uni1E35" unicode="&#x1e35;" horiz-adv-x="582" 
d="M380 -107h-245c-8 0 -12 8 -12 15c0 12 10 29 22 29h245c9 0 13 -7 13 -14c0 -12 -10 -30 -23 -30zM86 200v274c0 76 -4.3 145.3 -12 188l2 3c40.5 3 117.9 23 143 33c6.3 0 11 -3 11 -10c-7.7 -61.3 -12 -113 -12 -188v-250.4c13.7 1.59999 34.7 6.5 45 14.4
c39.6 30.5 93 100 132 165c27 0 138 0 157 3l2 -3c-81.1 -61.1 -165.5 -136 -202 -177c95 -115.5 148.6 -173.4 223 -252l-2 -3c-9 1.8 -87.3 3 -104 3c-17 0 -64.7 -1.2 -80 -3c-53.1 95.9 -83.1 139.9 -145 209c-6.3 5.60001 -17.5 7.8 -26 8.60001v-14.6
c0 -75.2 3.5 -143 12 -200l-2 -3s-41.7 3 -76 3c-35 0 -77 -3 -77 -3l-1 3c8.5 53.5 12 125 12 200z" />
    <glyph glyph-name="uni1E36" unicode="&#x1e36;" horiz-adv-x="588" 
d="M205 -148c0 38 31 69 71 69s71 -31 71 -69s-31 -69 -71 -69s-71 31 -71 69zM247 210c0 -17 1 -105 8 -129c134 0 286 22 286 22l2 -4c-1 -8 -2 -47 -2 -57s1 -28 2 -42l-2 -3c-16 2 -39 3 -60 3h-304c-34 0 -83 -3 -83 -3l-1 3c8 54 10 125 10 200v245
c0 75 -3 143 -11 200l2 3s45 -3 79 -3c35 0 83 3 83 3l1 -3c-8 -53 -10 -125 -10 -200v-235z" />
    <glyph glyph-name="uni1E37" unicode="&#x1e37;" horiz-adv-x="304" 
d="M86 200v274c0 76 -4.3 145.3 -12 188l2 3c40.5 3 117.9 23 143 33c6.3 0 11 -3 11 -10c-7.7 -61.3 -12 -113 -12 -188v-300c0 -75.2 3.5 -143 12 -200l-2 -3s-41.7 3 -76 3c-35 0 -77 -3 -77 -3l-1 3c8.5 53.5 12 125 12 200zM50 -148c0 38 31 69 71 69s71 -31 71 -69
s-31 -69 -71 -69s-71 31 -71 69z" />
    <glyph glyph-name="uni1E38" unicode="&#x1e38;" horiz-adv-x="588" 
d="M294 725h-274c-11 0 -15 14 -15 23c0 12 12 37 25 37h276c10 0 14 -14 14 -22c0 -13 -12 -38 -26 -38zM205 -148c0 38 31 69 71 69s71 -31 71 -69s-31 -69 -71 -69s-71 31 -71 69zM247 210c0 -17 1 -105 8 -129c134 0 286 22 286 22l2 -4c-1 -8 -2 -47 -2 -57
s1 -28 2 -42l-2 -3c-16 2 -39 3 -60 3h-304c-34 0 -83 -3 -83 -3l-1 3c8 54 10 125 10 200v245c0 75 -3 143 -11 200l2 3s45 -3 79 -3c35 0 83 3 83 3l1 -3c-8 -53 -10 -125 -10 -200v-235z" />
    <glyph glyph-name="uni1E39" unicode="&#x1e39;" horiz-adv-x="304" 
d="M86 200v274c0 76 -4.3 145.3 -12 188l2 3c40.5 3 117.9 23 143 33c6.3 0 11 -3 11 -10c-7.7 -61.3 -12 -113 -12 -188v-300c0 -75.2 3.5 -143 12 -200l-2 -3s-41.7 3 -76 3c-35 0 -77 -3 -77 -3l-1 3c8.5 53.5 12 125 12 200zM50 -148c0 38 31 69 71 69s71 -31 71 -69
s-31 -69 -71 -69s-71 31 -71 69zM258 748h-274c-11 0 -15 14 -15 23c0 12 12 37 25 37h276c10 0 14 -14 14 -22c0 -13 -12 -38 -26 -38z" />
    <glyph glyph-name="uni1E3A" unicode="&#x1e3a;" horiz-adv-x="588" 
d="M388 -112h-245c-8 0 -12 8 -12 15c0 12 10 29 22 29h245c9 0 13 -7 13 -14c0 -12 -10 -30 -23 -30zM247 210c0 -17 1 -105 8 -129c134 0 286 22 286 22l2 -4c-1 -8 -2 -47 -2 -57s1 -28 2 -42l-2 -3c-16 2 -39 3 -60 3h-304c-34 0 -83 -3 -83 -3l-1 3c8 54 10 125 10 200
v245c0 75 -3 143 -11 200l2 3s45 -3 79 -3c35 0 83 3 83 3l1 -3c-8 -53 -10 -125 -10 -200v-235z" />
    <glyph glyph-name="uni1E3B" unicode="&#x1e3b;" horiz-adv-x="304" 
d="M86 200v274c0 76 -4.3 145.3 -12 188l2 3c40.5 3 117.9 23 143 33c6.3 0 11 -3 11 -10c-7.7 -61.3 -12 -113 -12 -188v-300c0 -75.2 3.5 -143 12 -200l-2 -3s-41.7 3 -76 3c-35 0 -77 -3 -77 -3l-1 3c8.5 53.5 12 125 12 200zM237 -112h-245c-8 0 -12 8 -12 15
c0 12 10 29 22 29h245c9 0 13 -7 13 -14c0 -12 -10 -30 -23 -30z" />
    <glyph glyph-name="uni1E3C" unicode="&#x1e3c;" horiz-adv-x="588" 
d="M388 -232l-27 -24c-48 23 -80 50 -118 87c-42 -39 -73.5 -65 -117 -87l-27 24c46.5 47 95 107 128 156h34c37.5 -55 78.5 -107.5 127 -156zM247 210c0 -17 1 -105 8 -129c134 0 286 22 286 22l2 -4c-1 -8 -2 -47 -2 -57s1 -28 2 -42l-2 -3c-16 2 -39 3 -60 3h-304
c-34 0 -83 -3 -83 -3l-1 3c8 54 10 125 10 200v245c0 75 -3 143 -11 200l2 3s45 -3 79 -3c35 0 83 3 83 3l1 -3c-8 -53 -10 -125 -10 -200v-235z" />
    <glyph glyph-name="uni1E3D" unicode="&#x1e3d;" horiz-adv-x="304" 
d="M86 200v274c0 76 -4.3 145.3 -12 188l2 3c40.5 3 117.9 23 143 33c6.3 0 11 -3 11 -10c-7.7 -61.3 -12 -113 -12 -188v-300c0 -75.2 3.5 -143 12 -200l-2 -3s-41.7 3 -76 3c-35 0 -77 -3 -77 -3l-1 3c8.5 53.5 12 125 12 200zM229 -232l-27 -24c-48 23 -80 50 -118 87
c-42 -39 -73.5 -65 -117 -87l-27 24c46.5 47 95 107 128 156h34c37.5 -55 78.5 -107.5 127 -156z" />
    <glyph glyph-name="uni1E3E" unicode="&#x1e3e;" horiz-adv-x="921" 
d="M161 653h102c59.9 -161 117.9 -307 196 -465h4l250 465h89c26 -246 48 -439 79 -656c-15 3 -58 3 -73 3s-63 0 -78 -3c-14 166 -27 315 -46 473h-3c-84.1 -153.5 -165 -304 -238 -470h-64c-53.1 149.5 -117.1 309 -190 469l-3 1c-26.1 -155.5 -51.1 -367.5 -55 -473
c-11 3 -45 3 -56 3c-12 0 -35 0 -46 -3c42.9 191 95.9 442 132 656zM432 970c27.4 -18.7 48 -52 57 -81l-7 -13.9l-152 -44.1c-22.2 -6.40002 -30.9 -9 -39 -9s-16 16 -16 25c0 7 1.79999 14.8 15 24z" />
    <glyph glyph-name="uni1E3F" unicode="&#x1e3f;" horiz-adv-x="892" 
d="M380 639c3 1 11 2 16 2c30 0 59 -14 67 -24l10 -23l-120 -108c-14 -12 -33 -16 -43 -16c-8 0 -21 8 -21 14s2 15 8 24zM216 349c38 49 100 90 149 90c89.6 0 117 -30 137 -80c57 60 109 80 159 80c108 0 143 -59 143 -159v-100c0 -76 4 -123 12 -180l-2 -3s-39 3 -73 3
c-35 0 -80 -3 -80 -3l-1 3c8 54 12 105 12 180v93c0 67 -23 89 -55 89c-39 0 -61 -11 -109 -64c1 -12 1 -16 1 -30v-88c0 -76 4 -123 12 -180l-2 -3s-39 3 -73 3c-35 0 -80 -3 -80 -3l-1 3c8 54 12 105 12 180v101c0 67 -21 81 -59 81c-28 0 -64 -30 -106 -81v-101
c0 -76 2 -123 10 -180l-2 -3s-40 3 -74 3c-35 0 -77 -3 -77 -3l-1 3c8 54 12 105 12 180v55c0 74.7 -3.3 151.3 -11 194l2 3c35 -1.70001 100 -1.70001 129 3c6.3 0 7.8 -3.10001 9 -10c1.5 -8.5 2.8 -50.2 2.8 -73z" />
    <glyph glyph-name="uni1E40" unicode="&#x1e40;" horiz-adv-x="921" 
d="M353 712c0 38 31 69 71 69s71 -31 71 -69s-31 -69 -71 -69s-71 31 -71 69zM161 653h102c59.9 -161 117.9 -307 196 -465h4l250 465h89c26 -246 48 -439 79 -656c-15 3 -58 3 -73 3s-63 0 -78 -3c-14 166 -27 315 -46 473h-3c-84.1 -153.5 -165 -304 -238 -470h-64
c-53.1 149.5 -117.1 309 -190 469l-3 1c-26.1 -155.5 -51.1 -367.5 -55 -473c-11 3 -45 3 -56 3c-12 0 -35 0 -46 -3c42.9 191 95.9 442 132 656z" />
    <glyph glyph-name="uni1E41" unicode="&#x1e41;" horiz-adv-x="892" 
d="M296 540c0 38 31 69 71 69s71 -31 71 -69s-31 -69 -71 -69s-71 31 -71 69zM216 349c38 49 100 90 149 90c89.6 0 117 -30 137 -80c57 60 109 80 159 80c108 0 143 -59 143 -159v-100c0 -76 4 -123 12 -180l-2 -3s-39 3 -73 3c-35 0 -80 -3 -80 -3l-1 3
c8 54 12 105 12 180v93c0 67 -23 89 -55 89c-39 0 -61 -11 -109 -64c1 -12 1 -16 1 -30v-88c0 -76 4 -123 12 -180l-2 -3s-39 3 -73 3c-35 0 -80 -3 -80 -3l-1 3c8 54 12 105 12 180v101c0 67 -21 81 -59 81c-28 0 -64 -30 -106 -81v-101c0 -76 2 -123 10 -180l-2 -3
s-40 3 -74 3c-35 0 -77 -3 -77 -3l-1 3c8 54 12 105 12 180v55c0 74.7 -3.3 151.3 -11 194l2 3c35 -1.70001 100 -1.70001 129 3c6.3 0 7.8 -3.10001 9 -10c1.5 -8.5 2.8 -50.2 2.8 -73z" />
    <glyph glyph-name="uni1E42" unicode="&#x1e42;" horiz-adv-x="921" 
d="M324 -148c0 38 31 69 71 69s71 -31 71 -69s-31 -69 -71 -69s-71 31 -71 69zM161 653h102c59.9 -161 117.9 -307 196 -465h4l250 465h89c26 -246 48 -439 79 -656c-15 3 -58 3 -73 3s-63 0 -78 -3c-14 166 -27 315 -46 473h-3c-84.1 -153.5 -165 -304 -238 -470h-64
c-53.1 149.5 -117.1 309 -190 469l-3 1c-26.1 -155.5 -51.1 -367.5 -55 -473c-11 3 -45 3 -56 3c-12 0 -35 0 -46 -3c42.9 191 95.9 442 132 656z" />
    <glyph glyph-name="uni1E43" unicode="&#x1e43;" horiz-adv-x="892" 
d="M295 -148c0 38 31 69 71 69s71 -31 71 -69s-31 -69 -71 -69s-71 31 -71 69zM216 349c38 49 100 90 149 90c89.6 0 117 -30 137 -80c57 60 109 80 159 80c108 0 143 -59 143 -159v-100c0 -76 4 -123 12 -180l-2 -3s-39 3 -73 3c-35 0 -80 -3 -80 -3l-1 3
c8 54 12 105 12 180v93c0 67 -23 89 -55 89c-39 0 -61 -11 -109 -64c1 -12 1 -16 1 -30v-88c0 -76 4 -123 12 -180l-2 -3s-39 3 -73 3c-35 0 -80 -3 -80 -3l-1 3c8 54 12 105 12 180v101c0 67 -21 81 -59 81c-28 0 -64 -30 -106 -81v-101c0 -76 2 -123 10 -180l-2 -3
s-40 3 -74 3c-35 0 -77 -3 -77 -3l-1 3c8 54 12 105 12 180v55c0 74.7 -3.3 151.3 -11 194l2 3c35 -1.70001 100 -1.70001 129 3c6.3 0 7.8 -3.10001 9 -10c1.5 -8.5 2.8 -50.2 2.8 -73z" />
    <glyph glyph-name="uni1E44" unicode="&#x1e44;" horiz-adv-x="748" 
d="M286 712c0 38 31 69 71 69s71 -31 71 -69s-31 -69 -71 -69s-71 31 -71 69zM101 445c2 75 -2 143 -10 200l2 3s36.7 -3 60 -3c18.3 0 49 3 49 3c112 -147.1 257.2 -316.1 382 -447.7l3 -0.300003v245c-2.09998 75 -5 143 -13 200l2 3s25.7 -3 50 -3c22.3 0 49 3 49 3l2 -3
c-8 -53 -10 -125 -10 -200l-6 -448c-16.2 2 -32 3 -48 3c-16.2 0 -39.5 -1.5 -56 -3c-115 147.9 -250 306.9 -381 458h-6l-4 -255c-1.2 -78 -2 -143 6 -200l-2 -3s-19.7 3 -44 3c-22.3 0 -45 -3 -45 -3l-1 3c8 53 12.8 122.2 16 200z" />
    <glyph glyph-name="uni1E45" unicode="&#x1e45;" horiz-adv-x="600" 
d="M210 538c0 38 31 69 71 69s71 -31 71 -69s-31 -69 -71 -69s-71 31 -71 69zM512 180c0 -76 2 -123 11 -180l-2 -3s-44 3 -78 3c-35 0 -67 -3 -67 -3l-2 3c6 53 6 105 6 180v89c0 73 -25 93 -52 93c-36 0 -78 -30 -116 -80v-102c0 -76 1 -123 6 -180l-3 -3s-27.7 3 -62 3
c-35 0 -82 -3 -82 -3l-2 3c8.5 53.5 11 105 11 180v55c0 74.7 -3.3 151.3 -11 194l2 3c35 -1.70001 100 -1.70001 129 3c6.3 0 7.8 -3.10001 9 -10c1.5 -8.5 2.8 -50.2 2.8 -73l4.2 -3c46 59 106 90 157 90c90 0 139 -43 139 -148v-111z" />
    <glyph glyph-name="uni1E46" unicode="&#x1e46;" horiz-adv-x="748" 
d="M278 -148c0 38 31 69 71 69s71 -31 71 -69s-31 -69 -71 -69s-71 31 -71 69zM101 445c2 75 -2 143 -10 200l2 3s36.7 -3 60 -3c18.3 0 49 3 49 3c112 -147.1 257.2 -316.1 382 -447.7l3 -0.300003v245c-2.09998 75 -5 143 -13 200l2 3s25.7 -3 50 -3c22.3 0 49 3 49 3
l2 -3c-8 -53 -10 -125 -10 -200l-6 -448c-16.2 2 -32 3 -48 3c-16.2 0 -39.5 -1.5 -56 -3c-115 147.9 -250 306.9 -381 458h-6l-4 -255c-1.2 -78 -2 -143 6 -200l-2 -3s-19.7 3 -44 3c-22.3 0 -45 -3 -45 -3l-1 3c8 53 12.8 122.2 16 200z" />
    <glyph glyph-name="uni1E47" unicode="&#x1e47;" horiz-adv-x="600" 
d="M189 -148c0 38 31 69 71 69s71 -31 71 -69s-31 -69 -71 -69s-71 31 -71 69zM512 180c0 -76 2 -123 11 -180l-2 -3s-44 3 -78 3c-35 0 -67 -3 -67 -3l-2 3c6 53 6 105 6 180v89c0 73 -25 93 -52 93c-36 0 -78 -30 -116 -80v-102c0 -76 1 -123 6 -180l-3 -3s-27.7 3 -62 3
c-35 0 -82 -3 -82 -3l-2 3c8.5 53.5 11 105 11 180v55c0 74.7 -3.3 151.3 -11 194l2 3c35 -1.70001 100 -1.70001 129 3c6.3 0 7.8 -3.10001 9 -10c1.5 -8.5 2.8 -50.2 2.8 -73l4.2 -3c46 59 106 90 157 90c90 0 139 -43 139 -148v-111z" />
    <glyph glyph-name="uni1E48" unicode="&#x1e48;" horiz-adv-x="748" 
d="M473 -112h-245c-8 0 -12 8 -12 15c0 12 10 29 22 29h245c9 0 13 -7 13 -14c0 -12 -10 -30 -23 -30zM101 445c2 75 -2 143 -10 200l2 3s36.7 -3 60 -3c18.3 0 49 3 49 3c112 -147.1 257.2 -316.1 382 -447.7l3 -0.300003v245c-2.09998 75 -5 143 -13 200l2 3
s25.7 -3 50 -3c22.3 0 49 3 49 3l2 -3c-8 -53 -10 -125 -10 -200l-6 -448c-16.2 2 -32 3 -48 3c-16.2 0 -39.5 -1.5 -56 -3c-115 147.9 -250 306.9 -381 458h-6l-4 -255c-1.2 -78 -2 -143 6 -200l-2 -3s-19.7 3 -44 3c-22.3 0 -45 -3 -45 -3l-1 3c8 53 12.8 122.2 16 200z
" />
    <glyph glyph-name="uni1E49" unicode="&#x1e49;" horiz-adv-x="600" 
d="M375 -112h-245c-8 0 -12 8 -12 15c0 12 10 29 22 29h245c9 0 13 -7 13 -14c0 -12 -10 -30 -23 -30zM512 180c0 -76 2 -123 11 -180l-2 -3s-44 3 -78 3c-35 0 -67 -3 -67 -3l-2 3c6 53 6 105 6 180v89c0 73 -25 93 -52 93c-36 0 -78 -30 -116 -80v-102
c0 -76 1 -123 6 -180l-3 -3s-27.7 3 -62 3c-35 0 -82 -3 -82 -3l-2 3c8.5 53.5 11 105 11 180v55c0 74.7 -3.3 151.3 -11 194l2 3c35 -1.70001 100 -1.70001 129 3c6.3 0 7.8 -3.10001 9 -10c1.5 -8.5 2.8 -50.2 2.8 -73l4.2 -3c46 59 106 90 157 90c90 0 139 -43 139 -148
v-111z" />
    <glyph glyph-name="uni1E4A" unicode="&#x1e4a;" horiz-adv-x="748" 
d="M457 -232l-27 -24c-48 23 -80 50 -118 87c-42 -39 -73.5 -65 -117 -87l-27 24c46.5 47 95 107 128 156h34c37.5 -55 78.5 -107.5 127 -156zM101 445c2 75 -2 143 -10 200l2 3s36.7 -3 60 -3c18.3 0 49 3 49 3c112 -147.1 257.2 -316.1 382 -447.7l3 -0.300003v245
c-2.09998 75 -5 143 -13 200l2 3s25.7 -3 50 -3c22.3 0 49 3 49 3l2 -3c-8 -53 -10 -125 -10 -200l-6 -448c-16.2 2 -32 3 -48 3c-16.2 0 -39.5 -1.5 -56 -3c-115 147.9 -250 306.9 -381 458h-6l-4 -255c-1.2 -78 -2 -143 6 -200l-2 -3s-19.7 3 -44 3c-22.3 0 -45 -3 -45 -3
l-1 3c8 53 12.8 122.2 16 200z" />
    <glyph glyph-name="uni1E4B" unicode="&#x1e4b;" horiz-adv-x="600" 
d="M371 -232l-27 -24c-48 23 -80 50 -118 87c-42 -39 -73.5 -65 -117 -87l-27 24c46.5 47 95 107 128 156h34c37.5 -55 78.5 -107.5 127 -156zM512 180c0 -76 2 -123 11 -180l-2 -3s-44 3 -78 3c-35 0 -67 -3 -67 -3l-2 3c6 53 6 105 6 180v89c0 73 -25 93 -52 93
c-36 0 -78 -30 -116 -80v-102c0 -76 1 -123 6 -180l-3 -3s-27.7 3 -62 3c-35 0 -82 -3 -82 -3l-2 3c8.5 53.5 11 105 11 180v55c0 74.7 -3.3 151.3 -11 194l2 3c35 -1.70001 100 -1.70001 129 3c6.3 0 7.8 -3.10001 9 -10c1.5 -8.5 2.8 -50.2 2.8 -73l4.2 -3
c46 59 106 90 157 90c90 0 139 -43 139 -148v-111z" />
    <glyph glyph-name="uni1E4C" unicode="&#x1e4c;" horiz-adv-x="799" 
d="M414.2 767.9c17.8 0 30.6 6.59998 41.7 46.2l27.2 -9.89996c-11.9 -70.4 -41.6 -117.7 -85 -117.7c-35.8 0 -66.2 46.2 -100.3 46.2c-24.6 0 -34.8 -13.2 -41.6 -47.3l-28.1 7.69995c12.8 70.4 39.1 119.9 79.9 119.9c42.2 0 65 -45.1 106.2 -45.1zM384 603
c-96 0 -171 -66 -171 -276c0 -192 85 -282 205 -282c114 0 168 86 168 265c0 208 -61 293 -202 293zM747 329c0 -200 -134.9 -339 -349 -339c-198 0 -346 132 -346 320c0 196 142 348 345 348c213 0 350 -131 350 -329zM612 936.8c21.1 -16.5 37 -45.7 43.9 -71.2
l-5.40002 -12.3l-117.1 -38.8c-17.1 -5.70001 -23.8 -7.90002 -30 -7.90002c-6.19998 0 -12.3 14.1 -12.3 22c0 6.20001 1.39999 13 11.5 21.1z" />
    <glyph glyph-name="uni1E4D" unicode="&#x1e4d;" horiz-adv-x="566" 
d="M332 569c21 0 36 6 49 42l32 -9c-14 -64 -49 -107 -100 -107c-42.1 0 -77.9 42 -118 42c-29 0 -41 -12 -49 -43l-33 7c15 64 46 109 94 109c27.8 0 48.4 -12.8 69.7 -24.1c0.0999756 5.29999 1.69998 13 6.19998 20.7l63.9 115.3
c2.30002 0.899963 8.40002 1.79999 12.3 1.79999c23.1 0 45.4 -12.4 51.6 -21.2l7.69998 -20.2l-92.4 -95.1c-7.39999 -7.20001 -16.5 -11.1 -24 -12.9c9.29999 -3.20001 19.1 -5.29999 30 -5.29999zM41 205c0 155 101 234 244 234c169 0 240 -99 240 -225
c0 -138.2 -89 -224 -242 -224c-149 0 -242 82 -242 215zM278 389c-86 0 -95 -74 -95 -161c0 -77 10 -188 114 -188c45 0 86 32 86 147c0 139 -20 202 -105 202z" />
    <glyph glyph-name="uni1E4E" unicode="&#x1e4e;" horiz-adv-x="799" 
d="M117 752c0 25 21 46 45 46c25 0 46 -21 46 -46c0 -24 -21 -45 -46 -45c-24 0 -45 21 -45 45zM526 752c0 25 21 46 46 46s45 -21 45 -46c0 -24 -20 -45 -45 -45s-46 21 -46 45zM429.2 767.9c17.8 0 30.6 6.59998 41.7 46.2l27.2 -9.89996
c-11.9 -70.4 -41.6 -117.7 -85 -117.7c-35.8 0 -66.2 46.2 -100.3 46.2c-24.6 0 -34.8 -13.2 -41.6 -47.3l-28.1 7.69995c12.8 70.4 39.1 119.9 79.9 119.9c42.2 0 65 -45.1 106.2 -45.1zM384 603c-96 0 -171 -66 -171 -276c0 -192 85 -282 205 -282c114 0 168 86 168 265
c0 208 -61 293 -202 293zM747 329c0 -200 -134.9 -339 -349 -339c-198 0 -346 132 -346 320c0 196 142 348 345 348c213 0 350 -131 350 -329z" />
    <glyph glyph-name="uni1E4F" unicode="&#x1e4f;" horiz-adv-x="566" 
d="M332 569c21 0 36 6 49 42l32 -9c-14 -64 -49 -107 -100 -107c-42.1 0 -77.9 42 -118 42c-29 0 -41 -12 -49 -43l-33 7c15 64 46 109 94 109c49.7 0 76.5 -41 125 -41zM41 205c0 155 101 234 244 234c169 0 240 -99 240 -225c0 -138.2 -89 -224 -242 -224
c-149 0 -242 82 -242 215zM278 389c-86 0 -95 -74 -95 -161c0 -77 10 -188 114 -188c45 0 86 32 86 147c0 139 -20 202 -105 202zM304 710c0 37 29 66 66 66c35 0 64 -29 64 -66c0 -35 -29 -65 -64 -65c-37 0 -66 30 -66 65zM95 710c0 37 29 66 64 66c37 0 66 -29 66 -66
c0 -35 -29 -65 -66 -65c-35 0 -64 30 -64 65z" />
    <glyph glyph-name="uni1E50" unicode="&#x1e50;" horiz-adv-x="799" 
d="M384 603c-96 0 -171 -66 -171 -276c0 -192 85 -282 205 -282c114 0 168 86 168 265c0 208 -61 293 -202 293zM747 329c0 -200 -134.9 -339 -349 -339c-198 0 -346 132 -346 320c0 196 142 348 345 348c213 0 350 -131 350 -329zM227.2 760.2c0 24.6 18.4 45.7 40 45.7
c13.7 0 26.1 -8.40002 33.4 -20.9h198.4c8.5 0 12 -14 12 -22c0 -13 -10.3 -38 -22.2 -38h-196.4c-6.89999 -6.59998 -15.8 -10.6 -25.2 -10.6c-21.6 0 -40 21.2 -40 45.8z" />
    <glyph glyph-name="uni1E51" unicode="&#x1e51;" horiz-adv-x="566" 
d="M241.3 760.7l53.1 -109.1c3.10001 -6.19995 6.89999 -15.9 6.89999 -22.9c0 -7.90002 -11.5 -14.1 -18.4 -14.1c-6.19998 0 -16.2 4.40002 -29.3 17.6l-93.2 92.4l1.60001 9.70001c6.2 7.90002 36.2 28.1 63.9 28.1c3.90001 0 12.3 -0.800049 15.4 -1.70001zM418 530
h-274c-11 0 -15 14 -15 23c0 12 12 37 25 37h276c10 0 14 -14 14 -22c0 -13 -12 -38 -26 -38zM41 205c0 155 101 234 244 234c169 0 240 -99 240 -225c0 -138.2 -89 -224 -242 -224c-149 0 -242 82 -242 215zM278 389c-86 0 -95 -74 -95 -161c0 -77 10 -188 114 -188
c45 0 86 32 86 147c0 139 -20 202 -105 202z" />
    <glyph glyph-name="uni1E52" unicode="&#x1e52;" horiz-adv-x="799" 
d="M451.8 725h-232.9c-9.39999 0 -12.7 14 -12.7 23c0 12 10.1 37 21.2 37h234.6c8.5 0 12 -14 12 -22c0 -13 -10.3 -38 -22.2 -38zM384 603c-96 0 -171 -66 -171 -276c0 -192 85 -282 205 -282c114 0 168 86 168 265c0 208 -61 293 -202 293zM747 329
c0 -200 -134.9 -339 -349 -339c-198 0 -346 132 -346 320c0 196 142 348 345 348c213 0 350 -131 350 -329zM607 936.8c21.1 -16.5 37 -45.7 43.9 -71.2l-5.40002 -12.3l-117.1 -38.8c-17.1 -5.70001 -23.8 -7.90002 -30 -7.90002c-6.19998 0 -12.3 14.1 -12.3 22
c0 6.20001 1.39999 13 11.5 21.1z" />
    <glyph glyph-name="uni1E53" unicode="&#x1e53;" horiz-adv-x="566" 
d="M278.8 738.9c2.30002 0.899963 8.40002 1.79999 12.3 1.79999c23.1 0 45.4 -12.4 51.6 -21.2l7.69998 -20.2l-92.4 -95.1c-10.8 -10.6 -25.4 -14 -33.1 -14c-6.2 0 -16.2 7 -16.2 12.3s1.60001 13.2 6.2 21.1zM418 530h-274c-11 0 -15 14 -15 23c0 12 12 37 25 37h276
c10 0 14 -14 14 -22c0 -13 -12 -38 -26 -38zM41 205c0 155 101 234 244 234c169 0 240 -99 240 -225c0 -138.2 -89 -224 -242 -224c-149 0 -242 82 -242 215zM278 389c-86 0 -95 -74 -95 -161c0 -77 10 -188 114 -188c45 0 86 32 86 147c0 139 -20 202 -105 202z" />
    <glyph glyph-name="uni1E54" unicode="&#x1e54;" horiz-adv-x="598" 
d="M235 560v-225c13 -7 54 -10 79 -10c58.1 0 108 42 108 143c0 119 -48 136 -107 136c-72 0 -80 -15 -80 -44zM93 445c0 75 -4 143 -12 200l2 3s48 -3 82 -3c30 0 151 7 177 7c71.1 0 125.7 -9.40002 161 -34c56 -39 70 -95.7 70 -132c0 -103 -66 -212 -248 -212
c-35 0 -68 3 -90 10v-84c0 -75 4 -143 12 -200l-2 -3s-46 3 -80 3c-35 0 -83 -3 -83 -3l-1 3c8 54 12 125 12 200v245zM432 970c27.4 -18.7 48 -52 57 -81l-7 -13.9l-152 -44.1c-22.2 -6.40002 -30.9 -9 -39 -9s-16 16 -16 25c0 7 1.79999 14.8 15 24z" />
    <glyph glyph-name="uni1E55" unicode="&#x1e55;" horiz-adv-x="585" 
d="M305 639c3 1 11 2 16 2c30 0 59 -14 67 -24l10 -23l-120 -108c-14 -12 -33 -16 -43 -16c-8 0 -21 8 -21 14s2 15 8 24zM212 282v-206c37 -31 64 -36 89 -36c56 0 100 61.5 100 168c0 96.5 -16 161 -77 161c-34 0 -90 -34 -112 -87zM216 358c49 67 112 81 155 81
c43.5 0 78.1 -12.3 101.5 -32.5c47.5 -41 70.5 -97 70.5 -171.5c0 -140.9 -97.9 -245 -224 -245c-37 0 -74 7 -107 28v-50c0 -75 1.5 -143 10 -200l-2 -3s-40.7 3 -75 3c-35 0 -74 -3 -74 -3l-1 3c8.5 53.5 10 125.5 10 200v267c0 74.7 -3.3 151.3 -11 194l2 3
c35 -1.70001 100 -1.70001 129 3c6.3 0 7.8 -3.10001 9 -10c1.5 -8.5 2.8 -41.2 2.8 -64z" />
    <glyph glyph-name="uni1E56" unicode="&#x1e56;" horiz-adv-x="598" 
d="M211 717c0 38 31 69 71 69s71 -31 71 -69c0 -31.4 -21.2 -58 -51.2 -66.3c18.1 0.799988 32.9 1.29999 40.2 1.29999c71.1 0 125.7 -9.40002 161 -34c56 -39 70 -95.7 70 -132c0 -103 -66 -212 -248 -212c-35 0 -68 3 -90 10v-84c0 -75 4 -143 12 -200l-2 -3s-46 3 -80 3
c-35 0 -83 -3 -83 -3l-1 3c8 54 12 125 12 200v245c0 75 -4 143 -12 200l2 3s48 -3 82 -3c16.9 0 62.5 2.20001 103.8 4.09998c-33.4 5.90002 -57.8 34.2 -57.8 67.9zM235 560v-225c13 -7 54 -10 79 -10c58.1 0 108 42 108 143c0 119 -48 136 -107 136
c-72 0 -80 -15 -80 -44z" />
    <glyph glyph-name="uni1E57" unicode="&#x1e57;" horiz-adv-x="585" 
d="M188 538c0 38 31 69 71 69s71 -31 71 -69s-31 -69 -71 -69s-71 31 -71 69zM212 282v-206c37 -31 64 -36 89 -36c56 0 100 61.5 100 168c0 96.5 -16 161 -77 161c-34 0 -90 -34 -112 -87zM216 358c49 67 112 81 155 81c43.5 0 78.1 -12.3 101.5 -32.5
c47.5 -41 70.5 -97 70.5 -171.5c0 -140.9 -97.9 -245 -224 -245c-37 0 -74 7 -107 28v-50c0 -75 1.5 -143 10 -200l-2 -3s-40.7 3 -75 3c-35 0 -74 -3 -74 -3l-1 3c8.5 53.5 10 125.5 10 200v267c0 74.7 -3.3 151.3 -11 194l2 3c35 -1.70001 100 -1.70001 129 3
c6.3 0 7.8 -3.10001 9 -10c1.5 -8.5 2.8 -41.2 2.8 -64z" />
    <glyph glyph-name="uni1E58" unicode="&#x1e58;" horiz-adv-x="687" 
d="M203 717c0 38 31 69 71 69s71 -31 71 -69c0 -33 -23.3 -60.7 -55.7 -67.4c28.6 1.30005 53.7 2.40002 63.7 2.40002c65.9 0 132.7 -4 179 -34c40.7 -26.4 65 -70.2 65 -135c0 -100.3 -68.4 -146.9 -152.7 -168.5c63 -83.5 166.7 -256.8 217.7 -314.5l-2 -3
c-20 3 -73 3 -93 3c-19 0 -59 0 -78 -3c-11 34 -55 107 -105 179c-27.3 38.8 -53.9 86.1 -82.4 120.8c-19.7 -0.699982 -38.8 -0.799988 -56.6 -0.799988v-96c0 -75 2 -143 10 -200l-2 -3s-46 3 -80 3c-35 0 -81 -3 -81 -3l-1 3c8 54 12 125 12 200v245c0 75 -4 143 -12 200
l2 3s50 -3 84 -3c14.8 0 51.9 1.70001 88.7 3.40002c-35.9 3.89996 -62.7 33.3 -62.7 68.6zM334 602c-71 0 -89 -20 -89 -49v-201h54c97 0 143 5 143 130c0 118 -47 120 -108 120z" />
    <glyph glyph-name="uni1E59" unicode="&#x1e59;" horiz-adv-x="421" 
d="M128 538c0 38 31 69 71 69s71 -31 71 -69s-31 -69 -71 -69s-71 31 -71 69zM225 349c26 39 74 90 121 90c18 0 34 -2 51 -7l4 -4l-20 -103l-18 -2c-18 14 -39 19 -58 19c-15.1 0 -84 -11.6 -84 -89v-73c0 -76 2 -123 10 -180l-2 -3s-48 3 -82 3c-35 0 -67 -3 -67 -3l-1 3
c8 54 10 105 10 180v55c0 74.7 -3.3 151.3 -11 194l2 3c35 -1.70001 100 -1.70001 129 3c6.3 0 7.8 -3.10001 9 -10c1.5 -8.5 2.8 -50.2 2.8 -73z" />
    <glyph glyph-name="uni1E5A" unicode="&#x1e5a;" horiz-adv-x="687" 
d="M221 -148c0 38 31 69 71 69s71 -31 71 -69s-31 -69 -71 -69s-71 31 -71 69zM334 602c-71 0 -89 -20 -89 -49v-201h54c97 0 143 5 143 130c0 118 -47 120 -108 120zM245 296v-96c0 -75 2 -143 10 -200l-2 -3s-46 3 -80 3c-35 0 -81 -3 -81 -3l-1 3c8 54 12 125 12 200v245
c0 75 -4 143 -12 200l2 3s50 -3 84 -3c30 0 151 7 176 7c65.9 0 132.7 -4 179 -34c40.7 -26.4 65 -70.2 65 -135c0 -100.3 -68.4 -146.9 -152.7 -168.5c63 -83.5 166.7 -256.8 217.7 -314.5l-2 -3c-20 3 -73 3 -93 3c-19 0 -59 0 -78 -3c-11 34 -55 107 -105 179
c-27.3 38.8 -53.9 86.1 -82.4 120.8c-19.7 -0.699982 -38.8 -0.799988 -56.6 -0.799988z" />
    <glyph glyph-name="uni1E5B" unicode="&#x1e5b;" horiz-adv-x="421" 
d="M54 -148c0 38 31 69 71 69s71 -31 71 -69s-31 -69 -71 -69s-71 31 -71 69zM225 349c26 39 74 90 121 90c18 0 34 -2 51 -7l4 -4l-20 -103l-18 -2c-18 14 -39 19 -58 19c-15.1 0 -84 -11.6 -84 -89v-73c0 -76 2 -123 10 -180l-2 -3s-48 3 -82 3c-35 0 -67 -3 -67 -3l-1 3
c8 54 10 105 10 180v55c0 74.7 -3.3 151.3 -11 194l2 3c35 -1.70001 100 -1.70001 129 3c6.3 0 7.8 -3.10001 9 -10c1.5 -8.5 2.8 -50.2 2.8 -73z" />
    <glyph glyph-name="uni1E5C" unicode="&#x1e5c;" horiz-adv-x="687" 
d="M414 725h-274c-11 0 -15 14 -15 23c0 12 12 37 25 37h276c10 0 14 -14 14 -22c0 -13 -12 -38 -26 -38zM221 -148c0 38 31 69 71 69s71 -31 71 -69s-31 -69 -71 -69s-71 31 -71 69zM334 602c-71 0 -89 -20 -89 -49v-201h54c97 0 143 5 143 130c0 118 -47 120 -108 120z
M245 296v-96c0 -75 2 -143 10 -200l-2 -3s-46 3 -80 3c-35 0 -81 -3 -81 -3l-1 3c8 54 12 125 12 200v245c0 75 -4 143 -12 200l2 3s50 -3 84 -3c30 0 151 7 176 7c65.9 0 132.7 -4 179 -34c40.7 -26.4 65 -70.2 65 -135c0 -100.3 -68.4 -146.9 -152.7 -168.5
c63 -83.5 166.7 -256.8 217.7 -314.5l-2 -3c-20 3 -73 3 -93 3c-19 0 -59 0 -78 -3c-11 34 -55 107 -105 179c-27.3 38.8 -53.9 86.1 -82.4 120.8c-19.7 -0.699982 -38.8 -0.799988 -56.6 -0.799988z" />
    <glyph glyph-name="uni1E5D" unicode="&#x1e5d;" horiz-adv-x="421" 
d="M334 533h-274c-11 0 -15 14 -15 23c0 12 12 37 25 37h276c10 0 14 -14 14 -22c0 -13 -12 -38 -26 -38zM54 -148c0 38 31 69 71 69s71 -31 71 -69s-31 -69 -71 -69s-71 31 -71 69zM225 349c26 39 74 90 121 90c18 0 34 -2 51 -7l4 -4l-20 -103l-18 -2
c-18 14 -39 19 -58 19c-15.1 0 -84 -11.6 -84 -89v-73c0 -76 2 -123 10 -180l-2 -3s-48 3 -82 3c-35 0 -67 -3 -67 -3l-1 3c8 54 10 105 10 180v55c0 74.7 -3.3 151.3 -11 194l2 3c35 -1.70001 100 -1.70001 129 3c6.3 0 7.8 -3.10001 9 -10c1.5 -8.5 2.8 -50.2 2.8 -73z
" />
    <glyph glyph-name="uni1E5E" unicode="&#x1e5e;" horiz-adv-x="687" 
d="M433 -107h-245c-8 0 -12 8 -12 15c0 12 10 29 22 29h245c9 0 13 -7 13 -14c0 -12 -10 -30 -23 -30zM334 602c-71 0 -89 -20 -89 -49v-201h54c97 0 143 5 143 130c0 118 -47 120 -108 120zM245 296v-96c0 -75 2 -143 10 -200l-2 -3s-46 3 -80 3c-35 0 -81 -3 -81 -3l-1 3
c8 54 12 125 12 200v245c0 75 -4 143 -12 200l2 3s50 -3 84 -3c30 0 151 7 176 7c65.9 0 132.7 -4 179 -34c40.7 -26.4 65 -70.2 65 -135c0 -100.3 -68.4 -146.9 -152.7 -168.5c63 -83.5 166.7 -256.8 217.7 -314.5l-2 -3c-20 3 -73 3 -93 3c-19 0 -59 0 -78 -3
c-11 34 -55 107 -105 179c-27.3 38.8 -53.9 86.1 -82.4 120.8c-19.7 -0.699982 -38.8 -0.799988 -56.6 -0.799988z" />
    <glyph glyph-name="uni1E5F" unicode="&#x1e5f;" horiz-adv-x="421" 
d="M274 -105h-245c-8 0 -12 8 -12 15c0 12 10 29 22 29h245c9 0 13 -7 13 -14c0 -12 -10 -30 -23 -30zM225 349c26 39 74 90 121 90c18 0 34 -2 51 -7l4 -4l-20 -103l-18 -2c-18 14 -39 19 -58 19c-15.1 0 -84 -11.6 -84 -89v-73c0 -76 2 -123 10 -180l-2 -3s-48 3 -82 3
c-35 0 -67 -3 -67 -3l-1 3c8 54 10 105 10 180v55c0 74.7 -3.3 151.3 -11 194l2 3c35 -1.70001 100 -1.70001 129 3c6.3 0 7.8 -3.10001 9 -10c1.5 -8.5 2.8 -50.2 2.8 -73z" />
    <glyph glyph-name="uni1E60" unicode="&#x1e60;" horiz-adv-x="542" 
d="M149 717c0 38 31 69 71 69s71 -31 71 -69c0 -25 -13.4 -47 -34 -59.1c2 0 4 0.0999756 6 0.0999756c122 0 204 -45 204 -45l2 -3c-9 -30 -16 -84 -20 -120l-30 -1c-26 49 -85 120 -145 120c-54.5 0 -91 -47 -91 -97c0 -73.1 48 -98 102 -123c80.9 -37.5 198 -94 198 -203
c0 -102 -92 -196 -239 -196c-122 0 -215 45 -215 45l-2 3c8 30 16 86 20 122l26 1c35 -53 119 -119 180 -119c60.2 0 93 32 93 103c0 41 -40 81 -87 105c-57.3 29.3 -134.7 66.7 -181 127c-23.8 31 -31 69.9 -31 108c0 85.7 67.3 145.8 152.7 165.8
c-29.7 8.40002 -50.7 34.9 -50.7 66.2z" />
    <glyph glyph-name="uni1E61" unicode="&#x1e61;" horiz-adv-x="419" 
d="M54 113l30 1c30 -58 71.9 -80 107 -80c38 0 69 2 69 49c0 40 -22 58 -95 98c-56.9 31.2 -106 67 -106 137c0 77 79 121 169 121c48 0 106 -11 133 -26l2 -3l-19 -90l-27 -1c-13 28 -42 75 -91 75c-39 0 -49 -21 -49 -49c0 -32 27.4 -49.5 60 -67
c71 -38 142 -65.9 142 -156c0 -69 -55 -132 -185 -132c-36 0 -102 7 -156 27zM132 538c0 38 31 69 71 69s71 -31 71 -69s-31 -69 -71 -69s-71 31 -71 69z" />
    <glyph glyph-name="uni1E62" unicode="&#x1e62;" horiz-adv-x="542" 
d="M156 -148c0 38 31 69 71 69s71 -31 71 -69s-31 -69 -71 -69s-71 31 -71 69zM253 42c60.2 0 93 32 93 103c0 41 -40 81 -87 105c-57.3 29.3 -134.7 66.7 -181 127c-23.8 31 -31 69.9 -31 108c0 106 103 173 216 173c122 0 204 -45 204 -45l2 -3c-9 -30 -16 -84 -20 -120
l-30 -1c-26 49 -85 120 -145 120c-54.5 0 -91 -47 -91 -97c0 -73.1 48 -98 102 -123c80.9 -37.5 198 -94 198 -203c0 -102 -92 -196 -239 -196c-122 0 -215 45 -215 45l-2 3c8 30 16 86 20 122l26 1c35 -53 119 -119 180 -119z" />
    <glyph glyph-name="uni1E63" unicode="&#x1e63;" horiz-adv-x="419" 
d="M54 113l30 1c30 -58 71.9 -80 107 -80c38 0 69 2 69 49c0 40 -22 58 -95 98c-56.9 31.2 -106 67 -106 137c0 77 79 121 169 121c48 0 106 -11 133 -26l2 -3l-19 -90l-27 -1c-13 28 -42 75 -91 75c-39 0 -49 -21 -49 -49c0 -32 27.4 -49.5 60 -67
c71 -38 142 -65.9 142 -156c0 -69 -55 -132 -185 -132c-36 0 -102 7 -156 27zM128 -148c0 38 31 69 71 69s71 -31 71 -69s-31 -69 -71 -69s-71 31 -71 69z" />
    <glyph glyph-name="uni1E64" unicode="&#x1e64;" horiz-adv-x="542" 
d="M68 760c0 38 31 69 71 69s71 -31 71 -69s-31 -69 -71 -69s-71 31 -71 69zM253 42c60.2 0 93 32 93 103c0 41 -40 81 -87 105c-57.3 29.3 -134.7 66.7 -181 127c-23.8 31 -31 69.9 -31 108c0 106 103 173 216 173c122 0 204 -45 204 -45l2 -3c-9 -30 -16 -84 -20 -120
l-30 -1c-26 49 -85 120 -145 120c-54.5 0 -91 -47 -91 -97c0 -73.1 48 -98 102 -123c80.9 -37.5 198 -94 198 -203c0 -67.8 -40.7 -132 -111.1 -167.5c-0.5 -2.2 -0.799988 -4.4 -0.899994 -6.5c24 11 31 30 49 30s21 -13 21 -19c0 -16 -17 -22 -37 -22c-11 0 -20 1 -30 -1
c19 -20 46 -18 46 -47c0 -10 -10 -16 -18 -16c-26 0 -25 33 -38 55c-13 -24 -6 -55 -39 -55c-9 0 -16 7 -16 16c0 30 28 26 46 47c-5.60001 0.9 -12 3.6 -18.5 4c-27.6 -9 -58.6 -14 -92.5 -14c-122 0 -215 45 -215 45l-2 3c8 30 16 86 20 122l26 1
c35 -53 119 -119 180 -119z" />
    <glyph glyph-name="uni1E65" unicode="&#x1e65;" horiz-adv-x="419" 
d="M54 113l30 1c30 -58 71.9 -80 107 -80c38 0 69 2 69 49c0 40 -22 58 -95 98c-56.9 31.2 -106 67 -106 137c0 77 79 121 169 121c48 0 106 -11 133 -26l2 -3l-19 -90l-27 -1c-13 28 -42 75 -91 75c-39 0 -49 -21 -49 -49c0 -32 27.4 -49.5 60 -67
c71 -38 142 -65.9 142 -156c0 -69 -55 -132 -185 -132c-36 0 -102 7 -156 27zM242 639c3 1 11 2 16 2c30 0 59 -14 67 -24l10 -23l-120 -108c-14 -12 -33 -16 -43 -16c-8 0 -21 8 -21 14s2 15 8 24zM42.6 600.3c0 34.2 27.9 62.1 63.9 62.1s63.9 -27.9 63.9 -62.1
s-27.9 -62.1 -63.9 -62.1s-63.9 27.9 -63.9 62.1z" />
    <glyph glyph-name="uni1E66" unicode="&#x1e66;" horiz-adv-x="542" 
d="M186 834c0 38 31 69 71 69s71 -31 71 -69c0 -14.6 -4.70001 -28.2 -12.6 -39.4c30.2 13.3 61.4 25.8 93.6 38.4l16 -31c-45 -36 -94 -79 -133 -118h-30c-39 41 -87.5 82 -132 118l16 31c14.5 -5.70001 28.6 -11.4 42.4 -17.1
c-1.59999 5.79999 -2.39999 11.9 -2.39999 18.1zM253 42c60.2 0 93 32 93 103c0 41 -40 81 -87 105c-57.3 29.3 -134.7 66.7 -181 127c-23.8 31 -31 69.9 -31 108c0 106 103 173 216 173c122 0 204 -45 204 -45l2 -3c-9 -30 -16 -84 -20 -120l-30 -1
c-26 49 -85 120 -145 120c-54.5 0 -91 -47 -91 -97c0 -73.1 48 -98 102 -123c80.9 -37.5 198 -94 198 -203c0 -102 -92 -196 -239 -196c-122 0 -215 45 -215 45l-2 3c8 30 16 86 20 122l26 1c35 -53 119 -119 180 -119z" />
    <glyph glyph-name="uni1E67" unicode="&#x1e67;" horiz-adv-x="419" 
d="M54 113l30 1c30 -58 71.9 -80 107 -80c38 0 69 2 69 49c0 40 -22 58 -95 98c-56.9 31.2 -106 67 -106 137c0 77 79 121 169 121c48 0 106 -11 133 -26l2 -3l-19 -90l-27 -1c-13 28 -42 75 -91 75c-39 0 -49 -21 -49 -49c0 -32 27.4 -49.5 60 -67
c71 -38 142 -65.9 142 -156c0 -69 -55 -132 -185 -132c-36 0 -102 7 -156 27zM71 629l27 19c22.3 -12.3 41.4 -23.1 59.4 -34.9c-10.5 11.1 -16.8 25.9 -16.8 42.2c0 34.2 27.9 62.1 63.9 62.1s63.9 -27.9 63.9 -62.1s-27.9 -62.1 -63.9 -62.1c-9.5 0 -18.5 2 -26.5 5.5
c12.6 -9.40002 25 -20 38 -32.7c42 39 73 56 117 82l27 -19c-82 -86 -95 -103 -129 -151h-33c-38 54 -53 77 -127 151z" />
    <glyph glyph-name="uni1E68" unicode="&#x1e68;" horiz-adv-x="542" 
d="M156 716c0 38 31 69 71 69s71 -31 71 -69c0 -24.3 -12.6 -45.7 -32.2 -58c120.5 -0.700012 201.2 -45 201.2 -45l2 -3c-9 -30 -16 -84 -20 -120l-30 -1c-26 49 -85 120 -145 120c-54.5 0 -91 -47 -91 -97c0 -73.1 48 -98 102 -123c80.9 -37.5 198 -94 198 -203
c0 -102 -92 -196 -239 -196c-122 0 -215 45 -215 45l-2 3c8 30 16 86 20 122l26 1c35 -53 119 -119 180 -119c60.2 0 93 32 93 103c0 41 -40 81 -87 105c-57.3 29.3 -134.7 66.7 -181 127c-23.8 31 -31 69.9 -31 108c0 86.4 68.5 146.9 155 166.3
c-27.2 9.79999 -46 35.1 -46 64.7zM156 -148c0 38 31 69 71 69s71 -31 71 -69s-31 -69 -71 -69s-71 31 -71 69z" />
    <glyph glyph-name="uni1E69" unicode="&#x1e69;" horiz-adv-x="419" 
d="M54 113l30 1c30 -58 71.9 -80 107 -80c38 0 69 2 69 49c0 40 -22 58 -95 98c-56.9 31.2 -106 67 -106 137c0 77 79 121 169 121c48 0 106 -11 133 -26l2 -3l-19 -90l-27 -1c-13 28 -42 75 -91 75c-39 0 -49 -21 -49 -49c0 -32 27.4 -49.5 60 -67
c71 -38 142 -65.9 142 -156c0 -69 -55 -132 -185 -132c-36 0 -102 7 -156 27zM128 -148c0 38 31 69 71 69s71 -31 71 -69s-31 -69 -71 -69s-71 31 -71 69zM128 538c0 38 31 69 71 69s71 -31 71 -69s-31 -69 -71 -69s-71 31 -71 69z" />
    <glyph glyph-name="uni1E6A" unicode="&#x1e6a;" horiz-adv-x="602" 
d="M205 715c0 38 31 69 71 69s71 -31 71 -69s-31 -69 -71 -69s-71 31 -71 69zM229 436c0 17 -1 107 -8 131c-134 0 -204 -22 -204 -22l-2 4c2 15 2 68 0 96l2 3c16 -2 39 -3 60 -3h448c21 0 44 1 60 3l2 -3c-2 -28 -2 -81 0 -96l-2 -4s-70 22 -204 22
c-7 -24 -8 -114 -8 -131v-236c0 -75 2 -143 10 -200l-2 -3s-46 3 -80 3c-35 0 -81 -3 -81 -3l-1 3c8 54 10 125 10 200v236z" />
    <glyph glyph-name="uni1E6B" unicode="&#x1e6b;" horiz-adv-x="354" 
d="M93 648c0 38 31 69 71 69s71 -31 71 -69s-31 -69 -71 -69s-71 31 -71 69zM90 429c0 39.7 0.699997 74.3 4 101l2 3c40 9 94 35 119 45c6 0 9 -3 9 -10c-4.5 -53 -5 -83 -5 -139h47c23 0 51.4 1.39999 70 3l5 -8c-6 -14.7 -10.5 -32 -12 -47c-13.3 1.29999 -48 2 -72 2
h-38l-2 -106.9c-1.10001 -60 -1 -111 -1 -141c0 -41 10 -80 37 -80c26 0 36 1 58 12c11 -7 17 -22 17 -38c-43 -26 -95 -35 -147 -35c-64 0 -97 51 -97 98c0 30 1.5 113 3 173l3 117.9c-22.8 -0.100006 -53.8 -0.700012 -71 -2l-5 7c9.7 15 16.5 31 22 48
c12.4 -1.60001 33.5 -2.89999 54 -3z" />
    <glyph glyph-name="uni1E6C" unicode="&#x1e6c;" horiz-adv-x="602" 
d="M201 -148c0 38 31 69 71 69s71 -31 71 -69s-31 -69 -71 -69s-71 31 -71 69zM229 436c0 17 -1 107 -8 131c-134 0 -204 -22 -204 -22l-2 4c2 15 2 68 0 96l2 3c16 -2 39 -3 60 -3h448c21 0 44 1 60 3l2 -3c-2 -28 -2 -81 0 -96l-2 -4s-70 22 -204 22
c-7 -24 -8 -114 -8 -131v-236c0 -75 2 -143 10 -200l-2 -3s-46 3 -80 3c-35 0 -81 -3 -81 -3l-1 3c8 54 10 125 10 200v236z" />
    <glyph glyph-name="uni1E6D" unicode="&#x1e6d;" horiz-adv-x="354" 
d="M134 -148c0 38 31 69 71 69s71 -31 71 -69s-31 -69 -71 -69s-71 31 -71 69zM90 429c0 39.7 0.699997 74.3 4 101l2 3c40 9 94 35 119 45c6 0 9 -3 9 -10c-4.5 -53 -5 -83 -5 -139h47c23 0 51.4 1.39999 70 3l5 -8c-6 -14.7 -10.5 -32 -12 -47c-13.3 1.29999 -48 2 -72 2
h-38l-2 -106.9c-1.10001 -60 -1 -111 -1 -141c0 -41 10 -80 37 -80c26 0 36 1 58 12c11 -7 17 -22 17 -38c-43 -26 -95 -35 -147 -35c-64 0 -97 51 -97 98c0 30 1.5 113 3 173l3 117.9c-22.8 -0.100006 -53.8 -0.700012 -71 -2l-5 7c9.7 15 16.5 31 22 48
c12.4 -1.60001 33.5 -2.89999 54 -3z" />
    <glyph glyph-name="uni1E6E" unicode="&#x1e6e;" horiz-adv-x="602" 
d="M390 -112h-245c-8 0 -12 8 -12 15c0 12 10 29 22 29h245c9 0 13 -7 13 -14c0 -12 -10 -30 -23 -30zM229 436c0 17 -1 107 -8 131c-134 0 -204 -22 -204 -22l-2 4c2 15 2 68 0 96l2 3c16 -2 39 -3 60 -3h448c21 0 44 1 60 3l2 -3c-2 -28 -2 -81 0 -96l-2 -4
s-70 22 -204 22c-7 -24 -8 -114 -8 -131v-236c0 -75 2 -143 10 -200l-2 -3s-46 3 -80 3c-35 0 -81 -3 -81 -3l-1 3c8 54 10 125 10 200v236z" />
    <glyph glyph-name="uni1E6F" unicode="&#x1e6f;" horiz-adv-x="354" 
d="M305 -112h-245c-8 0 -12 8 -12 15c0 12 10 29 22 29h245c9 0 13 -7 13 -14c0 -12 -10 -30 -23 -30zM90 429c0 39.7 0.699997 74.3 4 101l2 3c40 9 94 35 119 45c6 0 9 -3 9 -10c-4.5 -53 -5 -83 -5 -139h47c23 0 51.4 1.39999 70 3l5 -8c-6 -14.7 -10.5 -32 -12 -47
c-13.3 1.29999 -48 2 -72 2h-38l-2 -106.9c-1.10001 -60 -1 -111 -1 -141c0 -41 10 -80 37 -80c26 0 36 1 58 12c11 -7 17 -22 17 -38c-43 -26 -95 -35 -147 -35c-64 0 -97 51 -97 98c0 30 1.5 113 3 173l3 117.9c-22.8 -0.100006 -53.8 -0.700012 -71 -2l-5 7
c9.7 15 16.5 31 22 48c12.4 -1.60001 33.5 -2.89999 54 -3z" />
    <glyph glyph-name="uni1E70" unicode="&#x1e70;" horiz-adv-x="602" 
d="M381 -233l-27 -24c-48 23 -80 50 -118 87c-42 -39 -73.5 -65 -117 -87l-27 24c46.5 47 95 107 128 156h34c37.5 -55 78.5 -107.5 127 -156zM229 436c0 17 -1 107 -8 131c-134 0 -204 -22 -204 -22l-2 4c2 15 2 68 0 96l2 3c16 -2 39 -3 60 -3h448c21 0 44 1 60 3l2 -3
c-2 -28 -2 -81 0 -96l-2 -4s-70 22 -204 22c-7 -24 -8 -114 -8 -131v-236c0 -75 2 -143 10 -200l-2 -3s-46 3 -80 3c-35 0 -81 -3 -81 -3l-1 3c8 54 10 125 10 200v236z" />
    <glyph glyph-name="uni1E71" unicode="&#x1e71;" horiz-adv-x="354" 
d="M303 -232l-27 -24c-48 23 -80 50 -118 87c-42 -39 -73.5 -65 -117 -87l-27 24c46.5 47 95 107 128 156h34c37.5 -55 78.5 -107.5 127 -156zM90 429c0 39.7 0.699997 74.3 4 101l2 3c40 9 94 35 119 45c6 0 9 -3 9 -10c-4.5 -53 -5 -83 -5 -139h47c23 0 51.4 1.39999 70 3
l5 -8c-6 -14.7 -10.5 -32 -12 -47c-13.3 1.29999 -48 2 -72 2h-38l-2 -106.9c-1.10001 -60 -1 -111 -1 -141c0 -41 10 -80 37 -80c26 0 36 1 58 12c11 -7 17 -22 17 -38c-43 -26 -95 -35 -147 -35c-64 0 -97 51 -97 98c0 30 1.5 113 3 173l3 117.9
c-22.8 -0.100006 -53.8 -0.700012 -71 -2l-5 7c9.7 15 16.5 31 22 48c12.4 -1.60001 33.5 -2.89999 54 -3z" />
    <glyph glyph-name="uni1E72" unicode="&#x1e72;" horiz-adv-x="719" 
d="M383 -83c0 37 29 66 66 66c35 0 64 -29 64 -66c0 -35 -29 -65 -64 -65c-37 0 -66 30 -66 65zM174 -83c0 37 29 66 64 66c37 0 66 -29 66 -66c0 -35 -29 -65 -66 -65c-35 0 -64 30 -64 65zM547 445c0 75 -2 143 -10 200l2 3s26.7 -3 51 -3c22.3 0 51 3 51 3l1 -3
c-8 -53 -10 -125 -10 -200v-150c0 -187 -76 -305 -274 -305c-104.3 0 -272 42 -272 246v209c0 75 -2 143 -10 200l2 3s44 -3 78 -3c35 0 83 3 83 3l1 -3c-8 -53 -10 -125 -10 -200v-176c0 -75 16 -214 149 -214c145.2 0 168 110 168 222v168z" />
    <glyph glyph-name="uni1E73" unicode="&#x1e73;" horiz-adv-x="591" 
d="M303 -83c0 37 29 66 66 66c35 0 64 -29 64 -66c0 -35 -29 -65 -64 -65c-37 0 -66 30 -66 65zM94 -83c0 37 29 66 64 66c37 0 66 -29 66 -66c0 -35 -29 -65 -66 -65c-35 0 -64 30 -64 65zM372 64c-56 -60 -127 -74 -168 -74c-99 0 -134 67 -133 136l2 123
c1.2 72 -2 123 -8 180l2 3s36 -3 70 -3c35 0 75 3 75 3l1 -3c-5 -51.5 -6.3 -105 -8 -180l-2 -90c-2 -82 27 -92 57 -92c44.8 0 112 44 112 102v80c0 76 0 124 -7 180l2 3s34 -3 68 -3c35 0 77 3 77 3l1 -3c-9 -53 -9 -105 -9 -180v-57c0 -75 9 -149 17 -192l-2 -3
c-13 2 -60.9 3 -73.5 3c-14.5 0 -44.2 -1.3 -57.5 -3c-6 0 -9 1 -9 3l-5 64h-2z" />
    <glyph glyph-name="uni1E74" unicode="&#x1e74;" horiz-adv-x="719" 
d="M418 -99c21 0 36 6 49 42l32 -9c-14 -64 -49 -107 -100 -107c-42.1 0 -77.9 42 -118 42c-29 0 -41 -12 -49 -43l-33 7c15 64 46 109 94 109c49.7 0 76.5 -41 125 -41zM547 445c0 75 -2 143 -10 200l2 3s26.7 -3 51 -3c22.3 0 51 3 51 3l1 -3c-8 -53 -10 -125 -10 -200
v-150c0 -187 -76 -305 -274 -305c-104.3 0 -272 42 -272 246v209c0 75 -2 143 -10 200l2 3s44 -3 78 -3c35 0 83 3 83 3l1 -3c-8 -53 -10 -125 -10 -200v-176c0 -75 16 -214 149 -214c145.2 0 168 110 168 222v168z" />
    <glyph glyph-name="uni1E75" unicode="&#x1e75;" horiz-adv-x="591" 
d="M337 -99c21 0 36 6 49 42l32 -9c-14 -64 -49 -107 -100 -107c-42.1 0 -77.9 42 -118 42c-29 0 -41 -12 -49 -43l-33 7c15 64 46 109 94 109c49.7 0 76.5 -41 125 -41zM372 64c-56 -60 -127 -74 -168 -74c-99 0 -134 67 -133 136l2 123c1.2 72 -2 123 -8 180l2 3
s36 -3 70 -3c35 0 75 3 75 3l1 -3c-5 -51.5 -6.3 -105 -8 -180l-2 -90c-2 -82 27 -92 57 -92c44.8 0 112 44 112 102v80c0 76 0 124 -7 180l2 3s34 -3 68 -3c35 0 77 3 77 3l1 -3c-9 -53 -9 -105 -9 -180v-57c0 -75 9 -149 17 -192l-2 -3c-13 2 -60.9 3 -73.5 3
c-14.5 0 -44.2 -1.3 -57.5 -3c-6 0 -9 1 -9 3l-5 64h-2z" />
    <glyph glyph-name="uni1E76" unicode="&#x1e76;" horiz-adv-x="719" 
d="M440 -233l-27 -24c-48 23 -80 50 -118 87c-42 -39 -73.5 -65 -117 -87l-27 24c46.5 47 95 107 128 156h34c37.5 -55 78.5 -107.5 127 -156zM547 445c0 75 -2 143 -10 200l2 3s26.7 -3 51 -3c22.3 0 51 3 51 3l1 -3c-8 -53 -10 -125 -10 -200v-150
c0 -187 -76 -305 -274 -305c-104.3 0 -272 42 -272 246v209c0 75 -2 143 -10 200l2 3s44 -3 78 -3c35 0 83 3 83 3l1 -3c-8 -53 -10 -125 -10 -200v-176c0 -75 16 -214 149 -214c145.2 0 168 110 168 222v168z" />
    <glyph glyph-name="uni1E77" unicode="&#x1e77;" horiz-adv-x="591" 
d="M357 -232l-27 -24c-48 23 -80 50 -118 87c-42 -39 -73.5 -65 -117 -87l-27 24c46.5 47 95 107 128 156h34c37.5 -55 78.5 -107.5 127 -156zM372 64c-56 -60 -127 -74 -168 -74c-99 0 -134 67 -133 136l2 123c1.2 72 -2 123 -8 180l2 3s36 -3 70 -3c35 0 75 3 75 3l1 -3
c-5 -51.5 -6.3 -105 -8 -180l-2 -90c-2 -82 27 -92 57 -92c44.8 0 112 44 112 102v80c0 76 0 124 -7 180l2 3s34 -3 68 -3c35 0 77 3 77 3l1 -3c-9 -53 -9 -105 -9 -180v-57c0 -75 9 -149 17 -192l-2 -3c-13 2 -60.9 3 -73.5 3c-14.5 0 -44.2 -1.3 -57.5 -3c-6 0 -9 1 -9 3
l-5 64h-2z" />
    <glyph glyph-name="uni1E78" unicode="&#x1e78;" horiz-adv-x="719" 
d="M419.2 764.9c17.8 0 30.6 6.59998 41.6 46.2l27.2 -9.89996c-11.9 -70.4 -41.6 -117.7 -85 -117.7c-35.8 0 -66.1 46.2 -100.2 46.2c-24.7 0 -34.9 -13.2 -41.7 -47.3l-28.1 7.69995c12.8 70.4 39.2 119.9 80 119.9c42.2 0 65 -45.1 106.2 -45.1zM547 445
c0 75 -2 143 -10 200l2 3s26.7 -3 51 -3c22.3 0 51 3 51 3l1 -3c-8 -53 -10 -125 -10 -200v-150c0 -40.1 -3.5 -77.1 -11 -110.4c6.59998 -1.5 13.1 -6.70001 13.1 -16.3c0 -13.2 -9.89996 -32.5 -10.7 -46.6c18.5 9.7 23.8 26.4 37.7 26.4c13.9 0 16.2 -11.4 16.2 -16.7
c0 -14.1 -13.1 -19.4 -28.5 -19.4c-8.5 0 -15.4 0.900002 -23.1 -0.900002c14.6 -17.6 35.4 -15.8 35.4 -41.3c0 -8.8 -7.69995 -14.1 -13.9 -14.1c-20 0 -19.2 29 -29.2 48.4c-10 -21.1 -4.59998 -48.4 -30 -48.4c-6.90002 0 -12.4 6.2 -12.4 14.1
c0 26.4 21.5 22.8 35.4 41.3c-4.29999 0.800003 -9.20001 3.2 -14.3 3.5c-39.9 -79.2 -115.8 -124.6 -238.7 -124.6c-104.3 0 -272 42 -272 246v209c0 75 -2 143 -10 200l2 3s44 -3 78 -3c35 0 83 3 83 3l1 -3c-8 -53 -10 -125 -10 -200v-176c0 -75 16 -214 149 -214
c145.2 0 168 110 168 222v168zM608.5 141.9c-1.70001 -4.59999 -3.5 -9.09999 -5.40002 -13.5c3 -2.39999 6.40002 -4.7 10.3 -6.7c-0.600037 7.60001 -2.70001 14.2 -4.90002 20.2z" />
    <glyph glyph-name="uni1E79" unicode="&#x1e79;" horiz-adv-x="591" 
d="M314.8 749.9c2.30002 0.899963 8.40002 1.79999 12.3 1.79999c23.1 0 45.4 -12.4 51.6 -21.2l7.69998 -20.2l-92.4 -95.1c-1.70001 -1.70001 -3.60001 -3.10004 -5.5 -4.5c18.5 -10 36.9 -19.7 60.5 -19.7c21 0 36 6 49 42l32 -9c-14 -64 -49 -107 -100 -107
c-42.1 0 -77.9 42 -118 42c-29 0 -41 -12 -49 -43l-33 7c15 64 46 109 94 109c8.60001 0 16.5 -1.29999 24 -3.29999c0.800003 1.89996 1.8 3.89996 2.89999 5.89996zM372 64c-56 -60 -127 -74 -168 -74c-99 0 -134 67 -133 136l2 123c1.2 72 -2 123 -8 180l2 3s36 -3 70 -3
c35 0 75 3 75 3l1 -3c-5 -51.5 -6.3 -105 -8 -180l-2 -90c-2 -82 27 -92 57 -92c44.8 0 112 44 112 102v80c0 76 0 124 -7 180l2 3s34 -3 68 -3c35 0 77 3 77 3l1 -3c-9 -53 -9 -105 -9 -180v-57c0 -75 9 -149 17 -192l-2 -3c-13 2 -60.9 3 -73.5 3
c-14.5 0 -44.2 -1.3 -57.5 -3c-6 0 -9 1 -9 3l-5 64h-2z" />
    <glyph glyph-name="space" unicode=" " horiz-adv-x="250" 
 />
    <glyph glyph-name="ampersand" unicode="&#x26;" horiz-adv-x="729" 
d="M270 523c0 -21 15 -65 41 -103c43 34 86 68 86 107c0 54.1 -20.9 86 -60 86c-33 0 -67 -27 -67 -90zM396 122c-49 65 -120 164 -143 200c-75 -48 -96 -90 -96 -152c0 -88 48 -139 99 -139c54 0 93 25 140 91zM451 209c59.5 92.3 78.6 161.9 86 223c10 -3 44 -3 54 -3
s47 0 57 3c-39 -67 -134.7 -242 -157 -276c28 -45 59 -105 90 -105c28.1 0 46 10 71 58l32 -23c-47 -85 -84 -96 -129 -96c-47 0 -75 16 -124 88c-45 -50 -95 -88 -184 -88c-119 0 -208 46 -208 160c0 74 41 127 193 214c-40 62 -62 110 -62 157c0 60 63 133 177 133
c92 0 143 -40.9 143 -117c0 -51 -62 -116 -148 -165c16 -28 47.9 -78.2 109 -163z" />
    <glyph glyph-name="quotesingle" unicode="'" horiz-adv-x="215" 
d="M98 421l-15 4s-32 160 -32 166c0 23 22 54 65 54c42 0 45 -19 45 -37c0 -15 -37 -181 -37 -181z" />
    <glyph glyph-name="comma" unicode="," horiz-adv-x="246" 
d="M47 58v6c11 33 30 53 68 68h6c45 -16 80 -50 80 -132c0 -89 -76 -157 -152 -171c-8 7 -9 29 -5 42c66 18 97 69 97 95c0 31 -10 34 -26 34c-40 8 -58 16 -68 58z" />
    <glyph glyph-name="hyphen" unicode="-" horiz-adv-x="344" 
d="M279 221h-226c-9 0 -15 13 -15 22c0 16 13 51 25 51h229c10 0 14 -14 14 -23c0 -11 -14 -50 -27 -50z" />
    <glyph glyph-name="period" unicode="." horiz-adv-x="246" 
d="M54 48v5c13 33 31 53 69 68h4c37 -13 56 -32 69 -68v-5c-14 -41 -33 -59 -69 -68h-4c-41 9 -58 26 -69 68z" />
    <glyph glyph-name="zero" unicode="0" horiz-adv-x="514" 
d="M260 565c-40 0 -87 -35 -87 -278c0 -85 -1 -254 83 -254c40.4 0 86 53.8 86 294c0 176.8 -43.2 238 -82 238zM255 -10c-146 0 -225 144 -225 308c0 200 101 312 230 312c100.7 0 224 -67.3 224 -303c0 -238 -130 -317 -229 -317z" />
    <glyph glyph-name="I" unicode="I" horiz-adv-x="330" 
d="M93 445c0 75 -4 143 -12 200l2 3s48 -3 82 -3c35 0 83 3 83 3l1 -3c-8 -53 -12 -125 -12 -200v-245c0 -75 4 -143 12 -200l-2 -3s-48 3 -82 3c-35 0 -83 -3 -83 -3l-1 3c8 54 12 125 12 200v245z" />
    <glyph glyph-name="J" unicode="J" horiz-adv-x="375" 
d="M140 155v290c0 75 -2 143 -10 200l2 3s48 -3 82 -3c35 0 79 3 79 3l1 -3c-8 -53 -9 -123 -10 -200c-1.5 -115.1 -2.20001 -219 0 -328c2.39999 -117 -21 -178 -63 -227c-54.8 -64 -133 -91 -196 -91c-19 0 -67 4 -75 9l-1 3c11 19 27 92 27 121l29 6
c11 -20 47.9 -57 86 -57c34 0 51 52.9 51 95c0 69.8 -2 138 -2 179z" />
    <glyph glyph-name="K" unicode="K" horiz-adv-x="712" 
d="M93 445c0 75 -4 143 -12 200l2 3s48 -3 82 -3c35 0 83 3 83 3l1 -3c-8 -53 -12 -125 -12 -200v-91h1c4 0 16 2 24 9c88 77 176 183 265 285c13 -3 66 -3 79 -3c15 0 75 0 91 3c-88 -77 -246 -215 -314 -294v-2l324 -355c-19 3 -83 3 -102 3c-17 0 -75 0 -92 -3
c-90 111 -213 274 -254 315c-6 5 -19 7 -22 7v-119c0 -75 4 -143 12 -200l-2 -3s-48 3 -82 3c-35 0 -83 -3 -83 -3l-1 3c8 54 12 125 12 200v245z" />
    <glyph glyph-name="L" unicode="L" horiz-adv-x="588" 
d="M247 210c0 -17 1 -105 8 -129c134 0 286 22 286 22l2 -4c-1 -8 -2 -47 -2 -57s1 -28 2 -42l-2 -3c-16 2 -39 3 -60 3h-304c-34 0 -83 -3 -83 -3l-1 3c8 54 10 125 10 200v245c0 75 -3 143 -11 200l2 3s45 -3 79 -3c35 0 83 3 83 3l1 -3c-8 -53 -10 -125 -10 -200v-235z
" />
    <glyph glyph-name="M" unicode="M" horiz-adv-x="921" 
d="M161 653h102c59.9 -161 117.9 -307 196 -465h4l250 465h89c26 -246 48 -439 79 -656c-15 3 -58 3 -73 3s-63 0 -78 -3c-14 166 -27 315 -46 473h-3c-84.1 -153.5 -165 -304 -238 -470h-64c-53.1 149.5 -117.1 309 -190 469l-3 1c-26.1 -155.5 -51.1 -367.5 -55 -473
c-11 3 -45 3 -56 3c-12 0 -35 0 -46 -3c42.9 191 95.9 442 132 656z" />
    <glyph glyph-name="N" unicode="N" horiz-adv-x="748" 
d="M101 445c2 75 -2 143 -10 200l2 3s36.7 -3 60 -3c18.3 0 49 3 49 3c112 -147.1 257.2 -316.1 382 -447.7l3 -0.300003v245c-2.09998 75 -5 143 -13 200l2 3s25.7 -3 50 -3c22.3 0 49 3 49 3l2 -3c-8 -53 -10 -125 -10 -200l-6 -448c-16.2 2 -32 3 -48 3
c-16.2 0 -39.5 -1.5 -56 -3c-115 147.9 -250 306.9 -381 458h-6l-4 -255c-1.2 -78 -2 -143 6 -200l-2 -3s-19.7 3 -44 3c-22.3 0 -45 -3 -45 -3l-1 3c8 53 12.8 122.2 16 200z" />
    <glyph glyph-name="O" unicode="O" horiz-adv-x="799" 
d="M384 603c-96 0 -171 -66 -171 -276c0 -192 85 -282 205 -282c114 0 168 86 168 265c0 208 -61 293 -202 293zM747 329c0 -200 -134.9 -339 -349 -339c-198 0 -346 132 -346 320c0 196 142 348 345 348c213 0 350 -131 350 -329z" />
    <glyph glyph-name="P" unicode="P" horiz-adv-x="598" 
d="M235 560v-225c13 -7 54 -10 79 -10c58.1 0 108 42 108 143c0 119 -48 136 -107 136c-72 0 -80 -15 -80 -44zM93 445c0 75 -4 143 -12 200l2 3s48 -3 82 -3c30 0 151 7 177 7c71.1 0 125.7 -9.40002 161 -34c56 -39 70 -95.7 70 -132c0 -103 -66 -212 -248 -212
c-35 0 -68 3 -90 10v-84c0 -75 4 -143 12 -200l-2 -3s-46 3 -80 3c-35 0 -83 -3 -83 -3l-1 3c8 54 12 125 12 200v245z" />
    <glyph glyph-name="Q" unicode="Q" horiz-adv-x="799" 
d="M384 603c-96 0 -171 -66 -171 -276c0 -192 85 -282 205 -282c114 0 168 86 168 265c0 208 -61 293 -202 293zM590.3 37.2c55 -32.5 127.6 -77.8 219.7 -109.2v-6c-36 -19 -95 -51 -114 -66c-106.4 60.5 -102.8 78.9 -217.7 141.1c-25.3 -4.6 -52.1 -7.1 -80.3 -7.1
c-198 0 -346 132 -346 320c0 196 142 348 345 348c213 0 350 -131 350 -329c0 -130.4 -57.4 -234.9 -156.7 -291.8z" />
    <glyph glyph-name="R" unicode="R" horiz-adv-x="687" 
d="M334 602c-71 0 -89 -20 -89 -49v-201h54c97 0 143 5 143 130c0 118 -47 120 -108 120zM245 296v-96c0 -75 2 -143 10 -200l-2 -3s-46 3 -80 3c-35 0 -81 -3 -81 -3l-1 3c8 54 12 125 12 200v245c0 75 -4 143 -12 200l2 3s50 -3 84 -3c30 0 151 7 176 7
c65.9 0 132.7 -4 179 -34c40.7 -26.4 65 -70.2 65 -135c0 -100.3 -68.4 -146.9 -152.7 -168.5c63 -83.5 166.7 -256.8 217.7 -314.5l-2 -3c-20 3 -73 3 -93 3c-19 0 -59 0 -78 -3c-11 34 -55 107 -105 179c-27.3 38.8 -53.9 86.1 -82.4 120.8
c-19.7 -0.699982 -38.8 -0.799988 -56.6 -0.799988z" />
    <glyph glyph-name="S" unicode="S" horiz-adv-x="542" 
d="M253 42c60.2 0 93 32 93 103c0 41 -40 81 -87 105c-57.3 29.3 -134.7 66.7 -181 127c-23.8 31 -31 69.9 -31 108c0 106 103 173 216 173c122 0 204 -45 204 -45l2 -3c-9 -30 -16 -84 -20 -120l-30 -1c-26 49 -85 120 -145 120c-54.5 0 -91 -47 -91 -97
c0 -73.1 48 -98 102 -123c80.9 -37.5 198 -94 198 -203c0 -102 -92 -196 -239 -196c-122 0 -215 45 -215 45l-2 3c8 30 16 86 20 122l26 1c35 -53 119 -119 180 -119z" />
    <glyph glyph-name="T" unicode="T" horiz-adv-x="602" 
d="M229 436c0 17 -1 107 -8 131c-134 0 -204 -22 -204 -22l-2 4c2 15 2 68 0 96l2 3c16 -2 39 -3 60 -3h448c21 0 44 1 60 3l2 -3c-2 -28 -2 -81 0 -96l-2 -4s-70 22 -204 22c-7 -24 -8 -114 -8 -131v-236c0 -75 2 -143 10 -200l-2 -3s-46 3 -80 3c-35 0 -81 -3 -81 -3l-1 3
c8 54 10 125 10 200v236z" />
    <glyph glyph-name="U" unicode="U" horiz-adv-x="719" 
d="M547 445c0 75 -2 143 -10 200l2 3s26.7 -3 51 -3c22.3 0 51 3 51 3l1 -3c-8 -53 -10 -125 -10 -200v-150c0 -187 -76 -305 -274 -305c-104.3 0 -272 42 -272 246v209c0 75 -2 143 -10 200l2 3s44 -3 78 -3c35 0 83 3 83 3l1 -3c-8 -53 -10 -125 -10 -200v-176
c0 -75 16 -214 149 -214c145.2 0 168 110 168 222v168z" />
    <glyph glyph-name="V" unicode="V" horiz-adv-x="672" 
d="M364.1 178.8c68.8 158.9 152.7 352.3 183.9 469.2c12 -3 47 -3 58 -3s36 0 48 3c-101 -221 -199 -433 -295 -655h-69c-92 219 -224 554 -274 655c17 -3 84 -3 101 -3s59 0 76 3c9.39999 -32.8 54.7 -193.8 171.1 -469.2z" />
    <glyph glyph-name="W" unicode="W" horiz-adv-x="1043" 
d="M735.2 178.6c69.1 158.9 152.9 352.1 183.8 469.4c12 -3 40 -3 51 -3s43 0 55 3c-101 -221 -199 -433 -295 -655h-69c-39.5 94.1 -84.6 209.5 -127.1 318.6l-143.9 -318.6h-90c-92 219 -234 554 -284 655c17 -3 84 -3 101 -3s54 0 71 3c9.8 -34.2 69.1 -205.5 197.5 -503
c34.9 80.8 75.3 173.4 111.4 261.5c-41.5 106.1 -77.8 196.8 -99.9 241.5c17 -3 64 -3 81 -3s79 0 96 3c9.5 -33.2 45.9 -193.9 161.2 -469.4z" />
    <glyph glyph-name="X" unicode="X" horiz-adv-x="672" 
d="M661 -3c-20 3 -68 3 -88 3s-86 0 -106 -3c-47.3 81.2 -107.5 179.4 -155.7 253.7c-3 5.90001 -5.39999 4.5 -7.59998 1.60001c-53.6 -74.5 -119.5 -172.5 -169.7 -255.3c-12 3 -40 3 -53 3c-12 0 -58 0 -70 -3c102.5 135.7 185.4 242.9 242.5 317
c-60 88.2 -134.2 191.9 -238.5 334c19 -3 90 -3 109 -3s62 0 82 3c28.3 -52.6 69.1 -115.2 134.9 -211c8.10001 -10.7 10.1 -13 15.5 -8.10001c70.5 92 97.7 130.5 151.6 219.1c12 -3 54 -3 66 -3s46 0 58 3c-46.2 -58 -131.5 -158.1 -227.7 -283
c62.5 -90 154.9 -220.3 256.7 -368z" />
    <glyph glyph-name="Y" unicode="Y" horiz-adv-x="653" 
d="M406.2 304.2c0.699982 -99.1 3.5 -256.2 7.79999 -307.2c-16 3 -68 3 -83 3s-66 0 -82 -3c5.7 55.5 6.8 180.5 7 278.1c-38.1 65.1 -200 312.9 -240 372.9c17 -3 81 -3 98 -3s61 0 78 3c50.8 -99.7 105.9 -189.2 165.2 -290.5c55.1 87.6 116.5 192.2 163.8 290.5
c12 -3 45 -3 58 -3c12 0 34 0 47 3c-111.5 -170.5 -178 -267.1 -219.8 -343.8z" />
    <glyph glyph-name="Z" unicode="Z" horiz-adv-x="645" 
d="M208 63c131 0 400 21 400 21l2 -3c-1 -8 -2 -33 -2 -43s1 -24 2 -38l-2 -3c-16 2 -35.2 3 -71 3h-383c-30 0 -149 -3 -149 -3l-3 4c11 14 20 29 26 37l391.5 544.6c-0.100006 -0.0999756 -359.5 -21.6 -359.5 -21.6l-2 3c1 8 2 33 2 43s-1 24 -2 38l2 3
c16 -2 39 -3 61 -3h365c31 0 109.5 3.79999 126 6c4.5 0 6 -2 6 -6c0 -11 -10 -26 -30 -54c-376.9 -521.6 -380 -524.2 -380 -528z" />
    <glyph glyph-name="bracketleft" unicode="[" horiz-adv-x="409" 
d="M110 -192v895h263v-39c-137 -10 -163 -25 -163 -112v-593c0 -87 25 -102 163 -113v-38h-263z" />
    <glyph glyph-name="backslash" unicode="\" horiz-adv-x="313" 
d="M81 698l230 -746h-70l-230 746h70z" />
    <glyph glyph-name="bracketright" unicode="]" horiz-adv-x="409" 
d="M299 703v-895h-263v39c137 10 163 25 163 112v593c0 87 -25 102 -163 113v38h263z" />
    <glyph glyph-name="uni02C4" unicode="&#x2c4;" horiz-adv-x="518" 
d="M259 569l-81 -223h-76l127 304h62l126 -304h-77z" />
    <glyph glyph-name="underscore" unicode="_" horiz-adv-x="486" 
d="M482 -103v-61h-477v61h477z" />
    <glyph glyph-name="a" unicode="a" horiz-adv-x="516" 
d="M311 222l-80 -21c-50.2 -13.2 -63 -57.9 -63 -94c0 -27 22 -57 52 -57c28 0 51 11 74 34c7.10001 7.1 15 32 15 45zM437 80c0 -33 21 -36 61 -36c6 -5 8.70001 -12.3 10 -21c-30 -23 -79.9 -33 -119 -33c-43 0 -65 17 -79 58h-2c-45 -45 -97.9 -58 -137 -58
c-70 0 -137 39 -137 108c0 68 58 119 154 142l117 31c3 1 6 5 6 12c0 77.1 -25 102 -69 102c-45 0 -89 -29 -123 -79l-33 1l-20 75l3 4c24 21 120 53 192 53c48.1 0 108.3 -11.5 140 -39.9c27.6 -24.8 40 -62 40 -122.1c0 -11 -4 -168 -4 -197z" />
    <glyph glyph-name="b" unicode="b" horiz-adv-x="586" 
d="M235.3 53.8c15.3 -9.8 38.7 -13.8 72.7 -13.8c28.3 0 58.5 11.5 76 47.5c15.4 31.6 22 77.7 22 134.5c0 97 -33 149 -94 149c-24.1 0 -45 -8 -94 -43v-220c0 -27.6 2.89999 -45 17.3 -54.2zM218 500v-116c60 45 95 55 138 55c53.1 0 97.6 -13.8 137 -50
c36.8 -33.8 55 -88 55 -147c0 -89.4 -35.5 -157.4 -84 -199c-43.8 -37.5 -97.8 -53 -150 -53c-35.6 0 -80.2 1.3 -96.3 8c-16 6.6 -46 13 -56.7 13c-14.5 0 -59.8 -20 -72 -22c-6 1.3 -8.3 3 -11 5c4.2 21.8 8 101 8 140v340c0 76 -4.3 145.3 -12 188l2 3
c40.5 3 119.9 23 145 33c6.3 0 9 -3 9 -10c-7.7 -61.3 -12 -114 -12 -188z" />
    <glyph glyph-name="c" unicode="c" horiz-adv-x="472" 
d="M297 389c-35.2 0 -69.3 -16.8 -88.6 -48c-16.9 -27.2 -24.4 -65.4 -24.4 -113c0 -57.2 12 -105 30 -134s58 -54 87 -54c40 0 89 14 117 48l16 -5c0 -16 2.79999 -29.5 5 -39c-45 -38 -88.6 -54 -165 -54c-75.2 0 -142.3 25 -178 64c-33.6 36.7 -54 85.5 -54 148
c0 157 112 237 246 237c50 0 118 -17 149 -33l2 -3l-24 -97l-28 -1c-22 55 -51.5 84 -90 84z" />
    <glyph glyph-name="d" unicode="d" horiz-adv-x="591" 
d="M373 133v170c-10.5 51.5 -48 86 -95 86c-48.4 0 -92 -33 -92 -168c0 -125 36 -173 90 -173c40.5 0 72.5 21 97 85zM373 54c-27 -46.5 -80 -64 -143 -64c-111 0 -186 90 -186 213c0 71.9 24 144.5 86 189.5c45.9 33.3 82 46.5 149 46.5c28.5 0 75 -18 94 -45v80
c0 76 -4.29999 145.3 -12 188l2 3c40.5 3 117.9 23 143 33c6.29999 0 11 -3 11 -10c-7.70001 -61.3 -12 -114 -12 -188v-308c0 -75 11 -149 19 -192l-2 -3c-13 2 -56.9 3 -69.5 3c-14.5 0 -50.2 -1.3 -63.5 -3c-6 0 -9 1 -9 3l-5 54h-2z" />
    <glyph glyph-name="e" unicode="e" horiz-adv-x="508" 
d="M173 255h156c0 87.5 -24.1 134 -65 134c-28.3 0 -47.8 -12.7 -60.5 -30c-14.8 -20.2 -27 -55 -30.5 -104zM448 107c10 0 16 -18 16 -31c-54.5 -63 -126 -86 -198 -86c-75 0 -133.8 16.5 -168 52c-41.3 42.9 -63 105 -63 164c0 82.9 33 143 81.5 183
c39.7 32.7 99.5 50 154.5 50c154 0 189 -100 189 -225l-6 -6s-85.5 2 -185.5 2h-99.5c0 -45.9 11.2 -81 33.2 -105c23.8 -25.9 60.2 -39 108.8 -39c42 0 90.5 3.5 137 41z" />
    <glyph glyph-name="f" unicode="f" horiz-adv-x="366" 
d="M222 379l3 -179c1.3 -75.1 1 -142 8 -200l-2 -3s-34.7 3 -69 3c-35 0 -75 -3 -75 -3l-1 3c7 51 7 125 7 200v179c-22.8 -0.100006 -53.8 -0.700012 -71 -2l-5 7c9.7 15 16.5 31 22 48c12.4 -1.60001 33.5 -2.89999 54 -3v30c0 61 25 124 69 170c42 43.9 102.4 69 178 69
c31.4 0 67 -9 75 -14l1 -3c-9 -20.5 -20 -73 -23 -101l-30 -1c-7.60001 28.9 -35 50 -64 50c-54 0 -84 -38.8 -84 -94c0 -22 7 -70.5 7 -96v-10h47c23 0 51.4 1.39999 70 3l5 -8c-6 -14.7 -10.5 -32 -12 -47c-13.3 1.29999 -48 2 -72 2h-38z" />
    <glyph glyph-name="g" unicode="g" horiz-adv-x="561" 
d="M459 289c0 -93.1 -85 -148 -201 -148c-34.1 0 -61.2 5 -75.5 11c-11 -17 -11.5 -28.9 -11.5 -45c0 -43 30 -48 58 -48c5 0 5 1 19 2c23 3 46 5 63 5c92 0 219 -20 219 -134c0 -53.4 -44.5 -103.5 -103.5 -132.5c-60.4 -29.7 -136.2 -37.5 -201.5 -37.5
c-89.2 0 -193 27 -193 114c0 24.8 5 56 22 78c24 14 62.4 28.4 84 42c-55.5 8.5 -79 36 -79 78c0 32.8 42.5 71 87 86l2 5s-24.7 7.60001 -39.5 18c-25.7 18 -54.5 46 -54.5 102c0 96 89 154 197 154c21.5 0 54.4 -3 72.3 -8.60001c74.6 3.89999 137.9 4.5 185.7 8.60001
l3 -3c-2 -9 -3 -20 -3 -29s1 -18 3 -27l-3 -3c-34.8 2.39999 -71.3 8.10001 -101.1 8.60001c31.1 -21 51.1 -62.1 51.1 -96.6zM326 288c0 75 -11 111 -71 111c-52 0 -68 -43 -68 -109c0 -73 10 -109 71 -109c48 0 68 36 68 107zM183 -16c-26 -27 -32 -54.9 -32 -88
c0 -68 68 -89 102 -89c86 0 147 41 147 102c0 69.2 -68 74 -124 74c-13.8 0 -40.5 -1 -70 -1c-9 0 -16.6 1.2 -23 2z" />
    <glyph glyph-name="h" unicode="h" horiz-adv-x="606" 
d="M86 474c0 76 -4.3 145.3 -12 188l2 3c40.5 3 117.9 23 143 33c6.3 0 9 -3 9 -10c-7.7 -61.3 -10 -113 -10 -188v-62l-4 -87l4 -2c46 59 120 90 171 90c90 0 129 -58 129 -148v-111c0 -76 1 -123 10 -180l-2 -3s-27 3 -61 3c-35 0 -84 -3 -84 -3l-1 3c6 53 6 105 6 180v89
c0 73 -25 93 -52 93c-36 0 -78 -30 -116 -80v-102c0 -76 1 -123 6 -180l-2 -3s-32.7 3 -67 3c-35 0 -80 -3 -80 -3l-1 3c8.5 53.5 12 105 12 180v294z" />
    <glyph glyph-name="i" unicode="i" horiz-adv-x="312" 
d="M85 607c0 38 31 69 71 69s71 -31 71 -69s-31 -69 -71 -69s-71 31 -71 69zM90 235c0 75 -2 150 -10 193l3 4c17.7 -1.29999 45 -3 71 -3c28 0 55.3 3 69 5c6 0 9 -3 9 -10c-6.3 -60 -10 -103 -10 -178v-66c0 -76 2 -123 10 -180l-2 -3c-18.7 2 -40 3 -74 3
c-35 0 -53.3 -0.7 -74 -3l-2 3c8 54 10 105 10 180v55z" />
    <glyph glyph-name="j" unicode="j" horiz-adv-x="350" 
d="M122 607c0 38 31 69 71 69s71 -31 71 -69s-31 -69 -71 -69s-71 31 -71 69zM127 235c0.599998 75.5 -2 150 -10 193l3 4c18.5 -0.5 45 -3 71 -3c28 0 55 3.39999 69 5c6 0 9 -3 9 -10c-5 -61 -8.29999 -103 -9 -178l-2 -217c-0.700012 -73 -16 -140 -49 -187
c-32.9 -46.8 -107 -74 -165 -74c-18 0 -71 4 -78 8l-1 3c5 18 5 80 5 113l27 7c10 -18 37 -43 64 -43c62.1 0 64.1 155.5 65 260z" />
    <glyph glyph-name="k" unicode="k" horiz-adv-x="582" 
d="M86 200v274c0 76 -4.3 145.3 -12 188l2 3c40.5 3 117.9 23 143 33c6.3 0 11 -3 11 -10c-7.7 -61.3 -12 -113 -12 -188v-250.4c13.7 1.59999 34.7 6.5 45 14.4c39.6 30.5 93 100 132 165c27 0 138 0 157 3l2 -3c-81.1 -61.1 -165.5 -136 -202 -177
c95 -115.5 148.6 -173.4 223 -252l-2 -3c-9 1.8 -87.3 3 -104 3c-17 0 -64.7 -1.2 -80 -3c-53.1 95.9 -83.1 139.9 -145 209c-6.3 5.60001 -17.5 7.8 -26 8.60001v-14.6c0 -75.2 3.5 -143 12 -200l-2 -3s-41.7 3 -76 3c-35 0 -77 -3 -77 -3l-1 3c8.5 53.5 12 125 12 200z
" />
    <glyph glyph-name="l.superior" unicode="&#x2e1;" horiz-adv-x="261" 
d="M80 619c0.699997 82.7 -1 136 -5 160l1 1c39.3 2 74.3 8 105 18c4 0 6 -1.70001 6 -5c-4 -34.7 -6.3 -88 -7 -160v-162c0 -42.7 2 -78.3 6 -107l-1 -2c-15.3 1.29999 -33.7 2 -55 2c-22 0 -40.3 -0.700012 -55 -2l-1 2c4 26.7 6 62.3 6 107v148z" />
    <glyph glyph-name="m" unicode="m" horiz-adv-x="892" 
d="M216 349c38 49 100 90 149 90c89.6 0 117 -30 137 -80c57 60 109 80 159 80c108 0 143 -59 143 -159v-100c0 -76 4 -123 12 -180l-2 -3s-39 3 -73 3c-35 0 -80 -3 -80 -3l-1 3c8 54 12 105 12 180v93c0 67 -23 89 -55 89c-39 0 -61 -11 -109 -64c1 -12 1 -16 1 -30v-88
c0 -76 4 -123 12 -180l-2 -3s-39 3 -73 3c-35 0 -80 -3 -80 -3l-1 3c8 54 12 105 12 180v101c0 67 -21 81 -59 81c-28 0 -64 -30 -106 -81v-101c0 -76 2 -123 10 -180l-2 -3s-40 3 -74 3c-35 0 -77 -3 -77 -3l-1 3c8 54 12 105 12 180v55c0 74.7 -3.3 151.3 -11 194l2 3
c35 -1.70001 100 -1.70001 129 3c6.3 0 7.8 -3.10001 9 -10c1.5 -8.5 2.8 -50.2 2.8 -73z" />
    <glyph glyph-name="n" unicode="n" horiz-adv-x="600" 
d="M512 180c0 -76 2 -123 11 -180l-2 -3s-44 3 -78 3c-35 0 -67 -3 -67 -3l-2 3c6 53 6 105 6 180v89c0 73 -25 93 -52 93c-36 0 -78 -30 -116 -80v-102c0 -76 1 -123 6 -180l-3 -3s-27.7 3 -62 3c-35 0 -82 -3 -82 -3l-2 3c8.5 53.5 11 105 11 180v55
c0 74.7 -3.3 151.3 -11 194l2 3c35 -1.70001 100 -1.70001 129 3c6.3 0 7.8 -3.10001 9 -10c1.5 -8.5 2.8 -50.2 2.8 -73l4.2 -3c46 59 106 90 157 90c90 0 139 -43 139 -148v-111z" />
    <glyph glyph-name="o" unicode="o" horiz-adv-x="566" 
d="M41 205c0 155 101 234 244 234c169 0 240 -99 240 -225c0 -138.2 -89 -224 -242 -224c-149 0 -242 82 -242 215zM278 389c-86 0 -95 -74 -95 -161c0 -77 10 -188 114 -188c45 0 86 32 86 147c0 139 -20 202 -105 202z" />
    <glyph glyph-name="p" unicode="p" horiz-adv-x="585" 
d="M212 282v-206c37 -31 64 -36 89 -36c56 0 100 61.5 100 168c0 96.5 -16 161 -77 161c-34 0 -90 -34 -112 -87zM216 358c49 67 112 81 155 81c43.5 0 78.1 -12.3 101.5 -32.5c47.5 -41 70.5 -97 70.5 -171.5c0 -140.9 -97.9 -245 -224 -245c-37 0 -74 7 -107 28v-50
c0 -75 1.5 -143 10 -200l-2 -3s-40.7 3 -75 3c-35 0 -74 -3 -74 -3l-1 3c8.5 53.5 10 125.5 10 200v267c0 74.7 -3.3 151.3 -11 194l2 3c35 -1.70001 100 -1.70001 129 3c6.3 0 7.8 -3.10001 9 -10c1.5 -8.5 2.8 -41.2 2.8 -64z" />
    <glyph glyph-name="q" unicode="q" horiz-adv-x="595" 
d="M383 367c-29.5 18.5 -55 22 -97 22c-70 0 -90 -73 -90 -167c0 -144 51 -173 109 -173c19 0 52 21 78 41v277zM404 433c44.5 -3 85 -2.70001 120 -1l2 -3c-7.70001 -42.7 -11 -119.3 -11 -194v-267c0 -75.2 1.5 -143 10 -200l-2 -3s-38.7 3 -73 3c-35 0 -76 -3 -76 -3
l-1 3c8.5 53.5 10 126 10 200v70c-33 -28 -72.6 -48 -121 -48c-67 0 -112 11 -149 51c-34.1 36.9 -59 95.2 -59 166c0 132 92 232 233 232c26.9 0 75.3 -3.20001 117 -6z" />
    <glyph glyph-name="r" unicode="r" horiz-adv-x="421" 
d="M225 349c26 39 74 90 121 90c18 0 34 -2 51 -7l4 -4l-20 -103l-18 -2c-18 14 -39 19 -58 19c-15.1 0 -84 -11.6 -84 -89v-73c0 -76 2 -123 10 -180l-2 -3s-48 3 -82 3c-35 0 -67 -3 -67 -3l-1 3c8 54 10 105 10 180v55c0 74.7 -3.3 151.3 -11 194l2 3
c35 -1.70001 100 -1.70001 129 3c6.3 0 7.8 -3.10001 9 -10c1.5 -8.5 2.8 -50.2 2.8 -73z" />
    <glyph glyph-name="s.superior" unicode="&#x2e2;" horiz-adv-x="307" 
d="M69 443c17.3 -32.7 38.7 -49 64 -49c14 0 24 1.29999 30 4c8 4 12 9.29999 12 16c0 12 -4 22 -12 30c-7.3 7.29999 -22.7 17.7 -46 31c-44 24 -66 52.3 -66 85c0 22.7 10.3 41 31 55c20 13.3 50.7 20 92 20c35.3 0 62.7 -5.70001 82 -17l1 -1l-12 -66l-20 -1
c-14.7 31.3 -32.3 47 -53 47c-20 0 -30 -7 -30 -21s12.3 -27.7 37 -41c32.7 -17.3 53 -29.3 61 -36c18 -16 27 -36.3 27 -61c0 -23.3 -9 -42.3 -27 -57c-20.7 -16 -52.3 -24 -95 -24c-41.3 0 -77 5.29999 -107 16l10 70h21z" />
    <glyph glyph-name="t" unicode="t" horiz-adv-x="354" 
d="M90 429c0 39.7 0.699997 74.3 4 101l2 3c40 9 94 35 119 45c6 0 9 -3 9 -10c-4.5 -53 -5 -83 -5 -139h47c23 0 51.4 1.39999 70 3l5 -8c-6 -14.7 -10.5 -32 -12 -47c-13.3 1.29999 -48 2 -72 2h-38l-2 -106.9c-1.10001 -60 -1 -111 -1 -141c0 -41 10 -80 37 -80
c26 0 36 1 58 12c11 -7 17 -22 17 -38c-43 -26 -95 -35 -147 -35c-64 0 -97 51 -97 98c0 30 1.5 113 3 173l3 117.9c-22.8 -0.100006 -53.8 -0.700012 -71 -2l-5 7c9.7 15 16.5 31 22 48c12.4 -1.60001 33.5 -2.89999 54 -3z" />
    <glyph glyph-name="u" unicode="u" horiz-adv-x="591" 
d="M372 64c-56 -60 -127 -74 -168 -74c-99 0 -134 67 -133 136l2 123c1.2 72 -2 123 -8 180l2 3s36 -3 70 -3c35 0 75 3 75 3l1 -3c-5 -51.5 -6.3 -105 -8 -180l-2 -90c-2 -82 27 -92 57 -92c44.8 0 112 44 112 102v80c0 76 0 124 -7 180l2 3s34 -3 68 -3c35 0 77 3 77 3
l1 -3c-9 -53 -9 -105 -9 -180v-57c0 -75 9 -149 17 -192l-2 -3c-13 2 -60.9 3 -73.5 3c-14.5 0 -44.2 -1.3 -57.5 -3c-6 0 -9 1 -9 3l-5 64h-2z" />
    <glyph glyph-name="v" unicode="v" horiz-adv-x="550" 
d="M214 -3c-56 146 -123 288 -194 435c16 -3 71 -3 87 -3c14 0 61 0 74 3c29.9 -94.4 73.4 -214.5 113 -309l6.29999 -0.5c46.2 82.5 98.3 218.3 129.7 309.5c9 -3 33 -3 43 -3s48 0 57 3c-75.5 -143.5 -156.5 -299.5 -219 -435c-8.5 2 -32 3 -42 3s-44 -1 -55 -3z" />
    <glyph glyph-name="w" unicode="w" horiz-adv-x="811" 
d="M201 -4c-55 146 -117 287 -183 435c14 -3 74 -3 88 -3c13 0 52 0 64 3c32 -111.5 68.7 -220.2 111.9 -331.5h5.60001c28.7 61.8 62.4 141.3 91.7 219.5c-15.7 37.5 -31.7 75.2 -48.2 113c14 -2 69 -3 83 -3c13 0 57 1 69 3c25 -111 54 -215.5 88 -322h4
c44 93.5 92 216.5 125 322c8 -3 35 -3 44 -3s41 0 49 3c-66 -143 -132 -293 -193 -435c-8 3 -35 3 -44 3s-43 0 -52 -3c-29.4 82.4 -60.4 163.9 -93.4 245.5c-37.9 -83 -74.8 -164.7 -110.6 -246.5c-8 3 -37 3 -46 3s-44 0 -53 -3z" />
    <glyph glyph-name="x.superior" unicode="&#x2e3;" horiz-adv-x="307" 
d="M20 631c14.7 -2 38.3 -3 71 -3c23.3 0 41.7 1 55 3c15.3 -24.7 32 -49.3 50 -74c30 41 30 41 53 74c9.29999 -2 25 -3 47 -3c14 0 25.3 1 34 3l-98 -116c49 -68 49 -68 115 -154c-14 2 -32.3 3 -55 3c-33.3 0 -56.3 -1 -69 -3c-12.7 20.7 -32 49 -58 85l-58 -85
c-8 2 -21 3 -39 3c-18.7 0 -31.7 -1 -39 -3l99 128z" />
    <glyph glyph-name="y" unicode="y" horiz-adv-x="539" 
d="M20 432c14 -3 75 -3 88 -3c14 0 50 0 63 3c33.4 -102.3 71.6 -204.4 118 -307l9 -1c43 96 83.1 207.9 115 308c10 -3 47 -3 57 -3s39 0 49 3c-33 -67 -262 -544 -300 -669c-10 3 -39 5 -49 5s-54 -2 -64 -5c45.2 75.3 89 152.3 121 227l-11.8 18.5
c-38.1 100.7 -150.7 332.6 -195.2 423.5z" />
    <glyph glyph-name="z" unicode="z" horiz-adv-x="484" 
d="M271 370c-112 -2 -212 -11 -212 -11l-2 3c1 8 2 26 2 35s-1 19 -2 32l2 3c15 -2 36 -3 56 -3h252c29 0 76 6 81 6c4 0 5 -2 5 -6c-6 -7 -13 -17 -30 -42l-223 -328c120 1 244 11 244 11l2 -3c-1 -8 -2 -26 -2 -35s1 -19 2 -32l-2 -3c-15 2 -36 3 -56 3h-226
c-28 0 -139 -3 -139 -3l-2 10c9 9 13 13 21 25z" />
    <glyph glyph-name="braceleft" unicode="{" horiz-adv-x="307" 
d="M208 552l8 -166c4.3 -89 -37.8 -117.8 -105 -137v-4c67.8 -28.2 109.4 -67.7 105 -150l-8 -149c-4.5 -84 36 -134 80 -134c6 -6 6 -18 0 -24c-101 0 -187 33 -182 163l6 170c2 61 -24.5 101 -98 110c-8 8 -9 23 0 32c74 7 98 57 98 107l-6 184c-4 113 92 153 182 153
c6 -6 6 -18 0 -24c-38 -11 -85 -28.1 -80 -131z" />
    <glyph glyph-name="bar" unicode="|" horiz-adv-x="240" 
d="M160 -232h-80v930h80v-930z" />
    <glyph glyph-name="braceright" unicode="}" horiz-adv-x="307" 
d="M99 -58l-8 166c-4.3 89 37.8 117.8 105 137v4c-67.8 28.2 -109.4 67.7 -105 150l8 149c4.5 84 -36 134 -80 134c-6 6 -6 18 0 24c101 0 187 -33 182 -163l-6 -170c-2 -61 24.5 -101 98 -110c8 -8 9 -23 0 -32c-74 -7 -98 -57 -98 -107l6 -184c4 -113 -92 -153 -182 -153
c-6 6 -6 18 0 24c38 11 85 28.1 80 131z" />
    <glyph glyph-name="asciitilde" unicode="~" horiz-adv-x="449" 
d="M26 204c13 65 67 147 128 147c23 0 48 -16 74 -32c25 -16 51 -33 73 -33c28 0 58 8 80 58l36 -16c-31 -107 -96 -130 -120 -130c-26 0 -51 16 -75 33c-25 17 -49 32 -74 32c-35 0 -67 -28 -90 -72z" />
    <glyph glyph-name="uni00A0" unicode="&#xa0;" horiz-adv-x="250" 
 />
    <glyph glyph-name="exclamdown" unicode="&#xa1;" horiz-adv-x="270" 
d="M96 -229c-30 0 -72 23 -72 73c0 65 18 107 29 193c14 108 15 168 17 182c1 11 15 20 26 20c12 0 24 -7 25 -13c2 -21 8 -111 17 -189c10 -88 27 -123 27 -193c0 -54 -45 -73 -69 -73zM166 381v-5c-13 -33 -31 -53 -69 -68h-4c-37 13 -56 32 -69 68v5c14 41 33 59 69 68h4
c41 -9 58 -26 69 -68z" />
    <glyph glyph-name="cent" unicode="&#xa2;" horiz-adv-x="480" 
d="M265 578h44v-91.6c42.2 -3.19998 91.9 -16.4 116.3 -29l1.80002 -2.69998l-21.6 -87.3l-25.2 -0.899994c-17.9 44.8 -41.3 70.4 -71.3 74.9v-313.3c34.8 1.29999 75.4 14.2 99.2 43.1l14.4 -4.5c0 -14.4 2.5 -26.5 4.5 -35.1c-34.1 -28.8 -67.3 -43.6 -118.1 -47.5v-96.1
h-44v95.3c-62.1 2.8 -116.6 24.5 -146.6 57.3c-30.2 33 -48.6 76.9 -48.6 133.2c0 130.9 86.5 202.3 195.2 212.1v92.1zM265 139.6v296.3c-18.3 -6.89999 -34.5 -19.4 -45.4 -37c-15.2 -24.5 -22 -58.9 -22 -101.7c0 -51.5 10.8 -94.5 27 -120.6c9 -14.5 24.2 -28 40.4 -37z
" />
    <glyph glyph-name="sterling" unicode="&#xa3;" horiz-adv-x="505" 
d="M258 415l4 -64h122c6 0 8 -2 8 -6v-30c0 -9 -15 -13 -27 -13h-103c-1 -121 -51 -168 -88 -200h5c127 0 113 -47 187 -47c33 0 86 5 116 41l20 -18c-27 -52 -83 -88 -156 -88c-101 0 -101 64 -198 64c-39 0 -43 -17 -43 -29c0 -26 -21 -40 -49 -40c-23 0 -40 13 -40 31
c0 21 29 39 63 55c61 45 65 122 65 214v17h-70c-6 0 -7 1 -7 6v22c0 9 7 21 27 21h50v13c0 86 28 130 87 182c60 52 127 64 193 64c20 0 38 -5 47 -9l1 -3c-12 -18 -16 -55 -21 -84l-22 -1c-12 18 -24 40 -54 40c-60 0 -123.3 -37.3 -117 -138z" />
    <glyph glyph-name="currency" unicode="&#xa4;" horiz-adv-x="463" 
d="M114 300c0 -70 50 -123 116 -123c67 0 116 54 116 122c0 72 -55.9 123 -114 123c-65 0 -118 -53 -118 -122zM230 122c-38 0 -71 9 -100 25c-14 -18 -35 -44 -46 -58l-61 59l53 43c-28 35 -43 70 -43 108c0 39 15 75 44 110c-16 12 -37 28 -52 41l55 57l50 -55
c30 16 63 25 102 25c40 0 70 -10 99 -26c16 19 40 47 51 61l58 -61l-55 -45c28 -34 42 -69 42 -107c0 -36 -15 -71 -41 -106c16 -13 37 -31 52 -44l-54 -58l-51 58c-30 -17 -64 -27 -103 -27z" />
    <glyph glyph-name="yen" unicode="&#xa5;" horiz-adv-x="514" 
d="M64 229c-6 0 -6 1 -6 6v20c0 8 5 20 24 20h100.2c-47.8 81.3 -138.6 247.2 -173.2 300c16 -3 47 -3 63 -3s60 0 76 3c40.8 -95.9 74.5 -172.8 132.6 -266c52.7 78.1 87.6 163.8 133.4 266c11 -3 37 -3 50 -3c12 0 29 0 41 3c-90.9 -144.8 -139.7 -232.2 -178.4 -300
h137.4c4 0 8 -2 8 -6v-27c0 -9 -14 -13 -25 -13h-122.5c0.200012 -20.2 0.5 -41.6 0.899994 -63h138.6c4 0 8 -2 8 -6v-26c0 -9 -14 -14 -25 -14h-120.6c1.20001 -52.6 2.80002 -99.9 4.60001 -123c-15 3 -46 3 -60 3s-65 0 -80 -3c3.2 27.1 5 72.9 5.89999 123h-132.9
c-6 0 -6 1 -6 6v20c0 8 5 20 24 20h115.5c0.199997 21.3 0.300003 42.7 0.399994 63h-133.9z" />
    <glyph glyph-name="brokenbar" unicode="&#xa6;" horiz-adv-x="240" 
d="M160 674v-362h-80v362h80zM160 161v-362h-80v362h80z" />
    <glyph glyph-name="section" unicode="&#xa7;" horiz-adv-x="565" 
d="M187.4 385.2c-16.7 -19.9 -24.4 -50.4 -24.4 -80.2c0 -26.1 5.5 -50.4 17 -70c30 -51 99.1 -80.8 154 -109c16.9 -8.8 34.3 -16.3 50.9 -23.9c9.60001 21.3 11.1 49.3 11.1 78.9c0 94 -89 140 -165 179c-15.2 7.89999 -29.8 16.3 -43.6 25.2zM148.4 413.8
c-38.3 32 -63.4 67.5 -63.4 102.2c0 29.6 12.9 73.1 45 99c39.5 31.8 99.8 43 155 43c69 0 153 -40 180 -63l3 -5l-17 -82l-34 -2c-29 50 -86 103 -141 103c-39 0 -74 -36 -74 -73c0 -42 18 -69 69 -90c81 -33 244 -104 244 -227c0 -55.3 -44.3 -109 -83.9 -141.6
c8.60001 -5.8 16.3 -12.1 22.9 -19.4c28 -31 30 -64.9 30 -93c0 -36 -26.8 -72.8 -65 -100c-38.6 -27.4 -88.8 -37 -139 -37c-69 0 -153 40 -180 63l-3 5l17 82l34 2c29 -50 86 -103 141 -103c47 0 74 25 74 73c0 47 -18 78 -69 99c-81 33 -244 99 -244 218
c0 51.7 43 114.3 98.4 146.8z" />
    <glyph glyph-name="dieresis" unicode="&#xa8;" horiz-adv-x="399" 
d="M232 603c0 37 29 66 66 66c35 0 64 -29 64 -66c0 -35 -29 -65 -64 -65c-37 0 -66 30 -66 65zM23 603c0 37 29 66 64 66c37 0 66 -29 66 -66c0 -35 -29 -65 -66 -65c-35 0 -64 30 -64 65z" />
    <glyph glyph-name="copyright" unicode="&#xa9;" horiz-adv-x="633" 
d="M449 216c-20 -31 -63 -64 -118 -64c-89 0 -166 46 -166 149c0 101 80 156 168 156c70 0 70 -15 99 -15l14 -78l-20 -4c-17 46 -40 64 -97 64c-40 0 -82 -15 -82 -113c0 -73 25 -120 93 -120c51 0 79 24 90 40zM317 24c-157 0 -283 127 -283 282c0 156 127 282 283 282
s282 -126 282 -282s-126 -282 -282 -282zM317 544c-133 0 -239 -106 -239 -238c0 -131 106 -238 239 -238c131 0 238 106 238 238s-106 238 -238 238z" />
    <glyph glyph-name="ordfeminine" unicode="&#xaa;" horiz-adv-x="372" 
d="M321 421c0 -9.29999 3 -15.7 9 -19c4.70001 -2 14 -3 28 -3c3.29999 -2.70001 5.29999 -10.3 6 -23c-17.3 -13.3 -44.7 -20 -82 -20c-31.3 0 -51 11.7 -59 35h-1c-23.3 -23.3 -54.3 -35 -93 -35c-30 0 -53 5.70001 -69 17c-17.3 12.7 -26 29 -26 49
c0 46.7 35 77.7 105 93l81 18c2.7 1.29999 4 4 4 8c0 32.7 -17.3 49 -52 49s-63 -16 -85 -48h-20l-12 58l1 3c24.7 21.3 65 32 121 32c49.3 0.700012 86.7 -7.29999 112 -24c22.7 -18 34 -44.7 34 -80zM175 479c-25.3 -6.70001 -38 -20.7 -38 -42c0 -8.70001 3 -16.3 9 -23
c6 -7.29999 13.3 -11 22 -11c16.7 0 32 6.70001 46 20c6 6 9 15.3 9 28l1 41z" />
    <glyph glyph-name="guillemotleft" unicode="&#xab;" horiz-adv-x="555" 
d="M74 207v16c67.9 61.1 113.1 100.3 184 184c9.5 -3 24 -12 29 -22c-39.5 -75.5 -73 -131 -104 -170c31 -39 64.5 -94.5 104 -170c-5 -10 -19.5 -19 -29 -22c-70.9 83.7 -116.1 122.9 -184 184zM262 207v16c67.9 61.1 113.1 100.3 184 184c9.5 -3 24 -12 29 -22
c-39.5 -75.5 -73 -131 -104 -170c31 -39 64.5 -94.5 104 -170c-5 -10 -19.5 -19 -29 -22c-70.9 83.7 -116.1 122.9 -184 184z" />
    <glyph glyph-name="logicalnot" unicode="&#xac;" horiz-adv-x="560" 
d="M463 133v214h-439v54h513v-268h-74z" />
    <glyph glyph-name="uni00AD" unicode="&#xad;" horiz-adv-x="344" 
d="M279 221h-226c-9 0 -15 13 -15 22c0 16 13 51 25 51h229c10 0 14 -14 14 -23c0 -11 -14 -50 -27 -50z" />
    <glyph glyph-name="registered" unicode="&#xae;" horiz-adv-x="633" 
d="M423 372c0 -52 -57 -76 -57 -76l48 -82c13 -22 24 -31 40 -31v-13c-10 -3 -18 -4 -23 -4c-29 0 -56 12 -68 38l-48 78c-4 2 -22 3 -27 3v-91c0 -5 0 -7 7 -7h12c8 0 11 -2 11 -6v-14s-54 2 -68 2l-56 -2v14c0 4 4 6 11 6h12c6 0 8 1 8 8v218c0 5 -1 11 -4 11l-16 -1
c-7 0 -10 2 -10 6v13c21 3 59 5 133 5c75 0 95 -45 95 -75zM361 372c0 34 -11 55 -45 55c-11 0 -23 -1 -28 -3v-115c31 0 73 1 73 63zM317 24c-157 0 -283 127 -283 282c0 156 127 282 283 282s282 -126 282 -282s-126 -282 -282 -282zM317 544c-133 0 -239 -106 -239 -238
c0 -131 106 -238 239 -238c131 0 238 106 238 238s-106 238 -238 238z" />
    <glyph glyph-name="macron" unicode="&#xaf;" horiz-adv-x="397" 
d="M315 519h-244c-9 0 -12 13 -12 20c0 12 10 34 22 34h244c10 0 14 -13 14 -19c0 -12 -11 -35 -24 -35z" />
    <glyph glyph-name="degree" unicode="&#xb0;" horiz-adv-x="267" 
d="M196 524c0 31 -20 69 -62 69c-40 0 -63 -35 -63 -69c0 -33 24 -66 63 -66s62 34 62 66zM28 525c0 59 48 106 106 106s105 -47 105 -106c0 -58 -47 -105 -105 -105s-106 47 -106 105z" />
    <glyph glyph-name="plusminus" unicode="&#xb1;" horiz-adv-x="527" 
d="M290 347h170v-60h-170v-170h-60v170h-170v60h170v171h60v-171zM477 79l-10 -70h-400l10 70h400z" />
    <glyph glyph-name="two.superior" unicode="&#xb2;" horiz-adv-x="340" 
d="M151 682c-32 0 -44 -30 -65 -63l-28 1l-14 65l2 2c18 10.5 63 31 110 31c77 0 135 -37 135 -98c0 -43 -19 -65 -56 -96l-65 -55c-14 -11 -36 -39 -36 -48h53c65 0 69 3 107 5c-2 -7 -4 -31 -4 -38s2 -19 4 -26c-49 2 -51 2 -100 2s-98.2 -1.20001 -161 -2v2
c0 33 19 59 82 116l48 41c38 34 37 64 37 100c0 35 -26 61 -49 61z" />
    <glyph glyph-name="three.superior" unicode="&#xb3;" horiz-adv-x="340" 
d="M138 388c23 0 66 10 66 76c0 54 -36 64 -73 64c-6 0 -18 0 -26 -1v31c63 3 96 28 96 75c0 30 -28 55 -53 55c-46 0 -54 -26 -75 -59h-28l-14 55l2 2c16 12 64 32 121 32c79 0 129 -23 129 -76c0 -48 -28.5 -78.5 -73 -92v-2c48 -4 92 -28 92 -82
c0 -69 -72 -108 -165 -108c-60 0 -95 19 -111 31l-3 3l15 55l28 1c21 -33 23 -60 72 -60z" />
    <glyph glyph-name="acute" unicode="&#xb4;" horiz-adv-x="341" 
d="M167 671c3 1 11 2 16 2c30 0 59 -14 67 -24l10 -23l-120 -108c-14 -12 -33 -16 -43 -16c-8 0 -21 8 -21 14s2 15 8 24z" />
    <glyph glyph-name="uni00B5" unicode="&#xb5;" horiz-adv-x="598" 
d="M204 248v-77c0 -63 18 -100 53 -100c41 0 77.5 16.5 114 47v132c0 76 0 123 -7 179l2 3s34 -3 68 -3c35 0 77 3 77 3l1 -3c-9 -53 -9 -105 -9 -180v-169c0 -33 19 -36 59 -36c6 -5 9 -12 10 -21c-30 -23 -80 -33 -119 -33c-43 0 -65 17 -79 68h-2
c-45.5 -48 -89 -68 -144 -68c-22 0 -52.5 10 -65 30c0 -124 36.3 -195.7 52 -225c-8.3 -10.4 -13.8 -21.6 -19 -32c-40.3 6.3 -74.7 20.3 -103 39c-9 41 -21 245 -21 328v119c0 76 0 124 -7 180l2 3s34 -3 68 -3c35 0 77 3 77 3l1 -3c-9 -53 -9 -106 -9 -181z" />
    <glyph glyph-name="paragraph" unicode="&#xb6;" horiz-adv-x="602" 
d="M367 574v-735c0 -27 17 -38 40 -38s41 7 41 38v735c0 31 -18 38 -41 38s-40 -11 -40 -38zM408 645c35 0 99 3 99 3l1 -3c-8 -53 -10 -125 -10 -200v-477c0 -75 2 -143 10 -200l-2 -3s-65 3 -99 3s-98 -3 -98 -3l-2 3c8 57 10 125 10 200v317c-9 -2 -17 -3 -32 -3
c-146 0 -228 65 -228 199c0 79 58 166 190 166c75 0 134 -2 161 -2z" />
    <glyph glyph-name="periodcentered" unicode="&#xb7;" horiz-adv-x="250" 
d="M54 251v5c13 33 31 53 69 68h4c37 -13 56 -32 69 -68v-5c-14 -41 -33 -59 -69 -68h-4c-41 9 -58 26 -69 68z" />
    <glyph glyph-name="cedilla" unicode="&#xb8;" horiz-adv-x="541" 
d="M236 -96l-6 6l51 97h34l-20 -48c45.4 -9.1 92.9 -24.5 92.9 -79.1c0 -50.2 -50.8 -91.9 -115.6 -91.9c-32 0 -48 8 -65.3 19c0 10 3.3 22 13.3 31.5c27 -10 38 -14 58 -14c30 0 46.7 8.5 46.7 35.5c0 37.6 -53 42 -89 44z" />
    <glyph glyph-name="one.superior" unicode="&#xb9;" horiz-adv-x="340" 
d="M226 468c0 -43 2 -71 8 -104l-1 -2s-28 2 -51 2c-24 0 -50 -2 -50 -2l-1 2c6 31 7 61 7 104v141c0 20 -1 34.5 -11 36c-12.9 1.90002 -43 0.5 -71 2l-1 33c60 12 132 30 174 42c3 0 5 0 5 -3c-1 -8 -8 -31 -8 -90v-161z" />
    <glyph glyph-name="ordmasculine" unicode="&#xba;" horiz-adv-x="417" 
d="M157 565c-6 -14 -9 -35 -9 -63c0 -69.3 23 -104 69 -104c35.3 0 53 26.3 53 79c0 40.7 -4.29999 70 -13 88c-9.3 19.3 -26.3 29 -51 29c-24 0 -40.3 -9.70001 -49 -29zM83 600c26 24 68.3 36 127 36c62 0 106 -13.3 132 -40c22.7 -27.3 34 -61.3 34 -102
c0 -42.7 -13 -76 -39 -100c-26 -24.7 -68.7 -37 -128 -37c-59.3 0 -102 11.7 -128 35c-26.7 23.3 -40 55.3 -40 96c0 46 14 83.3 42 112z" />
    <glyph glyph-name="guillemotright" unicode="&#xbb;" horiz-adv-x="555" 
d="M480 223v-16c-67.9 -61.1 -113.1 -100.3 -184 -184c-9.5 3 -24 12 -29 22c39.5 75.5 73 131 104 170c-31 39 -64.5 94.5 -104 170c5 10 19.5 19 29 22c70.9 -83.7 116.1 -122.9 184 -184zM292 223v-16c-67.9 -61.1 -113.1 -100.3 -184 -184c-9.5 3 -24 12 -29 22
c39.5 75.5 73 131 104 170c-31 39 -64.5 94.5 -104 170c5 10 19.5 19 29 22c70.9 -83.7 116.1 -122.9 184 -184z" />
    <glyph glyph-name="onequarter" unicode="&#xbc;" horiz-adv-x="700" 
d="M557 591l41 -18l-458 -655l-42 18zM523 141.7l-95 -126.7h95v126.7zM523 -29v2h-146l-12 12c45 66 138 179 179 236h50c5 0 12 -1 12 -10v-196h60l-3 -42h-57v-2c0 -43 2 -71 8 -104l-1 -2s-26 2 -49 2c-24 0 -47 -2 -47 -2l-1 2c6 31 7 61 7 104zM223 419
c0 -43 2 -71 8 -104l-1 -2s-28 2 -51 2c-24 0 -50 -2 -50 -2l-1 2c6 31 7 61 7 104v141c0 20 -1 34.5 -11 36c-12.9 1.90002 -43 0.5 -71 2l-1 33c60 12 132 30 174 42c3 0 5 0 5 -3c-1 -8 -8 -31 -8 -90v-161z" />
    <glyph glyph-name="onehalf" unicode="&#xbd;" horiz-adv-x="700" 
d="M532 611l42 -18l-459 -655l-41 18zM509 239c-32 0 -44 -30 -65 -63l-28 1l-14 65l2 2c18 10.5 63 31 110 31c77 0 135 -37 135 -98c0 -43 -19 -65 -56 -96l-65 -55c-14 -11 -36 -39 -36 -48h53c65 0 69 3 107 5c-2 -7 -4 -31 -4 -38s2 -19 4 -26c-49 2 -51 2 -100 2
s-98.2 -1.2 -161 -2v2c0 33 19 59 82 116l48 41c38 34 37 64 37 100c0 35 -26 61 -49 61zM225 419c0 -43 2 -71 8 -104l-1 -2s-28 2 -51 2c-24 0 -50 -2 -50 -2l-1 2c6 31 7 61 7 104v141c0 20 -1 34.5 -11 36c-12.9 1.90002 -43 0.5 -71 2l-1 33c60 12 132 30 174 42
c3 0 5 0 5 -3c-1 -8 -8 -31 -8 -90v-161z" />
    <glyph glyph-name="threequarters" unicode="&#xbe;" horiz-adv-x="700" 
d="M562 611l41 -18l-458 -655l-42 18zM136 337c23 0 66 10 66 76c0 54 -36 64 -73 64c-6 0 -18 0 -26 -1v31c63 3 96 28 96 75c0 30 -28 55 -53 55c-46 0 -54 -26 -75 -59h-28l-14 55l2 2c16 12 64 32 121 32c79 0 129 -23 129 -76c0 -48 -28.5 -78.5 -73 -92v-2
c48 -4 92 -28 92 -82c0 -69 -72 -108 -165 -108c-60 0 -95 19 -111 31l-3 3l15 55l28 1c21 -33 23 -60 72 -60zM527 143.7l-95 -126.7h95v126.7zM527 -27v2h-146l-12 12c45 66 138 179 179 236h50c5 0 12 -1 12 -10v-196h60l-3 -42h-57v-2c0 -43 2 -71 8 -104l-1 -2
s-26 2 -49 2c-24 0 -47 -2 -47 -2l-1 2c6 31 7 61 7 104z" />
    <glyph glyph-name="questiondown" unicode="&#xbf;" horiz-adv-x="464" 
d="M191 -181c56 0 97 49 123 94l33 -1l16 -76l-3 -4c-24.5 -20.5 -105.5 -62 -178 -62c-44.1 0 -94.2 3.89999 -130 24c-47.1 26.4 -69 75.3 -69 127c0 79 73 128 120 162c28.9 21.4 60 44 60 118v39c0 7 25 15 33 15s33 -8 33 -15v-41c0 -43 -12 -102 -77 -161
c-40 -37 -41 -76.7 -41 -113c0 -36 33 -106 80 -106zM273 381v-5c-13 -33 -31 -53 -69 -68h-4c-37 13 -56 32 -69 68v5c14 41 33 59 69 68h4c41 -9 58 -26 69 -68z" />
    <glyph glyph-name="Agrave" unicode="&#xc0;" horiz-adv-x="701" 
d="M221 843l142 -99c13.2 -9.20001 15 -17 15 -24c0 -9 -7.89999 -25 -16 -25s-16.8 2.59998 -39 9l-152 44.1l-7 13.9c9 29 29.6 62.3 57 81zM411.5 275.1c-24.2 63.4 -52.8 136.9 -88.5 218.9h-5.89999l-93.5 -218.1c31.4 -1.39999 75.5 -1.89999 104.4 -1.89999
c23.7 0 55.1 0.5 83.5 1.10001zM200.3 219.2c-34.1 -84.1 -63.5 -163 -79.3 -222.2c-12 3 -34 3 -45 3s-44 0 -56 -3c101 221 199 434 295 656h90c86 -219 224 -555 274 -656c-17 3 -74 3 -91 3s-64 0 -81 -3c-6 21.7 -27.7 96.7 -74.5 222.7
c-32.7 0.699997 -67.4 1.3 -99.5 1.3c-35.7 0 -94.7 -0.899994 -132.7 -1.8z" />
    <glyph glyph-name="Aacute" unicode="&#xc1;" horiz-adv-x="701" 
d="M498 843c27.4 -18.7 48 -52 57 -81l-7 -13.9l-152 -44.1c-22.2 -6.40002 -30.9 -9 -39 -9s-16 16 -16 25c0 7 1.79999 14.8 15 24zM411.5 275.1c-24.2 63.4 -52.8 136.9 -88.5 218.9h-5.89999l-93.5 -218.1c31.4 -1.39999 75.5 -1.89999 104.4 -1.89999
c23.7 0 55.1 0.5 83.5 1.10001zM200.3 219.2c-34.1 -84.1 -63.5 -163 -79.3 -222.2c-12 3 -34 3 -45 3s-44 0 -56 -3c101 221 199 434 295 656h90c86 -219 224 -555 274 -656c-17 3 -74 3 -91 3s-64 0 -81 -3c-6 21.7 -27.7 96.7 -74.5 222.7
c-32.7 0.699997 -67.4 1.3 -99.5 1.3c-35.7 0 -94.7 -0.899994 -132.7 -1.8z" />
    <glyph glyph-name="Acircumflex" unicode="&#xc2;" horiz-adv-x="701" 
d="M503 715l-16 -31c-46 18 -90.5 38 -133 59c-41.5 -22.5 -88 -41 -134 -59l-16 31c45 36 96 79 135 118h30c39 -41 89.3 -82.3 134 -118zM411.5 275.1c-24.2 63.4 -52.8 136.9 -88.5 218.9h-5.89999l-93.5 -218.1c31.4 -1.39999 75.5 -1.89999 104.4 -1.89999
c23.7 0 55.1 0.5 83.5 1.10001zM200.3 219.2c-34.1 -84.1 -63.5 -163 -79.3 -222.2c-12 3 -34 3 -45 3s-44 0 -56 -3c101 221 199 434 295 656h90c86 -219 224 -555 274 -656c-17 3 -74 3 -91 3s-64 0 -81 -3c-6 21.7 -27.7 96.7 -74.5 222.7
c-32.7 0.699997 -67.4 1.3 -99.5 1.3c-35.7 0 -94.7 -0.899994 -132.7 -1.8z" />
    <glyph glyph-name="Atilde" unicode="&#xc3;" horiz-adv-x="701" 
d="M422 788c21 0 36 6 49 42l32 -9c-14 -64 -49 -107 -100 -107c-42.1 0 -77.9 42 -118 42c-29 0 -41 -12 -49 -43l-33 7c15 64 46 109 94 109c49.7 0 76.5 -41 125 -41zM411.5 275.1c-24.2 63.4 -52.8 136.9 -88.5 218.9h-5.89999l-93.5 -218.1
c31.4 -1.39999 75.5 -1.89999 104.4 -1.89999c23.7 0 55.1 0.5 83.5 1.10001zM200.3 219.2c-34.1 -84.1 -63.5 -163 -79.3 -222.2c-12 3 -34 3 -45 3s-44 0 -56 -3c101 221 199 434 295 656h90c86 -219 224 -555 274 -656c-17 3 -74 3 -91 3s-64 0 -81 -3
c-6 21.7 -27.7 96.7 -74.5 222.7c-32.7 0.699997 -67.4 1.3 -99.5 1.3c-35.7 0 -94.7 -0.899994 -132.7 -1.8z" />
    <glyph glyph-name="Adieresis" unicode="&#xc4;" horiz-adv-x="701" 
d="M436 703c0 32 25 57 57 57c31 0 58 -25 58 -57c0 -31 -27 -56 -58 -56c-32 0 -57 25 -57 56zM138 703c0 32 27 57 58 57c32 0 57 -25 57 -57c0 -31 -25 -56 -57 -56c-31 0 -58 25 -58 56zM411.5 275.1c-24.2 63.4 -52.8 136.9 -88.5 218.9h-5.89999l-93.5 -218.1
c31.4 -1.39999 75.5 -1.89999 104.4 -1.89999c23.7 0 55.1 0.5 83.5 1.10001zM200.3 219.2c-34.1 -84.1 -63.5 -163 -79.3 -222.2c-12 3 -34 3 -45 3s-44 0 -56 -3c101 221 199 434 295 656h90c86 -219 224 -555 274 -656c-17 3 -74 3 -91 3s-64 0 -81 -3
c-6 21.7 -27.7 96.7 -74.5 222.7c-32.7 0.699997 -67.4 1.3 -99.5 1.3c-35.7 0 -94.7 -0.899994 -132.7 -1.8z" />
    <glyph glyph-name="Aring" unicode="&#xc5;" horiz-adv-x="701" 
d="M361 789c-35 0 -61 -30 -61 -64c0 -31 26 -64 61 -64s61 33 61 64c0 35 -27 64 -61 64zM254 725c0 58 48 103 106 103s107 -44 107 -103c0 -38.2 -21.9 -72.3 -54.9 -90c86.3 -219 218.3 -539.7 266.9 -638c-17 3 -74 3 -91 3s-64 0 -81 -3
c-6 21.7 -27.7 96.7 -74.5 222.7c-32.7 0.699997 -67.4 1.3 -99.5 1.3c-35.7 0 -94.7 -0.899994 -132.7 -1.8c-34.1 -84.1 -63.5 -163 -79.3 -222.2c-12 3 -34 3 -45 3s-44 0 -56 -3c98.3 215.2 193.8 422.7 287.4 638.4c-31.8 17.5 -53.4 50.7 -53.4 89.6zM411.5 275.1
c-24.2 63.4 -52.8 136.9 -88.5 218.9h-5.89999l-93.5 -218.1c31.4 -1.39999 75.5 -1.89999 104.4 -1.89999c23.7 0 55.1 0.5 83.5 1.10001z" />
    <glyph glyph-name="AE" unicode="&#xc6;" horiz-adv-x="842" 
d="M205.2 213.3c-40.5 -82.5 -75.3 -159 -97.2 -216.3c-12 3 -34 3 -45 3s-52 0 -64 -3c106 203 215 405 358 650.7l35 -2.5h48l38.1 -0.200012h243.9c21 0 44 1 60 3l2 -3c-1 -14 -2 -33 -2 -41c0 -9 1 -28 2 -36l-2 -4s-127.3 10.3 -233 10.3
c-11.7 0 -21.9 -0.0999756 -30.8 -0.299988c1.09998 -58.6 1.89996 -129.1 2.89996 -200.9c98.5 0.799988 150 5.29999 203.9 9.89999l3 -3c-2 -9 -3 -24 -3 -33s1 -34 3 -43l-3 -3c-57.2 5.79999 -146.6 8.79999 -202.9 9.70001c1.40002 -89.3 3.40002 -175.9 7 -239.9
c101.6 3.7 262.9 20.2 262.9 20.2l2 -4c-1 -8 -2 -33 -2 -43s1 -30 2 -44l-2 -3c-16 2 -39 3 -60 3h-197h-11.5h-83.5c-17 0 -38 0 -55 -3c0 25.9 0.299988 112.6 0.600006 217.8c-12 0.0999908 -24 0.199997 -35.6 0.199997c-33.4 0 -103.9 -0.800003 -144.8 -1.7z
M385.7 269.3c0.299988 88 0.599976 183.2 0.799988 264.2h-12c-45.6 -80.3 -95.4 -173.2 -140.7 -262.8c35.3 -0.5 85.6 -1.70001 111.2 -1.70001c12.1 0 26.1 0.100006 40.7 0.299988z" />
    <glyph glyph-name="Ccedilla" unicode="&#xc7;" horiz-adv-x="706" 
d="M301 -100l-6 6l44.9 85.5c-64.6 5 -114.7 22.8 -164.9 56.5c-79 53 -123 157 -123 262c0 109.9 45.1 212.3 124 274c62.5 48.8 147 74 238 74c122 0 225 -45 225 -45l2 -3c-11.8 -49.3 -16.4 -79 -20 -130l-30 -1c-41 82 -94 124 -184 124c-82 0 -192 -71 -192 -274
c0 -170.2 82 -279 191 -279c93 0 148 17 223 89l24 -34c-84 -87 -183.8 -115 -273 -115h-5.39999l-14.6 -35c45.4 -9.1 92.9 -24.5 92.9 -79.1c0 -50.2 -50.8 -91.9 -115.6 -91.9c-32 0 -48 8 -65.3 19c0 10 3.29999 22 13.3 31.5c27 -10 38 -14 58 -14
c30 0 46.7 8.5 46.7 35.5c0 37.6 -53 42 -89 44z" />
    <glyph glyph-name="Egrave" unicode="&#xc8;" horiz-adv-x="594" 
d="M221 843l142 -99c13.2 -9.20001 15 -17 15 -24c0 -9 -7.89999 -25 -16 -25s-16.8 2.59998 -39 9l-152 44.1l-7 13.9c9 29 29.6 62.3 57 81zM240 200c0 -17 1 -103 8 -127c134 0 296 22 296 22l2 -4c-1 -8 -2 -45 -2 -55s0.5 -22.8 2 -36l-2 -3c-16 2 -39 3 -60 3h-314
c-35 0 -85 -3 -85 -3l-1 3c8 54 12 125 12 200v245c0 75 -4 143 -12 200l2 3s50 -3 84 -3h304c21 0 44 1 60 3l2 -3c-1.20001 -14 -2 -27 -2 -35c0 -9 1 -33 2 -41l-2 -4s-152 12 -286 12c-7 -24 -8 -115 -8 -132v-73c118 0 178 5 237 10l3 -3c-2 -9 -3 -28 -3 -37
s1 -29 3 -38l-3 -3c-69 7 -189 10 -237 10v-111z" />
    <glyph glyph-name="Eacute" unicode="&#xc9;" horiz-adv-x="594" 
d="M348 843c27.4 -18.7 48 -52 57 -81l-7 -13.9l-152 -44.1c-22.2 -6.40002 -30.9 -9 -39 -9s-16 16 -16 25c0 7 1.8 14.8 15 24zM240 200c0 -17 1 -103 8 -127c134 0 296 22 296 22l2 -4c-1 -8 -2 -45 -2 -55s0.5 -22.8 2 -36l-2 -3c-16 2 -39 3 -60 3h-314
c-35 0 -85 -3 -85 -3l-1 3c8 54 12 125 12 200v245c0 75 -4 143 -12 200l2 3s50 -3 84 -3h304c21 0 44 1 60 3l2 -3c-1.20001 -14 -2 -27 -2 -35c0 -9 1 -33 2 -41l-2 -4s-152 12 -286 12c-7 -24 -8 -115 -8 -132v-73c118 0 178 5 237 10l3 -3c-2 -9 -3 -28 -3 -37
s1 -29 3 -38l-3 -3c-69 7 -189 10 -237 10v-111z" />
    <glyph glyph-name="Ecircumflex" unicode="&#xca;" horiz-adv-x="594" 
d="M463 715l-16 -31c-46 18 -90.5 38 -133 59c-41.5 -22.5 -88 -41 -134 -59l-16 31c45 36 96 79 135 118h30c39 -41 89.3 -82.3 134 -118zM240 200c0 -17 1 -103 8 -127c134 0 296 22 296 22l2 -4c-1 -8 -2 -45 -2 -55s0.5 -22.8 2 -36l-2 -3c-16 2 -39 3 -60 3h-314
c-35 0 -85 -3 -85 -3l-1 3c8 54 12 125 12 200v245c0 75 -4 143 -12 200l2 3s50 -3 84 -3h304c21 0 44 1 60 3l2 -3c-1.20001 -14 -2 -27 -2 -35c0 -9 1 -33 2 -41l-2 -4s-152 12 -286 12c-7 -24 -8 -115 -8 -132v-73c118 0 178 5 237 10l3 -3c-2 -9 -3 -28 -3 -37
s1 -29 3 -38l-3 -3c-69 7 -189 10 -237 10v-111z" />
    <glyph glyph-name="Edieresis" unicode="&#xcb;" horiz-adv-x="594" 
d="M347 788c0 35 28 63 63 63c34 0 63 -28 63 -63c0 -34 -29 -62 -63 -62c-35 0 -63 28 -63 62zM127 788c0 35 28 63 63 63s63 -28 63 -63c0 -34 -28 -62 -63 -62s-63 28 -63 62zM240 200c0 -17 1 -103 8 -127c134 0 296 22 296 22l2 -4c-1 -8 -2 -45 -2 -55
s0.5 -22.8 2 -36l-2 -3c-16 2 -39 3 -60 3h-314c-35 0 -85 -3 -85 -3l-1 3c8 54 12 125 12 200v245c0 75 -4 143 -12 200l2 3s50 -3 84 -3h304c21 0 44 1 60 3l2 -3c-1.20001 -14 -2 -27 -2 -35c0 -9 1 -33 2 -41l-2 -4s-152 12 -286 12c-7 -24 -8 -115 -8 -132v-73
c118 0 178 5 237 10l3 -3c-2 -9 -3 -28 -3 -37s1 -29 3 -38l-3 -3c-69 7 -189 10 -237 10v-111z" />
    <glyph glyph-name="Igrave" unicode="&#xcc;" horiz-adv-x="330" 
d="M131 843l142 -99c13.2 -9.20001 15 -17 15 -24c0 -9 -7.89999 -25 -16 -25s-16.8 2.59998 -39 9l-152 44.1l-7 13.9c9 29 29.6 62.3 57 81zM93 445c0 75 -4 143 -12 200l2 3s48 -3 82 -3c35 0 83 3 83 3l1 -3c-8 -53 -12 -125 -12 -200v-245c0 -75 4 -143 12 -200l-2 -3
s-48 3 -82 3c-35 0 -83 -3 -83 -3l-1 3c8 54 12 125 12 200v245z" />
    <glyph glyph-name="Iacute" unicode="&#xcd;" horiz-adv-x="330" 
d="M228 843c27.4 -18.7 48 -52 57 -81l-7 -13.9l-152 -44.1c-22.2 -6.40002 -30.9 -9 -39 -9s-16 16 -16 25c0 7 1.8 14.8 15 24zM93 445c0 75 -4 143 -12 200l2 3s48 -3 82 -3c35 0 83 3 83 3l1 -3c-8 -53 -12 -125 -12 -200v-245c0 -75 4 -143 12 -200l-2 -3s-48 3 -82 3
c-35 0 -83 -3 -83 -3l-1 3c8 54 12 125 12 200v245z" />
    <glyph glyph-name="Icircumflex" unicode="&#xce;" horiz-adv-x="330" 
d="M326 715l-16 -31c-46 18 -90.5 38 -133 59c-41.5 -22.5 -88 -41 -134 -59l-16 31c45 36 96 79 135 118h30c39 -41 89.3 -82.3 134 -118zM93 445c0 75 -4 143 -12 200l2 3s48 -3 82 -3c35 0 83 3 83 3l1 -3c-8 -53 -12 -125 -12 -200v-245c0 -75 4 -143 12 -200l-2 -3
s-48 3 -82 3c-35 0 -83 -3 -83 -3l-1 3c8 54 12 125 12 200v245z" />
    <glyph glyph-name="Idieresis" unicode="&#xcf;" horiz-adv-x="330" 
d="M217 788c0 35 28 63 63 63c34 0 63 -28 63 -63c0 -34 -29 -62 -63 -62c-35 0 -63 28 -63 62zM-3 788c0 35 28 63 63 63s63 -28 63 -63c0 -34 -28 -62 -63 -62s-63 28 -63 62zM93 445c0 75 -4 143 -12 200l2 3s48 -3 82 -3c35 0 83 3 83 3l1 -3c-8 -53 -12 -125 -12 -200
v-245c0 -75 4 -143 12 -200l-2 -3s-48 3 -82 3c-35 0 -83 -3 -83 -3l-1 3c8 54 12 125 12 200v245z" />
    <glyph glyph-name="Eth" unicode="&#xd0;" horiz-adv-x="761" 
d="M245 101c0 -32 21.9 -50 98 -50c141 0 205 41 205 243c0 154 -14 301 -230 301c-49 0 -73 -15 -73 -50v-207.6c43.4 0.600006 87.7 1.80002 123 3.60001l-10 -61c-32.6 1.70001 -72.8 2.89999 -113 3.5v-182.5zM175 645c70.6 0 110.4 3 181 3c192 0 353 -133.5 353 -330
c0 -246 -194 -320 -335 -320c-87.1 0 -121.4 2 -199 2c-35 0 -85 -3 -85 -3l-1 3c8 54 12 125 12 200v83.3c-37.8 -0.699982 -75.4 -1.79999 -104 -3.29999l10 61c26.1 -1.39999 59.7 -2.39999 94 -3.10001v107.1c0 75 -4 143 -12 200l2 3s50 -3 84 -3z" />
    <glyph glyph-name="Ntilde" unicode="&#xd1;" horiz-adv-x="748" 
d="M463 792c21 0 36 6 49 42l32 -9c-14 -64 -49 -107 -100 -107c-42.1 0 -77.9 42 -118 42c-29 0 -41 -12 -49 -43l-33 7c15 64 46 109 94 109c49.7 0 76.5 -41 125 -41zM101 445c2 75 -2 143 -10 200l2 3s36.7 -3 60 -3c18.3 0 49 3 49 3
c112 -147.1 257.2 -316.1 382 -447.7l3 -0.300003v245c-2.09998 75 -5 143 -13 200l2 3s25.7 -3 50 -3c22.3 0 49 3 49 3l2 -3c-8 -53 -10 -125 -10 -200l-6 -448c-16.2 2 -32 3 -48 3c-16.2 0 -39.5 -1.5 -56 -3c-115 147.9 -250 306.9 -381 458h-6l-4 -255
c-1.2 -78 -2 -143 6 -200l-2 -3s-19.7 3 -44 3c-22.3 0 -45 -3 -45 -3l-1 3c8 53 12.8 122.2 16 200z" />
    <glyph glyph-name="Ograve" unicode="&#xd2;" horiz-adv-x="799" 
d="M311 843l142 -99c13.2 -9.20001 15 -17 15 -24c0 -9 -7.89999 -25 -16 -25s-16.8 2.59998 -39 9l-152 44.1l-7 13.9c9 29 29.6 62.3 57 81zM384 603c-96 0 -171 -66 -171 -276c0 -192 85 -282 205 -282c114 0 168 86 168 265c0 208 -61 293 -202 293zM747 329
c0 -200 -134.9 -339 -349 -339c-198 0 -346 132 -346 320c0 196 142 348 345 348c213 0 350 -131 350 -329z" />
    <glyph glyph-name="Oacute" unicode="&#xd3;" horiz-adv-x="799" 
d="M438 843c27.4 -18.7 48 -52 57 -81l-7 -13.9l-152 -44.1c-22.2 -6.40002 -30.9 -9 -39 -9s-16 16 -16 25c0 7 1.79999 14.8 15 24zM384 603c-96 0 -171 -66 -171 -276c0 -192 85 -282 205 -282c114 0 168 86 168 265c0 208 -61 293 -202 293zM747 329
c0 -200 -134.9 -339 -349 -339c-198 0 -346 132 -346 320c0 196 142 348 345 348c213 0 350 -131 350 -329z" />
    <glyph glyph-name="Ocircumflex" unicode="&#xd4;" horiz-adv-x="799" 
d="M543 715l-16 -31c-46 18 -90.5 38 -133 59c-41.5 -22.5 -88 -41 -134 -59l-16 31c45 36 96 79 135 118h30c39 -41 89.3 -82.3 134 -118zM384 603c-96 0 -171 -66 -171 -276c0 -192 85 -282 205 -282c114 0 168 86 168 265c0 208 -61 293 -202 293zM747 329
c0 -200 -134.9 -339 -349 -339c-198 0 -346 132 -346 320c0 196 142 348 345 348c213 0 350 -131 350 -329z" />
    <glyph glyph-name="Otilde" unicode="&#xd5;" horiz-adv-x="799" 
d="M471 792c21 0 36 6 49 42l32 -9c-14 -64 -49 -107 -100 -107c-42.1 0 -77.9 42 -118 42c-29 0 -41 -12 -49 -43l-33 7c15 64 46 109 94 109c49.7 0 76.5 -41 125 -41zM384 603c-96 0 -171 -66 -171 -276c0 -192 85 -282 205 -282c114 0 168 86 168 265
c0 208 -61 293 -202 293zM747 329c0 -200 -134.9 -339 -349 -339c-198 0 -346 132 -346 320c0 196 142 348 345 348c213 0 350 -131 350 -329z" />
    <glyph glyph-name="Odieresis" unicode="&#xd6;" horiz-adv-x="799" 
d="M564 703c0 32 26 57 58 57c31 0 57 -25 57 -57c0 -31 -26 -56 -57 -56c-32 0 -58 25 -58 56zM122 703c0 32 26 57 57 57c32 0 58 -25 58 -57c0 -31 -26 -56 -58 -56c-31 0 -57 25 -57 56zM384 603c-96 0 -171 -66 -171 -276c0 -192 85 -282 205 -282
c114 0 168 86 168 265c0 208 -61 293 -202 293zM747 329c0 -200 -134.9 -339 -349 -339c-198 0 -346 132 -346 320c0 196 142 348 345 348c213 0 350 -131 350 -329z" />
    <glyph glyph-name="multiply" unicode="&#xd7;" horiz-adv-x="545" 
d="M151 402l121 -120l121 120l49 -50l-120 -120l120 -120l-49 -49l-121 120l-120 -120l-49 49l120 120l-121 121z" />
    <glyph glyph-name="Oslash" unicode="&#xd8;" horiz-adv-x="799" 
d="M138 -42l-44 36l64.2 78.9c-66.2 56.8 -106.2 139.4 -106.2 237.1c0 196 142 348 345 348c76.7 0 143.6 -17 197.7 -48l55.3 68l44 -34l-53.5 -66c68 -57.8 106.5 -144 106.5 -249c0 -200 -134.9 -339 -349 -339c-72.9 0 -139.1 17.9 -193.6 49.9zM384 603
c-96 0 -171 -66 -171 -276c0 -62.5 9 -114.2 25.3 -155.5l297.5 366c-32.9 45.2 -82.8 65.5 -151.8 65.5zM563.4 482.9l-295.8 -365c36.4 -49.1 88.8 -72.9 150.4 -72.9c114 0 168 86 168 265c0 71.8 -7.29999 128.9 -22.6 172.9z" />
    <glyph glyph-name="Ugrave" unicode="&#xd9;" horiz-adv-x="719" 
d="M311 843l142 -99c13.2 -9.20001 15 -17 15 -24c0 -9 -7.89999 -25 -16 -25s-16.8 2.59998 -39 9l-152 44.1l-7 13.9c9 29 29.6 62.3 57 81zM547 445c0 75 -2 143 -10 200l2 3s26.7 -3 51 -3c22.3 0 51 3 51 3l1 -3c-8 -53 -10 -125 -10 -200v-150
c0 -187 -76 -305 -274 -305c-104.3 0 -272 42 -272 246v209c0 75 -2 143 -10 200l2 3s44 -3 78 -3c35 0 83 3 83 3l1 -3c-8 -53 -10 -125 -10 -200v-176c0 -75 16 -214 149 -214c145.2 0 168 110 168 222v168z" />
    <glyph glyph-name="Uacute" unicode="&#xda;" horiz-adv-x="719" 
d="M448 843c27.4 -18.7 48 -52 57 -81l-7 -13.9l-152 -44.1c-22.2 -6.40002 -30.9 -9 -39 -9s-16 16 -16 25c0 7 1.79999 14.8 15 24zM547 445c0 75 -2 143 -10 200l2 3s26.7 -3 51 -3c22.3 0 51 3 51 3l1 -3c-8 -53 -10 -125 -10 -200v-150c0 -187 -76 -305 -274 -305
c-104.3 0 -272 42 -272 246v209c0 75 -2 143 -10 200l2 3s44 -3 78 -3c35 0 83 3 83 3l1 -3c-8 -53 -10 -125 -10 -200v-176c0 -75 16 -214 149 -214c145.2 0 168 110 168 222v168z" />
    <glyph glyph-name="Ucircumflex" unicode="&#xdb;" horiz-adv-x="719" 
d="M533 715l-16 -31c-46 18 -90.5 38 -133 59c-41.5 -22.5 -88 -41 -134 -59l-16 31c45 36 96 79 135 118h30c39 -41 89.3 -82.3 134 -118zM547 445c0 75 -2 143 -10 200l2 3s26.7 -3 51 -3c22.3 0 51 3 51 3l1 -3c-8 -53 -10 -125 -10 -200v-150c0 -187 -76 -305 -274 -305
c-104.3 0 -272 42 -272 246v209c0 75 -2 143 -10 200l2 3s44 -3 78 -3c35 0 83 3 83 3l1 -3c-8 -53 -10 -125 -10 -200v-176c0 -75 16 -214 149 -214c145.2 0 168 110 168 222v168z" />
    <glyph glyph-name="Udieresis" unicode="&#xdc;" horiz-adv-x="719" 
d="M419 713c0 32 25 57 57 57c31 0 57 -25 57 -57c0 -31 -26 -56 -57 -56c-32 0 -57 25 -57 56zM236 713c0 32 26 57 57 57c32 0 57 -25 57 -57c0 -31 -25 -56 -57 -56c-31 0 -57 25 -57 56zM547 445c0 75 -2 143 -10 200l2 3s26.7 -3 51 -3c22.3 0 51 3 51 3l1 -3
c-8 -53 -10 -125 -10 -200v-150c0 -187 -76 -305 -274 -305c-104.3 0 -272 42 -272 246v209c0 75 -2 143 -10 200l2 3s44 -3 78 -3c35 0 83 3 83 3l1 -3c-8 -53 -10 -125 -10 -200v-176c0 -75 16 -214 149 -214c145.2 0 168 110 168 222v168z" />
    <glyph glyph-name="Yacute" unicode="&#xdd;" horiz-adv-x="653" 
d="M418 843c27.4 -18.7 48 -52 57 -81l-7 -13.9l-152 -44.1c-22.2 -6.40002 -30.9 -9 -39 -9s-16 16 -16 25c0 7 1.79999 14.8 15 24zM406.2 304.2c0.699982 -99.1 3.5 -256.2 7.79999 -307.2c-16 3 -68 3 -83 3s-66 0 -82 -3c5.7 55.5 6.8 180.5 7 278.1
c-38.1 65.1 -200 312.9 -240 372.9c17 -3 81 -3 98 -3s61 0 78 3c50.8 -99.7 105.9 -189.2 165.2 -290.5c55.1 87.6 116.5 192.2 163.8 290.5c12 -3 45 -3 58 -3c12 0 34 0 47 3c-111.5 -170.5 -178 -267.1 -219.8 -343.8z" />
    <glyph glyph-name="Thorn" unicode="&#xde;" horiz-adv-x="606" 
d="M82 445c0 75 -4 143 -12 200l2 3s48 -3 82 -3c35 0 83 3 83 3l1 -3c-5.10001 -33.9 -8.60001 -75.6 -10.4 -120.9c35.7 1.90002 79.7 1.90002 98.4 1.90002c185 0 246 -87 246 -183c0 -111.1 -82 -196 -260 -196c-34.6 0 -70.2 1.89999 -85.5 6.8
c1.3 -56.8 5.2 -108.7 11.5 -153.8l-2 -3s-48 3 -82 3c-35 0 -83 -3 -83 -3l-1 3c8 54 12 125 12 200v245zM226 202c9 -3 23 -5 61 -5c72 0 125 34.9 125 146c0 96 -48 133 -107 133c-19 0 -57.9 -5 -78.9 -11c-0.100006 -6.60001 -0.100006 -13.3 -0.100006 -20v-243z" />
    <glyph glyph-name="germandbls" unicode="&#xdf;" horiz-adv-x="638" 
d="M424 -10c-50.5 0 -121 23 -129 28l-1 3c11 19 12 40 19 67l21 1c11 -20 31 -43 60 -43c42 0 57 42 57 110c0 93 -46 174 -131 238v21c72 44 88 82 88 155c0 51 -30 84 -71 84c-80.1 0 -109 -68 -109 -116c0 -37 2 -57 2 -96v-242c0 -75 2 -145 6 -200l-2 -3s-26 3 -60 3
c-35 0 -83 -3 -83 -3l-1 3c7 53 8 125 8 200v147c0 12 -3.9 15.1 -12 16l-44 5c-3.8 0.399994 -10 2 -10 6v35c0 8 10.4 16.1 27 20c30 7 39 21 39 48c0 47 35.5 117.5 92 168c47 42 117.4 53 154 53c45.4 0 108 -5.5 136 -23c36 -22.6 62 -57 62 -97
c0 -77 -55 -124 -123 -159v-10c79 -52 178 -120 178 -236c0 -57.6 -17.8 -113.1 -55 -146c-30.6 -27.1 -76.5 -37 -118 -37z" />
    <glyph glyph-name="agrave" unicode="&#xe0;" horiz-adv-x="516" 
d="M216 674l69 -124c4 -7 9 -18 9 -26c0 -9 -15 -16 -24 -16c-8 0 -21 5 -38 20l-121 105l2 11c8 9 47 32 83 32c5 0 16 -1 20 -2zM311 222l-80 -21c-50.2 -13.2 -63 -57.9 -63 -94c0 -27 22 -57 52 -57c28 0 51 11 74 34c7.10001 7.1 15 32 15 45zM437 80
c0 -33 21 -36 61 -36c6 -5 8.70001 -12.3 10 -21c-30 -23 -79.9 -33 -119 -33c-43 0 -65 17 -79 58h-2c-45 -45 -97.9 -58 -137 -58c-70 0 -137 39 -137 108c0 68 58 119 154 142l117 31c3 1 6 5 6 12c0 77.1 -25 102 -69 102c-45 0 -89 -29 -123 -79l-33 1l-20 75l3 4
c24 21 120 53 192 53c48.1 0 108.3 -11.5 140 -39.9c27.6 -24.8 40 -62 40 -122.1c0 -11 -4 -168 -4 -197z" />
    </font>
</defs>
</svg>
