<?xml version="1.0" standalone="no"?>
<!DOCTYPE svg PUBLIC "-//W3C//DTD SVG 1.1//EN" "http://www.w3.org/Graphics/SVG/1.1/DTD/svg11.dtd" >
<!--
2003-08-29: Created.
2004-07-25: v(1.0) release candidate
2005-12-28: v(1.1.0) stable
2006-01-01: v(2.0.0) stable
2006-09-05: v(2.2.0) stable
2006-12-04: v(2.3.0) stable
2007-03-11: v(2.4.0) stable
2007-12-00: v(2.7.0) stable
2008-06-00: v(2.8.14) stable

-->
<svg>
<metadata>
Created by FontForge 20120601 at Mon Jul  2 00:09:40 2012
 By Gillian Tiefenlicht
Linux Libertine by Philipp H. Poll,
Open Font under Terms of following Free Software Licenses:
GPL (General Public License) with font-exception and OFL (Open Font License).
Created with FontForge (http://fontforge.sf.net)
Sept 2003, 2004, 2005, 2006, 2007, 2008, 2009, 2010, 2011,2012
</metadata>
<defs>
<font id="LinBiolinumOI" horiz-adv-x="0" >
  <font-face 
    font-family="Linux Biolinum O"
    font-weight="400"
    font-style="italic"
    font-stretch="normal"
    units-per-em="1000"
    panose-1="2 0 5 3 0 0 0 0 0 0"
    ascent="754"
    descent="-246"
    x-height="432"
    cap-height="648"
    bbox="-1032.28 -247 6299.55 896"
    underline-thickness="40"
    underline-position="-98"
    slope="-12"
    stemh="44"
    stemv="80"
    unicode-range="U+0020-FFFD"
  />
<missing-glyph horiz-adv-x="500" 
d="M178.2 603l-108 -508l224 254zM90.6 50h340l-116 254zM354.2 349l116 -254l108 508zM333.7 394l223.8 253h-340zM0 0l148.4 698h500l-148.4 -698h-500z" />
    <glyph glyph-name="ellipsis" unicode="&#x2e;&#x2e;&#x2e;" horiz-adv-x="749" 
d="M63.4 44l0.799995 4c14.9 26.5 32.6 41.8 65.5 54h4c26.8 -10.5 39.3 -25.8 42.5 -54l-0.800003 -4c-17.1 -32.2 -35.8 -47 -65.5 -54h-4c-29.8 7 -40.9 20.5 -42.5 54zM328.4 44l0.800018 4c14.9 26.5 32.6 41.8 65.5 54h4c26.8 -10.5 39.3 -25.8 42.5 -54l-0.800018 -4
c-17.1 -32.2 -35.8 -47 -65.5 -54h-4c-29.8 7 -40.9 20.5 -42.5 54zM592.4 44l0.799988 4c14.9 26.5 32.6 41.8 65.5 54h4c26.8 -10.5 39.3 -25.8 42.5 -54l-0.799988 -4c-17.1 -32.2 -35.8 -47 -65.5 -54h-4c-29.8 7 -40.9 20.5 -42.5 54z" />
    <glyph glyph-name="exclamdbl" unicode="&#x21;&#x21;" horiz-adv-x="411" 
d="M437.3 660c27 0 51.1 -23 40.5 -73c-13.8 -65 -38.8 -107 -67.1 -193c-36 -108 -49.6 -168 -54.6 -182c-3.30002 -11 -8.30002 -20 -18.3 -20c-11 0 -11.5 7 -11.2 13c2.5 21 16.5 111 25.1 189c9.69998 88 1.19998 123 16.1 193c11.5 54 47.5 73 69.5 73zM250.8 46
l0.800003 4c14.9 26.5 32.6 41.8 65.5 54h4c26.8 -10.5 39.3 -25.8 42.5 -54l-0.800018 -4c-17.1 -32.2 -35.8 -47 -65.5 -54h-4c-29.8 7 -40.9 20.5 -42.5 54zM252.9 658c27 0 51 -23 40.4 -73c-13.8 -65 -38.7 -107 -67 -193c-36 -108 -49.7 -168 -54.7 -182
c-3.3 -11 -8.20001 -20 -18.2 -20c-11 0 -11.6 7 -11.3 13c2.5 21 16.6 111 25.2 189c9.7 88 1.09999 123 16 193c11.5 54 47.6 73 69.6 73zM66.4 44l0.799995 4c14.9 26.5 32.6 41.8 65.5 54h4c26.8 -10.5 39.3 -25.8 42.5 -54l-0.800003 -4
c-17.1 -32.2 -35.8 -47 -65.5 -54h-4c-29.8 7 -40.9 20.5 -42.5 54z" />
    <glyph glyph-name="question_question" unicode="&#x3f;&#x3f;" horiz-adv-x="781" 
d="M702.6 619c-56 0 -107.4 -49 -143 -94l-12.8 1l-1.79999 67l3.90002 4c28.9 20.5 98.7 62 171.2 62c102 0 152.2 -60 132.9 -151c-16.8 -79 -85.2 -123 -139.4 -157c-26.6 -17 -50 -33 -62.6 -50c-18.3 -25 -28.4 -49 -33.5 -73l-9.40002 -44
c-1.5 -7 -7.09998 -10 -15.1 -10s-12.4 3 -10.9 10l9.80005 46c9.09998 43 23.7 102 101.2 161c47.9 37 74 66 84 113c13.8 65 -17.5 115 -74.5 115zM509.4 44l0.800018 4c14.9 26.5 32.6 41.8 65.5 54h4c26.8 -10.5 39.3 -25.8 42.5 -54l-0.799988 -4
c-17.1 -32.2 -35.8 -47 -65.5 -54h-4c-29.8 7 -40.9 20.5 -42.5 54zM326.6 619c-56 0 -107.4 -49 -143 -94l-12.8 1l-1.8 67l3.89999 4c28.9 20.5 98.7 62 171.2 62c102 0 152.2 -60 132.9 -151c-16.8 -79 -85.2 -123 -139.4 -157c-26.6 -17 -50 -33 -62.6 -50
c-18.3 -25 -28.4 -49 -33.5 -73l-9.39999 -44c-1.5 -7 -7.10001 -10 -15.1 -10s-12.4 3 -10.9 10l9.79999 46c9.10001 43 23.7 102 101.2 161c47.9 37 74 66 84 113c13.8 65 -17.5 115 -74.5 115zM133.4 44l0.800003 4c14.9 26.5 32.6 41.8 65.5 54h4
c26.8 -10.5 39.3 -25.8 42.5 -54l-0.800003 -4c-17.1 -32.2 -35.8 -47 -65.5 -54h-4c-29.8 7 -40.9 20.5 -42.5 54z" />
    <glyph glyph-name="question_exclam" unicode="&#x3f;&#x21;" horiz-adv-x="594" 
d="M620.3 660c27 0 51.1 -23 40.5 -73c-13.8 -65 -38.8 -107 -67.1 -193c-36 -108 -49.6 -168 -54.6 -182c-3.29999 -11 -8.29999 -20 -18.3 -20c-11 0 -11.5 7 -11.2 13c2.49997 21 16.5 111 25.1 189c9.70001 88 1.20001 123 16.1 193c11.5 54 47.5 73 69.5 73zM433.8 46
l0.800018 4c14.9 26.5 32.6 41.8 65.5 54h4c26.8 -10.5 39.3 -25.8 42.5 -54l-0.799988 -4c-17.1 -32.2 -35.8 -47 -65.5 -54h-4c-29.8 7 -40.9 20.5 -42.5 54zM326.6 619c-56 0 -107.4 -49 -143 -94l-12.8 1l-1.8 67l3.89999 4c28.9 20.5 98.7 62 171.2 62
c102 0 152.2 -60 132.9 -151c-16.8 -79 -85.2 -123 -139.4 -157c-26.6 -17 -50 -33 -62.6 -50c-18.3 -25 -28.4 -49 -33.5 -73l-9.39999 -44c-1.5 -7 -7.10001 -10 -15.1 -10s-12.4 3 -10.9 10l9.79999 46c9.10001 43 23.7 102 101.2 161c47.9 37 74 66 84 113
c13.8 65 -17.5 115 -74.5 115zM133.4 44l0.800003 4c14.9 26.5 32.6 41.8 65.5 54h4c26.8 -10.5 39.3 -25.8 42.5 -54l-0.800003 -4c-17.1 -32.2 -35.8 -47 -65.5 -54h-4c-29.8 7 -40.9 20.5 -42.5 54z" />
    <glyph glyph-name="exclam_question" unicode="&#x21;&#x3f;" horiz-adv-x="587" 
d="M252.9 658c27 0 51 -23 40.4 -73c-13.8 -65 -38.7 -107 -67 -193c-36 -108 -49.7 -168 -54.7 -182c-3.3 -11 -8.20001 -20 -18.2 -20c-11 0 -11.6 7 -11.3 13c2.5 21 16.6 111 25.2 189c9.7 88 1.09999 123 16 193c11.5 54 47.6 73 69.6 73zM66.4 44l0.799995 4
c14.9 26.5 32.6 41.8 65.5 54h4c26.8 -10.5 39.3 -25.8 42.5 -54l-0.800003 -4c-17.1 -32.2 -35.8 -47 -65.5 -54h-4c-29.8 7 -40.9 20.5 -42.5 54zM508.1 617c-56 0 -107.3 -49 -142.9 -94l-12.8 1l-1.79999 67l3.89999 4c28.9 20.5 98.6 62 171.1 62
c102 0 152.3 -60 133 -151c-16.8 -79 -85.2 -123 -139.4 -157c-26.6 -17 -50 -33 -62.6 -50c-18.3 -25 -28.5 -49 -33.6 -73l-9.29999 -44c-1.5 -7 -7.10001 -10 -15.1 -10s-12.4 3 -10.9 10l9.79999 46c9.10001 43 23.7 102 101.2 161c47.9 37 74 66 84 113
c13.8 65 -17.6 115 -74.6 115zM314.9 42l0.899994 4c14.9 26.5 32.6 41.8 65.5 54h4c26.8 -10.5 39.3 -25.8 42.5 -54l-0.899994 -4c-17.1 -32.2 -35.8 -47 -65.5 -54h-4c-29.8 7 -40.9 20.5 -42.5 54z" />
    <glyph glyph-name="centigrade" unicode="&#xb0;C" horiz-adv-x="794" 
d="M651.9 578c107 0 182.5 -40 182.5 -40l1.5 -2c-19.1 -43 -26.6 -55 -39.2 -100l-9.20001 -1c-21.7 72 -78.8 100 -157.8 100c-72 0 -196.4 -63 -234.4 -242c-27.2 -128 0.800018 -255 136.8 -255c82 0 144.8 18 221.5 87l17.8 -15c-76.6 -78 -163.3 -119 -248.3 -119
c-189 0 -255.4 144 -225.2 286c36.8 173 205 301 354 301zM328.4 557c7 33 -5.5 73 -50.5 73c-43 0 -74.8 -37 -82.5 -73c-7.39999 -35 10.1 -70 52.1 -70c41 0 73.7 36 80.9 70zM162.6 558c11.9 56 66.3 100 121.3 100s89.6 -44 77.7 -100c-11.7 -55 -65 -99 -120 -99
s-90.7 44 -79 99z" />
    <glyph glyph-name="fahrenheit" unicode="&#xb0;F" horiz-adv-x="772" 
d="M756.5 567c21 0 42 0 56.4 2l0.599976 -2c-3.79999 -13 -5.90002 -23 -7.40002 -30c-1.69995 -8 -3.09998 -15 -3.79999 -23l-1.70001 -3s-119.6 11 -236.6 11c-10.7 -22 -31.7 -116 -34.9 -131l-15.3 -72c103 0 144.8 4 197.9 9l1.39996 -3
c-3.69995 -8 -5.59998 -17 -7.29999 -25c-1.5 -7 -3.89996 -18 -3.59998 -26l-2.60004 -3c-59.7 6 -152.1 9 -194.1 9l-22.1 -104c-14 -66 -25.8 -126 -29.4 -176l-1.60001 -3s-16.4 3 -46.4 3c-31 0 -48.6 -3 -48.6 -3l-0.399994 3c17 47 32.4 110 46.4 176l45.7 215
c14 66 24.6 125 28.4 176l2.39999 2s16.6 -2 46.6 -2h230zM328.4 557c7 33 -5.5 73 -50.5 73c-43 0 -74.8 -37 -82.5 -73c-7.39999 -35 10.1 -70 52.1 -70c41 0 73.7 36 80.9 70zM162.6 558c11.9 56 66.3 100 121.3 100s89.6 -44 77.7 -100c-11.7 -55 -65 -99 -120 -99
s-90.7 44 -79 99z" />
    <glyph glyph-name="f_f" unicode="ff" horiz-adv-x="583" 
d="M146.8 236l28 149h-66c-4 0 -4.8 1 -3.7 6l3.8 18c1.7 8 9.3 20 27.3 20h48l8.5 40c16.6 78 39.3 99 88.5 143c50.3 45 116.2 66 179.2 66c19 0 36.2 -4 43.1 -9l0.299988 -3c-15 -19 -32.7 -55 -45.4 -82l-11.2 -1c-6.70001 20 -21.6 35 -50.6 35
c-57.3 0 -102.2 -37.8 -113.9 -93c-3.80002 -18 -9.70001 -53 -16.4 -86l-2.09998 -10h148h30h18l8.5 40c16.6 78 41.1 104 87.5 153c46.4 49 107.2 76 170.2 76c19 0 36.2 -4 43.1 -9l0.299988 -3c-15 -19 -32.7 -55 -45.4 -82l-11.2 -1c-6.70001 20 -21.6 35 -50.6 35
c-57.3 0 -93.2 -47.8 -104.9 -103c-3.79999 -18 -7.70001 -59 -15.4 -96l-2.09998 -10h108c5 0 7.59998 -2 6.70001 -6l-5.30005 -25c-1.89996 -9 -16.8 -13 -25.8 -13h-93l-58.5 -288c-19.2 -91.8 -58.3 -177 -96.7 -222c-41.8 -49 -86.4 -76 -143.1 -76
c-17.1 0 -32.6 4 -38.8 9l-0.300003 3c13.5 19 29.4 55 40.9 82l10 1c6.09999 -20 19.5 -35 45.6 -35c42.1 0 57.2 43 78.4 103c18.7 53 40.9 189.1 62.5 304l20 119h-33h-33h-130l-66.5 -318c-19.2 -91.8 -58.3 -177 -96.7 -222c-41.8 -49 -86.4 -76 -143.1 -76
c-17.1 0 -32.6 4 -38.8 9l-0.299995 3c13.5 19 29.4 55 40.9 82l10 1c6.1 -20 19.5 -35 45.6 -35c42.1 0 57.2 43 78.4 103c18.7 53 40.9 189.1 62.5 304z" />
    <glyph glyph-name="f_t" unicode="ft" horiz-adv-x="590" 
d="M467.2 429c12.3 58 15.8 85 25.7 124l2.60001 3c41.1 3 50.2 12 77.4 22c6.29999 0 8.39996 -2.70001 6.79999 -10c-16.8 -58 -18.6 -64.2 -34.5 -139h108c5 0 7.59998 -2 6.70001 -6l-5.30005 -25c-1.89996 -9 -16.8 -13 -26.8 -13h-92l-30.4 -143
c-12.7 -59.9 -23.2 -100 -29.6 -130c-8.69998 -41 -3.29999 -67 19.8 -67c16.4 0 42.5 -0.599998 72.4 14.7l6.5 -27.7c-36 -27 -87.6 -42 -129.6 -42c-46 0 -63.9 41.5 -55.4 89c5.39999 30.2 21.5 92.1 34.6 152l33.7 154h-102h-12h-85l-70.5 -318
c-20.2 -90.8 -62.3 -177 -100.7 -222c-41.8 -49 -94.4 -76 -151.1 -76c-17.1 0 -39.6 9 -45.8 14l-0.299995 3c13.5 19 29.4 50 40.9 77l10 1c6.1 -20 24.5 -38 50.6 -38c42.1 0 67.2 46 88.4 106c18.7 53 41.7 188.6 66.5 304l32 149h-70c-4 0 -4.8 1 -3.7 6l3.8 18
c1.7 8 9.3 20 27.3 20h52l10.5 40c20 76 41.1 104 87.5 153c46.4 49 107.2 76 170.2 76c19 0 42.1 -9 49 -14l0.399994 -3c-15 -19 -30.7 -50 -43.4 -77l-11.2 -1c-6.70001 20 -29.6 35 -58.6 35c-57.3 0 -93.2 -47.8 -104.9 -103c-3.80002 -18 -9.10001 -52.7 -16.4 -90
l-3.09998 -16h84h28h87z" />
    <glyph glyph-name="Q_u" unicode="Qu" horiz-adv-x="1199" 
d="M1045.6 64c-68.8 -60 -117.7 -74 -158.7 -74c-92.9 0 -105.3 69.1 -91.1 136l26.1 123c16.2 76 25.2 123 28.3 180l2.59998 3s13.4 -3 47.4 -3c35 0 49.6 3 49.6 3l0.400024 -3c-20.3 -53 -32.4 -105 -48.3 -180l-21 -99c-18.9 -89 0.0999756 -105 48.7 -105
c44.8 0 95.1 43.2 127.7 74l27.6 130c16.2 76 25.2 123 28.2999 180l2.6001 3s13.3999 -3 47.3999 -3c35 0 49.6001 3 49.6001 3l0.399902 -3c-20.2999 -53 -32.3999 -105 -48.2999 -180l-12.1 -57c-15.9 -75 -22.7001 -149 -23.8 -192l-2.59998 -3c-12.6 2 -31.3 3 -43.9 3
c-14.5 0 -21.4 -1.3 -35.1 -3c-6 0 -8.80005 1 -8.40002 3l8.59998 64h-2zM460.5 614c-47.7 0 -97.8 -19 -141.5 -64c-52.6 -54 -115.5 -185 -115.5 -319.3c0 -129.3 69.7 -196.7 167.7 -196.7c64 0 120 30.6 163.5 89c47.5 63.7 92.2 195.1 92.2 311.5
c0 122.1 -57.4 179.5 -166.4 179.5zM524.5 38.5c69.8 -58.4 224.5 -137.5 415.6 -162.5l-1.19995 -6c-40 -19 -84 -42 -106.2 -57c-174.2 51.5 -279.5 103.9 -394.1 189.5c-30.6 -8.2 -62.9 -12.5 -96.7 -12.5c-146.3 0 -243.3 88.9 -243.3 236.7
c0 151.8 74.8 272.7 163.5 347.1c62.9 52.8 139.4 84.2 220.8 84.2c152.1 0 245.7 -93.6 245.7 -242c0 -147.2 -77.5 -274 -149.5 -337.7c-17 -15 -35.2 -28.4 -54.6 -39.8z" />
    <glyph glyph-name="t_t" unicode="tt" horiz-adv-x="594" 
d="M470.2 429c12.3 58 16.8 79 18.7 121l2.60001 3c41.1 3 59.2 15 86.4 25c6.29999 0 8.39996 -2.70001 6.79999 -10c-16.8 -58 -18.6 -64.2 -34.5 -139h107c5 0 7.59998 -2 6.70001 -6l-5.30005 -25c-1.89996 -9 -16.8 -13 -26.8 -13h-91l-30.4 -143
c-12.8 -60 -24.2 -100 -30.6 -130c-8.69998 -41 -7.19998 -62 19.8 -62c26 0 42.5 2.4 72.4 17.7l6.5 -27.7c-46.3 -36 -84.6 -50 -126.6 -50c-46 0 -71.2 32 -61.2 79c6.39999 30 24.6 102 37.4 162l32.7 154h-121h-32h-59l-30.4 -143c-12.8 -60 -24.2 -100 -30.6 -130
c-8.7 -41 -7.2 -62 19.8 -62c26 0 42.5 2.4 72.4 17.7l6.5 -27.7c-46.3 -36 -84.6 -50 -126.6 -50c-46 0 -71.2 32 -61.2 79c6.4 30 24.6 102 37.4 162l32.7 154h-63c-3 0 -3.7 1 -3.10001 4l7.60001 36c0.599998 3 1.89999 4 3.89999 4h64c12.3 58 16.8 79 18.7 121
l2.60001 3c41.1 3 59.2 15 86.4 25c6.30002 0 8.39999 -2.70001 6.80002 -10c-16.8 -58 -18.6 -64.2 -34.5 -139h58h49h105z" />
    <glyph glyph-name="exclam" unicode="!" horiz-adv-x="228" 
d="M252.9 658c27 0 51 -23 40.4 -73c-13.8 -65 -38.7 -107 -67 -193c-36 -108 -49.7 -168 -54.7 -182c-3.3 -11 -8.20001 -20 -18.2 -20c-11 0 -11.6 7 -11.3 13c2.5 21 16.6 111 25.2 189c9.7 88 1.09999 123 16 193c11.5 54 47.6 73 69.6 73zM66.4 44l0.799995 4
c14.9 26.5 32.6 41.8 65.5 54h4c26.8 -10.5 39.3 -25.8 42.5 -54l-0.800003 -4c-17.1 -32.2 -35.8 -47 -65.5 -54h-4c-29.8 7 -40.9 20.5 -42.5 54z" />
    <glyph glyph-name="quotedbl" unicode="&#x22;" horiz-adv-x="336" 
d="M305.8 427c0 0 7.80002 159 9.70001 168c4.70001 22 31.6 50 61.6 50c26 0 31.4 -17 28 -33s-71.4 -181 -71.4 -181zM179.5 426c0 0 7.89999 159 9.8 168c4.7 22 31.6 50 61.6 50c26 0 31.4 -17 28 -33s-71.5 -181 -71.5 -181z" />
    <glyph glyph-name="numbersign" unicode="#" horiz-adv-x="440" 
d="M316.1 231l40.4 110h-110l-41.4 -110h111zM389.5 341l-41.4 -110h90l-17.2 -48h-89l-64.1 -170h-33l62.1 170h-109l-64.1 -170h-33l63.1 170h-90l17.2 48h91l40.4 110h-90l18.4 49h90l63.1 170h34l-64.1 -170h111l62.1 170h33l-63.1 -170h91l-18.4 -49h-90z" />
    <glyph glyph-name="dollar" unicode="$" horiz-adv-x="440" 
d="M204 28l48.7 229.4c-67.9 30.5 -135.4 73.2 -116 164.6c18.4 86.4 108.8 142.9 182.7 149.4l11.9 55.6h34l-11.8 -55.5c89.6 -4.5 113.8 -38.5 113.8 -38.5l1.40002 -3c-13.5 -26 -25.1 -52 -34.7 -83l-9.20001 -1c-10.6 45.5 -34.3 78.9 -79.2 88.3l-44.1 -207.1
c66.5 -26.1 143.9 -66.5 122.9 -165.2c-16.3 -76.7 -105.3 -149 -193.6 -167.5l-16 -75.5h-34l15.1 71.1c-2.39999 -0.1 -4.7 -0.1 -7 -0.1c-106 0 -148.5 40 -148.5 40l-1.4 3c12.5 26 25.5 54 36.1 85l8.2 1c13.5 -53.7 58.2 -90.6 120.7 -91zM270.4 340.7l41.7 196.2
c-54.1 -2.60004 -95.6 -40.8 -106.5 -91.9c-12 -56.3 29.7 -86.9 64.8 -104.3zM283.8 243.7l-45.1 -212.1c48.1 10.2 93 42.6 105.1 99.4c14.5 68.2 -18.5 93.3 -60 112.7z" />
    <glyph glyph-name="percent" unicode="%" horiz-adv-x="637" 
d="M449.6 83c-11.1 -52 12 -66 31 -66c55 0 110.4 91 122.3 147c11.1 52 -18.1 61 -32.1 61c-49 0 -108.9 -84 -121.2 -142zM400.8 98c15.9 75 91.6 158 165.6 158c40 0 82.2 -18 66.7 -91c-14.2 -67 -81.7 -177 -164.7 -177c-61 0 -78.9 57 -67.6 110zM474.7 521
c42 0 121.6 12 161.5 54l28.6 -16l-531.4 -571l-30.8 15l465.3 500c-41.2 -15 -81 -19 -111 -19c-23 0 -58.9 10 -75.6 21c0.5 -7 -0.399994 -16 -2.29999 -25c-13.6 -64 -81.6 -177 -165.6 -177c-62 0 -77.6 58 -66.8 109c16.4 77 92.8 159 164.8 159
c28 0 54.2 -13 61.7 -25c48.7 -25 83.6 -25 101.6 -25zM194.6 398c-11.1 -52 13 -66 31 -66c55 0 109.9 89 122.2 147c10.6 50 -14 61 -32 61c-49 0 -108.9 -84 -121.2 -142z" />
    <glyph glyph-name="parenleft" unicode="(" horiz-adv-x="300" 
d="M97.6 252c39.5 186 168 353 308.7 455l19.2 -18c-39.7 -36 -189 -174 -244.9 -437c-55.9 -263 33.8 -401 58.7 -439l-26.7 -17c-169.7 180 -124.6 411 -115 456z" />
    <glyph glyph-name="parenright" unicode=")" horiz-adv-x="300" 
d="M309.6 252c-39.5 -186 -168 -353 -308.7 -455l-19.2 18c39.7 36 189 174 244.9 437c55.9 263 -33.8 401 -58.7 439l26.6 17c169.7 -180 124.7 -411 115.1 -456z" />
    <glyph glyph-name="asterisk" unicode="*" horiz-adv-x="433" 
d="M318.5 567c-12.4 3 -26.1 4 -41.1 4c-49 0 -79.6 7 -73.2 37c3 14 15.4 30 39.4 30c34 0 45 -33 85.2 -51c4.30002 39 -9 66 -3.5 92c4.5 21 20.3 39 38.3 39s30.7 -11 25.6 -35c-5.70001 -27 -31.2 -67 -39.6 -97c50.3 20 73 52 106 52c27 0 29.7 -20 27.6 -30
c-6.40002 -30 -42.8 -37 -76.8 -37c-19 0 -37.3 -1 -55.9 -4c26.1 -37 73 -47 64.5 -87c-3.79999 -18 -21.1 -29 -35.1 -29c-39 0 -32.2 65 -48.9 104c-34.6 -45 -54.1 -104 -92.1 -104c-17 0 -26.3 13 -23.1 28c9.09999 43 61.8 51 102.7 88z" />
    <glyph glyph-name="plus" unicode="+" horiz-adv-x="527" 
d="M343.6 257h172l-10.4 -49h-172l-37 -174h-51l37 174h-172l10.4 49h172l37 174h51z" />
    <glyph glyph-name="slash" unicode="/" horiz-adv-x="323" 
d="M430.3 646l-386.8 -705h-41l386.8 705h41z" />
    <glyph glyph-name="one" unicode="1" horiz-adv-x="444" 
d="M348 189c-15 -79 -24 -129 -29 -189l-2 -3s-27 3 -46 3c-17 0 -44 -3 -44 -3l-1 3c18 57 30 111 45 189l48 248c7 36 14 76 -3 76c-19 0 -68 -11 -112 -16v29c80 24 160 63 226 84c4 0 7 0 6 -5c-5 -14 -18 -54 -39 -162z" />
    <glyph glyph-name="two" unicode="2" horiz-adv-x="444" 
d="M307.8 548c-26.9 0 -52.8 -4 -80.6 -27c-25.9 -22 -41.3 -42 -58.6 -72l-12.4 1l-11.6 69c25.9 30 90.2 91 177.6 91c97 0 147.9 -63.7 147.9 -137c0 -85 -44.2 -137 -91.1 -195c-56.7 -70.1 -124.5 -129 -182.1 -181c-8.5 -7.6 -20.7 -19 -20.7 -28.6
c0 -1.2 0.100006 -2.3 0.5 -3.4c26.6 2 44.6 2 78.3 2c92.2 0 122 3 176.7 8c-4.80002 -13 -6.70001 -26 -9.60001 -39s-2.89999 -28 -2.89999 -41c-68.2 3 -97 5 -166.1 5c-70.1 0 -111 -3 -182 -5c-2.9 6.7 -5 17.9 -5 29c0 8.4 1.2 16.7 4.1 23
c53.4 46.7 175.3 142 258.8 254c39.2 52.6 52.8 107 52.8 163.5c0 51.5 -41.1 83.5 -74 83.5z" />
    <glyph glyph-name="three" unicode="3" horiz-adv-x="444" 
d="M208 29c22.5 0 68.5 9.6 103.2 51c20.7 24.7 42.6 69.6 42.6 121.9c0 26.7 -7.29999 49.9 -22.8 66.1c-22 23 -56 32 -86 32c-8 0 -28 0 -40 -2l8 44c13 -2 23 -3 34 -3c55.8 0 94.4 28.7 114 70c9.79999 20.7 19.1 49.8 19.1 80.6c0 50.6 -29 81.4 -61.1 81.4
c-56 0 -92 -29 -124 -85l-14 1l-9 64l4 3c27 22 86 56 158 56c82.9 0 130 -46.1 130 -107.2c0 -47.5 -19.4 -84.5 -42.4 -112.8c-26.9 -33.1 -63.4 -56.1 -92.6 -63v-5c62.5 -6.20001 106.5 -50.4 106.5 -114.8c0 -70.6 -37.8 -122.6 -77.5 -156.1
c-49.6 -41.8 -112.8 -61.1 -159 -61.1c-75 0 -111 26 -132 48l-2 3l34 75l14 1c15 -58 21 -88 95 -88z" />
    <glyph glyph-name="four" unicode="4" horiz-adv-x="444" 
d="M303 148h-198c-35 0 -56 5 -53 20c2 10 7 21 20 39c67 89 249 309 324 393c0 1 4 4 4 4s17 -4 32 -4c14 0 29 4 38 4c1 0 1 -2 1 -4c-14 -46 -28 -115 -34 -148l-49 -254h61c10 0 13 -7 11 -16c-2 -11 -21 -34 -34 -34h-48c-11 -58 -16 -90 -23 -148c0 -1 -2 -3 -3 -3
c-9 0 -24 3 -39 3s-46 -3 -46 -3l-1 3c16 51 22 71 37 148zM374 512l-256 -314h195z" />
    <glyph glyph-name="five" unicode="5" horiz-adv-x="444" 
d="M191 -10c-73 0 -114 34 -134 56l-3 3l36 80l14 1c20 -60 25 -100 97 -100c65 0 120 57 138 149c4 20.5 5.79999 39.1 5.79999 55.6c0 71.2 -34.5 105.4 -84.8 105.4c-45 0 -84 -15 -125 -31l-6 3l88 294c32 -3 72 -6 108 -6c51 0 103 3 159 10l6 -3l-28 -68
c-40 -5 -73 -6 -102 -6c-45 0 -85 4 -120 9l-55 -177c23 8 69 15 108 15c92 0 138.2 -63.1 138.2 -141.7c0 -13.7 -1.40002 -27.9 -4.20001 -42.3c-23 -118 -122 -206 -236 -206z" />
    <glyph glyph-name="six" unicode="6" horiz-adv-x="444" 
d="M175 277c-3 -10 -6 -27 -8 -37c-6.8 -34.7 -9.8 -64.1 -9.8 -88.7c0 -101.7 50.8 -124.3 91.8 -124.3c46 0 93 36 114 146c2.70001 13.1 4.89999 29.6 4.89999 46.7c0 46.8 -16.8 98.3 -87.9 98.3c-21 0 -60 -1 -105 -41zM496 583c-68 -7 -125 -25 -183 -74
c-55 -47 -104 -118 -131 -203c29 30 88 52 126 52c120.5 0 144.2 -83.9 144.2 -141.8c0 -14.2 -1.40002 -26.8 -3.20001 -36.2c-14 -72 -77 -189 -217 -189c-62.9 0 -150.9 30.3 -150.9 168.1c0 24.4 2.7 52.3 8.9 83.9c19 97 71 192 155 265c79 69 154 97 254 103z" />
    <glyph glyph-name="seven" unicode="7" horiz-adv-x="444" 
d="M432 525c-62 2 -200 1 -272 -9c5 15 11 34 14 49s2 27 3 42c40 -6 125 -7 268 -7c30 0 48 5 63 10l14 -10c-161 -273 -245 -439 -333 -609l-71 -4l-2 6c93 150 204 339 316 532z" />
    <glyph glyph-name="nine" unicode="9" horiz-adv-x="444" 
d="M402 323c3 10 6 27 8 37c6.79999 34.7 9.79999 64.1 9.79999 88.7c0 101.7 -50.8 124.3 -91.8 124.3c-46 0 -93 -36 -114 -146c-2.7 -13.1 -4.89999 -29.6 -4.89999 -46.7c0 -46.8 16.8 -98.3 87.9 -98.3c21 0 60 1 105 41zM81 17c68 7 125 25 183 74
c55 47 104 118 131 203c-29 -30 -88 -52 -126 -52c-120.5 0 -144.2 83.9 -144.2 141.8c0 14.2 1.39999 26.8 3.2 36.2c14 72 77 189 217 189c62.9 0 150.9 -30.3 150.9 -168.1c0 -24.4 -2.69998 -52.3 -8.89999 -83.9c-19 -97 -71 -192 -155 -265
c-79 -69 -154 -97 -254 -103z" />
    <glyph glyph-name="colon" unicode=":" horiz-adv-x="220" 
d="M136.7 356l0.800003 4c14.9 26.5 32.6 41.8 65.5 54h4c26.8 -10.5 39.4 -25.8 42.6 -54l-0.900009 -4c-17.1 -32.2 -35.8 -47 -65.5 -54h-4c-29.8 7 -40.9 20.5 -42.5 54zM80.8 93l0.799995 4c14.9 26.5 32.6 41.8 65.5 54h4c26.8 -10.5 39.3 -25.8 42.5 -54
l-0.800003 -4c-17.1 -32.2 -35.8 -47 -65.5 -54h-4c-29.8 7 -40.9 20.5 -42.5 54z" />
    <glyph glyph-name="less" unicode="&#x3c;" horiz-adv-x="487" 
d="M172.8 239l292.3 -116l-10.6 -50l-359.8 142l10.2 48l420 141l-10.7 -50z" />
    <glyph glyph-name="equal" unicode="=" horiz-adv-x="527" 
d="M528.6 318l-10.4 -49h-395l10.4 49h395zM502 193l-10.4 -49h-395l10.4 49h395z" />
    <glyph glyph-name="greater" unicode="&#x3e;" horiz-adv-x="487" 
d="M416.2 236l-292.4 116l10.6 50l359.9 -142l-10.2 -48l-420 -141l10.6 50z" />
    <glyph glyph-name="question" unicode="?" horiz-adv-x="405" 
d="M326.6 619c-56 0 -107.4 -49 -143 -94l-12.8 1l-1.8 67l3.89999 4c28.9 20.5 98.7 62 171.2 62c102 0 152.2 -60 132.9 -151c-16.8 -79 -85.2 -123 -139.4 -157c-26.6 -17 -50 -33 -62.6 -50c-18.3 -25 -28.4 -49 -33.5 -73l-9.39999 -44c-1.5 -7 -7.10001 -10 -15.1 -10
s-12.4 3 -10.9 10l9.79999 46c9.10001 43 23.7 102 101.2 161c47.9 37 74 66 84 113c13.8 65 -17.5 115 -74.5 115zM133.4 44l0.800003 4c14.9 26.5 32.6 41.8 65.5 54h4c26.8 -10.5 39.3 -25.8 42.5 -54l-0.800003 -4c-17.1 -32.2 -35.8 -47 -65.5 -54h-4
c-29.8 7 -40.9 20.5 -42.5 54z" />
    <glyph glyph-name="at" unicode="@" horiz-adv-x="895" 
d="M636.2 316c8.09998 38 -15.6 63 -51.6 63c-17 0 -61.9 -9 -98.5 -40c-61.8 -51 -92.5 -115 -105.7 -177c-10.2 -48 -4.5 -92 58.5 -92c35 0 96.1 57 142.6 130c19.6 31 47.5 82 54.7 116zM598.7 74c-2.10004 -10 6.5 -12 8.5 -12c102 0 176 47 211.3 213
c43.8 206 -111 306 -236 306c-152 0 -341.9 -103 -392.3 -340c-31.9 -150 -1.8 -366 256.2 -366c85 0 152 23 215.1 66l9.09998 -18c-69.8 -46 -137.2 -81 -250.2 -81c-239 0 -359.3 168 -314 381c45.7 215 267.5 388 492.5 388c215 0 339.7 -142 300 -329
c-24.2 -114 -124.2 -255 -342.2 -255c-29 0 -30.6 25 -27.2 41c3.20001 15 15 38 28.3 63l-1.70001 1c-59.7 -74 -119.9 -103 -154.9 -103c-100 0 -104.2 84 -95.7 124c30.4 143 181.6 257 287.6 257c33 0 63.4 -17 67.9 -43l10.1 24l55.8 13l13.9 -5l-114.8 -258
c-11.7 -27 -25.9 -60.5 -27.3 -67z" />
    <glyph glyph-name="A" unicode="A" horiz-adv-x="633" 
d="M229.5 228.3c-54.3 -87.5 -102.7 -170 -132.1 -231.3c-11.4 3 -33.4 3 -44.4 3s-23 0 -35.6 -3c148 221 292.3 439 435.5 661h28c45.5 -219 105 -560 133.5 -661c-16.4 3 -42.4 3 -59.4 3s-33 0 -50.6 -3c-1.39999 22.2 -7.39999 100.2 -28.6 231.3
c-37.5 0.899994 -78.9 1.7 -116.9 1.7c-34.5 0 -91.2 -0.800003 -129.4 -1.7zM467.9 275.5c-12 69.7 -28 151.9 -49 246.3h-2c-48 -74.6 -104.3 -161.3 -157.6 -245.9c31.7 -0.399994 75 -1.89999 103.9 -1.89999c29.7 0 71.7 0.700012 104.7 1.5z" />
    <glyph glyph-name="B" unicode="B" horiz-adv-x="592" 
d="M307.8 559l-39.9 -188h72c83 0 138.1 31 150.3 110c16 103 -38.8 123 -94.8 123c-81 0 -80.5 -11.7 -87.6 -45zM258.5 327l-50.8 -239c-7 -33 14 -47 84 -47c140.3 0 168.3 52 178.4 124c12.7 91.1 -7.60001 162 -124.6 162h-87zM283.1 645c44.7 0 79.6 3 114.6 3
c186 0 190.4 -87 182.1 -155c-7.79999 -64 -71.8 -114 -131.3 -133l2.5 -5c82 -24.9 134 -76.1 122.1 -171c-12.1 -97 -80.9 -187 -271.7 -187c-89 0 -94.8 3 -155.4 3c-35 0 -52.6 -3 -52.6 -3l-0.400002 3c19.5 54 36.6 125 52.5 200l52.1 245c15.9 75 28.4 143 32.5 200
l2.59999 3s16.4 -3 50.4 -3z" />
    <glyph glyph-name="C" unicode="C" horiz-adv-x="650" 
d="M494.9 658c122 0 198.4 -45 198.4 -45l1.40002 -3c-22.2 -49.3 -29.2 -60 -43.6 -111l-12.2 -1c-23.6 82 -78 113 -168 113c-82 0 -216.8 -74 -259.9 -277c-31 -146 2.7 -293 157.7 -293c93 0 145.5 21 233.1 99l21.8 -19c-86.9 -89 -177.7 -131 -274.7 -131
c-215 0 -279.1 168 -244.9 329c41.9 197 221.9 339 390.9 339z" />
    <glyph glyph-name="D" unicode="D" horiz-adv-x="682" 
d="M204.4 82c-6.79999 -32 -3.5 -40 94.5 -40c141 0 254.6 40 297.5 242c32.7 154 13 320 -203 320c-49 0 -79.1 -5 -86.5 -40zM281.1 645c62.3 0 97.3 3 159.6 3c192 0 303.3 -154 263.8 -340c-52.3 -246 -242.9 -310 -383.9 -310c-103 0 -107.7 2 -176.6 2
c-35 0 -52.6 -3 -52.6 -3l-0.400002 3c19.5 54 36.6 125 52.5 200l52.1 245c15.9 75 28.4 143 32.5 200l2.59999 3s16.4 -3 50.4 -3z" />
    <glyph glyph-name="E" unicode="E" horiz-adv-x="522" 
d="M224.5 200c-3.60001 -17 -24.9 -122 -23 -146c134 0 284.5 12 284.5 12l1.20001 -4c-2.70001 -8 -6.90002 -23 -9 -33c-2.10001 -10 -2.20001 -15 -4.20001 -29l-2.60001 -3c-15.6 2 -38.4 3 -59.4 3h-273c-35 0 -52.6 -3 -52.6 -3l-0.400002 3
c19.5 54 36.6 125 52.5 200l52.1 245c15.9 75 28.4 143 32.5 200l2.59999 3s16.4 -3 50.4 -3h263c21 0 44.2 1 60.6 3l1.39996 -3c-4 -14 -6.89996 -23 -8.59998 -31c-1.90002 -9 -2.79999 -18 -3.5 -26l-2.90002 -4s-135.4 12 -269.4 12c-12.1 -24 -36.5 -134 -40.1 -151
l-17.4 -82c118 0 165 5 225.1 10l2.30002 -3c-3.89999 -9 -7 -19 -8.89999 -28c-1.90002 -9 -3.10001 -19 -3 -28l-3.60001 -3c-67.5 7 -172.9 10 -220.9 10z" />
    <glyph glyph-name="F" unicode="F" horiz-adv-x="477" 
d="M538.1 645c24 0 47.2 1 63.6 3l1.39996 -3c-4 -14 -6.89996 -23 -8.59998 -31c-1.90002 -9 -2.79999 -18 -3.5 -26l-2.90002 -4s-135.4 12 -269.4 12c-12.1 -24 -36.5 -134 -40.1 -151l-17.4 -82c118 0 165 5 225.1 10l2.30002 -3c-3.89999 -9 -7 -19 -8.89999 -28
c-1.90002 -9 -3.10001 -19 -3 -28l-3.60001 -3c-67.5 7 -172.9 10 -220.9 10l-25.7 -121c-15.9 -75 -28.4 -143 -32.5 -200l-2.60001 -3s-16.4 3 -50.4 3c-35 0 -52.6 -3 -52.6 -3l-0.400002 3c19.5 54 36.6 125 52.5 200l52.1 245c15.9 75 28.4 143 32.5 200l2.59999 3
s16.4 -3 50.4 -3h260z" />
    <glyph glyph-name="G" unicode="G" horiz-adv-x="681" 
d="M550.9 117c14.5 75 26.3 133 30.4 190l2.60004 3s16.4 -3 50.4 -3c35 0 52.6 3 52.6 3l0.399963 -3c-19.3 -53 -30.3 -95 -46.2 -170l-1.29999 -6c-2.29999 -11 -6.59998 -37.3 -0.200012 -48l-0.599976 -3c-79.5 -56.6 -158.6 -90 -275.1 -90
c-201 0 -293.4 154 -256.6 327c46.8 220 212.7 341 403.6 341c122 0 198.4 -45 198.4 -45l1.40002 -3c-22.2 -49.3 -29.2 -60 -43.6 -111l-10.2 -1c-23.6 82 -70 113 -160 113c-135 0 -245.2 -99 -282.4 -274c-28.1 -132 4.2 -301 182.2 -301c54 0 104.2 6 145 38z" />
    <glyph glyph-name="grave" unicode="`" horiz-adv-x="392" 
d="M326.6 699l43.2 -126c2.90002 -10 2.40002 -17 0.900024 -24c-1.10001 -5 -9.30002 -11 -17.3 -11c-6 0 -12 5 -24.8 20l-90.8 109l4.3 11c9.29999 6 35.9 23 69.9 23c5 0 10.8 -1 14.6 -2z" />
    <glyph glyph-name="ograve" unicode="&#xf2;" horiz-adv-x="490" 
d="M362.5 671l43.2 -126c2.89999 -10 2.39999 -17 0.899994 -24c-1.10001 -5 -9.30002 -11 -17.3 -11c-6 0 -12 5 -24.8 20l-90.8 109l4.29999 11c9.29999 6 35.9 23 69.9 23c5 0 10.8 -1 14.6 -2zM146 346.3c45.7 52.7 114.5 92.7 194.3 92.7
c123.1 0 165.7 -79.4 165.7 -164.8c0 -90.2 -47.2 -187.4 -121 -241.2c-39.5 -28.8 -87.5 -43 -142.1 -43c-112.9 0 -168.6 75.6 -168.6 165.7c0 81.1 32.7 145.7 71.7 190.6zM326.6 398c-75.6 0 -133.6 -83 -152.1 -170c-4.39999 -20.6 -7.39999 -44.2 -7.39999 -67.8
c0 -64.7 17.3 -129.2 93.5 -129.2c28.1 0 66.6 12.5 98 52c30.5 38.4 58 93 58 199.5c0 74.8 -28.3 115.5 -90 115.5z" />
    <glyph glyph-name="oacute" unicode="&#xf3;" horiz-adv-x="490" 
d="M388.5 666c3.20001 1 9.39999 2 14.4 2c6.39999 0 31.8 -1 50.1 -23l0.700012 -11l-138.2 -109c-18.2 -15 -27 -19 -34 -19s-12.8 6 -11.3 13c2.39999 11.2 6.5 15.2 17.4 28zM146 346.3c45.7 52.7 114.5 92.7 194.3 92.7c123.1 0 165.7 -79.4 165.7 -164.8
c0 -90.2 -47.2 -187.4 -121 -241.2c-39.5 -28.8 -87.5 -43 -142.1 -43c-112.9 0 -168.6 75.6 -168.6 165.7c0 81.1 32.7 145.7 71.7 190.6zM326.6 398c-75.6 0 -133.6 -83 -152.1 -170c-4.39999 -20.6 -7.3 -44.2 -7.3 -67.8c0 -64.7 17.2 -129.2 93.4 -129.2
c28.1 0 66.6 12.5 98 52c30.5 38.4 58 93 58 199.5c0 74.8 -28.3 115.5 -90 115.5z" />
    <glyph glyph-name="ocircumflex" unicode="&#xf4;" horiz-adv-x="490" 
d="M398 653c19 -47 46.1 -89 73.6 -129l-24 -14c-32.8 29 -60.6 54 -86.9 90c-45.1 -38 -82.4 -63 -126.1 -90l-17 14c44.5 40 91.6 83 130.4 129h50zM146 346.3c45.7 52.7 114.5 92.7 194.3 92.7c123.1 0 165.7 -79.4 165.7 -164.8c0 -90.2 -47.2 -187.4 -121 -241.2
c-39.5 -28.8 -87.5 -43 -142.1 -43c-112.9 0 -168.6 75.6 -168.6 165.7c0 81.1 32.7 145.7 71.7 190.6zM326.6 398c-75.6 0 -133.6 -83 -152.1 -170c-4.39999 -20.6 -7.3 -44.2 -7.3 -67.8c0 -64.7 17.2 -129.2 93.4 -129.2c28.1 0 66.6 12.5 98 52
c30.5 38.4 58 93 58 199.5c0 74.8 -28.3 115.5 -90 115.5z" />
    <glyph glyph-name="otilde" unicode="&#xf5;" horiz-adv-x="490" 
d="M416.4 570c22 0 38.1 10 61 52l22.8 -6c-24.8 -60 -60.2 -90 -106.2 -90c-22 0 -40.5 12 -58.5 26c-15.7 11 -32.3 22 -49.3 22c-26 0 -42.2 -15 -59.2 -48l-22.9 5c26.5 59 55.9 89 98.9 89c30 0 49 -14 66 -28c13.4 -12 28.4 -22 47.4 -22zM146 346.3
c45.7 52.7 114.5 92.7 194.3 92.7c123.1 0 165.7 -79.4 165.7 -164.8c0 -90.2 -47.2 -187.4 -121 -241.2c-39.5 -28.8 -87.5 -43 -142.1 -43c-112.9 0 -168.6 75.6 -168.6 165.7c0 81.1 32.7 145.7 71.7 190.6zM326.6 398c-75.6 0 -133.6 -83 -152.1 -170
c-4.39999 -20.6 -7.3 -44.2 -7.3 -67.8c0 -64.7 17.2 -129.2 93.4 -129.2c28.1 0 66.6 12.5 98 52c30.5 38.4 58 93 58 199.5c0 74.8 -28.3 115.5 -90 115.5z" />
    <glyph glyph-name="odieresis" unicode="&#xf6;" horiz-adv-x="490" 
d="M146 346.3c45.7 52.7 114.5 92.7 194.3 92.7c123.1 0 165.7 -79.4 165.7 -164.8c0 -90.2 -47.2 -187.4 -121 -241.2c-39.5 -28.8 -87.5 -43 -142.1 -43c-112.9 0 -168.6 75.6 -168.6 165.7c0 81.1 32.7 145.7 71.7 190.6zM326.6 398c-75.6 0 -133.6 -83 -152.1 -170
c-4.39999 -20.6 -7.3 -44.2 -7.3 -67.8c0 -64.7 17.2 -129.2 93.4 -129.2c28.1 0 66.6 12.5 98 52c30.5 38.4 58 93 58 199.5c0 74.8 -28.3 115.5 -90 115.5zM231.2 575c5.3 25 30.8 46 55.8 46s41.5 -21 36.2 -46c-5.30002 -25 -30.8 -46 -55.8 -46s-41.5 21 -36.2 46z
M399.2 580c5.29999 25 30.8 46 55.8 46s41.5 -21 36.2 -46c-5.30002 -25 -30.8 -46 -55.8 -46s-41.5 21 -36.2 46z" />
    <glyph glyph-name="divide" unicode="&#xf7;" horiz-adv-x="527" 
d="M296.2 366.9l0.799988 3.30002c12.5 22.2 27.3 35 54.8 45.3h3.40002c22.4 -8.79999 32.9 -21.6 35.6 -45.3l-0.699982 -3.30002c-14.3 -27 -30 -39.4 -54.9 -45.3h-3.30002c-24.9 5.89999 -34.3 17.2 -35.7 45.3zM239.3 98.9l0.699997 3.3c12.5 22.2 27.4 35 54.9 45.3
h3.30002c22.4 -8.8 33 -21.6 35.7 -45.3l-0.799988 -3.3c-14.3 -27 -29.9 -39.4 -54.8 -45.3h-3.39999c-24.9 5.9 -34.2 17.2 -35.6 45.3zM515.6 257l-10.4 -49h-395l10.4 49h395z" />
    <glyph glyph-name="ugrave" unicode="&#xf9;" horiz-adv-x="514" 
d="M369.5 671l43.2 -126c2.89999 -10 2.39999 -17 0.899994 -24c-1.10001 -5 -9.30002 -11 -17.3 -11c-6 0 -12 5 -24.8 20l-90.8 109l4.29999 11c9.29999 6 35.9 23 69.9 23c5 0 10.8 -1 14.6 -2zM360.6 64c-68.8 -60 -117.7 -74 -158.7 -74c-92.9 0 -105.3 69.1 -91.1 136
l26.1 123c16.2 76 25.2 123 28.3 180l2.60001 3s13.4 -3 47.4 -3c35 0 49.6 3 49.6 3l0.400024 -3c-20.3 -53 -32.4 -105 -48.3 -180l-21 -99c-18.9 -89 0.100006 -105 48.7 -105c44.8 0 95.1 43.2 127.7 74l27.6 130c16.2 76 25.2 123 28.3 180l2.59998 3s13.4 -3 47.4 -3
c35 0 49.6 3 49.6 3l0.400024 -3c-20.3 -53 -32.4 -105 -48.3 -180l-12.1 -57c-15.9 -75 -22.7 -149 -23.8 -192l-2.60001 -3c-12.6 2 -31.3 3 -43.9 3c-14.5 0 -21.4 -1.3 -35.1 -3c-6 0 -8.79999 1 -8.39999 3l8.60001 64h-2z" />
    <glyph glyph-name="uacute" unicode="&#xfa;" horiz-adv-x="514" 
d="M431.5 666c3.20001 1 9.39999 2 14.4 2c6.39999 0 31.8 -1 50.1 -23l0.700012 -11l-138.2 -109c-18.2 -15 -27 -19 -34 -19s-12.8 6 -11.3 13c2.39999 11.2 6.5 15.2 17.4 28zM360.6 64c-68.8 -60 -117.7 -74 -158.7 -74c-92.9 0 -105.3 69.1 -91.1 136l26.1 123
c16.2 76 25.2 123 28.3 180l2.60001 3s13.4 -3 47.4 -3c35 0 49.6 3 49.6 3l0.400024 -3c-20.3 -53 -32.4 -105 -48.3 -180l-21 -99c-18.9 -89 0.100006 -105 48.7 -105c44.8 0 95.1 43.2 127.7 74l27.6 130c16.2 76 25.2 123 28.3 180l2.59998 3s13.4 -3 47.4 -3
c35 0 49.6 3 49.6 3l0.400024 -3c-20.3 -53 -32.4 -105 -48.3 -180l-12.1 -57c-15.9 -75 -22.7 -149 -23.8 -192l-2.60001 -3c-12.6 2 -31.3 3 -43.9 3c-14.5 0 -21.4 -1.3 -35.1 -3c-6 0 -8.79999 1 -8.39999 3l8.60001 64h-2z" />
    <glyph glyph-name="ucircumflex" unicode="&#xfb;" horiz-adv-x="514" 
d="M416 653c19 -47 46.1 -89 73.6 -129l-24 -14c-32.8 29 -60.6 54 -86.9 90c-45.1 -38 -82.4 -63 -126.1 -90l-17 14c44.5 40 91.6 83 130.4 129h50zM360.6 64c-68.8 -60 -117.7 -74 -158.7 -74c-92.9 0 -105.3 69.1 -91.1 136l26.1 123c16.2 76 25.2 123 28.3 180
l2.60001 3s13.4 -3 47.4 -3c35 0 49.6 3 49.6 3l0.400024 -3c-20.3 -53 -32.4 -105 -48.3 -180l-21 -99c-18.9 -89 0.100006 -105 48.7 -105c44.8 0 95.1 43.2 127.7 74l27.6 130c16.2 76 25.2 123 28.3 180l2.59998 3s13.4 -3 47.4 -3c35 0 49.6 3 49.6 3l0.400024 -3
c-20.3 -53 -32.4 -105 -48.3 -180l-12.1 -57c-15.9 -75 -22.7 -149 -23.8 -192l-2.60001 -3c-12.6 2 -31.3 3 -43.9 3c-14.5 0 -21.4 -1.3 -35.1 -3c-6 0 -8.79999 1 -8.39999 3l8.60001 64h-2z" />
    <glyph glyph-name="ebreve" unicode="&#x115;" horiz-adv-x="427" 
d="M251.7 648c-0.300003 -53 34.9 -90 88.9 -90c52 0 104.8 32 127.1 90l24.4 -12c-30.3 -86 -104.7 -135 -163.7 -135c-70 0 -110.4 50 -106.3 135zM369 363.6c0 26.8 -15.4 39.4 -49.5 39.4c-47.4 0 -111.5 -26 -146.1 -161c116.6 5 195.6 36.9 195.6 121.6zM168.3 207.5
c-0.699997 -7.39999 -2.8 -32.4 -2.8 -41.6c0 -88.8 39 -127.9 83.5 -127.9c47.9 0 117 46 145.4 96l6.10001 -1c2.5 -13 4.5 -40 9.89999 -50.8c-39.4 -55.2 -114.2 -92.2 -198.3 -92.2s-135.1 70.9 -135.1 152.8c0 126.4 88.9 296.2 265.5 296.2
c74 0 101.5 -33.6 101.5 -76.6c0 -38.4 -18 -144.4 -275.7 -154.9z" />
    <glyph glyph-name="Edotaccent" unicode="&#x116;" horiz-adv-x="522" 
d="M386.3 740c5.70001 27 34.8 51 61.8 51s45.9 -24 40.2 -51c-5.69998 -27 -34.8 -51 -61.8 -51s-45.9 24 -40.2 51zM224.5 200c-3.60001 -17 -24.9 -122 -23 -146c134 0 284.5 12 284.5 12l1.20001 -4c-2.70001 -8 -6.90002 -23 -9 -33
c-2.10001 -10 -2.20001 -15 -4.20001 -29l-2.60001 -3c-15.6 2 -38.4 3 -59.4 3h-273c-35 0 -52.6 -3 -52.6 -3l-0.400002 3c19.5 54 36.6 125 52.5 200l52.1 245c15.9 75 28.4 143 32.5 200l2.59999 3s16.4 -3 50.4 -3h263c21 0 44.2 1 60.6 3l1.39996 -3
c-4 -14 -6.89996 -23 -8.59998 -31c-1.90002 -9 -2.79999 -18 -3.5 -26l-2.90002 -4s-135.4 12 -269.4 12c-12.1 -24 -36.5 -134 -40.1 -151l-17.4 -82c118 0 165 5 225.1 10l2.30002 -3c-3.89999 -9 -7 -19 -8.89999 -28c-1.90002 -9 -3.10001 -19 -3 -28l-3.60001 -3
c-67.5 7 -172.9 10 -220.9 10z" />
    <glyph glyph-name="edotaccent" unicode="&#x117;" horiz-adv-x="427" 
d="M272 531c0 27 24 51 51 51s51 -24 51 -51s-24 -51 -51 -51s-51 24 -51 51zM369 363.6c0 26.8 -15.4 39.4 -49.5 39.4c-47.4 0 -111.5 -26 -146.1 -161c116.6 5 195.6 36.9 195.6 121.6zM168.3 207.5c-0.699997 -7.39999 -2.8 -32.4 -2.8 -41.6
c0 -88.8 39 -127.9 83.5 -127.9c47.9 0 117 46 145.4 96l6.10001 -1c2.5 -13 4.5 -40 9.89999 -50.8c-39.4 -55.2 -114.2 -92.2 -198.3 -92.2s-135.1 70.9 -135.1 152.8c0 126.4 88.9 296.2 265.5 296.2c74 0 101.5 -33.6 101.5 -76.6c0 -38.4 -18 -144.4 -275.7 -154.9z
" />
    <glyph glyph-name="Eogonek" unicode="&#x118;" horiz-adv-x="522" 
d="M296.4 -224c-53 0 -86.4 31 -74.9 85c10.1 47.5 62.4 105.6 129.7 139h-212.2c-35 0 -52.6 -3 -52.6 -3l-0.400002 3c19.5 54 36.6 125 52.5 200l52.1 245c15.9 75 28.4 143 32.5 200l2.59999 3s16.4 -3 50.4 -3h263c21 0 44.2 1 60.6 3l1.39996 -3
c-4 -14 -6.89996 -23 -8.59998 -31c-1.90002 -9 -2.79999 -18 -3.5 -26l-2.90002 -4s-135.4 12 -269.4 12c-12.1 -24 -36.5 -134 -40.1 -151l-17.4 -82c118 0 165 5 225.1 10l2.30002 -3c-3.89999 -9 -7 -19 -8.89999 -28c-1.90002 -9 -3.10001 -19 -3 -28l-3.60001 -3
c-67.5 7 -172.9 10 -220.9 10l-25.7 -121c-3.60001 -17 -24.9 -122 -23 -146c134 0 284.5 12 284.5 12l1.20001 -4c-2.70001 -8 -6.90002 -23 -9 -33c-2.10001 -10 -2.20001 -15 -4.20001 -29l-2.60001 -3c-9.79999 1.3 -22.4 2.1 -35.7 2.6
c-75.7 -6 -141.1 -76.8 -151.5 -125.6c-6.80002 -32 9.5 -59 45.5 -59c30 0 53.1 15 77.6 36l13.3 -8c-34 -47 -88.2 -67 -124.2 -67z" />
    <glyph glyph-name="eogonek" unicode="&#x119;" horiz-adv-x="437" 
d="M164 211c76 7 234 49 234 160c0 29 -25 40 -60 40c-49 0 -140 -48 -174 -200zM468 370c0 -38 -35 -151 -309 -185c-1 -8 -1 -15 -1 -20c0 -91 54 -129 99 -129c48 0 92 28 145 86l22 -16c-25 -35 -52 -62 -82 -82c-40 -31 -110 -93 -110 -149c0 -23 19 -45 52 -45
c30 0 49 14 74 36l14 -7c-37 -45 -77 -67 -118 -67c-48 0 -83 22 -83 66c0 49 41 96 84 132c-11 -1 -22 -2 -34 -2c-102 0 -146 69 -146 154c0 127 114 300 285 300c81 0 108 -37 108 -72z" />
    <glyph glyph-name="Ecaron" unicode="&#x11a;" horiz-adv-x="522" 
d="M416.2 697c-22.1 37 -50.9 67 -80.9 95l20.3 20c35.4 -17 65.3 -36 93 -61c42.5 26 78.6 45 120 61l10.7 -20c-44.2 -29 -82.9 -61 -120.1 -95h-43zM224.5 200c-3.60001 -17 -24.9 -122 -23 -146c134 0 284.5 12 284.5 12l1.20001 -4c-2.70001 -8 -6.90002 -23 -9 -33
c-2.10001 -10 -2.20001 -15 -4.20001 -29l-2.60001 -3c-15.6 2 -38.4 3 -59.4 3h-273c-35 0 -52.6 -3 -52.6 -3l-0.400002 3c19.5 54 36.6 125 52.5 200l52.1 245c15.9 75 28.4 143 32.5 200l2.59999 3s16.4 -3 50.4 -3h263c21 0 44.2 1 60.6 3l1.39996 -3
c-4 -14 -6.89996 -23 -8.59998 -31c-1.90002 -9 -2.79999 -18 -3.5 -26l-2.90002 -4s-135.4 12 -269.4 12c-12.1 -24 -36.5 -134 -40.1 -151l-17.4 -82c118 0 165 5 225.1 10l2.30002 -3c-3.89999 -9 -7 -19 -8.89999 -28c-1.90002 -9 -3.10001 -19 -3 -28l-3.60001 -3
c-67.5 7 -172.9 10 -220.9 10z" />
    <glyph glyph-name="ecaron" unicode="&#x11b;" horiz-adv-x="427" 
d="M292.1 501c-19 47 -46.5 92 -73.4 130l22.8 13c32.8 -29 60.6 -54 86.9 -90c45.1 38 84.4 63 127.1 90l16.2 -13c-43.3 -39 -90.8 -84 -129.6 -130h-50zM369 363.6c0 26.8 -15.4 39.4 -49.5 39.4c-47.4 0 -111.5 -26 -146.1 -161c116.6 5 195.6 36.9 195.6 121.6z
M168.3 207.5c-0.699997 -7.39999 -2.8 -32.4 -2.8 -41.6c0 -88.8 39 -127.9 83.5 -127.9c47.9 0 117 46 145.4 96l6.10001 -1c2.5 -13 4.5 -40 9.89999 -50.8c-39.4 -55.2 -114.2 -92.2 -198.3 -92.2s-135.1 70.9 -135.1 152.8c0 126.4 88.9 296.2 265.5 296.2
c74 0 101.5 -33.6 101.5 -76.6c0 -38.4 -18 -144.4 -275.7 -154.9z" />
    <glyph glyph-name="Gcircumflex" unicode="&#x11c;" horiz-adv-x="699" 
d="M556.1 805c22.3 -36 50.7 -67 81 -94l-20.4 -21c-35.2 18 -65.2 37 -92.9 62c-42.7 -27 -78.5 -45 -120.1 -62l-9.60001 21c43 28 80.8 60 119 94h43zM570.9 117c14.5 75 26.3 133 30.4 190l2.60004 3s16.4 -3 50.4 -3c35 0 52.6 3 52.6 3l0.399963 -3
c-19.3 -53 -30.3 -95 -46.2 -170l-1.29999 -6c-2.29999 -11 -6.59998 -37.3 -0.200012 -48l-0.599976 -3c-79.5 -56.6 -168.6 -90 -285.1 -90c-201 0 -313.4 144 -276.6 317c46.8 220 251.6 351 423.6 351c122 0 208.4 -45 208.4 -45l1.40002 -3
c-22.2 -49.3 -29.2 -60 -43.6 -111l-10.2 -1c-23.6 82 -90 113 -180 113c-135 0 -255.2 -109 -292.4 -284c-28.1 -132 24.2 -291 202.2 -291c54 0 114.2 6 155 38z" />
    <glyph glyph-name="gcircumflex" unicode="&#x11d;" horiz-adv-x="458" 
d="M367 685c19 -47 46.1 -89 73.6 -129l-24 -14c-32.8 29 -60.6 54 -86.9 90c-45.1 -38 -82.4 -63 -126.1 -90l-17 14c44.5 40 91.6 83 130.4 129h50zM149 -5c-18 -13 -35 -23 -46 -37c-18 -22 -29 -49 -29 -79c0 -55 72 -74 103 -74c47.3 0 132 3 174 29
c16 9.89999 24 23 24 45c0 16 -8 45 -33 62c-39 26 -105 42 -174 53c-6 1 -13 0 -19 1zM276 138c-29 0 -69.5 9 -84 23c-20 -15 -48 -41 -48 -62c0 -23 25 -36 63 -45c71 -16 152 -30 192 -58c35 -24 42 -67 42 -91c0 -52 -30 -87 -66 -107c-56 -31 -170 -36 -221 -36
c-77 0 -153 31.5 -153 88c0 43 12 74 39 105c18 21 43 36 70 51c-18 11 -31 37 -31 64c0 47 42 85 86 107c-25 22 -44 63 -44 107c0 97 85 155 175 155c30 0 66 -8 84 -8c35 0 65 14 65 49c0 9 -3 17 -11 26l1 4c17.4 4.5 35.4 12.2 48 23l4 -1c12 -18 16 -37 16 -58
c0 -36 -27 -67 -71 -67c-8 0 -17.2 0.299988 -21 1l-3 -2c24 -24 45 -64 45 -102c0 -109 -88 -166 -177 -166zM375 298c0 61 -32 102 -86 102c-60 0 -90 -55 -90 -112c0 -55 28 -111 86 -111c42 0 90 41 90 121z" />
    <glyph glyph-name="Gbreve" unicode="&#x11e;" horiz-adv-x="699" 
d="M679.3 806c-21.1 -71 -94 -113 -160 -113c-73 0 -121.9 43 -112 113h28c-0.299988 -39 42.1 -61 95.1 -61c49 0 105.6 22 120.9 61h28zM570.9 117c14.5 75 26.3 133 30.4 190l2.60004 3s16.4 -3 50.4 -3c35 0 52.6 3 52.6 3l0.399963 -3c-19.3 -53 -30.3 -95 -46.2 -170
l-1.29999 -6c-2.29999 -11 -6.59998 -37.3 -0.200012 -48l-0.599976 -3c-79.5 -56.6 -168.6 -90 -285.1 -90c-201 0 -313.4 144 -276.6 317c46.8 220 251.6 351 423.6 351c122 0 208.4 -45 208.4 -45l1.40002 -3c-22.2 -49.3 -29.2 -60 -43.6 -111l-10.2 -1
c-23.6 82 -90 113 -180 113c-135 0 -255.2 -109 -292.4 -284c-28.1 -132 24.2 -291 202.2 -291c54 0 114.2 6 155 38z" />
    <glyph glyph-name="gbreve" unicode="&#x11f;" horiz-adv-x="458" 
d="M231.7 644c-0.300003 -53 34.9 -90 88.9 -90c52 0 104.8 32 127.1 90l24.4 -12c-30.3 -86 -104.7 -135 -163.7 -135c-70 0 -110.4 50 -106.3 135zM149 -5c-18 -13 -35 -23 -46 -37c-18 -22 -29 -49 -29 -79c0 -55 72 -74 103 -74c47.3 0 132 3 174 29
c16 9.89999 24 23 24 45c0 16 -8 45 -33 62c-39 26 -105 42 -174 53c-6 1 -13 0 -19 1zM276 138c-29 0 -69.5 9 -84 23c-20 -15 -48 -41 -48 -62c0 -23 25 -36 63 -45c71 -16 152 -30 192 -58c35 -24 42 -67 42 -91c0 -52 -30 -87 -66 -107c-56 -31 -170 -36 -221 -36
c-77 0 -153 31.5 -153 88c0 43 12 74 39 105c18 21 43 36 70 51c-18 11 -31 37 -31 64c0 47 42 85 86 107c-25 22 -44 63 -44 107c0 97 85 155 175 155c30 0 66 -8 84 -8c35 0 65 14 65 49c0 9 -3 17 -11 26l1 4c17.4 4.5 35.4 12.2 48 23l4 -1c12 -18 16 -37 16 -58
c0 -36 -27 -67 -71 -67c-8 0 -17.2 0.299988 -21 1l-3 -2c24 -24 45 -64 45 -102c0 -109 -88 -166 -177 -166zM375 298c0 61 -32 102 -86 102c-60 0 -90 -55 -90 -112c0 -55 28 -111 86 -111c42 0 90 41 90 121z" />
    <glyph glyph-name="Gdotaccent" unicode="&#x120;" horiz-adv-x="699" 
d="M484.1 753c5.69998 27 34.8 51 61.8 51s45.9 -24 40.2 -51c-5.69995 -27 -34.9 -51 -61.9 -51s-45.8 24 -40.1 51zM570.9 117c14.5 75 26.3 133 30.4 190l2.60004 3s16.4 -3 50.4 -3c35 0 52.6 3 52.6 3l0.399963 -3c-19.3 -53 -30.3 -95 -46.2 -170l-1.29999 -6
c-2.29999 -11 -6.59998 -37.3 -0.200012 -48l-0.599976 -3c-79.5 -56.6 -168.6 -90 -285.1 -90c-201 0 -313.4 144 -276.6 317c46.8 220 251.6 351 423.6 351c122 0 208.4 -45 208.4 -45l1.40002 -3c-22.2 -49.3 -29.2 -60 -43.6 -111l-10.2 -1c-23.6 82 -90 113 -180 113
c-135 0 -255.2 -109 -292.4 -284c-28.1 -132 24.2 -291 202.2 -291c54 0 114.2 6 155 38z" />
    <glyph glyph-name="gdotaccent" unicode="&#x121;" horiz-adv-x="458" 
d="M262.9 568.4c0 27 24 51 51 51s51 -24 51 -51s-24 -51 -51 -51s-51 24 -51 51zM149 -5c-18 -13 -35 -23 -46 -37c-18 -22 -29 -49 -29 -79c0 -55 72 -74 103 -74c47.3 0 132 3 174 29c16 9.89999 24 23 24 45c0 16 -8 45 -33 62c-39 26 -105 42 -174 53c-6 1 -13 0 -19 1
zM276 138c-29 0 -69.5 9 -84 23c-20 -15 -48 -41 -48 -62c0 -23 25 -36 63 -45c71 -16 152 -30 192 -58c35 -24 42 -67 42 -91c0 -52 -30 -87 -66 -107c-56 -31 -170 -36 -221 -36c-77 0 -153 31.5 -153 88c0 43 12 74 39 105c18 21 43 36 70 51c-18 11 -31 37 -31 64
c0 47 42 85 86 107c-25 22 -44 63 -44 107c0 97 85 155 175 155c30 0 66 -8 84 -8c35 0 65 14 65 49c0 9 -3 17 -11 26l1 4c17.4 4.5 35.4 12.2 48 23l4 -1c12 -18 16 -37 16 -58c0 -36 -27 -67 -71 -67c-8 0 -17.2 0.299988 -21 1l-3 -2c24 -24 45 -64 45 -102
c0 -109 -88 -166 -177 -166zM375 298c0 61 -32 102 -86 102c-60 0 -90 -55 -90 -112c0 -55 28 -111 86 -111c42 0 90 41 90 121z" />
    <glyph glyph-name="Gcommaaccent" unicode="&#x122;" horiz-adv-x="681" 
d="M366.3 -62c38 0 54.8 -34 43.7 -86c-12.8 -60 -68.1 -90 -127 -99c-4.70001 6 -4.79999 15 -2.89999 24c51.3 11 82.4 35 86.2 53c4.30002 20 -7.79999 24 -25.4 26c-16.4 3 -39.5 12 -33.8 39c5.10001 24 30.2 43 59.2 43zM550.9 117c14.5 75 26.3 133 30.4 190
l2.60004 3s16.4 -3 50.4 -3c35 0 52.6 3 52.6 3l0.399963 -3c-19.3 -53 -30.3 -95 -46.2 -170l-1.29999 -6c-2.29999 -11 -6.59998 -37.3 -0.200012 -48l-0.599976 -3c-79.5 -56.6 -158.6 -90 -275.1 -90c-201 0 -293.4 154 -256.6 327c46.8 220 212.7 341 403.6 341
c122 0 198.4 -45 198.4 -45l1.40002 -3c-22.2 -49.3 -29.2 -60 -43.6 -111l-10.2 -1c-23.6 82 -70 113 -160 113c-135 0 -245.2 -99 -282.4 -274c-28.1 -132 4.2 -301 182.2 -301c54 0 104.2 6 145 38z" />
    <glyph glyph-name="gcommaaccent" unicode="&#x123;" horiz-adv-x="458" 
d="M313.5 511c-39 0 -54.2 37 -46.5 73c5.10001 24 16.7 46 37 66c21.4 21.1 53.1 38 92.2 43c3.09998 -4 2.19998 -13 0.699982 -20c-59.5 -12 -86.3 -44 -91.2 -67c-4.20001 -19.6 2 -13 26.2 -13c40 0 44.9 -24 41.3 -41c-3.40002 -16 -24.7 -41 -59.7 -41zM149 -5
c-18 -13 -35 -23 -46 -37c-18 -22 -29 -49 -29 -79c0 -55 72 -74 103 -74c47.3 0 132 3 174 29c16 9.89999 24 23 24 45c0 16 -8 45 -33 62c-39 26 -105 42 -174 53c-6 1 -13 0 -19 1zM276 138c-29 0 -69.5 9 -84 23c-20 -15 -48 -41 -48 -62c0 -23 25 -36 63 -45
c71 -16 152 -30 192 -58c35 -24 42 -67 42 -91c0 -52 -30 -87 -66 -107c-56 -31 -170 -36 -221 -36c-77 0 -153 31.5 -153 88c0 43 12 74 39 105c18 21 43 36 70 51c-18 11 -31 37 -31 64c0 47 42 85 86 107c-25 22 -44 63 -44 107c0 97 85 155 175 155c30 0 66 -8 84 -8
c35 0 65 14 65 49c0 9 -3 17 -11 26l1 4c17.4 4.5 35.4 12.2 48 23l4 -1c12 -18 16 -37 16 -58c0 -36 -27 -67 -71 -67c-8 0 -17.2 0.299988 -21 1l-3 -2c24 -24 45 -64 45 -102c0 -109 -88 -166 -177 -166zM375 298c0 61 -32 102 -86 102c-60 0 -90 -55 -90 -112
c0 -55 28 -111 86 -111c42 0 90 41 90 121z" />
    <glyph glyph-name="Hcircumflex" unicode="&#x124;" horiz-adv-x="690" 
d="M595.6 445c15.9 75 28.4 143 32.5 200l2.60004 3s16.4 -3 50.4 -3c35 0 52.6 3 52.6 3l0.399963 -3c-19.3 -53 -36.6 -125 -52.5 -200l-52.1 -245c-15.9 -75 -28.4 -143 -32.5 -200l-2.59998 -3s-16.4 3 -50.4 3c-35 0 -52.6 -3 -52.6 -3l-0.399994 3
c19.5 54 36.6 125 52.5 200l25.7 121h-312l-25.7 -121c-15.9 -75 -28.4 -143 -32.5 -200l-2.60001 -3s-16.4 3 -50.4 3c-35 0 -52.6 -3 -52.6 -3l-0.400002 3c19.5 54 36.6 125 52.5 200l52.1 245c15.9 75 28.4 143 32.5 200l2.59999 3s16.4 -3 50.4 -3c35 0 52.6 3 52.6 3
l0.399994 -3c-19.3 -53 -36.6 -125 -52.5 -200l-17.4 -82h312zM524.8 803c22.3 -36 50.7 -67 81 -94l-20.4 -21c-35.2 18 -65.1 37 -92.8 62c-42.7 -27 -78.6 -45 -120.2 -62l-9.60001 21c43 28 80.8 60 119 94h43z" />
    <glyph glyph-name="hcircumflex" unicode="&#x125;" horiz-adv-x="514" 
d="M418.8 832c22.3 -36 50.7 -67 81 -94l-20.4 -21c-35.2 18 -65.1 37 -92.8 62c-42.7 -27 -78.6 -45 -120.2 -62l-9.60001 21c43 28 80.8 60 119 94h43zM390.3 180l22.3 105c17.2 81 1.60001 97 -54.4 97c-29 0 -77.5 -26 -135.5 -73l-27.4 -129
c-16.2 -76.2 -24.7 -123 -28.3 -180l-2.60001 -3s-13.1 3 -47.4 3c-35 0 -49.6 -3 -49.6 -3l-0.400002 3c19.9 53.5 32.5 105.5 48.3 180l63.8 301c16.2 76 30.8 152.3 32.2 195l2.59999 3c41.1 3 62.1 9 89.3 19c6.29999 0 8.39999 -3 6.89999 -10
c-18.7 -62.5 -31 -113 -46.7 -187l-29.9 -141c81.2 67 142.8 79 181.8 79c72 0 99 -52 77.1 -155l-22.1 -104c-16.2 -76.2 -24.7 -123 -28.3 -180l-2.60001 -3s-13.1 3 -47.4 3c-35 0 -49.6 -3 -49.6 -3l-0.399994 3c19.9 53.5 32.5 105.5 48.3 180z" />
    <glyph glyph-name="Hbar" unicode="&#x126;" horiz-adv-x="700" 
d="M579.2 321h-322l-25.7 -121c-15.9 -75 -28.4 -143 -32.5 -200l-2.60001 -3s-16.4 3 -50.4 3c-35 0 -52.6 -3 -52.6 -3l-0.400002 3c19.5 54 36.6 125 52.5 200l52.1 245c4.89999 23 9.39999 45.4 13.5 67h-61.3l7.3 34h60.2c6.09999 35.7 10.6 68.9 12.8 99l2.59999 3
s16.4 -3 50.4 -3c35 0 52.6 3 52.6 3l0.399994 -3c-10.3 -28.4 -20 -62.2 -29.3 -99h318.5c6.10004 35.7 10.6 68.9 12.8 99l2.60004 3s16.4 -3 50.4 -3c35 0 52.6 3 52.6 3l0.399963 -3c-10.3 -28.4 -20 -62.2 -29.3 -99h57.3l-7.29999 -34h-58.3
c-5.09998 -21.8 -10.1 -44.2 -14.9 -67l-52.1 -245c-15.9 -75 -28.4 -143 -32.5 -200l-2.59998 -3s-16.4 3 -50.4 3c-35 0 -52.6 -3 -52.6 -3l-0.399994 3c19.5 54 36.6 125 52.5 200zM588.2 363l17.4 82c4.90002 23 9.40002 45.4 13.5 67h-320.6
c-5.10001 -21.8 -10.1 -44.2 -14.9 -67l-17.4 -82h322z" />
    <glyph glyph-name="hbar" unicode="&#x127;" horiz-adv-x="520" 
d="M396.3 180l22.3 105c17.2 81 1.60001 97 -54.4 97c-29 0 -77.5 -26 -135.5 -73l-27.4 -129c-16.2 -76.2 -24.7 -123 -28.3 -180l-2.60001 -3s-13.1 3 -47.4 3c-35 0 -49.6 -3 -49.6 -3l-0.400002 3c19.9 53.5 32.5 105.5 48.3 180l63.9 301c3.5 16.7 7 33.1 10.1 49
h-56.6l8.2 39h55.7c7.2 40.4 12 75.6 12.8 101l2.70001 3c41.1 3 67.1 15 94.3 25c6.30002 0 8.30002 -3 6.80002 -10c-13.8 -40.8 -24.3 -77.3 -34.4 -119h177.1l-8.19998 -39h-177.9c-2.09998 -9.29999 -4.19998 -18.9 -6.29999 -29l-30 -141c81.2 67 142.8 79 181.8 79
c72 0 99 -52 77.1 -155l-22.1 -104c-16.2 -76.2 -24.7 -123 -28.3 -180l-2.60001 -3s-13.1 3 -47.4 3c-35 0 -49.6 -3 -49.6 -3l-0.399994 3c19.9 53.5 32.5 105.5 48.3 180z" />
    <glyph glyph-name="Itilde" unicode="&#x128;" horiz-adv-x="293" 
d="M370.5 741c22 0 38.2 10 61.1 52l22.7 -6c-24.8 -60 -60.1 -90 -106.1 -90c-22 0 -40.5 12 -58.5 26c-15.7 11 -32.3 22 -49.3 22c-26 0 -42.2 -15 -59.2 -48l-23 5c26.5 59 55.9 89 98.9 89c30 0 49.1 -14 66.1 -28c13.4 -12 28.3 -22 47.3 -22zM200.6 445
c15.9 75 28.4 143 32.5 200l2.59999 3s16.4 -3 50.4 -3c35 0 52.6 3 52.6 3l0.399994 -3c-19.3 -53 -36.6 -125 -52.5 -200l-52.1 -245c-15.9 -75 -28.4 -143 -32.5 -200l-2.60001 -3s-16.4 3 -50.4 3c-35 0 -52.6 -3 -52.6 -3l-0.400002 3c19.5 54 36.6 125 52.5 200z" />
    <glyph glyph-name="itilde" unicode="&#x129;" horiz-adv-x="268" 
d="M316.3 570c19.8 0 34.5 10 56 52l20.3 -6c-23.6 -60 -56 -90 -97.4 -90c-19.8 0 -36.2 12 -52.1 26c-13.9 11 -28.6 22 -43.9 22c-23.4 0 -38.3 -15 -54.3 -48l-20.5 5c25.1 59 52.2 89 90.9 89c27 0 43.8 -14 58.8 -28c11.9 -12 25.1 -22 42.2 -22zM144 235
c15.9 75 26.3 133 27.4 176l2.60001 3c40.6 3 67.2 15 94.3 25c6 0 8.40002 -3 6.90002 -10c-21 -61 -31.9 -103 -47.8 -178l-15.1 -71c-16.2 -76 -24.2 -123 -28.3 -180l-2.60001 -3s-13.4 3 -47.4 3c-35 0 -49.6 -3 -49.6 -3l-0.400002 3c19.5 54 32.4 105 48.3 180z" />
    <glyph glyph-name="Imacron" unicode="&#x12a;" horiz-adv-x="293" 
d="M420.8 733h-244c-9 0 -11.3 8 -9.8 15c2.60001 12 17.2 29 28.2 29h245c10 0 12.3 -8 11 -14c-2.60001 -12 -17.4 -30 -30.4 -30zM200.6 445c15.9 75 28.4 143 32.5 200l2.59999 3s16.4 -3 50.4 -3c35 0 52.6 3 52.6 3l0.399994 -3c-19.3 -53 -36.6 -125 -52.5 -200
l-52.1 -245c-15.9 -75 -28.4 -143 -32.5 -200l-2.60001 -3s-16.4 3 -50.4 3c-35 0 -52.6 -3 -52.6 -3l-0.400002 3c19.5 54 36.6 125 52.5 200z" />
    <glyph glyph-name="imacron" unicode="&#x12b;" horiz-adv-x="268" 
d="M354.3 538h-219.6c-8.1 0 -10.1 8 -8.6 15c2.6 12 16.1 29 26 29h220.5c9 0 10.9 -8 9.60001 -14c-2.5 -12 -16.2 -30 -27.9 -30zM144 235c15.9 75 26.3 133 27.4 176l2.60001 3c40.6 3 67.2 15 94.3 25c6 0 8.40002 -3 6.90002 -10c-21 -61 -31.9 -103 -47.8 -178
l-15.1 -71c-16.2 -76 -24.2 -123 -28.3 -180l-2.60001 -3s-13.4 3 -47.4 3c-35 0 -49.6 -3 -49.6 -3l-0.400002 3c19.5 54 32.4 105 48.3 180z" />
    <glyph glyph-name="Ibreve" unicode="&#x12c;" horiz-adv-x="293" 
d="M456.1 805c-21.1 -71 -94 -113 -160 -113c-73 0 -121.9 43 -112 113h28c-0.300003 -39 42 -61 95 -61c49 0 105.7 22 121 61h28zM200.6 445c15.9 75 28.4 143 32.5 200l2.59999 3s16.4 -3 50.4 -3c35 0 52.6 3 52.6 3l0.399994 -3c-19.3 -53 -36.6 -125 -52.5 -200
l-52.1 -245c-15.9 -75 -28.4 -143 -32.5 -200l-2.60001 -3s-16.4 3 -50.4 3c-35 0 -52.6 -3 -52.6 -3l-0.400002 3c19.5 54 36.6 125 52.5 200z" />
    <glyph glyph-name="ibreve" unicode="&#x12d;" horiz-adv-x="268" 
d="M167.5 650c-0.199997 -53 31.4 -90 80 -90c46.8 0 94.3 32 114.4 90l22 -12c-27.3 -86 -94.2 -135 -147.3 -135c-63 0 -99.4 50 -95.7 135zM144 235c15.9 75 27.3 138 28.4 181l2.60001 3c40.6 3 65.2 10 92.3 20c6 0 8.40002 -3 6.90002 -10
c-20.7 -61 -30.9 -103 -46.8 -178l-15.1 -71c-16.2 -76 -24.2 -123 -28.3 -180l-2.60001 -3s-13.4 3 -47.4 3c-35 0 -49.6 -3 -49.6 -3l-0.400002 3c19.5 54 32.4 105 48.3 180z" />
    <glyph glyph-name="Iogonek" unicode="&#x12e;" horiz-adv-x="293" 
d="M44.2 -225c-53 0 -86.5 31 -75 85c10 46.8 61.1 104 127.1 137.6l-0.300003 2.4c19.5 54 36.6 125 52.5 200l52.1 245c15.9 75 28.4 143 32.5 200l2.59999 3s16.4 -3 50.4 -3c35 0 52.6 3 52.6 3l0.399994 -3c-19.3 -53 -36.6 -125 -52.5 -200l-52.1 -245
c-15.9 -75 -28.4 -143 -32.5 -200l-2.60001 -3s-4.79999 0.9 -14.6 1.7c-76.3 -5.3 -142.4 -76.6 -152.8 -125.7c-6.8 -32 9.5 -59 45.5 -59c30 0 54.1 15 77.6 36l13.3 -8c-34 -47 -88.2 -67 -124.2 -67z" />
    <glyph glyph-name="iogonek" unicode="&#x12f;" horiz-adv-x="268" 
d="M22.2 -225c-54 0 -86.5 31 -75 85c10.5 49.5 66.4 110.6 137.9 143.1c18.9 52.9 31.6 103.3 47.2 176.9l11.7 55c15.9 75 26.3 133 27.4 176l2.60001 3c40.6 3 67.2 15 94.3 25c6 0 8.40002 -3 6.90002 -10c-21 -61 -31.9 -103 -47.8 -178l-15.1 -71
c-16.2 -76 -24.2 -123 -28.3 -180l-2.60001 -3s-4.7 1 -15.5 1.9c-77.9 -3 -145.3 -76 -155.9 -125.9c-6.8 -32 9.5 -59 45.5 -59c29 0 53.1 15 76.6 36l14.3 -8c-34 -47 -89.2 -67 -124.2 -67zM204.2 570c5.7 27 34.8 51 61.8 51s45.9 -24 40.2 -51
c-5.70001 -27 -34.9 -51 -61.9 -51c-27 0 -45.8 24 -40.1 51z" />
    <glyph glyph-name="Idotaccent" unicode="&#x130;" horiz-adv-x="293" 
d="M254.4 750c5.70001 27 34.9 51 61.9 51s45.9 -24 40.2 -51s-34.9 -51 -61.9 -51s-45.9 24 -40.2 51zM200.6 445c15.9 75 28.4 143 32.5 200l2.59999 3s16.4 -3 50.4 -3c35 0 52.6 3 52.6 3l0.399994 -3c-19.3 -53 -36.6 -125 -52.5 -200l-52.1 -245
c-15.9 -75 -28.4 -143 -32.5 -200l-2.60001 -3s-16.4 3 -50.4 3c-35 0 -52.6 -3 -52.6 -3l-0.400002 3c19.5 54 36.6 125 52.5 200z" />
    <glyph glyph-name="afii10057" unicode="&#x408;" horiz-adv-x="385" 
d="M264.8 258l39.8 187c15.9 75 28.4 143 32.5 200l2.60001 3s16.4 -3 50.4 -3c35 0 52.6 3 52.6 3l0.399994 -3c-19.3 -53 -36.6 -125 -52.5 -200l-35.1 -165c-24.3 -114.5 -40.8 -145 -108.5 -214c-52.5 -54 -111.1 -76 -174.1 -76c-19 0 -36.2 4 -43.1 9l-0.4 3
c15 19 32.8 55 45.5 82l11.2 1c6.7 -20 21.5 -35 50.5 -35c79 0 109.5 120 128.2 208z" />
    <glyph glyph-name="afii10061" unicode="&#x40c;" horiz-adv-x="632" 
d="M601.3 820c25.8 -13.3 42.8 -30.7 50.9 -52l-156.3 -58c-22.9 -9 -35.5 -12 -44.5 -12s-13.5 7 -11.8 15c1.5 7 4.5 12 19.4 21zM200.6 445c15.9 75 28.4 143 32.5 200l2.59999 3s16.4 -3 50.4 -3c35 0 52.6 3 52.6 3l0.399994 -3c-19.3 -53 -36.6 -125 -52.5 -200
l-18.7 -87.9c89.8 3 112.5 86.5 192 173.9c56.5 62.1 129 127 207 127c27 0 30.3 -3 54.8 -10l3.79999 -6l-48.4 -91l-12.6 -3c-17 14 -32.6 21 -60.6 21c-23 0 -63 -19 -109.2 -67c-57 -59.2 -90.1 -142 -137.4 -162l-0.699982 -3c69.4 -12 83.6 -40 122.8 -100
c64.4 -97 51.5 -148 116.6 -237l-3.90002 -4c-12.6 2 -51.1 4 -76.1 4c-26 0 -26.5 -2 -49.9 -4c-31.6 77 -42.3 121 -59.2 173c-25 76.8 -42.6 134.2 -148.7 142.6l-23.7 -111.6c-15.9 -75 -28.4 -143 -32.5 -200l-2.60001 -3s-16.4 3 -50.4 3c-35 0 -52.6 -3 -52.6 -3
l-0.400002 3c19.5 54 36.6 125 52.5 200z" />
    <glyph glyph-name="uni040D" unicode="&#x40d;" horiz-adv-x="700" 
d="M472.9 818l103.1 -84c9.29999 -8 12.1 -14 10.6 -21c-1.69995 -8 -10.2 -15 -18.2 -15s-21.4 3 -40.5 12l-140.6 63c22 17.7 48.9 33.4 85.6 45zM200.6 445c15.9 75 28.4 143 32.5 200l2.59999 3s16.4 -3 50.4 -3c35 0 52.6 3 52.6 3l0.399994 -3
c-19.3 -53 -36.6 -125 -52.5 -200l-52.1 -245c-4.3 -20.1 -8.3 -39.8 -12 -58.8l405.4 414.3c5.29999 32.1 9.19995 62.1 11.2 89.5l2.60004 3s16.4 -3 50.4 -3c35 0 52.6 3 52.6 3l0.399963 -3c-19.3 -53 -36.6 -125 -52.5 -200l-52.1 -245
c-15.9 -75 -28.4 -143 -32.5 -200l-2.59998 -3s-16.4 3 -50.4 3c-35 0 -52.6 -3 -52.6 -3l-0.399994 3c19.5 54 36.6 125 52.5 200l52.1 245c4.10004 19.4 8 38.4 11.6 56.8l-405.3 -414.3c-5.09999 -31.3 -9 -60.6 -10.9 -87.5l-2.60001 -3s-16.4 3 -50.4 3
c-35 0 -52.6 -3 -52.6 -3l-0.400002 3c19.5 54 36.6 125 52.5 200z" />
    <glyph glyph-name="afii10062" unicode="&#x40e;" horiz-adv-x="580" 
d="M466.7 728c33 0 59.7 17 63.3 34c1.09998 5 1.29999 11 1.70001 13c3.20001 15 16.4 30 39.4 30c27 0 34 -14 30 -33c-11.1 -52 -74.9 -75 -140.9 -75s-120.2 23 -109.1 75c4 19 17 33 44 33c23 0 29.8 -15 26.6 -30c-0.400024 -2 -2.60001 -8 -3.70001 -13
c-3.60001 -17 15.7 -34 48.7 -34zM376.2 161c-70.8 -106.9 -136.9 -183 -226.9 -183c-42 0 -83.1 23 -76.3 55c6 28 25.9 51 57.9 51c14 0 34.5 -7 41.9 -19c5.09999 -9 17.8 -20 31.8 -20c42.7 0 66.6 36.1 103.4 93.3c-43.4 201.6 -101.6 429.5 -124.3 509.7
c16.4 -3 42.4 -3 59.4 -3s38 0 55.6 3c2.19998 -30 25.4 -177.9 76.1 -405.5c91.9 144.4 190.1 303.9 238.9 405.5c11.4 -3 38.4 -3 49.4 -3s23 0 35.6 3z" />
    <glyph glyph-name="afii10020" unicode="&#x413;" horiz-adv-x="481" 
d="M279.6 445l-52.1 -245c-15.9 -75 -29.2 -147 -32.5 -200l-1.60001 -3s-16.4 3 -51.4 3c-34 0 -52.6 -3 -52.6 -3l-1.4 3c20.1 57 37.6 125 53.5 200l52.1 245c15.9 75 29 146 32.5 200l1.59999 3s17.4 -3 51.4 -3h273c21 0 44.2 1 60.6 3l1.39996 -3
c-4 -14 -6.09998 -19 -8.19995 -29c-2.10004 -10 -4.30005 -25 -5 -33l-2.80005 -4s-145.5 12 -279.5 12c-12.1 -24 -35.4 -129 -39 -146z" />
    <glyph glyph-name="afii10021" unicode="&#x414;" horiz-adv-x="708" 
d="M434.4 44c18 0 26.2 6 31.1 15c12.1 24 34.4 124 38 141l52.1 245c3.60004 17 24.3 119 22.4 143c-5.09998 9 -8.29999 13 -23.3 13h-114c-27 0 -39.1 -10 -46.4 -35c-29.5 -101 -66.5 -205 -93 -273c-46.9 -117 -92.9 -216 -97.4 -237c-2.59999 -12 10.5 -12 24.5 -12
h206zM178 0c-80 0 -105.8 -65 -132.3 -138l-2.7 -3h-32l-1.3 3l19.6 149c2.1 10 8.9 18 34.5 21c20.6 2.4 41 0 58.2 15c31.5 26 64.8 98 130 254c46.2 114 80.1 217 93.5 280c4.70001 22 6.29999 44 7.60001 64l1.60001 3s26.4 -3 60.4 -3h226c34 0 52.6 3 52.6 3
l0.399963 -3c-19.5 -54 -36.6 -125 -52.5 -200l-52.1 -245c-23.4 -110 -28.1 -165 5.29999 -168c24.6 -2 27.6 -11 25.5 -21l-43.6 -149l-2.70001 -3h-32l-1.29999 3c4.5 73 6.29999 138 -73.7 138h-289z" />
    <glyph glyph-name="afii10024" unicode="&#x416;" horiz-adv-x="924" 
d="M284.9 169c-37.1 -52 -65.4 -96 -127.8 -173c-21.6 2 -21.1 4 -46.1 4c-23 0 -60.5 -2 -73.9 -4l-2.1 4c98.9 89 107.8 140 209.4 237c62.8 60 86.6 88 158.2 100l0.699982 3c-36.7 20 -34.1 103 -63.6 162c-23.8 48 -53.8 67 -75.8 67c-27 0 -44.4 -7 -66.4 -21l-10.4 3
l-8.60001 91l6.2 6c26.5 7 30.2 10 56.2 10c74 0 116.2 -65 144 -127c39.3 -87.3 26.5 -170.7 110 -173.9l18.7 87.9c15.9 75 28.4 143 32.5 200l2.60004 3s16.4 -3 50.4 -3c35 0 52.6 3 52.6 3l0.399963 -3c-19.3 -53 -36.6 -125 -52.5 -200l-18.7 -87.9
c84.8 3.19998 107.6 86.6 184 173.9c54.2 62 124 127 198 127c26 0 28.3 -3 51.8 -10l3.79999 -6l-47.4 -91l-11.6 -3c-16 14 -30.6 21 -57.6 21c-22 0 -60 -19 -104.2 -67c-54.5 -59 -87.1 -142 -132.4 -162l-0.700012 -3c66.4 -12 78.6 -40 115.8 -100
c60.4 -97 47.5 -148 108.6 -237l-3.90002 -4c-12.6 2 -49.1 4 -72.1 4c-25 0 -25.5 -2 -47.9 -4c-29.6 77 -39.3 121 -54.2 173c-23 76.8 -39.6 134.1 -139.7 142.6l-23.7 -111.6c-15.9 -75 -28.4 -143 -32.5 -200l-2.59998 -3s-16.4 3 -50.4 3c-35 0 -52.6 -3 -52.6 -3
l-0.399994 3c19.5 54 36.6 125 52.5 200l23.7 111.6c-103.7 -8.5 -144.6 -65.8 -200.3 -142.6z" />
    <glyph glyph-name="afii10025" unicode="&#x417;" horiz-adv-x="542" 
d="M253.3 25c70 0 166.1 43 189.1 151c10.8 51 -5 160 -122 160h-73c-11 0 -16.5 7 -14.2 18s11.1 19 22.1 19h47c119 0 168.6 78 180.3 133c14.2 67 -39 118 -101 118c-123 0 -161.7 -74 -202.9 -155l-29.6 2l57.2 175c87 0 124.6 12 184.6 12c93 0 194 -47 173.8 -142
c-16.8 -79 -70.5 -129 -148.2 -156c66.7 -20 144 -61 121.3 -168c-32.1 -151 -177.4 -204 -295.4 -204c-81 0 -123.4 31 -149.3 55c-22.5 21 -37.7 48 -32 75c5.5 26 21 47 44 47c28 0 35.2 -13 39.4 -45c8 -61 32.8 -95 108.8 -95z" />
    <glyph glyph-name="afii10026" unicode="&#x418;" horiz-adv-x="700" 
d="M200.6 445c15.9 75 28.4 143 32.5 200l2.59999 3s16.4 -3 50.4 -3c35 0 52.6 3 52.6 3l0.399994 -3c-19.3 -53 -36.6 -125 -52.5 -200l-52.1 -245c-4.3 -20.1 -8.3 -39.8 -12 -58.8l405.4 414.3c5.29999 32.1 9.19995 62.1 11.2 89.5l2.60004 3s16.4 -3 50.4 -3
c35 0 52.6 3 52.6 3l0.399963 -3c-19.3 -53 -36.6 -125 -52.5 -200l-52.1 -245c-15.9 -75 -28.4 -143 -32.5 -200l-2.59998 -3s-16.4 3 -50.4 3c-35 0 -52.6 -3 -52.6 -3l-0.399994 3c19.5 54 36.6 125 52.5 200l52.1 245c4.10004 19.4 8 38.4 11.6 56.8l-405.3 -414.3
c-5.09999 -31.3 -9 -60.6 -10.9 -87.5l-2.60001 -3s-16.4 3 -50.4 3c-35 0 -52.6 -3 -52.6 -3l-0.400002 3c19.5 54 36.6 125 52.5 200z" />
    <glyph glyph-name="afii10027" unicode="&#x419;" horiz-adv-x="700" 
d="M505.7 728c33 0 59.7 17 63.3 34c1.09998 5 1.29999 11 1.70001 13c3.20001 15 16.4 30 39.4 30c27 0 34 -14 30 -33c-11.1 -52 -74.9 -75 -140.9 -75s-120.2 23 -109.1 75c4 19 17 33 44 33c23 0 29.8 -15 26.6 -30c-0.400024 -2 -2.60001 -8 -3.70001 -13
c-3.60001 -17 15.7 -34 48.7 -34zM200.6 445c15.9 75 28.4 143 32.5 200l2.59999 3s16.4 -3 50.4 -3c35 0 52.6 3 52.6 3l0.399994 -3c-19.3 -53 -36.6 -125 -52.5 -200l-52.1 -245c-4.3 -20.1 -8.3 -39.8 -12 -58.8l405.4 414.3c5.29999 32.1 9.19995 62.1 11.2 89.5
l2.60004 3s16.4 -3 50.4 -3c35 0 52.6 3 52.6 3l0.399963 -3c-19.3 -53 -36.6 -125 -52.5 -200l-52.1 -245c-15.9 -75 -28.4 -143 -32.5 -200l-2.59998 -3s-16.4 3 -50.4 3c-35 0 -52.6 -3 -52.6 -3l-0.399994 3c19.5 54 36.6 125 52.5 200l52.1 245
c4.10004 19.4 8 38.4 11.6 56.8l-405.3 -414.3c-5.09999 -31.3 -9 -60.6 -10.9 -87.5l-2.60001 -3s-16.4 3 -50.4 3c-35 0 -52.6 -3 -52.6 -3l-0.400002 3c19.5 54 36.6 125 52.5 200z" />
    <glyph glyph-name="afii10033" unicode="&#x41f;" horiz-adv-x="708" 
d="M701.1 645c34 0 52.6 3 52.6 3l0.399963 -3c-19.5 -54 -36.6 -125 -52.5 -200l-52.1 -245c-15.9 -75 -27.4 -143 -31.5 -200l-2.59998 -3s-17.4 3 -51.4 3c-35 0 -52.6 -3 -52.6 -3l-0.399994 3c19.3 53 36.6 125 52.5 200l52.1 245c3.60004 17 24.3 119 22.4 143
c-5.09998 9 -8.29999 13 -23.3 13h-266c-15 0 -19.8 -4 -28.7 -13c-12.1 -24 -34.8 -126 -38.4 -143l-52.1 -245c-15.9 -75 -29.2 -147 -32.5 -200l-1.60001 -3s-16.4 3 -51.4 3c-34 0 -52.6 -3 -52.6 -3l-1.4 3c20.1 57 37.6 125 53.5 200l52.1 245
c15.9 75 29 146 32.5 200l1.59999 3s17.4 -3 51.4 -3h420z" />
    <glyph glyph-name="afii10034" unicode="&#x420;" horiz-adv-x="522" 
d="M311 574l-52.7 -248c11.5 -7 41.9 -10 66.9 -10c97 0 152.3 44 175.3 152c27 127 -31.1 150 -100.1 150c-72 0 -83.2 -15 -89.4 -44zM197.6 445c15.9 75 28.4 143 32.5 200l2.59999 3s16.4 -3 50.4 -3c30 0 105.5 7 131.5 7c185 0 199.2 -107 186.7 -166
c-18.1 -85 -96.4 -204 -278.4 -204c-35 0 -51.3 3 -71.8 10l-19.6 -92c-15.9 -75 -28.4 -143 -32.5 -200l-2.60001 -3s-16.4 3 -50.4 3c-35 0 -52.6 -3 -52.6 -3l-0.400002 3c19.5 54 36.6 125 52.5 200z" />
    <glyph glyph-name="afii10035" unicode="&#x421;" horiz-adv-x="650" 
d="M504.9 658c122 0 208.4 -45 208.4 -45l1.40002 -3c-22.2 -49.3 -29.2 -60 -43.6 -111l-10.2 -1c-23.6 82 -90 113 -180 113c-82 0 -226.8 -74 -269.9 -277c-31 -146 2.7 -293 157.7 -293c93 0 165.5 21 253.1 99l19.8 -15c-86.9 -89 -195.7 -135 -292.7 -135
c-215 0 -279.1 164 -244.9 325c41.9 197 231.9 343 400.9 343z" />
    <glyph glyph-name="afii10036" unicode="&#x422;" horiz-adv-x="540" 
d="M321.6 445c3.60001 17 23.9 117 22 141c-134 0 -204.6 -12 -204.6 -12l-1.10001 4c5.20001 15 10.2 39 14.2 67l2.59999 3c15.6 -2 38.4 -3 59.4 -3h386c21 0 44.2 1 60.6 3l1.39996 -3c-8 -28 -13 -52 -14.2 -67l-2.90002 -4s-65.4 12 -199.4 12
c-12.1 -24 -34.4 -124 -38 -141l-52.1 -245c-15.9 -75 -28.4 -143 -32.5 -200l-2.60001 -3s-16.4 3 -50.4 3c-35 0 -52.6 -3 -52.6 -3l-0.399994 3c19.5 54 36.6 125 52.5 200z" />
    <glyph glyph-name="afii10037" unicode="&#x423;" horiz-adv-x="580" 
d="M376.2 161c-70.8 -106.9 -136.9 -183 -226.9 -183c-42 0 -83.1 23 -76.3 55c6 28 25.9 51 57.9 51c14 0 34.5 -7 41.9 -19c5.09999 -9 17.8 -20 31.8 -20c42.7 0 66.6 36.1 103.4 93.3c-43.4 201.6 -101.6 429.5 -124.3 509.7c16.4 -3 42.4 -3 59.4 -3s38 0 55.6 3
c2.19998 -30 25.4 -177.9 76.1 -405.5c91.9 144.4 190.1 303.9 238.9 405.5c11.4 -3 38.4 -3 49.4 -3s23 0 35.6 3z" />
    <glyph glyph-name="afii10039" unicode="&#x425;" horiz-adv-x="571" 
d="M553.4 -3c-17.4 3 -39.4 3 -57.4 3s-40 0 -58.6 -3c-31.8 103.1 -59.2 185.6 -97.8 285.7c-76.6 -87.8 -157 -184.6 -233.2 -285.7c-10.4 3 -29.4 3 -41.4 3c-11 0 -31 0 -42.6 -3c135.3 152.6 229.3 257.2 298.4 333.7c-33.8 84.6 -76.2 184 -135.1 317.3
c16.4 -3 38.4 -3 55.4 -3s39 0 57.6 3c15.7 -58.2 42.5 -128.9 88.8 -243.5c99.5 110.2 131.7 147.2 204.2 243.5c10.4 -3 30.4 -3 41.4 -3s31 0 42.6 3c-54.3 -58.8 -154.3 -161.6 -269.4 -289.9c37.2 -91.4 85.2 -207.8 147.1 -361.1z" />
    <glyph glyph-name="afii10040" unicode="&#x426;" horiz-adv-x="639" 
d="M586.5 200c-23.4 -110 -28.8 -165 4.29999 -168c24.4 -2.2 27.6 -11.3 25.5 -21l-43.6 -149l-2.70001 -3h-32l-1.29999 3c4.5 72.6 6 138 -73.7 138h-331c-34 0 -52.6 -3 -52.6 -3l-0.400002 3c19.5 54 36.6 125 52.5 200l52.1 245c15.9 75 27.4 143 31.5 200l2.59999 3
s17.4 -3 51.4 -3c35 0 52.6 3 52.6 3l0.399994 -3c-19.3 -53 -36.6 -125 -52.5 -200l-52.1 -245c-3.60001 -17 -23.9 -117 -22 -141c1.10001 -9 6.89999 -15 24.9 -15h211c18 0 26.2 6 31.1 15c12.1 24 34.4 124 38 141l52.1 245c15.9 75 29.2 147 32.5 200l1.60004 3
s16.4 -3 51.4 -3c34 0 52.6 3 52.6 3l1.39996 -3c-20.1 -57 -37.6 -125 -53.5 -200z" />
    <glyph glyph-name="afii10041" unicode="&#x427;" horiz-adv-x="633" 
d="M274.6 445l-6 -28c-17.4 -82 16.9 -109 88.9 -109c28.5 0 91.8 3.89999 163.5 45l19.6 92c15.9 75 28.4 143 32.5 200l2.60004 3s16.4 -3 50.4 -3c35 0 52.6 3 52.6 3l0.399963 -3c-19.3 -53 -36.6 -125 -52.5 -200l-52.1 -245c-15.9 -75 -28.4 -143 -32.5 -200
l-2.59998 -3s-16.4 3 -50.4 3c-35 0 -52.6 -3 -52.6 -3l-0.399994 3c19.5 54 36.6 125 52.5 200l23.2 108.9c-82.4 -49.4 -152.6 -64.9 -209.8 -64.9c-114 0 -139.2 79 -118.2 178l4.90001 23c15.9 75 28.4 143 32.5 200l2.59999 3s16.4 -3 50.4 -3c35 0 52.6 3 52.6 3
l0.399994 -3c-19.3 -53 -36.6 -125 -52.5 -200z" />
    <glyph glyph-name="afii10042" unicode="&#x428;" horiz-adv-x="960" 
d="M901.5 200c-15.6 -75 -28.4 -143 -32.5 -200l-2.59998 -3s-16.4 3 -50.4 3h-669c-35 0 -53.6 -3 -53.6 -3l-0.400002 3c19.5 54 36.6 125 52.5 200l52.1 245c15.9 75 27.4 143 31.5 200l2.59999 3s17.4 -3 51.4 -3c35 0 52.6 3 52.6 3l0.399994 -3
c-19.3 -53 -36.6 -125 -52.5 -200l-52.1 -245c-3.60001 -17 -23.9 -117 -22 -141c1.10001 -9 6.89999 -15 24.9 -15h176c18 0 26.2 6 31.1 15c12.1 24 34.4 124 38 141l52.1 245c15.9 75 27.4 143 31.5 200l2.60004 3s17.4 -3 51.4 -3c35 0 52.6 3 52.6 3l0.399963 -3
c-19.3 -53 -36.6 -125 -52.5 -200l-52.1 -245c-3.59998 -17 -23.9 -117 -22 -141c1.09998 -9 6.90002 -15 24.9 -15h178c18 0 26.2 6 31.1 15c12.1 24 34.4 124 38 141l52.1 245c15.9 75 29.2 147 32.5 200l1.60004 3s16.4 -3 51.4 -3c34 0 52.6 3 52.6 3l1.39996 -3
c-20.1 -57 -37.6 -125 -53.5 -200z" />
    <glyph glyph-name="afii10043" unicode="&#x429;" horiz-adv-x="948" 
d="M147 0c-35 0 -53.6 -3 -53.6 -3l-0.400002 3c19.5 54 36.6 125 52.5 200l52.1 245c15.9 75 27.4 143 31.5 200l2.59999 3s17.4 -3 51.4 -3c35 0 52.6 3 52.6 3l0.399994 -3c-19.3 -53 -36.6 -125 -52.5 -200l-52.1 -245c-3.60001 -17 -23.9 -117 -22 -141
c1.10001 -9 6.89999 -15 24.9 -15h176c18 0 26.2 6 31.1 15c12.1 24 34.4 124 38 141l52.1 245c15.9 75 27.4 143 31.5 200l2.60004 3s17.4 -3 51.4 -3c35 0 52.6 3 52.6 3l0.399963 -3c-19.3 -53 -36.6 -125 -52.5 -200l-52.1 -245c-3.59998 -17 -23.9 -117 -22 -141
c1.09998 -9 6.90002 -15 24.9 -15h178c18 0 26.2 6 31.1 15c12.1 24 34.4 124 38 141l52.1 245c15.9 75 29.2 147 32.5 200l1.60004 3s16.4 -3 51.4 -3c34 0 52.6 3 52.6 3l1.39996 -3c-20.1 -57 -37.6 -125 -53.5 -200l-52.1 -245c-23.4 -110 -28.8 -165 4.29999 -168
c24.4 -2.2 27.6 -11.3 25.5 -21l-43.6 -149l-2.70001 -3h-32l-1.29999 3c4.5 72.6 6 138 -73.7 138h-631z" />
    <glyph glyph-name="afii10044" unicode="&#x42a;" horiz-adv-x="717" 
d="M417.9 329l-52 -245c-7 -33 -8.89999 -51 46.1 -51c152 0 200.7 88 213.9 150c12.8 60 5 146 -123 146h-85zM439.1 645c38 0 55.6 3 55.6 3l0.399994 -3c-19.3 -53 -34.5 -125 -52.5 -200l-15.3 -72h58c246 0 253.5 -101 234.6 -190c-35.5 -167 -196.3 -185 -317.3 -185
c-36 0 -66.6 2 -95.6 2c-34 0 -54.6 -3 -54.6 -3l-0.399994 3c19.5 54 36.6 125 52.5 200l52.1 245c3.39999 17 22.8 112 20.9 136c-134 0 -204.6 -12 -204.6 -12l-1.09999 4c5.2 15 11.3 44 15.3 72l2.59999 3c15.6 -2 38.4 -3 59.4 -3h190z" />
    <glyph glyph-name="afii10045" unicode="&#x42b;" horiz-adv-x="786" 
d="M692.8 446c15.9 75 28.4 143 32.5 200l2.60004 3s16.4 -3 50.4 -3c35 0 52.6 3 52.6 3l0.399963 -3c-19.3 -53 -36.6 -125 -52.5 -200l-52.1 -245c-15.9 -75 -28.4 -143 -32.5 -200l-2.60004 -3s-16.4 3 -50.4 3c-35 0 -52.6 -3 -52.6 -3l-0.399963 3
c19.5 54 36.6 125 52.5 200zM148 0c-34 0 -54.6 -3 -54.6 -3l-0.400002 3c19.5 54 36.6 125 52.5 200l52.1 245c15.9 75 27.4 143 31.5 200l2.59999 3s17.4 -3 51.4 -3c35 0 52.6 3 52.6 3l0.399994 -3c-19.3 -53 -36.6 -125 -52.5 -200l-15.3 -72h58
c246 0 253.5 -101 234.6 -190c-35.5 -167 -196.3 -185 -317.3 -185c-36 0 -66.6 2 -95.6 2zM258.9 329l-52 -245c-7 -33 -8.89999 -51 46.1 -51c152 0 200.7 88 213.9 150c12.8 60 5 146 -123 146h-85z" />
    <glyph glyph-name="afii10046" unicode="&#x42c;" horiz-adv-x="558" 
d="M148 0c-34 0 -54.6 -3 -54.6 -3l-0.400002 3c19.5 54 36.6 125 52.5 200l52.1 245c15.9 75 27.4 143 31.5 200l2.59999 3s17.4 -3 51.4 -3c35 0 52.6 3 52.6 3l0.399994 -3c-19.3 -53 -36.6 -125 -52.5 -200l-15.3 -72h58c246 0 253.5 -101 234.6 -190
c-35.5 -167 -196.3 -185 -317.3 -185c-36 0 -66.6 2 -95.6 2zM258.9 329l-52 -245c-7 -33 -8.89999 -51 46.1 -51c152 0 200.7 88 213.9 150c12.8 60 5 146 -123 146h-85z" />
    <glyph glyph-name="afii10047" unicode="&#x42d;" horiz-adv-x="604" 
d="M537.3 307c-62.2 -34 -106.3 -34 -119.3 -34c-62 0 -96.9 38 -155.9 38c-38 0 -57.4 -16 -65.4 -16c-4 0 -8.3 3 -6.39999 12c5.3 25 74.2 53 133.2 53c66 0 88.4 -31 146.4 -31c29 0 53.3 6 74.2 15c33.8 206 -60.1 277 -141.1 277c-95 0 -190.2 -81 -234.5 -167
l-29.1 4c22.3 53 40.2 100 53.9 155c58.6 3 120.6 45 225.6 45c165 0 259 -108 212.9 -325c-46.8 -220 -189.4 -345 -359.4 -345c-86 0 -135.4 31 -161.3 55c-22.5 21 -36.9 52 -31.2 79c5.5 26 21.2 43 39.2 43c29 0 38.2 -13 41.4 -45c8.7 -72 58 -99 130 -99
c127 0 216.5 148 246.8 286z" />
    <glyph glyph-name="afii10048" unicode="&#x42e;" horiz-adv-x="905" 
d="M693.6 619c-84 0 -198.5 -82 -243.1 -292c-40.8 -192 39.2 -300 147.2 -300c103 0 200.2 104 238.2 283c44.2 208 -17.3 309 -142.3 309zM200.6 445c15.9 75 28.4 143 32.5 200l2.59999 3s16.4 -3 50.4 -3c35 0 52.6 3 52.6 3l0.399994 -3
c-19.3 -53 -36.6 -125 -52.5 -200l-21.1 -99h94c51 179 197.4 312 353.4 312c168 0 265.1 -131 223 -329c-42.5 -200 -186.5 -341 -364.5 -341c-158 0 -261.4 120 -222.2 314h-93l-21.7 -102c-15.9 -75 -28.4 -143 -32.5 -200l-2.60001 -3s-16.4 3 -50.4 3
c-35 0 -52.6 -3 -52.6 -3l-0.400002 3c19.5 54 36.6 125 52.5 200z" />
    <glyph glyph-name="afii10049" unicode="&#x42f;" horiz-adv-x="561" 
d="M427.3 613c-61 0 -132.6 -17 -157.7 -135c-26.6 -125 35.5 -148 132.5 -148h48l50.8 239c6.20001 29 -2.60001 44 -73.6 44zM283 300c-19.1 5.10001 -32.7 11.3 -44.4 18c-48.3 27 -83.2 79 -65.8 161c10.6 50 36.4 91 79.6 125c57.6 45 121.2 48 184.2 48
c25 0 93.5 -7 123.5 -7c34 0 51.6 3 51.6 3l1.39996 -3c-20.1 -57 -36.6 -125 -52.5 -200l-52.1 -245c-15.9 -75 -29 -146 -32.5 -200l-1.60001 -3s-16.4 3 -51.4 3c-34 0 -51.6 -3 -51.6 -3l-1.39999 3c20.1 57 36.6 125 52.5 200l18.3 86
c-24.9 0 -46.6 0.600006 -65.7 1.60001c-35.5 -32.9 -73 -72.7 -108.7 -111.6c-66.3 -72 -126.8 -145 -145 -179c-18.4 3 -48.4 3 -67.4 3c-20 0 -32 0 -52.6 -3l-1.4 3c62.1 56.7 201.3 215.9 283 300z" />
    <glyph glyph-name="afii10089" unicode="&#x447;" horiz-adv-x="510" 
d="M129.9 291c16 75.5 15 85 18.3 138l1.60001 3s13.4 -3 48.4 -3c34 0 48.6 3 48.6 3l1.39999 -3c-20.1 -57 -22 -61 -37.9 -136c-16.6 -78 -16.8 -112 45.2 -112c48 0 86.9 11.5 124.9 42l5.70001 27c15.1 71 25.6 125 28.1 179l1.59998 3s13.4 -3 48.4 -3
c34 0 48.6 3 48.6 3l1.40002 -3c-21.1 -57 -31.2 -104 -48.1 -179l-15.1 -71c-15.9 -75 -24.9 -122 -28 -179l-2.60001 -3s-13.4 3 -47.4 3c-35 0 -49.6 -3 -49.6 -3l-0.399994 3c20.4 53.9 32.2 104.8 47.9 178.5c-44.1 -28 -78.8 -41.5 -137.8 -41.5
c-98 0 -125.7 48 -103.2 154z" />
    <glyph glyph-name="afii10090" unicode="&#x448;" horiz-adv-x="807" 
d="M751.5 200c-15.8 -74.5 -29 -146 -32.5 -200l-1.59998 -3s-17.4 3 -51.4 3h-526c-34 0 -52.6 -3 -52.6 -3l-0.400002 3c19.5 54 36.6 125 52.5 200l10.6 50c15.9 75 25 122 28.1 179l2.60001 3s13.4 -3 47.4 -3c35 0 49.6 3 49.6 3l0.400024 -3
c-20.5 -54 -32.4 -105 -48.1 -179l-10.6 -50c-3.60001 -17 -24.9 -122 -23 -146c5.10001 -9 8.2 -13 23.2 -13h118c15 0 19.9 4 28.8 13c12.1 24 35.4 129 39 146l10.6 50c15.9 75 25 122 28.1 179l2.59998 3s13.4 -3 47.4 -3c35 0 49.6 3 49.6 3l0.400024 -3
c-20.5 -54 -32.4 -105 -48.1 -179l-10.6 -50c-3.60001 -17 -24.9 -122 -23 -146c5.10001 -9 8.20001 -13 23.2 -13h132c15 0 5.89996 4 14.8 13c12.1 24 35.4 129 39 146l10.4 49c16.2 76 24.7 123 28.3 180l2.59998 3s14.1 -3 48.4 -3c35 0 49.6 3 49.6 3l0.400024 -3
c-19.9 -53.5 -33.3 -104.9 -49.3 -180z" />
    <glyph glyph-name="afii10091" unicode="&#x449;" horiz-adv-x="813" 
d="M140 0c-34 0 -52.6 -3 -52.6 -3l-0.400002 3c19.5 54 36.6 125 52.5 200l10.6 50c15.9 75 25 122 28.1 179l2.60001 3s13.4 -3 47.4 -3c35 0 49.6 3 49.6 3l0.400024 -3c-20.5 -54 -32.4 -105 -48.1 -179l-10.6 -50c-3.60001 -17 -24.9 -122 -23 -146
c5.10001 -9 8.2 -13 23.2 -13h118c15 0 19.9 4 28.8 13c12.1 24 35.4 129 39 146l10.6 50c15.9 75 25 122 28.1 179l2.59998 3s13.4 -3 47.4 -3c35 0 49.6 3 49.6 3l0.400024 -3c-20.5 -54 -32.4 -105 -48.1 -179l-10.6 -50c-3.60001 -17 -24.9 -122 -23 -146
c5.10001 -9 8.20001 -13 23.2 -13h132c15 0 5.89996 4 14.8 13c12.1 24 35.4 129 39 146l10.4 49c16.2 76 24.7 123 28.3 180l2.59998 3s14.1 -3 48.4 -3c35 0 49.6 3 49.6 3l0.400024 -3c-19.9 -53.5 -33.3 -104.9 -49.3 -180l-10.4 -49
c-23.4 -110 -28.8 -165 4.29999 -168c24.4 -2.2 27.6 -11.3 25.5 -21l-40.9 -136l-2.60004 -3h-32l-1.39996 3c4.5 72.6 3.29999 125 -76.4 125h-488z" />
    <glyph glyph-name="afii10092" unicode="&#x44a;" horiz-adv-x="539" 
d="M454.8 126c11.3 53 2.80002 93 -68.2 93h-67l-29.8 -140c-7.39999 -35 7.40002 -45 53.4 -45c50 0 94.2 10 111.6 92zM246.1 250c15.1 71 23.4 124 23.4 124c-125 0 -158.3 -11 -158.3 -11l-1.39999 3c5 14 9.89999 37 13.4 63l2.4 2c14.8 -1 35.6 -2 54.6 -2h144
c34 0 48.6 3 48.6 3l1.40002 -3c-21.1 -57 -30.2 -95 -46.1 -170l-0.700012 -3h57c96 0 172.5 -26 152.5 -120c-17.9 -84 -91.3 -138 -202.3 -138c-39.8 0 -61.8 2 -101.6 2c-35 0 -49.6 -3 -49.6 -3l-0.399994 3c20.5 54 32.3 105 48 179z" />
    <glyph glyph-name="afii10093" unicode="&#x44b;" horiz-adv-x="681" 
d="M559.1 250c15.1 71 25.6 125 28.1 179l1.59998 3s13.4 -3 48.4 -3c34 0 48.6 3 48.6 3l1.40002 -3c-21.1 -57 -31.2 -104 -48.1 -179l-15.1 -71c-15.9 -75 -24.9 -122 -28 -179l-2.59998 -3s-13.4 3 -47.4 3c-35 0 -49.6 -3 -49.6 -3l-0.399994 3
c20.5 54 32.3 105 48 179zM362.8 126c11.3 53 2.80002 93 -68.2 93h-67l-29.8 -140c-7.40001 -35 7.39999 -45 53.4 -45c50 0 94.2 10 111.6 92zM236.1 259l-0.700012 -3h57c96 0 172.5 -26 152.5 -120c-17.9 -84 -91.3 -138 -202.3 -138c-39.8 0 -61.8 2 -101.6 2
c-35 0 -49.6 -3 -49.6 -3l-0.400002 3c20.5 54 32.3 105 48 179l15.1 71c15.1 71 25.6 125 28.1 179l1.60001 3s13.4 -3 48.4 -3c34 0 48.6 3 48.6 3l1.40002 -3c-21.1 -57 -30.2 -95 -46.1 -170z" />
    <glyph glyph-name="afii10094" unicode="&#x44c;" horiz-adv-x="447" 
d="M362.8 126c11.3 53 2.80002 93 -68.2 93h-67l-29.8 -140c-7.40001 -35 7.39999 -45 53.4 -45c50 0 94.2 10 111.6 92zM236.1 259l-0.700012 -3h57c96 0 172.5 -26 152.5 -120c-17.9 -84 -91.3 -138 -202.3 -138c-39.8 0 -61.8 2 -101.6 2c-35 0 -49.6 -3 -49.6 -3
l-0.400002 3c20.5 54 32.3 105 48 179l15.1 71c15.1 71 25.6 125 28.1 179l1.60001 3s13.4 -3 48.4 -3c34 0 48.6 3 48.6 3l1.40002 -3c-21.1 -57 -30.2 -95 -46.1 -170z" />
    <glyph glyph-name="afii10095" unicode="&#x44d;" horiz-adv-x="434" 
d="M363.2 236c8.5 73 -4.5 172 -94.5 172c-80 0 -113.1 -57 -140.1 -118l-26.1 4c15.4 44 25.6 78 39.3 133c70 0 72.5 12 143.5 12c123 0 176.9 -104 153.5 -214c-33.4 -157 -156.9 -235 -262.9 -235c-82 0 -131.7 44 -120.6 96c3 14 18.1 29 36.1 29
c11 0 32.2 -4 30.2 -37c-1.2 -34 24.9 -57 67.9 -57c94 0 152.1 109 168.7 187c-24.6 -12 -60.9 -28 -91.9 -28c-44 0 -67.3 27 -102.3 27c-12 0 -23.1 -5 -31.1 -5c-5.99999 0 -4.99999 9 -4.2 13c3.2 15 52 33 95 33c45 0 58 -19 96 -19c16 0 30.4 2 43.5 7z" />
    <glyph glyph-name="afii10096" unicode="&#x44e;" horiz-adv-x="686" 
d="M534.2 401c-74 0 -114.7 -88 -133.2 -175c-16.4 -77 -13.6 -196 80.4 -196c41 0 93.8 23 121.9 155c31 146 8.90002 216 -69.1 216zM146.1 250c15.1 71 25.6 125 28.1 179l1.60001 3s13.4 -3 48.4 -3c34 0 48.6 3 48.6 3l1.40002 -3c-21.1 -57 -31.2 -104 -48.1 -179
l-2.70001 -13h96c35.3 119 117.9 202 232.9 202c144 0 164.9 -118 142.8 -222c-21.3 -100 -100.2 -227 -239.2 -227c-128 0 -165.3 107 -145.8 208h-95l-4.10001 -19c-15.9 -75 -24.9 -122 -28 -179l-2.60001 -3s-13.4 3 -47.4 3c-35 0 -49.6 -3 -49.6 -3l-0.400002 3
c20.5 54 32.3 105 48 179z" />
    <glyph glyph-name="afii10097" unicode="&#x44f;" horiz-adv-x="429" 
d="M316.9 230l28.9 136c6.80002 32 -7.39999 36 -46.4 36c-74 0 -98.2 -34 -108.2 -81c-10.6 -50 3.7 -91 60.7 -91h65zM401.4 251l-15.6 -73c-14.9 -70 -25.3 -124 -27.8 -178l-1.60001 -3s-13.4 3 -48.4 3c-34 0 -48.6 -3 -48.6 -3l-1.39999 3c21.1 57 30.2 95 45.9 169
l5.5 26h-25c-40 0 -74.5 -50 -107.5 -111c-22.7 -41 -58.7 -83 -93.9 -84l-73.6 -3l-2.4 3l4 19c1.5 7 7.7 8 11.7 8l8.3 1c27.6 3 75.8 70 97.9 108c24.7 41 50.2 62 79.5 68c-55 0 -119.6 35 -104.5 106c6.2 29 43.9 122 204.9 122c37 0 54.4 -3 90.4 -3
c35 0 49.6 3 49.6 3l0.400024 -3c-20.5 -54 -32.3 -105 -47.8 -178z" />
    <glyph glyph-name="uni04AE" unicode="&#x4ae;" horiz-adv-x="591" 
d="M395 285.6c-20.2 -99.1 -47.5 -240.7 -53.6 -288.6c-15.4 3 -36.4 3 -51.4 3s-35 0 -51.6 -3c17.5 55.5 45.1 180.5 66 278.1c-24.2 65.1 -123.5 312.9 -150.7 372.9c16.4 -3 39.4 -3 56.4 -3s40 0 57.6 3c31.3 -105.4 69.7 -199.3 109.8 -307.8
c77.1 90.9 167.4 203 240.2 307.8c11.4 -3 28.4 -3 41.4 -3c12 0 29 0 42.6 3c-159.9 -184.5 -248.7 -282.5 -306.7 -362.4z" />
    <glyph glyph-name="uni04C0" unicode="&#x4c0;" horiz-adv-x="293" 
d="M200.6 445c15.9 75 28.4 143 32.5 200l2.59999 3s16.4 -3 50.4 -3c35 0 52.7 3 52.7 3l0.300018 -3c-19.3 -53 -36.6 -125 -52.5 -200l-52.1 -245c-15.9 -75 -28.4 -143 -32.5 -200l-2.60001 -3s-16.4 3 -50.4 3c-35 0 -52.6 -3 -52.6 -3l-0.400002 3
c19.5 54 36.6 125 52.5 200z" />
    <glyph glyph-name="uni04D0" unicode="&#x4d0;" horiz-adv-x="633" 
d="M486 729c33 0 59.6 17 63.2 34c1.09998 5 1.29999 11 1.70001 13c3.19995 15 16.4 30 39.4 30c27 0 34 -14 30 -33c-11.1 -52 -74.9 -75 -140.9 -75c-66 0 -120.2 23 -109.1 75c4 19 17 33 44 33c23 0 29.8 -15 26.6 -30c-0.399994 -2 -2.60001 -8 -3.69998 -13
c-3.60001 -17 15.8 -34 48.8 -34zM229.5 228.3c-54.3 -87.5 -102.7 -170 -132.1 -231.3c-11.4 3 -33.4 3 -44.4 3s-23 0 -35.6 -3c148 221 292.3 439 435.5 661h28c45.5 -219 105 -560 133.5 -661c-16.4 3 -42.4 3 -59.4 3s-33 0 -50.6 -3
c-1.39999 22.2 -7.39999 100.2 -28.6 231.3c-37.5 0.899994 -78.9 1.7 -116.9 1.7c-34.5 0 -91.2 -0.800003 -129.4 -1.7zM467.9 275.5c-12 69.7 -28 151.9 -49 246.3h-2c-48 -74.6 -104.3 -161.3 -157.6 -245.9c31.7 -0.399994 75 -1.89999 103.9 -1.89999
c29.7 0 71.7 0.700012 104.7 1.5z" />
    <glyph glyph-name="uni04D1" unicode="&#x4d1;" horiz-adv-x="461" 
d="M452.6 577c-11.7 -55 -76.7 -88 -140.7 -88c-65 0 -113 33 -101.5 87c3.8 18 23 33 46 33c22 0 31.1 -14 27.7 -30c-0.600006 -3 -1.10001 -5 -2.70001 -8s-2.39999 -6 -2.79999 -8c-4.70001 -22 10.9 -43 40.9 -43c29 0 54.3 20 59 42c0.600006 3 1.29999 6 0.899994 9
c-0.600006 2 -0.100006 4 0.5 7c3.60001 17 23.5 31 41.5 31c24 0 35.2 -13 31.2 -32zM339.4 223l-84.5 -21c-78 -19 -100.6 -55 -110.2 -100c-6.59999 -31 11 -61 53 -61c28 0 64.7 22 95.2 43c9.30002 6 16.7 13 19.5 26zM384.2 76c-4.30002 -20 -1.60001 -31 9.39999 -31
c14 0 29.9 14 40.4 21l2.60001 -2l11.5 -21c-39.5 -40 -68.2 -53 -99.2 -53c-47 0 -49.1 42 -47.7 58h-2c-59.6 -45 -89.3 -58 -141.3 -58c-70 0 -110.8 34 -95.1 108c14.5 68 87 122 187.9 145l92.4 21c3.19998 1 7.10001 5 8.60001 12c24 113 -31 118 -65 118
c-45 0 -96.3 -44 -131.9 -89l-12.8 1l-1.7 67l3.8 4c28.5 21 89.2 62 161.2 62c72 0 154.3 -27 125.6 -162c-2.29999 -11 -40.5 -172 -46.7 -201z" />
    <glyph glyph-name="uni04D2" unicode="&#x4d2;" horiz-adv-x="633" 
d="M364.1 758c5.29999 25 30.8 46 55.8 46s41.5 -21 36.2 -46c-5.30002 -25 -30.8 -46 -55.8 -46s-41.5 21 -36.2 46zM524.1 758c5.30005 25 30.8 46 55.8 46s41.5 -21 36.2 -46c-5.29999 -25 -30.8 -46 -55.8 -46s-41.5 21 -36.2 46zM229.5 228.3
c-54.3 -87.5 -102.7 -170 -132.1 -231.3c-11.4 3 -33.4 3 -44.4 3s-23 0 -35.6 -3c148 221 292.3 439 435.5 661h28c45.5 -219 105 -560 133.5 -661c-16.4 3 -42.4 3 -59.4 3s-33 0 -50.6 -3c-1.39999 22.2 -7.39999 100.2 -28.6 231.3c-37.5 0.899994 -78.9 1.7 -116.9 1.7
c-34.5 0 -91.2 -0.800003 -129.4 -1.7zM467.9 275.5c-12 69.7 -28 151.9 -49 246.3h-2c-48 -74.6 -104.3 -161.3 -157.6 -245.9c31.7 -0.399994 75 -1.89999 103.9 -1.89999c29.7 0 71.7 0.700012 104.7 1.5z" />
    <glyph glyph-name="uni04D3" unicode="&#x4d3;" horiz-adv-x="461" 
d="M208.8 573c5.3 25 30.8 46 55.8 46s41.5 -21 36.2 -46c-5.29999 -25 -30.8 -46 -55.8 -46s-41.5 21 -36.2 46zM368.8 573c5.30002 25 30.8 46 55.8 46s41.5 -21 36.2 -46c-5.29999 -25 -30.8 -46 -55.8 -46s-41.5 21 -36.2 46zM339.4 223l-84.5 -21
c-78 -19 -100.6 -55 -110.2 -100c-6.59999 -31 11 -61 53 -61c28 0 64.7 22 95.2 43c9.30002 6 16.7 13 19.5 26zM384.2 76c-4.30002 -20 -1.60001 -31 9.39999 -31c14 0 29.9 14 40.4 21l2.60001 -2l11.5 -21c-39.5 -40 -68.2 -53 -99.2 -53c-47 0 -49.1 42 -47.7 58h-2
c-59.6 -45 -89.3 -58 -141.3 -58c-70 0 -110.8 34 -95.1 108c14.5 68 87 122 187.9 145l92.4 21c3.19998 1 7.10001 5 8.60001 12c24 113 -31 118 -65 118c-45 0 -96.3 -44 -131.9 -89l-12.8 1l-1.7 67l3.8 4c28.5 21 89.2 62 161.2 62c72 0 154.3 -27 125.6 -162
c-2.29999 -11 -40.5 -172 -46.7 -201z" />
    <glyph glyph-name="uni04D4" unicode="&#x4d4;" horiz-adv-x="802" 
d="M281.2 278.5c-74.1 -106.7 -141 -209.4 -183.8 -281.5c-11.4 3 -33.4 3 -44.4 3s-23 0 -35.6 -3c149.1 203 290.8 413 485.9 648.7l0.100006 -0.400024l2.30002 2.70001s16.4 -3 50.4 -3h213c21 0 44.2 1 60.6 3l1.39996 -3c-4 -14 -6.89996 -23 -8.59998 -31
c-1.90002 -9 -2.79999 -18 -3.5 -26l-2.90002 -4s-75.1 10.3 -180.8 10.3c-75.5 0 -91.6 -9 -94.9 -48.8c-0.800049 -70.4 -0.300049 -143.1 1 -212.5c112.2 0.200012 167.9 5.10001 226.5 10l2.39996 -3c-3.89996 -9 -7.09998 -19 -9 -28c-1.89996 -9 -3 -19 -2.89996 -28
l-3.70001 -3c-60 6.20001 -157.7 9.29999 -212.4 9.89999c2.10004 -91 5.60004 -174 9.10004 -235.1c100.5 3.4 214.6 10.2 214.6 10.2l1.20001 -4c-2.70001 -8 -6.90002 -23 -9 -33c-2.10004 -10 -2.20001 -15 -4.20001 -29l-2.59998 -3c-15.6 2 -38.4 3 -59.4 3h-137h-1.5
h-53.5c-17 0 -33 0 -50.6 -3c7.60001 35.7 12.1 120.3 15.9 282.4c-22.1 0.399994 -44.5 0.600006 -65.8 0.600006c-31.3 0 -80.9 -0.700012 -118.3 -1.5zM466.3 324.7c1.20001 60 2.40002 129.2 3.60001 208.8h-2c-49.9 -64 -102.8 -135.9 -153.6 -207.8
c29.5 -0.600006 64.8 -1.70001 89.6 -1.70001c17.9 0 40.2 0.299988 62.4 0.700012z" />
    <glyph glyph-name="uni04D5" unicode="&#x4d5;" horiz-adv-x="687" 
d="M341.7 215c-135.6 -12 -187.4 -58 -198.2 -109c-9.60001 -45 10 -66 57 -66c36 0 83.5 21 105.8 60c10.2 17.9 24.8 65 35.4 115zM429.8 258c141.7 8 184.2 -13 197.2 48c6.79999 32 -6.29999 88 -54.3 88c-63 0 -116.8 -51 -142.9 -136zM285.7 394
c-44.5 0 -96.3 -44 -131.9 -89l-12.8 1l-1.7 67l3.8 4c28.9 20.5 88.7 62 161.2 62c24 0 99.3 -3 122.1 -70c42.6 45 99.9 70 156.9 70c114 0 135.6 -96 128.4 -130c-6.60004 -30.9 -17.7 -55 -41.3 -72c-39.9 -19.7 -113 -11.6 -250.1 -19c-22.5 -106 12.1 -174 87.1 -174
c54 0 100 33 137.4 68l14.1 -28c-40.5 -54 -111 -94 -177 -94c-91 0 -114.7 44 -129.4 69c-55.4 -44 -109.6 -69 -164.6 -69c-105 0 -141.9 43 -127.4 111c17.6 83 117.1 142 289.7 154c18.7 93.6 8.29999 139 -64.5 139z" />
    <glyph glyph-name="uni04D6" unicode="&#x4d6;" horiz-adv-x="522" 
d="M429 729c33 0 59.6 17 63.2 34c1.09998 5 1.29999 11 1.69998 13c3.20001 15 16.4 30 39.4 30c27 0 34 -14 30 -33c-11.1 -52 -74.9 -75 -140.9 -75s-120.2 23 -109.1 75c4 19 17 33 44 33c23 0 29.8 -15 26.6 -30c-0.399994 -2 -2.60001 -8 -3.69998 -13
c-3.60001 -17 15.8 -34 48.8 -34zM224.5 200c-3.60001 -17 -24.9 -122 -23 -146c134 0 284.5 12 284.5 12l1.20001 -4c-2.70001 -8 -6.90002 -23 -9 -33c-2.10001 -10 -2.20001 -15 -4.20001 -29l-2.60001 -3c-15.6 2 -38.4 3 -59.4 3h-273c-35 0 -52.6 -3 -52.6 -3
l-0.400002 3c19.5 54 36.6 125 52.5 200l52.1 245c15.9 75 28.4 143 32.5 200l2.59999 3s16.4 -3 50.4 -3h263c21 0 44.2 1 60.6 3l1.39996 -3c-4 -14 -6.89996 -23 -8.59998 -31c-1.90002 -9 -2.79999 -18 -3.5 -26l-2.90002 -4s-135.4 12 -269.4 12
c-12.1 -24 -36.5 -134 -40.1 -151l-17.4 -82c118 0 165 5 225.1 10l2.30002 -3c-3.89999 -9 -7 -19 -8.89999 -28c-1.90002 -9 -3.10001 -19 -3 -28l-3.60001 -3c-67.5 7 -172.9 10 -220.9 10z" />
    <glyph glyph-name="uni04D7" unicode="&#x4d7;" horiz-adv-x="442" 
d="M467.6 577c-11.7 -55 -76.7 -88 -140.7 -88c-65 0 -113 33 -101.5 87c3.8 18 23 33 46 33c22 0 31.1 -14 27.7 -30c-0.600006 -3 -1.10001 -5 -2.70001 -8s-2.39999 -6 -2.79999 -8c-4.70001 -22 10.9 -43 40.9 -43c29 0 54.3 20 59 42c0.600006 3 1.29999 6 0.899994 9
c-0.600006 2 -0.100006 4 0.5 7c3.60001 17 23.5 31 41.5 31c24 0 35.2 -13 31.2 -32zM186 287h181c10 0 15.1 5 17 14c15.9 75 -24.2 98 -60.2 98c-23 0 -98.7 -8 -137.8 -112zM418.3 105l14.5 -26c-49.1 -52 -117.9 -89 -189.9 -89c-137 0 -191 94 -166.6 209
c32.3 152 161 240 256 240c132 0 149.9 -95 132 -179c-2.29999 -11 -10.6 -17 -21.6 -17h-269c-31.7 -149 45.7 -194 101.7 -194c55 0 99.8 18 142.9 56z" />
    <glyph glyph-name="uni04D8" unicode="&#x4d8;" horiz-adv-x="644" 
d="M208.2 523l-17.9 24c94.7 74 149.6 111 259.6 111c215 0 264.2 -173 230.4 -332c-41.4 -195 -173.9 -338 -366.9 -338c-192 0 -235.3 130 -216.1 272h478c3.29999 11 5.79999 23 8.79999 37c39.5 186 -22.5 327 -157.5 327c-93 0 -154.3 -49 -218.4 -101zM167.9 216
c3.40001 -130 61.8 -194 159.8 -194c106 0 189.9 94 229.2 194h-389z" />
    <glyph glyph-name="afii10846" unicode="&#x4d9;" horiz-adv-x="442" 
d="M333 141h-181c-10 0 -15.1 -5 -17 -14c-15.9 -75 24.2 -98 60.2 -98c23 0 98.7 8 137.8 112zM100.7 323l-14.5 26c49.1 52 117.9 89 189.9 89c137 0 191 -94 166.6 -209c-32.3 -152 -161 -240 -256 -240c-132 0 -149.9 95 -132 179c2.3 11 10.6 17 21.6 17h269
c31.7 149 -45.7 194 -101.7 194c-55 0 -99.8 -18 -142.9 -56z" />
    <glyph glyph-name="uni04DA" unicode="&#x4da;" horiz-adv-x="644" 
d="M531.8 752c5.5 26 32.2 48 58.2 48s43.3 -22 37.8 -48s-32.2 -48 -58.2 -48s-43.3 22 -37.8 48zM342.8 752c5.5 26 32.2 48 58.2 48s43.3 -22 37.8 -48s-32.2 -48 -58.2 -48s-43.3 22 -37.8 48zM208.2 523l-17.9 24c94.7 74 149.6 111 259.6 111
c215 0 264.2 -173 230.4 -332c-41.4 -195 -173.9 -338 -366.9 -338c-192 0 -235.3 130 -216.1 272h478c3.29999 11 5.79999 23 8.79999 37c39.5 186 -22.5 327 -157.5 327c-93 0 -154.3 -49 -218.4 -101zM167.9 216c3.40001 -130 61.8 -194 159.8 -194
c106 0 189.9 94 229.2 194h-389z" />
    <glyph glyph-name="uni04DB" unicode="&#x4db;" horiz-adv-x="442" 
d="M208.8 573c5.3 25 30.8 46 55.8 46s41.5 -21 36.2 -46c-5.29999 -25 -30.8 -46 -55.8 -46s-41.5 21 -36.2 46zM368.8 573c5.30002 25 30.8 46 55.8 46s41.5 -21 36.2 -46c-5.29999 -25 -30.8 -46 -55.8 -46s-41.5 21 -36.2 46zM333 141h-181c-10 0 -15.1 -5 -17 -14
c-15.9 -75 24.2 -98 60.2 -98c23 0 98.7 8 137.8 112zM100.7 323l-14.5 26c49.1 52 117.9 89 189.9 89c137 0 191 -94 166.6 -209c-32.3 -152 -161 -240 -256 -240c-132 0 -149.9 95 -132 179c2.3 11 10.6 17 21.6 17h269c31.7 149 -45.7 194 -101.7 194
c-55 0 -99.8 -18 -142.9 -56z" />
    <glyph glyph-name="uni04E0" unicode="&#x4e0;" horiz-adv-x="608" 
d="M304.1 645h355c21 0 26.7 -6 25 -14c-2.09998 -10 -11.5 -26 -23.7 -41l-232.2 -302c128.3 -27 170.2 -126 146.6 -237c-29.5 -139 -187.6 -262 -347.6 -262c-80 0 -222.6 35 -208.6 101c4.9 23 20.6 50 54.6 50c27 0 52.1 -14 60.6 -35c21.6 -49 65.2 -79 120.2 -79
c87 0 209.7 121 229.9 216c33.8 159 -69.7 213 -138.7 213c-16 0 -27 0 -41.6 -3l271 353h-249c-74.2 -1 -120.8 -84 -134.2 -128l-25.6 2l61 188c21.9 -5 53.3 -22 77.3 -22z" />
    <glyph glyph-name="uni04E1" unicode="&#x4e1;" horiz-adv-x="416" 
d="M149.7 107l229.3 288h-145c-30 0 -68.5 -21 -104 -94l-25.4 3c18.4 49 33.8 93 44.4 138h25c0.699997 -6 8.2 -13 23.2 -13h203c29 0 66.3 6 68.3 6c7 0 12.5 -2 11.7 -6c-0.900024 -4 -9.20001 -15 -30.9 -42l-204.2 -250c96 0 165.7 -53 143.2 -159
c-25.3 -119 -130.3 -213 -253.3 -213c-85 0 -130 61 -123.2 93c3.8 18 17.7 36 39.7 36c23 0 33.8 -10 36.7 -34c3.3 -22 22.3 -60 62.3 -60c50 0 130.4 54 153.4 162c21.5 101 -1 141 -79 141c-11 0 -42.5 -7 -61.3 -11z" />
    <glyph glyph-name="uni04E6" unicode="&#x4e6;" horiz-adv-x="721" 
d="M557.8 752c5.5 26 32.2 48 58.2 48s43.3 -22 37.8 -48s-32.2 -48 -58.2 -48s-43.3 22 -37.8 48zM368.8 752c5.5 26 32.2 48 58.2 48s43.3 -22 37.8 -48s-32.2 -48 -58.2 -48s-43.3 22 -37.8 48zM475.5 614c-96 0 -216.4 -77 -261 -287c-40.8 -192 51.7 -293 171.7 -293
c114 0 217.7 97 255.7 276c44.2 208 -25.4 304 -166.4 304zM748.9 329c-42.5 -200 -201 -339 -392 -339c-172 0 -290.9 123 -249 320c41.7 196 211 348 390 348c180 0 293.1 -131 251 -329z" />
    <glyph glyph-name="uni04E7" unicode="&#x4e7;" horiz-adv-x="510" 
d="M79.6 205c29.1 137 139.7 234 270.7 234c157 0 191.3 -121 169.2 -225c-22.7 -107 -123.6 -224 -266.6 -224c-138 0 -196.7 105 -173.3 215zM334.6 398c-86 0 -141.6 -83 -160.1 -170c-16.4 -77 -2.89999 -197 101.1 -197c45 0 121.7 32 148.1 156
c31.2 147 -4.10001 211 -89.1 211zM250 574c5.3 25 30.8 46 55.8 46s41.5 -21 36.2 -46s-30.8 -46 -55.8 -46s-41.5 21 -36.2 46zM410 574c5.29999 25 30.8 46 55.8 46s41.5 -21 36.2 -46s-30.8 -46 -55.8 -46s-41.5 21 -36.2 46z" />
    <glyph glyph-name="uni04E8" unicode="&#x4e8;" horiz-adv-x="721" 
d="M748.9 329c-42.5 -200 -201 -339 -392 -339c-172 0 -290.9 123 -249 320c41.7 196 211 348 390 348c180 0 293.1 -131 251 -329zM650.5 358.6c23.8 174.4 -45.5 255.4 -175 255.4c-95.3 0 -214.6 -75.8 -260 -282.2c44.6 26.1 101.9 38.2 136.1 38.2
c98 0 118.1 -47 181.1 -47c31.6 0 80.4 12.4 117.8 35.6zM643.2 316.3c-50.3 -38.7 -102.8 -50.3 -140.7 -50.3c-92 0 -106.2 46 -181.2 46c-26.9 0 -74.9 -4.29999 -113.3 -22.8c-21.7 -167.5 66.3 -255.2 178.2 -255.2c114 0 217.7 97 255.7 276
c0.399963 2.10001 0.899963 4.20001 1.29999 6.29999z" />
    <glyph glyph-name="uni04E9" unicode="&#x4e9;" horiz-adv-x="510" 
d="M426.6 219c-21.8 -13 -73.6 -40 -114.6 -40c-43 0 -71 28 -106 28c-7.60001 0 -23.4 -2.8 -35.7 -4.89999c-8.3 -75.3 12.4 -171.1 105.3 -171.1c45 0 121.7 32 148.1 156c31.2 147 -4.10001 211 -89.1 211c-85.2 0 -140.6 -81.4 -159.6 -167.5
c25.2 10 63.6 18.5 90.9 18.5c45 0 62.8 -20 100.8 -20c22 0 45.7 8 62.2 15zM79.6 205c29.1 137 139.7 234 270.7 234c157 0 191.3 -121 169.2 -225c-22.7 -107 -123.6 -224 -266.6 -224c-138 0 -196.7 105 -173.3 215z" />
    <glyph glyph-name="uni04EA" unicode="&#x4ea;" horiz-adv-x="721" 
d="M555.3 754c5.5 26 32.2 48 58.2 48s43.3 -22 37.8 -48s-32.2 -48 -58.2 -48s-43.3 22 -37.8 48zM366.3 754c5.5 26 32.2 48 58.2 48s43.3 -22 37.8 -48s-32.2 -48 -58.2 -48s-43.3 22 -37.8 48zM748.9 329c-42.5 -200 -201 -339 -392 -339c-172 0 -290.9 123 -249 320
c41.7 196 211 348 390 348c180 0 293.1 -131 251 -329zM650.5 358.6c23.8 174.4 -45.5 255.4 -175 255.4c-95.3 0 -214.6 -75.8 -260 -282.2c44.6 26.1 101.9 38.2 136.1 38.2c98 0 118.1 -47 181.1 -47c31.6 0 80.4 12.4 117.8 35.6zM643.2 316.3
c-50.3 -38.7 -102.8 -50.3 -140.7 -50.3c-92 0 -106.2 46 -181.2 46c-26.9 0 -74.9 -4.29999 -113.3 -22.8c-21.7 -167.5 66.3 -255.2 178.2 -255.2c114 0 217.7 97 255.7 276c0.399963 2.10001 0.899963 4.20001 1.29999 6.29999z" />
    <glyph glyph-name="uni04EB" unicode="&#x4eb;" horiz-adv-x="510" 
d="M426.6 219c-21.8 -13 -73.6 -40 -114.6 -40c-43 0 -71 28 -106 28c-7.60001 0 -23.4 -2.8 -35.7 -4.89999c-8.3 -75.3 12.4 -171.1 105.3 -171.1c45 0 121.7 32 148.1 156c31.2 147 -4.10001 211 -89.1 211c-85.2 0 -140.6 -81.4 -159.6 -167.5
c25.2 10 63.6 18.5 90.9 18.5c45 0 62.8 -20 100.8 -20c22 0 45.7 8 62.2 15zM79.6 205c29.1 137 139.7 234 270.7 234c157 0 191.3 -121 169.2 -225c-22.7 -107 -123.6 -224 -266.6 -224c-138 0 -196.7 105 -173.3 215zM251.8 573c5.3 25 30.8 46 55.8 46
s41.5 -21 36.2 -46c-5.29999 -25 -30.8 -46 -55.8 -46s-41.5 21 -36.2 46zM411.8 573c5.30002 25 30.8 46 55.8 46s41.5 -21 36.2 -46c-5.29999 -25 -30.8 -46 -55.8 -46s-41.5 21 -36.2 46z" />
    <glyph glyph-name="uni04EF" unicode="&#x4ef;" horiz-adv-x="486" 
d="M109.8 432c13.4 -3 38.4 -3 51.4 -3c14 0 36 0 49.6 3c13.1 -114.2 36.6 -225.5 60.5 -344.4h2c70.6 103.6 144.4 231.4 204.5 344.4c9.40002 -3 28.4 -3 38.4 -3s33 0 43.6 3c-47.2 -67 -367.6 -544 -432.2 -669c-9.4 3 -37.9 5 -47.9 5s-25.5 -2 -36.1 -5
c61.2 75.3 110.3 143.2 158.2 217.9c-15.2 95.1 -71.1 362.3 -92 451.1zM481.4 538h-244c-9 0 -11.4 8 -9.89999 15c2.60001 12 17.2 29 28.2 29h245c10 0 12.3 -8 11 -14c-2.5 -12 -17.3 -30 -30.3 -30z" />
    <glyph glyph-name="uni04F1" unicode="&#x4f1;" horiz-adv-x="486" 
d="M109.8 432c13.4 -3 38.4 -3 51.4 -3c14 0 36 0 49.6 3c13.1 -114.2 36.6 -225.5 60.5 -344.4h2c70.6 103.6 144.4 231.4 204.5 344.4c9.40002 -3 28.4 -3 38.4 -3s33 0 43.6 3c-47.2 -67 -367.6 -544 -432.2 -669c-9.4 3 -37.9 5 -47.9 5s-25.5 -2 -36.1 -5
c61.2 75.3 110.3 143.2 158.2 217.9c-15.2 95.1 -71.1 362.3 -92 451.1zM256.8 573c5.30002 25 30.8 46 55.8 46s41.5 -21 36.2 -46c-5.29999 -25 -30.8 -46 -55.8 -46s-41.5 21 -36.2 46zM416.8 573c5.30002 25 30.8 46 55.8 46s41.5 -21 36.2 -46s-30.8 -46 -55.8 -46
s-41.5 21 -36.2 46z" />
    <glyph glyph-name="uni04F3" unicode="&#x4f3;" horiz-adv-x="486" 
d="M109.8 432c13.4 -3 38.4 -3 51.4 -3c14 0 36 0 49.6 3c13.1 -114.2 36.6 -225.5 60.5 -344.4h2c70.6 103.6 144.4 231.4 204.5 344.4c9.40002 -3 28.4 -3 38.4 -3s33 0 43.6 3c-47.2 -67 -367.6 -544 -432.2 -669c-9.4 3 -37.9 5 -47.9 5s-25.5 -2 -36.1 -5
c61.2 75.3 110.3 143.2 158.2 217.9c-15.2 95.1 -71.1 362.3 -92 451.1zM574.7 615c-1.29999 -6 -3.70001 -13 -11 -19l-137.4 -110c-2.39999 -2 -4.39999 -2 -6.39999 -2c-5 0 -13 5 -11.3 13c0.199982 1 0.699982 3 1.89999 4l107.5 139c6.90002 9 14.6 12 26.6 12
c21 0 34.1 -18.4 30.1 -37zM444 621c-1.10001 -5 -3.29999 -11 -8.39999 -16l-127.7 -121c-2.39999 -2 -5.69998 -3 -8.69998 -3c-6 0 -12.9 5 -11.2 13c0.200012 1 0.399994 2 1.60001 3l95.1 146c8.79999 13 24.9 14 28.9 14c20.9 0 34.8 -15.5 30.4 -36z" />
    <glyph glyph-name="uni1E00" unicode="&#x1e00;" horiz-adv-x="633" 
d="M291.8 -76c-31 0 -55.5 -26 -61.9 -56c-6 -28 7.10001 -56 38.1 -56s55.9 28 61.9 56c6.60001 31 -8.10001 56 -38.1 56zM192.9 -132c9.8 46 58.7 83 104.7 83s79.3 -36 69.3 -83c-9.60001 -45 -56.6 -83 -104.6 -83c-46 0 -79.2 37 -69.4 83zM229.5 228.3
c-54.3 -87.5 -102.7 -170 -132.1 -231.3c-11.4 3 -33.4 3 -44.4 3s-23 0 -35.6 -3c148 221 292.3 439 435.5 661h28c45.5 -219 105 -560 133.5 -661c-16.4 3 -42.4 3 -59.4 3s-33 0 -50.6 -3c-1.39999 22.2 -7.39999 100.2 -28.6 231.3c-37.5 0.899994 -78.9 1.7 -116.9 1.7
c-34.5 0 -91.2 -0.800003 -129.4 -1.7zM467.9 275.5c-12 69.7 -28 151.9 -49 246.3h-2c-48 -74.6 -104.3 -161.3 -157.6 -245.9c31.7 -0.399994 75 -1.89999 103.9 -1.89999c29.7 0 71.7 0.700012 104.7 1.5z" />
    <glyph glyph-name="uni1E01" unicode="&#x1e01;" horiz-adv-x="461" 
d="M207.6 -77c-31 0 -55.5 -26 -61.9 -56c-6 -28 7.10001 -56 38.1 -56s55.9 28 61.9 56c6.60001 31 -8.09999 56 -38.1 56zM108.7 -133c9.8 46 58.7 83 104.7 83s79.3 -36 69.3 -83c-9.60001 -45 -56.6 -83 -104.6 -83c-46 0 -79.2 37 -69.4 83zM339.4 223l-84.5 -21
c-78 -19 -100.6 -55 -110.2 -100c-6.59999 -31 11 -61 53 -61c28 0 64.7 22 95.2 43c9.30002 6 16.7 13 19.5 26zM384.2 76c-4.30002 -20 -1.60001 -31 9.39999 -31c14 0 29.9 14 40.4 21l2.60001 -2l11.5 -21c-39.5 -40 -68.2 -53 -99.2 -53c-47 0 -49.1 42 -47.7 58h-2
c-59.6 -45 -89.3 -58 -141.3 -58c-70 0 -110.8 34 -95.1 108c14.5 68 87 122 187.9 145l92.4 21c3.19998 1 7.10001 5 8.60001 12c24 113 -31 118 -65 118c-45 0 -96.3 -44 -131.9 -89l-12.8 1l-1.7 67l3.8 4c28.5 21 89.2 62 161.2 62c72 0 154.3 -27 125.6 -162
c-2.29999 -11 -40.5 -172 -46.7 -201z" />
    <glyph glyph-name="uni1E02" unicode="&#x1e02;" horiz-adv-x="582" 
d="M389.5 741c5.70001 27 34.8 51 61.8 51s45.9 -24 40.2 -51s-34.8 -51 -61.8 -51s-45.9 24 -40.2 51zM307.8 559l-39.9 -188h72c83 0 139.2 25 157.3 110c21.7 102 -38.8 123 -94.8 123c-81 0 -87.5 -11.7 -94.6 -45zM258.5 327l-50.8 -239c-7 -33 1 -47 71 -47
c152 0 182.9 51 198.4 124c19.1 90 -14.6 162 -131.6 162h-87zM283.1 645c47.2 0 86.6 3 121.6 3c186 0 196.3 -88 182.1 -155c-11.7 -55 -65 -108 -121.3 -133c81.7 -25 135 -80 114.6 -176c-18.3 -86 -92.7 -187 -291.7 -187c-89 0 -86.6 3 -142.4 3
c-35 0 -52.6 -3 -52.6 -3l-0.400002 3c19.5 54 36.6 125 52.5 200l52.1 245c15.9 75 28.4 143 32.5 200l2.59999 3s16.4 -3 50.4 -3z" />
    <glyph glyph-name="uni1E03" unicode="&#x1e03;" horiz-adv-x="497" 
d="M335.4 571c5.70001 27 34.8 51 61.8 51s45.9 -24 40.2 -51c-5.69998 -27 -34.9 -51 -61.9 -51s-45.8 24 -40.1 51zM172.2 81c14.7 -25 34 -47 65 -47c95 0 161.2 76 185.4 190c20.6 97 -19.8 161 -80.8 161c-11 0 -66.4 -2 -113.9 -42zM261.3 500l-24.7 -116
c41.9 37 88.7 55 136.7 55c87 0 164 -75 138.1 -197c-33.8 -159 -175.5 -252 -277.5 -252c-43 0 -70.5 12 -94.2 37c-17.3 -13 -29.3 -25 -41.3 -39c-9.5 0 -24.7 1.2 -29.9 5c8.9 21.8 13.3 39 21.6 78l87.4 411c16.2 76 28.5 145.3 29.9 188l2.70001 3
c41.1 3 67.1 15 94.3 25c6.30002 0 8.30002 -3 6.80002 -10c-20.7 -61.3 -34.2 -114 -49.9 -188z" />
    <glyph glyph-name="uni1E04" unicode="&#x1e04;" horiz-adv-x="582" 
d="M194.6 -115c5.7 27 34.8 51 61.8 51s45.9 -24 40.2 -51c-5.70001 -27 -34.9 -51 -61.9 -51c-27 0 -45.8 24 -40.1 51zM307.8 559l-39.9 -188h72c83 0 139.2 25 157.3 110c21.7 102 -38.8 123 -94.8 123c-81 0 -87.5 -11.7 -94.6 -45zM258.5 327l-50.8 -239
c-7 -33 1 -47 71 -47c152 0 182.9 51 198.4 124c19.1 90 -14.6 162 -131.6 162h-87zM283.1 645c47.2 0 86.6 3 121.6 3c186 0 196.3 -88 182.1 -155c-11.7 -55 -65 -108 -121.3 -133c81.7 -25 135 -80 114.6 -176c-18.3 -86 -92.7 -187 -291.7 -187c-89 0 -86.6 3 -142.4 3
c-35 0 -52.6 -3 -52.6 -3l-0.400002 3c19.5 54 36.6 125 52.5 200l52.1 245c15.9 75 28.4 143 32.5 200l2.59999 3s16.4 -3 50.4 -3z" />
    <glyph glyph-name="uni1E05" unicode="&#x1e05;" horiz-adv-x="497" 
d="M149.6 -115c5.7 27 34.8 51 61.8 51s45.9 -24 40.2 -51c-5.70001 -27 -34.9 -51 -61.9 -51s-45.8 24 -40.1 51zM172.2 81c14.7 -25 34 -47 65 -47c95 0 161.2 76 185.4 190c20.6 97 -19.8 161 -80.8 161c-11 0 -66.4 -2 -113.9 -42zM261.3 500l-24.7 -116
c41.9 37 88.7 55 136.7 55c87 0 164 -75 138.1 -197c-33.8 -159 -175.5 -252 -277.5 -252c-43 0 -70.5 12 -94.2 37c-17.3 -13 -29.3 -25 -41.3 -39c-9.5 0 -24.7 1.2 -29.9 5c8.9 21.8 13.3 39 21.6 78l87.4 411c16.2 76 28.5 145.3 29.9 188l2.70001 3
c41.1 3 67.1 15 94.3 25c6.30002 0 8.30002 -3 6.80002 -10c-20.7 -61.3 -34.2 -114 -49.9 -188z" />
    <glyph glyph-name="uni1E06" unicode="&#x1e06;" horiz-adv-x="582" 
d="M370.5 -106h-245c-8 0 -10.3 8 -8.8 15c2.60001 12 16.1 29 28.1 29h245c9 0 11.5 -7 10 -14c-2.59998 -12 -16.3 -30 -29.3 -30zM307.8 559l-39.9 -188h72c83 0 139.2 25 157.3 110c21.7 102 -38.8 123 -94.8 123c-81 0 -87.5 -11.7 -94.6 -45zM258.5 327l-50.8 -239
c-7 -33 1 -47 71 -47c152 0 182.9 51 198.4 124c19.1 90 -14.6 162 -131.6 162h-87zM283.1 645c47.2 0 86.6 3 121.6 3c186 0 196.3 -88 182.1 -155c-11.7 -55 -65 -108 -121.3 -133c81.7 -25 135 -80 114.6 -176c-18.3 -86 -92.7 -187 -291.7 -187c-89 0 -86.6 3 -142.4 3
c-35 0 -52.6 -3 -52.6 -3l-0.400002 3c19.5 54 36.6 125 52.5 200l52.1 245c15.9 75 28.4 143 32.5 200l2.59999 3s16.4 -3 50.4 -3z" />
    <glyph glyph-name="uni1E07" unicode="&#x1e07;" horiz-adv-x="497" 
d="M339.6 -110h-245c-8 0 -10.3 8 -8.8 15c2.6 12 16.2 29 28.2 29h245c9 0 11.5 -7 10 -14c-2.60001 -12 -16.4 -30 -29.4 -30zM172.2 81c14.7 -25 34 -47 65 -47c95 0 161.2 76 185.4 190c20.6 97 -19.8 161 -80.8 161c-11 0 -66.4 -2 -113.9 -42zM261.3 500l-24.7 -116
c41.9 37 88.7 55 136.7 55c87 0 164 -75 138.1 -197c-33.8 -159 -175.5 -252 -277.5 -252c-43 0 -70.5 12 -94.2 37c-17.3 -13 -29.3 -25 -41.3 -39c-9.5 0 -24.7 1.2 -29.9 5c8.9 21.8 13.3 39 21.6 78l87.4 411c16.2 76 28.5 145.3 29.9 188l2.70001 3
c41.1 3 67.1 15 94.3 25c6.30002 0 8.30002 -3 6.80002 -10c-20.7 -61.3 -34.2 -114 -49.9 -188z" />
    <glyph glyph-name="uni1E08" unicode="&#x1e08;" horiz-adv-x="650" 
d="M582.1 819c25.8 -13.3 42.7 -30.7 50.9 -52l-156.3 -58c-22.9 -9 -35.5 -12 -44.5 -12s-13.6 7 -11.9 15c1.5 7 4.60001 12 19.5 21zM345.7 -100c-19 0 -29.1 -1 -46.2 -6l-4.79999 6l56.7 90h-2.5c-215 0 -279.1 164 -244.9 325c41.9 197 231.9 343 400.9 343
c122 0 208.4 -45 208.4 -45l1.40002 -3c-22.2 -49.3 -29.2 -60 -43.6 -111l-10.2 -1c-23.6 82 -90 113 -180 113c-82 0 -226.8 -74 -269.9 -277c-31 -146 2.7 -293 157.7 -293c93 0 165.5 21 253.1 99l19.8 -15c-75.7 -77.5 -168 -122.4 -254.6 -132.7l-37.1 -63.3
c8.39999 2 17.6 3 26.6 3c40 0 66 -24 57.9 -62c-9.10001 -43 -61.8 -74 -122.8 -74c-32 0 -47.6 6 -70.3 17c2.59999 12 7 19 15.5 26c24.9 -10 35 -14 55 -14c30 0 54 14 59.5 40c4.5 21 -2.59998 35 -25.6 35z" />
    <glyph glyph-name="uni1E09" unicode="&#x1e09;" horiz-adv-x="437" 
d="M442.6 671c3.19998 1 9.5 2 14.5 2c6.39999 0 31.8 -1 50.1 -23l0.599976 -11l-138.1 -109c-18.2 -15 -27.1 -19 -34.1 -19s-12.7 6 -11.2 13c2.39999 11.2 6.5 15.2 17.4 28zM213 -94c-19 0 -29.2 -1 -46.3 -6l-4.7 6l54.1 85.9c-106.1 13.5 -161 98 -135.9 216.1
c30.2 142 166.1 231 274.1 231c50 0 99.6 -16 127.2 -32l1.39999 -3l-40.5 -82l-13.2 -1c-16.8 45.5 -47 73 -85.5 73c-66 0 -150.4 -54 -173.8 -164c-24.9 -117 33.5 -186 110.5 -186c43 0 82.7 18 123.3 63h4l16.6 -16c-46.9 -67.5 -115.5 -100.1 -174.9 -101l-32.2 -55
c8.40001 2 17.6 3 26.6 3c40 0 65.9 -24 57.8 -62c-9.10001 -43 -61.7 -74 -122.7 -74c-32 0 -47.7 6 -70.4 17c2.6 12 7.1 19 15.6 26c24.9 -10 35 -14 55 -14c30 0 54 14 59.5 40c4.5 21 -2.60001 35 -25.6 35z" />
    <glyph glyph-name="uni1E0A" unicode="&#x1e0a;" horiz-adv-x="698" 
d="M403.4 745c5.70001 27 34.8 51 61.8 51s45.9 -24 40.2 -51c-5.69998 -27 -34.9 -51 -61.9 -51s-45.8 24 -40.1 51zM204.4 82c-6.79999 -32 2.5 -40 100.5 -40c141 0 264.6 40 307.5 242c32.7 154 3 320 -213 320c-49 0 -85.1 -5 -92.5 -40zM281.1 645
c64 0 101.6 3 165.6 3c192 0 313.3 -154 273.8 -340c-52.3 -246 -252.9 -310 -393.9 -310c-103 0 -111.6 2 -182.6 2c-35 0 -52.6 -3 -52.6 -3l-0.400002 3c19.5 54 36.6 125 52.5 200l52.1 245c15.9 75 28.4 143 32.5 200l2.59999 3s16.4 -3 50.4 -3z" />
    <glyph glyph-name="uni1E0B" unicode="&#x1e0b;" horiz-adv-x="514" 
d="M302.4 571c5.70001 27 34.8 51 61.8 51s45.9 -24 40.2 -51c-5.69998 -27 -34.9 -51 -61.9 -51s-45.8 24 -40.1 51zM384.2 109l48 226c-15.9 38 -35.5 59 -82.5 59c-48.4 0 -145.8 -23 -177.7 -173c-26.6 -125 28 -174 82 -174c40.5 0 83.8 15.5 130.2 62zM374.6 64
c-45.9 -46.5 -110.7 -74 -158.7 -74c-108 0 -158.9 90 -132.8 213c28.9 136 157 236 287.2 236c20 0 59.1 -9 79.3 -22l13.9 65c16.2 76 28.5 145.3 29.9 188l2.70001 3c41.1 3 67.1 15 94.3 25c6.29999 0 8.29999 -3 6.79999 -10c-20.7 -61.3 -34.2 -114 -49.9 -188
l-65.5 -308c-15.9 -75 -22.7 -149 -23.8 -192l-2.60001 -3c-12.6 2 -31.3 3 -43.9 3c-14.5 0 -21.4 -1.3 -35.1 -3c-6 0 -8.79999 1 -8.39999 3l8.60001 64h-2z" />
    <glyph glyph-name="uni1E0C" unicode="&#x1e0c;" horiz-adv-x="698" 
d="M214.6 -115c5.7 27 34.8 51 61.8 51s45.9 -24 40.2 -51c-5.70001 -27 -34.9 -51 -61.9 -51c-27 0 -45.8 24 -40.1 51zM204.4 82c-6.79999 -32 2.5 -40 100.5 -40c141 0 264.6 40 307.5 242c32.7 154 3 320 -213 320c-49 0 -85.1 -5 -92.5 -40zM281.1 645
c64 0 101.6 3 165.6 3c192 0 313.3 -154 273.8 -340c-52.3 -246 -252.9 -310 -393.9 -310c-103 0 -111.6 2 -182.6 2c-35 0 -52.6 -3 -52.6 -3l-0.400002 3c19.5 54 36.6 125 52.5 200l52.1 245c15.9 75 28.4 143 32.5 200l2.59999 3s16.4 -3 50.4 -3z" />
    <glyph glyph-name="uni1E0D" unicode="&#x1e0d;" horiz-adv-x="514" 
d="M210.6 -115c5.7 27 34.8 51 61.8 51s45.9 -24 40.2 -51c-5.70001 -27 -34.9 -51 -61.9 -51c-27 0 -45.8 24 -40.1 51zM384.2 109l48 226c-15.9 38 -35.5 59 -82.5 59c-48.4 0 -145.8 -23 -177.7 -173c-26.6 -125 28 -174 82 -174c40.5 0 83.8 15.5 130.2 62zM374.6 64
c-45.9 -46.5 -110.7 -74 -158.7 -74c-108 0 -158.9 90 -132.8 213c28.9 136 157 236 287.2 236c20 0 59.1 -9 79.3 -22l13.9 65c16.2 76 28.5 145.3 29.9 188l2.70001 3c41.1 3 67.1 15 94.3 25c6.29999 0 8.29999 -3 6.79999 -10c-20.7 -61.3 -34.2 -114 -49.9 -188
l-65.5 -308c-15.9 -75 -22.7 -149 -23.8 -192l-2.60001 -3c-12.6 2 -31.3 3 -43.9 3c-14.5 0 -21.4 -1.3 -35.1 -3c-6 0 -8.79999 1 -8.39999 3l8.60001 64h-2z" />
    <glyph glyph-name="uni1E0E" unicode="&#x1e0e;" horiz-adv-x="698" 
d="M377.7 -105h-245c-8 0 -10.3 8 -8.8 15c2.6 12 16.1 29 28.1 29h245c9 0 11.6 -7 10.1 -14c-2.60001 -12 -16.4 -30 -29.4 -30zM204.4 82c-6.79999 -32 2.5 -40 100.5 -40c141 0 264.6 40 307.5 242c32.7 154 3 320 -213 320c-49 0 -85.1 -5 -92.5 -40zM281.1 645
c64 0 101.6 3 165.6 3c192 0 313.3 -154 273.8 -340c-52.3 -246 -252.9 -310 -393.9 -310c-103 0 -111.6 2 -182.6 2c-35 0 -52.6 -3 -52.6 -3l-0.400002 3c19.5 54 36.6 125 52.5 200l52.1 245c15.9 75 28.4 143 32.5 200l2.59999 3s16.4 -3 50.4 -3z" />
    <glyph glyph-name="uni1E0F" unicode="&#x1e0f;" horiz-adv-x="514" 
d="M378.8 -109h-245c-8 0 -10.3 8 -8.8 15c2.6 12 16.2 29 28.2 29h245c9 0 11.5 -7 10 -14c-2.60001 -12 -16.4 -30 -29.4 -30zM384.2 109l48 226c-15.9 38 -35.5 59 -82.5 59c-48.4 0 -145.8 -23 -177.7 -173c-26.6 -125 28 -174 82 -174c40.5 0 83.8 15.5 130.2 62z
M374.6 64c-45.9 -46.5 -110.7 -74 -158.7 -74c-108 0 -158.9 90 -132.8 213c28.9 136 157 236 287.2 236c20 0 59.1 -9 79.3 -22l13.9 65c16.2 76 28.5 145.3 29.9 188l2.70001 3c41.1 3 67.1 15 94.3 25c6.29999 0 8.29999 -3 6.79999 -10
c-20.7 -61.3 -34.2 -114 -49.9 -188l-65.5 -308c-15.9 -75 -22.7 -149 -23.8 -192l-2.60001 -3c-12.6 2 -31.3 3 -43.9 3c-14.5 0 -21.4 -1.3 -35.1 -3c-6 0 -8.79999 1 -8.39999 3l8.60001 64h-2z" />
    <glyph glyph-name="uni1E10" unicode="&#x1e10;" horiz-adv-x="682" 
d="M204.4 82c-6.79999 -32 -3.5 -40 94.5 -40c141 0 254.6 40 297.5 242c32.7 154 13 320 -203 320c-49 0 -79.1 -5 -86.5 -40zM281.1 645c62.3 0 97.3 3 159.6 3c192 0 303.3 -154 263.8 -340c-52.3 -246 -242.9 -310 -383.9 -310c-103 0 -107.7 2 -176.6 2
c-35 0 -52.6 -3 -52.6 -3l-0.400002 3c19.5 54 36.6 125 52.5 200l52.1 245c15.9 75 28.4 143 32.5 200l2.59999 3s16.4 -3 50.4 -3zM311.3 -41c38 0 54.8 -34 43.7 -86c-12.8 -60 -68.1 -90 -127 -99c-4.7 6 -4.8 15 -2.89999 24c51.3 11 82.4 35 86.2 53
c4.30002 20 -7.79999 24 -25.4 26c-16.4 3 -39.5 12 -33.8 39c5.10001 24 30.2 43 59.2 43z" />
    <glyph glyph-name="uni1E11" unicode="&#x1e11;" horiz-adv-x="494" 
d="M365.7 115.3l46.5 219.7c-15.9 38 -35.5 61 -82.5 61c-30.5 0 -73.1 -9.89999 -108.3 -55c-26.6 -34 -58.5 -115.6 -58.5 -188.7c0 -75.7 37 -108.3 88.1 -108.3c32 0 68.3 24.8 114.7 71.3zM354.6 64c-45.9 -46.5 -92.7 -74 -140.7 -74
c-80.3 0 -140.5 65.2 -140.5 160.5c0 99.9 50.1 177.5 109.5 226.7c46.9 38.8 105 61.8 167.4 61.8c20 0 59.1 -9 79.3 -22l13.9 65c16.2 76 30.5 151.3 31.9 194l2.70001 3c41.1 3 62.1 9 89.3 19c6.29999 0 8.29999 -3 6.79999 -10c-19.6 -62 -31.2 -114 -46.9 -188
l-65.5 -308c-17.5 -82.6 -24.6 -134.2 -24.6 -167.2c0 -9.8 0.699982 -17.9 1.79999 -24.8l-2.60001 -3c-12.6 2 -31.3 3 -43.9 3c-14.5 0 -19.4 -1.3 -33.1 -3c-4 0 -6.79999 1 -6.39999 3c0 0 1.29999 38.3 4.60001 64h-3zM221.3 -41c38 0 54.8 -34 43.7 -86
c-12.8 -60 -68.1 -90 -127 -99c-4.7 6 -4.8 15 -2.89999 24c51.3 11 82.4 35 86.2 53c4.3 20 -7.8 24 -25.4 26c-16.4 3 -39.5 12 -33.8 39c5.09999 24 30.2 43 59.2 43z" />
    <glyph glyph-name="uni1E12" unicode="&#x1e12;" horiz-adv-x="698" 
d="M279.9 -57c19 -47 46.1 -89 73.6 -129l-24 -14c-32.8 29 -60.6 54 -86.9 90c-45.1 -38 -82.4 -63 -126.1 -90l-17 14c44.5 40 91.6 83 130.4 129h50zM204.4 82c-6.79999 -32 2.5 -40 100.5 -40c141 0 264.6 40 307.5 242c32.7 154 3 320 -213 320
c-49 0 -85.1 -5 -92.5 -40zM281.1 645c64 0 101.6 3 165.6 3c192 0 313.3 -154 273.8 -340c-52.3 -246 -252.9 -310 -393.9 -310c-103 0 -111.6 2 -182.6 2c-35 0 -52.6 -3 -52.6 -3l-0.400002 3c19.5 54 36.6 125 52.5 200l52.1 245c15.9 75 28.4 143 32.5 200l2.59999 3
s16.4 -3 50.4 -3z" />
    <glyph glyph-name="uni1E13" unicode="&#x1e13;" horiz-adv-x="514" 
d="M279.9 -57c19 -47 46.1 -89 73.6 -129l-24 -14c-32.8 29 -60.6 54 -86.9 90c-45.1 -38 -82.4 -63 -126.1 -90l-17 14c44.5 40 91.6 83 130.4 129h50zM384.2 109l48 226c-15.9 38 -35.5 59 -82.5 59c-48.4 0 -145.8 -23 -177.7 -173c-26.6 -125 28 -174 82 -174
c40.5 0 83.8 15.5 130.2 62zM374.6 64c-45.9 -46.5 -110.7 -74 -158.7 -74c-108 0 -158.9 90 -132.8 213c28.9 136 157 236 287.2 236c20 0 59.1 -9 79.3 -22l13.9 65c16.2 76 28.5 145.3 29.9 188l2.70001 3c41.1 3 67.1 15 94.3 25c6.29999 0 8.29999 -3 6.79999 -10
c-20.7 -61.3 -34.2 -114 -49.9 -188l-65.5 -308c-15.9 -75 -22.7 -149 -23.8 -192l-2.60001 -3c-12.6 2 -31.3 3 -43.9 3c-14.5 0 -21.4 -1.3 -35.1 -3c-6 0 -8.79999 1 -8.39999 3l8.60001 64h-2z" />
    <glyph glyph-name="uni1E14" unicode="&#x1e14;" horiz-adv-x="522" 
d="M575.8 733h-244c-9 0 -11.3 8 -9.79999 15c2.60001 12 17.2 29 28.2 29h245c10 0 12.3 -8 11 -14c-2.60004 -12 -17.4 -30 -30.4 -30zM224.5 200c-3.60001 -17 -24.9 -122 -23 -146c134 0 284.5 12 284.5 12l1.20001 -4c-2.70001 -8 -6.90002 -23 -9 -33
c-2.10001 -10 -2.20001 -15 -4.20001 -29l-2.60001 -3c-15.6 2 -38.4 3 -59.4 3h-273c-35 0 -52.6 -3 -52.6 -3l-0.400002 3c19.5 54 36.6 125 52.5 200l52.1 245c15.9 75 28.4 143 32.5 200l2.59999 3s16.4 -3 50.4 -3h263c21 0 44.2 1 60.6 3l1.39996 -3
c-4 -14 -6.89996 -23 -8.59998 -31c-1.90002 -9 -2.79999 -18 -3.5 -26l-2.90002 -4s-135.4 12 -269.4 12c-12.1 -24 -36.5 -134 -40.1 -151l-17.4 -82c118 0 165 5 225.1 10l2.30002 -3c-3.89999 -9 -7 -19 -8.89999 -28c-1.90002 -9 -3.10001 -19 -3 -28l-3.60001 -3
c-67.5 7 -172.9 10 -220.9 10zM197.6 831.1l77.4 -73.9c7 -7 8.89999 -12.3 7.60001 -18.5c-1.5 -7 -8.10001 -13.2 -14.3 -13.2c-6.19998 0 -16.4 2.59998 -30.9 10.5l-106.8 55.5c17.4 15.6 38.5 29.4 67 39.6z" />
    <glyph glyph-name="uni1E15" unicode="&#x1e15;" horiz-adv-x="442" 
d="M374.8 765.2l31.9 -113.4c2.09998 -9 1.59998 -15.3 0.299988 -21.6c-1 -4.5 -7.79999 -9.90002 -14.2 -9.90002c-4.79999 0 -9.39999 4.5 -19.3 18l-70.4 98.1l3.69998 9.89996c7.5 5.40002 29.2 20.7 56.4 20.7c4 0 8.59998 -0.900024 11.6 -1.79999zM461.4 538h-244
c-9 0 -11.4 8 -9.89999 15c2.60001 12 17.2 29 28.2 29h245c10 0 12.3 -8 11 -14c-2.5 -12 -17.3 -30 -30.3 -30zM186 287h181c10 0 15.1 5 17 14c15.9 75 -24.2 98 -60.2 98c-23 0 -98.7 -8 -137.8 -112zM418.3 105l14.5 -26c-49.1 -52 -117.9 -89 -189.9 -89
c-137 0 -191 94 -166.6 209c32.3 152 161 240 256 240c132 0 149.9 -95 132 -179c-2.29999 -11 -10.6 -17 -21.6 -17h-269c-31.7 -149 45.7 -194 101.7 -194c55 0 99.8 18 142.9 56z" />
    <glyph glyph-name="uni1E16" unicode="&#x1e16;" horiz-adv-x="522" 
d="M518.8 733h-244c-9 0 -11.3 8 -9.79999 15c2.60001 12 17.2 29 28.2 29h245c10 0 12.3 -8 11 -14c-2.60004 -12 -17.4 -30 -30.4 -30zM224.5 200c-3.60001 -17 -24.9 -122 -23 -146c134 0 284.5 12 284.5 12l1.20001 -4c-2.70001 -8 -6.90002 -23 -9 -33
c-2.10001 -10 -2.20001 -15 -4.20001 -29l-2.60001 -3c-15.6 2 -38.4 3 -59.4 3h-273c-35 0 -52.6 -3 -52.6 -3l-0.400002 3c19.5 54 36.6 125 52.5 200l52.1 245c15.9 75 28.4 143 32.5 200l2.59999 3s16.4 -3 50.4 -3h263c21 0 44.2 1 60.6 3l1.39996 -3
c-4 -14 -6.89996 -23 -8.59998 -31c-1.90002 -9 -2.79999 -18 -3.5 -26l-2.90002 -4s-135.4 12 -269.4 12c-12.1 -24 -36.5 -134 -40.1 -151l-17.4 -82c118 0 165 5 225.1 10l2.30002 -3c-3.89999 -9 -7 -19 -8.89999 -28c-1.90002 -9 -3.10001 -19 -3 -28l-3.60001 -3
c-67.5 7 -172.9 10 -220.9 10zM711.9 831.8c19.6 -11.7 32.2 -26.9 38 -45.7l-121.7 -51.1c-17.9 -7.90002 -27.7 -10.5 -34.6 -10.5c-6.89996 0 -10.2 6.20001 -8.69995 13.2c1.29999 6.20001 3.79999 10.6 15.5 18.5z" />
    <glyph glyph-name="uni1E17" unicode="&#x1e17;" horiz-adv-x="442" 
d="M425.8 759.2c2.60001 0.899963 7.60001 1.79999 11.6 1.79999c5.10001 0 25.4 -0.900024 39.6 -20.7l0.299988 -9.89996l-112.9 -98.1c-14.9 -13.5 -22 -17.1 -27.6 -17.1c-5.59998 0 -10 5.39996 -8.69998 11.7c2.10001 10.1 5.5 13.7 14.5 25.2zM461.4 538h-244
c-9 0 -11.4 8 -9.89999 15c2.60001 12 17.2 29 28.2 29h245c10 0 12.3 -8 11 -14c-2.5 -12 -17.3 -30 -30.3 -30zM186 287h181c10 0 15.1 5 17 14c15.9 75 -24.2 98 -60.2 98c-23 0 -98.7 -8 -137.8 -112zM418.3 105l14.5 -26c-49.1 -52 -117.9 -89 -189.9 -89
c-137 0 -191 94 -166.6 209c32.3 152 161 240 256 240c132 0 149.9 -95 132 -179c-2.29999 -11 -10.6 -17 -21.6 -17h-269c-31.7 -149 45.7 -194 101.7 -194c55 0 99.8 18 142.9 56z" />
    <glyph glyph-name="uni1E18" unicode="&#x1e18;" horiz-adv-x="522" 
d="M287.9 -57c19 -47 46.1 -89 73.6 -129l-24 -14c-32.8 29 -60.6 54 -86.9 90c-45.1 -38 -82.4 -63 -126.1 -90l-17 14c44.5 40 91.6 83 130.4 129h50zM224.5 200c-3.60001 -17 -24.9 -122 -23 -146c134 0 284.5 12 284.5 12l1.20001 -4c-2.70001 -8 -6.90002 -23 -9 -33
c-2.10001 -10 -2.20001 -15 -4.20001 -29l-2.60001 -3c-15.6 2 -38.4 3 -59.4 3h-273c-35 0 -52.6 -3 -52.6 -3l-0.400002 3c19.5 54 36.6 125 52.5 200l52.1 245c15.9 75 28.4 143 32.5 200l2.59999 3s16.4 -3 50.4 -3h263c21 0 44.2 1 60.6 3l1.39996 -3
c-4 -14 -6.89996 -23 -8.59998 -31c-1.90002 -9 -2.79999 -18 -3.5 -26l-2.90002 -4s-135.4 12 -269.4 12c-12.1 -24 -36.5 -134 -40.1 -151l-17.4 -82c118 0 165 5 225.1 10l2.30002 -3c-3.89999 -9 -7 -19 -8.89999 -28c-1.90002 -9 -3.10001 -19 -3 -28l-3.60001 -3
c-67.5 7 -172.9 10 -220.9 10z" />
    <glyph glyph-name="uni1E19" unicode="&#x1e19;" horiz-adv-x="442" 
d="M234.9 -57c19 -47 46.1 -89 73.6 -129l-24 -14c-32.8 29 -60.6 54 -86.9 90c-45.1 -38 -82.4 -63 -126.1 -90l-17 14c44.5 40 91.6 83 130.4 129h50zM186 287h181c10 0 15.1 5 17 14c15.9 75 -24.2 98 -60.2 98c-23 0 -98.7 -8 -137.8 -112zM418.3 105l14.5 -26
c-49.1 -52 -117.9 -89 -189.9 -89c-137 0 -191 94 -166.6 209c32.3 152 161 240 256 240c132 0 149.9 -95 132 -179c-2.29999 -11 -10.6 -17 -21.6 -17h-269c-31.7 -149 45.7 -194 101.7 -194c55 0 99.8 18 142.9 56z" />
    <glyph glyph-name="uni1E1A" unicode="&#x1e1a;" horiz-adv-x="522" 
d="M310.5 -120c22 0 38.1 10 61 52l22.8 -6c-24.8 -60 -60.2 -90 -106.2 -90c-22 0 -40.4 12 -58.4 26c-15.7 11 -32.4 22 -49.4 22c-26 0 -42.2 -15 -59.2 -48l-22.9 5c26.5 59 55.9 89 98.9 89c30 0 49.1 -14 66.1 -28c13.4 -12 28.3 -22 47.3 -22zM224.5 200
c-3.60001 -17 -24.9 -122 -23 -146c134 0 284.5 12 284.5 12l1.20001 -4c-2.70001 -8 -6.90002 -23 -9 -33c-2.10001 -10 -2.20001 -15 -4.20001 -29l-2.60001 -3c-15.6 2 -38.4 3 -59.4 3h-273c-35 0 -52.6 -3 -52.6 -3l-0.400002 3c19.5 54 36.6 125 52.5 200l52.1 245
c15.9 75 28.4 143 32.5 200l2.59999 3s16.4 -3 50.4 -3h263c21 0 44.2 1 60.6 3l1.39996 -3c-4 -14 -6.89996 -23 -8.59998 -31c-1.90002 -9 -2.79999 -18 -3.5 -26l-2.90002 -4s-135.4 12 -269.4 12c-12.1 -24 -36.5 -134 -40.1 -151l-17.4 -82c118 0 165 5 225.1 10
l2.30002 -3c-3.89999 -9 -7 -19 -8.89999 -28c-1.90002 -9 -3.10001 -19 -3 -28l-3.60001 -3c-67.5 7 -172.9 10 -220.9 10z" />
    <glyph glyph-name="uni1E1B" unicode="&#x1e1b;" horiz-adv-x="442" 
d="M262.9 -118c22 0 38.2 10 61.1 52l22.7 -6c-24.8 -60 -60.1 -90 -106.1 -90c-22 0 -40.5 12 -58.5 26c-15.7 11 -32.3 22 -49.3 22c-26 0 -42.2 -15 -59.2 -48l-23 5c26.5 59 55.9 89 98.9 89c30 0 49.1 -14 66.1 -28c13.4 -12 28.3 -22 47.3 -22zM186 287h181
c10 0 15.1 5 17 14c15.9 75 -24.2 98 -60.2 98c-23 0 -98.7 -8 -137.8 -112zM418.3 105l14.5 -26c-49.1 -52 -117.9 -89 -189.9 -89c-137 0 -191 94 -166.6 209c32.3 152 161 240 256 240c132 0 149.9 -95 132 -179c-2.29999 -11 -10.6 -17 -21.6 -17h-269
c-31.7 -149 45.7 -194 101.7 -194c55 0 99.8 18 142.9 56z" />
    <glyph glyph-name="uni1E1C" unicode="&#x1e1c;" horiz-adv-x="522" 
d="M607.1 805c-21.1 -71 -94 -113 -160 -113c-73 0 -121.9 43 -112 113h28c-0.300018 -39 42 -61 95 -61c49 0 105.7 22 121 61h28zM254.6 -96c-19 0 -29.2 -1 -46.3 -6l-4.7 6l60.4 96h-125c-35 0 -52.6 -3 -52.6 -3l-0.400002 3c19.5 54 36.6 125 52.5 200l52.1 245
c15.9 75 28.4 143 32.5 200l2.59999 3s16.4 -3 50.4 -3h263c21 0 44.2 1 60.6 3l1.39996 -3c-4 -14 -6.89996 -23 -8.59998 -31c-1.90002 -9 -2.79999 -18 -3.5 -26l-2.90002 -4s-135.4 12 -269.4 12c-12.1 -24 -36.5 -134 -40.1 -151l-17.4 -82c118 0 165 5 225.1 10
l2.30002 -3c-3.89999 -9 -7 -19 -8.89999 -28c-1.90002 -9 -3.10001 -19 -3 -28l-3.60001 -3c-67.5 7 -172.9 10 -220.9 10l-25.7 -121c-3.60001 -17 -24.9 -122 -23 -146c134 0 284.5 12 284.5 12l1.20001 -4c-2.70001 -8 -6.90002 -23 -9 -33
c-2.10001 -10 -2.20001 -15 -4.20001 -29l-2.60001 -3c-15.6 2 -38.4 3 -59.4 3h-114l-39.2 -67c8.40002 2 17.6 3 26.6 3c40 0 65.9 -24 57.8 -62c-9.10001 -43 -61.7 -74 -122.7 -74c-32 0 -47.7 6 -70.4 17c2.5 12 7 19 15.5 26c24.9 -10 35.1 -14 55.1 -14
c30 0 54 14 59.5 40c4.5 21 -2.60001 35 -25.6 35z" />
    <glyph glyph-name="uni1E1D" unicode="&#x1e1d;" horiz-adv-x="442" 
d="M249.8 648c-0.300003 -53 34.8 -90 88.8 -90c52 0 104.8 32 127.1 90l24.5 -12c-30.3 -86 -104.7 -135 -163.7 -135c-70 0 -110.4 50 -106.3 135zM207.5 -101c-19 0 -29.1 -1 -46.2 -6l-4.8 6l58.2 92.4c-116.2 12.2 -161.1 100.8 -138.4 207.6c32.3 152 161 240 256 240
c132 0 149.9 -95 132 -179c-2.29999 -11 -10.6 -17 -21.6 -17h-269c-31.7 -149 45.7 -194 101.7 -194c55 0 99.8 18 142.9 56l14.5 -26c-47.9 -50.8 -114.7 -87.2 -184.8 -88.9l-36.3 -62.1c8.40001 2 17.6 3 26.6 3c40 0 66 -24 57.9 -62
c-9.10001 -43 -61.8 -74 -122.8 -74c-32 0 -47.7 6 -70.4 17c2.6 12 7.1 19 15.6 26c24.9 -10 35 -14 55 -14c30 0 54 14 59.5 40c4.5 21 -2.60001 35 -25.6 35zM186 287h181c10 0 15.1 5 17 14c15.9 75 -24.2 98 -60.2 98c-23 0 -98.7 -8 -137.8 -112z" />
    <glyph glyph-name="uni1E1E" unicode="&#x1e1e;" horiz-adv-x="477" 
d="M393.8 752c5.70001 27 34.9 51 61.9 51s45.8 -24 40.1 -51c-5.69998 -27 -34.8 -51 -61.8 -51s-45.9 24 -40.2 51zM538.1 645c24 0 47.2 1 63.6 3l1.39996 -3c-4 -14 -6.89996 -23 -8.59998 -31c-1.90002 -9 -2.79999 -18 -3.5 -26l-2.90002 -4s-135.4 12 -269.4 12
c-12.1 -24 -36.5 -134 -40.1 -151l-17.4 -82c118 0 165 5 225.1 10l2.30002 -3c-3.89999 -9 -7 -19 -8.89999 -28c-1.90002 -9 -3.10001 -19 -3 -28l-3.60001 -3c-67.5 7 -172.9 10 -220.9 10l-25.7 -121c-15.9 -75 -28.4 -143 -32.5 -200l-2.60001 -3s-16.4 3 -50.4 3
c-35 0 -52.6 -3 -52.6 -3l-0.400002 3c19.5 54 36.6 125 52.5 200l52.1 245c15.9 75 28.4 143 32.5 200l2.59999 3s16.4 -3 50.4 -3h260z" />
    <glyph glyph-name="uni1E1F" unicode="&#x1e1f;" horiz-adv-x="308" 
d="M369.6 784c5.69998 27 34.9 51 61.9 51s45.8 -24 40.1 -51c-5.70001 -27 -34.8 -51 -61.8 -51s-45.9 24 -40.2 51zM280.2 622c46.4 49 107.2 76 170.2 76c19 0 36.2 -4 43.1 -9l0.299988 -3c-15 -19 -32.7 -55 -45.4 -82l-11.2 -1c-6.70001 20 -21.6 35 -50.6 35
c-57.3 0 -93.2 -47.8 -104.9 -103c-3.80002 -18 -7.5 -59 -15.4 -96l-2.09998 -10h108c5 0 7.59998 -2 6.69998 -6l-5.29999 -25c-1.89999 -9 -16.8 -13 -25.8 -13h-93l-39.3 -185c-16 -75.2 -28.9 -143 -32.5 -200l-2.60001 -3s-13.1 3 -47.4 3c-35 0 -49.6 -3 -49.6 -3
l-0.400002 3c19.9 53.5 36.7 125.5 52.5 200l39.3 185h-66c-4 0 -4.8 1 -3.7 6l3.8 18c1.7 8 9.3 20 27.3 20h48l8.5 40c16.6 78 41.1 104 87.5 153z" />
    <glyph glyph-name="uni1E20" unicode="&#x1e20;" horiz-adv-x="699" 
d="M638.8 733h-244c-9 0 -11.3 8 -9.79999 15c2.60001 12 17.2 29 28.2 29h245c10 0 12.3 -8 11 -14c-2.60004 -12 -17.4 -30 -30.4 -30zM570.9 117c14.5 75 26.3 133 30.4 190l2.60004 3s16.4 -3 50.4 -3c35 0 52.6 3 52.6 3l0.399963 -3c-19.3 -53 -30.3 -95 -46.2 -170
l-1.29999 -6c-2.29999 -11 -6.59998 -37.3 -0.200012 -48l-0.599976 -3c-79.5 -56.6 -168.6 -90 -285.1 -90c-201 0 -313.4 144 -276.6 317c46.8 220 251.6 351 423.6 351c122 0 208.4 -45 208.4 -45l1.40002 -3c-22.2 -49.3 -29.2 -60 -43.6 -111l-10.2 -1
c-23.6 82 -90 113 -180 113c-135 0 -255.2 -109 -292.4 -284c-28.1 -132 24.2 -291 202.2 -291c54 0 114.2 6 155 38z" />
    <glyph glyph-name="uni1E21" unicode="&#x1e21;" horiz-adv-x="479" 
d="M472.4 538h-244c-9 0 -11.4 8 -9.89999 15c2.60001 12 17.2 29 28.2 29h245c10 0 12.3 -8 11 -14c-2.5 -12 -17.3 -30 -30.3 -30zM144.2 -13.7c-43 -29.2 -61.3 -57.2 -68.3 -90.3c-14.5 -68 60.7 -91 94.7 -91c86 0 189.1 43 202.1 104c5.5 26 2 40.2 -30.9 62
c-24.1 16 -61.4 17 -109.4 17c-13.8 0 -40.1 -3 -69.6 -3c-5.90001 0 -12.4 0.5 -18.6 1.3zM445.4 289c-20.8 -98 -110.5 -153 -194.5 -153c-37 0 -60.5 7 -80.5 21c-14.6 -17 -25.1 -38 -29.4 -58c-9.10001 -43 19 -52 47 -52c5 0 15.2 1 29.4 2c23.6 3 47.1 5 64.1 5
c35 0 103.3 -1 134 -33c22.9 -23.9 29.8 -57 23 -89c-23 -108 -176.1 -170 -305.1 -170c-73 0 -146.3 27 -127.8 114c9.1 43 46 89 103.8 121c-22.2 13 -37.4 41 -29.7 77c7.2 34 31.4 77 63.5 101c-21.3 27 -34.7 58 -23.2 112c19.6 92 111.3 152 196.3 152
c21.5 0 40.8 -3 57.5 -8.60001c75.4 3.89999 112.9 14.5 161.6 18.6l2.39996 -3c-3.89996 -9 -6.59998 -17 -8.5 -26c-1.89996 -9 -2.70001 -17 -2.59998 -26l-3.60004 -3c-40.3 4.20001 -72.5 8 -102.1 10.4c25.1 -26.4 34.4 -65.3 24.4 -112.4zM367.3 279
c15.9 75 -9.29999 116 -69.3 116c-52 0 -87.2 -48 -96.8 -93c-13.6 -64 -1.89999 -122 64.1 -122c35 0 86.9 28 102 99z" />
    <glyph glyph-name="uni1E22" unicode="&#x1e22;" horiz-adv-x="700" 
d="M605.6 445c15.9 75 28.4 143 32.5 200l2.60004 3s16.4 -3 50.4 -3c35 0 52.6 3 52.6 3l0.399963 -3c-19.3 -53 -36.6 -125 -52.5 -200l-52.1 -245c-15.9 -75 -28.4 -143 -32.5 -200l-2.59998 -3s-16.4 3 -50.4 3c-35 0 -52.6 -3 -52.6 -3l-0.399994 3
c19.5 54 36.6 125 52.5 200l25.7 121h-322l-25.7 -121c-15.9 -75 -28.4 -143 -32.5 -200l-2.60001 -3s-16.4 3 -50.4 3c-35 0 -52.6 -3 -52.6 -3l-0.400002 3c19.5 54 36.6 125 52.5 200l52.1 245c15.9 75 28.4 143 32.5 200l2.59999 3s16.4 -3 50.4 -3c35 0 52.6 3 52.6 3
l0.399994 -3c-19.3 -53 -36.6 -125 -52.5 -200l-17.4 -82h322zM461.4 745c5.70001 27 34.8 51 61.8 51s45.9 -24 40.2 -51c-5.70001 -27 -34.9 -51 -61.9 -51s-45.8 24 -40.1 51z" />
    <glyph glyph-name="uni1E23" unicode="&#x1e23;" horiz-adv-x="520" 
d="M358.4 571c5.70001 27 34.8 51 61.8 51s45.9 -24 40.2 -51c-5.69998 -27 -34.9 -51 -61.9 -51s-45.8 24 -40.1 51zM396.3 180l22.3 105c17.2 81 1.60001 97 -54.4 97c-29 0 -77.5 -26 -135.5 -73l-27.4 -129c-16.2 -76.2 -24.7 -123 -28.3 -180l-2.60001 -3
s-13.1 3 -47.4 3c-35 0 -49.6 -3 -49.6 -3l-0.400002 3c19.9 53.5 32.5 105.5 48.3 180l63.9 301c16.2 76 28.8 146.3 30.2 189l2.70001 3c41.1 3 67.1 15 94.3 25c6.30002 0 8.30002 -3 6.80002 -10c-20.7 -61.3 -34 -113 -49.7 -187l-30 -141c81.2 67 142.8 79 181.8 79
c72 0 99 -52 77.1 -155l-22.1 -104c-16.2 -76.2 -24.7 -123 -28.3 -180l-2.60001 -3s-13.1 3 -47.4 3c-35 0 -49.6 -3 -49.6 -3l-0.399994 3c19.9 53.5 32.5 105.5 48.3 180z" />
    <glyph glyph-name="uni1E24" unicode="&#x1e24;" horiz-adv-x="700" 
d="M605.6 445c15.9 75 28.4 143 32.5 200l2.60004 3s16.4 -3 50.4 -3c35 0 52.6 3 52.6 3l0.399963 -3c-19.3 -53 -36.6 -125 -52.5 -200l-52.1 -245c-15.9 -75 -28.4 -143 -32.5 -200l-2.59998 -3s-16.4 3 -50.4 3c-35 0 -52.6 -3 -52.6 -3l-0.399994 3
c19.5 54 36.6 125 52.5 200l25.7 121h-322l-25.7 -121c-15.9 -75 -28.4 -143 -32.5 -200l-2.60001 -3s-16.4 3 -50.4 3c-35 0 -52.6 -3 -52.6 -3l-0.400002 3c19.5 54 36.6 125 52.5 200l52.1 245c15.9 75 28.4 143 32.5 200l2.59999 3s16.4 -3 50.4 -3c35 0 52.6 3 52.6 3
l0.399994 -3c-19.3 -53 -36.6 -125 -52.5 -200l-17.4 -82h322zM278.6 -115c5.69998 27 34.8 51 61.8 51s45.9 -24 40.2 -51c-5.70001 -27 -34.9 -51 -61.9 -51s-45.8 24 -40.1 51z" />
    <glyph glyph-name="uni1E25" unicode="&#x1e25;" horiz-adv-x="520" 
d="M184.3 -116c5.7 27 34.9 51 61.9 51c27 0 45.8 -24 40.1 -51c-5.69998 -27 -34.8 -51 -61.8 -51s-45.9 24 -40.2 51zM396.3 180l22.3 105c17.2 81 1.60001 97 -54.4 97c-29 0 -77.5 -26 -135.5 -73l-27.4 -129c-16.2 -76.2 -24.7 -123 -28.3 -180l-2.60001 -3
s-13.1 3 -47.4 3c-35 0 -49.6 -3 -49.6 -3l-0.400002 3c19.9 53.5 32.5 105.5 48.3 180l63.9 301c16.2 76 28.8 146.3 30.2 189l2.70001 3c41.1 3 67.1 15 94.3 25c6.30002 0 8.30002 -3 6.80002 -10c-20.7 -61.3 -34 -113 -49.7 -187l-30 -141c81.2 67 142.8 79 181.8 79
c72 0 99 -52 77.1 -155l-22.1 -104c-16.2 -76.2 -24.7 -123 -28.3 -180l-2.60001 -3s-13.1 3 -47.4 3c-35 0 -49.6 -3 -49.6 -3l-0.399994 3c19.9 53.5 32.5 105.5 48.3 180z" />
    <glyph glyph-name="uni1E26" unicode="&#x1e26;" horiz-adv-x="700" 
d="M605.6 445c15.9 75 28.4 143 32.5 200l2.60004 3s16.4 -3 50.4 -3c35 0 52.6 3 52.6 3l0.399963 -3c-19.3 -53 -36.6 -125 -52.5 -200l-52.1 -245c-15.9 -75 -28.4 -143 -32.5 -200l-2.59998 -3s-16.4 3 -50.4 3c-35 0 -52.6 -3 -52.6 -3l-0.399994 3
c19.5 54 36.6 125 52.5 200l25.7 121h-322l-25.7 -121c-15.9 -75 -28.4 -143 -32.5 -200l-2.60001 -3s-16.4 3 -50.4 3c-35 0 -52.6 -3 -52.6 -3l-0.400002 3c19.5 54 36.6 125 52.5 200l52.1 245c15.9 75 28.4 143 32.5 200l2.59999 3s16.4 -3 50.4 -3c35 0 52.6 3 52.6 3
l0.399994 -3c-19.3 -53 -36.6 -125 -52.5 -200l-17.4 -82h322zM555.4 750c5.5 26 32.2 48 58.2 48s43.3 -22 37.8 -48s-32.2 -48 -58.2 -48s-43.3 22 -37.8 48zM366.4 750c5.5 26 32.2 48 58.2 48s43.3 -22 37.8 -48s-32.2 -48 -58.2 -48s-43.3 22 -37.8 48z" />
    <glyph glyph-name="uni1E27" unicode="&#x1e27;" horiz-adv-x="520" 
d="M466.6 572c5.29999 25 29.8 46 54.8 46c25 0 41.5 -21 36.2 -46c-5.29999 -25 -30.6 -45 -55.6 -45s-40.7 20 -35.4 45zM329.6 572c5.29999 25 29.8 46 54.8 46s40.5 -21 35.2 -46c-5.30002 -25 -29.6 -45 -54.6 -45s-40.7 20 -35.4 45zM396.3 180l22.3 105
c17.2 81 1.60001 97 -54.4 97c-29 0 -77.5 -26 -135.5 -73l-27.4 -129c-16.2 -76.2 -24.7 -123 -28.3 -180l-2.60001 -3s-13.1 3 -47.4 3c-35 0 -49.6 -3 -49.6 -3l-0.400002 3c19.9 53.5 32.5 105.5 48.3 180l63.9 301c16.2 76 28.8 146.3 30.2 189l2.70001 3
c41.1 3 67.1 15 94.3 25c6.30002 0 8.30002 -3 6.80002 -10c-20.7 -61.3 -34 -113 -49.7 -187l-30 -141c81.2 67 142.8 79 181.8 79c72 0 99 -52 77.1 -155l-22.1 -104c-16.2 -76.2 -24.7 -123 -28.3 -180l-2.60001 -3s-13.1 3 -47.4 3c-35 0 -49.6 -3 -49.6 -3l-0.399994 3
c19.9 53.5 32.5 105.5 48.3 180z" />
    <glyph glyph-name="uni1E28" unicode="&#x1e28;" horiz-adv-x="700" 
d="M605.6 445c15.9 75 28.4 143 32.5 200l2.60004 3s16.4 -3 50.4 -3c35 0 52.6 3 52.6 3l0.399963 -3c-19.3 -53 -36.6 -125 -52.5 -200l-52.1 -245c-15.9 -75 -28.4 -143 -32.5 -200l-2.59998 -3s-16.4 3 -50.4 3c-35 0 -52.6 -3 -52.6 -3l-0.399994 3
c19.5 54 36.6 125 52.5 200l25.7 121h-322l-25.7 -121c-15.9 -75 -28.4 -143 -32.5 -200l-2.60001 -3s-3.89999 0.7 -11.8 1.4l-36 -61.4c8.39999 2 17.6 3 26.6 3c40 0 66 -24 57.9 -62c-9.10001 -43 -61.8 -74 -122.8 -74c-32 0 -47.6 6 -70.3 17c2.6 12 7 19 15.5 26
c24.9 -10 35 -14 55 -14c30 0 54 14 59.5 40c4.5 21 -2.60001 35 -25.6 35c-19 0 -29.1 -1 -46.2 -6l-4.8 6l57.9 92h-5.3c-35 0 -52.6 -3 -52.6 -3l-0.400002 3c19.5 54 36.6 125 52.5 200l52.1 245c15.9 75 28.4 143 32.5 200l2.59999 3s16.4 -3 50.4 -3
c35 0 52.6 3 52.6 3l0.399994 -3c-19.3 -53 -36.6 -125 -52.5 -200l-17.4 -82h322z" />
    <glyph glyph-name="uni1E29" unicode="&#x1e29;" horiz-adv-x="520" 
d="M115.9 -90c-19 0 -29.2 -1 -46.3 -6l-4.7 6l56.6 90c-33.9 -0.1 -48.1 -3 -48.1 -3l-0.400002 3c19.9 53.5 32.5 105.5 48.3 180l63.9 301c16.2 76 28.8 146.3 30.2 189l2.70001 3c41.1 3 67.1 15 94.3 25c6.30002 0 8.30002 -3 6.80002 -10
c-20.7 -61.3 -34 -113 -49.7 -187l-30 -141c81.2 67 142.8 79 181.8 79c72 0 99 -52 77.1 -155l-22.1 -104c-16.2 -76.2 -24.7 -123 -28.3 -180l-2.60001 -3s-13.1 3 -47.4 3c-35 0 -49.6 -3 -49.6 -3l-0.399994 3c19.9 53.5 32.5 105.5 48.3 180l22.3 105
c17.2 81 1.60001 97 -54.4 97c-29 0 -77.5 -26 -135.5 -73l-27.4 -129c-16.2 -76.2 -24.7 -123 -28.3 -180l-2.60001 -3s-4.59999 1 -15.3 1.9l-35.1 -59.9c8.39999 2 17.7 3 26.7 3c40 0 65.9 -24 57.8 -62c-9.10001 -43 -61.7 -74 -122.7 -74c-32 0 -47.7 6 -70.4 17
c2.5 12 7 19 15.5 26c24.9 -10 35 -14 55 -14c30 0 54 14 59.5 40c4.5 21 -2.5 35 -25.5 35z" />
    <glyph glyph-name="uni1E2A" unicode="&#x1e2a;" horiz-adv-x="700" 
d="M605.6 445c15.9 75 28.4 143 32.5 200l2.60004 3s16.4 -3 50.4 -3c35 0 52.6 3 52.6 3l0.399963 -3c-19.3 -53 -36.6 -125 -52.5 -200l-52.1 -245c-15.9 -75 -28.4 -143 -32.5 -200l-2.59998 -3s-16.4 3 -50.4 3c-35 0 -52.6 -3 -52.6 -3l-0.399994 3
c19.5 54 36.6 125 52.5 200l25.7 121h-322l-25.7 -121c-15.9 -75 -28.4 -143 -32.5 -200l-2.60001 -3s-16.4 3 -50.4 3c-35 0 -52.6 -3 -52.6 -3l-0.400002 3c19.5 54 36.6 125 52.5 200l52.1 245c15.9 75 28.4 143 32.5 200l2.59999 3s16.4 -3 50.4 -3c35 0 52.6 3 52.6 3
l0.399994 -3c-19.3 -53 -36.6 -125 -52.5 -200l-17.4 -82h322zM225 -52c-0.300003 -53 34.8 -90 88.8 -90c52 0 104.8 32 127.1 90l24.5 -12c-30.3 -86 -104.7 -135 -163.7 -135c-70 0 -110.4 50 -106.3 135z" />
    <glyph glyph-name="uni1E2B" unicode="&#x1e2b;" horiz-adv-x="520" 
d="M157.9 -62c-0.299988 -53 34.8 -90 88.8 -90c52 0 104.8 32 127.1 90l24.5 -12c-30.3 -86 -104.7 -135 -163.7 -135c-70 0 -110.4 50 -106.3 135zM396.3 180l22.3 105c17.2 81 1.60001 97 -54.4 97c-29 0 -77.5 -26 -135.5 -73l-27.4 -129
c-16.2 -76.2 -24.7 -123 -28.3 -180l-2.60001 -3s-13.1 3 -47.4 3c-35 0 -49.6 -3 -49.6 -3l-0.400002 3c19.9 53.5 32.5 105.5 48.3 180l63.9 301c16.2 76 28.8 146.3 30.2 189l2.70001 3c41.1 3 67.1 15 94.3 25c6.30002 0 8.30002 -3 6.80002 -10
c-20.7 -61.3 -34 -113 -49.7 -187l-30 -141c81.2 67 142.8 79 181.8 79c72 0 99 -52 77.1 -155l-22.1 -104c-16.2 -76.2 -24.7 -123 -28.3 -180l-2.60001 -3s-13.1 3 -47.4 3c-35 0 -49.6 -3 -49.6 -3l-0.399994 3c19.9 53.5 32.5 105.5 48.3 180z" />
    <glyph glyph-name="uni1E2C" unicode="&#x1e2c;" horiz-adv-x="293" 
d="M190.5 -120c22 0 38.1 10 61 52l22.8 -6c-24.8 -60 -60.2 -90 -106.2 -90c-22 0 -40.4 12 -58.4 26c-15.7 11 -32.4 22 -49.4 22c-26 0 -42.2 -15 -59.2 -48l-22.9 5c26.5 59 55.9 89 98.9 89c30 0 49.1 -14 66.1 -28c13.4 -12 28.3 -22 47.3 -22zM200.6 445
c15.9 75 28.4 143 32.5 200l2.59999 3s16.4 -3 50.4 -3c35 0 52.6 3 52.6 3l0.399994 -3c-19.3 -53 -36.6 -125 -52.5 -200l-52.1 -245c-15.9 -75 -28.4 -143 -32.5 -200l-2.60001 -3s-16.4 3 -50.4 3c-35 0 -52.6 -3 -52.6 -3l-0.400002 3c19.5 54 36.6 125 52.5 200z" />
    <glyph glyph-name="uni1E2D" unicode="&#x1e2d;" horiz-adv-x="268" 
d="M187.5 -120c22 0 38.1 10 61 52l22.8 -6c-24.8 -60 -60.2 -90 -106.2 -90c-22 0 -40.4 12 -58.4 26c-15.7 11 -32.4 22 -49.4 22c-26 0 -42.2 -15 -59.2 -48l-22.9 5c26.5 59 55.9 89 98.9 89c30 0 49.1 -14 66.1 -28c13.4 -12 28.3 -22 47.3 -22zM204.2 570
c5.7 27 34.8 51 61.8 51s45.9 -24 40.2 -51c-5.70001 -27 -34.9 -51 -61.9 -51c-27 0 -45.8 24 -40.1 51zM144 235c15.9 75 26.3 133 27.4 176l2.60001 3c40.6 3 67.2 15 94.3 25c6 0 8.40002 -3 6.90002 -10c-21 -61 -31.9 -103 -47.8 -178l-15.1 -71
c-16.2 -76 -24.2 -123 -28.3 -180l-2.60001 -3s-13.4 3 -47.4 3c-35 0 -49.6 -3 -49.6 -3l-0.400002 3c19.5 54 32.4 105 48.3 180z" />
    <glyph glyph-name="uni1E2E" unicode="&#x1e2e;" horiz-adv-x="293" 
d="M414.3 889.8c19.6 -11.7 32.2 -26.9 38 -45.7l-121.8 -51.1c-17.9 -7.90002 -27.6 -10.5 -34.5 -10.5s-10.3 6.20001 -8.79999 13.2c1.29999 6.20001 3.79999 10.6 15.5 18.5zM352.4 750c5.5 26 32.2 48 58.2 48s43.3 -22 37.8 -48s-32.2 -48 -58.2 -48
s-43.3 22 -37.8 48zM163.4 750c5.5 26 32.2 48 58.2 48s43.3 -22 37.8 -48s-32.2 -48 -58.2 -48s-43.3 22 -37.8 48zM200.6 445c15.9 75 28.4 143 32.5 200l2.59999 3s16.4 -3 50.4 -3c35 0 52.6 3 52.6 3l0.399994 -3c-19.3 -53 -36.6 -125 -52.5 -200l-52.1 -245
c-15.9 -75 -28.4 -143 -32.5 -200l-2.60001 -3s-16.4 3 -50.4 3c-35 0 -52.6 -3 -52.6 -3l-0.400002 3c19.5 54 36.6 125 52.5 200z" />
    <glyph glyph-name="uni1E2F" unicode="&#x1e2f;" horiz-adv-x="268" 
d="M345.3 740c2.5 0.900024 7.20001 1.79999 11.1 1.79999c4.89999 0 24.5 -0.799988 38.1 -20.2l0.200012 -9.69995l-108.9 -95.9c-14.4 -13.2 -21.3 -16.8 -26.7 -16.8c-5.40001 0 -9.60001 5.29999 -8.3 11.5c2.09999 9.89996 5.3 13.3 14 24.6zM132.8 573
c5.3 25 30.8 46 55.8 46s41.5 -21 36.2 -46s-30.8 -46 -55.8 -46s-41.5 21 -36.2 46zM292.8 573c5.30002 25 30.8 46 55.8 46s41.5 -21 36.2 -46c-5.29999 -25 -30.8 -46 -55.8 -46s-41.5 21 -36.2 46zM144 235c15.9 75 26.3 133 27.4 176l2.60001 3c40.6 3 67.2 15 94.3 25
c6 0 8.40002 -3 6.90002 -10c-21 -61 -31.9 -103 -47.8 -178l-15.1 -71c-16.2 -76 -24.2 -123 -28.3 -180l-2.60001 -3s-13.4 3 -47.4 3c-35 0 -49.6 -3 -49.6 -3l-0.400002 3c19.5 54 32.4 105 48.3 180z" />
    <glyph glyph-name="uni1E30" unicode="&#x1e30;" horiz-adv-x="637" 
d="M583.1 819c25.8 -13.3 42.7 -30.7 50.9 -52l-156.3 -58c-22.9 -9 -35.5 -12 -44.5 -12s-13.6 7 -11.9 15c1.5 7 4.60001 12 19.5 21zM200.6 445c15.9 75 28.4 143 32.5 200l2.59999 3s16.4 -3 50.4 -3c35 0 52.6 3 52.6 3l0.399994 -3c-19.3 -53 -36.6 -125 -52.5 -200
l-20.6 -97.1c3.10001 1.30002 6.10001 3 9 5.10001c104.4 77 237 193 347.7 295c12.4 -3 35.4 -3 48.4 -3c15 0 35 0 51.6 3c-104.4 -77 -281.7 -215 -366.5 -294l-0.400024 -2l238.6 -355c-18.4 3 -42.4 3 -61.4 3c-17 0 -45 0 -62.6 -3c-66.4 111 -172.7 284 -205 325
c-1.10001 1.10001 -2.60001 2.20001 -4.29999 3l-26.6 -125c-15.9 -75 -28.4 -143 -32.5 -200l-2.60001 -3s-16.4 3 -50.4 3c-35 0 -52.6 -3 -52.6 -3l-0.400002 3c19.5 54 36.6 125 52.5 200z" />
    <glyph glyph-name="uni1E31" unicode="&#x1e31;" horiz-adv-x="476" 
d="M489.6 671c3.19998 1 9.5 2 14.5 2c6.39999 0 31.8 -1 50.1 -23l0.599976 -11l-138.1 -109c-18.2 -15 -27.1 -19 -34.1 -19s-12.7 6 -11.2 13c2.39999 11.2 6.5 15.2 17.4 28zM127.5 200l60 282c16.2 76 28.5 145.3 29.9 188l2.70001 3c41.1 3 67.1 15 94.3 25
c6.30002 0 8.30002 -3 6.80002 -10c-20.7 -61.3 -34 -113 -49.9 -188l-55.7 -262.1c8.2 1.90001 16.7 6.60001 28 14.1c46.1 30.5 136.2 114.5 192.6 177c27 0 82 0 101.6 3l1.40002 -3c-76.7 -55.1 -179.5 -150.1 -227.6 -191c70.9 -115.2 99.7 -159.4 157.4 -238
l-2.60001 -3c-8.60001 1.8 -42.7 3 -59.4 3c-17 0 -50.9 -1.2 -66.6 -3c-49.9 98.8 -60.8 138 -111.3 206c-5 5.5 -12.6 7.7 -19.1 8.5c-0.800003 -3.8 -1.7 -7.7 -2.5 -11.5c-16 -75.2 -28.9 -143 -32.5 -200l-2.60001 -3s-13.1 3 -47.4 3c-35 0 -49.6 -3 -49.6 -3
l-0.400002 3c19.9 53.5 36.7 125.5 52.5 200z" />
    <glyph glyph-name="uni1E32" unicode="&#x1e32;" horiz-adv-x="637" 
d="M250.6 -115c5.69998 27 34.8 51 61.8 51s45.9 -24 40.2 -51c-5.70001 -27 -34.9 -51 -61.9 -51s-45.8 24 -40.1 51zM200.6 445c15.9 75 28.4 143 32.5 200l2.59999 3s16.4 -3 50.4 -3c35 0 52.6 3 52.6 3l0.399994 -3c-19.3 -53 -36.6 -125 -52.5 -200l-20.6 -97.1
c3.10001 1.30002 6.10001 3 9 5.10001c104.4 77 237 193 347.7 295c12.4 -3 35.4 -3 48.4 -3c15 0 35 0 51.6 3c-104.4 -77 -281.7 -215 -366.5 -294l-0.400024 -2l238.6 -355c-18.4 3 -42.4 3 -61.4 3c-17 0 -45 0 -62.6 -3c-66.4 111 -172.7 284 -205 325
c-1.10001 1.10001 -2.60001 2.20001 -4.29999 3l-26.6 -125c-15.9 -75 -28.4 -143 -32.5 -200l-2.60001 -3s-16.4 3 -50.4 3c-35 0 -52.6 -3 -52.6 -3l-0.400002 3c19.5 54 36.6 125 52.5 200z" />
    <glyph glyph-name="uni1E33" unicode="&#x1e33;" horiz-adv-x="476" 
d="M176.6 -115c5.7 27 34.8 51 61.8 51s45.9 -24 40.2 -51c-5.70001 -27 -34.9 -51 -61.9 -51s-45.8 24 -40.1 51zM127.5 200l60 282c16.2 76 28.5 145.3 29.9 188l2.70001 3c41.1 3 67.1 15 94.3 25c6.30002 0 8.30002 -3 6.80002 -10c-20.7 -61.3 -34 -113 -49.9 -188
l-55.7 -262.1c8.2 1.90001 16.7 6.60001 28 14.1c46.1 30.5 136.2 114.5 192.6 177c27 0 82 0 101.6 3l1.40002 -3c-76.7 -55.1 -179.5 -150.1 -227.6 -191c70.9 -115.2 99.7 -159.4 157.4 -238l-2.60001 -3c-8.60001 1.8 -42.7 3 -59.4 3c-17 0 -50.9 -1.2 -66.6 -3
c-49.9 98.8 -60.8 138 -111.3 206c-5 5.5 -12.6 7.7 -19.1 8.5c-0.800003 -3.8 -1.7 -7.7 -2.5 -11.5c-16 -75.2 -28.9 -143 -32.5 -200l-2.60001 -3s-13.1 3 -47.4 3c-35 0 -49.6 -3 -49.6 -3l-0.400002 3c19.9 53.5 36.7 125.5 52.5 200z" />
    <glyph glyph-name="uni1E34" unicode="&#x1e34;" horiz-adv-x="637" 
d="M433.5 -106h-245c-8 0 -10.3 8 -8.8 15c2.60001 12 16.1 29 28.1 29h245c9 0 11.5 -7 10 -14c-2.59998 -12 -16.3 -30 -29.3 -30zM200.6 445c15.9 75 28.4 143 32.5 200l2.59999 3s16.4 -3 50.4 -3c35 0 52.6 3 52.6 3l0.399994 -3c-19.3 -53 -36.6 -125 -52.5 -200
l-20.6 -97.1c3.10001 1.30002 6.10001 3 9 5.10001c104.4 77 237 193 347.7 295c12.4 -3 35.4 -3 48.4 -3c15 0 35 0 51.6 3c-104.4 -77 -281.7 -215 -366.5 -294l-0.400024 -2l238.6 -355c-18.4 3 -42.4 3 -61.4 3c-17 0 -45 0 -62.6 -3c-66.4 111 -172.7 284 -205 325
c-1.10001 1.10001 -2.60001 2.20001 -4.29999 3l-26.6 -125c-15.9 -75 -28.4 -143 -32.5 -200l-2.60001 -3s-16.4 3 -50.4 3c-35 0 -52.6 -3 -52.6 -3l-0.400002 3c19.5 54 36.6 125 52.5 200z" />
    <glyph glyph-name="uni1E35" unicode="&#x1e35;" horiz-adv-x="476" 
d="M357.3 -107h-245c-8 0 -10.4 8 -8.9 15c2.6 12 16.2 29 28.2 29h245c9 0 11.5 -7 10 -14c-2.60001 -12 -16.3 -30 -29.3 -30zM127.5 200l60 282c16.2 76 28.5 145.3 29.9 188l2.70001 3c41.1 3 67.1 15 94.3 25c6.30002 0 8.30002 -3 6.80002 -10
c-20.7 -61.3 -34 -113 -49.9 -188l-55.7 -262.1c8.2 1.90001 16.7 6.60001 28 14.1c46.1 30.5 136.2 114.5 192.6 177c27 0 82 0 101.6 3l1.40002 -3c-76.7 -55.1 -179.5 -150.1 -227.6 -191c70.9 -115.2 99.7 -159.4 157.4 -238l-2.60001 -3c-8.60001 1.8 -42.7 3 -59.4 3
c-17 0 -50.9 -1.2 -66.6 -3c-49.9 98.8 -60.8 138 -111.3 206c-5 5.5 -12.6 7.7 -19.1 8.5c-0.800003 -3.8 -1.7 -7.7 -2.5 -11.5c-16 -75.2 -28.9 -143 -32.5 -200l-2.60001 -3s-13.1 3 -47.4 3c-35 0 -49.6 -3 -49.6 -3l-0.400002 3c19.9 53.5 36.7 125.5 52.5 200z" />
    <glyph glyph-name="uni1E36" unicode="&#x1e36;" horiz-adv-x="526" 
d="M201.6 -115c5.7 27 34.8 51 61.8 51s45.9 -24 40.2 -51c-5.70001 -27 -34.9 -51 -61.9 -51c-27 0 -45.8 24 -40.1 51zM231.5 200c-3.60001 -17 -24.9 -122 -23 -146c134 0 284.5 12 284.5 12l1.20001 -4c-2.70001 -8 -6.90002 -23 -9 -33
c-2.10001 -10 -2.20001 -15 -4.20001 -29l-2.60001 -3c-15.6 2 -38.4 3 -59.4 3h-273c-34 0 -52.6 -3 -52.6 -3l-0.400002 3c19.5 54 36.6 125 52.5 200l52.1 245c15.9 75 27.4 143 31.5 200l2.59999 3s17.4 -3 51.4 -3c35 0 52.6 3 52.6 3l0.399994 -3
c-19.3 -53 -36.6 -125 -52.5 -200z" />
    <glyph glyph-name="uni1E37" unicode="&#x1e37;" horiz-adv-x="260" 
d="M132.5 200l60 282c16.2 76 28.5 145.3 29.9 188l2.70001 3c41.1 3 67.1 15 94.3 25c6.30002 0 8.30002 -3 6.80002 -10c-20.7 -61.3 -34 -113 -49.9 -188l-63.8 -300c-16 -75.2 -28.9 -143 -32.5 -200l-2.60001 -3s-13.1 3 -47.4 3c-35 0 -49.6 -3 -49.6 -3l-0.400002 3
c19.9 53.5 36.7 125.5 52.5 200zM56.6 -115c5.7 27 34.8 51 61.8 51c27 0 45.9 -24 40.2 -51c-5.70001 -27 -34.9 -51 -61.9 -51s-45.8 24 -40.1 51z" />
    <glyph glyph-name="uni1E38" unicode="&#x1e38;" horiz-adv-x="526" 
d="M422.8 733h-244c-9 0 -11.3 8 -9.8 15c2.60001 12 17.2 29 28.2 29h245c10 0 12.3 -8 11 -14c-2.60001 -12 -17.4 -30 -30.4 -30zM201.6 -115c5.7 27 34.8 51 61.8 51s45.9 -24 40.2 -51c-5.70001 -27 -34.9 -51 -61.9 -51c-27 0 -45.8 24 -40.1 51zM231.5 200
c-3.60001 -17 -24.9 -122 -23 -146c134 0 284.5 12 284.5 12l1.20001 -4c-2.70001 -8 -6.90002 -23 -9 -33c-2.10001 -10 -2.20001 -15 -4.20001 -29l-2.60001 -3c-15.6 2 -38.4 3 -59.4 3h-273c-34 0 -52.6 -3 -52.6 -3l-0.400002 3c19.5 54 36.6 125 52.5 200l52.1 245
c15.9 75 27.4 143 31.5 200l2.59999 3s17.4 -3 51.4 -3c35 0 52.6 3 52.6 3l0.399994 -3c-19.3 -53 -36.6 -125 -52.5 -200z" />
    <glyph glyph-name="uni1E39" unicode="&#x1e39;" horiz-adv-x="260" 
d="M132.5 200l60 282c16.2 76 28.5 145.3 29.9 188l2.70001 3c41.1 3 67.1 15 94.3 25c6.30002 0 8.30002 -3 6.80002 -10c-20.7 -61.3 -34 -113 -49.9 -188l-63.8 -300c-16 -75.2 -28.9 -143 -32.5 -200l-2.60001 -3s-13.1 3 -47.4 3c-35 0 -49.6 -3 -49.6 -3l-0.400002 3
c19.9 53.5 36.7 125.5 52.5 200zM56.6 -115c5.7 27 34.8 51 61.8 51c27 0 45.9 -24 40.2 -51c-5.70001 -27 -34.9 -51 -61.9 -51s-45.8 24 -40.1 51zM401.7 756h-244c-9 0 -11.3 8 -9.8 15c2.60001 12 17.1 29 28.1 29h245c10 0 12.4 -8 11.1 -14
c-2.5 -12 -17.4 -30 -30.4 -30z" />
    <glyph glyph-name="uni1E3A" unicode="&#x1e3a;" horiz-adv-x="526" 
d="M364.2 -112h-245c-8 0 -10.3 8 -8.8 15c2.6 12 16.1 29 28.1 29h245c9 0 11.6 -7 10.1 -14c-2.60001 -12 -16.4 -30 -29.4 -30zM231.5 200c-3.60001 -17 -24.9 -122 -23 -146c134 0 284.5 12 284.5 12l1.20001 -4c-2.70001 -8 -6.90002 -23 -9 -33
c-2.10001 -10 -2.20001 -15 -4.20001 -29l-2.60001 -3c-15.6 2 -38.4 3 -59.4 3h-273c-34 0 -52.6 -3 -52.6 -3l-0.400002 3c19.5 54 36.6 125 52.5 200l52.1 245c15.9 75 27.4 143 31.5 200l2.59999 3s17.4 -3 51.4 -3c35 0 52.6 3 52.6 3l0.399994 -3
c-19.3 -53 -36.6 -125 -52.5 -200z" />
    <glyph glyph-name="uni1E3B" unicode="&#x1e3b;" horiz-adv-x="260" 
d="M132.5 200l60 282c16.2 76 28.5 145.3 29.9 188l2.70001 3c41.1 3 67.1 15 94.3 25c6.30002 0 8.30002 -3 6.80002 -10c-20.7 -61.3 -34 -113 -49.9 -188l-63.8 -300c-16 -75.2 -28.9 -143 -32.5 -200l-2.60001 -3s-13.1 3 -47.4 3c-35 0 -49.6 -3 -49.6 -3l-0.400002 3
c19.9 53.5 36.7 125.5 52.5 200zM223.2 -112h-245c-8 0 -10.3 8 -8.8 15c2.6 12 16.1 29 28.1 29h245c9 0 11.6 -7 10.1 -14c-2.60001 -12 -16.4 -30 -29.4 -30z" />
    <glyph glyph-name="uni1E3C" unicode="&#x1e3c;" horiz-adv-x="526" 
d="M294.9 -57c19 -47 46.1 -89 73.6 -129l-24 -14c-32.8 29 -60.6 54 -86.9 90c-45.1 -38 -82.4 -63 -126.1 -90l-17 14c44.5 40 91.6 83 130.4 129h50zM231.5 200c-3.60001 -17 -24.9 -122 -23 -146c134 0 284.5 12 284.5 12l1.20001 -4c-2.70001 -8 -6.90002 -23 -9 -33
c-2.10001 -10 -2.20001 -15 -4.20001 -29l-2.60001 -3c-15.6 2 -38.4 3 -59.4 3h-273c-34 0 -52.6 -3 -52.6 -3l-0.400002 3c19.5 54 36.6 125 52.5 200l52.1 245c15.9 75 27.4 143 31.5 200l2.59999 3s17.4 -3 51.4 -3c35 0 52.6 3 52.6 3l0.399994 -3
c-19.3 -53 -36.6 -125 -52.5 -200z" />
    <glyph glyph-name="uni1E3D" unicode="&#x1e3d;" horiz-adv-x="260" 
d="M132.5 200l60 282c16.2 76 28.5 145.3 29.9 188l2.70001 3c41.1 3 67.1 15 94.3 25c6.30002 0 8.30002 -3 6.80002 -10c-20.7 -61.3 -34 -113 -49.9 -188l-63.8 -300c-16 -75.2 -28.9 -143 -32.5 -200l-2.60001 -3s-13.1 3 -47.4 3c-35 0 -49.6 -3 -49.6 -3l-0.400002 3
c19.9 53.5 36.7 125.5 52.5 200zM145.9 -57c19 -47 46.1 -89 73.6 -129l-24 -14c-32.8 29 -60.6 54 -86.9 90c-45.1 -38 -82.4 -63 -126.1 -90l-17 14c44.5 40 91.6 83 130.4 129h50z" />
    <glyph glyph-name="uni1E3E" unicode="&#x1e3e;" horiz-adv-x="839" 
d="M638.1 819c25.8 -13.3 42.7 -30.7 50.9 -52l-156.3 -58c-22.9 -9 -35.5 -12 -44.5 -12s-13.6 7 -11.9 15c1.5 7 4.60001 12 19.5 21zM273.7 662h26c47.2 -174.6 98.5 -341.2 156.3 -515.5l387.7 515.5h22c-23.7 -243 -48.2 -448 -63.3 -665c-14.4 3 -34.4 3 -49.4 3
s-34 0 -49.6 -3c21.6 165.8 41.2 318.2 55.6 475.9c-116.8 -154.8 -233.5 -306.2 -342 -472.9h-19c-39.6 152.9 -90 312.4 -137.1 472.1c-51.1 -156.2 -121.4 -371 -144.5 -475.1c-10.4 3 -26.4 3 -37.4 3c-12 0 -27 0 -38.6 -3c77.6 210 169.6 464 233.3 665z" />
    <glyph glyph-name="uni1E3F" unicode="&#x1e3f;" horiz-adv-x="765" 
d="M530.6 671c3.20001 1 9.5 2 14.5 2c6.40002 0 31.8 -1 50.1 -23l0.599976 -11l-138.1 -109c-18.2 -15 -27.1 -19 -34.1 -19s-12.7 6 -11.2 13c2.39999 11.2 6.5 15.2 17.4 28zM643.3 180l23.8 112c14.2 67 -1.09998 89 -55.1 89c-39 0 -65.6 -17 -124.9 -70
c-1.60001 -12 -2.39999 -16 -5.39999 -30l-21.4 -101c-16.2 -76.2 -24.7 -123 -28.3 -180l-2.60001 -3s-13.1 3 -47.4 3c-35 0 -49.6 -3 -49.6 -3l-0.399994 3c19.9 53.5 32.5 105.5 48.3 180l23.3 110c14.2 67 -15.6 91 -53.6 91c-35 0 -66.7 -22 -124.1 -71l-27.6 -130
c-16.2 -76 -24.7 -123 -28.3 -180l-2.60001 -3s-13.1 3 -47.4 3c-35 0 -49.6 -3 -49.6 -3l-0.400002 3c19.9 53.5 32.4 105 48.3 180l11.7 55c15.9 74.7 26 133.3 27.4 176l2.60001 3c41.1 3 64.1 15 91.3 25c6.3 0 8.40001 -3 6.90001 -10c-11.4 -30.3 -23.9 -69 -23.9 -69
h2.2c57.6 50 99.8 79 161.8 79c56 0 95.8 -34 93.2 -79c69.8 60 114.8 79 168.8 79c108 0 103.1 -70 84.2 -159l-21.2 -100c-16.2 -76.2 -24.7 -123 -28.3 -180l-2.59998 -3s-13.1 3 -47.4 3c-35 0 -49.6 -3 -49.6 -3l-0.400024 3c19.9 53.5 32.5 105.5 48.3 180z" />
    <glyph glyph-name="uni1E40" unicode="&#x1e40;" horiz-adv-x="839" 
d="M532.4 745c5.69995 27 34.8 51 61.8 51s45.9 -24 40.2 -51c-5.70001 -27 -34.9 -51 -61.9 -51s-45.8 24 -40.1 51zM273.7 662h26c47.2 -174.6 98.5 -341.2 156.3 -515.5l387.7 515.5h22c-23.7 -243 -48.2 -448 -63.3 -665c-14.4 3 -34.4 3 -49.4 3s-34 0 -49.6 -3
c21.6 165.8 41.2 318.2 55.6 475.9c-116.8 -154.8 -233.5 -306.2 -342 -472.9h-19c-39.6 152.9 -90 312.4 -137.1 472.1c-51.1 -156.2 -121.4 -371 -144.5 -475.1c-10.4 3 -26.4 3 -37.4 3c-12 0 -27 0 -38.6 -3c77.6 210 169.6 464 233.3 665z" />
    <glyph glyph-name="uni1E41" unicode="&#x1e41;" horiz-adv-x="765" 
d="M438.8 573c5.70001 27 34.8 51 61.8 51c27 0 45.9 -24 40.2 -51s-34.8 -51 -61.8 -51s-45.9 24 -40.2 51zM643.3 180l23.8 112c14.2 67 -1.09998 89 -55.1 89c-39 0 -65.6 -17 -124.9 -70c-1.60001 -12 -2.39999 -16 -5.39999 -30l-21.4 -101
c-16.2 -76.2 -24.7 -123 -28.3 -180l-2.60001 -3s-13.1 3 -47.4 3c-35 0 -49.6 -3 -49.6 -3l-0.399994 3c19.9 53.5 32.5 105.5 48.3 180l23.3 110c14.2 67 -15.6 91 -53.6 91c-35 0 -66.7 -22 -124.1 -71l-27.6 -130c-16.2 -76 -24.7 -123 -28.3 -180l-2.60001 -3
s-13.1 3 -47.4 3c-35 0 -49.6 -3 -49.6 -3l-0.400002 3c19.9 53.5 32.4 105 48.3 180l11.7 55c15.9 74.7 26 133.3 27.4 176l2.60001 3c41.1 3 64.1 15 91.3 25c6.3 0 8.40001 -3 6.90001 -10c-11.4 -30.3 -23.9 -69 -23.9 -69h2.2c57.6 50 99.8 79 161.8 79
c56 0 95.8 -34 93.2 -79c69.8 60 114.8 79 168.8 79c108 0 103.1 -70 84.2 -159l-21.2 -100c-16.2 -76.2 -24.7 -123 -28.3 -180l-2.59998 -3s-13.1 3 -47.4 3c-35 0 -49.6 -3 -49.6 -3l-0.400024 3c19.9 53.5 32.5 105.5 48.3 180z" />
    <glyph glyph-name="uni1E42" unicode="&#x1e42;" horiz-adv-x="839" 
d="M320.6 -115c5.69998 27 34.8 51 61.8 51s45.9 -24 40.2 -51c-5.70001 -27 -34.9 -51 -61.9 -51s-45.8 24 -40.1 51zM273.7 662h26c47.2 -174.6 98.5 -341.2 156.3 -515.5l387.7 515.5h22c-23.7 -243 -48.2 -448 -63.3 -665c-14.4 3 -34.4 3 -49.4 3s-34 0 -49.6 -3
c21.6 165.8 41.2 318.2 55.6 475.9c-116.8 -154.8 -233.5 -306.2 -342 -472.9h-19c-39.6 152.9 -90 312.4 -137.1 472.1c-51.1 -156.2 -121.4 -371 -144.5 -475.1c-10.4 3 -26.4 3 -37.4 3c-12 0 -27 0 -38.6 -3c77.6 210 169.6 464 233.3 665z" />
    <glyph glyph-name="uni1E43" unicode="&#x1e43;" horiz-adv-x="765" 
d="M291.6 -115c5.69998 27 34.8 51 61.8 51s45.9 -24 40.2 -51c-5.70001 -27 -34.9 -51 -61.9 -51s-45.8 24 -40.1 51zM643.3 180l23.8 112c14.2 67 -1.09998 89 -55.1 89c-39 0 -65.6 -17 -124.9 -70c-1.60001 -12 -2.39999 -16 -5.39999 -30l-21.4 -101
c-16.2 -76.2 -24.7 -123 -28.3 -180l-2.60001 -3s-13.1 3 -47.4 3c-35 0 -49.6 -3 -49.6 -3l-0.399994 3c19.9 53.5 32.5 105.5 48.3 180l23.3 110c14.2 67 -15.6 91 -53.6 91c-35 0 -66.7 -22 -124.1 -71l-27.6 -130c-16.2 -76 -24.7 -123 -28.3 -180l-2.60001 -3
s-13.1 3 -47.4 3c-35 0 -49.6 -3 -49.6 -3l-0.400002 3c19.9 53.5 32.4 105 48.3 180l11.7 55c15.9 74.7 26 133.3 27.4 176l2.60001 3c41.1 3 64.1 15 91.3 25c6.3 0 8.40001 -3 6.90001 -10c-11.4 -30.3 -23.9 -69 -23.9 -69h2.2c57.6 50 99.8 79 161.8 79
c56 0 95.8 -34 93.2 -79c69.8 60 114.8 79 168.8 79c108 0 103.1 -70 84.2 -159l-21.2 -100c-16.2 -76.2 -24.7 -123 -28.3 -180l-2.59998 -3s-13.1 3 -47.4 3c-35 0 -49.6 -3 -49.6 -3l-0.400024 3c19.9 53.5 32.5 105.5 48.3 180z" />
    <glyph glyph-name="uni1E44" unicode="&#x1e44;" horiz-adv-x="695" 
d="M465.4 745c5.70001 27 34.8 51 61.8 51s45.9 -24 40.2 -51c-5.70001 -27 -34.9 -51 -61.9 -51s-45.8 24 -40.1 51zM195.6 445c15.9 75 28.4 143 32.5 200l2.59999 3s16.4 -3 50.4 -3c4.5 0 14.4 2 14.4 2l248.6 -444c31.4 -56.1 35.1 -79.4 46.7 -25l56.8 267
c15.9 75 28.4 143 32.5 200l2.60004 3s10.1 -3 34.4 -3c22.3 0 35.6 3 35.6 3l0.399963 -3c-19.3 -53 -36.6 -125 -52.5 -200l-90.1 -424c-4 -19 -13.6 -31 -27.6 -31c-16 0 -30.1 9 -37.9 24l-255.3 441c-26.9 48 -29.4 45 -42.4 -16l-50.8 -239
c-15.9 -75 -28.4 -143 -32.5 -200l-2.60001 -3s-10.1 3 -34.4 3c-22.3 0 -35.6 -3 -35.6 -3l-0.400002 3c19.3 53 36.6 125 52.5 200z" />
    <glyph glyph-name="uni1E45" unicode="&#x1e45;" horiz-adv-x="523" 
d="M352.4 571c5.70001 27 34.8 51 61.8 51s45.9 -24 40.2 -51c-5.69998 -27 -34.9 -51 -61.9 -51s-45.8 24 -40.1 51zM476.3 180c-16.2 -76 -25.2 -123 -28.3 -180l-2.60001 -3s-13.4 3 -47.4 3c-35 0 -49.6 -3 -49.6 -3l-0.399994 3c20.5 54 32.4 105 48.3 180l20.8 98
c14.9 70 11.9 103 -41.1 103c-44 0 -82.9 -14 -146.7 -74l-27 -127c-16.2 -76 -24.7 -123 -28.3 -180l-2.60001 -3s-13.1 3 -47.4 3c-35 0 -49.6 -3 -49.6 -3l-0.400002 3c19.9 53.5 32.4 105 48.3 180l11.7 55c15.9 74.7 26 133.3 27.4 176l2.60001 3
c41.1 3 64.1 15 91.3 25c6.3 0 8.40001 -3 6.90001 -10c-11.4 -30.3 -24.5 -72 -24.5 -72h2.2c79.9 75 127.4 82 178.4 82c90 0 98.3 -69 79.4 -158z" />
    <glyph glyph-name="uni1E46" unicode="&#x1e46;" horiz-adv-x="695" 
d="M274.6 -115c5.69998 27 34.8 51 61.8 51s45.9 -24 40.2 -51c-5.70001 -27 -34.9 -51 -61.9 -51s-45.8 24 -40.1 51zM195.6 445c15.9 75 28.4 143 32.5 200l2.59999 3s16.4 -3 50.4 -3c4.5 0 14.4 2 14.4 2l248.6 -444c31.4 -56.1 35.1 -79.4 46.7 -25l56.8 267
c15.9 75 28.4 143 32.5 200l2.60004 3s10.1 -3 34.4 -3c22.3 0 35.6 3 35.6 3l0.399963 -3c-19.3 -53 -36.6 -125 -52.5 -200l-90.1 -424c-4 -19 -13.6 -31 -27.6 -31c-16 0 -30.1 9 -37.9 24l-255.3 441c-26.9 48 -29.4 45 -42.4 -16l-50.8 -239
c-15.9 -75 -28.4 -143 -32.5 -200l-2.60001 -3s-10.1 3 -34.4 3c-22.3 0 -35.6 -3 -35.6 -3l-0.400002 3c19.3 53 36.6 125 52.5 200z" />
    <glyph glyph-name="uni1E47" unicode="&#x1e47;" horiz-adv-x="523" 
d="M185.6 -115c5.7 27 34.8 51 61.8 51s45.9 -24 40.2 -51c-5.70001 -27 -34.9 -51 -61.9 -51s-45.8 24 -40.1 51zM476.3 180c-16.2 -76 -25.2 -123 -28.3 -180l-2.60001 -3s-13.4 3 -47.4 3c-35 0 -49.6 -3 -49.6 -3l-0.399994 3c20.5 54 32.4 105 48.3 180l20.8 98
c14.9 70 11.9 103 -41.1 103c-44 0 -82.9 -14 -146.7 -74l-27 -127c-16.2 -76 -24.7 -123 -28.3 -180l-2.60001 -3s-13.1 3 -47.4 3c-35 0 -49.6 -3 -49.6 -3l-0.400002 3c19.9 53.5 32.4 105 48.3 180l11.7 55c15.9 74.7 26 133.3 27.4 176l2.60001 3
c41.1 3 64.1 15 91.3 25c6.3 0 8.40001 -3 6.90001 -10c-11.4 -30.3 -24.5 -72 -24.5 -72h2.2c79.9 75 127.4 82 178.4 82c90 0 98.3 -69 79.4 -158z" />
    <glyph glyph-name="uni1E48" unicode="&#x1e48;" horiz-adv-x="695" 
d="M449.2 -112h-245c-8 0 -10.3 8 -8.8 15c2.60001 12 16.1 29 28.1 29h245c9 0 11.6 -7 10.1 -14c-2.60001 -12 -16.4 -30 -29.4 -30zM195.6 445c15.9 75 28.4 143 32.5 200l2.59999 3s16.4 -3 50.4 -3c4.5 0 14.4 2 14.4 2l248.6 -444c31.4 -56.1 35.1 -79.4 46.7 -25
l56.8 267c15.9 75 28.4 143 32.5 200l2.60004 3s10.1 -3 34.4 -3c22.3 0 35.6 3 35.6 3l0.399963 -3c-19.3 -53 -36.6 -125 -52.5 -200l-90.1 -424c-4 -19 -13.6 -31 -27.6 -31c-16 0 -30.1 9 -37.9 24l-255.3 441c-26.9 48 -29.4 45 -42.4 -16l-50.8 -239
c-15.9 -75 -28.4 -143 -32.5 -200l-2.60001 -3s-10.1 3 -34.4 3c-22.3 0 -35.6 -3 -35.6 -3l-0.400002 3c19.3 53 36.6 125 52.5 200z" />
    <glyph glyph-name="uni1E49" unicode="&#x1e49;" horiz-adv-x="523" 
d="M351.2 -112h-245c-8 0 -10.3 8 -8.8 15c2.6 12 16.1 29 28.1 29h245c9 0 11.6 -7 10.1 -14c-2.60001 -12 -16.4 -30 -29.4 -30zM476.3 180c-16.2 -76 -25.2 -123 -28.3 -180l-2.60001 -3s-13.4 3 -47.4 3c-35 0 -49.6 -3 -49.6 -3l-0.399994 3c20.5 54 32.4 105 48.3 180
l20.8 98c14.9 70 11.9 103 -41.1 103c-44 0 -82.9 -14 -146.7 -74l-27 -127c-16.2 -76 -24.7 -123 -28.3 -180l-2.60001 -3s-13.1 3 -47.4 3c-35 0 -49.6 -3 -49.6 -3l-0.400002 3c19.9 53.5 32.4 105 48.3 180l11.7 55c15.9 74.7 26 133.3 27.4 176l2.60001 3
c41.1 3 64.1 15 91.3 25c6.3 0 8.40001 -3 6.90001 -10c-11.4 -30.3 -24.5 -72 -24.5 -72h2.2c79.9 75 127.4 82 178.4 82c90 0 98.3 -69 79.4 -158z" />
    <glyph glyph-name="uni1E4A" unicode="&#x1e4a;" horiz-adv-x="695" 
d="M363.9 -57c19 -47 46.1 -89 73.6 -129l-24 -14c-32.8 29 -60.6 54 -86.9 90c-45.1 -38 -82.4 -63 -126.1 -90l-17 14c44.5 40 91.6 83 130.4 129h50zM195.6 445c15.9 75 28.4 143 32.5 200l2.59999 3s16.4 -3 50.4 -3c4.5 0 14.4 2 14.4 2l248.6 -444
c31.4 -56.1 35.1 -79.4 46.7 -25l56.8 267c15.9 75 28.4 143 32.5 200l2.60004 3s10.1 -3 34.4 -3c22.3 0 35.6 3 35.6 3l0.399963 -3c-19.3 -53 -36.6 -125 -52.5 -200l-90.1 -424c-4 -19 -13.6 -31 -27.6 -31c-16 0 -30.1 9 -37.9 24l-255.3 441
c-26.9 48 -29.4 45 -42.4 -16l-50.8 -239c-15.9 -75 -28.4 -143 -32.5 -200l-2.60001 -3s-10.1 3 -34.4 3c-22.3 0 -35.6 -3 -35.6 -3l-0.400002 3c19.3 53 36.6 125 52.5 200z" />
    <glyph glyph-name="uni1E4B" unicode="&#x1e4b;" horiz-adv-x="523" 
d="M277.9 -57c19 -47 46.1 -89 73.6 -129l-24 -14c-32.8 29 -60.6 54 -86.9 90c-45.1 -38 -82.4 -63 -126.1 -90l-17 14c44.5 40 91.6 83 130.4 129h50zM476.3 180c-16.2 -76 -25.2 -123 -28.3 -180l-2.60001 -3s-13.4 3 -47.4 3c-35 0 -49.6 -3 -49.6 -3l-0.399994 3
c20.5 54 32.4 105 48.3 180l20.8 98c14.9 70 11.9 103 -41.1 103c-44 0 -82.9 -14 -146.7 -74l-27 -127c-16.2 -76 -24.7 -123 -28.3 -180l-2.60001 -3s-13.1 3 -47.4 3c-35 0 -49.6 -3 -49.6 -3l-0.400002 3c19.9 53.5 32.4 105 48.3 180l11.7 55
c15.9 74.7 26 133.3 27.4 176l2.60001 3c41.1 3 64.1 15 91.3 25c6.3 0 8.40001 -3 6.90001 -10c-11.4 -30.3 -24.5 -72 -24.5 -72h2.2c79.9 75 127.4 82 178.4 82c90 0 98.3 -69 79.4 -158z" />
    <glyph glyph-name="uni1E4C" unicode="&#x1e4c;" horiz-adv-x="721" 
d="M564 744.8c18.7 0 32.9 11 54.6 57.2l19 -6.59998c-24.2 -66 -55.9 -99 -95 -99c-18.7 0 -33.7 13.2 -48.3 28.6c-12.7 12.1 -26.3 24.2 -40.8 24.2c-22.1 0 -36.6 -16.5 -52.8 -52.8l-19.3 5.5c25.7 64.9 52.4 97.9 88.9 97.9c25.5 0 40.9 -15.4 54.6 -30.8
c10.8 -13.2 22.9 -24.2 39.1 -24.2zM475.5 614c-96 0 -216.4 -77 -261 -287c-40.8 -192 51.7 -293 171.7 -293c114 0 217.7 97 255.7 276c44.2 208 -25.4 304 -166.4 304zM748.9 329c-42.5 -200 -201 -339 -392 -339c-172 0 -290.9 123 -249 320c41.7 196 211 348 390 348
c180 0 293.1 -131 251 -329zM784.2 804.8c19.6 -11.7 32.2 -26.9 38 -45.7l-121.7 -51.1c-17.9 -7.90002 -27.7 -10.5 -34.6 -10.5c-6.90002 0 -10.3 6.20001 -8.80005 13.2c1.30005 6.20001 3.80005 10.6 15.5 18.5z" />
    <glyph glyph-name="uni1E4D" unicode="&#x1e4d;" horiz-adv-x="510" 
d="M430.5 548c22 0 38.1 10 61 52l22.8 -6c-24.8 -60 -60.2 -90 -106.2 -90c-22 0 -40.4 12 -58.4 26c-15.7 11 -32.4 22 -49.4 22c-26 0 -42.2 -15 -59.2 -48l-22.9 5c26.5 59 55.9 89 98.9 89c30 0 49.1 -14 66.1 -28c13.4 -12 28.3 -22 47.3 -22zM79.6 205
c29.1 137 139.7 234 270.7 234c157 0 191.3 -121 169.2 -225c-22.7 -107 -123.6 -224 -266.6 -224c-138 0 -196.7 105 -173.3 215zM334.6 398c-86 0 -141.6 -83 -160.1 -170c-16.4 -77 -2.89999 -197 101.1 -197c45 0 121.7 32 148.1 156c31.2 147 -4.10001 211 -89.1 211z
M510.4 750c2.50003 0.900024 7.19998 1.79999 11.1 1.79999c4.90002 0 24.5 -0.799988 38.1 -20.2l0.200012 -9.69995l-108.9 -95.9c-14.4 -13.2 -21.3 -16.8 -26.7 -16.8c-5.40002 0 -9.60001 5.29999 -8.30002 11.5c2.10001 9.89996 5.30002 13.3 14 24.6z" />
    <glyph glyph-name="uni1E4E" unicode="&#x1e4e;" horiz-adv-x="721" 
d="M266.8 752c5.30002 25 30.8 46 54.8 46c25 0 41.5 -21 36.2 -46c-5.09998 -24 -30.5 -45 -55.5 -45c-24 0 -40.6 21 -35.5 45zM675.8 752c5.29999 25 30.8 46 55.8 46s40.5 -21 35.2 -46c-5.09998 -24 -29.5 -45 -54.5 -45s-41.6 21 -36.5 45zM564 744.8
c18.7 0 32.9 11 54.6 57.2l19 -6.59998c-24.2 -66 -55.9 -99 -95 -99c-18.7 0 -33.7 13.2 -48.3 28.6c-12.7 12.1 -26.3 24.2 -40.8 24.2c-22.1 0 -36.6 -16.5 -52.8 -52.8l-19.3 5.5c25.7 64.9 52.4 97.9 88.9 97.9c25.5 0 40.9 -15.4 54.6 -30.8
c10.8 -13.2 22.9 -24.2 39.1 -24.2zM475.5 614c-96 0 -216.4 -77 -261 -287c-40.8 -192 51.7 -293 171.7 -293c114 0 217.7 97 255.7 276c44.2 208 -25.4 304 -166.4 304zM748.9 329c-42.5 -200 -201 -339 -392 -339c-172 0 -290.9 123 -249 320c41.7 196 211 348 390 348
c180 0 293.1 -131 251 -329z" />
    <glyph glyph-name="uni1E4F" unicode="&#x1e4f;" horiz-adv-x="510" 
d="M430.5 548c22 0 38.1 10 61 52l22.8 -6c-24.8 -60 -60.2 -90 -106.2 -90c-22 0 -40.4 12 -58.4 26c-15.7 11 -32.4 22 -49.4 22c-26 0 -42.2 -15 -59.2 -48l-22.9 5c26.5 59 55.9 89 98.9 89c30 0 49.1 -14 66.1 -28c13.4 -12 28.3 -22 47.3 -22zM79.6 205
c29.1 137 139.7 234 270.7 234c157 0 191.2 -121 169.1 -225c-22.7 -107 -123.5 -224 -266.5 -224c-138 0 -196.7 105 -173.3 215zM334.6 398c-86 0 -141.6 -83 -160.1 -170c-16.4 -77 -2.89999 -197 101.1 -197c45 0 121.7 32 148.1 156c31.2 147 -4.10001 211 -89.1 211z
M269 682c5.29999 25 30.7 46 55.7 46s41.6 -21 36.3 -46s-30.8 -46 -55.8 -46s-41.5 21 -36.2 46zM429 682c5.29999 25 30.7 46 55.7 46s41.6 -21 36.3 -46s-30.8 -46 -55.8 -46s-41.5 21 -36.2 46z" />
    <glyph glyph-name="uni1E50" unicode="&#x1e50;" horiz-adv-x="721" 
d="M611.7 733h-207.4c-7.59998 0 -9.39999 8 -7.89999 15c2.5 12 15.5 29 24.9 29h208.2c8.5 0 10.2 -8 8.90002 -14c-2.60004 -12 -15.6 -30 -26.7 -30zM475.5 614c-96 0 -216.4 -77 -261 -287c-40.8 -192 51.7 -293 171.7 -293c114 0 217.7 97 255.7 276
c44.2 208 -25.4 304 -166.4 304zM748.9 329c-42.5 -200 -201 -339 -392 -339c-172 0 -290.9 123 -249 320c41.7 196 211 348 390 348c180 0 293.1 -131 251 -329zM272 805.1l77.5 -73.9c7 -7 8.89999 -12.3 7.60001 -18.5c-1.5 -7 -8.10001 -13.2 -14.3 -13.2
c-6.19998 0 -16.4 2.59998 -30.9 10.5l-106.8 55.5c17.4 15.6 38.4 29.4 66.9 39.6z" />
    <glyph glyph-name="uni1E51" unicode="&#x1e51;" horiz-adv-x="510" 
d="M385 758l30.3 -110.8c2 -8.79999 1.5 -15 0.200012 -21.2c-0.899994 -4.40002 -7.39999 -9.59998 -13.6 -9.59998c-4.60001 0 -9.10001 4.39996 -18.6 17.6l-67.4 95.9l3.60001 9.69995c7.29999 5.30005 28.1 20.2 54.3 20.2c3.90002 0 8.30002 -0.899963 11.2 -1.79999z
M484.4 538h-244c-9 0 -11.4 8 -9.89999 15c2.60001 12 17.2 29 28.2 29h245c10 0 12.3 -8 11 -14c-2.5 -12 -17.3 -30 -30.3 -30zM79.6 205c29.1 137 139.7 234 270.7 234c157 0 191.3 -121 169.2 -225c-22.7 -107 -123.6 -224 -266.6 -224c-138 0 -196.7 105 -173.3 215z
M334.6 398c-86 0 -141.6 -83 -160.1 -170c-16.4 -77 -2.89999 -197 101.1 -197c45 0 121.7 32 148.1 156c31.2 147 -4.10001 211 -89.1 211z" />
    <glyph glyph-name="uni1E52" unicode="&#x1e52;" horiz-adv-x="721" 
d="M589.7 733h-207.4c-7.59998 0 -9.39999 8 -7.89999 15c2.5 12 15.5 29 24.9 29h208.2c8.5 0 10.2 -8 8.90002 -14c-2.60004 -12 -15.6 -30 -26.7 -30zM475.5 614c-96 0 -216.4 -77 -261 -287c-40.8 -192 51.7 -293 171.7 -293c114 0 217.7 97 255.7 276
c44.2 208 -25.4 304 -166.4 304zM748.9 329c-42.5 -200 -201 -339 -392 -339c-172 0 -290.9 123 -249 320c41.7 196 211 348 390 348c180 0 293.1 -131 251 -329zM779.2 804.8c19.6 -11.7 32.2 -26.9 38 -45.7l-121.7 -51.1c-17.9 -7.90002 -27.7 -10.5 -34.6 -10.5
c-6.90002 0 -10.3 6.20001 -8.80005 13.2c1.30005 6.20001 3.80005 10.6 15.5 18.5z" />
    <glyph glyph-name="uni1E53" unicode="&#x1e53;" horiz-adv-x="510" 
d="M446 767c2.5 0.900024 7.29999 1.79999 11.2 1.79999c4.89999 0 24.4 -0.799988 38 -20.2l0.299988 -9.69995l-109 -95.9c-14.4 -13.2 -21.2 -16.8 -26.6 -16.8s-9.69998 5.29999 -8.39999 11.5c2.10001 9.89996 5.39999 13.3 14.1 24.6zM484.4 538h-244
c-9 0 -11.4 8 -9.89999 15c2.60001 12 17.2 29 28.2 29h245c10 0 12.3 -8 11 -14c-2.5 -12 -17.3 -30 -30.3 -30zM79.6 205c29.1 137 139.7 234 270.7 234c157 0 191.3 -121 169.2 -225c-22.7 -107 -123.6 -224 -266.6 -224c-138 0 -196.7 105 -173.3 215zM334.6 398
c-86 0 -141.6 -83 -160.1 -170c-16.4 -77 -2.89999 -197 101.1 -197c45 0 121.7 32 148.1 156c31.2 147 -4.10001 211 -89.1 211z" />
    <glyph glyph-name="uni1E54" unicode="&#x1e54;" horiz-adv-x="522" 
d="M518.1 819c25.8 -13.3 42.7 -30.7 50.9 -52l-156.3 -58c-22.9 -9 -35.5 -12 -44.5 -12s-13.6 7 -11.9 15c1.5 7 4.60001 12 19.5 21zM311 574l-52.7 -248c11.5 -7 41.9 -10 66.9 -10c97 0 152.3 44 175.3 152c27 127 -31.1 150 -100.1 150c-72 0 -83.2 -15 -89.4 -44z
M197.6 445c15.9 75 28.4 143 32.5 200l2.59999 3s16.4 -3 50.4 -3c30 0 105.5 7 131.5 7c185 0 199.2 -107 186.7 -166c-18.1 -85 -96.4 -204 -278.4 -204c-35 0 -51.3 3 -71.8 10l-19.6 -92c-15.9 -75 -28.4 -143 -32.5 -200l-2.60001 -3s-16.4 3 -50.4 3
c-35 0 -52.6 -3 -52.6 -3l-0.400002 3c19.5 54 36.6 125 52.5 200z" />
    <glyph glyph-name="uni1E55" unicode="&#x1e55;" horiz-adv-x="506" 
d="M455.6 671c3.19998 1 9.5 2 14.5 2c6.39999 0 31.8 -1 50.1 -23l0.599976 -11l-138.1 -109c-18.2 -15 -27.1 -19 -34.1 -19s-12.7 6 -11.2 13c2.39999 11.2 6.5 15.2 17.4 28zM219 301l-47.6 -224c26.3 -41 57.8 -43 73.8 -43c107 0 151.6 92 169 174
c24 113 -12.8 175 -73.8 175c-34 0 -88.1 -29 -121.4 -82zM68.2 -32l56.8 267c15.9 74.7 26 133.3 27.4 176l2.60001 3c41.1 3 65.1 15 92.3 25c6.3 0 8.39999 -3 6.89999 -10c-11.4 -30.3 -23.9 -69 -23.9 -69h2.2c60.9 70 114.8 79 146.8 79c97 0 159.2 -98 136.7 -204
c-29.9 -140.9 -144.9 -245 -274.1 -245c-36 0 -61.3 8 -84.3 22l-9.40001 -44c-16 -75.2 -28.9 -143 -32.5 -200l-2.7 -3s-13 3 -47.3 3c-35 0 -49.7 -3 -49.7 -3l-0.3 3c19.9 53.5 36.7 125.5 52.5 200z" />
    <glyph glyph-name="uni1E56" unicode="&#x1e56;" horiz-adv-x="522" 
d="M391.4 750c5.70001 27 34.9 51 61.9 51s45.8 -24 40.1 -51c-5.69998 -27 -34.8 -51 -61.8 -51s-45.9 24 -40.2 51zM311 574l-52.7 -248c11.5 -7 41.9 -10 66.9 -10c97 0 152.3 44 175.3 152c27 127 -31.1 150 -100.1 150c-72 0 -83.2 -15 -89.4 -44zM197.6 445
c15.9 75 28.4 143 32.5 200l2.59999 3s16.4 -3 50.4 -3c30 0 105.5 7 131.5 7c185 0 199.2 -107 186.7 -166c-18.1 -85 -96.4 -204 -278.4 -204c-35 0 -51.3 3 -71.8 10l-19.6 -92c-15.9 -75 -28.4 -143 -32.5 -200l-2.60001 -3s-16.4 3 -50.4 3c-35 0 -52.6 -3 -52.6 -3
l-0.400002 3c19.5 54 36.6 125 52.5 200z" />
    <glyph glyph-name="uni1E57" unicode="&#x1e57;" horiz-adv-x="506" 
d="M330.4 571c5.70001 27 34.8 51 61.8 51s45.9 -24 40.2 -51c-5.69998 -27 -34.9 -51 -61.9 -51s-45.8 24 -40.1 51zM219 301l-47.6 -224c26.3 -41 57.8 -43 73.8 -43c107 0 151.6 92 169 174c24 113 -12.8 175 -73.8 175c-34 0 -88.1 -29 -121.4 -82zM68.2 -32l56.8 267
c15.9 74.7 26 133.3 27.4 176l2.60001 3c41.1 3 65.1 15 92.3 25c6.3 0 8.39999 -3 6.89999 -10c-11.4 -30.3 -23.9 -69 -23.9 -69h2.2c60.9 70 114.8 79 146.8 79c97 0 159.2 -98 136.7 -204c-29.9 -140.9 -144.9 -245 -274.1 -245c-36 0 -61.3 8 -84.3 22l-9.40001 -44
c-16 -75.2 -28.9 -143 -32.5 -200l-2.7 -3s-13 3 -47.3 3c-35 0 -49.7 -3 -49.7 -3l-0.3 3c19.9 53.5 36.7 125.5 52.5 200z" />
    <glyph glyph-name="uni1E58" unicode="&#x1e58;" horiz-adv-x="579" 
d="M383.4 750c5.70001 27 34.9 51 61.9 51s45.8 -24 40.1 -51c-5.69998 -27 -34.8 -51 -61.8 -51s-45.9 24 -40.2 51zM402.3 613c-71 0 -86.2 -15 -92.4 -44l-50.8 -239h48c97 0 168.9 23 195.5 148c25.1 118 -39.3 135 -100.3 135zM249.8 286l-18.3 -86
c-15.9 -75 -28.4 -143 -32.5 -200l-2.60001 -3s-16.4 3 -50.4 3c-35 0 -52.6 -3 -52.6 -3l-0.400002 3c19.5 54 36.6 125 52.5 200l52.1 245c15.9 75 28.4 143 32.5 200l2.59999 3s16.4 -3 50.4 -3c30 0 101.5 7 126.5 7c63 0 125.4 -3 163.8 -48c28.8 -34 37 -75 26.4 -125
c-17.4 -82 -74.5 -134 -134.2 -161c-14.5 -6.70001 -30.8 -12.9 -52.1 -18c45.9 -84.1 117.5 -243.3 155.5 -300l-2.59998 -3c-19.4 3 -31.4 3 -51.4 3c-19 0 -49 0 -68.6 -3c-3.79999 34 -34.3 107 -69 179c-19.2 38.9 -39.7 78.6 -61.9 111.5
c-19.4 -1 -41.1 -1.5 -65.7 -1.5z" />
    <glyph glyph-name="uni1E59" unicode="&#x1e59;" horiz-adv-x="355" 
d="M270.4 571c5.70001 27 34.8 51 61.8 51s45.9 -24 40.2 -51c-5.69998 -27 -34.9 -51 -61.9 -51s-45.8 24 -40.1 51zM249.2 354c34.3 39 96.1 85 143.1 85c18 0 23.6 -2 39.5 -7l3.20001 -4l-35.8 -74l-8.40002 -2c-15 14 -36 14 -55 14c-15 0 -42.2 -10 -66 -28
c-19.4 -16 -32.9 -42 -38 -66l-19.5 -92c-16.2 -76 -24.2 -123 -28.3 -180l-2.60001 -3s-13.4 3 -47.4 3c-35 0 -49.6 -3 -49.6 -3l-0.400002 3c19.5 54 32.4 105 48.3 180l11.7 55c15.9 75 21.3 133 22.4 176l2.60001 3c41.6 3 62.2 15 89.3 25c6 0 8.40002 -3 6.90002 -10
c-7.20001 -29 -18 -75 -18 -75h2z" />
    <glyph glyph-name="uni1E5A" unicode="&#x1e5a;" horiz-adv-x="579" 
d="M217.6 -115c5.7 27 34.8 51 61.8 51s45.9 -24 40.2 -51c-5.70001 -27 -34.9 -51 -61.9 -51c-27 0 -45.8 24 -40.1 51zM402.3 613c-71 0 -86.2 -15 -92.4 -44l-50.8 -239h48c97 0 168.9 23 195.5 148c25.1 118 -39.3 135 -100.3 135zM249.8 286l-18.3 -86
c-15.9 -75 -28.4 -143 -32.5 -200l-2.60001 -3s-16.4 3 -50.4 3c-35 0 -52.6 -3 -52.6 -3l-0.400002 3c19.5 54 36.6 125 52.5 200l52.1 245c15.9 75 28.4 143 32.5 200l2.59999 3s16.4 -3 50.4 -3c30 0 101.5 7 126.5 7c63 0 125.4 -3 163.8 -48c28.8 -34 37 -75 26.4 -125
c-17.4 -82 -74.5 -134 -134.2 -161c-14.5 -6.70001 -30.8 -12.9 -52.1 -18c45.9 -84.1 117.5 -243.3 155.5 -300l-2.59998 -3c-19.4 3 -31.4 3 -51.4 3c-19 0 -49 0 -68.6 -3c-3.79999 34 -34.3 107 -69 179c-19.2 38.9 -39.7 78.6 -61.9 111.5
c-19.4 -1 -41.1 -1.5 -65.7 -1.5z" />
    <glyph glyph-name="uni1E5B" unicode="&#x1e5b;" horiz-adv-x="355" 
d="M50.6 -115c5.7 27 34.8 51 61.8 51c27 0 45.9 -24 40.2 -51c-5.70001 -27 -34.9 -51 -61.9 -51c-27 0 -45.8 24 -40.1 51zM249.2 354c34.3 39 96.1 85 143.1 85c18 0 23.6 -2 39.5 -7l3.20001 -4l-35.8 -74l-8.40002 -2c-15 14 -36 14 -55 14c-15 0 -42.2 -10 -66 -28
c-19.4 -16 -32.9 -42 -38 -66l-19.5 -92c-16.2 -76 -24.2 -123 -28.3 -180l-2.60001 -3s-13.4 3 -47.4 3c-35 0 -49.6 -3 -49.6 -3l-0.400002 3c19.5 54 32.4 105 48.3 180l11.7 55c15.9 75 21.3 133 22.4 176l2.60001 3c41.6 3 62.2 15 89.3 25c6 0 8.40002 -3 6.90002 -10
c-7.20001 -29 -18 -75 -18 -75h2z" />
    <glyph glyph-name="uni1E5C" unicode="&#x1e5c;" horiz-adv-x="579" 
d="M542.8 733h-244c-9 0 -11.3 8 -9.79999 15c2.60001 12 17.2 29 28.2 29h245c10 0 12.3 -8 11 -14c-2.60004 -12 -17.4 -30 -30.4 -30zM217.6 -115c5.7 27 34.8 51 61.8 51s45.9 -24 40.2 -51c-5.70001 -27 -34.9 -51 -61.9 -51c-27 0 -45.8 24 -40.1 51zM402.3 613
c-71 0 -86.2 -15 -92.4 -44l-50.8 -239h48c97 0 168.9 23 195.5 148c25.1 118 -39.3 135 -100.3 135zM249.8 286l-18.3 -86c-15.9 -75 -28.4 -143 -32.5 -200l-2.60001 -3s-16.4 3 -50.4 3c-35 0 -52.6 -3 -52.6 -3l-0.400002 3c19.5 54 36.6 125 52.5 200l52.1 245
c15.9 75 28.4 143 32.5 200l2.59999 3s16.4 -3 50.4 -3c30 0 101.5 7 126.5 7c63 0 125.4 -3 163.8 -48c28.8 -34 37 -75 26.4 -125c-17.4 -82 -74.5 -134 -134.2 -161c-14.5 -6.70001 -30.8 -12.9 -52.1 -18c45.9 -84.1 117.5 -243.3 155.5 -300l-2.59998 -3
c-19.4 3 -31.4 3 -51.4 3c-19 0 -49 0 -68.6 -3c-3.79999 34 -34.3 107 -69 179c-19.2 38.9 -39.7 78.6 -61.9 111.5c-19.4 -1 -41.1 -1.5 -65.7 -1.5z" />
    <glyph glyph-name="uni1E5D" unicode="&#x1e5d;" horiz-adv-x="355" 
d="M422 541h-244c-9 0 -11.3 8 -9.8 15c2.5 12 17.1 29 28.1 29h245c10 0 12.4 -8 11.1 -14c-2.60001 -12 -17.4 -30 -30.4 -30zM50.6 -115c5.7 27 34.8 51 61.8 51c27 0 45.9 -24 40.2 -51c-5.70001 -27 -34.9 -51 -61.9 -51c-27 0 -45.8 24 -40.1 51zM249.2 354
c34.3 39 96.1 85 143.1 85c18 0 23.6 -2 39.5 -7l3.20001 -4l-35.8 -74l-8.40002 -2c-15 14 -36 14 -55 14c-15 0 -42.2 -10 -66 -28c-19.4 -16 -32.9 -42 -38 -66l-19.5 -92c-16.2 -76 -24.2 -123 -28.3 -180l-2.60001 -3s-13.4 3 -47.4 3c-35 0 -49.6 -3 -49.6 -3
l-0.400002 3c19.5 54 32.4 105 48.3 180l11.7 55c15.9 75 21.3 133 22.4 176l2.60001 3c41.6 3 62.2 15 89.3 25c6 0 8.40002 -3 6.90002 -10c-7.20001 -29 -18 -75 -18 -75h2z" />
    <glyph glyph-name="uni1E5E" unicode="&#x1e5e;" horiz-adv-x="579" 
d="M410.3 -107h-245c-8 0 -10.4 8 -8.90001 15c2.60001 12 16.2 29 28.2 29h245c9 0 11.5 -7 10 -14c-2.60001 -12 -16.3 -30 -29.3 -30zM402.3 613c-71 0 -86.2 -15 -92.4 -44l-50.8 -239h48c97 0 168.9 23 195.5 148c25.1 118 -39.3 135 -100.3 135zM249.8 286l-18.3 -86
c-15.9 -75 -28.4 -143 -32.5 -200l-2.60001 -3s-16.4 3 -50.4 3c-35 0 -52.6 -3 -52.6 -3l-0.400002 3c19.5 54 36.6 125 52.5 200l52.1 245c15.9 75 28.4 143 32.5 200l2.59999 3s16.4 -3 50.4 -3c30 0 101.5 7 126.5 7c63 0 125.4 -3 163.8 -48c28.8 -34 37 -75 26.4 -125
c-17.4 -82 -74.5 -134 -134.2 -161c-14.5 -6.70001 -30.8 -12.9 -52.1 -18c45.9 -84.1 117.5 -243.3 155.5 -300l-2.59998 -3c-19.4 3 -31.4 3 -51.4 3c-19 0 -49 0 -68.6 -3c-3.79999 34 -34.3 107 -69 179c-19.2 38.9 -39.7 78.6 -61.9 111.5
c-19.4 -1 -41.1 -1.5 -65.7 -1.5z" />
    <glyph glyph-name="uni1E5F" unicode="&#x1e5f;" horiz-adv-x="355" 
d="M251.7 -105h-245c-8 0 -10.3 8 -8.8 15c2.6 12 16.1 29 28.1 29h245c9 0 11.6 -7 10.1 -14c-2.60001 -12 -16.4 -30 -29.4 -30zM249.2 354c34.3 39 96.1 85 143.1 85c18 0 23.6 -2 39.5 -7l3.20001 -4l-35.8 -74l-8.40002 -2c-15 14 -36 14 -55 14
c-15 0 -42.2 -10 -66 -28c-19.4 -16 -32.9 -42 -38 -66l-19.5 -92c-16.2 -76 -24.2 -123 -28.3 -180l-2.60001 -3s-13.4 3 -47.4 3c-35 0 -49.6 -3 -49.6 -3l-0.400002 3c19.5 54 32.4 105 48.3 180l11.7 55c15.9 75 21.3 133 22.4 176l2.60001 3c41.6 3 62.2 15 89.3 25
c6 0 8.40002 -3 6.90002 -10c-7.20001 -29 -18 -75 -18 -75h2z" />
    <glyph glyph-name="uni1E60" unicode="&#x1e60;" horiz-adv-x="480" 
d="M329.4 750c5.70001 27 34.9 51 61.9 51s45.8 -24 40.1 -51c-5.69998 -27 -34.8 -51 -61.8 -51s-45.9 24 -40.2 51zM236 33c68 0 132.9 37 150.1 118c18.7 88 -22.8 114 -78.7 138c-83.6 35 -174.1 84 -150.3 196c22.5 106 139.8 173 226.8 173c122 0 148.4 -45 148.4 -45
l1.40002 -3c-15.4 -30 -28.7 -60 -40.4 -96l-10.3 -1c-14.8 62 -44.6 105 -116.6 105c-66 0 -116.6 -45 -129.6 -106c-17.6 -83 66 -118 104.8 -133c77.6 -30 161.6 -77 136.9 -193c-21.7 -102 -145.6 -196 -260.6 -196c-122 0 -171.5 45 -171.5 45l-1.3 3
c14.4 30 29.1 62 40.8 98l10.2 1c14.8 -62 67.9 -104 139.9 -104z" />
    <glyph glyph-name="uni1E61" unicode="&#x1e61;" horiz-adv-x="366" 
d="M67.4 96l14.2 1c12.9 -43 52.1 -70 97.1 -70c50 0 91 33 102.3 86c10.4 49 -25.3 60 -75.8 81c-33 14 -67 28 -81.6 58c-7.8 15 -10.7 39 -5.2 65c17.6 83 107.9 122 177.9 122c48 0 87.4 -17 111.2 -32l1.39999 -3l-33.3 -67l-13.2 -1c-7 28 -28.7 67 -77.7 67
c-41 0 -83.6 -26 -92.3 -67c-10.6 -50 36 -66 68.4 -78c62.9 -24 117.6 -49 100.2 -131c-11.7 -55 -59.1 -137 -189.1 -137c-36 0 -87.6 7 -137.3 27zM264.4 571c5.70001 27 34.8 51 61.8 51s45.9 -24 40.2 -51c-5.69998 -27 -34.9 -51 -61.9 -51s-45.8 24 -40.1 51z" />
    <glyph glyph-name="uni1E62" unicode="&#x1e62;" horiz-adv-x="480" 
d="M152.6 -115c5.7 27 34.8 51 61.8 51s45.9 -24 40.2 -51c-5.70001 -27 -34.9 -51 -61.9 -51s-45.8 24 -40.1 51zM236 33c68 0 132.9 37 150.1 118c18.7 88 -22.8 114 -78.7 138c-83.6 35 -174.1 84 -150.3 196c22.5 106 139.8 173 226.8 173c122 0 148.4 -45 148.4 -45
l1.40002 -3c-15.4 -30 -28.7 -60 -40.4 -96l-10.3 -1c-14.8 62 -44.6 105 -116.6 105c-66 0 -116.6 -45 -129.6 -106c-17.6 -83 66 -118 104.8 -133c77.6 -30 161.6 -77 136.9 -193c-21.7 -102 -145.6 -196 -260.6 -196c-122 0 -171.5 45 -171.5 45l-1.3 3
c14.4 30 29.1 62 40.8 98l10.2 1c14.8 -62 67.9 -104 139.9 -104z" />
    <glyph glyph-name="uni1E63" unicode="&#x1e63;" horiz-adv-x="366" 
d="M67.4 96l14.2 1c12.9 -43 52.1 -70 97.1 -70c50 0 91 33 102.3 86c10.4 49 -25.3 60 -75.8 81c-33 14 -67 28 -81.6 58c-7.8 15 -10.7 39 -5.2 65c17.6 83 107.9 122 177.9 122c48 0 87.4 -17 111.2 -32l1.39999 -3l-33.3 -67l-13.2 -1c-7 28 -28.7 67 -77.7 67
c-41 0 -83.6 -26 -92.3 -67c-10.6 -50 36 -66 68.4 -78c62.9 -24 117.6 -49 100.2 -131c-11.7 -55 -59.1 -137 -189.1 -137c-36 0 -87.6 7 -137.3 27zM114.6 -115c5.7 27 34.8 51 61.8 51s45.9 -24 40.2 -51c-5.70001 -27 -34.9 -51 -61.9 -51s-45.8 24 -40.1 51z" />
    <glyph glyph-name="uni1E64" unicode="&#x1e64;" horiz-adv-x="480" 
d="M232.9 771c5.70001 27 34.8 51 61.8 51s45.9 -24 40.2 -51c-5.69998 -27 -34.9 -51 -61.9 -51s-45.8 24 -40.1 51zM507.1 819c25.8 -13.3 42.7 -30.7 50.9 -52l-156.3 -58c-22.9 -9 -35.5 -12 -44.5 -12s-13.6 7 -11.9 15c1.5 7 4.60001 12 19.5 21zM236 33
c68 0 132.9 37 150.1 118c18.7 88 -22.8 114 -78.7 138c-83.6 35 -174.1 84 -150.3 196c22.5 106 139.8 173 226.8 173c122 0 148.4 -45 148.4 -45l1.40002 -3c-15.4 -30 -28.7 -60 -40.4 -96l-10.3 -1c-14.8 62 -44.6 105 -116.6 105c-66 0 -116.6 -45 -129.6 -106
c-17.6 -83 66 -118 104.8 -133c77.6 -30 161.6 -77 136.9 -193c-21.7 -102 -145.6 -196 -260.6 -196c-122 0 -171.5 45 -171.5 45l-1.3 3c14.4 30 29.1 62 40.8 98l10.2 1c14.8 -62 67.9 -104 139.9 -104z" />
    <glyph glyph-name="uni1E65" unicode="&#x1e65;" horiz-adv-x="366" 
d="M67.4 96l14.2 1c12.9 -43 52.1 -70 97.1 -70c50 0 91 33 102.3 86c10.4 49 -25.3 60 -75.8 81c-33 14 -67 28 -81.6 58c-7.8 15 -10.7 39 -5.2 65c17.6 83 107.9 122 177.9 122c48 0 87.4 -17 111.2 -32l1.39999 -3l-33.3 -67l-13.2 -1c-7 28 -28.7 67 -77.7 67
c-41 0 -83.6 -26 -92.3 -67c-10.6 -50 36 -66 68.4 -78c62.9 -24 117.6 -49 100.2 -131c-11.7 -55 -59.1 -137 -189.1 -137c-36 0 -87.6 7 -137.3 27zM382.6 671c3.19998 1 9.5 2 14.5 2c6.39999 0 31.8 -1 50.1 -23l0.599976 -11l-138.1 -109
c-18.2 -15 -27.1 -19 -34.1 -19s-12.7 6 -11.2 13c2.39999 11.2 6.5 15.2 17.4 28zM185.4 630c5.20001 24.3 31.4 45.9 55.7 45.9c24.3 0 41.3 -21.6 36.1 -45.9c-5.20001 -24.3 -31.3 -45.9 -55.6 -45.9c-24.3 0 -41.4 21.6 -36.2 45.9z" />
    <glyph glyph-name="uni1E66" unicode="&#x1e66;" horiz-adv-x="480" 
d="M366.6 845c5.69998 27 34.8 51 61.8 51s45.9 -24 40.2 -51c-5.70001 -27 -34.8 -51 -61.8 -51s-45.9 24 -40.2 51zM363.2 697c-22.1 37 -50.9 67 -80.9 95l20.3 20c35.4 -17 65.3 -36 93 -61c42.5 26 78.6 45 120 61l10.7 -20c-44.2 -29 -82.9 -61 -120.1 -95h-43z
M236 33c68 0 132.9 37 150.1 118c18.7 88 -22.8 114 -78.7 138c-83.6 35 -174.1 84 -150.3 196c22.5 106 139.8 173 226.8 173c122 0 148.4 -45 148.4 -45l1.40002 -3c-15.4 -30 -28.7 -60 -40.4 -96l-10.3 -1c-14.8 62 -44.6 105 -116.6 105c-66 0 -116.6 -45 -129.6 -106
c-17.6 -83 66 -118 104.8 -133c77.6 -30 161.6 -77 136.9 -193c-21.7 -102 -145.6 -196 -260.6 -196c-122 0 -171.5 45 -171.5 45l-1.3 3c14.4 30 29.1 62 40.8 98l10.2 1c14.8 -62 67.9 -104 139.9 -104z" />
    <glyph glyph-name="uni1E67" unicode="&#x1e67;" horiz-adv-x="366" 
d="M67.4 96l14.2 1c12.9 -43 52.1 -70 97.1 -70c50 0 91 33 102.3 86c10.4 49 -25.3 60 -75.8 81c-33 14 -67 28 -81.6 58c-7.8 15 -10.7 39 -5.2 65c17.6 83 107.9 122 177.9 122c48 0 87.4 -17 111.2 -32l1.39999 -3l-33.3 -67l-13.2 -1c-7 28 -28.7 67 -77.7 67
c-41 0 -83.6 -26 -92.3 -67c-10.6 -50 36 -66 68.4 -78c62.9 -24 117.6 -49 100.2 -131c-11.7 -55 -59.1 -137 -189.1 -137c-36 0 -87.6 7 -137.3 27zM275.7 502c-19 47 -46.5 92 -73.4 130l22.8 13c32.8 -29 60.6 -54 86.9 -90c45.1 38 84.4 63 127.1 90l16.2 -13
c-43.3 -39 -90.8 -84 -129.6 -130h-50zM295.1 685c5.19998 24.3 31.4 45.9 55.7 45.9c24.3 0 41.3 -21.6 36.1 -45.9c-5.19998 -24.3 -31.4 -45.9 -55.7 -45.9c-24.3 0 -41.3 21.6 -36.1 45.9z" />
    <glyph glyph-name="uni1E68" unicode="&#x1e68;" horiz-adv-x="480" 
d="M336.2 749c5.69998 27 34.8 51 61.8 51s45.9 -24 40.2 -51c-5.70001 -27 -34.8 -51 -61.8 -51s-45.9 24 -40.2 51zM152.6 -115c5.7 27 34.8 51 61.8 51s45.9 -24 40.2 -51c-5.70001 -27 -34.9 -51 -61.9 -51s-45.8 24 -40.1 51zM236 33c68 0 132.9 37 150.1 118
c18.7 88 -22.8 114 -78.7 138c-83.6 35 -174.1 84 -150.3 196c22.5 106 139.8 173 226.8 173c122 0 148.4 -45 148.4 -45l1.40002 -3c-15.4 -30 -28.7 -60 -40.4 -96l-10.3 -1c-14.8 62 -44.6 105 -116.6 105c-66 0 -116.6 -45 -129.6 -106c-17.6 -83 66 -118 104.8 -133
c77.6 -30 161.6 -77 136.9 -193c-21.7 -102 -145.6 -196 -260.6 -196c-122 0 -171.5 45 -171.5 45l-1.3 3c14.4 30 29.1 62 40.8 98l10.2 1c14.8 -62 67.9 -104 139.9 -104z" />
    <glyph glyph-name="uni1E69" unicode="&#x1e69;" horiz-adv-x="366" 
d="M67.4 96l14.2 1c12.9 -43 52.1 -70 97.1 -70c50 0 91 33 102.3 86c10.4 49 -25.3 60 -75.8 81c-33 14 -67 28 -81.6 58c-7.8 15 -10.7 39 -5.2 65c17.6 83 107.9 122 177.9 122c48 0 87.4 -17 111.2 -32l1.39999 -3l-33.3 -67l-13.2 -1c-7 28 -28.7 67 -77.7 67
c-41 0 -83.6 -26 -92.3 -67c-10.6 -50 36 -66 68.4 -78c62.9 -24 117.6 -49 100.2 -131c-11.7 -55 -59.1 -137 -189.1 -137c-36 0 -87.6 7 -137.3 27zM114.6 -115c5.7 27 34.8 51 61.8 51s45.9 -24 40.2 -51c-5.70001 -27 -34.9 -51 -61.9 -51s-45.8 24 -40.1 51zM260.4 571
c5.70001 27 34.8 51 61.8 51s45.9 -24 40.2 -51c-5.69998 -27 -34.9 -51 -61.9 -51s-45.8 24 -40.1 51z" />
    <glyph glyph-name="uni1E6A" unicode="&#x1e6a;" horiz-adv-x="540" 
d="M385 748c5.70001 27 34.8 51 61.8 51s45.9 -24 40.2 -51s-34.8 -51 -61.8 -51s-45.9 24 -40.2 51zM321.6 445c3.60001 17 23.9 117 22 141c-134 0 -204.6 -12 -204.6 -12l-1.10001 4c5.20001 15 10.2 39 14.2 67l2.59999 3c15.6 -2 38.4 -3 59.4 -3h386
c21 0 44.2 1 60.6 3l1.39996 -3c-8 -28 -13 -52 -14.2 -67l-2.90002 -4s-65.4 12 -199.4 12c-12.1 -24 -34.4 -124 -38 -141l-52.1 -245c-15.9 -75 -28.4 -143 -32.5 -200l-2.60001 -3s-16.4 3 -50.4 3c-35 0 -52.6 -3 -52.6 -3l-0.399994 3c19.5 54 36.6 125 52.5 200z" />
    <glyph glyph-name="uni1E6B" unicode="&#x1e6b;" horiz-adv-x="302" 
d="M234.8 681c5.7 27 34.8 51 61.8 51s45.9 -24 40.2 -51c-5.69998 -27 -34.9 -51 -61.9 -51s-45.8 24 -40.1 51zM178.2 429c12.3 58 16.8 79 18.7 121l2.60001 3c41.1 3 59.2 15 86.4 25c6.30002 0 8.39999 -2.70001 6.80002 -10c-16.8 -58 -18.6 -64.2 -34.5 -139h107
c5 0 7.59998 -2 6.69998 -6l-5.29999 -25c-1.89999 -9 -16.8 -13 -26.8 -13h-91l-30.4 -143c-12.8 -60 -24.2 -100 -30.6 -130c-8.7 -41 -7.2 -62 19.8 -62c26 0 42.5 2.4 72.4 17.7l6.5 -27.7c-46.3 -36 -84.6 -50 -126.6 -50c-46 0 -71.2 32 -61.2 79
c6.4 30 24.6 102 37.4 162l32.7 154h-63c-3 0 -3.7 1 -3.10001 4l7.60001 36c0.599998 3 1.89999 4 3.89999 4h64z" />
    <glyph glyph-name="uni1E6C" unicode="&#x1e6c;" horiz-adv-x="540" 
d="M197.6 -115c5.7 27 34.8 51 61.8 51s45.9 -24 40.2 -51c-5.70001 -27 -34.9 -51 -61.9 -51c-27 0 -45.8 24 -40.1 51zM321.6 445c3.60001 17 23.9 117 22 141c-134 0 -204.6 -12 -204.6 -12l-1.10001 4c5.20001 15 10.2 39 14.2 67l2.59999 3c15.6 -2 38.4 -3 59.4 -3
h386c21 0 44.2 1 60.6 3l1.39996 -3c-8 -28 -13 -52 -14.2 -67l-2.90002 -4s-65.4 12 -199.4 12c-12.1 -24 -34.4 -124 -38 -141l-52.1 -245c-15.9 -75 -28.4 -143 -32.5 -200l-2.60001 -3s-16.4 3 -50.4 3c-35 0 -52.6 -3 -52.6 -3l-0.399994 3c19.5 54 36.6 125 52.5 200z
" />
    <glyph glyph-name="uni1E6D" unicode="&#x1e6d;" horiz-adv-x="302" 
d="M106.6 -115c5.7 27 34.8 51 61.8 51s45.9 -24 40.2 -51c-5.70001 -27 -34.9 -51 -61.9 -51s-45.8 24 -40.1 51zM178.2 429c12.3 58 16.8 79 18.7 121l2.60001 3c41.1 3 59.2 15 86.4 25c6.30002 0 8.39999 -2.70001 6.80002 -10c-16.8 -58 -18.6 -64.2 -34.5 -139h107
c5 0 7.59998 -2 6.69998 -6l-5.29999 -25c-1.89999 -9 -16.8 -13 -26.8 -13h-91l-30.4 -143c-12.8 -60 -24.2 -100 -30.6 -130c-8.7 -41 -7.2 -62 19.8 -62c26 0 42.5 2.4 72.4 17.7l6.5 -27.7c-46.3 -36 -84.6 -50 -126.6 -50c-46 0 -71.2 32 -61.2 79
c6.4 30 24.6 102 37.4 162l32.7 154h-63c-3 0 -3.7 1 -3.10001 4l7.60001 36c0.599998 3 1.89999 4 3.89999 4h64z" />
    <glyph glyph-name="uni1E6E" unicode="&#x1e6e;" horiz-adv-x="540" 
d="M366.2 -112h-245c-8 0 -10.3 8 -8.8 15c2.6 12 16.1 29 28.1 29h245c9 0 11.6 -7 10.1 -14c-2.60001 -12 -16.4 -30 -29.4 -30zM321.6 445c3.60001 17 23.9 117 22 141c-134 0 -204.6 -12 -204.6 -12l-1.10001 4c5.20001 15 10.2 39 14.2 67l2.59999 3
c15.6 -2 38.4 -3 59.4 -3h386c21 0 44.2 1 60.6 3l1.39996 -3c-8 -28 -13 -52 -14.2 -67l-2.90002 -4s-65.4 12 -199.4 12c-12.1 -24 -34.4 -124 -38 -141l-52.1 -245c-15.9 -75 -28.4 -143 -32.5 -200l-2.60001 -3s-16.4 3 -50.4 3c-35 0 -52.6 -3 -52.6 -3l-0.399994 3
c19.5 54 36.6 125 52.5 200z" />
    <glyph glyph-name="uni1E6F" unicode="&#x1e6f;" horiz-adv-x="302" 
d="M257.2 -112h-245c-8 0 -10.3 8 -8.8 15c2.6 12 16.1 29 28.1 29h245c9 0 11.6 -7 10.1 -14c-2.60001 -12 -16.4 -30 -29.4 -30zM178.2 429c12.3 58 16.8 79 18.7 121l2.60001 3c41.1 3 59.2 15 86.4 25c6.30002 0 8.39999 -2.70001 6.80002 -10
c-16.8 -58 -18.6 -64.2 -34.5 -139h107c5 0 7.59998 -2 6.69998 -6l-5.29999 -25c-1.89999 -9 -16.8 -13 -26.8 -13h-91l-30.4 -143c-12.8 -60 -24.2 -100 -30.6 -130c-8.7 -41 -7.2 -62 19.8 -62c26 0 42.5 2.4 72.4 17.7l6.5 -27.7c-46.3 -36 -84.6 -50 -126.6 -50
c-46 0 -71.2 32 -61.2 79c6.4 30 24.6 102 37.4 162l32.7 154h-63c-3 0 -3.7 1 -3.10001 4l7.60001 36c0.599998 3 1.89999 4 3.89999 4h64z" />
    <glyph glyph-name="uni1E70" unicode="&#x1e70;" horiz-adv-x="540" 
d="M287.7 -58c19 -47 46.1 -89 73.6 -129l-24 -14c-32.8 29 -60.6 54 -86.9 90c-45.1 -38 -82.4 -63 -126.1 -90l-17 14c44.5 40 91.6 83 130.4 129h50zM321.6 445c3.60001 17 23.9 117 22 141c-134 0 -204.6 -12 -204.6 -12l-1.10001 4c5.20001 15 10.2 39 14.2 67
l2.59999 3c15.6 -2 38.4 -3 59.4 -3h386c21 0 44.2 1 60.6 3l1.39996 -3c-8 -28 -13 -52 -14.2 -67l-2.90002 -4s-65.4 12 -199.4 12c-12.1 -24 -34.4 -124 -38 -141l-52.1 -245c-15.9 -75 -28.4 -143 -32.5 -200l-2.60001 -3s-16.4 3 -50.4 3c-35 0 -52.6 -3 -52.6 -3
l-0.399994 3c19.5 54 36.6 125 52.5 200z" />
    <glyph glyph-name="uni1E71" unicode="&#x1e71;" horiz-adv-x="302" 
d="M185.9 -57c19 -47 46.1 -89 73.6 -129l-24 -14c-32.8 29 -60.6 54 -86.9 90c-45.1 -38 -82.4 -63 -126.1 -90l-17 14c44.5 40 91.6 83 130.4 129h50zM178.2 429c12.3 58 16.8 79 18.7 121l2.60001 3c41.1 3 59.2 15 86.4 25c6.30002 0 8.39999 -2.70001 6.80002 -10
c-16.8 -58 -18.6 -64.2 -34.5 -139h107c5 0 7.59998 -2 6.69998 -6l-5.29999 -25c-1.89999 -9 -16.8 -13 -26.8 -13h-91l-30.4 -143c-12.8 -60 -24.2 -100 -30.6 -130c-8.7 -41 -7.2 -62 19.8 -62c26 0 42.5 2.4 72.4 17.7l6.5 -27.7c-46.3 -36 -84.6 -50 -126.6 -50
c-46 0 -71.2 32 -61.2 79c6.4 30 24.6 102 37.4 162l32.7 154h-63c-3 0 -3.7 1 -3.10001 4l7.60001 36c0.599998 3 1.89999 4 3.89999 4h64z" />
    <glyph glyph-name="uni1E72" unicode="&#x1e72;" horiz-adv-x="661" 
d="M181.4 -111c5.3 25 30.8 46 55.8 46c25 0 41.5 -21 36.2 -46c-5.29999 -25 -30.8 -46 -55.8 -46s-41.5 21 -36.2 46zM341.4 -111c5.30002 25 30.8 46 55.8 46s41.5 -21 36.2 -46c-5.29999 -25 -30.8 -46 -55.8 -46s-41.5 21 -36.2 46zM615.6 445
c15.9 75 28.4 143 32.5 200l2.60004 3s10.1 -3 34.4 -3c22.3 0 35.6 3 35.6 3l0.399963 -3c-19.3 -53 -36.6 -125 -52.5 -200l-31.9 -150c-37.8 -178 -112.8 -305 -317.8 -305c-90 0 -226.1 42 -182.7 246l44.4 209c15.9 75 28.4 143 32.5 200l2.59999 3s16.4 -3 50.4 -3
c35 0 52.6 3 52.6 3l0.399994 -3c-19.3 -53 -36.6 -125 -52.5 -200l-37.4 -176c-11.5 -54 -46.5 -228 121.5 -228c169 0 205.4 124 229.2 236z" />
    <glyph glyph-name="uni1E73" unicode="&#x1e73;" horiz-adv-x="521" 
d="M101.4 -111c5.3 25 30.8 46 55.8 46s41.5 -21 36.2 -46c-5.29999 -25 -30.8 -46 -55.8 -46c-25 0 -41.5 21 -36.2 46zM261.4 -111c5.30002 25 30.8 46 55.8 46s41.5 -21 36.2 -46c-5.29999 -25 -30.8 -46 -55.8 -46s-41.5 21 -36.2 46zM363.6 64
c-68.8 -60 -112.7 -74 -153.7 -74c-99 0 -113.8 67 -99.1 136l26.1 123c16.2 76 25.2 123 28.3 180l2.60001 3s13.4 -3 47.4 -3c35 0 49.6 3 49.6 3l0.400024 -3c-20.3 -53 -32.4 -105 -48.3 -180l-21 -99c-18.9 -89 21.7 -105 51.7 -105c44.8 0 95.1 43.2 127.7 74
l27.6 130c16.2 76 25.2 123 28.3 180l2.59998 3s13.4 -3 47.4 -3c35 0 49.6 3 49.6 3l0.400024 -3c-20.3 -53 -32.4 -105 -48.3 -180l-12.1 -57c-15.9 -75 -22.7 -149 -23.8 -192l-2.60001 -3c-12.6 2 -31.3 3 -43.9 3c-14.5 0 -21.4 -1.3 -35.1 -3
c-6 0 -8.79999 1 -8.39999 3l8.60001 64h-2z" />
    <glyph glyph-name="uni1E74" unicode="&#x1e74;" horiz-adv-x="661" 
d="M376.5 -120c22 0 38.1 10 61 52l22.8 -6c-24.8 -60 -60.2 -90 -106.2 -90c-22 0 -40.4 12 -58.4 26c-15.7 11 -32.4 22 -49.4 22c-26 0 -42.2 -15 -59.2 -48l-22.9 5c26.5 59 55.9 89 98.9 89c30 0 49.1 -14 66.1 -28c13.4 -12 28.3 -22 47.3 -22zM615.6 445
c15.9 75 28.4 143 32.5 200l2.60004 3s10.1 -3 34.4 -3c22.3 0 35.6 3 35.6 3l0.399963 -3c-19.3 -53 -36.6 -125 -52.5 -200l-31.9 -150c-37.8 -178 -112.8 -305 -317.8 -305c-90 0 -226.1 42 -182.7 246l44.4 209c15.9 75 28.4 143 32.5 200l2.59999 3s16.4 -3 50.4 -3
c35 0 52.6 3 52.6 3l0.399994 -3c-19.3 -53 -36.6 -125 -52.5 -200l-37.4 -176c-11.5 -54 -46.5 -228 121.5 -228c169 0 205.4 124 229.2 236z" />
    <glyph glyph-name="uni1E75" unicode="&#x1e75;" horiz-adv-x="521" 
d="M295.5 -120c22 0 38.1 10 61 52l22.8 -6c-24.8 -60 -60.2 -90 -106.2 -90c-22 0 -40.4 12 -58.4 26c-15.7 11 -32.4 22 -49.4 22c-26 0 -42.2 -15 -59.2 -48l-22.9 5c26.5 59 55.9 89 98.9 89c30 0 49.1 -14 66.1 -28c13.4 -12 28.3 -22 47.3 -22zM363.6 64
c-68.8 -60 -112.7 -74 -153.7 -74c-99 0 -113.8 67 -99.1 136l26.1 123c16.2 76 25.2 123 28.3 180l2.60001 3s13.4 -3 47.4 -3c35 0 49.6 3 49.6 3l0.400024 -3c-20.3 -53 -32.4 -105 -48.3 -180l-21 -99c-18.9 -89 21.7 -105 51.7 -105c44.8 0 95.1 43.2 127.7 74
l27.6 130c16.2 76 25.2 123 28.3 180l2.59998 3s13.4 -3 47.4 -3c35 0 49.6 3 49.6 3l0.400024 -3c-20.3 -53 -32.4 -105 -48.3 -180l-12.1 -57c-15.9 -75 -22.7 -149 -23.8 -192l-2.60001 -3c-12.6 2 -31.3 3 -43.9 3c-14.5 0 -21.4 -1.3 -35.1 -3
c-6 0 -8.79999 1 -8.39999 3l8.60001 64h-2z" />
    <glyph glyph-name="uni1E76" unicode="&#x1e76;" horiz-adv-x="661" 
d="M346.7 -58c19 -47 46.1 -89 73.6 -129l-24 -14c-32.8 29 -60.6 54 -86.9 90c-45.1 -38 -82.4 -63 -126.1 -90l-17 14c44.5 40 91.6 83 130.4 129h50zM615.6 445c15.9 75 28.4 143 32.5 200l2.60004 3s10.1 -3 34.4 -3c22.3 0 35.6 3 35.6 3l0.399963 -3
c-19.3 -53 -36.6 -125 -52.5 -200l-31.9 -150c-37.8 -178 -112.8 -305 -317.8 -305c-90 0 -226.1 42 -182.7 246l44.4 209c15.9 75 28.4 143 32.5 200l2.59999 3s16.4 -3 50.4 -3c35 0 52.6 3 52.6 3l0.399994 -3c-19.3 -53 -36.6 -125 -52.5 -200l-37.4 -176
c-11.5 -54 -46.5 -228 121.5 -228c169 0 205.4 124 229.2 236z" />
    <glyph glyph-name="uni1E77" unicode="&#x1e77;" horiz-adv-x="521" 
d="M263.9 -57c19 -47 46.1 -89 73.6 -129l-24 -14c-32.8 29 -60.6 54 -86.9 90c-45.1 -38 -82.4 -63 -126.1 -90l-17 14c44.5 40 91.6 83 130.4 129h50zM363.6 64c-68.8 -60 -112.7 -74 -153.7 -74c-99 0 -113.8 67 -99.1 136l26.1 123c16.2 76 25.2 123 28.3 180l2.60001 3
s13.4 -3 47.4 -3c35 0 49.6 3 49.6 3l0.400024 -3c-20.3 -53 -32.4 -105 -48.3 -180l-21 -99c-18.9 -89 21.7 -105 51.7 -105c44.8 0 95.1 43.2 127.7 74l27.6 130c16.2 76 25.2 123 28.3 180l2.59998 3s13.4 -3 47.4 -3c35 0 49.6 3 49.6 3l0.400024 -3
c-20.3 -53 -32.4 -105 -48.3 -180l-12.1 -57c-15.9 -75 -22.7 -149 -23.8 -192l-2.60001 -3c-12.6 2 -31.3 3 -43.9 3c-14.5 0 -21.4 -1.3 -35.1 -3c-6 0 -8.79999 1 -8.39999 3l8.60001 64h-2z" />
    <glyph glyph-name="uni1E78" unicode="&#x1e78;" horiz-adv-x="661" 
d="M563.3 741.8c18.7 0 32.9 11 54.6 57.2l19 -6.59998c-24.2 -66 -55.9 -99 -95 -99c-18.7 0 -33.7 13.2 -48.3 28.6c-12.7 12.1 -26.2 24.2 -40.7 24.2c-22.1 0 -36.7 -16.5 -52.9 -52.8l-19.2 5.5c25.7 64.9 52.3 97.9 88.8 97.9c25.5 0 40.9 -15.4 54.6 -30.8
c10.8 -13.2 23 -24.2 39.1 -24.2zM615.6 445c15.9 75 28.4 143 32.5 200l2.60004 3s10.1 -3 34.4 -3c22.3 0 35.6 3 35.6 3l0.399963 -3c-19.3 -53 -36.6 -125 -52.5 -200l-31.9 -150c-37.8 -178 -112.8 -305 -317.8 -305c-90 0 -226.1 42 -182.7 246l44.4 209
c15.9 75 28.4 143 32.5 200l2.59999 3s16.4 -3 50.4 -3c35 0 52.6 3 52.6 3l0.399994 -3c-19.3 -53 -36.6 -125 -52.5 -200l-37.4 -176c-11.5 -54 -46.5 -228 121.5 -228c169 0 205.4 124 229.2 236zM770.9 831.8c19.6 -11.7 32.2 -26.9 38 -45.7l-121.7 -51.1
c-17.9 -7.90002 -27.7 -10.5 -34.6 -10.5c-6.89996 0 -10.2 6.20001 -8.69995 13.2c1.29999 6.20001 3.79999 10.6 15.5 18.5z" />
    <glyph glyph-name="uni1E79" unicode="&#x1e79;" horiz-adv-x="521" 
d="M486.3 778c2.5 0.900024 7.30002 1.79999 11.2 1.79999c4.89999 0 24.4 -0.799988 38 -20.2l0.299988 -9.69995l-108.9 -95.9c-14.4 -13.2 -21.3 -16.8 -26.7 -16.8c-5.40002 0 -9.60001 5.29999 -8.30002 11.5c2.10001 9.89996 5.30002 13.3 14 24.6zM454.2 570
c22 0 38.1 10 61 52l22.7 -6c-24.8 -60 -60.1 -90 -106.1 -90c-22 0 -40.5 12 -58.5 26c-15.7 11 -32.3 22 -49.3 22c-26 0 -42.2 -15 -59.2 -48l-22.9 5c26.5 59 55.9 89 98.9 89c30 0 49 -14 66 -28c13.4 -12 28.4 -22 47.4 -22zM363.6 64
c-68.8 -60 -112.7 -74 -153.7 -74c-99 0 -113.8 67 -99.1 136l26.1 123c16.2 76 25.2 123 28.3 180l2.60001 3s13.4 -3 47.4 -3c35 0 49.6 3 49.6 3l0.400024 -3c-20.3 -53 -32.4 -105 -48.3 -180l-21 -99c-18.9 -89 21.7 -105 51.7 -105c44.8 0 95.1 43.2 127.7 74
l27.6 130c16.2 76 25.2 123 28.3 180l2.59998 3s13.4 -3 47.4 -3c35 0 49.6 3 49.6 3l0.400024 -3c-20.3 -53 -32.4 -105 -48.3 -180l-12.1 -57c-15.9 -75 -22.7 -149 -23.8 -192l-2.60001 -3c-12.6 2 -31.3 3 -43.9 3c-14.5 0 -21.4 -1.3 -35.1 -3
c-6 0 -8.79999 1 -8.39999 3l8.60001 64h-2z" />
    <glyph glyph-name="space" unicode=" " horiz-adv-x="250" 
 />
    <glyph glyph-name="ampersand" unicode="&#x26;" horiz-adv-x="705" 
d="M321.8 338c-115.1 -57 -150.5 -111 -165.6 -182c-20.8 -98 33.5 -129 96.5 -129c71 0 104.4 39 167.6 106c-41.1 75 -92 184 -98.5 205zM375.4 411c72.9 42 122.5 92 130.2 128c9.60001 45 -9.20001 70 -50.2 70c-26 0 -81.1 -24 -95.1 -90
c-4.89999 -23 -3.09998 -62 15.1 -108zM472.8 192c93.3 105 133 174 155 240c9.40002 -3 28.4 -3 38.4 -3s33 0 43.6 3c-53.2 -67 -187.8 -245 -217.3 -279l24.2 -46c21.6 -44 47.7 -63 63.7 -63c33 0 59.1 15 87.4 54l14.3 -8c-37.9 -70 -84.2 -100 -119.2 -100
c-31 0 -67.6 2 -100.8 67l-21.1 37c-59.4 -63 -118.1 -104 -203.1 -104c-107 0 -185.8 48 -158.6 176c15.3 72 80.7 135 228.4 209c-25.5 59 -27.9 104 -19.8 142c12.5 59 80.8 131 180.8 131c70 0 117.3 -46 103.9 -109c-11.7 -55 -90.5 -120 -183.7 -168l2.30002 -8
c11.4 -31 48.8 -109 81.6 -171z" />
    <glyph glyph-name="quotesingle" unicode="'" horiz-adv-x="190" 
d="M169.5 426c0 0 7.89999 159 9.8 168c4.7 22 31.6 50 61.6 50c26 0 31.4 -17 28 -33s-71.5 -181 -71.5 -181z" />
    <glyph glyph-name="comma" unicode="," horiz-adv-x="220" 
d="M57.4 44l0.799999 4c14.9 26.5 32.6 41.8 65.5 54h4c33.4 -13.1 55.5 -40.2 41.7 -105c-14.9 -70 -85.4 -119 -147.7 -130c-5.5 5.9 -5.2 15.1 0.299999 25c54.8 13 98.3 58 102.8 79c5.2 24.5 -10.9 26 -23.4 26c-29.8 7 -42.4 13.5 -44 47z" />
    <glyph glyph-name="hyphen" unicode="-" horiz-adv-x="333" 
d="M323 223h-226c-8 0 -12 6 -12 13c0 18 23 47 34 47h229c8 0 10 -5 10 -12c0 -14 -21 -48 -35 -48z" />
    <glyph glyph-name="period" unicode="." horiz-adv-x="220" 
d="M63.4 44l0.799995 4c14.9 26.5 32.6 41.8 65.5 54h4c26.8 -10.5 39.3 -25.8 42.5 -54l-0.800003 -4c-17.1 -32.2 -35.8 -47 -65.5 -54h-4c-29.8 7 -40.9 20.5 -42.5 54z" />
    <glyph glyph-name="zero" unicode="0" horiz-adv-x="444" 
d="M334 571c-44 0 -111 -37 -159 -284c-7.3 -37.3 -15.5 -90 -15.5 -138c0 -64.1 14.6 -120 65.5 -120c17 0 66 10 103 93c23 51 36 103 54 195c10.7 55 15.3 100.5 15.3 136.9c0 52.3 -9.59998 85.8 -24.3 101.1c-9 10 -23 16 -39 16zM216 -10
c-91.9 0 -133.7 81.7 -133.7 193.5c0 33 3.6 68.6 10.7 105.5c38 197 152 321 248 321c35 0 64 -10 85 -35c20.9 -24.6 47.8 -73.5 47.8 -161.4c0 -30.1 -3.09998 -64.8 -10.8 -104.6c-45 -234 -173 -319 -247 -319z" />
    <glyph glyph-name="I" unicode="I" horiz-adv-x="293" 
d="M200.6 445c15.9 75 28.4 143 32.5 200l2.59999 3s16.4 -3 50.4 -3c35 0 52.7 3 52.7 3l0.300018 -3c-19.3 -53 -36.6 -125 -52.5 -200l-52.1 -245c-15.9 -75 -28.4 -143 -32.5 -200l-2.60001 -3s-16.4 3 -50.4 3c-35 0 -52.6 -3 -52.6 -3l-0.400002 3
c19.5 54 36.6 125 52.5 200z" />
    <glyph glyph-name="J" unicode="J" horiz-adv-x="311" 
d="M158.5 95l68.3 350c14.6 75 25.9 143 29 200l2.59999 3s16.4 -3 50.4 -3c35 0 52.6 3 52.6 3l0.399994 -3c-18.3 -53 -34.4 -125 -49 -200l-64 -328c-22.3 -114.5 -38 -144 -104.5 -213c-52.5 -54 -109.9 -76 -172.9 -76c-19 0 -36.2 4 -43.2 9l-0.399994 3
c14.7 19 31.7 55 44 82l11.2 1c7.1 -20 22.1 -35 51.1 -35c79 0 107.2 119 124.4 207z" />
    <glyph glyph-name="K" unicode="K" horiz-adv-x="607" 
d="M200.6 445c15.9 75 28.4 143 32.5 200l2.59999 3s16.4 -3 50.4 -3c35 0 52.6 3 52.6 3l0.399994 -3c-19.3 -53 -36.6 -125 -52.5 -200l-21.5 -100.9c0.600006 0 1.29999 -0.100006 2 -0.100006c4 0 16.4 2 25.9 9l40 30.3c96.9 75.2 182.7 175.3 279.7 264.7
c12.4 -3 35.4 -3 48.4 -3c15 0 35 0 51.6 3c-104.4 -77 -253.7 -215 -338.5 -294l-0.400024 -2l220.6 -355c-18.4 3 -42.4 3 -61.4 3c-17 0 -45 0 -62.6 -3c-66.4 111 -154.7 284 -187 325c-4.89999 5 -17.5 7 -20.5 7h-1l-27.4 -129c-15.9 -75 -28.4 -143 -32.5 -200
l-2.60001 -3s-16.4 3 -50.4 3c-35 0 -52.6 -3 -52.6 -3l-0.400002 3c19.5 54 36.6 125 52.5 200z" />
    <glyph glyph-name="L" unicode="L" horiz-adv-x="506" 
d="M231.5 200c-3.60001 -17 -24.9 -122 -23 -146c134 0 264.5 22 264.5 22l1.20001 -4c-2.70001 -8 -6.90002 -23 -9 -33c-2.10001 -10 -2.20001 -25 -4.20001 -39l-2.60001 -3c-15.6 2 -38.4 3 -59.4 3h-253c-34 0 -52.6 -3 -52.6 -3l-0.400002 3
c19.5 54 36.6 125 52.5 200l52.1 245c15.9 75 27.4 143 31.5 200l2.59999 3s17.4 -3 51.4 -3c35 0 52.6 3 52.6 3l0.399994 -3c-19.3 -53 -36.6 -125 -52.5 -200z" />
    <glyph glyph-name="M" unicode="M" horiz-adv-x="833" 
d="M283.7 662h26c47.2 -174.6 78.5 -341.2 136.3 -515.5l367.7 515.5h22c-23.7 -243 -48.2 -448 -63.3 -665c-14.4 3 -34.4 3 -49.4 3s-34 0 -49.6 -3c21.6 165.8 41.2 313.2 55.6 470.9c-116.8 -154.8 -213.5 -301.2 -322 -467.9h-19c-39.6 152.9 -75 306.4 -122.1 466.1
c-51.1 -156.2 -121.4 -365 -144.5 -469.1c-10.4 3 -21.4 3 -32.4 3c-12 0 -27 0 -38.6 -3c77.6 210 169.6 464 233.3 665z" />
    <glyph glyph-name="N" unicode="N" horiz-adv-x="650" 
d="M195.6 445c16.3 76.2 27.4 142 32.5 200l2.59999 3s16.8 -3 30.4 -3c4.5 0 24.4 2 24.4 2l218.6 -444c28.1 -57.1 39.8 -57 46.7 -25l46.8 217c24.8 115.1 45.4 195.5 66.5 250l2.60004 3s10.1 -3 34.4 -3c22.3 0 35.6 3 35.6 3l0.399963 -3
c-26.6 -52 -61.7 -134.5 -86.5 -250l-80.1 -374c-4.09998 -19 -13.6 -31 -27.6 -31c-16 0 -30.1 9 -37.9 24l-225.3 441c-25 49 -19.3 44.9 -32.4 -16l-44.8 -209c-20.6 -96.3 -39.5 -176 -58.5 -230l-2.60001 -3s-10.1 3 -34.4 3c-22.3 0 -35.6 -3 -35.6 -3l-0.400002 3
c27 51.5 55.1 121 78.5 230z" />
    <glyph glyph-name="O" unicode="O" horiz-adv-x="691" 
d="M460.5 614c-47.7 0 -97.8 -19 -141.5 -64c-52.6 -54 -115.5 -185 -115.5 -319.3c0 -129.3 69.7 -196.7 167.7 -196.7c64 0 120 30.6 163.5 89c47.5 63.7 92.2 195.1 92.2 311.5c0 122.1 -57.4 179.5 -166.4 179.5zM579.1 78.3c-63.7 -56.4 -145.1 -88.3 -237.2 -88.3
c-146.3 0 -243.3 88.9 -243.3 236.7c0 151.8 74.8 272.7 163.5 347.1c62.9 52.8 139.4 84.2 220.8 84.2c152.1 0 245.7 -93.6 245.7 -242c0 -147.2 -77.5 -274 -149.5 -337.7z" />
    <glyph glyph-name="P" unicode="P" horiz-adv-x="522" 
d="M311 574l-55.6 -258c11.5 -7 41.8 -10 66.8 -10c97 0 160.8 44 178.3 152c20.7 128.2 -31.1 160 -100.1 160c-72 0 -83.1 -15 -89.4 -44zM197.6 445c15.9 75 28.4 143 32.5 200l2.59999 3s16.4 -3 50.4 -3c30 0 105.5 7 131.5 7c185 0 195.9 -116.4 186.7 -176
c-13.3 -86 -100.3 -207 -282.3 -207c-35 0 -51.4 3 -71.9 10l-15.6 -79c-14.9 -75.2 -28.4 -143 -32.5 -200l-2.60001 -3s-16.4 3 -50.4 3c-35 0 -52.6 -3 -52.6 -3l-0.400002 3c19.5 54 36.6 125 52.5 200z" />
    <glyph glyph-name="Q" unicode="Q" horiz-adv-x="701" 
d="M460.5 614c-47.7 0 -97.8 -19 -141.5 -64c-52.6 -54 -115.5 -185 -115.5 -319.3c0 -129.3 69.7 -196.7 167.7 -196.7c64 0 120 30.6 163.5 89c47.5 63.7 92.2 195.1 92.2 311.5c0 122.1 -57.4 179.5 -166.4 179.5zM541.3 49.1c50.8 -31.8 120.6 -88.8 222.3 -126.1
l-1.19995 -6c-40 -19 -84 -42 -106.2 -57c-97 62.7 -85.3 80.1 -199.2 148c-35.9 -11.8 -74.4 -18 -115.1 -18c-146.3 0 -243.3 88.9 -243.3 236.7c0 151.8 74.8 272.7 163.5 347.1c62.9 52.8 139.4 84.2 220.8 84.2c152.1 0 245.7 -93.6 245.7 -242
c0 -147.2 -77.5 -274 -149.5 -337.7c-12 -10.6 -24.6 -20.4 -37.8 -29.2z" />
    <glyph glyph-name="R" unicode="R" horiz-adv-x="579" 
d="M397.3 613c-71 0 -81.2 -15 -87.4 -44l-47.8 -224.5h43c73.4 0 120.2 6.20001 152.9 40.5c26.8 28.1 43.2 47 43.2 125.2c0 75.6 -52.2 102.8 -103.9 102.8zM252.7 300.5l-21.2 -100.5c-15.8 -75 -28.4 -143 -32.5 -200l-2.60001 -3s-16.4 3 -50.4 3
c-35 0 -52.6 -3 -52.6 -3l-0.400002 3c19.5 54 36.6 125 52.5 200l52.1 245c15.9 75 28.4 143 32.5 200l2.59999 3s16.4 -3 50.4 -3c30 0 96.5 7 121.5 7c98.7 0 191.5 -36.2 191.5 -143.5c0 -56.2 -25.3 -91.9 -52.1 -123.5c-42.3 -49.8 -114.7 -71.8 -167.2 -80.1
c22.3 -30.2 38.5 -55.8 69.3 -105.4c45.3 -73 114 -166.2 147.9 -199.5l-2.59998 -3c-19.4 3 -31.4 3 -51.4 3c-19 0 -50 0 -69.6 -3c-17 30 -61.7 104.5 -103 171.5c-34.2 55.5 -67.1 107.6 -88.5 132h-26.2z" />
    <glyph glyph-name="S" unicode="S" horiz-adv-x="485" 
d="M236 33c49.4 0 132.9 37 150.1 118c18.7 88 -22.8 114 -78.7 138c-83.6 35 -177.5 84.1 -153.3 196c25.9 120 142.8 173 229.8 173c122 0 148.4 -45 148.4 -45l1.40002 -3c-15.4 -30 -28.7 -60 -40.4 -96l-10.3 -1c-14.8 62 -44.6 105 -116.6 105
c-51.4 0 -116.6 -45 -129.6 -106c-17.6 -83 66 -118 104.8 -133c77.6 -30 164.4 -77 139.9 -193c-25.5 -121 -148.6 -196 -263.6 -196c-122 0 -171.5 45 -171.5 45l-1.3 3c14.4 30 29.1 62 40.8 98l10.2 1c14.8 -62 67.9 -104 139.9 -104z" />
    <glyph glyph-name="T" unicode="T" horiz-adv-x="540" 
d="M321.6 445c3.60001 17 23.9 117 22 141c-134 0 -204.6 -12 -204.6 -12l-1.10001 4c5.20001 15 10.2 39 14.2 67l2.59999 3c15.6 -2 38.4 -3 59.4 -3h386c21 0 44.2 1 60.6 3l1.39996 -3c-8 -28 -13 -52 -14.2 -67l-2.90002 -4s-65.4 12 -199.4 12
c-12.1 -24 -34.4 -124 -38 -141l-52.1 -245c-15.9 -75 -28.4 -143 -32.5 -200l-2.60001 -3s-16.4 3 -50.4 3c-35 0 -52.6 -3 -52.6 -3l-0.399994 3c19.5 54 36.6 125 52.5 200z" />
    <glyph glyph-name="U" unicode="U" horiz-adv-x="651" 
d="M605.6 445c15.9 75 28.4 143 32.5 200l2.60004 3s10.1 -3 34.4 -3c22.3 0 35.6 3 35.6 3l0.399963 -3c-19.3 -53 -36.6 -125 -52.5 -200l-31.9 -150c-37.8 -178 -112.8 -305 -317.8 -305c-90 0 -216.1 42 -172.7 246l44.4 209c15.9 75 28.4 143 32.5 200l2.59999 3
s16.4 -3 50.4 -3c35 0 52.6 3 52.6 3l0.399994 -3c-19.3 -53 -36.6 -125 -52.5 -200l-37.4 -176c-11.5 -54 -56.5 -228 111.5 -228c169 0 205.4 124 229.2 236z" />
    <glyph glyph-name="V" unicode="V" horiz-adv-x="601" 
d="M352.1 132.3c107 166 221.9 387.1 283.6 515.7c11.4 -3 38.4 -3 49.4 -3s23 0 35.6 3c-148 -221 -261.6 -436 -404.8 -658h-28c-45.4 219 -105.7 557 -134.2 658c16.4 -3 42.4 -3 59.4 -3s38 0 55.6 3c2.5 -34.6 14.7 -211.9 81.4 -515.7h2z" />
    <glyph glyph-name="W" unicode="W" horiz-adv-x="903" 
d="M664.1 137c107.3 166 209.2 382 270.6 511c11.4 -3 38.4 -3 49.4 -3s26 0 38.6 3c-148 -221 -251.6 -436 -394.8 -658h-28c-21 101 -42.9 227.4 -63.3 344.1l-218.7 -344.1h-28c-45.4 219 -105.7 557 -134.2 658c16.4 -3 42.4 -3 59.4 -3s36 0 53.6 3
c2.59998 -35 13.5 -214 82.4 -525h2c54.9 85.3 113.7 186.2 171 282c-18.9 106.9 -35.8 198.2 -48.4 243c16.4 -3 42.4 -3 59.4 -3s41 0 58.6 3c2.59998 -35 2 -207 68.4 -511h2z" />
    <glyph glyph-name="X" unicode="X" horiz-adv-x="571" 
d="M553.4 -3c-17.4 3 -39.4 3 -57.4 3s-40 0 -58.6 -3c-31.8 103.1 -59.2 185.6 -97.8 285.7c-76.6 -87.8 -157 -184.6 -233.2 -285.7c-10.4 3 -29.4 3 -41.4 3c-11 0 -31 0 -42.6 -3c135.3 152.6 229.3 257.2 298.4 333.7c-33.8 84.6 -76.2 184 -135.1 317.3
c16.4 -3 38.4 -3 55.4 -3s39 0 57.6 3c15.7 -58.2 42.5 -128.9 88.8 -243.5c99.5 110.2 131.7 147.2 204.2 243.5c10.4 -3 30.4 -3 41.4 -3s31 0 42.6 3c-54.3 -58.8 -154.3 -161.6 -269.4 -289.9c37.2 -91.4 85.2 -207.8 147.1 -361.1z" />
    <glyph glyph-name="Y" unicode="Y" horiz-adv-x="591" 
d="M395 285.6c-20.2 -99.1 -47.5 -240.7 -53.6 -288.6c-15.4 3 -36.4 3 -51.4 3s-35 0 -51.6 -3c17.5 55.5 45.1 180.5 66 278.1c-24.2 65.1 -123.5 312.9 -150.7 372.9c16.4 -3 39.4 -3 56.4 -3s40 0 57.6 3c31.3 -105.4 69.7 -199.3 109.8 -307.8
c77.1 90.9 167.4 203 240.2 307.8c11.4 -3 28.4 -3 41.4 -3c12 0 29 0 42.6 3c-159.9 -184.5 -248.7 -282.5 -306.7 -362.4z" />
    <glyph glyph-name="Z" unicode="Z" horiz-adv-x="604" 
d="M198.5 54c131 0 382.3 11 382.3 11l1.40002 -3c-2.70001 -8 -6.90002 -23 -9 -33c-2.10004 -10 -2.20001 -15 -4.20001 -29l-2.59998 -3c-15.6 2 -34.6 3 -70.4 3h-363c-30 0 -105.6 -3 -105.6 -3l-2.2 4c14 14 26.2 29 33.9 37l484 541c6.40002 7.09998 4.5 12 -0.5 12
c-123 0 -219.2 -6.70001 -359.3 -11l-1.40001 3c2.70001 8 6.90001 23 9 33c2.10001 10 2.20001 15 4.20001 29l2.59999 3c15.6 -2 38.4 -3 60.4 -3h324c31 0 110.3 3.79999 127.3 6c4.5 0 5.5 -2 4.69995 -6c-2.29999 -11 -16 -25.6 -41.5 -54l-465.3 -519
c-7.2 -8 -7.7 -13 -8.8 -18z" />
    <glyph glyph-name="bracketleft" unicode="[" horiz-adv-x="361" 
d="M69.2 -192l190.2 895h215l-6.29999 -30c-139.1 -10 -152.4 -25 -170.9 -112l-129.8 -611c-18.5 -87 -12.7 -102 123 -113l-6.19998 -29h-215z" />
    <glyph glyph-name="backslash" unicode="\" horiz-adv-x="292" 
d="M208.4 698l71.4 -746h-49l-71.4 746h49z" />
    <glyph glyph-name="bracketright" unicode="]" horiz-adv-x="361" 
d="M400.4 703l-190.2 -895h-215l6.4 30c139.1 10 152.3 25 170.8 112l129.8 611c18.5 87 12.8 102 -122.9 113l6.09999 29h215z" />
    <glyph glyph-name="uni02C4" unicode="&#x2c4;" horiz-adv-x="518" 
d="M385 593l-154.5 -247h-45l191.7 304h42l61.3 -304h-45z" />
    <glyph glyph-name="underscore" unicode="_" horiz-adv-x="486" 
d="M458.6 -110l-9.30002 -44h-477l9.3 44h477z" />
    <glyph glyph-name="a" unicode="a" horiz-adv-x="474" 
d="M353 219c25 64 35 166 35 166c-20 8 -36.7 10 -62 10c-91 0 -184 -156 -184 -262c0 -56 13 -85 47 -85c32 0 115 81 164 171zM408 138c-6.39999 -27.1 -8 -47.7 -8 -64c0 -22 12 -32 29 -32c10 0 29.5 2 48 7l2 -3v-26c-21.5 -11 -55 -30 -95 -30c-30 0 -62 14 -62 53
c0 9.2 0.600006 21.3 7 47l13 52l-2 2c-60 -89 -107 -154 -178 -154c-84 0 -102 71 -102 127c0 157 167 319 263 319c40 0 53 0 80 -3c18 -2.70001 59.7 3 76 3z" />
    <glyph glyph-name="b" unicode="b" horiz-adv-x="491" 
d="M174.2 81c14.7 -25 39 -47 70 -47c99 0 174.9 104.9 174.9 238.9c0 69 -36.3 112.1 -86.3 112.1c-11 0 -55.4 -2 -102.9 -42zM263.3 500l-24.7 -116c41.9 37 77.7 55 125.7 55c75.3 0 143.3 -56.3 143.3 -150.6c0 -183 -163.9 -298.4 -266.7 -298.4
c-43 0 -75.5 20 -99.2 45c-12.2 -18.5 -33.7 -37 -48.3 -46c-13.4 0 -23.9 5 -29.9 11c11.5 20.5 20.3 32 28.6 71l87.4 411c16.2 76 30.5 151.3 31.9 194l2.70001 3c41.1 3 65.1 9 92.3 19c6.30002 0 8.30002 -3 6.80002 -10c-20.7 -61.3 -34.2 -114 -49.9 -188z" />
    <glyph glyph-name="c" unicode="c" horiz-adv-x="395" 
d="M314 399c-35.5 0 -71 -23.9 -98.7 -67c-25.1 -39.1 -49.6 -106.6 -49.6 -172.8c0 -76.9 37.5 -119.2 90.3 -119.2c33 0 65 8 106 42h3l13 -21c-47 -51 -93 -71 -147 -71c-91.5 0 -154.1 62.7 -154.1 165.1c0 88.7 36.7 157.1 82 204.4c48.6 50.8 111 79.5 165.1 79.5
c45 0 89 -12 113 -28l2 -3l-39 -82l-11 -1c-14 46 -40 74 -75 74z" />
    <glyph glyph-name="d" unicode="d" horiz-adv-x="494" 
d="M365.7 115.3l46.5 219.7c-15.9 38 -35.5 61 -82.5 61c-30.5 0 -73.1 -9.89999 -108.3 -55c-26.6 -34 -58.5 -115.6 -58.5 -188.7c0 -75.7 37 -108.3 88.1 -108.3c32 0 68.3 24.8 114.7 71.3zM354.6 64c-45.9 -46.5 -92.7 -74 -140.7 -74
c-80.3 0 -140.5 65.2 -140.5 160.5c0 99.9 50.1 177.5 109.5 226.7c46.9 38.8 105 61.8 167.4 61.8c20 0 59.1 -9 79.3 -22l13.9 65c16.2 76 30.5 151.3 31.9 194l2.70001 3c41.1 3 62.1 9 89.3 19c6.29999 0 8.29999 -3 6.79999 -10c-19.6 -62 -31.2 -114 -46.9 -188
l-65.5 -308c-17.6 -82.6 -24.6 -134.2 -24.6 -167.2c0 -9.8 0.699982 -17.9 1.79999 -24.8l-2.60001 -3c-12.6 2 -31.3 3 -43.9 3c-14.5 0 -19.4 -1.3 -33.1 -3c-4 0 -6.79999 1 -6.39999 3c0 0 1.29999 38.3 4.60001 64h-3z" />
    <glyph glyph-name="e" unicode="e" horiz-adv-x="427" 
d="M369 363.6c0 26.8 -15.4 39.4 -49.5 39.4c-47.4 0 -111.5 -26 -146.1 -161c116.6 5 195.6 36.9 195.6 121.6zM168.3 207.5c-0.699997 -7.39999 -2.8 -32.4 -2.8 -41.6c0 -88.8 39 -127.9 83.5 -127.9c47.9 0 117 46 145.4 96l6.10001 -1c2.5 -13 4.5 -40 9.89999 -50.8
c-39.4 -55.2 -114.2 -92.2 -198.3 -92.2s-135.1 70.9 -135.1 152.8c0 126.4 88.9 296.2 265.5 296.2c74 0 101.5 -33.6 101.5 -76.6c0 -38.4 -18 -144.4 -275.7 -154.9z" />
    <glyph glyph-name="f" unicode="f" horiz-adv-x="318" 
d="M146.8 236l32 149h-70c-4 0 -4.8 1 -3.7 6l3.8 18c1.7 8 9.3 20 27.3 20h52l10.5 40c20 76 41.1 104 87.5 153c46.4 49 107.2 76 170.2 76c19 0 42.2 -9 49.1 -14l0.299988 -3c-15 -19 -30.7 -50 -43.4 -77l-11.2 -1c-6.70001 20 -29.6 35 -58.6 35
c-57.3 0 -91.2 -47.8 -102.9 -103c-3.80002 -18 -9.10001 -52.7 -16.4 -90l-3.09998 -16h112c5 0 7.59998 -2 6.69998 -6l-5.29999 -25c-1.89999 -9 -16.8 -13 -25.8 -13h-97l-70.5 -318c-20.2 -90.8 -64.3 -177 -102.7 -222c-41.8 -49 -94.4 -76 -151.1 -76
c-17.1 0 -39.6 9 -45.8 14l-0.299995 3c13.5 19 29.4 50 40.9 77l10 1c6.1 -20 24.5 -38 50.6 -38c42.1 0 67.2 46 88.4 106c18.7 53 41.7 188.6 66.5 304z" />
    <glyph glyph-name="g" unicode="g" horiz-adv-x="458" 
d="M149 -5c-18 -13 -35 -23 -46 -37c-18 -22 -29 -49 -29 -79c0 -55 72 -74 103 -74c47.3 0 132 3 174 29c16 9.89999 24 23 24 45c0 16 -8 45 -33 62c-39 26 -105 42 -174 53c-6 1 -13 0 -19 1zM276 138c-29 0 -69.5 9 -84 23c-20 -15 -48 -41 -48 -62c0 -23 25 -36 63 -45
c71 -16 152 -30 192 -58c35 -24 42 -67 42 -91c0 -52 -30 -87 -66 -107c-56 -31 -170 -36 -221 -36c-77 0 -153 31.5 -153 88c0 43 12 74 39 105c18 21 43 36 70 51c-18 11 -31 37 -31 64c0 47 42 85 86 107c-25 22 -44 63 -44 107c0 97 85 155 175 155c30 0 66 -8 84 -8
c35 0 65 14 65 49c0 9 -3 17 -11 26l1 4c17.4 4.5 35.4 12.2 48 23l4 -1c12 -18 16 -37 16 -58c0 -36 -27 -67 -71 -67c-8 0 -17.2 0.299988 -21 1l-3 -2c24 -24 45 -64 45 -102c0 -109 -88 -166 -177 -166zM375 298c0 61 -32 102 -86 102c-60 0 -90 -55 -90 -112
c0 -55 28 -111 86 -111c42 0 90 41 90 121z" />
    <glyph glyph-name="h" unicode="h" horiz-adv-x="514" 
d="M390.3 180l22.3 105c17.2 81 1.60001 97 -54.4 97c-29 0 -77.5 -26 -135.5 -73l-27.4 -129c-16.2 -76.2 -24.7 -123 -28.3 -180l-2.60001 -3s-13.1 3 -47.4 3c-35 0 -49.6 -3 -49.6 -3l-0.400002 3c19.9 53.5 32.5 105.5 48.3 180l63.8 301c16.2 76 30.8 152.3 32.2 195
l2.59999 3c41.1 3 62.1 9 89.3 19c6.29999 0 8.39999 -3 6.89999 -10c-18.7 -62.5 -31 -113 -46.7 -187l-29.9 -141c81.2 67 142.8 79 181.8 79c72 0 99 -52 77.1 -155l-22.1 -104c-16.2 -76.2 -24.7 -123 -28.3 -180l-2.60001 -3s-13.1 3 -47.4 3c-35 0 -49.6 -3 -49.6 -3
l-0.399994 3c19.9 53.5 32.5 105.5 48.3 180z" />
    <glyph glyph-name="i" unicode="i" horiz-adv-x="268" 
d="M144 235c15.9 75 27.3 138 28.4 181l2.60001 3c40.6 3 65.2 10 92.3 20c6 0 8.40002 -3 6.90002 -10c-20.7 -61 -30.9 -103 -46.8 -178l-15.1 -71c-16.2 -76 -24.2 -123 -28.3 -180l-2.60001 -3s-13.4 3 -47.4 3c-35 0 -49.6 -3 -49.6 -3l-0.400002 3
c19.5 54 32.4 105 48.3 180zM206 600c0 27 24 51 51 51s51 -24 51 -51s-24 -51 -51 -51s-51 24 -51 51z" />
    <glyph glyph-name="j" unicode="j" horiz-adv-x="282" 
d="M101.6 -63c3.4 16 7.6 50 30.8 159l29.6 139c15.9 75 26.3 133 27.4 176l2.60001 3c40.6 3 67.2 15 94.3 25c6 0 8.40002 -3 6.90002 -10c-21 -61 -31.9 -103 -47.8 -178l-53.8 -253c-15.5 -73 -28.6 -97 -71.2 -142c-43.8 -46 -89.7 -69 -147.7 -69
c-18 0 -34.2 4 -40.3 8l-0.300003 3c13.8 18 19.4 49 31.7 74l10.2 1c6.2 -18 10.2 -32 37.2 -32c53 0 79.3 44 90.4 96zM219 600c0 27 24 51 51 51s51 -24 51 -51s-24 -51 -51 -51s-51 24 -51 51z" />
    <glyph glyph-name="k" unicode="k" horiz-adv-x="462" 
d="M208.1 240.3c12 1.39999 29 5.5 41.9 14.7c43 30 124 111 177 174c25 0 77 0 95 3l1 -3c-72 -55 -168 -150 -213 -191c65 -115 92 -159 145 -238l-2 -3c-8 2 -39 3 -55 3s-47 -1 -62 -3c-46 99 -53 134 -100 202c-6.3 7.2 -25.5 10.3 -34.4 10.9l-6.3 -29.9
c-16.1 -75.9 -24.7 -123 -28.3 -180l-2.60001 -3s-13.1 3 -47.4 3c-35 0 -49.6 -3 -49.6 -3l-0.400002 3c19.9 53.5 32.5 105.5 48.3 180l63.8 301c16.2 76 30.8 152.3 32.2 195l2.59999 3c41.1 3 62.1 9 89.3 19c6.29999 0 8.39999 -3 6.89999 -10
c-18.7 -62.5 -31.1 -113.6 -46.7 -187z" />
    <glyph glyph-name="l.superior" unicode="&#x2e1;" horiz-adv-x="161" 
d="M193.4 651c8.90001 42 4.40001 49 -8.59999 49l-20.8 1c-2 0 -3.8 1 -3.39999 3l2.89999 18c26.4 2 74.1 10 91.6 17c6 0 7.60001 -2 6.5 -7c0 0 -7.60001 -26 -16.5 -68l-52.9 -249c-4.39999 -20.5 2.5 -24.8 19.3 -27l7.8 -1c1.89999 -0.200012 4.8 -1 3.89999 -5
l-3.8 -18s-38.2 1 -62.8 1c-23.8 0 -61.2 -1 -61.2 -1l3.8 18c0.400002 2 1 4.5 5.10001 5l8.2 1c25 3 26.2 6 30.7 27z" />
    <glyph glyph-name="m" unicode="m" horiz-adv-x="752" 
d="M458 180c-16 -76 -25 -123 -29 -180l-2 -3s-18 3 -48 3c-31 0 -49 -3 -49 -3v3c20 54 31 105 47 180l21 98c17 81 3 101 -43 101c-32 0 -76 -22 -135 -82l-25 -117c-16 -76 -25 -123 -29 -180l-3 -3s-16 3 -47 3s-49 -3 -49 -3l-1 3c19 54 32 105 48 180l11 55
c16 75 21.5 132 14 178l2 3c30.5 3 58 11 82 21c6 0 8.3 0 8 -10c0 0 2.5 -32 -2 -75l2 -3c73 75 129 90 163 90c56.3 0 87.5 -26.1 93.9 -77c68.4 58.4 113 77 166.4 77c108 0 103.1 -70 84.2 -159l-21.2 -100c-16.2 -76.2 -24.7 -123 -28.3 -180l-2.59998 -3
s-13.1 3 -47.4 3c-35 0 -49.6 -3 -49.6 -3l-0.400024 3c19.9 53.5 32.5 105.5 48.3 180l23.8 112c14.2 67 -1.09998 89 -55.1 89c-37.5 0 -63.6 -15.8 -118.2 -64.1c-1.19998 -11.2 -3.09998 -23.2 -5.79999 -35.9c-7 -32 -17 -69 -24 -101zM486.2 360.6
c0.0999756 1.89999 -0.100006 2.10001 -0.700012 -0.600006c0.200012 0.200012 0.5 0.399994 0.700012 0.600006z" />
    <glyph glyph-name="n" unicode="n" horiz-adv-x="504" 
d="M471 180c-16 -76 -25 -123 -29 -180l-2 -3s-18 3 -48 3c-31 0 -49 -3 -49 -3v3c20 54 31 105 47 180l21 98c17 81 3 101 -43 101c-32 0 -89 -22 -148 -82l-25 -117c-16 -76 -25 -123 -29 -180l-3 -3s-16 3 -47 3s-49 -3 -49 -3l-1 3c19 54 32 105 48 180l11 55
c16 75 21.5 132 14 178l2 3c30.5 3 58 11 82 21c6 0 8.3 0 8 -10c0 0 2.5 -32 -2 -75l2 -3c73 75 142 90 176 90c81 0 110 -54 88 -158c-7 -32 -17 -69 -24 -101z" />
    <glyph glyph-name="o" unicode="o" horiz-adv-x="490" 
d="M146 346.3c45.7 52.7 114.5 92.7 194.3 92.7c123.1 0 165.7 -79.4 165.7 -164.8c0 -90.2 -47.2 -187.4 -121 -241.2c-39.5 -28.8 -87.5 -43 -142.1 -43c-112.9 0 -168.6 75.6 -168.6 165.7c0 81.1 32.7 145.7 71.7 190.6zM326.6 398c-75.6 0 -133.6 -83 -152.1 -170
c-4.39999 -20.6 -7.3 -44.2 -7.3 -67.8c0 -64.7 17.2 -129.2 93.4 -129.2c28.1 0 66.6 12.5 98 52c30.5 38.4 58 93 58 199.5c0 74.8 -28.3 115.5 -90 115.5z" />
    <glyph glyph-name="p" unicode="p" horiz-adv-x="506" 
d="M219 301l-47.6 -224c26.3 -41 57.8 -43 73.8 -43c64.5 0 105.6 33.5 131.9 78c25.5 43.3 42.5 100.5 42.5 160.9c0 72.6 -33.1 113.1 -81.2 113.1c-34 0 -86.1 -32 -119.4 -85zM125 235c11 51.5 16.5 94.6 16.5 131.4c0 16.8 -1.2 32.2 -3.5 46.6l2 3c30.5 3 58 11 82 21
c6 0 8.2 0 8 -10c0 0 0.5 -8.60001 0.5 -22.3c0 -12 -0.300003 -27.9 -1.8 -45.4l3.8 0.700012c60.9 70 108.8 79 140.8 79c83.2 0 139.3 -72.1 139.3 -159.6c0 -101.2 -56.3 -184.8 -115.6 -232.9c-44 -35.6 -97.3 -56.5 -155.1 -56.5c-36 0 -61.3 8 -84.3 22l-9.40001 -44
c-16 -75.2 -28.9 -143 -32.5 -200l-2.7 -3s-13 3 -47.3 3c-35 0 -49.7 -3 -49.7 -3l-0.3 3c19.9 53.5 36.7 125.5 52.5 200z" />
    <glyph glyph-name="q" unicode="q" horiz-adv-x="488" 
d="M410.3 326c-17.4 45 -43.3 71 -85.3 71c-46.5 0 -82 -22.6 -108 -62c-25.6 -38.9 -49.7 -111.4 -49.7 -176.6c0 -94.9 58 -120.4 106.1 -120.4c19 0 51.3 10 81.6 30zM334.2 -32l11.7 55c-17.8 -13 -51 -33 -108 -33c-119.6 0 -163.1 84.8 -163.1 166.8
c0 90.2 42.1 160 92.2 208.7c46.9 45.6 107.2 73.5 171.3 73.5c49 0 88.7 -15 115.5 -44l21.1 28c9.20001 12.2 20.1 19 27.1 19c7.10001 0 9.39999 -4.60001 9.39999 -11.6c0 -3.89999 -0.699982 -8.39999 -1.79999 -13.4l-95.4 -449c-16 -75.2 -28.9 -143 -32.5 -200
l-2.70001 -3s-13 3 -47.3 3c-35 0 -49.7 -3 -49.7 -3l-0.299988 3c19.9 53.5 36.8 126 52.5 200z" />
    </font>
</defs>
</svg>
