<?xml version="1.0" encoding="UTF-8" standalone="no"?>
<!DOCTYPE svg PUBLIC "-//W3C//DTD SVG 1.1//EN"
 "http://www.w3.org/Graphics/SVG/1.1/DTD/svg11.dtd">
<!-- Generated by graphviz version 2.43.0 (0)
 -->
<!-- Title: calligraphy Pages: 1 -->
<svg width="2209pt" height="260pt"
 viewBox="0.00 0.00 2209.50 260.00" xmlns="http://www.w3.org/2000/svg" xmlns:xlink="http://www.w3.org/1999/xlink">
<g id="graph0" class="graph" transform="scale(1 1) rotate(0) translate(4 256)">
<title>calligraphy</title>
<polygon fill="white" stroke="transparent" points="-4,4 -4,-256 2205.5,-256 2205.5,4 -4,4"/>
<!-- node_0&#45;&gt;node_10 -->
<g id="edge1" class="edge">
<title>node_0&#45;&gt;node_10</title>
<path fill="none" stroke="black" d="M90.09,-211.57C76.92,-200.46 61.19,-187.2 49.51,-177.35"/>
<polygon fill="black" stroke="black" points="87.99,-214.38 97.89,-218.15 92.51,-209.03 87.99,-214.38"/>
</g>
<!-- node_0&#45;&gt;node_26 -->
<g id="edge5" class="edge">
<title>node_0&#45;&gt;node_26</title>
<path fill="none" stroke="black" d="M115.5,-205.67C115.5,-197.05 115.5,-187.79 115.5,-180.1"/>
<polygon fill="black" stroke="black" points="112,-205.7 115.5,-215.7 119,-205.7 112,-205.7"/>
</g>
<!-- node_0&#45;&gt;node_56 -->
<g id="edge19" class="edge">
<title>node_0&#45;&gt;node_56</title>
<path fill="none" stroke="black" d="M142.98,-212.31C157.62,-201.29 175.31,-187.98 188.61,-177.97"/>
<polygon fill="black" stroke="black" points="140.65,-209.69 134.77,-218.5 144.86,-215.28 140.65,-209.69"/>
</g>
<!-- node_8&#45;&gt;node_29 -->
<g id="edge7" class="edge">
<title>node_8&#45;&gt;node_29</title>
<path fill="none" stroke="black" d="M305.5,-133.67C305.5,-125.05 305.5,-115.79 305.5,-108.1"/>
<polygon fill="black" stroke="black" points="302,-133.7 305.5,-143.7 309,-133.7 302,-133.7"/>
</g>
<!-- node_9&#45;&gt;node_8 -->
<g id="edge32" class="edge">
<title>node_9&#45;&gt;node_8</title>
<path fill="none" stroke="black" d="M340.4,-208.25C332.9,-198.52 324.51,-187.64 317.83,-178.99"/>
<polygon fill="black" stroke="black" points="337.82,-210.63 346.7,-216.41 343.36,-206.36 337.82,-210.63"/>
</g>
<!-- node_9&#45;&gt;node_30 -->
<g id="edge8" class="edge">
<title>node_9&#45;&gt;node_30</title>
<path fill="none" stroke="black" d="M378.4,-208.49C385.68,-199.07 393.81,-188.52 400.42,-179.96"/>
<polygon fill="black" stroke="black" points="375.63,-206.36 372.29,-216.41 381.17,-210.63 375.63,-206.36"/>
</g>
<!-- node_10&#45;&gt;node_32 -->
<g id="edge10" class="edge">
<title>node_10&#45;&gt;node_32</title>
<path fill="none" stroke="black" d="M32.5,-133.67C32.5,-125.05 32.5,-115.79 32.5,-108.1"/>
<polygon fill="black" stroke="black" points="29,-133.7 32.5,-143.7 36,-133.7 29,-133.7"/>
</g>
<!-- node_11&#45;&gt;node_46 -->
<g id="edge16" class="edge">
<title>node_11&#45;&gt;node_46</title>
<path fill="none" stroke="black" d="M538.5,-205.67C538.5,-197.05 538.5,-187.79 538.5,-180.1"/>
<polygon fill="black" stroke="black" points="535,-205.7 538.5,-215.7 542,-205.7 535,-205.7"/>
</g>
<!-- node_12&#45;&gt;node_58 -->
<g id="edge20" class="edge">
<title>node_12&#45;&gt;node_58</title>
<path fill="none" stroke="black" d="M640.5,-205.67C640.5,-197.05 640.5,-187.79 640.5,-180.1"/>
<polygon fill="black" stroke="black" points="637,-205.7 640.5,-215.7 644,-205.7 637,-205.7"/>
</g>
<!-- node_14&#45;&gt;node_60 -->
<g id="edge22" class="edge">
<title>node_14&#45;&gt;node_60</title>
<path fill="none" stroke="black" d="M731.5,-133.67C731.5,-125.05 731.5,-115.79 731.5,-108.1"/>
<polygon fill="black" stroke="black" points="728,-133.7 731.5,-143.7 735,-133.7 728,-133.7"/>
</g>
<!-- node_18&#45;&gt;node_61 -->
<g id="edge23" class="edge">
<title>node_18&#45;&gt;node_61</title>
<path fill="none" stroke="black" d="M837.5,-133.67C837.5,-125.05 837.5,-115.79 837.5,-108.1"/>
<polygon fill="black" stroke="black" points="834,-133.7 837.5,-143.7 841,-133.7 834,-133.7"/>
</g>
<!-- node_20&#45;&gt;node_63 -->
<g id="edge25" class="edge">
<title>node_20&#45;&gt;node_63</title>
<path fill="none" stroke="black" d="M959.5,-133.67C959.5,-125.05 959.5,-115.79 959.5,-108.1"/>
<polygon fill="black" stroke="black" points="956,-133.7 959.5,-143.7 963,-133.7 956,-133.7"/>
</g>
<!-- node_23&#45;&gt;node_64 -->
<g id="edge26" class="edge">
<title>node_23&#45;&gt;node_64</title>
<path fill="none" stroke="black" d="M1095.5,-205.67C1095.5,-197.05 1095.5,-187.79 1095.5,-180.1"/>
<polygon fill="black" stroke="black" points="1092,-205.7 1095.5,-215.7 1099,-205.7 1092,-205.7"/>
</g>
<!-- node_25&#45;&gt;node_66 -->
<g id="edge28" class="edge">
<title>node_25&#45;&gt;node_66</title>
<path fill="none" stroke="black" d="M1203.5,-205.67C1203.5,-197.05 1203.5,-187.79 1203.5,-180.1"/>
<polygon fill="black" stroke="black" points="1200,-205.7 1203.5,-215.7 1207,-205.7 1200,-205.7"/>
</g>
<!-- node_26&#45;&gt;node_59 -->
<g id="edge21" class="edge">
<title>node_26&#45;&gt;node_59</title>
<path fill="none" stroke="black" d="M115.5,-133.67C115.5,-125.05 115.5,-115.79 115.5,-108.1"/>
<polygon fill="black" stroke="black" points="112,-133.7 115.5,-143.7 119,-133.7 112,-133.7"/>
</g>
<!-- node_28&#45;&gt;node_45 -->
<g id="edge15" class="edge">
<title>node_28&#45;&gt;node_45</title>
<path fill="none" stroke="black" d="M1320.5,-133.67C1320.5,-125.05 1320.5,-115.79 1320.5,-108.1"/>
<polygon fill="black" stroke="black" points="1317,-133.7 1320.5,-143.7 1324,-133.7 1317,-133.7"/>
</g>
<!-- node_36&#45;&gt;node_18 -->
<g id="edge3" class="edge">
<title>node_36&#45;&gt;node_18</title>
<path fill="none" stroke="black" d="M898.8,-210.16C885.21,-199.7 869.48,-187.6 857.35,-178.27"/>
<polygon fill="black" stroke="black" points="896.87,-213.09 906.93,-216.41 901.14,-207.54 896.87,-213.09"/>
</g>
<!-- node_36&#45;&gt;node_20 -->
<g id="edge4" class="edge">
<title>node_36&#45;&gt;node_20</title>
<path fill="none" stroke="black" d="M940.07,-206.86C944.01,-197.98 948.3,-188.29 951.85,-180.28"/>
<polygon fill="black" stroke="black" points="936.85,-205.49 936,-216.05 943.25,-208.33 936.85,-205.49"/>
</g>
<!-- node_42&#45;&gt;node_41 -->
<g id="edge12" class="edge">
<title>node_42&#45;&gt;node_41</title>
<path fill="none" stroke="black" d="M1550.5,-133.67C1550.5,-125.05 1550.5,-115.79 1550.5,-108.1"/>
<polygon fill="black" stroke="black" points="1547,-133.7 1550.5,-143.7 1554,-133.7 1547,-133.7"/>
</g>
<!-- node_45&#45;&gt;node_44 -->
<g id="edge14" class="edge">
<title>node_45&#45;&gt;node_44</title>
<path fill="none" stroke="black" d="M1320.5,-61.67C1320.5,-53.05 1320.5,-43.79 1320.5,-36.1"/>
<polygon fill="black" stroke="black" points="1317,-61.7 1320.5,-71.7 1324,-61.7 1317,-61.7"/>
</g>
<!-- node_49&#45;&gt;node_14 -->
<g id="edge2" class="edge">
<title>node_49&#45;&gt;node_14</title>
<path fill="none" stroke="black" d="M731.5,-205.67C731.5,-197.05 731.5,-187.79 731.5,-180.1"/>
<polygon fill="black" stroke="black" points="728,-205.7 731.5,-215.7 735,-205.7 728,-205.7"/>
</g>
<!-- node_61&#45;&gt;node_54 -->
<g id="edge18" class="edge">
<title>node_61&#45;&gt;node_54</title>
<path fill="none" stroke="black" d="M837.5,-61.67C837.5,-53.05 837.5,-43.79 837.5,-36.1"/>
<polygon fill="black" stroke="black" points="834,-61.7 837.5,-71.7 841,-61.7 834,-61.7"/>
</g>
<!-- node_63&#45;&gt;node_62 -->
<g id="edge24" class="edge">
<title>node_63&#45;&gt;node_62</title>
<path fill="none" stroke="black" d="M959.5,-61.67C959.5,-53.05 959.5,-43.79 959.5,-36.1"/>
<polygon fill="black" stroke="black" points="956,-61.7 959.5,-71.7 963,-61.7 956,-61.7"/>
</g>
<!-- node_66&#45;&gt;node_65 -->
<g id="edge27" class="edge">
<title>node_66&#45;&gt;node_65</title>
<path fill="none" stroke="black" d="M1203.5,-133.67C1203.5,-125.05 1203.5,-115.79 1203.5,-108.1"/>
<polygon fill="black" stroke="black" points="1200,-133.7 1203.5,-143.7 1207,-133.7 1200,-133.7"/>
</g>
<!-- node_68&#45;&gt;node_28 -->
<g id="edge6" class="edge">
<title>node_68&#45;&gt;node_28</title>
<path fill="none" stroke="black" d="M1498.54,-217.19C1455.32,-204.03 1394.9,-185.64 1356.74,-174.03"/>
<polygon fill="black" stroke="black" points="1497.73,-220.6 1508.31,-220.16 1499.76,-213.9 1497.73,-220.6"/>
</g>
<!-- node_68&#45;&gt;node_31 -->
<g id="edge9" class="edge">
<title>node_68&#45;&gt;node_31</title>
<path fill="none" stroke="black" d="M1515.73,-212.2C1497.08,-201.04 1474.55,-187.56 1457.79,-177.54"/>
<polygon fill="black" stroke="black" points="1514.15,-215.33 1524.53,-217.46 1517.75,-209.33 1514.15,-215.33"/>
</g>
<!-- node_68&#45;&gt;node_42 -->
<g id="edge13" class="edge">
<title>node_68&#45;&gt;node_42</title>
<path fill="none" stroke="black" d="M1550.5,-205.67C1550.5,-197.05 1550.5,-187.79 1550.5,-180.1"/>
<polygon fill="black" stroke="black" points="1547,-205.7 1550.5,-215.7 1554,-205.7 1547,-205.7"/>
</g>
<!-- node_68&#45;&gt;node_47 -->
<g id="edge17" class="edge">
<title>node_68&#45;&gt;node_47</title>
<path fill="none" stroke="black" d="M1585.31,-212.35C1604.17,-201.16 1627.02,-187.61 1643.99,-177.54"/>
<polygon fill="black" stroke="black" points="1583.5,-209.35 1576.69,-217.46 1587.07,-215.37 1583.5,-209.35"/>
</g>
<!-- node_68&#45;&gt;node_67 -->
<g id="edge29" class="edge">
<title>node_68&#45;&gt;node_67</title>
<path fill="none" stroke="black" d="M1603.28,-217.26C1638.05,-206.83 1684.54,-192.77 1725.5,-180 1731.86,-178.02 1738.65,-175.87 1745.16,-173.78"/>
<polygon fill="black" stroke="black" points="1601.92,-214.01 1593.35,-220.23 1603.93,-220.72 1601.92,-214.01"/>
</g>
<!-- node_71&#45;&gt;node_34 -->
<g id="edge11" class="edge">
<title>node_71&#45;&gt;node_34</title>
<path fill="none" stroke="black" d="M1882.5,-61.67C1882.5,-53.05 1882.5,-43.79 1882.5,-36.1"/>
<polygon fill="black" stroke="black" points="1879,-61.7 1882.5,-71.7 1886,-61.7 1879,-61.7"/>
</g>
<!-- node_72&#45;&gt;node_71 -->
<g id="edge30" class="edge">
<title>node_72&#45;&gt;node_71</title>
<path fill="none" stroke="black" d="M1882.5,-133.67C1882.5,-125.05 1882.5,-115.79 1882.5,-108.1"/>
<polygon fill="black" stroke="black" points="1879,-133.7 1882.5,-143.7 1886,-133.7 1879,-133.7"/>
</g>
<!-- node_73&#45;&gt;node_72 -->
<g id="edge31" class="edge">
<title>node_73&#45;&gt;node_72</title>
<path fill="none" stroke="black" d="M1882.5,-205.67C1882.5,-197.05 1882.5,-187.79 1882.5,-180.1"/>
<polygon fill="black" stroke="black" points="1879,-205.7 1882.5,-215.7 1886,-205.7 1879,-205.7"/>
</g>
<!-- node_0 -->
<g id="node1" class="node">
<title>node_0</title>
<ellipse fill="#ffffff" fill-opacity="0.811765" stroke="black" cx="115.5" cy="-234" rx="37.09" ry="18"/>
<text text-anchor="middle" x="115.5" y="-230.3" font-family="Times,serif" font-size="14.00">_chop</text>
</g>
<!-- node_8 -->
<g id="node2" class="node">
<title>node_8</title>
<ellipse fill="#ffffff" fill-opacity="0.811765" stroke="black" cx="305.5" cy="-162" rx="36.29" ry="18"/>
<text text-anchor="middle" x="305.5" y="-158.3" font-family="Times,serif" font-size="14.00">_echo</text>
</g>
<!-- node_9 -->
<g id="node3" class="node">
<title>node_9</title>
<ellipse fill="#ffffff" fill-opacity="0.811765" stroke="black" cx="359.5" cy="-234" rx="58.49" ry="18"/>
<text text-anchor="middle" x="359.5" y="-230.3" font-family="Times,serif" font-size="14.00">_echoWith</text>
</g>
<!-- node_10 -->
<g id="node4" class="node">
<title>node_10</title>
<ellipse fill="#ffffff" fill-opacity="0.811765" stroke="black" cx="32.5" cy="-162" rx="32.49" ry="18"/>
<text text-anchor="middle" x="32.5" y="-158.3" font-family="Times,serif" font-size="14.00">_gap</text>
</g>
<!-- node_11 -->
<g id="node5" class="node">
<title>node_11</title>
<ellipse fill="#ffffff" fill-opacity="0.811765" stroke="black" cx="538.5" cy="-234" rx="36.29" ry="18"/>
<text text-anchor="middle" x="538.5" y="-230.3" font-family="Times,serif" font-size="14.00">_slice</text>
</g>
<!-- node_12 -->
<g id="node6" class="node">
<title>node_12</title>
<ellipse fill="#ffffff" fill-opacity="0.811765" stroke="black" cx="640.5" cy="-234" rx="34.39" ry="18"/>
<text text-anchor="middle" x="640.5" y="-230.3" font-family="Times,serif" font-size="14.00">_spin</text>
</g>
<!-- node_14 -->
<g id="node7" class="node">
<title>node_14</title>
<ellipse fill="#ffffff" fill-opacity="0.811765" stroke="black" cx="731.5" cy="-162" rx="42.49" ry="18"/>
<text text-anchor="middle" x="731.5" y="-158.3" font-family="Times,serif" font-size="14.00">_splice</text>
</g>
<!-- node_18 -->
<g id="node8" class="node">
<title>node_18</title>
<ellipse fill="#ffffff" fill-opacity="0.811765" stroke="black" cx="837.5" cy="-162" rx="46.29" ry="18"/>
<text text-anchor="middle" x="837.5" y="-158.3" font-family="Times,serif" font-size="14.00">_striate</text>
</g>
<!-- node_20 -->
<g id="node9" class="node">
<title>node_20</title>
<ellipse fill="#ffffff" fill-opacity="0.811765" stroke="black" cx="959.5" cy="-162" rx="57.69" ry="18"/>
<text text-anchor="middle" x="959.5" y="-158.3" font-family="Times,serif" font-size="14.00">_striateBy</text>
</g>
<!-- node_23 -->
<g id="node10" class="node">
<title>node_23</title>
<ellipse fill="#ffffff" fill-opacity="0.811765" stroke="black" cx="1095.5" cy="-234" rx="33.6" ry="18"/>
<text text-anchor="middle" x="1095.5" y="-230.3" font-family="Times,serif" font-size="14.00">_stut</text>
</g>
<!-- node_25 -->
<g id="node11" class="node">
<title>node_25</title>
<ellipse fill="#ffffff" fill-opacity="0.811765" stroke="black" cx="1203.5" cy="-234" rx="55.79" ry="18"/>
<text text-anchor="middle" x="1203.5" y="-230.3" font-family="Times,serif" font-size="14.00">_stutWith</text>
</g>
<!-- node_26 -->
<g id="node12" class="node">
<title>node_26</title>
<ellipse fill="#ffffff" fill-opacity="0.811765" stroke="black" cx="115.5" cy="-162" rx="32.49" ry="18"/>
<text text-anchor="middle" x="115.5" y="-158.3" font-family="Times,serif" font-size="14.00">chop</text>
</g>
<!-- node_27 -->
<g id="node13" class="node">
<title>node_27</title>
<ellipse fill="#ffffff" fill-opacity="0.811765" stroke="black" cx="1372.5" cy="-234" rx="48.19" ry="18"/>
<text text-anchor="middle" x="1372.5" y="-230.3" font-family="Times,serif" font-size="14.00">chopArc</text>
</g>
<!-- node_28 -->
<g id="node14" class="node">
<title>node_28</title>
<ellipse fill="#ffffff" fill-opacity="0.811765" stroke="black" cx="1320.5" cy="-162" rx="48.19" ry="18"/>
<text text-anchor="middle" x="1320.5" y="-158.3" font-family="Times,serif" font-size="14.00">ctrigger</text>
</g>
<!-- node_29 -->
<g id="node15" class="node">
<title>node_29</title>
<ellipse fill="#ffffff" fill-opacity="0.811765" stroke="black" cx="305.5" cy="-90" rx="32.49" ry="18"/>
<text text-anchor="middle" x="305.5" y="-86.3" font-family="Times,serif" font-size="14.00">echo</text>
</g>
<!-- node_30 -->
<g id="node16" class="node">
<title>node_30</title>
<ellipse fill="#ffffff" fill-opacity="0.811765" stroke="black" cx="413.5" cy="-162" rx="53.89" ry="18"/>
<text text-anchor="middle" x="413.5" y="-158.3" font-family="Times,serif" font-size="14.00">echoWith</text>
</g>
<!-- node_31 -->
<g id="node17" class="node">
<title>node_31</title>
<ellipse fill="#ffffff" fill-opacity="0.811765" stroke="black" cx="1433.5" cy="-162" rx="46.59" ry="18"/>
<text text-anchor="middle" x="1433.5" y="-158.3" font-family="Times,serif" font-size="14.00">ftrigger</text>
</g>
<!-- node_32 -->
<g id="node18" class="node">
<title>node_32</title>
<ellipse fill="#ffffff" fill-opacity="0.811765" stroke="black" cx="32.5" cy="-90" rx="27.9" ry="18"/>
<text text-anchor="middle" x="32.5" y="-86.3" font-family="Times,serif" font-size="14.00">gap</text>
</g>
<!-- node_33 -->
<g id="node19" class="node">
<title>node_33</title>
<ellipse fill="#ffffff" fill-opacity="0.811765" stroke="black" cx="1718.5" cy="-234" rx="36.29" ry="18"/>
<text text-anchor="middle" x="1718.5" y="-230.3" font-family="Times,serif" font-size="14.00">hurry</text>
</g>
<!-- node_34 -->
<g id="node20" class="node">
<title>node_34</title>
<ellipse fill="#ffffff" fill-opacity="0.811765" stroke="black" cx="1882.5" cy="-18" rx="51.99" ry="18"/>
<text text-anchor="middle" x="1882.5" y="-14.3" font-family="Times,serif" font-size="14.00">interlace</text>
</g>
<!-- node_35 -->
<g id="node21" class="node">
<title>node_35</title>
<ellipse fill="#ffffff" fill-opacity="0.811765" stroke="black" cx="2002.5" cy="-234" rx="40.09" ry="18"/>
<text text-anchor="middle" x="2002.5" y="-230.3" font-family="Times,serif" font-size="14.00">loopAt</text>
</g>
<!-- node_36 -->
<g id="node22" class="node">
<title>node_36</title>
<ellipse fill="#ffffff" fill-opacity="0.811765" stroke="black" cx="928.5" cy="-234" rx="89.88" ry="18"/>
<text text-anchor="middle" x="928.5" y="-230.3" font-family="Times,serif" font-size="14.00">mergePlayRange</text>
</g>
<!-- node_40 -->
<g id="node23" class="node">
<title>node_40</title>
<ellipse fill="#ffffff" fill-opacity="0.811765" stroke="black" cx="2095.5" cy="-234" rx="34.39" ry="18"/>
<text text-anchor="middle" x="2095.5" y="-230.3" font-family="Times,serif" font-size="14.00">msec</text>
</g>
<!-- node_41 -->
<g id="node24" class="node">
<title>node_41</title>
<ellipse fill="#ffffff" fill-opacity="0.811765" stroke="black" cx="1550.5" cy="-90" rx="27" ry="18"/>
<text text-anchor="middle" x="1550.5" y="-86.3" font-family="Times,serif" font-size="14.00">mt</text>
</g>
<!-- node_42 -->
<g id="node25" class="node">
<title>node_42</title>
<ellipse fill="#ffffff" fill-opacity="0.811765" stroke="black" cx="1550.5" cy="-162" rx="51.99" ry="18"/>
<text text-anchor="middle" x="1550.5" y="-158.3" font-family="Times,serif" font-size="14.00">mtrigger</text>
</g>
<!-- node_44 -->
<g id="node26" class="node">
<title>node_44</title>
<ellipse fill="#ffffff" fill-opacity="0.811765" stroke="black" cx="1320.5" cy="-18" rx="27" ry="18"/>
<text text-anchor="middle" x="1320.5" y="-14.3" font-family="Times,serif" font-size="14.00">qt</text>
</g>
<!-- node_45 -->
<g id="node27" class="node">
<title>node_45</title>
<ellipse fill="#ffffff" fill-opacity="0.811765" stroke="black" cx="1320.5" cy="-90" rx="49.29" ry="18"/>
<text text-anchor="middle" x="1320.5" y="-86.3" font-family="Times,serif" font-size="14.00">qtrigger</text>
</g>
<!-- node_46 -->
<g id="node28" class="node">
<title>node_46</title>
<ellipse fill="#ffffff" fill-opacity="0.811765" stroke="black" cx="538.5" cy="-162" rx="53.09" ry="18"/>
<text text-anchor="middle" x="538.5" y="-158.3" font-family="Times,serif" font-size="14.00">randslice</text>
</g>
<!-- node_47 -->
<g id="node29" class="node">
<title>node_47</title>
<ellipse fill="#ffffff" fill-opacity="0.811765" stroke="black" cx="1668.5" cy="-162" rx="48.19" ry="18"/>
<text text-anchor="middle" x="1668.5" y="-158.3" font-family="Times,serif" font-size="14.00">rtrigger</text>
</g>
<!-- node_48 -->
<g id="node30" class="node">
<title>node_48</title>
<ellipse fill="#ffffff" fill-opacity="0.811765" stroke="black" cx="2174.5" cy="-234" rx="27" ry="18"/>
<text text-anchor="middle" x="2174.5" y="-230.3" font-family="Times,serif" font-size="14.00">sec</text>
</g>
<!-- node_49 -->
<g id="node31" class="node">
<title>node_49</title>
<ellipse fill="#ffffff" fill-opacity="0.811765" stroke="black" cx="731.5" cy="-234" rx="31.7" ry="18"/>
<text text-anchor="middle" x="731.5" y="-230.3" font-family="Times,serif" font-size="14.00">slice</text>
</g>
<!-- node_54 -->
<g id="node32" class="node">
<title>node_54</title>
<ellipse fill="#ffffff" fill-opacity="0.811765" stroke="black" cx="837.5" cy="-18" rx="40.09" ry="18"/>
<text text-anchor="middle" x="837.5" y="-14.3" font-family="Times,serif" font-size="14.00">smash</text>
</g>
<!-- node_56 -->
<g id="node33" class="node">
<title>node_56</title>
<ellipse fill="#ffffff" fill-opacity="0.811765" stroke="black" cx="208.5" cy="-162" rx="42.79" ry="18"/>
<text text-anchor="middle" x="208.5" y="-158.3" font-family="Times,serif" font-size="14.00">smash&#39;</text>
</g>
<!-- node_58 -->
<g id="node34" class="node">
<title>node_58</title>
<ellipse fill="#ffffff" fill-opacity="0.811765" stroke="black" cx="640.5" cy="-162" rx="30.59" ry="18"/>
<text text-anchor="middle" x="640.5" y="-158.3" font-family="Times,serif" font-size="14.00">spin</text>
</g>
<!-- node_59 -->
<g id="node35" class="node">
<title>node_59</title>
<ellipse fill="#ffffff" fill-opacity="0.811765" stroke="black" cx="115.5" cy="-90" rx="33.6" ry="18"/>
<text text-anchor="middle" x="115.5" y="-86.3" font-family="Times,serif" font-size="14.00">splat</text>
</g>
<!-- node_60 -->
<g id="node36" class="node">
<title>node_60</title>
<ellipse fill="#ffffff" fill-opacity="0.811765" stroke="black" cx="731.5" cy="-90" rx="37.89" ry="18"/>
<text text-anchor="middle" x="731.5" y="-86.3" font-family="Times,serif" font-size="14.00">splice</text>
</g>
<!-- node_61 -->
<g id="node37" class="node">
<title>node_61</title>
<ellipse fill="#ffffff" fill-opacity="0.811765" stroke="black" cx="837.5" cy="-90" rx="41.69" ry="18"/>
<text text-anchor="middle" x="837.5" y="-86.3" font-family="Times,serif" font-size="14.00">striate</text>
</g>
<!-- node_62 -->
<g id="node38" class="node">
<title>node_62</title>
<ellipse fill="#ffffff" fill-opacity="0.811765" stroke="black" cx="959.5" cy="-18" rx="44.39" ry="18"/>
<text text-anchor="middle" x="959.5" y="-14.3" font-family="Times,serif" font-size="14.00">striate&#39;</text>
</g>
<!-- node_63 -->
<g id="node39" class="node">
<title>node_63</title>
<ellipse fill="#ffffff" fill-opacity="0.811765" stroke="black" cx="959.5" cy="-90" rx="53.89" ry="18"/>
<text text-anchor="middle" x="959.5" y="-86.3" font-family="Times,serif" font-size="14.00">striateBy</text>
</g>
<!-- node_64 -->
<g id="node40" class="node">
<title>node_64</title>
<ellipse fill="#ffffff" fill-opacity="0.811765" stroke="black" cx="1095.5" cy="-162" rx="29.5" ry="18"/>
<text text-anchor="middle" x="1095.5" y="-158.3" font-family="Times,serif" font-size="14.00">stut</text>
</g>
<!-- node_65 -->
<g id="node41" class="node">
<title>node_65</title>
<ellipse fill="#ffffff" fill-opacity="0.811765" stroke="black" cx="1203.5" cy="-90" rx="31.7" ry="18"/>
<text text-anchor="middle" x="1203.5" y="-86.3" font-family="Times,serif" font-size="14.00">stut&#39;</text>
</g>
<!-- node_66 -->
<g id="node42" class="node">
<title>node_66</title>
<ellipse fill="#ffffff" fill-opacity="0.811765" stroke="black" cx="1203.5" cy="-162" rx="51.19" ry="18"/>
<text text-anchor="middle" x="1203.5" y="-158.3" font-family="Times,serif" font-size="14.00">stutWith</text>
</g>
<!-- node_67 -->
<g id="node43" class="node">
<title>node_67</title>
<ellipse fill="#ffffff" fill-opacity="0.811765" stroke="black" cx="1778.5" cy="-162" rx="43.59" ry="18"/>
<text text-anchor="middle" x="1778.5" y="-158.3" font-family="Times,serif" font-size="14.00">trigger</text>
</g>
<!-- node_68 -->
<g id="node44" class="node">
<title>node_68</title>
<ellipse fill="#ffffff" fill-opacity="0.811765" stroke="black" cx="1550.5" cy="-234" rx="65.79" ry="18"/>
<text text-anchor="middle" x="1550.5" y="-230.3" font-family="Times,serif" font-size="14.00">triggerWith</text>
</g>
<!-- node_71 -->
<g id="node45" class="node">
<title>node_71</title>
<ellipse fill="#ffffff" fill-opacity="0.811765" stroke="black" cx="1882.5" cy="-90" rx="40.09" ry="18"/>
<text text-anchor="middle" x="1882.5" y="-86.3" font-family="Times,serif" font-size="14.00">weave</text>
</g>
<!-- node_72 -->
<g id="node46" class="node">
<title>node_72</title>
<ellipse fill="#ffffff" fill-opacity="0.811765" stroke="black" cx="1882.5" cy="-162" rx="42.49" ry="18"/>
<text text-anchor="middle" x="1882.5" y="-158.3" font-family="Times,serif" font-size="14.00">weave&#39;</text>
</g>
<!-- node_73 -->
<g id="node47" class="node">
<title>node_73</title>
<ellipse fill="#ffffff" fill-opacity="0.811765" stroke="black" cx="1882.5" cy="-234" rx="61.99" ry="18"/>
<text text-anchor="middle" x="1882.5" y="-230.3" font-family="Times,serif" font-size="14.00">weaveWith</text>
</g>
</g>
</svg>
