<?xml version="1.0" encoding="UTF-8"?>
<svg xmlns="http://www.w3.org/2000/svg" xmlns:xlink="http://www.w3.org/1999/xlink" width="600pt" height="40pt" viewBox="0 0 600 40" version="1.1" shape-rendering="crispEdges">
<g id="surface1">
<rect x="0" y="0" width="600" height="40" style="fill:rgb(0%,0%,0%);fill-opacity:1;stroke:none;"/>
<path style=" stroke:none;fill-rule:nonzero;fill:rgb(100%,100%,100%);fill-opacity:1;" d="M 0 0 L 15 0 L 15 40 L 0 40 Z M 0 0 "/>
<path style=" stroke:none;fill-rule:nonzero;fill:rgb(67.843137%,84.705882%,90.196078%);fill-opacity:1;" d="M 15 0 L 30 0 L 30 40 L 15 40 Z M 15 0 "/>
<path style=" stroke:none;fill-rule:nonzero;fill:rgb(0%,0%,100%);fill-opacity:1;" d="M 30 0 L 45 0 L 45 40 L 30 40 Z M 30 0 "/>
<path style=" stroke:none;fill-rule:nonzero;fill:rgb(0%,0%,54.509804%);fill-opacity:1;" d="M 45 0 L 60 0 L 60 40 L 45 40 Z M 45 0 "/>
<path style=" stroke:none;fill-rule:nonzero;fill:rgb(0%,0%,0%);fill-opacity:1;" d="M 60 0 L 75 0 L 75 40 L 60 40 Z M 60 0 "/>
<path style=" stroke:none;fill-rule:nonzero;fill:rgb(0%,0%,0%);fill-opacity:1;" d="M 75 0 L 90 0 L 90 40 L 75 40 Z M 75 0 "/>
<path style=" stroke:none;fill-rule:nonzero;fill:rgb(0%,0%,54.509804%);fill-opacity:1;" d="M 90 0 L 105 0 L 105 40 L 90 40 Z M 90 0 "/>
<path style=" stroke:none;fill-rule:nonzero;fill:rgb(0%,0%,100%);fill-opacity:1;" d="M 105 0 L 120 0 L 120 40 L 105 40 Z M 105 0 "/>
<path style=" stroke:none;fill-rule:nonzero;fill:rgb(67.843137%,84.705882%,90.196078%);fill-opacity:1;" d="M 120 0 L 135 0 L 135 40 L 120 40 Z M 120 0 "/>
<path style=" stroke:none;fill-rule:nonzero;fill:rgb(100%,100%,100%);fill-opacity:1;" d="M 135 0 L 150 0 L 150 40 L 135 40 Z M 135 0 "/>
<path style=" stroke:none;fill-rule:nonzero;fill:rgb(0%,0%,0%);fill-opacity:1;" d="M 150 0 L 165 0 L 165 40 L 150 40 Z M 150 0 "/>
<path style=" stroke:none;fill-rule:nonzero;fill:rgb(0%,0%,54.509804%);fill-opacity:1;" d="M 165 0 L 180 0 L 180 40 L 165 40 Z M 165 0 "/>
<path style=" stroke:none;fill-rule:nonzero;fill:rgb(0%,0%,100%);fill-opacity:1;" d="M 180 0 L 195 0 L 195 40 L 180 40 Z M 180 0 "/>
<path style=" stroke:none;fill-rule:nonzero;fill:rgb(67.843137%,84.705882%,90.196078%);fill-opacity:1;" d="M 195 0 L 210 0 L 210 40 L 195 40 Z M 195 0 "/>
<path style=" stroke:none;fill-rule:nonzero;fill:rgb(100%,100%,100%);fill-opacity:1;" d="M 210 0 L 225 0 L 225 40 L 210 40 Z M 210 0 "/>
<path style=" stroke:none;fill-rule:nonzero;fill:rgb(0%,0%,0%);fill-opacity:1;" d="M 225 0 L 240 0 L 240 40 L 225 40 Z M 225 0 "/>
<path style=" stroke:none;fill-rule:nonzero;fill:rgb(0%,0%,54.509804%);fill-opacity:1;" d="M 240 0 L 255 0 L 255 40 L 240 40 Z M 240 0 "/>
<path style=" stroke:none;fill-rule:nonzero;fill:rgb(0%,0%,100%);fill-opacity:1;" d="M 255 0 L 270 0 L 270 40 L 255 40 Z M 255 0 "/>
<path style=" stroke:none;fill-rule:nonzero;fill:rgb(67.843137%,84.705882%,90.196078%);fill-opacity:1;" d="M 270 0 L 285 0 L 285 40 L 270 40 Z M 270 0 "/>
<path style=" stroke:none;fill-rule:nonzero;fill:rgb(100%,100%,100%);fill-opacity:1;" d="M 285 0 L 300 0 L 300 40 L 285 40 Z M 285 0 "/>
<path style=" stroke:none;fill-rule:nonzero;fill:rgb(100%,100%,100%);fill-opacity:1;" d="M 300 0 L 315 0 L 315 40 L 300 40 Z M 300 0 "/>
<path style=" stroke:none;fill-rule:nonzero;fill:rgb(67.843137%,84.705882%,90.196078%);fill-opacity:1;" d="M 315 0 L 330 0 L 330 40 L 315 40 Z M 315 0 "/>
<path style=" stroke:none;fill-rule:nonzero;fill:rgb(0%,0%,100%);fill-opacity:1;" d="M 330 0 L 345 0 L 345 40 L 330 40 Z M 330 0 "/>
<path style=" stroke:none;fill-rule:nonzero;fill:rgb(0%,0%,54.509804%);fill-opacity:1;" d="M 345 0 L 360 0 L 360 40 L 345 40 Z M 345 0 "/>
<path style=" stroke:none;fill-rule:nonzero;fill:rgb(0%,0%,0%);fill-opacity:1;" d="M 360 0 L 375 0 L 375 40 L 360 40 Z M 360 0 "/>
<path style=" stroke:none;fill-rule:nonzero;fill:rgb(0%,0%,0%);fill-opacity:1;" d="M 375 0 L 390 0 L 390 40 L 375 40 Z M 375 0 "/>
<path style=" stroke:none;fill-rule:nonzero;fill:rgb(0%,0%,54.509804%);fill-opacity:1;" d="M 390 0 L 405 0 L 405 40 L 390 40 Z M 390 0 "/>
<path style=" stroke:none;fill-rule:nonzero;fill:rgb(0%,0%,100%);fill-opacity:1;" d="M 405 0 L 420 0 L 420 40 L 405 40 Z M 405 0 "/>
<path style=" stroke:none;fill-rule:nonzero;fill:rgb(67.843137%,84.705882%,90.196078%);fill-opacity:1;" d="M 420 0 L 435 0 L 435 40 L 420 40 Z M 420 0 "/>
<path style=" stroke:none;fill-rule:nonzero;fill:rgb(100%,100%,100%);fill-opacity:1;" d="M 435 0 L 450 0 L 450 40 L 435 40 Z M 435 0 "/>
<path style=" stroke:none;fill-rule:nonzero;fill:rgb(0%,0%,0%);fill-opacity:1;" d="M 450 0 L 465 0 L 465 40 L 450 40 Z M 450 0 "/>
<path style=" stroke:none;fill-rule:nonzero;fill:rgb(0%,0%,54.509804%);fill-opacity:1;" d="M 465 0 L 480 0 L 480 40 L 465 40 Z M 465 0 "/>
<path style=" stroke:none;fill-rule:nonzero;fill:rgb(0%,0%,100%);fill-opacity:1;" d="M 480 0 L 495 0 L 495 40 L 480 40 Z M 480 0 "/>
<path style=" stroke:none;fill-rule:nonzero;fill:rgb(67.843137%,84.705882%,90.196078%);fill-opacity:1;" d="M 495 0 L 510 0 L 510 40 L 495 40 Z M 495 0 "/>
<path style=" stroke:none;fill-rule:nonzero;fill:rgb(100%,100%,100%);fill-opacity:1;" d="M 510 0 L 525 0 L 525 40 L 510 40 Z M 510 0 "/>
<path style=" stroke:none;fill-rule:nonzero;fill:rgb(0%,0%,0%);fill-opacity:1;" d="M 525 0 L 540 0 L 540 40 L 525 40 Z M 525 0 "/>
<path style=" stroke:none;fill-rule:nonzero;fill:rgb(0%,0%,54.509804%);fill-opacity:1;" d="M 540 0 L 555 0 L 555 40 L 540 40 Z M 540 0 "/>
<path style=" stroke:none;fill-rule:nonzero;fill:rgb(0%,0%,100%);fill-opacity:1;" d="M 555 0 L 570 0 L 570 40 L 555 40 Z M 555 0 "/>
<path style=" stroke:none;fill-rule:nonzero;fill:rgb(67.843137%,84.705882%,90.196078%);fill-opacity:1;" d="M 570 0 L 585 0 L 585 40 L 570 40 Z M 570 0 "/>
<path style=" stroke:none;fill-rule:nonzero;fill:rgb(100%,100%,100%);fill-opacity:1;" d="M 585 0 L 600 0 L 600 40 L 585 40 Z M 585 0 "/>
</g>
</svg>
